G04 start of page 10 for group -4015 idx -4015
G04 Title: stribog.main_board, toppaste *
G04 Creator: pcb 20070208 *
G04 CreationDate: Sun Apr  6 09:45:45 2008 UTC *
G04 For: dti *
G04 Format: Gerber/RS-274X *
G04 PCB-Dimensions: 236220 157480 *
G04 PCB-Coordinate-Origin: lower left *
%MOIN*%
%FSLAX24Y24*%
%LNFRONTPASTE*%
%ADD15C,0.0250*%
%ADD16C,0.0098*%
%ADD20R,0.0240X0.0240*%
%ADD21R,0.0200X0.0200*%
%ADD26R,0.0340X0.0340*%
%ADD33C,0.0120*%
%ADD35R,0.0500X0.0500*%
%ADD36R,0.0360X0.0360*%
%ADD37R,0.0098X0.0098*%
%ADD38R,0.0250X0.0250*%
%ADD39R,0.0120X0.0120*%
G54D20*X4405Y1861D02*Y1681D01*
X4885Y1861D02*Y1681D01*
X4405Y1231D02*Y1051D01*
X4885Y1231D02*Y1051D01*
X6578Y12255D02*Y12075D01*
X6098Y12255D02*Y12075D01*
G54D26*X22204Y4872D02*Y4812D01*
X21424Y4872D02*Y4812D01*
X21814Y4052D02*Y3992D01*
G54D35*X13950Y14548D03*
Y13648D03*
G54D20*X14555Y11452D02*X14735D01*
X14555Y11932D02*X14735D01*
G54D35*X14850Y14548D03*
Y13648D03*
G54D20*X13847Y12437D02*X14027D01*
X13847Y12917D02*X14027D01*
G54D36*X5388Y10918D02*Y10578D01*
X6028Y10918D02*Y10578D01*
X5309Y7965D02*Y7625D01*
X5949Y7965D02*Y7625D01*
X5349Y8949D02*Y8609D01*
X5989Y8949D02*Y8609D01*
X4955Y6981D02*Y6641D01*
X5595Y6981D02*Y6641D01*
G54D21*X3416Y5927D02*X4066D01*
X3416Y6427D02*X4066D01*
X3416Y6927D02*X4066D01*
X3416Y7427D02*X4066D01*
X3416Y7927D02*X4066D01*
X3416Y8427D02*X4066D01*
X3416Y8927D02*X4066D01*
X3416Y9427D02*X4066D01*
X1366D02*X2016D01*
X1366Y8927D02*X2016D01*
X1366Y8427D02*X2016D01*
X1366Y7927D02*X2016D01*
X1366Y7427D02*X2016D01*
X1366Y6927D02*X2016D01*
X1366Y6427D02*X2016D01*
X1366Y5927D02*X2016D01*
G54D36*X5034Y5799D02*Y5459D01*
X5674Y5799D02*Y5459D01*
G54D20*X4791Y11689D02*X4971D01*
X4791Y12169D02*X4971D01*
G54D21*X7075Y11970D02*X7725D01*
X7075Y11470D02*X7725D01*
X7075Y10970D02*X7725D01*
X7075Y10470D02*X7725D01*
X9125D02*X9775D01*
X9125Y10970D02*X9775D01*
X9125Y11470D02*X9775D01*
X9125Y11970D02*X9775D01*
G54D20*X7784Y1342D02*X7964D01*
X7784Y862D02*X7964D01*
G54D21*X11132Y12635D02*X11782D01*
X11132Y13135D02*X11782D01*
X11132Y13635D02*X11782D01*
X11132Y14135D02*X11782D01*
X9082D02*X9732D01*
X9082Y13635D02*X9732D01*
X9082Y13135D02*X9732D01*
X9082Y12635D02*X9732D01*
X7353Y13698D02*X8003D01*
X7353Y14198D02*X8003D01*
X7353Y14698D02*X8003D01*
X7353Y15198D02*X8003D01*
X5303D02*X5953D01*
X5303Y14698D02*X5953D01*
X5303Y14198D02*X5953D01*
X5303Y13698D02*X5953D01*
G54D20*X16843Y15309D02*Y15149D01*
X16063Y15309D02*Y15149D01*
Y14489D02*Y14329D01*
X16453Y14489D02*Y14329D01*
X16843Y14489D02*Y14329D01*
X6736Y1310D02*Y1130D01*
X6256Y1310D02*Y1130D01*
G54D33*X7371Y2598D02*X7591D01*
G54D39*X7371Y2858D02*X7591D01*
X7371Y3108D02*X7591D01*
X7371Y3368D02*X7591D01*
X5701Y3378D02*X5921D01*
X5701Y3118D02*X5921D01*
X5701Y2868D02*X5921D01*
X5701Y2608D02*X5921D01*
G54D20*X15598Y12370D02*Y12210D01*
X16378Y12370D02*Y12210D01*
Y13190D02*Y13030D01*
X15988Y13190D02*Y13030D01*
X15598Y13190D02*Y13030D01*
X15830Y11271D02*Y11091D01*
X15350Y11271D02*Y11091D01*
G54D36*X5624Y9973D02*Y9633D01*
X6264Y9973D02*Y9633D01*
G54D21*X15775Y5553D02*X16425D01*
X15775Y5053D02*X16425D01*
X15775Y4553D02*X16425D01*
X15775Y4053D02*X16425D01*
X17825D02*X18475D01*
X17825Y4553D02*X18475D01*
X17825Y5053D02*X18475D01*
X17825Y5553D02*X18475D01*
G54D20*X11721Y586D02*X11901D01*
X11721Y1066D02*X11901D01*
G54D16*X11315Y9730D02*X11685D01*
G54D37*X11315Y9533D02*X11685D01*
X11315Y9336D02*X11685D01*
X11315Y9139D02*X11685D01*
X11315Y8943D02*X11685D01*
X11315Y8746D02*X11685D01*
X11315Y8549D02*X11685D01*
X11315Y8352D02*X11685D01*
X11315Y8155D02*X11685D01*
X11315Y7958D02*X11685D01*
X11315Y7761D02*X11685D01*
X11315Y7565D02*X11685D01*
X11315Y7368D02*X11685D01*
X11315Y7171D02*X11685D01*
X11315Y6974D02*X11685D01*
X11315Y6777D02*X11685D01*
X12265Y6200D02*Y5830D01*
X12462Y6200D02*Y5830D01*
X12659Y6200D02*Y5830D01*
X12856Y6200D02*Y5830D01*
X13053Y6200D02*Y5830D01*
X13249Y6200D02*Y5830D01*
X13446Y6200D02*Y5830D01*
X13643Y6200D02*Y5830D01*
X13840Y6200D02*Y5830D01*
X14037Y6200D02*Y5830D01*
X14234Y6200D02*Y5830D01*
X14431Y6200D02*Y5830D01*
X14627Y6200D02*Y5830D01*
X14824Y6200D02*Y5830D01*
X15021Y6200D02*Y5830D01*
X15218Y6200D02*Y5830D01*
X15795Y6777D02*X16165D01*
X15795Y6974D02*X16165D01*
X15795Y7171D02*X16165D01*
X15795Y7368D02*X16165D01*
X15795Y7565D02*X16165D01*
X15795Y7761D02*X16165D01*
X15795Y7958D02*X16165D01*
X15795Y8155D02*X16165D01*
X15795Y8352D02*X16165D01*
X15795Y8549D02*X16165D01*
X15795Y8746D02*X16165D01*
X15795Y8943D02*X16165D01*
X15795Y9139D02*X16165D01*
X15795Y9336D02*X16165D01*
X15795Y9533D02*X16165D01*
X15795Y9730D02*X16165D01*
X15218Y10680D02*Y10310D01*
X15021Y10680D02*Y10310D01*
X14824Y10680D02*Y10310D01*
X14627Y10680D02*Y10310D01*
X14431Y10680D02*Y10310D01*
X14234Y10680D02*Y10310D01*
X14037Y10680D02*Y10310D01*
X13840Y10680D02*Y10310D01*
X13643Y10680D02*Y10310D01*
X13446Y10680D02*Y10310D01*
X13249Y10680D02*Y10310D01*
X13053Y10680D02*Y10310D01*
X12856Y10680D02*Y10310D01*
X12659Y10680D02*Y10310D01*
X12462Y10680D02*Y10310D01*
X12265Y10680D02*Y10310D01*
G54D20*X16327Y1452D02*X16507D01*
X16327Y1932D02*X16507D01*
X17114Y7476D02*X17294D01*
X17114Y7956D02*X17294D01*
X7315Y5427D02*Y5267D01*
X6535Y5427D02*Y5267D01*
Y4607D02*Y4447D01*
X6925Y4607D02*Y4447D01*
X7315Y4607D02*Y4447D01*
X5382Y783D02*X5562D01*
X5382Y1263D02*X5562D01*
G54D21*X7114Y9844D02*X7764D01*
X7114Y9344D02*X7764D01*
X7114Y8844D02*X7764D01*
X7114Y8344D02*X7764D01*
X9164D02*X9814D01*
X9164Y8844D02*X9814D01*
X9164Y9344D02*X9814D01*
X9164Y9844D02*X9814D01*
G54D20*X5232Y4696D02*Y4516D01*
X5712Y4696D02*Y4516D01*
G54D21*X19873Y9509D02*X20523D01*
X19873Y10009D02*X20523D01*
X19873Y10509D02*X20523D01*
X19873Y11009D02*X20523D01*
X19873Y11509D02*X20523D01*
X19873Y12009D02*X20523D01*
X19873Y12509D02*X20523D01*
X19873Y13009D02*X20523D01*
X17823D02*X18473D01*
X17823Y12509D02*X18473D01*
X17823Y12009D02*X18473D01*
X17823Y11509D02*X18473D01*
X17823Y11009D02*X18473D01*
X17823Y10509D02*X18473D01*
X17823Y10009D02*X18473D01*
X17823Y9509D02*X18473D01*
G54D38*X14154Y1538D02*Y538D01*
X12654Y2538D02*X13654D01*
X12654Y2038D02*X13654D01*
X12654Y1538D02*X13654D01*
X14154Y3538D02*Y2538D01*
X14654D02*X15654D01*
X14654Y2038D02*X15654D01*
G54D15*X14654Y1538D02*X15654D01*
G54D20*X11681Y2161D02*X11861D01*
X11681Y2641D02*X11861D01*
G54D21*X7114Y7718D02*X7764D01*
X7114Y7218D02*X7764D01*
X7114Y6718D02*X7764D01*
X7114Y6218D02*X7764D01*
X9164D02*X9814D01*
X9164Y6718D02*X9814D01*
X9164Y7218D02*X9814D01*
X9164Y7718D02*X9814D01*
M02*
