G04 start of page 2 for group 0 idx 0
G04 Title: stribog.main_board, solder *
G04 Creator: pcb 20070208 *
G04 CreationDate: Sun Apr  6 09:45:45 2008 UTC *
G04 For: dti *
G04 Format: Gerber/RS-274X *
G04 PCB-Dimensions: 236220 157480 *
G04 PCB-Coordinate-Origin: lower left *
%MOIN*%
%FSLAX24Y24*%
%LNBACK*%
%ADD11C,0.0400*%
%ADD12C,0.0250*%
%ADD13C,0.0100*%
%ADD14C,0.0200*%
%ADD15C,0.0250*%
%ADD16C,0.0098*%
%ADD17C,0.0600*%
%ADD18R,0.0400X0.0400*%
%ADD19C,0.1575*%
%ADD20R,0.0240X0.0240*%
%ADD21R,0.0200X0.0200*%
%ADD22R,0.0879X0.0879*%
%ADD23R,0.0800X0.0800*%
%ADD24R,0.0640X0.0640*%
%ADD25R,0.0512X0.0512*%
%ADD26R,0.0340X0.0340*%
%ADD27C,0.0380*%
%ADD28C,0.0207*%
%ADD29C,0.1260*%
%ADD30C,0.0350*%
%ADD31C,0.0350*%
G54D11*X12047Y7716D02*Y7362D01*
X11417Y7322D02*X11771D01*
Y7874D01*
X11102D01*
X11496Y7637D02*X11220Y7362D01*
X11933Y7862D02*X11539D01*
X11102Y7874D02*X10944Y8031D01*
X10866Y7677D02*X10905Y7637D01*
X11496D01*
X12063Y7732D02*X11933Y7862D01*
X10944Y8031D02*Y8976D01*
X11102Y9133D01*
X10984Y8976D02*X10944Y9015D01*
Y9488D01*
X10984Y9881D02*X11220Y10118D01*
X11535Y11181D02*Y10196D01*
X11102Y9133D02*Y9685D01*
X11338Y9921D01*
X12086D01*
Y10039D01*
X11535Y10196D02*X11968D01*
Y10275D01*
X11732Y10511D01*
X10905Y9488D02*Y9881D01*
X11514Y7086D02*X10511D01*
X9960Y6732D02*X10275Y6771D01*
X10590Y7086D01*
X11338Y6850D02*X10708D01*
X10433Y7086D02*X10708Y7362D01*
X11524Y7096D02*X11514Y7086D01*
X11181D02*X11417Y7322D01*
X11220Y7362D02*X11023D01*
X12047D02*X11574Y6889D01*
X11614Y6929D02*Y7126D01*
X11299Y6614D02*X11614Y6929D01*
X11574Y6889D02*Y6889D01*
X11614Y7126D02*X11338Y6850D01*
X10708D02*X10472Y6614D01*
X10433D01*
X10393Y2259D02*X10370Y2283D01*
X10393Y2259D02*X10456Y2322D01*
X9393Y2220D02*X9377Y2244D01*
X9212Y2047D02*X9370Y2244D01*
X8858Y1968D02*X9173Y2283D01*
X10511D01*
X10378Y2244D02*X9409D01*
X9094Y1968D02*X10905D01*
X10393Y2259D02*X10378Y2244D01*
X9960Y6732D02*X9291Y6063D01*
Y5984D02*X8661D01*
X8582Y5984D02*X9212Y6614D01*
X8779Y5551D02*X9133Y5905D01*
X8661D02*Y5590D01*
X9728Y6854D02*X8937Y6062D01*
X9370Y6614D02*X9645Y6889D01*
X10196Y6574D02*X9488Y5866D01*
X10118Y6456D02*X10590D01*
X10748Y6614D01*
X11299D01*
X9488Y5866D02*X9173D01*
X10944Y2401D02*X11889Y3346D01*
Y2677D02*X11614Y2401D01*
X12086Y5590D02*X10984Y4488D01*
X11023Y2834D02*Y3307D01*
X11968Y4251D01*
X11889Y3700D02*Y2244D01*
X11771Y2992D02*X11063Y2283D01*
X7952Y4881D02*X8070Y5000D01*
X8779D01*
X8661Y5590D02*X7952Y4881D01*
X8779Y3622D02*X8661Y3740D01*
Y4527D01*
X8346Y4330D02*X8582Y4094D01*
X8543Y4803D02*Y5314D01*
X8779Y5000D02*Y5551D01*
X7952Y4330D02*X8346D01*
X7834Y4527D02*Y4212D01*
X7952Y4330D01*
X8661Y4527D02*X7834D01*
X8779Y4881D02*Y3622D01*
Y4291D02*Y5354D01*
G54D12*X11023Y1850D02*X11063D01*
G54D11*X11563Y1933D02*X11185D01*
X11614Y2401D02*Y1968D01*
X11141D01*
X11185Y1933D02*X11023Y1771D01*
X10748Y2244D02*X11889D01*
X10456Y2322D02*X11811D01*
G54D12*X10984Y1811D02*X11023Y1850D01*
G54D11*Y1811D02*X10708Y2126D01*
Y2204D01*
X10748Y2244D01*
X10826Y2401D02*X10944D01*
X6378Y11012D02*Y10629D01*
X6417D01*
X9921Y10393D02*X9763Y10551D01*
X8418Y10472D02*X9881D01*
X9055Y10826D02*X8693Y10472D01*
X9645Y10275D02*X9566Y10196D01*
X9362Y10905D02*X9176D01*
X9649Y10826D02*X9051D01*
X6929Y10275D02*X6889Y10196D01*
X6929Y10275D02*X6968Y10039D01*
X6417Y10629D02*X6889Y10157D01*
X6389Y11023D02*X6378Y11012D01*
X8693Y10472D02*X8415D01*
X10039Y11220D02*X9649Y10826D01*
X9921Y11259D02*X9960Y6732D01*
X9685Y9055D02*Y9527D01*
X9566Y10196D02*Y9645D01*
X9842Y9370D01*
Y8897D01*
X9921Y8700D02*X9880Y8741D01*
X10157Y6889D02*Y11141D01*
X9291Y8661D02*X9685Y9055D01*
X9606Y8149D02*X9370Y8464D01*
X9728Y7555D02*Y6893D01*
X9880Y8741D02*X9133D01*
X9881Y8819D02*X9488Y8425D01*
X9133Y8741D02*Y8622D01*
X8976Y8503D02*X8779Y8307D01*
X9960Y8425D02*X9133D01*
X8897Y8385D02*X9488D01*
X9212Y8661D02*X9291D01*
X9448Y8503D02*X9094D01*
X9370Y8464D02*X9291D01*
X9728Y7555D02*X9606Y7677D01*
Y8149D01*
X14921Y6456D02*X15118D01*
X15275Y6141D02*Y5629D01*
X15433Y6141D02*X15275D01*
X15118Y6456D02*X15472Y6102D01*
X15629Y6456D02*X14921D01*
X15472Y6102D02*X15433Y6141D01*
X16299Y6496D02*X16692Y6102D01*
Y5944D01*
X16653Y6102D02*Y6102D01*
X16692Y5944D02*X16653Y5984D01*
Y6889D01*
X16102Y5551D02*X16653Y6102D01*
X16378Y6141D02*X15787Y5551D01*
X15866Y5905D02*X16023Y6063D01*
X15944Y6220D02*X15984Y6181D01*
Y6141D01*
X15433Y5590D01*
Y5551D01*
X15196Y5629D02*X15787Y6220D01*
X14634Y5547D02*X14630Y5551D01*
X13385Y5511D02*X16023D01*
X14634Y5547D02*X14638Y5551D01*
X16102D01*
X12086Y6377D02*X12401Y6062D01*
Y5905D01*
X12086Y5590D02*Y6377D01*
X12244Y6259D02*Y5984D01*
X12322Y5629D02*X12677Y5984D01*
X12755D02*X13070D01*
X13110Y5944D02*X13464Y5590D01*
X14771D02*X13582D01*
X13464D02*X13858D01*
X13385Y5551D02*Y5511D01*
X14814Y5547D02*X14771Y5590D01*
X12244Y5984D02*X12913Y6653D01*
G54D13*X13858Y5511D02*Y5590D01*
G54D11*X13700Y4291D02*Y4685D01*
G54D13*Y4724D01*
G54D11*X12992D02*X14566D01*
X12519Y4527D02*Y5039D01*
X15775Y4553D02*X15783Y4560D01*
Y4751D01*
X15787Y4748D01*
X16649D01*
X15777Y4555D02*X16346D01*
X15590Y2519D02*Y2322D01*
X16500Y3523D02*X15594D01*
X16417Y3976D02*X16267Y3826D01*
X15740D01*
X15559Y4074D02*X16315D01*
X15728Y4307D02*X16315D01*
X15594Y3523D02*Y3736D01*
X15330Y4000D01*
X15543Y4059D02*X15559Y4074D01*
X15330Y4000D02*Y4161D01*
X15397D01*
X15689Y4452D01*
X15775Y4553D02*X15777Y4555D01*
X15654Y2538D02*X15830Y2362D01*
G54D13*X13074Y9673D02*X13110Y9638D01*
Y9606D01*
G54D11*Y9173D01*
X12913Y6653D02*Y6063D01*
Y6850D02*Y6496D01*
X13189Y10157D02*Y9212D01*
X15433Y7834D02*X15630D01*
X15984Y7480D01*
Y7244D01*
X15433Y8228D02*X16023Y7637D01*
X16378Y7677D02*X15787Y8267D01*
X16299Y6929D02*Y6496D01*
X16023Y6063D02*Y7637D01*
X15748Y6574D02*X15629Y6456D01*
X15787Y6220D02*Y6574D01*
X16102Y6889D02*Y5905D01*
X15984Y7244D02*X16299Y6929D01*
X16378Y7480D02*Y7480D01*
X16653Y6889D02*X16378Y7165D01*
X16653Y7204D02*X16378Y7480D01*
Y7165D02*Y7677D01*
X16653Y6850D02*Y7204D01*
X15551Y8494D02*Y8110D01*
X15560Y8503D02*X15551Y8494D01*
X14842Y8740D02*X15078Y8503D01*
X14842Y8740D02*X14960D01*
X15354Y8228D02*X14842Y8740D01*
X14960D02*X15196Y8503D01*
X15433Y7834D02*Y8228D01*
X15787Y8267D02*Y8503D01*
X15078D02*X15560D01*
X15433Y8228D02*X15354D01*
X15787Y8503D02*X15315D01*
X21181Y3110D02*X20708Y2637D01*
X21653Y3307D02*X21614Y3267D01*
X21456D01*
X21574Y3110D02*X21181D01*
X20748Y2283D02*X21574Y3110D01*
X20630Y2126D02*Y1141D01*
X20393Y1456D02*Y1771D01*
X20354Y2126D02*X20511Y2283D01*
Y2637D01*
X20354Y2480D01*
X20708Y2244D02*X20630Y2126D01*
X20629Y1692D02*Y1968D01*
X20393Y1259D02*X20354Y1220D01*
X20393Y1259D02*X20314Y1181D01*
X19252D01*
Y1456D01*
X20393D01*
Y1771D02*X19252D01*
Y2007D01*
X18937Y2322D02*X18346D01*
X18700Y2677D01*
Y2992D01*
X19566Y2126D01*
X19370Y2480D02*X19212Y2637D01*
X19566Y2126D02*X20354D01*
Y2480D02*X19370D01*
X19212Y2637D02*X20629D01*
X19389Y1988D02*X19074Y2303D01*
X13661Y3779D02*X13425Y4015D01*
X13700Y4291D01*
X13622Y3779D02*X13582Y3818D01*
Y4015D01*
X13464Y3937D02*X13543Y3858D01*
X14566Y4724D02*X13622Y3779D01*
X14015Y4448D02*X14055D01*
X13976Y4370D01*
X13582Y4015D02*X14015Y4448D01*
X13976Y4370D02*X12913D01*
X13897Y2519D02*X13661Y2755D01*
Y3779D01*
X13543Y3858D02*Y2874D01*
X13818D01*
Y2637D01*
Y4015D01*
X10433Y2244D02*X12755Y4566D01*
X12244Y4251D02*X12519Y4527D01*
G54D13*X12795Y4881D02*Y4803D01*
G54D11*Y4881D02*Y4055D01*
X12874Y4842D02*X12992Y4724D01*
X12283Y5275D02*X11771D01*
X12283Y5590D02*X12086D01*
X12007Y5511D02*X12086Y5590D01*
X12637Y4921D02*X12322Y5236D01*
Y5629D01*
X13425Y4015D02*X12204D01*
X11968Y4251D02*X12244D01*
X14481Y2007D02*X14409Y1935D01*
X14479Y2005D02*X14253D01*
X13897Y2362D01*
X14173Y2047D02*X13897Y2322D01*
X14527Y2047D02*X14330Y1850D01*
X14252Y1535D02*X14527Y1811D01*
X13897Y1330D02*X13709Y1141D01*
X13897Y2362D02*Y1330D01*
Y2519D02*Y2322D01*
X14173Y1141D02*Y2047D01*
X13709Y1141D02*X14448D01*
X14349D02*X14173D01*
X14360Y1131D02*X14349Y1141D01*
X14763Y1299D02*X14724Y1259D01*
X14360Y1231D02*X14371Y1220D01*
X16417Y3976D02*X16181Y3740D01*
Y3622D01*
X16456Y4818D02*Y3976D01*
X16787Y4897D02*Y3811D01*
X16500Y3523D01*
G54D14*X17677Y3976D02*Y3582D01*
Y3976D02*X16378D01*
G54D12*X16181Y2401D02*Y2519D01*
G54D11*X14481Y2007D02*X16023D01*
X16181Y2165D01*
Y2559D01*
X15590Y2322D02*X15314Y2047D01*
X14527D01*
X14371Y1220D02*X17637D01*
X17322Y1535D01*
X14252D01*
X14527Y1811D02*X17204D01*
Y2086D01*
X14133D01*
X15830Y2362D02*X17086D01*
X16968Y2480D02*X15590D01*
X17086Y2362D02*X16968Y2480D01*
X17004Y5129D02*X16456Y4818D01*
X16968Y5078D02*X16787Y4897D01*
X17165Y5393D02*X16220Y4448D01*
X17125Y5039D02*X16653Y4566D01*
X17279Y5404D02*X17268Y5393D01*
X17165D01*
X17279Y5404D02*X17283Y5401D01*
Y5039D01*
X17125D01*
X15866Y10984D02*X16102Y10748D01*
X16496D01*
X16614Y10866D01*
X16968D01*
X17126Y11023D01*
X17401Y11614D02*X16535Y10748D01*
X16535D01*
X16850Y10669D02*Y9409D01*
X16181Y10590D02*Y9527D01*
X16220Y9566D02*X16535D01*
X16850Y9409D02*X15944D01*
X16535Y9566D02*Y10551D01*
X15944Y9409D02*X15905Y9448D01*
Y10590D01*
X21063Y12677D02*Y12283D01*
X21063Y12677D02*X21063D01*
X22480Y11574D02*X22165Y11889D01*
X21496Y12244D02*X21063Y12677D01*
X21023Y12126D02*X21929D01*
X22480Y9448D02*Y11574D01*
X22204Y11850D02*Y10118D01*
Y10196D02*Y9842D01*
X22480Y9566D01*
Y8070D01*
X22204Y11850D02*X21063Y12992D01*
X17126Y11023D02*X17401D01*
Y11614D01*
X17795Y12007D01*
X19133D01*
X18858Y11811D02*X18818Y11771D01*
X18582Y11732D02*X18346Y11968D01*
X18307Y11023D02*X18622Y11338D01*
Y11338D01*
X18228Y12322D02*X17913Y12007D01*
Y12007D01*
X18307Y10118D02*X18937D01*
X18818Y11771D02*Y10275D01*
X18582Y10472D02*Y11732D01*
X18818Y10275D02*X18740Y10354D01*
X18464D01*
X18582Y10472D01*
G54D13*X18189Y10000D02*X18110D01*
G54D11*X18189D02*X18307Y10118D01*
X18189Y10000D02*X17913D01*
Y10196D01*
X18307Y10590D01*
Y11023D01*
X18948Y10043D02*X19133Y10228D01*
X18948Y10043D02*X18951Y10039D01*
X19212D01*
X19409Y9842D01*
Y9488D01*
X19724D01*
Y10393D01*
X19409Y12992D02*X18543D01*
Y12834D01*
X18228Y12519D01*
Y12322D01*
X18346Y12244D02*X18385Y12283D01*
X18858D01*
X18818Y12322D01*
Y12677D01*
X18700Y12559D01*
X18582D01*
X19133Y10228D02*Y12755D01*
X19409Y9488D02*Y12677D01*
X19566Y12204D02*Y9488D01*
Y11968D02*Y11889D01*
X19724Y10393D02*X19881Y10551D01*
X20196Y10905D02*X19803Y10511D01*
X19881Y10551D02*Y11614D01*
X20000Y11496D01*
X20236D01*
X20196Y11456D01*
Y10905D01*
X19566Y11889D02*X19881Y11574D01*
X19645Y12677D02*Y12677D01*
X19133Y12755D02*X19370Y12992D01*
X20236D01*
X19409Y12677D02*X19685D01*
Y12322D01*
X19566Y12204D01*
X19960Y12992D02*X19645Y12677D01*
X19685Y12992D02*X20669D01*
X20866Y12795D01*
Y12283D01*
X21023Y12126D01*
X21063Y12992D02*X19960D01*
G54D14*X15984Y12677D02*X16378Y13070D01*
Y13228D01*
G54D11*X15787Y12480D02*X16377Y13070D01*
X15984Y12677D02*X15826Y12834D01*
X16063Y12755D02*X15393Y12086D01*
X16063Y12755D02*Y13503D01*
X15826Y12834D02*Y13779D01*
Y13818D02*Y14015D01*
X16349Y13257D02*X16299Y13307D01*
X14291Y11771D02*Y14015D01*
X13937Y11496D02*X14212Y11771D01*
G54D13*X14173Y11496D02*X14212D01*
G54D11*X14527Y13779D02*Y11968D01*
X14842Y11574D02*Y12874D01*
X14763Y11574D02*Y12814D01*
X14173Y11456D02*X15275D01*
X14921Y11496D02*X14842Y11417D01*
X14212Y11771D02*X14685D01*
X15157Y11456D02*Y13110D01*
X15393Y11574D02*Y12086D01*
X13976Y14055D02*Y11811D01*
X14015Y10826D02*Y11063D01*
X13976Y11811D02*X13543Y11377D01*
Y11338D02*X13307Y11102D01*
X13700Y11496D02*X13582Y11377D01*
X13307D02*Y11023D01*
X13582Y11377D02*X13307D01*
X14370Y11023D02*X14173D01*
X14409Y10984D02*X14370Y11023D01*
X13307Y11102D02*Y10826D01*
X12007Y11496D02*X12283Y11220D01*
X12047Y11653D02*Y12440D01*
X12126Y12519D02*X12795D01*
X12874D02*X13149D01*
X14212Y11259D02*X13622D01*
X14291Y11338D02*X14212Y11259D01*
X12007Y13543D02*X12165D01*
X12047Y12440D02*X12126Y12519D01*
G54D12*X12397Y13425D02*X12068Y13622D01*
X12086Y13639D01*
Y13779D01*
X12007Y13858D01*
G54D11*X12795Y12519D02*Y13188D01*
X12716Y13228D02*Y12834D01*
X12440Y12559D01*
G54D12*X12598Y13346D02*X12397Y13425D01*
G54D11*X12795Y12598D02*X12874Y12519D01*
X13149D02*Y13346D01*
X13070Y13267D01*
X12677D01*
X12716Y13228D01*
G54D12*X12598Y13307D02*Y13346D01*
G54D11*X15629Y12559D02*Y13031D01*
X15472Y12401D02*X15629Y12559D01*
X15472Y13149D02*Y12401D01*
X15551Y13228D02*X15472Y13149D01*
X15315Y13149D02*X14448D01*
X14822Y12814D02*X15196Y13188D01*
X14763Y12814D02*X14822D01*
X15275Y13228D02*X15551D01*
X15157Y13110D02*X15275Y13228D01*
X14448Y13503D02*X15708D01*
X15354Y13188D02*X15315Y13149D01*
X15669Y10984D02*X15039D01*
X15866Y11220D02*Y10984D01*
X15905Y10590D02*X16181D01*
X15669Y11220D02*Y10984D01*
X16181Y9527D02*X16220Y9566D01*
X14843Y11457D02*Y9724D01*
X14645Y9842D02*Y11181D01*
Y11456D02*X14763Y11574D01*
X14921Y9921D02*Y9606D01*
X15433Y11614D02*X15748Y11299D01*
X15629Y11456D02*X15866Y11220D01*
X14921Y11220D02*X15669D01*
X13267Y10039D02*X13661Y10433D01*
X13858Y10866D02*X13543Y10551D01*
X13401Y10354D02*X12992D01*
X13307Y10826D02*X12992Y10511D01*
X13918Y10451D02*Y10669D01*
X13937Y10433D02*X13918Y10451D01*
X14645Y11181D02*X14252D01*
Y11338D01*
X14193Y10944D02*X14212D01*
X13918Y10669D02*X14193Y10944D01*
X13937Y10748D02*X14015Y10826D01*
X14488Y10196D02*X14409Y10275D01*
X11988Y11425D02*Y10692D01*
X12007Y11692D02*Y11496D01*
X12992Y10511D02*X11889D01*
X14173Y10433D02*X13661D01*
X14409Y10275D02*Y10984D01*
X12992Y10354D02*X13189Y10157D01*
X13445Y10310D02*X13401Y10354D01*
X13149Y10433D02*X12401D01*
X14173Y11023D02*Y10433D01*
X13858Y11141D02*X13149Y10433D01*
X11948Y11539D02*X11944Y11535D01*
X7244Y13818D02*X7559Y14133D01*
X8031D02*X8031D01*
X7283Y13937D02*Y14133D01*
X8267D02*X7204D01*
X8346Y13818D02*X8031Y14133D01*
X7244Y13503D02*Y13818D01*
X7283Y14133D02*Y13543D01*
X7126Y13385D01*
Y13307D02*Y12952D01*
X6850D01*
X6929Y13464D02*X6889Y13503D01*
X6653Y13228D02*X6692Y13188D01*
X7007Y13661D02*X7283Y13937D01*
X9094Y14251D02*Y13464D01*
X8622Y14251D02*X9094D01*
X8937Y13936D02*Y13740D01*
X8897Y13976D02*X8937Y13936D01*
Y13740D02*X8464D01*
X8385Y13976D02*X8897D01*
X8425Y14291D02*X8267Y14133D01*
X8425Y14448D02*Y14291D01*
Y14448D02*X8622Y14251D01*
X12007Y13858D02*X11989Y13876D01*
X12007Y13858D02*Y13543D01*
X11968Y13897D02*X12007Y13858D01*
X10883Y11692D02*X10669Y11907D01*
X10179Y11417D01*
X11771Y11377D02*X12047Y11653D01*
X11944Y11535D02*X10984D01*
X10179Y11417D02*X10078D01*
X9921Y11259D01*
X10236Y11456D02*X10157Y11377D01*
X9763D01*
X10157Y11141D02*X10393Y11377D01*
X9763Y11302D02*X9366Y10905D01*
X9763Y11377D02*Y11302D01*
X10393Y11377D02*X10433D01*
X11989Y13876D02*Y14409D01*
X9212Y6614D02*X9370D01*
X9133Y8622D02*X8897Y8385D01*
X10433Y11377D02*Y7086D01*
X10708Y7362D02*Y11614D01*
X10984Y11338D01*
Y9881D01*
X11220Y10118D02*Y11496D01*
X11535Y11181D01*
X11771Y10866D02*Y11377D01*
X12283Y10748D02*X12559Y10472D01*
X12283Y11220D02*Y10748D01*
X12401Y10433D02*X12007Y10039D01*
X14291Y14015D02*X14527Y13779D01*
X13976Y14133D02*X15669D01*
X15511Y14330D02*X13897D01*
X13937Y14094D02*X13976Y14055D01*
X14015Y14370D02*X13997Y14351D01*
X13779Y14645D02*X14881D01*
X13582Y14527D02*X13976Y14133D01*
X13464Y14527D02*X13582D01*
X13167Y14351D02*X13543D01*
X13464Y14527D02*X13582Y14645D01*
X13997Y14351D02*X13189D01*
X13464Y14527D02*X13503Y14566D01*
X12086Y14881D02*Y14960D01*
X12401Y14527D02*X12007Y14133D01*
X12874Y14645D02*X13167Y14351D01*
X13503Y14921D02*X12086D01*
Y14566D01*
X12126Y14606D02*X13307D01*
X12086Y14960D02*X14842D01*
X12086Y14566D02*X12126Y14606D01*
X13503Y14566D02*Y14921D01*
G54D12*X12992Y15000D02*X13031Y15039D01*
G54D11*X16378Y13070D02*Y14960D01*
X16299Y13307D02*Y14921D01*
X15748Y13818D02*X14488D01*
X15669Y14528D02*Y14133D01*
X16023Y14882D02*Y13779D01*
X16377Y13070D02*X16378D01*
X16072Y14931D02*X16023Y14882D01*
X15708Y14566D02*X16063Y14921D01*
X15157Y14566D02*X15708D01*
X14842Y14881D02*X15157Y14566D01*
X14842Y14960D02*Y14881D01*
G54D12*X7352Y3564D02*X7095Y3307D01*
G54D11*X7125Y3464D02*X6535D01*
G54D12*X7095Y3307D02*X6496D01*
G54D11*X7440Y4291D02*X7165D01*
X6929Y4527D02*X7716D01*
Y4055D01*
X6929Y4881D02*X8779D01*
X7165Y4291D02*X7244Y4212D01*
Y3740D02*X7007Y3503D01*
X7353Y3702D02*X7440Y3790D01*
X7244Y4212D02*Y3740D01*
X7440Y3790D02*Y4291D01*
X7716Y4055D02*X7125Y3464D01*
X7755Y1968D02*X9173D01*
X6220Y2598D02*Y2834D01*
X7716Y2007D02*X6259D01*
X6417Y2244D02*X6653Y2007D01*
X6299Y2244D02*X6259Y2283D01*
X6417Y2067D02*Y2283D01*
Y2322D02*Y2244D01*
X6299Y1968D02*Y2244D01*
X7755Y1968D02*X7440Y2283D01*
G54D12*X6456Y3228D02*X6535Y3307D01*
G54D11*X7409Y2489D02*Y2290D01*
X7165Y2047D01*
X7440Y2283D02*Y2519D01*
X6338Y3031D02*Y2322D01*
X5590Y6259D02*X6456D01*
G54D12*X6379Y4610D02*X6343Y4606D01*
X6379Y4610D02*X6336Y4566D01*
G54D11*X6929Y4881D02*X6653Y4606D01*
X6929Y4881D02*Y4527D01*
X6220Y2834D02*X5629D01*
X6378D02*Y2874D01*
X6338Y2952D02*X6417Y3031D01*
Y3582D01*
G54D12*X6496Y3267D02*Y3228D01*
G54D11*X6378Y2874D02*X6732Y3228D01*
X4803Y9606D02*Y6614D01*
X4066Y8927D02*X4399D01*
X4803Y9330D01*
X5026Y9973D02*Y9488D01*
X4803Y9330D02*Y10196D01*
X5026Y9973D01*
X4881Y8188D02*X4921Y8228D01*
X4566Y6771D02*X4488Y6850D01*
X3976Y8700D02*Y6889D01*
X3740Y7795D02*X4133Y8188D01*
X4488Y6850D02*Y9055D01*
X4055Y8700D02*X3976D01*
X4173Y8937D02*Y6968D01*
X4055Y7086D01*
Y8700D01*
X6378Y9015D02*X6653Y8740D01*
Y7952D01*
X6299Y7834D02*Y8740D01*
X6653Y7952D02*X6378Y7677D01*
X6456Y6259D02*X6378Y6338D01*
Y6653D02*X6181Y6456D01*
X6063D01*
X6378Y7677D02*Y6338D01*
X6141Y6653D02*Y9015D01*
X5826D01*
Y6889D01*
X5472Y6929D02*Y8228D01*
X5157D01*
Y6771D01*
X4921Y8228D02*X5748D01*
X6063Y6417D02*X5826Y6181D01*
X5511D01*
X5315Y6338D02*X5590D01*
X4055Y6535D02*X4370Y6220D01*
X4212Y6732D02*X4488Y6456D01*
X4527D01*
X4488Y6496D01*
Y6220D02*X4448Y6181D01*
X4094D01*
X5826Y6496D02*X6102Y6771D01*
X4763Y6377D02*X5039D01*
X4330Y6574D02*X6220D01*
X6141Y6653D01*
X5826Y6889D02*X5511D01*
X5472Y6929D01*
X4566Y4251D02*Y6102D01*
X4488Y1771D02*Y6220D01*
X4173Y6102D02*Y1732D01*
X3937Y1771D02*Y6259D01*
X4960Y5142D02*Y3503D01*
X4803Y3740D02*Y4055D01*
X4330D01*
X4685Y4133D02*X4566Y4251D01*
X4763Y4173D02*X4803Y4212D01*
Y5118D01*
X4330Y3346D02*X4370D01*
X5393Y3307D02*X5196Y3503D01*
X5393Y3779D02*Y3307D01*
X4960Y3779D02*X5393D01*
X3700Y6220D02*Y1692D01*
X5866Y1653D02*X5433Y1220D01*
Y1574D02*X5708Y1850D01*
X4173Y1456D02*X4488Y1771D01*
X4173Y1732D02*X3897D01*
X3937Y1771D01*
X4409Y748D02*X4370Y787D01*
X4881Y826D02*X5157D01*
X5433Y1181D02*Y590D01*
X6023Y1063D02*Y1377D01*
X5748Y1338D02*Y787D01*
X6220Y1811D02*X5748Y1338D01*
X6220Y669D02*Y1811D01*
X6141Y590D02*X6220Y669D01*
X5393Y590D02*X6141D01*
X5748Y787D02*X6023Y1063D01*
X5551Y1968D02*X6299D01*
X6259Y2283D02*X5511D01*
Y2598D02*X6220D01*
X4370Y787D02*Y3346D01*
X4606Y708D02*Y3267D01*
X4881D02*Y826D01*
X4606Y3267D02*X4881D01*
X5157Y826D02*Y3267D01*
X5433Y3228D01*
Y3267D02*Y1574D01*
X5511Y2283D02*Y2598D01*
X5708Y6181D02*X4527D01*
X4094Y6181D02*X4173Y6102D01*
X4370Y6220D02*Y4291D01*
X3346Y4881D02*Y6535D01*
X3228Y6417D02*Y5000D01*
Y5905D01*
X3503Y748D02*X4409D01*
X2913Y787D02*X3189D01*
X2559Y551D02*X2362Y748D01*
Y1023D01*
X2440Y944D01*
X4173D01*
X5433Y590D02*X2598D01*
X4173Y944D02*Y1141D01*
X4133Y1102D01*
X2362D01*
X2637D01*
X3070Y1456D02*X4173D01*
X3661Y1692D02*X3346Y1377D01*
X2874D01*
X3425Y1614D02*X3149D01*
X2637Y1102D02*X3031Y1496D01*
X3070Y1456D01*
X2874Y1377D02*Y2519D01*
X2716Y2677D01*
X3425Y3149D02*Y1614D01*
X3149D02*Y2992D01*
X2992Y2834D01*
X2913D01*
X2716Y2677D02*X2047D01*
X2126Y3031D02*X2716D01*
X2755Y3070D01*
Y3149D01*
X2047D01*
X3425D01*
X1404Y3320D02*Y5511D01*
X1653D01*
X1692Y5472D01*
Y3188D01*
Y5511D01*
X1850D01*
X1771Y5433D01*
X3818Y4409D02*X3346Y4881D01*
X1771Y5433D02*Y3385D01*
X2047Y2677D02*X1404Y3320D01*
X1771Y3385D02*X2126Y3031D01*
X2677Y7165D02*X3858D01*
X2952Y6889D02*X2677Y7165D01*
X3858D02*Y7440D01*
X3622Y6535D02*X4055D01*
X3582Y6692D02*X3897D01*
X3976Y6889D02*X2952D01*
X3858Y7440D02*X3818Y7480D01*
X3346Y6771D02*X4566D01*
X2165Y7047D02*X1771D01*
X2126Y7007D02*X1535D01*
Y7283D01*
X2322D01*
X1771Y7047D02*X1732Y7007D01*
X2716Y7834D02*X2755Y7795D01*
X2716Y7834D02*Y7834D01*
X2362Y7480D02*X2716Y7834D01*
X2362Y7244D02*X2165Y7047D01*
X2244Y6968D02*X2440Y7165D01*
X2480D01*
X2519Y7125D01*
X2559Y7322D02*X2519Y7362D01*
X1535Y7480D02*X2362D01*
X3818D02*X1535D01*
X2755Y7795D02*X3740D01*
X3346Y6259D02*X3622Y6535D01*
X3937Y6259D02*X3700D01*
X3661Y6220D01*
X3346Y6535D02*X3228Y6417D01*
Y5905D02*X2126Y7007D01*
X2322Y7283D02*X3070Y6535D01*
Y6496D01*
X3346Y6771D01*
X4488Y9055D02*X2362D01*
Y8818D01*
X3070D01*
X3189Y8937D01*
X4173D01*
G54D12*X6220Y14685D02*X6732Y15196D01*
G54D13*X7283Y14724D02*X6771Y14212D01*
X7440Y14724D02*X7283D01*
G54D15*X6220Y14685D02*Y14173D01*
X6256Y14302D02*X6244Y14291D01*
G54D11*X7598Y11338D02*Y11061D01*
X7637Y11377D02*X7598Y11338D01*
G54D13*X7834Y12637D02*X7677Y12795D01*
X7795Y13621D02*Y13622D01*
X8622Y12637D02*X7834D01*
X8768Y12949D02*X8811Y12992D01*
X7677Y13503D02*X7795Y13622D01*
G54D12*X8425Y10905D02*X8858Y11338D01*
G54D11*X8189D02*X8149Y11377D01*
G54D12*X8614Y11968D02*X8582Y12007D01*
X8661Y11102D02*X8976Y11417D01*
G54D11*X8149Y11377D02*X7637D01*
G54D13*X7677Y12795D02*Y13503D01*
G54D12*X6732Y15196D02*X9566D01*
G54D13*X9094Y14763D02*X8976Y14881D01*
X7952D01*
X11456Y14724D02*Y14291D01*
X11535Y14803D02*X11456Y14724D01*
G54D12*X9566Y15196D02*Y14291D01*
Y14377D02*Y13149D01*
G54D13*X9563Y14381D02*X9566Y14377D01*
X10890Y14409D02*X10078D01*
G54D12*X9566Y13149D02*X9370Y12952D01*
G54D13*X9330Y12992D02*X9488Y13149D01*
X8811Y12992D02*X9330D01*
X9395Y13149D02*X9527D01*
G54D12*Y12408D02*Y13149D01*
X9370Y12952D02*X8818D01*
G54D13*X10172Y12322D02*X11063D01*
X10082Y12334D02*X10078Y12330D01*
Y12007D01*
X9842Y11771D01*
X9488D02*X8622Y12637D01*
G54D12*X9602Y12334D02*X9527Y12408D01*
G54D13*X9842Y11771D02*X9488D01*
G54D12*X8976Y11417D02*X9173D01*
G54D13*X10078Y12874D02*Y13425D01*
X10118Y12834D02*X10078Y12874D01*
X11008Y13425D02*X10039D01*
G54D14*X1732Y13385D02*X393Y12047D01*
X1299Y11574D02*X1653Y11929D01*
G54D11*X1732Y13385D02*X2637Y14291D01*
G54D14*X1653Y11929D02*Y12598D01*
X393Y11023D02*X2598D01*
X3897D02*X2283D01*
G54D13*X4173Y11496D02*X4330D01*
X4173D02*X4277D01*
G54D14*X3003Y11421D02*X3086Y11417D01*
X3007D02*X4173D01*
G54D12*X2755Y13700D02*X1653Y12598D01*
G54D11*X3228Y14291D02*X4448D01*
X2637D02*X3503D01*
G54D14*X5739Y11523D02*X5393Y11178D01*
G54D15*X6256Y14122D02*X6087Y14291D01*
G54D12*X6389Y12783D02*X5472Y13700D01*
X6389Y12523D02*Y12783D01*
G54D14*X5472Y12047D02*X6063D01*
G54D15*X6244Y14291D02*X4527D01*
G54D12*X5472Y13700D02*X2755D01*
X3149Y11968D02*Y12834D01*
X3307Y12992D01*
X3464D01*
G54D14*X3346Y13031D02*X4488D01*
X5472Y12047D01*
X4173Y11496D02*X4347D01*
X4724Y11119D01*
G54D12*X19252Y9015D02*X18858Y9409D01*
X19252Y9015D02*X20748D01*
G54D13*X21889Y9173D02*X21929Y9212D01*
X21889Y8700D02*Y9173D01*
X21929Y9212D02*Y9212D01*
G54D12*X18858Y9409D02*X18307D01*
G54D13*X19370Y7165D02*Y7126D01*
G54D12*X20748Y9015D02*X21417Y9685D01*
G54D13*X21889Y6968D02*Y8937D01*
G54D14*X20185Y10121D02*X20457Y10393D01*
G54D13*X20472D01*
G54D11*X21141Y787D02*X20944Y590D01*
X20315Y5236D02*Y4291D01*
X21141Y787D02*Y1929D01*
X21771Y2559D01*
X22165D01*
X22637Y3031D01*
Y4685D01*
X21811Y5118D02*Y4291D01*
X22126Y4960D02*Y4685D01*
G54D14*X21484Y11657D02*X21441Y11614D01*
X20826D01*
X20146Y12437D02*X20157Y12425D01*
Y12047D01*
X21484Y11177D02*X21291Y10984D01*
X20747D01*
G54D13*X21664Y10200D02*X21660Y10196D01*
G54D14*X21062D01*
X20905Y10039D01*
G54D11*X22992Y12086D02*X21456Y13622D01*
X22992Y8464D02*Y12086D01*
X19291Y5275D02*X20315D01*
X20275Y5259D02*X20448Y5472D01*
X20488D02*X22519D01*
X19252Y5236D02*Y5275D01*
X20275D02*Y5236D01*
X22559Y4724D02*X22244Y5039D01*
X22559Y5433D02*Y4724D01*
X22519Y5472D02*X22559Y5433D01*
X21614Y5472D02*X22126Y4960D01*
X21653Y5275D02*X21811Y5118D01*
X21653Y4133D02*Y5275D01*
X22244Y5039D02*Y5236D01*
X22480Y5472D02*X22992Y5984D01*
Y8503D01*
X22637Y4685D02*X22204D01*
X19393Y4259D02*X18677Y3543D01*
G54D16*X21614Y6692D02*X21889Y6968D01*
G54D12*X7405Y6539D02*X7322Y6456D01*
X7401Y6747D02*Y7283D01*
X7362Y7416D02*Y8149D01*
X7405Y7373D02*X7362Y7416D01*
X7405Y6743D02*X7590Y6771D01*
X7405Y6822D02*Y6539D01*
G54D11*X7637Y9015D02*X8110D01*
G54D12*X7637D02*X7401Y9251D01*
X7637Y8676D02*Y9015D01*
X7362Y8149D02*X7637Y8425D01*
X8189Y10905D02*X8425D01*
X7992Y10708D02*X8189Y10905D01*
X7795Y9606D02*Y10157D01*
X7992Y10354D02*Y10708D01*
X8027Y6771D02*X7480Y6771D01*
X8110Y7322D02*X7913D01*
X7401Y10575D02*Y9409D01*
X7795Y7440D02*Y7992D01*
X8661Y6692D02*Y7126D01*
X8657Y7161D02*X8539Y7318D01*
X8464Y9488D02*X7913D01*
X8503Y8681D02*X8425D01*
X7641Y8672D02*X7637Y8676D01*
X8622Y8818D02*Y8937D01*
X7795Y10157D02*X7992Y10354D01*
X7523Y10697D02*X7401Y10575D01*
X8740Y9015D02*Y9212D01*
Y8937D02*Y9133D01*
X7913Y9488D02*X7795Y9606D01*
X7322Y6373D02*X7165Y6216D01*
X8110Y5905D02*Y6141D01*
X7165Y6023D02*Y6181D01*
X7322Y6456D02*Y6373D01*
X8622Y8799D02*X8503Y8681D01*
G54D13*X9881Y5629D02*X10315Y6063D01*
X10944D01*
X10748D01*
X9881Y5000D02*X9370Y4488D01*
X9881Y5629D02*Y5000D01*
X9921Y4488D02*X10196Y4763D01*
X10748D01*
X9921Y3031D02*X9645Y2755D01*
X8818D01*
X9921Y4055D02*X9291Y3425D01*
X9291D01*
X9921Y4488D02*Y4055D01*
G54D11*X7007Y1280D02*X7068Y1220D01*
X6653Y5393D02*X6338Y5078D01*
G54D12*X6889Y2755D02*Y2519D01*
X7086Y2952D02*X6889Y2755D01*
G54D11*X8149Y3346D02*X7874D01*
G54D12*X7382Y2952D02*X7086D01*
G54D11*X7685Y5393D02*X8070Y5779D01*
X6653Y5393D02*X7685D01*
G54D12*X5168Y5658D02*X5218Y5708D01*
X6417Y5826D02*X6968D01*
X5218Y5708D02*X6299D01*
X6968Y5826D02*X7165Y6023D01*
G54D11*X8198Y2559D02*X8661D01*
G54D12*X8740Y9133D02*X8464Y9488D01*
X8622Y8858D02*Y8937D01*
G54D11*X9173Y9291D02*X9133Y9330D01*
G54D12*X8740Y8897D03*
G54D11*X9133Y9330D02*X8622D01*
G54D12*X8425Y8681D02*X8070Y8326D01*
X8141Y6885D02*X8067Y6771D01*
X7795Y7992D02*X8229Y8425D01*
X7913Y7322D02*X7795Y7440D01*
X8543Y7318D02*X8070D01*
X8834Y7795D02*X9055Y7874D01*
X8700Y7165D02*X9173Y7165D01*
X8661Y7165D02*X9212Y7165D01*
G54D13*X17874Y11338D02*X18031Y11496D01*
X16378Y11338D02*X17559Y12519D01*
G54D12*X16889Y12598D02*X16889Y12598D01*
Y12618D01*
G54D13*X13346Y13897D02*X13582Y13661D01*
G54D11*X21456Y13622D02*X17401D01*
G54D12*X16850Y14488D02*Y12677D01*
X16929Y15393D02*X17362Y14960D01*
Y15000D02*X16850Y14488D01*
X16889Y12637D02*X16850Y12677D01*
G54D13*X17874Y10866D02*Y11338D01*
X17204Y6889D02*X17598D01*
X17874Y10866D02*X17362Y10354D01*
X17559Y8700D02*Y9921D01*
X16889Y7519D02*X17559D01*
G54D12*X17126Y7913D02*X17204Y7992D01*
X17519D01*
X17204Y8385D02*Y7913D01*
G54D13*X17913Y7204D02*X17598Y6889D01*
X17913Y8346D02*X17559Y8700D01*
G54D16*X17677Y6692D02*X21614D01*
G54D12*X12677Y11889D02*X12755Y11811D01*
G54D13*X12204Y13031D02*X11968D01*
X11614Y13385D01*
X12685Y13897D02*X13346D01*
G54D12*X12755Y11811D02*Y10984D01*
G54D13*X12677Y13889D02*X12685Y13897D01*
X13582Y13661D02*Y13425D01*
Y12165D02*Y13464D01*
X13346Y11929D02*X13582Y12165D01*
G54D12*X9763Y15393D02*X16929D01*
X9566Y15196D02*X9763Y15393D01*
X15708Y8937D02*X16574D01*
G54D13*X16574Y8346D02*X16771Y8149D01*
Y7637D01*
X16889Y7519D01*
X16496Y8858D02*Y8937D01*
G54D16*X15492Y7224D02*X15496D01*
X14921Y7795D02*X15492Y7224D01*
G54D13*X14527Y7047D02*X14133D01*
X14566Y7086D02*X14527Y7047D01*
X14566Y8110D02*Y7086D01*
G54D12*X14645Y9173D02*X15393D01*
X15629Y8937D01*
X15393Y9173D02*Y10433D01*
G54D11*X13976Y9803D02*X13976Y9803D01*
G54D12*X14409Y8858D02*Y8936D01*
G54D13*X14566Y8110D02*X14645Y8188D01*
G54D12*X15629Y8937D02*X15984D01*
X16653D02*X17204Y8385D01*
X14409Y8936D02*X14645Y9173D01*
X13093Y2519D02*X13228D01*
X13464Y2283D01*
G54D11*X8189Y2549D02*X8198Y2559D01*
G54D13*X10944Y3740D02*X12007Y4803D01*
X10944Y3740D02*X10511D01*
X10590D02*X10196D01*
X9921Y3464D01*
Y3031D01*
X12007Y6811D02*X12440Y7244D01*
X10748Y4763D02*X11653Y5669D01*
Y6456D01*
X12007Y6811D01*
X14814Y6027D02*X14409Y6432D01*
Y6614D01*
G54D12*X13425Y6299D02*Y6771D01*
Y6299D02*X13582Y6141D01*
G54D13*X13346Y6614D02*Y6692D01*
X13385Y6574D02*X13346Y6614D01*
G54D12*X13582Y6929D02*X13425Y6771D01*
X13582Y6141D02*X13700D01*
G54D13*X12874Y5393D02*X13149Y5118D01*
X13937Y6850D02*Y6574D01*
X13937Y6850D02*X13937D01*
G54D11*X20315Y4291D02*X19291D01*
X19252Y4330D02*Y5236D01*
X17913Y4596D02*Y5944D01*
G54D13*Y7204D02*Y8346D01*
G54D11*X18045Y4464D02*X17913Y4596D01*
G54D13*X17480Y6614D02*X17126Y6259D01*
G54D16*X17480Y6614D02*X17519Y6653D01*
X17637D01*
X17677Y6692D01*
G54D13*X17126Y6259D02*Y5866D01*
X16811Y5551D01*
G54D11*X17834Y5866D02*Y6141D01*
X20944Y590D02*X7716D01*
G54D13*X14173Y3661D02*Y2834D01*
X14527Y2480D01*
X14724D01*
G54D12*X13464Y1496D02*X13070Y1102D01*
X13464Y2283D02*Y1496D01*
G54D13*X11563Y1453D02*X11567Y1456D01*
X12204D01*
G54D11*X17126Y3110D02*Y3425D01*
X18425Y1356D02*X17795Y1986D01*
Y2834D01*
G54D12*X12677Y9881D02*X12637Y9842D01*
Y8661D01*
G54D11*X13976Y9803D02*Y9409D01*
G54D13*X12594Y9853D02*X12622Y9881D01*
X12677D01*
G54D12*X13983Y8450D02*X14391Y8858D01*
G54D11*X12086Y8661D02*X13031D01*
G54D13*X11657Y9341D02*X11747Y9251D01*
X12047D01*
Y8622D02*X12126Y8700D01*
G54D11*X11850Y8464D02*X11614D01*
X12047Y8622D02*X12086Y8661D01*
G54D13*X14133Y7047D02*X13937Y6850D01*
X12440Y7244D02*Y8149D01*
G54D12*X13818Y7525D02*Y7165D01*
X13983Y7690D02*X13818Y7525D01*
Y7165D02*X13597Y6944D01*
X16711Y3070D02*X14527D01*
G54D11*X17126Y3110D02*X17047Y3031D01*
X16771D01*
X17834Y2834D02*X17401D01*
X17126Y3110D01*
G54D13*X15196Y4685D02*X14173Y3661D01*
X13149Y5118D02*X16181D01*
X16181D02*X16614Y5551D01*
X16811D02*X16614D01*
G54D11*X18677Y3543D02*X18149D01*
Y3149D01*
X17834Y2834D01*
G54D14*X748Y10078D02*X984Y10314D01*
X787Y10118D02*X1259Y10590D01*
X1968D01*
X1535Y10118D02*Y10118D01*
X1456Y9409D02*X2401Y10354D01*
X1102Y9685D02*X1535Y10118D01*
X2401Y10354D02*Y11023D01*
G54D11*X7068Y1220D02*X8582D01*
G54D13*X8818Y2755D02*X8661Y2598D01*
G54D11*X8149Y3779D02*Y3346D01*
G54D12*X8110Y6141D02*X8661Y6692D01*
X7799Y3369D02*X7382Y2952D01*
G54D11*X5472Y5551D02*Y5078D01*
X5354Y5669D02*X5472Y5551D01*
G54D13*X5905Y4493D02*Y3307D01*
X6622Y3976D02*X6732D01*
X6379Y4220D02*X6622Y3976D01*
G54D14*X1102Y6496D02*X1574Y6023D01*
X3149Y4212D02*X2755Y4606D01*
X1929Y2165D02*X2362D01*
X2637Y3661D02*X2322D01*
X3149D02*X2637D01*
X2755Y5590D02*X1929Y6417D01*
G54D12*X6299Y5708D02*X6417Y5826D01*
G54D14*X393Y3700D02*X1929Y2165D01*
X393Y12047D02*Y3700D01*
X2023Y8011D02*X2385Y8374D01*
X1889Y8464D02*Y9409D01*
X1456Y8228D02*Y9409D01*
X1757Y7927D02*X1456Y8228D01*
X1102Y9685D02*Y6496D01*
X748Y4527D02*Y10078D01*
X905Y4370D02*X748Y4527D01*
X3189Y10039D02*X3818D01*
X5433Y9330D02*X5275Y9173D01*
X5438Y9344D02*Y10295D01*
X5275Y9173D02*Y8740D01*
X5708Y10039D02*X6141D01*
X5393Y10354D02*X5708Y10039D01*
X5393Y11178D02*Y10354D01*
X4724Y11119D02*Y10866D01*
X4370Y10511D01*
X4133D01*
G54D11*X5178Y5669D02*X5354D01*
G54D13*X5399Y5000D02*X5905Y4493D01*
G54D11*X5168Y5658D02*X5178Y5669D01*
G54D14*X2755Y4606D02*Y5590D01*
X2016Y7927D02*X1757D01*
X2385Y8374D02*X3354D01*
X1889Y9409D02*X2007Y9527D01*
X2834Y10393D02*X3189Y10039D01*
X3689Y9523D02*X3685Y9527D01*
X2007D01*
G54D17*X13976Y9803D03*
X12677Y11889D03*
Y13889D03*
X22362Y8149D03*
Y7149D03*
X21362Y8149D03*
Y7149D03*
X20362Y8149D03*
Y7149D03*
X19362Y8149D03*
Y7149D03*
X18362Y8149D03*
Y7149D03*
G54D11*X2322Y5153D03*
Y4653D03*
Y4153D03*
Y3653D03*
Y3153D03*
Y2653D03*
Y2153D03*
G54D18*Y1653D03*
G54D17*X10393Y1259D03*
X9393D03*
X10393Y2259D03*
X9393D03*
X10393Y3259D03*
X9393D03*
X10393Y4259D03*
Y5259D03*
X9393Y4259D03*
Y5259D03*
X20393Y1259D03*
X19393D03*
X20393Y2259D03*
X19393D03*
X20393Y3259D03*
X19393D03*
X20393Y4259D03*
X19393D03*
X20393Y5259D03*
X19393D03*
X19330Y6220D03*
X20315D03*
X2244Y14960D03*
Y11960D03*
X3149Y11968D03*
Y14968D03*
X8149Y13110D03*
X5149D03*
G54D19*X984Y984D03*
G54D17*X1614Y7204D03*
G54D11*X905Y4370D03*
X1929Y6417D03*
X1574Y6023D03*
X4842Y3503D03*
X3188Y4212D03*
G54D17*X2834Y6574D03*
G54D11*X7992Y11968D03*
X8267Y9925D03*
X8189Y11338D03*
X8425Y10472D03*
X10952Y9566D03*
X12086Y9173D03*
X10952Y8976D03*
X11338Y10236D03*
X8543Y12047D03*
X13346Y11929D03*
X10433Y11259D03*
X9173Y11417D03*
X12204Y13031D03*
X10826Y14511D03*
X8425Y14448D03*
X7795Y13622D03*
X7440Y14724D03*
G54D17*X6771Y13267D03*
G54D11*X6968Y10275D03*
G54D17*X4842Y14842D03*
X4370Y14291D03*
G54D11*X3858Y11968D03*
X9094Y13622D03*
X6929Y6732D03*
X8181Y6885D03*
X6929Y7283D03*
G54D17*X7716Y2007D03*
G54D11*X7716Y590D03*
X6889Y2519D03*
Y5393D03*
X6929Y4881D03*
X6732Y3976D03*
X8149Y3779D03*
Y9055D03*
X6929Y9330D03*
X7165Y8818D03*
X3188Y3661D03*
G54D17*X4055Y4409D03*
X4960Y4606D03*
G54D11*X4842Y2362D03*
X3413Y8381D03*
G54D17*X4094Y8976D03*
G54D11*X10236Y9173D03*
Y7952D03*
X10157Y10118D03*
X12047Y7401D03*
X12519Y5027D03*
X8622Y8267D03*
X9055Y9881D03*
X9173Y9291D03*
Y7165D03*
G54D17*X8661Y5905D03*
G54D11*X9055Y7874D03*
X6456Y6259D03*
X8267Y7795D03*
X7677Y6141D03*
X4173Y11496D03*
X7102Y11496D03*
X7086Y10905D03*
X4015Y12480D03*
X6141Y11574D03*
X6653Y7874D03*
G54D19*X984Y14763D03*
G54D11*X1535Y10118D03*
X1299Y11574D03*
X1889Y8464D03*
X1968Y10590D03*
X2834Y10393D03*
G54D17*X4881Y10000D03*
G54D11*X12007Y4763D03*
X11692Y2874D03*
G54D17*X8582Y1220D03*
X11023Y1811D03*
G54D11*X14842Y1102D03*
X12204Y1456D03*
X13700Y4724D03*
X17677Y3976D03*
G54D17*X17126Y1811D03*
X18622Y2598D03*
X16220Y2480D03*
X15665Y3614D03*
G54D19*X22637Y984D03*
G54D17*X21338Y4173D03*
X21653Y3307D03*
X13070Y13149D03*
G54D11*X11141D03*
G54D17*X13464Y14527D03*
G54D11*X11535Y14803D03*
X12086Y14527D03*
X11535Y12086D03*
X11102Y12519D03*
X10118Y12834D03*
X9527Y13149D03*
X9094Y14763D03*
X20433Y9527D03*
X20747Y10984D03*
X20826Y11614D03*
X20472Y10433D03*
X20905Y10039D03*
G54D19*X22637Y14763D03*
G54D11*X17913Y12992D03*
G54D17*X17401Y13622D03*
X16889Y12637D03*
G54D11*X20157Y12047D03*
X18031Y11496D03*
X18189Y10000D03*
X17401Y11023D03*
X21929Y9212D03*
X12362Y8149D03*
X10944Y6063D03*
X12047Y8622D03*
X14921Y9645D03*
X13094Y9602D03*
X12661Y9901D03*
X13858Y5476D03*
X12874Y5433D03*
X15196Y4685D03*
X13110Y1102D03*
X13425Y6574D03*
X14448Y6614D03*
X13937Y6574D03*
X14921Y7795D03*
X14645Y8228D03*
X14842Y8740D03*
X18307Y9409D03*
X18110Y5866D03*
X17126Y7913D03*
G54D17*X16968Y5078D03*
G54D11*X17204Y6929D03*
X16378Y12244D03*
X16417Y13976D03*
X15984Y12755D03*
X16378Y11338D03*
X15354Y11141D03*
G54D17*X15433Y15196D03*
G54D11*X15393Y10433D03*
X15433Y8228D03*
X16574Y8346D03*
X15905Y6063D03*
X16535Y8858D03*
X16692Y5944D03*
G54D17*X16023Y10314D03*
G54D11*X15429Y7000D03*
G54D20*X9563Y13554D02*Y13374D01*
X10043Y13554D02*Y13374D01*
X9602Y12334D02*Y12154D01*
X9563Y14381D02*Y14201D01*
X10082Y12334D02*Y12154D01*
X11578Y12452D02*Y12272D01*
X11098Y12452D02*Y12272D01*
X11460Y14381D02*Y14201D01*
X10980Y14381D02*Y14201D01*
X10043Y14381D02*Y14201D01*
X13295Y13933D02*X13475D01*
X13295Y14413D02*X13475D01*
X13232Y11153D02*Y10973D01*
X12752Y11153D02*Y10973D01*
X11578Y13554D02*Y13374D01*
X11098Y13554D02*Y13374D01*
X20185Y10121D02*X20365D01*
X20185Y9641D02*X20365D01*
X21484Y11657D02*X21664D01*
X21484Y11177D02*X21664D01*
X20146Y12437D02*X20326D01*
X20146Y12917D02*X20326D01*
X21484Y10200D02*X21664D01*
X21484Y9720D02*X21664D01*
X17508Y12995D02*X17688D01*
X17508Y12515D02*X17688D01*
X17311Y10358D02*X17491D01*
G54D18*X16249Y11957D02*X16349D01*
G54D20*X17311Y9878D02*X17491D01*
X17429Y7515D02*X17609D01*
X17429Y7995D02*X17609D01*
X18768Y10043D02*X18948D01*
X18768Y9563D02*X18948D01*
G54D18*X16249Y13257D02*X16349D01*
X16072Y14931D02*Y14831D01*
X17372Y14931D02*Y14831D01*
G54D20*X8421Y10023D02*Y9843D01*
X8263Y11546D02*Y11366D01*
X7995Y14814D02*Y14634D01*
X8901Y10023D02*Y9843D01*
X8743Y11546D02*Y11366D01*
X8768Y12949D02*X8948D01*
X8768Y13429D02*X8948D01*
X8429Y12334D02*Y12154D01*
X7405Y10129D02*Y9949D01*
X6925Y10129D02*Y9949D01*
G54D21*X5739Y10023D02*X6389D01*
G54D20*X7043Y10877D02*Y10697D01*
G54D21*X5739Y11023D02*X6389D01*
X5739Y10523D02*X6389D01*
G54D20*X7523Y10877D02*Y10697D01*
X7562Y11625D02*Y11445D01*
G54D21*X3689Y9523D02*X4339D01*
X3689Y10023D02*X4339D01*
X3689Y10523D02*X4339D01*
X3689Y11023D02*X4339D01*
X3689Y11523D02*X4339D01*
X3689Y12023D02*X4339D01*
X3689Y12523D02*X4339D01*
X5739D02*X6389D01*
X5739Y12023D02*X6389D01*
X5739Y11523D02*X6389D01*
G54D20*X7082Y11625D02*Y11445D01*
X2823Y10941D02*X3003D01*
X2823Y11421D02*X3003D01*
X6256Y14302D02*Y14122D01*
X6736Y14302D02*Y14122D01*
X4949Y14728D02*X5129D01*
X4949Y14248D02*X5129D01*
X7515Y14814D02*Y14634D01*
X7949Y12334D02*Y12154D01*
X7247Y8121D02*Y7941D01*
X6767Y8121D02*Y7941D01*
X6925Y7452D02*Y7272D01*
X7405Y7452D02*Y7272D01*
G54D21*X5739Y9523D02*X6389D01*
G54D20*X7200Y6231D02*Y6051D01*
X7680Y6231D02*Y6051D01*
X6925Y6822D02*Y6642D01*
X7405Y6822D02*Y6642D01*
X7161Y8751D02*Y8571D01*
X7641Y8751D02*Y8571D01*
X8106Y9105D02*Y8925D01*
X6925Y9460D02*Y9280D01*
X7405Y9460D02*Y9280D01*
X8625Y6940D02*Y6760D01*
X8586Y9105D02*Y8925D01*
X8382Y7845D02*Y7665D01*
X8862Y7845D02*Y7665D01*
X8145Y6940D02*Y6760D01*
X11657Y9341D02*Y9161D01*
X11177Y9341D02*Y9161D01*
G54D18*X11524Y8396D02*X11624D01*
X11524Y7096D02*X11624D01*
G54D20*X11563Y1453D02*X11743D01*
X11563Y1933D02*X11743D01*
G54D22*X16025Y1556D02*Y1356D01*
G54D23*X18425Y1556D02*Y1356D01*
G54D20*X16051Y3027D02*X16231D01*
G54D21*X14479Y2005D02*X15129D01*
G54D23*X21435Y3308D02*X21635D01*
G54D21*X14479Y3505D02*X15129D01*
X14479Y3005D02*X15129D01*
X14479Y2505D02*X15129D01*
G54D20*X16051Y3507D02*X16231D01*
X15508Y7255D02*Y7075D01*
X15988Y7255D02*Y7075D01*
X17759Y5404D02*Y5224D01*
X17279Y5404D02*Y5224D01*
X18045Y4464D02*Y4304D01*
X17265Y4464D02*Y4304D01*
X18045Y3644D02*Y3484D01*
X17655Y3644D02*Y3484D01*
X17265Y3644D02*Y3484D01*
G54D23*X21435Y5708D02*X21635D01*
G54D18*X13060Y1231D02*Y1131D01*
X14360Y1231D02*Y1131D01*
G54D21*X12429Y2005D02*X13079D01*
X12429Y2505D02*X13079D01*
X12429Y3005D02*X13079D01*
X12429Y3505D02*X13079D01*
G54D20*X13650Y6106D02*X13830D01*
X14634Y6027D02*X14814D01*
G54D18*X16545Y6191D02*Y6091D01*
X17845Y6191D02*Y6091D01*
G54D20*X13650Y5626D02*X13830D01*
X14634Y5547D02*X14814D01*
X15461Y8460D02*X15641D01*
X15461Y8940D02*X15641D01*
G54D24*X13983Y8332D02*Y7572D01*
X13023Y8332D02*Y7572D01*
G54D20*X14012Y9381D02*Y9201D01*
X14492Y9381D02*Y9201D01*
X13153Y9853D02*Y9673D01*
X12673Y9853D02*Y9673D01*
G54D25*X5748Y1417D02*Y1181D01*
X6929Y1417D02*Y1181D01*
G54D18*X7509Y5404D02*X7609D01*
G54D20*X6219Y5000D02*X6379D01*
X6219Y4610D02*X6379D01*
X6219Y4220D02*X6379D01*
G54D18*X7509Y4104D02*X7609D01*
G54D20*X5948Y3475D02*Y3295D01*
X5468Y3475D02*Y3295D01*
G54D26*X8189Y2549D02*Y2489D01*
X7409Y2549D02*Y2489D01*
X7799Y3369D02*Y3309D01*
G54D20*X5271Y8869D02*Y8689D01*
X5751Y8869D02*Y8689D01*
X5399Y5000D02*X5559D01*
G54D18*X5343Y6958D02*X5443D01*
X5343Y5658D02*X5443D01*
G54D20*X5399Y4220D02*X5559D01*
G54D14*G54D15*G54D27*G54D28*G54D27*G54D29*G54D30*G54D14*G54D30*G54D14*G54D30*G54D14*G54D30*G54D14*G54D31*G54D14*G54D30*G54D31*G54D14*G54D30*G54D14*G54D31*G54D14*G54D29*G54D14*G54D30*G54D14*G54D30*G54D31*G54D14*G54D30*G54D31*G54D30*G54D29*G54D30*G54D14*G54D30*G54D14*G54D29*G54D14*G54D31*G54D14*G54D31*G54D14*G54D30*G54D14*G54D31*G54D14*M02*
