G04 start of page 9 for group -4014 idx -4014 *
G04 Title: stribog.main_board, bottompaste *
G04 Creator: pcb 1.99y *
G04 CreationDate: Sat Oct 10 15:19:27 2009 UTC *
G04 For: dti *
G04 Format: Gerber/RS-274X *
G04 PCB-Dimensions: 236220 157480 *
G04 PCB-Coordinate-Origin: lower left *
%MOIN*%
%FSLAX25Y25*%
%LNBACKPASTE*%
%ADD19R,0.0240X0.0240*%
%ADD20R,0.0400X0.0400*%
%ADD21R,0.0200X0.0200*%
%ADD22R,0.0879X0.0879*%
%ADD23R,0.0800X0.0800*%
%ADD24R,0.0640X0.0640*%
%ADD25R,0.0512X0.0512*%
%ADD26R,0.0340X0.0340*%
G54D19*X49494Y142481D02*X51294D01*
X49494Y147281D02*X51294D01*
G54D24*X139839Y83327D02*Y75727D01*
X130239Y83327D02*Y75727D01*
G54D19*X132321Y111530D02*Y109730D01*
X127521Y111530D02*Y109730D01*
G54D25*X69290Y14173D02*Y11811D01*
X57480Y14173D02*Y11811D01*
G54D19*X28234Y109411D02*X30034D01*
X28234Y114211D02*X30034D01*
X115785Y135544D02*Y133744D01*
X110985Y135544D02*Y133744D01*
X69254Y68223D02*Y66423D01*
X74054Y68223D02*Y66423D01*
X53992Y42200D02*X55592D01*
X53992Y50000D02*X55592D01*
X62192D02*X63792D01*
X62192Y46100D02*X63792D01*
X62192Y42200D02*X63792D01*
X79490Y123341D02*Y121541D01*
X84290Y123341D02*Y121541D01*
X70828Y116255D02*Y114455D01*
X75628Y116255D02*Y114455D01*
X83821Y78459D02*Y76659D01*
X88621Y78459D02*Y76659D01*
X71616Y87514D02*Y85714D01*
X76416Y87514D02*Y85714D01*
X69254Y74522D02*Y72722D01*
X74054Y74522D02*Y72722D01*
G54D21*X144794Y35059D02*X151294D01*
X144794Y30059D02*X151294D01*
X144794Y25059D02*X151294D01*
X144794Y20059D02*X151294D01*
X124294D02*X130794D01*
X124294Y25059D02*X130794D01*
X124294Y30059D02*X130794D01*
X124294Y35059D02*X130794D01*
G54D19*X214847Y102006D02*X216647D01*
X214847Y97206D02*X216647D01*
X132958Y139332D02*X134758D01*
X132958Y144132D02*X134758D01*
X62560Y143026D02*Y141226D01*
X67360Y143026D02*Y141226D01*
X116573Y93419D02*Y91619D01*
X111773Y93419D02*Y91619D01*
X72009Y62317D02*Y60517D01*
X76809Y62317D02*Y60517D01*
X85865Y91058D02*Y89258D01*
X81065Y91058D02*Y89258D01*
X115786Y124522D02*Y122722D01*
X110986Y124522D02*Y122722D01*
X95631Y143813D02*Y142013D01*
X100431Y143813D02*Y142013D01*
X131534Y98537D02*Y96737D01*
X126734Y98537D02*Y96737D01*
G54D23*X214354Y33086D02*X216354D01*
X214354Y57086D02*X216354D01*
G54D20*X115248Y70965D02*X116248D01*
X115248Y83965D02*X116248D01*
G54D19*X172653Y44642D02*Y43042D01*
X180453Y44642D02*Y43042D01*
Y36442D02*Y34842D01*
X176553Y36442D02*Y34842D01*
X172653Y36442D02*Y34842D01*
X175084Y129959D02*X176884D01*
X175084Y125159D02*X176884D01*
X187681Y100431D02*X189481D01*
X187681Y95631D02*X189481D01*
G54D21*X57393Y125236D02*X63893D01*
X57393Y120236D02*X63893D01*
X57393Y115236D02*X63893D01*
X57393Y110236D02*X63893D01*
X57393Y105236D02*X63893D01*
X57393Y100236D02*X63893D01*
X57393Y95236D02*X63893D01*
X36893D02*X43393D01*
X36893Y100236D02*X43393D01*
X36893Y105236D02*X43393D01*
X36893Y110236D02*X43393D01*
X36893Y115236D02*X43393D01*
X36893Y120236D02*X43393D01*
X36893Y125236D02*X43393D01*
G54D19*X201461Y124372D02*X203261D01*
X201461Y129172D02*X203261D01*
X114605Y143813D02*Y142013D01*
X109805Y143813D02*Y142013D01*
G54D20*X160729Y149318D02*Y148318D01*
X173729Y149318D02*Y148318D01*
X53437Y69587D02*X54437D01*
X53437Y56587D02*X54437D01*
X162492Y132579D02*X163492D01*
X162492Y119579D02*X163492D01*
G54D19*X155081Y72553D02*Y70753D01*
X159881Y72553D02*Y70753D01*
X86258Y69403D02*Y67603D01*
X81458Y69403D02*Y67603D01*
X87683Y129490D02*X89483D01*
X87683Y134290D02*X89483D01*
X69254Y94600D02*Y92800D01*
X74054Y94600D02*Y92800D01*
X59487Y34758D02*Y32958D01*
X54687Y34758D02*Y32958D01*
G54D26*X81890Y25496D02*Y24896D01*
X74090Y25496D02*Y24896D01*
X77990Y33696D02*Y33096D01*
G54D19*X177597Y54049D02*Y52249D01*
X172797Y54049D02*Y52249D01*
G54D20*X143603Y12311D02*Y11311D01*
X130603Y12311D02*Y11311D01*
G54D19*X201854Y101219D02*X203654D01*
X201854Y96419D02*X203654D01*
X96024Y123341D02*Y121541D01*
X100824Y123341D02*Y121541D01*
X173117Y103581D02*X174917D01*
X173117Y98781D02*X174917D01*
X115635Y14530D02*X117435D01*
X115635Y19330D02*X117435D01*
X79959Y148144D02*Y146344D01*
X75159Y148144D02*Y146344D01*
X74054Y101293D02*Y99493D01*
X69254Y101293D02*Y99493D01*
G54D20*X75091Y41043D02*X76091D01*
X75091Y54043D02*X76091D01*
G54D19*X70435Y108773D02*Y106973D01*
X75235Y108773D02*Y106973D01*
G54D20*X165453Y61917D02*Y60917D01*
X178453Y61917D02*Y60917D01*
G54D19*X174296Y75157D02*X176096D01*
X174296Y79957D02*X176096D01*
X95632Y135545D02*Y133745D01*
X100432Y135545D02*Y133745D01*
X140120Y93813D02*Y92013D01*
X144920Y93813D02*Y92013D01*
X154611Y89408D02*X156411D01*
X154611Y84608D02*X156411D01*
X87439Y115466D02*Y113666D01*
X82639Y115466D02*Y113666D01*
X52717Y88695D02*Y86895D01*
X57517Y88695D02*Y86895D01*
X160517Y30277D02*X162317D01*
X160517Y35077D02*X162317D01*
X214847Y116573D02*X216647D01*
X214847Y111773D02*X216647D01*
X84214Y100230D02*Y98430D01*
X89014Y100230D02*Y98430D01*
X146343Y60273D02*X148143D01*
X146343Y55473D02*X148143D01*
X72479Y81215D02*Y79415D01*
X67679Y81215D02*Y79415D01*
G54D22*X160251Y15567D02*Y13567D01*
G54D23*X184251Y15567D02*Y13567D01*
G54D19*X136501Y61061D02*X138301D01*
X136501Y56261D02*X138301D01*
M02*
