G04 start of page 7 for group -4079 idx -4079
G04 Title: stribog.main_board, topsilk *
G04 Creator: pcb 20070208 *
G04 CreationDate: Sun Apr  6 09:45:45 2008 UTC *
G04 For: dti *
G04 Format: Gerber/RS-274X *
G04 PCB-Dimensions: 236220 157480 *
G04 PCB-Coordinate-Origin: lower left *
%MOIN*%
%FSLAX24Y24*%
%LNFRONTSILK*%
%ADD13C,0.0100*%
%ADD56C,0.0060*%
%ADD57C,0.0150*%
%ADD58C,0.0179*%
%ADD59C,0.0040*%
%ADD60C,0.0048*%
%ADD61C,0.0047*%
G54D13*X9975Y12170D02*X8675D01*
X6875D02*X8175D01*
X9975Y10270D02*Y12170D01*
X6875Y10270D02*X9975D01*
X6875Y12170D02*Y10270D01*
X8175Y12170D02*G75*G03X8675Y12170I250J0D01*G01*
X12177Y13889D02*Y11889D01*
X13177Y13889D02*Y11889D01*
X12177D02*G75*G03X13177Y11889I500J0D01*G01*
Y13889D02*G75*G03X12177Y13889I-500J0D01*G01*
X8882Y12435D02*X10182D01*
X10682D02*X11982D01*
X8882Y14335D02*Y12435D01*
Y14335D02*X11982D01*
Y12435D01*
X10682D02*G75*G03X10182Y12435I-250J0D01*G01*
X4754Y6079D02*Y5179D01*
X5954D01*
Y6079D01*
X4754D01*
X6335Y4247D02*X7515D01*
X6335Y5637D02*Y4247D01*
Y5637D02*X7515D01*
Y4247D01*
G54D56*X5052Y4876D02*Y4336D01*
X5892D01*
Y4876D02*Y4336D01*
X5052Y4876D02*X5892D01*
X6076Y950D02*X6916D01*
X6076Y1490D02*Y950D01*
Y1490D02*X6916D01*
Y950D01*
G54D13*X6531Y2478D02*X7671D01*
X5621D02*X6771D01*
X5621Y3498D02*Y2478D01*
Y3498D02*X7671D01*
Y2478D01*
X6771D02*G75*G03X6531Y2478I-120J0D01*G01*
G54D56*X5202Y1443D02*Y603D01*
Y1443D02*X5742D01*
Y603D01*
X5202D02*X5742D01*
G54D13*X5108Y11198D02*Y10298D01*
X6308D01*
Y11198D01*
X5108D01*
G54D56*X4611Y12349D02*Y11509D01*
X5151D01*
Y12349D02*Y11509D01*
X4611Y12349D02*X5151D01*
G54D13*X5103Y13498D02*X6403D01*
X6903D02*X8203D01*
X5103Y15398D02*Y13498D01*
Y15398D02*X8203D01*
Y13498D01*
X6903D02*G75*G03X6403Y13498I-250J0D01*G01*
X5649Y13110D02*X6049D01*
Y13510D02*X7249D01*
X6049D02*Y12710D01*
X7249D01*
Y13510D02*Y12710D01*
Y13110D02*X7649D01*
X3149Y14468D02*Y14068D01*
X3549D02*Y12868D01*
X2749Y14068D02*X3549D01*
X2749D02*Y12868D01*
X3549D01*
X3149D02*Y12468D01*
G54D56*X6758Y11895D02*X5918D01*
X6758Y12435D02*Y11895D01*
X5918Y12435D02*X6758D01*
X5918Y11895D02*Y12435D01*
G54D57*X11193Y1289D02*Y1209D01*
X11033Y1289D02*X11193D01*
X11033D02*Y1209D01*
X11193D01*
X8943Y809D02*X10843D01*
X8943Y5709D02*Y809D01*
Y5709D02*X10843D01*
Y809D01*
G54D56*X8144Y1522D02*Y682D01*
X7604D02*X8144D01*
X7604Y1522D02*Y682D01*
Y1522D02*X8144D01*
X11541Y1246D02*Y406D01*
Y1246D02*X12081D01*
Y406D01*
X11541D02*X12081D01*
X11501Y2821D02*Y1981D01*
Y2821D02*X12041D01*
Y1981D01*
X11501D02*X12041D01*
G54D13*X2244Y12860D02*Y12460D01*
X1844Y14060D02*Y12860D01*
X2644D01*
Y14060D02*Y12860D01*
X1844Y14060D02*X2644D01*
X2244Y14460D02*Y14060D01*
X2822Y5653D02*Y1153D01*
X1822Y5653D02*Y1153D01*
X2822D01*
X1822Y5653D02*X2822D01*
X5029Y8245D02*Y7345D01*
X6229D01*
Y8245D01*
X5029D01*
X4675Y7261D02*Y6361D01*
X5875D01*
Y7261D01*
X4675D01*
G54D58*X1166Y5727D02*X2466D01*
X2966D02*X4266D01*
X1166Y9627D02*Y5727D01*
Y9627D02*X4266D01*
Y5727D01*
X2966D02*G75*G03X2466Y5727I-250J0D01*G01*
G54D13*X5069Y9229D02*Y8329D01*
X6269D01*
Y9229D01*
X5069D01*
X5344Y10253D02*Y9353D01*
X6544D01*
Y10253D01*
X5344D01*
G54D56*X4225Y1411D02*X5065D01*
Y871D01*
X4225D02*X5065D01*
X4225Y1411D02*Y871D01*
Y2041D02*X5065D01*
Y1501D01*
X4225D02*X5065D01*
X4225Y2041D02*Y1501D01*
G54D13*X10014Y10044D02*X8714D01*
X6914D02*X8214D01*
X10014Y8144D02*Y10044D01*
X6914Y8144D02*X10014D01*
X6914Y10044D02*Y8144D01*
X8214Y10044D02*G75*G03X8714Y10044I250J0D01*G01*
X10014Y7918D02*X8714D01*
X6914D02*X8214D01*
X10014Y6018D02*Y7918D01*
X6914Y6018D02*X10014D01*
X6914Y7918D02*Y6018D01*
X8214Y7918D02*G75*G03X8714Y7918I250J0D01*G01*
G54D57*X21193Y1289D02*Y1209D01*
X21033Y1289D02*X21193D01*
X21033D02*Y1209D01*
X21193D01*
X18943Y809D02*X20843D01*
X18943Y5709D02*Y809D01*
Y5709D02*X20843D01*
Y809D01*
G54D13*X19330Y6720D02*G75*G03X19330Y6720I0J-500D01*G01*
X20315D02*G75*G03X20315Y6720I0J-500D01*G01*
G54D56*X16147Y2112D02*Y1272D01*
Y2112D02*X16687D01*
Y1272D01*
X16147D02*X16687D01*
G54D13*X21174Y3742D02*X22454D01*
X21174Y5132D02*Y3742D01*
Y5132D02*X22454D01*
Y3742D01*
X18675Y5753D02*X17375D01*
X15575D02*X16875D01*
X18675Y3853D02*Y5753D01*
X15575Y3853D02*X18675D01*
X15575Y5753D02*Y3853D01*
X16875Y5753D02*G75*G03X17375Y5753I250J0D01*G01*
X15154Y1038D02*X14454D01*
X15154Y3038D02*X14454D01*
X13154Y1038D02*X13854D01*
X13154Y3038D02*X13854D01*
X15154Y1038D02*Y1338D01*
Y3038D02*Y2738D01*
X13154Y1038D02*Y1338D01*
Y3038D02*Y2738D01*
X15454Y938D02*G75*G03X15454Y938I-100J0D01*G01*
X15863Y14129D02*X17043D01*
X15863Y15519D02*Y14129D01*
Y15519D02*X17043D01*
Y14129D01*
X16578Y13390D02*X15398D01*
X16578Y12000D02*Y13390D01*
X15398Y12000D02*X16578D01*
X15398Y13390D02*Y12000D01*
G54D56*X15170Y10911D02*X16010D01*
X15170Y11451D02*Y10911D01*
Y11451D02*X16010D01*
Y10911D01*
X13667Y12257D02*X14207D01*
Y13097D02*Y12257D01*
X13667Y13097D02*X14207D01*
X13667D02*Y12257D01*
X14375Y11272D02*X14915D01*
Y12112D02*Y11272D01*
X14375Y12112D02*X14915D01*
X14375D02*Y11272D01*
G54D13*X14680Y14228D02*X15020D01*
X14850D02*X15020Y13968D01*
X14850Y14228D02*X14680Y13968D01*
X14850Y14238D02*Y13958D01*
X14680Y13968D02*X15020D01*
X14540Y13338D02*X15160D01*
Y14858D02*Y13348D01*
X14540Y14858D02*X15160D01*
X14540Y13348D02*Y14858D01*
X13780Y14228D02*X14120D01*
X13950D02*X14120Y13968D01*
X13950Y14228D02*X13780Y13968D01*
X13950Y14238D02*Y13958D01*
X13780Y13968D02*X14120D01*
X13640Y13338D02*X14260D01*
Y14858D02*Y13348D01*
X13640Y14858D02*X14260D01*
X13640Y13348D02*Y14858D01*
G54D56*X16934Y7296D02*X17474D01*
Y8136D02*Y7296D01*
X16934Y8136D02*X17474D01*
X16934D02*Y7296D01*
G54D57*X22332Y8949D02*X22412D01*
X22332D02*Y8789D01*
X22412D01*
Y8949D02*Y8789D01*
X22812Y8599D02*Y6699D01*
X17912D02*X22812D01*
X17912Y8599D02*Y6699D01*
Y8599D02*X22812D01*
G54D13*X12055Y10220D02*X15705D01*
Y6290D01*
X11775D01*
Y9940D01*
X12055Y10220D01*
X12025Y9870D02*G75*G03X12025Y9870I100J0D01*G01*
X17623Y9309D02*X18923D01*
X19423D02*X20723D01*
X17623Y13209D02*Y9309D01*
Y13209D02*X20723D01*
Y9309D01*
X19423D02*G75*G03X18923Y9309I-250J0D01*G01*
G54D59*X3908Y5051D02*X4058D01*
X3858Y5101D02*X3908Y5051D01*
X3858Y5401D02*Y5101D01*
Y5401D02*X3908Y5451D01*
X4058D01*
X4228Y5051D02*X4328D01*
X4278Y5451D02*Y5051D01*
X4178Y5351D02*X4278Y5451D01*
X4498Y5051D02*X4598D01*
X4548Y5451D02*Y5051D01*
X4448Y5351D02*X4548Y5451D01*
X4459Y3830D02*X4609D01*
X4409Y3880D02*X4459Y3830D01*
X4409Y4180D02*Y3880D01*
Y4180D02*X4459Y4230D01*
X4609D01*
X4779Y3830D02*X4879D01*
X4829Y4230D02*Y3830D01*
X4729Y4130D02*X4829Y4230D01*
X4999Y3830D02*X5249Y4080D01*
Y4230D02*Y4080D01*
X4999Y4230D02*X5249D01*
X7660Y4889D02*Y4539D01*
X7710Y4489D01*
X7810D01*
X7860Y4539D01*
Y4889D02*Y4539D01*
X8030Y4489D02*X8130D01*
X8080Y4889D02*Y4489D01*
X7980Y4789D02*X8080Y4889D01*
X8251D02*X8451D01*
X8251D02*Y4689D01*
X8301Y4739D01*
X8401D01*
X8451Y4689D01*
Y4539D01*
X8401Y4489D02*X8451Y4539D01*
X8301Y4489D02*X8401D01*
X8251Y4539D02*X8301Y4489D01*
G54D60*X1023Y3502D02*Y3082D01*
X1083Y3022D01*
X1203D01*
X1263Y3082D01*
Y3502D02*Y3082D01*
X1407Y3442D02*X1467Y3502D01*
X1587D01*
X1647Y3442D01*
Y3082D01*
X1587Y3022D02*X1647Y3082D01*
X1467Y3022D02*X1587D01*
X1407Y3082D02*X1467Y3022D01*
Y3262D02*X1647D01*
X18074Y1175D02*X18254D01*
Y755D01*
X18194Y695D02*X18254Y755D01*
X18134Y695D02*X18194D01*
X18074Y755D02*X18134Y695D01*
X18398Y935D02*X18638Y1175D01*
X18398Y935D02*X18698D01*
X18638Y1175D02*Y695D01*
G54D59*X16812Y1414D02*X17012D01*
X17062Y1364D01*
Y1264D01*
X17012Y1214D02*X17062Y1264D01*
X16862Y1214D02*X17012D01*
X16862Y1414D02*Y1014D01*
Y1214D02*X17062Y1014D01*
X17232D02*X17332D01*
X17282Y1414D02*Y1014D01*
X17182Y1314D02*X17282Y1414D01*
X21979Y5648D02*Y5248D01*
X22129Y5648D02*X22179Y5598D01*
Y5298D01*
X22129Y5248D02*X22179Y5298D01*
X21929Y5248D02*X22129D01*
X21929Y5648D02*X22129D01*
X22349Y5248D02*X22449D01*
X22399Y5648D02*Y5248D01*
X22299Y5548D02*X22399Y5648D01*
X20905Y6474D02*X21105D01*
X21005D02*Y6074D01*
X21225Y6474D02*Y6424D01*
X21475Y6174D01*
Y6074D01*
X21225Y6174D02*Y6074D01*
Y6174D02*X21475Y6424D01*
Y6474D02*Y6424D01*
G54D61*X17296Y3592D02*Y3182D01*
X17354Y3124D01*
X17471D01*
X17530Y3182D01*
Y3592D02*Y3182D01*
X17670Y3124D02*X17904Y3358D01*
Y3533D02*Y3358D01*
X17846Y3592D02*X17904Y3533D01*
X17729Y3592D02*X17846D01*
X17670Y3533D02*X17729Y3592D01*
X17670Y3533D02*Y3416D01*
X17729Y3358D01*
X17904D01*
G54D59*X18031Y6474D02*X18231D01*
X18281Y6424D01*
Y6324D01*
X18231Y6274D02*X18281Y6324D01*
X18081Y6274D02*X18231D01*
X18081Y6474D02*Y6074D01*
Y6274D02*X18281Y6074D01*
X18401Y6474D02*Y6424D01*
X18651Y6174D01*
Y6074D01*
X18401Y6174D02*Y6074D01*
Y6174D02*X18651Y6424D01*
Y6474D02*Y6424D01*
G54D60*X10129Y561D02*X10309D01*
Y141D01*
X10249Y81D02*X10309Y141D01*
X10189Y81D02*X10249D01*
X10129Y141D02*X10189Y81D01*
X10454Y501D02*X10514Y561D01*
X10634D01*
X10694Y501D01*
Y141D01*
X10634Y81D02*X10694Y141D01*
X10514Y81D02*X10634D01*
X10454Y141D02*X10514Y81D01*
Y321D02*X10694D01*
G54D59*X7913Y569D02*X8113D01*
X8163Y519D01*
Y419D01*
X8113Y369D02*X8163Y419D01*
X7963Y369D02*X8113D01*
X7963Y569D02*Y169D01*
Y369D02*X8163Y169D01*
X8283Y519D02*X8333Y569D01*
X8433D01*
X8483Y519D01*
Y219D01*
X8433Y169D02*X8483Y219D01*
X8333Y169D02*X8433D01*
X8283Y219D02*X8333Y169D01*
Y369D02*X8483D01*
X8603Y219D02*X8653Y169D01*
X8603Y519D02*Y219D01*
Y519D02*X8653Y569D01*
X8753D01*
X8803Y519D01*
Y219D01*
X8753Y169D02*X8803Y219D01*
X8653Y169D02*X8753D01*
X8603Y269D02*X8803Y469D01*
X12254Y287D02*X12404D01*
X12204Y337D02*X12254Y287D01*
X12204Y637D02*Y337D01*
Y637D02*X12254Y687D01*
X12404D01*
X12524D02*X12724D01*
X12524D02*Y487D01*
X12574Y537D01*
X12674D01*
X12724Y487D01*
Y337D01*
X12674Y287D02*X12724Y337D01*
X12574Y287D02*X12674D01*
X12524Y337D02*X12574Y287D01*
X6378Y844D02*X6578D01*
X6628Y794D01*
Y694D01*
X6578Y644D02*X6628Y694D01*
X6428Y644D02*X6578D01*
X6428Y844D02*Y444D01*
Y644D02*X6628Y444D01*
X6748Y794D02*X6798Y844D01*
X6898D01*
X6948Y794D01*
Y494D01*
X6898Y444D02*X6948Y494D01*
X6798Y444D02*X6898D01*
X6748Y494D02*X6798Y444D01*
Y644D02*X6948D01*
X7118Y444D02*X7218D01*
X7168Y844D02*Y444D01*
X7068Y744D02*X7168Y844D01*
X7847Y2872D02*Y2572D01*
Y2872D02*X7897Y2922D01*
X7997D01*
X8047Y2872D01*
Y2572D01*
X7997Y2522D02*X8047Y2572D01*
X7897Y2522D02*X7997D01*
X7847Y2572D02*X7897Y2522D01*
X7947Y2622D02*X8047Y2522D01*
X8167Y2872D02*X8217Y2922D01*
X8367D01*
X8417Y2872D01*
Y2772D01*
X8167Y2522D02*X8417Y2772D01*
X8167Y2522D02*X8417D01*
X3632Y917D02*X3782D01*
X3582Y967D02*X3632Y917D01*
X3582Y1267D02*Y967D01*
Y1267D02*X3632Y1317D01*
X3782D01*
X3902Y967D02*X3952Y917D01*
X3902Y1067D02*Y967D01*
Y1067D02*X3952Y1117D01*
X4052D01*
X4102Y1067D01*
Y967D01*
X4052Y917D02*X4102Y967D01*
X3952Y917D02*X4052D01*
X3902Y1167D02*X3952Y1117D01*
X3902Y1267D02*Y1167D01*
Y1267D02*X3952Y1317D01*
X4052D01*
X4102Y1267D01*
Y1167D01*
X4052Y1117D02*X4102Y1167D01*
X4105Y2177D02*X4255D01*
X4055Y2227D02*X4105Y2177D01*
X4055Y2527D02*Y2227D01*
Y2527D02*X4105Y2577D01*
X4255D01*
X4525D02*X4575Y2527D01*
X4425Y2577D02*X4525D01*
X4375Y2527D02*X4425Y2577D01*
X4375Y2527D02*Y2227D01*
X4425Y2177D01*
X4525Y2377D02*X4575Y2327D01*
X4375Y2377D02*X4525D01*
X4425Y2177D02*X4525D01*
X4575Y2227D01*
Y2327D02*Y2227D01*
X12057Y2885D02*X12207D01*
X12007Y2935D02*X12057Y2885D01*
X12007Y3235D02*Y2935D01*
Y3235D02*X12057Y3285D01*
X12207D01*
X12328Y3085D02*X12528Y3285D01*
X12328Y3085D02*X12578D01*
X12528Y3285D02*Y2885D01*
X5325Y90D02*X5475D01*
X5275Y140D02*X5325Y90D01*
X5275Y440D02*Y140D01*
Y440D02*X5325Y490D01*
X5475D01*
X5595Y90D02*X5845Y340D01*
Y490D02*Y340D01*
X5595Y490D02*X5845D01*
G54D60*X14409Y706D02*Y286D01*
X14469Y226D01*
X14589D01*
X14649Y286D01*
Y706D02*Y286D01*
X14793Y466D02*X15033Y706D01*
X14793Y466D02*X15093D01*
X15033Y706D02*Y226D01*
G54D59*X4183Y10523D02*X4333D01*
X4133Y10573D02*X4183Y10523D01*
X4133Y10873D02*Y10573D01*
Y10873D02*X4183Y10923D01*
X4333D01*
X4503Y10523D02*X4603D01*
X4553Y10923D02*Y10523D01*
X4453Y10823D02*X4553Y10923D01*
X4874D02*X4924Y10873D01*
X4774Y10923D02*X4874D01*
X4724Y10873D02*X4774Y10923D01*
X4724Y10873D02*Y10573D01*
X4774Y10523D01*
X4874Y10723D02*X4924Y10673D01*
X4724Y10723D02*X4874D01*
X4774Y10523D02*X4874D01*
X4924Y10573D01*
Y10673D02*Y10573D01*
X4948Y8664D02*Y8514D01*
X4898Y8464D02*X4948Y8514D01*
X4598Y8464D02*X4898D01*
X4598D02*X4548Y8514D01*
Y8664D02*Y8514D01*
X4948Y8934D02*Y8834D01*
X4548Y8884D02*X4948D01*
X4648Y8784D02*X4548Y8884D01*
X4748Y9054D02*X4548Y9254D01*
X4748Y9304D02*Y9054D01*
X4548Y9254D02*X4948D01*
X3194Y10318D02*Y9968D01*
X3244Y9918D01*
X3344D01*
X3394Y9968D01*
Y10318D02*Y9968D01*
X3514Y10268D02*X3564Y10318D01*
X3714D01*
X3764Y10268D01*
Y10168D01*
X3514Y9918D02*X3764Y10168D01*
X3514Y9918D02*X3764D01*
X4105Y12570D02*X4255D01*
X4055Y12620D02*X4105Y12570D01*
X4055Y12920D02*Y12620D01*
Y12920D02*X4105Y12970D01*
X4255D01*
X4375D02*X4575D01*
X4375D02*Y12770D01*
X4425Y12820D01*
X4525D01*
X4575Y12770D01*
Y12620D01*
X4525Y12570D02*X4575Y12620D01*
X4425Y12570D02*X4525D01*
X4375Y12620D02*X4425Y12570D01*
X4695Y12920D02*X4745Y12970D01*
X4845D01*
X4895Y12920D01*
Y12620D01*
X4845Y12570D02*X4895Y12620D01*
X4745Y12570D02*X4845D01*
X4695Y12620D02*X4745Y12570D01*
Y12770D02*X4895D01*
X6181Y13325D02*X6381D01*
X6431Y13275D01*
Y13175D01*
X6381Y13125D02*X6431Y13175D01*
X6231Y13125D02*X6381D01*
X6231Y13325D02*Y12925D01*
Y13125D02*X6431Y12925D01*
X6551Y13275D02*X6601Y13325D01*
X6751D01*
X6801Y13275D01*
Y13175D01*
X6551Y12925D02*X6801Y13175D01*
X6551Y12925D02*X6801D01*
X6921D02*X7121Y13125D01*
Y13275D02*Y13125D01*
X7071Y13325D02*X7121Y13275D01*
X6971Y13325D02*X7071D01*
X6921Y13275D02*X6971Y13325D01*
X6921Y13275D02*Y13175D01*
X6971Y13125D01*
X7121D01*
X4115Y7736D02*X4265D01*
X4065Y7786D02*X4115Y7736D01*
X4065Y8086D02*Y7786D01*
Y8086D02*X4115Y8136D01*
X4265D01*
X4435Y7736D02*X4535D01*
X4485Y8136D02*Y7736D01*
X4385Y8036D02*X4485Y8136D01*
X4655Y8086D02*X4705Y8136D01*
X4805D01*
X4855Y8086D01*
Y7786D01*
X4805Y7736D02*X4855Y7786D01*
X4705Y7736D02*X4805D01*
X4655Y7786D02*X4705Y7736D01*
Y7936D02*X4855D01*
X4420Y9618D02*X4570D01*
X4370Y9668D02*X4420Y9618D01*
X4370Y9968D02*Y9668D01*
Y9968D02*X4420Y10018D01*
X4570D01*
X4740Y9618D02*X4840D01*
X4790Y10018D02*Y9618D01*
X4690Y9918D02*X4790Y10018D01*
X4960D02*X5160D01*
X4960D02*Y9818D01*
X5010Y9868D01*
X5110D01*
X5160Y9818D01*
Y9668D01*
X5110Y9618D02*X5160Y9668D01*
X5010Y9618D02*X5110D01*
X4960Y9668D02*X5010Y9618D01*
X6034Y6665D02*X6184D01*
X5984Y6715D02*X6034Y6665D01*
X5984Y7015D02*Y6715D01*
Y7015D02*X6034Y7065D01*
X6184D01*
X6354Y6665D02*X6454D01*
X6404Y7065D02*Y6665D01*
X6304Y6965D02*X6404Y7065D01*
X6574Y7015D02*X6624Y7065D01*
X6774D01*
X6824Y7015D01*
Y6915D01*
X6574Y6665D02*X6824Y6915D01*
X6574Y6665D02*X6824D01*
X17204Y15530D02*Y15180D01*
X17254Y15130D01*
X17354D01*
X17404Y15180D01*
Y15530D02*Y15180D01*
X17574Y15130D02*X17674D01*
X17624Y15530D02*Y15130D01*
X17524Y15430D02*X17624Y15530D01*
X17794Y15480D02*X17844Y15530D01*
X17944D01*
X17994Y15480D01*
Y15180D01*
X17944Y15130D02*X17994Y15180D01*
X17844Y15130D02*X17944D01*
X17794Y15180D02*X17844Y15130D01*
Y15330D02*X17994D01*
X14300Y15348D02*Y14948D01*
X14550Y15348D02*Y14948D01*
X14300Y15148D02*X14550D01*
X14670Y15348D02*Y14948D01*
X14870D01*
X15040D02*X15140D01*
X15090Y15348D02*Y14948D01*
X14990Y15248D02*X15090Y15348D01*
X13000D02*Y14948D01*
X13250Y15348D02*Y14948D01*
X13000Y15148D02*X13250D01*
X13370Y15348D02*Y14948D01*
X13570D01*
X13690Y15298D02*X13740Y15348D01*
X13890D01*
X13940Y15298D01*
Y15198D01*
X13690Y14948D02*X13940Y15198D01*
X13690Y14948D02*X13940D01*
X16850Y8679D02*X17050D01*
X17100Y8629D01*
Y8529D01*
X17050Y8479D02*X17100Y8529D01*
X16900Y8479D02*X17050D01*
X16900Y8679D02*Y8279D01*
Y8479D02*X17100Y8279D01*
X17220Y8629D02*X17270Y8679D01*
X17370D01*
X17420Y8629D01*
Y8329D01*
X17370Y8279D02*X17420Y8329D01*
X17270Y8279D02*X17370D01*
X17220Y8329D02*X17270Y8279D01*
Y8479D02*X17420D01*
X17690Y8679D02*X17740Y8629D01*
X17590Y8679D02*X17690D01*
X17540Y8629D02*X17590Y8679D01*
X17540Y8629D02*Y8329D01*
X17590Y8279D01*
X17690Y8479D02*X17740Y8429D01*
X17540Y8479D02*X17690D01*
X17590Y8279D02*X17690D01*
X17740Y8329D01*
Y8429D02*Y8329D01*
X14251Y13010D02*X14451D01*
X14501Y12960D01*
Y12860D01*
X14451Y12810D02*X14501Y12860D01*
X14301Y12810D02*X14451D01*
X14301Y13010D02*Y12610D01*
Y12810D02*X14501Y12610D01*
X14622Y12960D02*X14672Y13010D01*
X14772D01*
X14822Y12960D01*
Y12660D01*
X14772Y12610D02*X14822Y12660D01*
X14672Y12610D02*X14772D01*
X14622Y12660D02*X14672Y12610D01*
Y12810D02*X14822D01*
X14942Y12610D02*X15142Y12810D01*
Y12960D02*Y12810D01*
X15092Y13010D02*X15142Y12960D01*
X14992Y13010D02*X15092D01*
X14942Y12960D02*X14992Y13010D01*
X14942Y12960D02*Y12860D01*
X14992Y12810D01*
X15142D01*
X13346Y11711D02*X13546D01*
X13596Y11661D01*
Y11561D01*
X13546Y11511D02*X13596Y11561D01*
X13396Y11511D02*X13546D01*
X13396Y11711D02*Y11311D01*
Y11511D02*X13596Y11311D01*
X13716Y11661D02*X13766Y11711D01*
X13866D01*
X13916Y11661D01*
Y11361D01*
X13866Y11311D02*X13916Y11361D01*
X13766Y11311D02*X13866D01*
X13716Y11361D02*X13766Y11311D01*
Y11511D02*X13916D01*
X14036Y11361D02*X14086Y11311D01*
X14036Y11461D02*Y11361D01*
Y11461D02*X14086Y11511D01*
X14186D01*
X14236Y11461D01*
Y11361D01*
X14186Y11311D02*X14236Y11361D01*
X14086Y11311D02*X14186D01*
X14036Y11561D02*X14086Y11511D01*
X14036Y11661D02*Y11561D01*
Y11661D02*X14086Y11711D01*
X14186D01*
X14236Y11661D01*
Y11561D01*
X14186Y11511D02*X14236Y11561D01*
X9731Y14938D02*Y14588D01*
X9781Y14538D01*
X9881D01*
X9931Y14588D01*
Y14938D02*Y14588D01*
X10101Y14538D02*X10201D01*
X10151Y14938D02*Y14538D01*
X10051Y14838D02*X10151Y14938D01*
X10371Y14538D02*X10471D01*
X10421Y14938D02*Y14538D01*
X10321Y14838D02*X10421Y14938D01*
X8344Y15333D02*Y14983D01*
X8394Y14933D01*
X8494D01*
X8544Y14983D01*
Y15333D02*Y14983D01*
X8714Y14933D02*X8814D01*
X8764Y15333D02*Y14933D01*
X8664Y15233D02*X8764Y15333D01*
X8934Y14983D02*X8984Y14933D01*
X8934Y15283D02*Y14983D01*
Y15283D02*X8984Y15333D01*
X9084D01*
X9134Y15283D01*
Y14983D01*
X9084Y14933D02*X9134Y14983D01*
X8984Y14933D02*X9084D01*
X8934Y15033D02*X9134Y15233D01*
X1292Y13152D02*Y12952D01*
Y13152D02*X1342Y13202D01*
X1442D01*
X1492Y13152D02*X1442Y13202D01*
X1492Y13152D02*Y13002D01*
X1292D02*X1692D01*
X1492D02*X1692Y13202D01*
X1342Y13323D02*X1292Y13373D01*
Y13523D02*Y13373D01*
Y13523D02*X1342Y13573D01*
X1442D01*
X1692Y13323D02*X1442Y13573D01*
X1692D02*Y13323D01*
X1642Y13693D02*X1692Y13743D01*
X1542Y13693D02*X1642D01*
X1542D02*X1492Y13743D01*
Y13843D02*Y13743D01*
Y13843D02*X1542Y13893D01*
X1642D01*
X1692Y13843D02*X1642Y13893D01*
X1692Y13843D02*Y13743D01*
X1442Y13693D02*X1492Y13743D01*
X1342Y13693D02*X1442D01*
X1342D02*X1292Y13743D01*
Y13843D02*Y13743D01*
Y13843D02*X1342Y13893D01*
X1442D01*
X1492Y13843D02*X1442Y13893D01*
X10129Y7152D02*Y6802D01*
X10179Y6752D01*
X10279D01*
X10329Y6802D01*
Y7152D02*Y6802D01*
X10449Y7152D02*X10649D01*
X10449D02*Y6952D01*
X10499Y7002D01*
X10599D01*
X10649Y6952D01*
Y6802D01*
X10599Y6752D02*X10649Y6802D01*
X10499Y6752D02*X10599D01*
X10449Y6802D02*X10499Y6752D01*
X16574Y11907D02*Y11557D01*
X16624Y11507D01*
X16724D01*
X16774Y11557D01*
Y11907D02*Y11557D01*
X16944Y11507D02*X17044D01*
X16994Y11907D02*Y11507D01*
X16894Y11807D02*X16994Y11907D01*
X17165Y11707D02*X17365Y11907D01*
X17165Y11707D02*X17415D01*
X17365Y11907D02*Y11507D01*
X16152Y10562D02*X16302D01*
X16102Y10612D02*X16152Y10562D01*
X16102Y10912D02*Y10612D01*
Y10912D02*X16152Y10962D01*
X16302D01*
X16422Y10762D02*X16622Y10962D01*
X16422Y10762D02*X16672D01*
X16622Y10962D02*Y10562D01*
X16792Y10612D02*X16842Y10562D01*
X16792Y10912D02*Y10612D01*
Y10912D02*X16842Y10962D01*
X16942D01*
X16992Y10912D01*
Y10612D01*
X16942Y10562D02*X16992Y10612D01*
X16842Y10562D02*X16942D01*
X16792Y10662D02*X16992Y10862D01*
X11571Y10916D02*Y10566D01*
X11621Y10516D01*
X11721D01*
X11771Y10566D01*
Y10916D02*Y10566D01*
X11941Y10516D02*X12041D01*
X11991Y10916D02*Y10516D01*
X11891Y10816D02*X11991Y10916D01*
X19859Y13791D02*Y13441D01*
X19909Y13391D01*
X20009D01*
X20059Y13441D01*
Y13791D02*Y13441D01*
X20179D02*X20229Y13391D01*
X20179Y13541D02*Y13441D01*
Y13541D02*X20229Y13591D01*
X20329D01*
X20379Y13541D01*
Y13441D01*
X20329Y13391D02*X20379Y13441D01*
X20229Y13391D02*X20329D01*
X20179Y13641D02*X20229Y13591D01*
X20179Y13741D02*Y13641D01*
Y13741D02*X20229Y13791D01*
X20329D01*
X20379Y13741D01*
Y13641D01*
X20329Y13591D02*X20379Y13641D01*
G54D60*X21255Y9454D02*X21435D01*
Y9034D01*
X21375Y8974D02*X21435Y9034D01*
X21315Y8974D02*X21375D01*
X21255Y9034D02*X21315Y8974D01*
X21639D02*X21759D01*
X21699Y9454D02*Y8974D01*
X21579Y9334D02*X21699Y9454D01*
G54D59*X3729Y13192D02*Y12992D01*
Y13192D02*X3779Y13242D01*
X3879D01*
X3929Y13192D02*X3879Y13242D01*
X3929Y13192D02*Y13042D01*
X3729D02*X4129D01*
X3929D02*X4129Y13242D01*
X3779Y13362D02*X3729Y13412D01*
Y13562D02*Y13412D01*
Y13562D02*X3779Y13612D01*
X3879D01*
X4129Y13362D02*X3879Y13612D01*
X4129D02*Y13362D01*
Y13732D02*X3879Y13982D01*
X3729D02*X3879D01*
X3729D02*Y13732D01*
X6929Y12616D02*X7129D01*
X7179Y12566D01*
Y12466D01*
X7129Y12416D02*X7179Y12466D01*
X6979Y12416D02*X7129D01*
X6979Y12616D02*Y12216D01*
Y12416D02*X7179Y12216D01*
X7299Y12416D02*X7499Y12616D01*
X7299Y12416D02*X7549D01*
X7499Y12616D02*Y12216D01*
X7719D02*X7819D01*
X7769Y12616D02*Y12216D01*
X7669Y12516D02*X7769Y12616D01*
X10082Y10897D02*Y10547D01*
X10132Y10497D01*
X10232D01*
X10282Y10547D01*
Y10897D02*Y10547D01*
X10402Y10497D02*X10652Y10747D01*
Y10897D02*Y10747D01*
X10402Y10897D02*X10652D01*
X11160Y11716D02*X11410D01*
Y11666D01*
X11160Y11416D02*X11410Y11666D01*
X11160Y11416D02*Y11316D01*
X11410D01*
X11530Y11666D02*Y11366D01*
Y11666D02*X11580Y11716D01*
X11680D01*
X11730Y11666D01*
Y11366D01*
X11680Y11316D02*X11730Y11366D01*
X11580Y11316D02*X11680D01*
X11530Y11366D02*X11580Y11316D01*
X11630Y11416D02*X11730Y11316D01*
X11901D02*X12001D01*
X11951Y11716D02*Y11316D01*
X11851Y11616D02*X11951Y11716D01*
X10163Y8839D02*Y8489D01*
X10213Y8439D01*
X10313D01*
X10363Y8489D01*
Y8839D02*Y8489D01*
X10633Y8839D02*X10683Y8789D01*
X10533Y8839D02*X10633D01*
X10483Y8789D02*X10533Y8839D01*
X10483Y8789D02*Y8489D01*
X10533Y8439D01*
X10633Y8639D02*X10683Y8589D01*
X10483Y8639D02*X10633D01*
X10533Y8439D02*X10633D01*
X10683Y8489D01*
Y8589D02*Y8489D01*
M02*
