G04 start of page 3 for group 1 idx 2 *
G04 Title: stribog.main_board, component *
G04 Creator: pcb 1.99y *
G04 CreationDate: Sat Oct 10 15:19:27 2009 UTC *
G04 For: dti *
G04 Format: Gerber/RS-274X *
G04 PCB-Dimensions: 236220 157480 *
G04 PCB-Coordinate-Origin: lower left *
%MOIN*%
%FSLAX25Y25*%
%LNFRONT*%
%ADD11C,0.0400*%
%ADD12C,0.0250*%
%ADD13C,0.0100*%
%ADD14C,0.0200*%
%ADD15C,0.0250*%
%ADD16C,0.0098*%
%ADD17C,0.0600*%
%ADD18C,0.1575*%
%ADD19R,0.0240X0.0240*%
%ADD21R,0.0200X0.0200*%
%ADD26R,0.0340X0.0340*%
%ADD27C,0.0380*%
%ADD28C,0.0207*%
%ADD29C,0.1260*%
%ADD30C,0.0350*%
%ADD31C,0.0350*%
%ADD32C,0.0336*%
%ADD33C,0.0120*%
%ADD34C,0.0105*%
%ADD35R,0.0360X0.0360*%
%ADD36R,0.0098X0.0098*%
%ADD37R,0.0250X0.0250*%
%ADD38R,0.0120X0.0120*%
G54D14*G36*
X116312Y31668D02*X133857Y49213D01*
X134383Y48687D01*
X134189Y48270D01*
X134054Y47765D01*
X134008Y47244D01*
X134054Y46723D01*
X134189Y46218D01*
X134410Y45744D01*
X134710Y45316D01*
X135080Y44946D01*
X135508Y44646D01*
X135826Y44498D01*
Y44095D01*
X131889Y40158D01*
Y31102D01*
X129921Y29134D01*
X120866D01*
X120246Y28514D01*
X120157Y28556D01*
X119989Y28601D01*
X119917Y28607D01*
X119929Y28740D01*
X119883Y29261D01*
X119748Y29766D01*
X119527Y30240D01*
X119227Y30668D01*
X118857Y31038D01*
X118429Y31338D01*
X117955Y31559D01*
X117450Y31694D01*
X116929Y31740D01*
X116408Y31694D01*
X116312Y31668D01*
G37*
G54D11*X52362Y122047D02*X51181D01*
X55512Y125197D02*X52362Y122047D01*
X71260Y129527D02*X67322D01*
X63780Y130708D02*X66142Y133070D01*
X70472Y129527D02*X71260D01*
Y132283D01*
X63780Y130708D02*X61024D01*
X55513Y125197D01*
X65748Y153149D02*X119685D01*
X102363Y150000D02*X96063D01*
X103937Y151574D02*X102363Y150000D01*
X96063D02*X93307Y152756D01*
X87008D01*
X84252Y153149D02*X85039Y152362D01*
G54D13*X68504Y101968D02*X70079Y103543D01*
G54D11*X69291Y134253D02*X71260Y132284D01*
X66142Y133070D02*Y143307D01*
X113386Y103936D02*X104724Y112598D01*
X113386Y102362D02*Y103936D01*
X65354Y146063D02*X69291Y142126D01*
X68504Y144170D02*Y151574D01*
X67360Y143026D02*X68504Y144170D01*
X63780Y130708D02*Y152756D01*
X48425Y148426D02*X49607Y147244D01*
X58661D01*
X68110Y148819D02*X71653Y152362D01*
X84252Y144488D02*Y153149D01*
X85039Y152362D02*Y145275D01*
X71653Y152362D02*X80709D01*
X84252Y147244D02*Y148994D01*
X81278Y151968D01*
X69291Y142126D02*Y135040D01*
X62598Y147244D02*X55906D01*
X65354Y151575D02*Y146063D01*
X66535Y152756D02*X65354Y151575D01*
X63780Y152756D02*X66535D01*
X35433Y92913D02*X40551D01*
X35039Y93307D02*X35433Y92913D01*
X40567Y89370D02*X35039D01*
Y93307D01*
X36221Y94882D02*X43701D01*
G54D13*X111929Y87480D02*X109651Y89764D01*
G54D11*X109501D02*X109496Y95669D01*
X84252Y104724D02*X75197D01*
G54D12*X69685Y102756D02*X70866Y103937D01*
X75197D01*
G54D11*X102362Y91732D02*Y99606D01*
X40551Y92913D02*X44488Y96850D01*
X40665Y89272D02*X40567Y89370D01*
X40945Y89763D02*Y90945D01*
X50000Y100000D01*
X43701Y94882D02*X46063Y97244D01*
Y98425D01*
X44488Y96850D02*X47638D01*
X50000Y100000D02*X48819Y101181D01*
X38583D01*
X46063Y98425D02*X38583D01*
Y101181D02*X35827Y98425D01*
Y94488D01*
X36221Y94882D01*
X86614Y59055D02*X83465Y62204D01*
X78020Y83071D02*X85742D01*
X69291Y81889D02*X66142Y78740D01*
X85742Y83071D02*X72047D01*
X70472Y81889D02*X69291D01*
G54D12*X70867Y83071D02*X73228D01*
G54D11*X77646Y83445D02*X78020Y83071D01*
X83465Y62204D02*X64567D01*
X43307Y29134D02*Y44882D01*
X40551Y42913D02*Y30315D01*
X46851Y24015D01*
X48425D01*
X45276Y44488D02*X45669Y44095D01*
Y26771D01*
X48425Y23622D02*Y45670D01*
G54D32*X75197Y24803D02*Y20865D01*
G54D11*X49606Y46063D02*X49212Y45669D01*
X37795D01*
X40551Y42913D01*
X102362Y79527D02*Y81496D01*
Y78740D01*
X16142Y72047D02*X17717Y73622D01*
X23228D01*
X22441Y69291D02*X15748D01*
Y73622D01*
X16142Y72047D02*X16536Y71653D01*
X24409D01*
X23228Y73622D02*X26377Y76771D01*
X26378D01*
Y69684D01*
X29921Y66141D01*
Y61811D01*
X22441Y69291D01*
G54D12*X164567Y140157D02*Y144488D01*
X164173Y139763D02*X164567Y140157D01*
G54D14*X159880Y131902D02*X159843Y131865D01*
Y126771D01*
G54D13*X174016Y110236D02*Y109842D01*
G54D11*Y110236D02*Y103543D01*
G54D12*X177559Y100000D02*X181890D01*
X174016Y103543D02*X177559Y100000D01*
G54D11*X122835Y73622D02*X120866D01*
X120472Y70866D02*Y77559D01*
X122441Y70866D02*X120472D01*
Y77559D02*X121653Y76378D01*
G54D13*X120866Y73622D02*Y73228D01*
G54D11*X124409Y72834D02*X130315Y78740D01*
X126378Y76378D02*X129134Y79134D01*
X126378Y77165D02*Y74803D01*
X121653Y76378D02*X125591D01*
X126378Y75984D02*X128346Y77952D01*
Y83858D02*X129528Y82676D01*
X129352Y80491D01*
X129134Y79134D02*Y84252D01*
X128346Y77952D02*X142126D01*
X137796Y82677D02*X132283D01*
X131890Y82284D01*
Y80315D01*
X138189D01*
X141732Y78128D02*X142126Y77952D01*
X141950Y78128D02*X140945Y79133D01*
X140769Y79309D02*X140945Y83464D01*
X138977Y81496D01*
X137796Y82677D01*
X126378Y74803D02*X122441Y70866D01*
X125591Y76378D02*X122835Y73622D01*
G54D13*X138497Y55819D02*X138189Y55511D01*
G54D16*X138408Y58306D02*Y55829D01*
G54D13*X137008Y47244D02*Y47637D01*
G54D11*X137402Y47638D02*Y54330D01*
Y47638D02*X129921Y40157D01*
X137008Y47244D02*X134646D01*
G54D16*X124627Y58296D02*Y50288D01*
G54D11*X103936Y22598D02*X104172Y22834D01*
X109843D01*
X114174Y27165D01*
X109843Y18036D02*Y23228D01*
G54D12*Y19685D02*Y18110D01*
G54D11*X114174Y27165D02*X118898D01*
X116929Y28740D02*X123228Y35039D01*
X117607Y11060D02*X110237Y18430D01*
X160630Y24803D02*X161024Y24409D01*
X171260D01*
X170079Y14173D02*X169685Y14567D01*
Y22834D01*
X160630Y24803D02*X160236Y24409D01*
X160630Y24803D02*X146851D01*
X146063D02*Y35039D01*
X149606D01*
X151968Y37401D01*
Y40945D01*
G54D13*X155588Y85433D02*X153937Y83858D01*
G54D11*X172835Y55511D02*X168897Y59449D01*
X166929D02*X166536Y59842D01*
X159449D01*
X169685Y56693D02*X167323Y59055D01*
X168897Y59449D02*X166535D01*
X167323Y59055D02*X168898Y57480D01*
Y49212D01*
X169685Y49606D02*Y56693D01*
G54D16*X158110Y85492D02*X155588D01*
G54D12*X157480Y100393D02*X155511D01*
G54D11*X158268Y101181D02*X157874D01*
G54D14*X155512Y100393D02*X162475D01*
X154331Y99212D02*X155512Y100393D01*
G54D16*X153073Y110990D02*X150315Y108232D01*
G54D13*X148425Y97244D02*Y96456D01*
G54D11*X151181D01*
Y90157D01*
G54D14*X152756Y97608D02*X154331Y99183D01*
G54D11*X152027Y96398D02*Y90945D01*
G54D14*X152756Y96850D02*Y97608D01*
G54D11*X159449Y101181D02*Y104724D01*
G54D14*X162475Y100393D02*Y108267D01*
G54D11*X161417Y106693D02*Y101968D01*
G54D14*X162475Y108267D02*X160113Y105905D01*
G54D16*X150217Y108153D02*Y106220D01*
G54D11*X160236Y103149D02*X158268Y101181D01*
G54D13*X148425Y89370D02*Y88582D01*
G54D11*Y87401D02*X144094D01*
X142126Y85433D01*
X142913Y88582D02*X138189D01*
X148425Y96456D02*Y87401D01*
Y91339D02*Y92126D01*
G54D12*X151181Y90157D02*Y89370D01*
X149213Y87402D01*
G54D11*X144094Y87008D02*X148425Y91339D01*
G54D12*X149213Y87402D02*Y87401D01*
G54D11*X148031Y93700D02*X142913Y88582D01*
X142126Y85433D02*X128740D01*
X128346Y85039D01*
Y83858D01*
Y86220D02*Y84645D01*
X138189Y88582D02*X135827Y86220D01*
G54D16*X132498Y100422D02*Y103966D01*
G54D13*X130512Y96102D02*X132087Y97677D01*
G54D16*X132165D02*Y100826D01*
G54D11*X135827Y86220D02*X128346D01*
G54D16*X113219Y87461D02*X112037Y87462D01*
G54D15*X126378Y150393D02*X117323Y141338D01*
G54D11*X125872Y150037D02*X117961Y142126D01*
X113386D01*
G54D15*X117323Y141338D02*X114961D01*
G54D13*X125909Y150000D02*X129921D01*
G54D11*X125591Y147244D02*X134681Y147161D01*
X133465Y141338D02*X129528Y145275D01*
X126772Y150393D02*X127165Y150000D01*
G54D13*X125872Y150037D02*X125909Y150000D01*
G54D11*X123228Y151968D02*Y149606D01*
X120866Y145275D02*Y151968D01*
X129528Y145275D02*X120866D01*
X125984Y150393D02*X126772D01*
X129527Y132677D02*X133465Y136615D01*
Y141338D01*
X127953Y130315D02*Y132677D01*
X129527D01*
X133500Y145980D02*Y132200D01*
X129921Y150000D02*X130315Y149606D01*
X134288Y145192D02*X137008Y147637D01*
X144882Y150000D02*X129921D01*
X134681Y147161D02*X133858Y146063D01*
X148031Y153149D02*X144882Y150000D01*
X136650Y147554D02*X146850Y147637D01*
X148031Y145275D02*Y153149D01*
X134288Y145192D02*X148031Y145275D01*
X118898Y153149D02*X146850D01*
X209449Y22834D02*X209055Y23228D01*
X210630Y18504D02*X205118Y12598D01*
X215748Y33071D02*X210630Y27953D01*
X214354Y33086D02*X214369Y33071D01*
X207875Y27559D02*X213780Y33464D01*
X216929Y32677D02*Y31102D01*
X216535Y33071D02*X216929Y32677D01*
X210630Y27953D02*Y18504D01*
X206300Y11417D02*X205906Y10236D01*
X206300D02*X205512Y9842D01*
X208661Y25197D02*X217717Y34253D01*
X216929Y31102D02*X209055Y23228D01*
X193307Y12598D02*X205118D01*
X185827Y25984D02*X209449D01*
X185039Y19685D02*X209449D01*
X186221Y14960D02*X206300D01*
X185827Y16535D02*X207087D01*
X185039Y12598D02*Y44488D01*
X184646Y45669D02*Y41732D01*
X183071Y36220D02*Y33858D01*
Y30315D02*Y27559D01*
Y12598D02*X185039D01*
X185433Y15748D02*X186221Y14960D01*
X185433Y16929D02*X185827Y16535D01*
X209055Y23228D02*X183858D01*
X212598Y33464D02*X216535D01*
X229921Y35433D02*X227559Y33071D01*
X214369D02*X227559D01*
X229921Y61811D02*Y35433D01*
X223621Y81496D02*X229921Y75196D01*
X222347Y48425D02*X229921D01*
Y75196D02*Y61417D01*
X222048Y48126D02*X222347Y48425D01*
X193307Y12598D02*X192519Y12992D01*
X192913D02*X154724D01*
X176772Y13386D02*X176378Y12992D01*
X171260D01*
X170079D02*X170866Y13779D01*
X183071Y27559D02*X182677Y27165D01*
X183071Y24803D02*X171260D01*
X172048Y21653D02*X183071D01*
Y18504D02*X170866D01*
Y16929D02*X172047Y15748D01*
X182677D01*
X205906Y9842D02*X148031D01*
Y6693D02*X205512D01*
X207874Y9055D01*
Y15748D01*
X170866Y13779D02*Y23228D01*
X167717Y25984D02*Y35433D01*
X171654Y22047D02*X172048Y21653D01*
X170866Y23228D02*X168504Y25590D01*
X153543D01*
G54D12*X161811D02*X166142D01*
X161811Y25197D02*X159055D01*
G54D11*X168504D02*X167717Y25984D01*
X147638Y31496D02*Y25197D01*
X152362Y33858D02*X149606Y31102D01*
Y30315D01*
X153543Y36220D02*X183071D01*
Y33858D02*X152362D01*
X149606Y30315D02*X183071D01*
X182677Y27165D02*X149606D01*
X147638Y12992D02*X155906D01*
X165034Y14960D02*X147638D01*
X165072Y14922D02*X165034Y14960D01*
X148031Y9449D02*Y6693D01*
X170866Y15354D02*X170472Y14960D01*
X162992D01*
X155512Y38582D02*X183465D01*
X184646Y41732D02*X157480D01*
X182677Y44488D02*X183071Y44094D01*
Y41338D01*
X174803Y47244D02*X171260Y50787D01*
X173622Y44882D02*X174409Y45669D01*
X184646D01*
X169685Y49606D02*X166535Y46456D01*
X167323Y47244D01*
X174803D01*
X160630Y44488D02*X182677D01*
X171260Y50787D02*X169685D01*
X167717Y35433D02*X167324Y35826D01*
X172835Y47637D02*Y59449D01*
X166535D01*
X160236Y35826D02*Y44094D01*
X157874Y45275D02*X152756Y40157D01*
Y36614D01*
X147638Y31496D01*
X160236Y44094D02*X160630Y44488D01*
X157757Y45530D02*X157874Y45413D01*
Y45275D01*
X157757Y45530D02*X157896Y45669D01*
X164567D01*
X165748Y44488D01*
X168110D01*
X167324Y35826D02*X160236D01*
X160630Y37795D02*X162598Y39763D01*
X164173D01*
X157480Y41732D02*X155512Y39764D01*
Y38582D01*
G54D16*X158097Y77616D02*X156336D01*
Y77596D02*X154724Y75984D01*
G54D13*X147244Y74409D02*X149213Y76378D01*
X148307Y67441D02*Y72046D01*
X146457Y82283D02*X148819D01*
X148425Y67323D02*X148307Y67441D01*
X150551Y71378D02*Y68189D01*
G54D16*X152992Y73680D02*X152795D01*
X151457Y72342D01*
X158110Y73680D02*X152961D01*
G54D13*X148307Y72046D02*X150906Y74645D01*
X151496Y72323D02*X150551Y71378D01*
G54D16*X155984Y71713D02*X158268D01*
X154291Y70000D02*X155984Y71693D01*
X152244Y75984D02*X150669Y74409D01*
G54D13*X149213Y76378D02*Y77952D01*
X148819Y82283D02*X154724Y88188D01*
G54D16*Y75984D02*X152244D01*
X154724D02*X152362D01*
G54D13*X144488Y96456D02*Y95669D01*
X136597Y98836D02*X139764Y95669D01*
G54D16*X144309Y103058D02*Y96034D01*
X136439Y103096D02*Y98836D01*
X134469Y106703D02*Y94378D01*
G54D13*X134646Y94388D02*Y95669D01*
X133110Y89803D02*X133976Y90669D01*
X127874Y89803D02*X133110D01*
X128447Y92025D02*X132283D01*
X136220Y92913D02*X133464Y90157D01*
G54D16*X127757Y89763D02*X129134D01*
G54D13*X144488Y95669D02*X141732Y92913D01*
X136220D01*
X132283Y92025D02*X134646Y94388D01*
G54D16*X156129Y97467D02*X160460D01*
X155512Y96850D02*X156129Y97467D01*
X155512Y88977D02*Y96850D01*
X154724Y88189D02*X155512Y88977D01*
G54D13*X156692Y97637D02*X164173D01*
G54D16*X160460Y97467D02*X160630Y97637D01*
G54D13*X131102Y74409D02*X147244D01*
X140551Y70866D02*X142126Y69291D01*
X132835Y69685D02*X130629Y67480D01*
X143307Y68110D02*X141732Y69685D01*
X131890Y72047D02*X139370D01*
X140945Y70472D01*
X137008Y69685D02*X132835D01*
G54D16*X130530Y67480D02*Y60236D01*
X142338Y58297D02*Y52634D01*
X146240Y63325D02*X143150Y66415D01*
G54D13*X142520Y46456D02*X136220Y40156D01*
G54D16*X148425Y100945D02*X149370Y100000D01*
X150039D01*
X148247Y103194D02*Y101085D01*
G54D13*X151575Y100000D02*X152362Y100787D01*
X150000Y100000D02*X151575D01*
G54D16*X146280Y107716D02*Y105779D01*
G54D11*X153937Y104330D02*Y106298D01*
G54D13*X152362Y100787D02*Y104330D01*
X188739Y76378D02*X181102D01*
X175197Y71653D02*X183465D01*
X172441Y74409D02*X175197Y71653D01*
X167717Y95275D02*X173622Y89370D01*
G54D16*X167717Y95275D02*X167677Y95315D01*
X172677Y86575D02*X166024Y93228D01*
G54D13*X173622Y89370D02*X186181D01*
X187520Y88031D01*
G54D11*X175591Y94094D02*X183465D01*
G54D13*X187008Y88582D02*X188582Y87008D01*
X188583D01*
X181102Y76378D02*X174016Y83464D01*
G54D16*X180709Y66929D02*X178347Y69291D01*
G54D13*X183621Y81496D02*X178503Y86614D01*
X173228D01*
G54D16*X178347Y69291D02*X172047D01*
X167687Y95335D02*X159931D01*
X161797Y87458D02*X163775D01*
X166064Y93367D02*X160827D01*
G54D13*X186219Y105118D02*X181495D01*
X187794Y103543D02*X186219Y105118D01*
X186613Y110236D02*X181889D01*
X185039Y125197D02*X182283D01*
X187794Y98819D02*Y103543D01*
G54D16*X172716Y86614D02*X173701D01*
G54D14*X182282Y94882D02*X181101D01*
X183070Y94094D02*X182282Y94882D01*
G54D13*X187794Y94095D02*Y100267D01*
G54D11*X175591Y94094D02*X168898Y100787D01*
G54D13*X164961Y98425D02*Y113386D01*
G54D11*X168898Y100787D02*Y125984D01*
G54D13*X188188Y87401D02*X193700Y81889D01*
Y81496D01*
X198818Y83071D02*X187794Y94095D01*
X203621Y82204D02*X190550Y95275D01*
X208660Y83464D02*X201179Y90945D01*
X198424D01*
X193306Y96063D01*
X213621Y81496D02*X213385Y81732D01*
X218110Y92913D02*X218897Y92126D01*
X219291D01*
X218898Y85826D02*Y76771D01*
X215748Y88976D02*X218898Y85826D01*
X215748Y120472D02*Y88976D01*
X163775Y87396D02*X164961Y88582D01*
X164173Y67323D02*X162205D01*
X164173Y97637D02*X164961Y98425D01*
X161417Y64960D02*X162991Y63386D01*
G54D16*X161829Y83523D02*X174016D01*
X161800Y75650D02*X167320D01*
G54D13*X167321Y75601D02*X168504Y74409D01*
X172441D01*
G54D16*X175590Y63386D02*X162992D01*
G54D14*X201968Y120078D02*X202755D01*
X201574Y120472D02*X201968Y120078D01*
G54D13*X213385Y119291D02*X207873Y124803D01*
X192913Y133071D02*X206693D01*
X206299Y129921D02*X215748Y120472D01*
X207873Y124803D02*X202361D01*
X205406Y129921D02*X206299D01*
X205231Y130096D02*X205406Y129921D01*
X206693Y133071D02*X218110Y121654D01*
X215356Y146850D02*X214962Y136220D01*
X207480Y138976D02*X208661Y150000D01*
X212598D01*
X208268Y144881D02*X210630D01*
X207480Y138976D02*X212205D01*
X222048Y136220D02*X223230Y137794D01*
X214962Y136220D02*X222048D01*
G54D14*X207480Y115354D02*X203936D01*
X208267Y116141D02*X207480Y115354D01*
X207085Y110236D02*X204330D01*
X207479Y109842D02*X207085Y110236D01*
G54D13*X213385Y81732D02*Y119291D01*
G54D14*X208661Y100000D02*X202755D01*
X209054Y100393D02*X208661Y100000D01*
X204723Y103937D02*Y105118D01*
G54D13*X190550Y95275D02*Y106299D01*
X193306Y96063D02*Y114567D01*
X218110Y121654D02*Y92913D01*
X190550Y106299D02*X186613Y110236D01*
X187008Y144488D02*Y154724D01*
X181102D02*X187008Y144488D01*
X181102Y154724D02*Y144488D01*
X185434Y136614D02*X190552Y146063D01*
X193306Y114567D02*X187795Y120078D01*
X181101D01*
G54D11*X174016Y136220D02*X172441Y134645D01*
G54D13*X195276Y136614D02*X188190Y141338D01*
X190552Y146063D02*X195276Y136614D01*
X198425Y146849D02*X201575Y141731D01*
X205118Y146849D01*
X205906Y136220D01*
X197244Y137007D02*X198425Y146849D01*
X192913Y133071D02*X185039Y125197D01*
X133465Y116536D02*Y119291D01*
X131889Y126378D02*X125984D01*
X137795Y120472D02*X131889Y126378D01*
G54D16*X140270Y113498D02*X138583Y111811D01*
G54D13*X140157Y129284D02*Y135826D01*
X137795Y115511D02*Y120472D01*
G54D16*X140270Y124371D02*Y113498D01*
X138407Y111680D02*Y106460D01*
X138580Y111830D02*X138430Y111680D01*
X128564Y111811D02*Y105669D01*
X130530Y106796D02*Y108256D01*
G54D13*X155512Y144488D02*X159055Y148031D01*
G54D16*X152484Y135865D02*X154842Y138223D01*
G54D11*X159055Y136614D02*Y142126D01*
G54D13*X155512Y138976D02*X153150Y136614D01*
X155512Y138976D02*Y144488D01*
G54D11*X154725Y152362D02*X160236D01*
G54D13*X159055Y148031D02*X167323D01*
X168504Y146850D01*
Y144488D01*
G54D11*X154331Y151968D02*X154725Y152362D01*
G54D12*X158268Y135433D02*X156693D01*
X156299Y135039D01*
G54D11*X172441Y134645D02*X163780D01*
G54D15*X158268Y135433D02*X163386D01*
G54D13*X147245Y109449D02*X147244D01*
X147357Y119329D02*X147638Y119610D01*
Y135826D01*
X150000Y112204D02*X147245Y109449D01*
G54D16*X149134Y111299D02*X146260Y108425D01*
X149733Y111892D02*X150126Y112285D01*
X146280Y108425D02*Y107765D01*
X125200Y109560D02*Y110210D01*
X126580Y108180D02*X125200Y109560D01*
X130315Y113386D02*X128740Y111811D01*
X130540Y108256D02*X131339Y109055D01*
X126595Y106797D02*Y108243D01*
X150126Y112285D02*Y115036D01*
X152484Y117394D01*
G54D13*X131339Y109055D02*X137795Y115511D01*
X130315Y113386D02*X133465Y116536D01*
G54D16*X145276Y114173D02*X142362Y111259D01*
X145276Y114248D02*Y114173D01*
X142342Y111259D02*Y106535D01*
G54D13*X140270Y129171D02*X140157Y129284D01*
G54D16*X145557Y114529D02*X145276Y114248D01*
G54D11*X159055Y117716D02*Y115354D01*
G54D14*X163780Y134644D02*Y131102D01*
G54D12*X156299Y135039D02*Y130708D01*
G54D11*X163780Y122441D02*X159055Y117716D01*
G54D16*X152484Y117394D02*Y135865D01*
G54D11*X158661Y111267D02*Y113779D01*
G54D12*X157912Y110911D02*Y109880D01*
X158305D02*X153936Y105511D01*
G54D13*X162204Y67323D02*X160630D01*
G54D16*X161760Y69743D02*X171211D01*
G54D13*X171250Y69661D02*X172047Y68897D01*
G54D16*X164173Y67323D02*X167717D01*
X169292Y65748D01*
X177953D01*
G54D13*X203621Y71496D02*X198818Y76299D01*
X203621Y81496D02*Y83385D01*
X198818Y76378D02*Y83071D01*
X208660Y67716D02*Y83464D01*
G54D11*X223622Y71496D02*X214173Y62047D01*
Y48425D01*
X218148Y39926D02*X215555Y41732D01*
X213386Y42519D01*
G54D13*X193621Y71496D02*X188739Y76378D01*
G54D16*X188189Y66929D02*X193307Y61811D01*
G54D13*X213621Y71496D02*X218896Y76771D01*
G54D16*X208661Y67716D02*X203150Y62205D01*
Y62204D01*
X188583Y59842D02*X190945Y57480D01*
X197638D01*
X202756Y62598D01*
X188189Y66929D02*X180709D01*
X177953Y65748D02*X179134Y64567D01*
X186614D01*
G54D13*X187795Y54330D02*X183858Y50393D01*
G54D16*X187795Y54330D02*Y57086D01*
X188583Y62598D02*Y59842D01*
G54D12*X181102Y58660D02*Y55905D01*
X181103Y58661D02*X181102Y58660D01*
G54D16*X186614Y64567D02*X188583Y62598D01*
X187795Y57086D02*X185039Y59842D01*
Y61811D01*
X184646Y62204D01*
X176772D01*
X175590Y63386D01*
G54D11*X129134Y11023D02*X140551D01*
G54D13*X136220Y40156D02*Y25197D01*
X118615Y21616D02*X119759Y20472D01*
X141732Y40706D02*Y33071D01*
X119759Y20472D02*X131890D01*
X142479Y41453D02*X141732Y40706D01*
X122047Y14960D02*X129528D01*
G54D11*X124016Y5905D02*X129134Y11023D01*
G54D13*X154724Y59055D02*X158268Y55511D01*
X157757Y55530D02*X157480Y55807D01*
G54D16*X152297Y58296D02*X154331Y56262D01*
G54D13*Y52756D01*
X156300Y50787D02*X161024D01*
X157087Y64960D02*X156299Y65748D01*
X161418Y64960D02*X157087D01*
X155708Y66338D02*X156535Y65511D01*
G54D16*X150551Y68149D02*X152362Y66338D01*
X148425Y67323D02*X151575Y64173D01*
X146280Y62074D02*Y63129D01*
X152362Y66338D02*X153307D01*
G54D13*X154724Y62992D02*Y59055D01*
X153543Y64173D02*X154724Y62992D01*
X152756Y64173D02*X153543D01*
G54D16*X151575D02*X152638D01*
X152835Y66338D02*X155708D01*
G54D13*X122441Y43307D02*X123622D01*
G54D16*X122653Y52952D02*Y60433D01*
G54D13*X120551Y62952D02*Y63071D01*
X122047Y64567D01*
G54D16*X113465Y47283D02*X109055Y42873D01*
Y41063D01*
G54D13*X106693Y27559D02*X122441Y43307D01*
X109055Y37717D02*Y42913D01*
X103936Y42598D02*X105591D01*
G54D16*X93937Y52598D02*X96606D01*
X106036Y62028D01*
X98980Y59088D02*X100156D01*
X103880Y62812D01*
G54D13*X103936Y32598D02*X109055Y37717D01*
X93936Y12598D02*X98819Y17481D01*
G54D11*X110630Y5905D02*X124016D01*
X103937Y12598D02*X110630Y5905D01*
G54D13*X98819Y17481D02*Y24409D01*
X101969Y27559D01*
X106693D01*
X154331Y52756D02*X156300Y50787D01*
X148238Y54990D02*X146791Y53543D01*
G54D16*X148248Y58296D02*Y54990D01*
X150218Y58306D02*Y48531D01*
G54D13*X163272Y19722D02*X163235Y19685D01*
X155118D01*
X150297Y48521D02*X151968Y46850D01*
X142520Y41338D02*X146850Y45668D01*
Y53543D01*
X124606Y83071D02*X123425Y81890D01*
G54D16*X124606Y89803D02*X122677Y91732D01*
G54D13*X123622Y81890D02*Y81889D01*
X124606Y89567D02*Y82874D01*
G54D16*X117323Y100393D02*Y100197D01*
G54D13*X121260Y108267D02*X115354Y114173D01*
X117323Y100393D02*Y101181D01*
Y100787D02*Y105118D01*
X122640Y106914D02*X121102Y108452D01*
G54D16*X120472Y105118D02*Y100000D01*
X122677Y91732D02*X120866D01*
X120846Y93563D02*X119114Y95335D01*
X115964D01*
X120866Y91732D02*Y93543D01*
X117323Y100197D02*X127757Y89763D01*
X120472Y100000D02*X128543Y91929D01*
G54D13*X126615Y99016D02*X124646Y100985D01*
G54D16*X124626Y100975D02*Y103730D01*
G54D13*X121260Y66929D02*X123622D01*
X131890Y72047D02*X124410Y64567D01*
X123622Y66929D02*X131102Y74409D01*
X119748Y85496D02*X120472Y86220D01*
G54D16*X116997Y85496D02*X119748D01*
X113297Y75649D02*X108374D01*
X110630Y67322D02*Y69055D01*
X113297Y69746D02*X112316D01*
X110157Y71712D02*X108268Y69823D01*
G54D13*X101181Y88189D02*X109724Y79685D01*
G54D16*X111327Y81575D02*X107480Y85433D01*
G54D13*X110630Y64960D02*Y67323D01*
G54D16*X99764Y67320D02*X100156D01*
X101910Y69074D01*
X103880Y71240D02*X104860Y72220D01*
X101910Y69074D02*Y73200D01*
X106036Y70456D02*X106624Y71044D01*
X113356Y81555D02*X111376D01*
X109724Y79587D02*X114487D01*
X109252Y73679D02*X106299Y70726D01*
X113307Y77617D02*X106447D01*
G54D13*Y77677D02*X101969Y73228D01*
G54D16*X108384Y75629D02*X104331Y71614D01*
X103880Y62812D02*Y71240D01*
X106036Y62028D02*Y70456D01*
G54D13*X120472Y105118D02*X107087Y118503D01*
Y119291D02*Y131496D01*
X117323Y105118D02*X107087Y115354D01*
Y118503D02*Y119685D01*
X104724Y117716D02*Y130708D01*
X100787Y111023D02*X109843Y101967D01*
Y100787D01*
X122047Y130315D02*X125984Y126378D01*
G54D16*X125197Y109842D02*Y118897D01*
G54D12*X90829Y126357D02*X90808Y126378D01*
X85826Y109449D02*X90157Y105118D01*
X90808Y126378D02*X83858D01*
X82283Y124803D01*
X89093Y85794D02*X91029Y83858D01*
X85827Y67716D02*X90945Y62598D01*
X81890Y67716D02*X85827D01*
X90945Y62598D02*X93701D01*
X91029Y83858D02*X91890D01*
G54D16*X126697Y56373D02*X128740Y54330D01*
X126597Y58296D02*Y56373D01*
G54D13*X118504Y55511D02*Y64173D01*
G54D16*X120551Y62952D02*Y54369D01*
G54D13*X118504Y64173D02*X121260Y66929D01*
X124410Y64567D02*X122047D01*
G54D16*X120079Y50393D02*X122638Y52952D01*
G54D13*X123622Y43307D02*X129921Y49606D01*
G54D16*X120551Y54369D02*X113150Y46968D01*
X113465Y47284D02*Y47283D01*
G54D13*X115748Y56692D02*X106693Y47637D01*
X105591Y42598D02*X118504Y55511D01*
X120079Y50393D02*Y48031D01*
X113386Y59055D02*Y62204D01*
X113780Y64960D02*X115748Y62992D01*
Y56692D01*
G54D16*X134470Y61986D02*Y64605D01*
X129921Y49606D02*X132520Y52205D01*
X132500D02*Y59724D01*
G54D13*X142520Y46456D02*Y54330D01*
X139370Y67323D02*Y65748D01*
X137008Y69685D02*X139370Y67323D01*
X143307Y66141D02*Y68110D01*
X99438Y67323D02*X95276D01*
X100001D02*X96457D01*
X103936Y52598D02*X107243Y55905D01*
X106693Y47637D02*X87795D01*
X99213Y59055D02*X93307D01*
X86614Y52362D01*
X108268Y61811D02*X109449Y60630D01*
X107243Y55905D02*X110236D01*
X113386Y59055D01*
X108268Y68640D02*Y61772D01*
X113386Y62204D02*X110630Y64960D01*
X113780Y67313D02*Y64960D01*
G54D16*X110087Y73680D02*X113355D01*
X110119Y73679D02*X109252D01*
X108268Y69843D02*Y68071D01*
X110630Y69055D02*X111299Y69724D01*
X111278Y71711D02*X114270D01*
X111299Y69744D02*X112432D01*
X111339Y71712D02*X110157D01*
G54D12*X59448Y113779D02*X42126D01*
X61811Y96456D02*X65354Y99999D01*
X61417Y115748D02*X59448Y113779D01*
X59600Y109449D02*X64961D01*
X61417Y120324D02*Y115748D01*
X50477Y105905D02*X54331D01*
G54D14*X56248Y99731D02*X48425Y91908D01*
G54D12*X60986Y120755D02*X61417Y120324D01*
G54D14*X34134Y83819D02*X33426D01*
X41339Y79134D02*X39370D01*
X53543Y86613D02*Y86614D01*
X48425Y91908D02*Y86220D01*
X36614Y105905D02*X53150D01*
X48425Y86220D02*X41339Y79134D01*
X38583Y119685D02*X42520D01*
X28346Y113386D02*X22441Y119291D01*
X40157Y124803D02*X37008Y127952D01*
X16535D01*
X17323Y112204D02*Y122835D01*
G54D12*X43701Y132283D02*X16142D01*
X44882Y131102D02*X43701Y132283D01*
X81496Y90551D02*X84095Y87952D01*
G54D14*X60362Y79653D02*X68898Y88189D01*
X71654D01*
X59499Y79653D02*X60362D01*
G54D12*X81889Y124409D02*X68897D01*
X77252Y119704D02*X77271Y119685D01*
X79528D01*
X66495Y105668D02*X70433Y109606D01*
X64961Y109449D02*X70079Y114567D01*
X81497Y98819D02*X76772D01*
X68503Y93700D02*X72047D01*
X85827Y120078D02*X86220Y119685D01*
X70079Y114567D02*X75197D01*
G54D13*X85827Y120078D02*X86220D01*
G54D12*X81890Y112598D02*X85039Y109449D01*
X81890Y99212D02*X81497Y98819D01*
G54D11*X47638Y116610D02*Y114567D01*
X47919Y116891D02*X47638Y116610D01*
G54D12*X42126Y113779D02*X41732Y114173D01*
Y114960D01*
G54D14*X42520Y119685D02*X44488Y121653D01*
X19685Y105905D02*X20079Y105511D01*
X28346Y103937D02*Y113386D01*
X27559Y96850D02*X36614Y105905D01*
X27559Y91732D02*Y96850D01*
X20079Y105511D02*Y94488D01*
X31496Y119685D02*X26378Y124803D01*
X19291D01*
X3937Y52362D02*X6299Y50000D01*
X37574Y56181D02*X11102D01*
X7087Y55973D02*X9911Y53149D01*
X6299Y50000D02*X13780D01*
X42345D02*X28346D01*
X23229Y51535D02*X24843Y53149D01*
X40665Y59272D02*X37574Y56181D01*
X36220Y28347D02*Y39764D01*
X39370Y20472D02*X31496Y28346D01*
Y36614D01*
X34251Y41733D02*X31889D01*
X11024Y56299D02*X10236Y57087D01*
X18898Y32283D02*X9055Y42126D01*
G54D13*X5118Y38583D02*X6693Y35433D01*
X5118Y19685D02*Y38583D01*
X3543Y35433D01*
G54D14*X9055Y42126D02*Y43307D01*
X15748Y53195D02*X22487Y46456D01*
X23228D01*
X13780Y50000D02*X22048Y41732D01*
X23228D01*
G54D11*X75123Y5905D02*X73228D01*
X77840Y8622D02*X75123Y5905D01*
X61024Y9842D02*X64961Y5905D01*
X74409D01*
X85039Y11811D02*X82677Y14173D01*
X62560Y13104D02*X62598Y13142D01*
Y17323D01*
X63780Y18505D01*
X87402Y14173D02*Y11023D01*
X85039D01*
X78740Y14173D02*X87402D01*
G54D12*X65354Y44094D02*Y45275D01*
G54D13*X68504Y41732D02*X67323Y40551D01*
G54D12*X62992Y41732D02*X65354Y44094D01*
G54D11*X57124Y46963D02*X65278Y54330D01*
X68898Y53937D02*X66142D01*
G54D12*X63780Y35039D02*X62992Y35827D01*
G54D13*X71260Y41732D02*X68504D01*
X73154Y43626D02*X71260Y41732D01*
X73154Y44476D02*Y43875D01*
Y44476D02*Y43626D01*
G54D11*X82283Y31102D02*X79528D01*
G54D33*X74409D01*
G54D11*X85039Y28346D02*X82283Y31102D01*
G54D13*X70079Y28740D02*X75197D01*
G54D11*X85433Y13779D02*Y27952D01*
G54D13*X87795Y47637D02*X85040Y44882D01*
X80709D01*
X86614Y52362D02*X79528D01*
X73229Y46063D01*
X73228D01*
G54D12*X79922Y37795D02*X81496D01*
X76772Y34645D02*X79922Y37795D01*
G54D13*X75910Y33684D02*X76772Y34546D01*
Y34645D01*
G54D12*X68898Y25196D02*Y11417D01*
G54D11*X63780Y18505D02*Y35039D01*
G54D12*X62992Y35827D02*Y41732D01*
G54D13*X69685Y35039D02*Y29134D01*
X70079Y28740D01*
X81383Y44844D02*X79490D01*
X69685Y35039D01*
G54D14*X45669Y61417D02*X49213Y64961D01*
X45669Y58661D02*Y61417D01*
Y59409D02*Y61417D01*
Y69276D02*Y73228D01*
X40665Y64272D02*X45669Y69276D01*
X60236Y64960D02*X62599Y67323D01*
X69291D01*
X49213Y64961D02*Y68504D01*
X60236Y69685D02*X63385Y72834D01*
X69291D01*
X50344Y57999D02*X42345Y50000D01*
X36220Y39764D02*X34251Y41733D01*
X27559Y49213D02*Y19685D01*
X28346Y50000D02*X27559Y49213D01*
X44450Y20117D02*X36220Y28347D01*
X44450Y18223D02*Y20117D01*
X39370Y15747D02*Y20472D01*
X27559Y19685D02*X23622Y15748D01*
X18898Y14058D02*Y32283D01*
X26263Y6693D02*X18898Y14058D01*
G54D13*X18501Y3543D02*X21257Y5118D01*
X18501Y3543D02*X21257Y1968D01*
G54D11*X50000Y13386D02*Y17710D01*
X53937Y13386D02*X50000D01*
X53937Y23228D02*Y13386D01*
X51969Y18504D02*Y13386D01*
X53937Y22834D02*X56693Y25590D01*
Y32677D01*
G54D14*X52681Y6693D02*X26263D01*
G54D13*X33466Y15355D02*X31497Y18898D01*
X31102Y11023D02*X36614Y18897D01*
G54D14*X44057Y12317D02*X42800D01*
X39370Y15747D01*
G54D13*X18501Y3543D02*X38186D01*
G54D14*X53824Y7836D02*X52681Y6693D01*
G54D13*X88961Y144094D02*X85812Y140945D01*
G54D12*X89286Y140551D02*X95669D01*
G54D13*X85812Y140945D02*X78740D01*
G54D12*X44096Y142519D02*X57480D01*
X43702Y142913D02*X44096Y142519D01*
G54D13*X78740Y140945D02*X77559Y142126D01*
G54D12*X55118Y152362D02*X57087D01*
X53543Y152756D02*X57087D01*
X53543Y153937D02*X55118Y152362D01*
X31496Y149685D02*X35748Y153937D01*
X53543D01*
X56299Y137008D02*X35039D01*
X22441Y149606D01*
G54D13*X102362Y133071D02*Y144095D01*
X100000Y129527D02*Y143307D01*
Y142913D02*Y142519D01*
X102362Y144095D02*X100001Y146456D01*
X107087Y143700D02*Y138976D01*
X109843Y136220D02*X113780D01*
X107087Y138976D02*X109843Y136220D01*
X98819Y144094D02*X100000Y142913D01*
X100001Y146456D02*X90157D01*
X98819Y144094D02*X88961D01*
X104724Y133859D02*Y146850D01*
Y133859D02*X107087Y131496D01*
X104724Y130708D02*X102362Y133070D01*
X104685Y146771D02*X107008Y149094D01*
X115433D01*
G54D12*X84646Y135911D02*X89286Y140551D01*
X84646Y135826D02*Y133464D01*
G54D13*X107480Y114960D02*X104724Y117716D01*
X105906Y102362D02*Y87008D01*
G54D16*X107913Y81141D02*X109369Y79685D01*
X110354D01*
X113297Y97303D02*X109843Y100757D01*
G54D13*X115354Y114173D02*Y120866D01*
G54D12*X61811Y87008D02*X68503Y93700D01*
X86929Y87952D02*X89087Y85794D01*
G54D13*X105906Y87008D02*X107480Y85434D01*
Y85433D01*
G54D12*X84095Y87952D02*X86929D01*
X89087Y85794D02*X89093D01*
G54D16*X101181Y88189D02*X97244D01*
G54D12*X81890Y77952D02*X77953D01*
G54D14*X41339Y74409D02*X53543Y86613D01*
X45669Y73228D02*X52362Y79921D01*
X40802Y74409D02*X41339D01*
X40665Y74272D02*X40802Y74409D01*
G54D12*X70473Y109449D02*X72047D01*
X65354Y99999D02*Y104330D01*
X65315Y104487D02*X66890Y106062D01*
G54D13*X100787Y122899D02*Y111023D01*
G54D12*X86220Y119685D02*X91732D01*
X85039Y109449D02*X85826D01*
G54D13*X91338Y99606D02*X91339D01*
X90551Y100393D02*X91338Y99606D01*
G54D12*X90157Y105118D02*X97244D01*
G54D13*X98819Y109449D02*X105906Y102362D01*
X97752Y109704D02*X98007Y109449D01*
X98819D01*
G54D12*X68898Y124803D02*X65748Y121653D01*
G54D13*X97329Y126357D02*X100787Y122899D01*
X101181Y128740D02*Y128346D01*
X100000Y129921D02*X101181Y128740D01*
Y128346D02*X100000Y129527D01*
X97637Y126378D02*X95276D01*
X94882Y131496D02*X94094D01*
G54D12*X84646Y133464D02*X81496Y130315D01*
G54D14*X44488Y121653D02*Y131102D01*
G54D12*X51496Y131103D02*X51495Y131102D01*
X44882D01*
G54D14*X56744Y57999D02*X60236Y61491D01*
Y64960D01*
X55956Y69810D02*X56081Y69685D01*
X60236D01*
X24409Y81102D02*X22441Y79134D01*
X19685D01*
X24409Y83516D02*Y88582D01*
X20472Y89763D02*X16535D01*
X24409Y88582D02*X27559Y91732D01*
X23622Y92913D02*Y99213D01*
Y92913D02*X20472Y89763D01*
X23622Y99213D02*X28346Y103937D01*
X17323Y122835D02*X19291Y124803D01*
X10236Y92913D02*Y112992D01*
X16535Y127952D02*X7087Y118504D01*
X15354Y110235D02*Y101181D01*
X10236Y112992D02*X12992Y115748D01*
X17323Y112204D02*X15354Y110235D01*
X7087Y118504D02*Y55973D01*
X10236Y57087D02*Y93307D01*
X9843Y53149D02*X8662Y54330D01*
X8661D01*
X9843Y53149D02*X9889Y53195D01*
X15748D01*
X3937Y120078D02*X16142Y132283D01*
X3937Y52361D02*Y120078D01*
X33426Y83819D02*X30709Y81102D01*
Y72441D01*
X33859Y69291D02*X35827D01*
X30709Y72441D02*X33859Y69291D01*
X24409Y83464D02*Y81102D01*
X24843Y53149D02*X40157D01*
X45669Y58661D01*
G54D13*X184252Y146062D02*G75*G03X179134Y140944I0J-5118D01*G01*
G75*G03X184252Y135826I5118J0D01*G01*
X194094Y154724D02*G75*G03X188976Y149606I0J-5118D01*G01*
G75*G03X194094Y144488I5118J0D01*G01*
X194093D02*G75*G03X199212Y149607I0J5119D01*G01*
X194093Y154724D02*G75*G02X199212Y149605I0J-5119D01*G01*
X8268Y26753D02*X13268Y21753D01*
X8268D02*X13268Y26753D01*
G54D34*X223418Y94884D02*X222108Y96194D01*
Y98814D02*Y96194D01*
Y98814D02*X223418Y100124D01*
X231278D01*
X232588Y98814D02*X231278Y100124D01*
X232588Y98814D02*Y96194D01*
X231278Y94884D02*X232588Y96194D01*
X227348Y100124D02*Y96194D01*
X232588Y107200D02*Y104580D01*
X222108Y105890D02*X232588D01*
X224728Y103270D02*X222108Y105890D01*
Y110347D02*X223418D01*
X229968Y116897D01*
X232588D01*
X229968Y110347D02*X232588D01*
X229968D02*X223418Y116897D01*
X222108D02*X223418D01*
X222108Y122663D02*Y120043D01*
Y121353D02*X232588D01*
Y122663D02*Y120043D01*
Y125810D02*X226038Y132360D01*
X222108D02*X226038D01*
X222108D02*Y125810D01*
G54D17*X139763Y98031D03*
X126772Y118898D03*
Y138898D03*
X223622Y81496D03*
Y71496D03*
X213622Y81496D03*
Y71496D03*
X203622Y81496D03*
Y71496D03*
X193622Y81496D03*
Y71496D03*
X183622Y81496D03*
Y71496D03*
G54D11*X23229Y51535D03*
Y46535D03*
Y41535D03*
Y36535D03*
Y31535D03*
Y26535D03*
Y21535D03*
G54D14*G36*
X21229Y18535D02*Y14535D01*
X25229D01*
Y18535D01*
X21229D01*
G37*
G54D17*X103937Y12598D03*
X93937D03*
X103937Y22598D03*
X93937D03*
X103937Y32598D03*
X93937D03*
X103937Y42598D03*
Y52598D03*
X93937Y42598D03*
Y52598D03*
X203937Y12599D03*
X193937D03*
X203937Y22599D03*
X193937D03*
X203937Y32599D03*
X193937D03*
X203937Y42599D03*
X193937D03*
X203937Y52599D03*
X193937D03*
X193307Y62205D03*
X203150D03*
X22441Y149606D03*
Y119606D03*
X31496Y119685D03*
Y149685D03*
X81496Y131103D03*
X51496D03*
G54D18*X9843Y9842D03*
G54D17*X16142Y72047D03*
G54D11*X9055Y43700D03*
X19291Y64173D03*
X15748Y60236D03*
X48425Y35039D03*
X31889Y42126D03*
G54D17*X28346Y65748D03*
G54D11*X79921Y119685D03*
X82677Y99251D03*
X81890Y113386D03*
X84252Y104724D03*
X109528Y95669D03*
X120866Y91732D03*
X109528Y89763D03*
X113386Y102362D03*
X85434Y120472D03*
X133465Y119291D03*
X104331Y112598D03*
X91732Y114173D03*
X122047Y130315D03*
X108268Y145118D03*
X84252Y144488D03*
X77953Y136220D03*
X74409Y147243D03*
G54D17*X67717Y132676D03*
G54D11*X69685Y102756D03*
G54D17*X48425Y148426D03*
X43702Y142913D03*
G54D11*X38583Y119685D03*
X90945Y136220D03*
X69291Y67322D03*
X81811Y68857D03*
X69291Y72834D03*
G54D17*X77166Y20078D03*
G54D11*X77165Y5905D03*
X68898Y25196D03*
Y53937D03*
X69291Y48819D03*
X67323Y39763D03*
X81496Y37795D03*
Y90551D03*
X69291Y93307D03*
X71654Y88189D03*
X31889Y36614D03*
G54D17*X40551Y44094D03*
X49606Y46063D03*
G54D11*X48426Y23622D03*
X34134Y83819D03*
G54D17*X40945Y89763D03*
G54D11*X102362Y91732D03*
Y79527D03*
X101575Y101181D03*
X120472Y74015D03*
X125196Y50277D03*
X86220Y82677D03*
X90551Y98818D03*
X91732Y92913D03*
Y71653D03*
G54D17*X86614Y59055D03*
G54D11*X90551Y78740D03*
X64567Y62598D03*
X82677Y77952D03*
X76772Y61417D03*
X41732Y114960D03*
X71024Y114961D03*
X70866Y109055D03*
X40157Y124803D03*
X61417Y115748D03*
X66535Y78740D03*
G54D18*X9843Y147637D03*
G54D11*X15355Y101181D03*
X12992Y115748D03*
X18898Y84645D03*
X19685Y105905D03*
X28346Y103937D03*
G54D17*X48819Y100000D03*
G54D11*X120079Y47637D03*
X116929Y28740D03*
G54D17*X85826Y12205D03*
X110237Y18110D03*
G54D11*X148425Y11023D03*
X122047Y14567D03*
X137008Y47244D03*
X176772Y39763D03*
G54D17*X171260Y18110D03*
X186220Y25984D03*
X162205Y24803D03*
X156653Y36140D03*
G54D18*X226378Y9842D03*
G54D17*X213386Y41732D03*
X216535Y33071D03*
X130709Y131496D03*
G54D11*X111418D03*
G54D17*X134646Y145275D03*
G54D11*X115354Y148031D03*
X120866Y145275D03*
X115355Y120866D03*
X111024Y125197D03*
X101181Y128346D03*
X95276Y131496D03*
X90945Y147637D03*
X204330Y95275D03*
X207479Y109842D03*
X208267Y116141D03*
X204723Y104330D03*
X209054Y100393D03*
G54D18*X226378Y147637D03*
G54D11*X179134Y129921D03*
G54D17*X174016Y136220D03*
X168897Y126377D03*
G54D11*X201574Y120472D03*
X180315Y114960D03*
X181890Y100000D03*
X174016Y110236D03*
X219291Y92126D03*
X123622Y81496D03*
X109449Y60630D03*
X120472Y86220D03*
X149213Y96456D03*
X130944Y96024D03*
X126615Y99016D03*
X138583Y54763D03*
X128740Y54330D03*
X151968Y46850D03*
X131102Y11025D03*
X134252Y65748D03*
X144488Y66141D03*
X139370Y65747D03*
X149213Y77952D03*
X146457Y82283D03*
X148425Y87401D03*
X183070Y94094D03*
X181103Y58661D03*
X171260Y79134D03*
G54D17*X169685Y50787D03*
G54D11*X172047Y69290D03*
X163780Y122441D03*
X164173Y139763D03*
X159843Y127559D03*
X163780Y113386D03*
X153543Y111417D03*
G54D17*X154331Y151968D03*
G54D11*X153937Y104330D03*
X154331Y82283D03*
X165748Y83464D03*
X159055Y60630D03*
X165354Y88582D03*
X166929Y59449D03*
G54D17*X160236Y103149D03*
G54D11*X154291Y70000D03*
G54D21*X90829Y141357D02*X97329D01*
X90829Y136357D02*X97329D01*
X90829Y131357D02*X97329D01*
X90829Y126357D02*X97329D01*
X91252Y119704D02*X97752D01*
X111329Y126357D02*X117829D01*
X111329Y141357D02*X117829D01*
G54D14*G36*
X146000Y147980D02*Y142980D01*
X151000D01*
Y147980D01*
X146000D01*
G37*
G36*
X137000D02*Y142980D01*
X142000D01*
Y147980D01*
X137000D01*
G37*
G54D21*X111329Y131357D02*X117829D01*
X111329Y136357D02*X117829D01*
G54D14*G36*
X146000Y138980D02*Y133980D01*
X151000D01*
Y138980D01*
X146000D01*
G37*
G36*
X137000D02*Y133980D01*
X142000D01*
Y138980D01*
X137000D01*
G37*
G54D19*X138470Y124371D02*X140270D01*
X138470Y129171D02*X140270D01*
X145557Y114529D02*X147357D01*
X145557Y119329D02*X147357D01*
G54D21*X198731Y95096D02*X205231D01*
X198731Y100096D02*X205231D01*
X198731Y125096D02*X205231D01*
X198731Y130096D02*X205231D01*
X198731Y105096D02*X205231D01*
X198731Y110096D02*X205231D01*
X198731Y115096D02*X205231D01*
X198731Y120096D02*X205231D01*
X178231Y130096D02*X184731D01*
X178231Y125096D02*X184731D01*
X178231Y120096D02*X184731D01*
X178231Y115096D02*X184731D01*
X178231Y110096D02*X184731D01*
X178231Y105096D02*X184731D01*
G54D19*X158305Y112711D02*Y110911D01*
X155980Y123702D02*Y122102D01*
X163780Y123702D02*Y122102D01*
G54D21*X178231Y100096D02*X184731D01*
X178231Y95096D02*X184731D01*
G54D19*X163780Y131902D02*Y130302D01*
X159880Y131902D02*Y130302D01*
X155980Y131902D02*Y130302D01*
X160631Y153095D02*Y151495D01*
Y144895D02*Y143295D01*
X168431Y153095D02*Y151495D01*
X164531Y144895D02*Y143295D01*
X168431Y144895D02*Y143295D01*
G54D21*X71146Y98445D02*X77646D01*
G54D35*X56248Y99731D02*Y96331D01*
X62648Y99731D02*Y96331D01*
X60287Y109180D02*Y105780D01*
G54D21*X70752Y109704D02*X77252D01*
X70752Y104704D02*X77252D01*
X91252D02*X97752D01*
X91252Y109704D02*X97752D01*
X91252Y114704D02*X97752D01*
X70752Y119704D02*X77252D01*
X70752Y114704D02*X77252D01*
G54D35*X53887Y109180D02*Y105780D01*
G54D19*X47919Y116891D02*X49719D01*
X47919Y121691D02*X49719D01*
X60986Y122555D02*Y120755D01*
G54D21*X73535Y136988D02*X80035D01*
X73535Y141988D02*X80035D01*
X73535Y146988D02*X80035D01*
X73535Y151988D02*X80035D01*
X53035D02*X59535D01*
X53035Y146988D02*X59535D01*
X53035Y141988D02*X59535D01*
X53035Y136988D02*X59535D01*
G54D19*X65786Y122555D02*Y120755D01*
G54D21*X71144Y77185D02*X77644D01*
G54D35*X53493Y89495D02*Y86095D01*
X59893Y89495D02*Y86095D01*
X53099Y79653D02*Y76253D01*
X59499Y79653D02*Y76253D01*
G54D21*X71144Y72185D02*X77644D01*
X71144Y67185D02*X77644D01*
X71144Y62185D02*X77644D01*
G54D35*X55956Y69810D02*Y66410D01*
G54D21*X91644Y62185D02*X98144D01*
X91644Y67185D02*X98144D01*
X91644Y72185D02*X98144D01*
X71146Y93445D02*X77646D01*
X71146Y88445D02*X77646D01*
X71146Y83445D02*X77646D01*
X91644Y77185D02*X98144D01*
X91646Y83445D02*X98146D01*
X91646Y88445D02*X98146D01*
X91646Y93445D02*X98146D01*
X91646Y98445D02*X98146D01*
G54D16*X113156Y97304D02*X116856D01*
G54D36*X113156Y95335D02*X116856D01*
X113156Y93367D02*X116856D01*
X113156Y91398D02*X116856D01*
X113156Y89430D02*X116856D01*
X113156Y87461D02*X116856D01*
X113156Y85493D02*X116856D01*
X113156Y83524D02*X116856D01*
X113156Y81556D02*X116856D01*
X113156Y79587D02*X116856D01*
X113156Y77619D02*X116856D01*
X113156Y75650D02*X116856D01*
X113156Y73682D02*X116856D01*
X113156Y71713D02*X116856D01*
X113156Y69745D02*X116856D01*
X113156Y67776D02*X116856D01*
G54D21*X34165Y59272D02*X40665D01*
X34165Y64272D02*X40665D01*
X34165Y69272D02*X40665D01*
X34165Y74272D02*X40665D01*
X34165Y79272D02*X40665D01*
X34165Y84272D02*X40665D01*
X34165Y89272D02*X40665D01*
G54D35*X49556Y69810D02*Y66410D01*
G54D21*X34165Y94272D02*X40665D01*
X13665D02*X20165D01*
X13665Y89272D02*X20165D01*
X13665Y84272D02*X20165D01*
X13665Y79272D02*X20165D01*
X13665Y74272D02*X20165D01*
X13665Y69272D02*X20165D01*
X13665Y64272D02*X20165D01*
X13665Y59272D02*X20165D01*
G54D19*X116815Y21616D02*X118615D01*
X116815Y26416D02*X118615D01*
X117213Y5866D02*X119013D01*
X117213Y10666D02*X119013D01*
X163273Y14529D02*X165073D01*
X163273Y19329D02*X165073D01*
G54D37*X146540Y25386D02*X156540D01*
X146540Y20386D02*X156540D01*
G54D15*X146540Y15386D02*X156540D01*
G54D21*X157757Y45530D02*X164257D01*
X157757Y40530D02*X164257D01*
G54D19*X171146Y74763D02*X172946D01*
X171146Y79563D02*X172946D01*
G54D21*X157757Y55530D02*X164257D01*
X157757Y50530D02*X164257D01*
X178257Y40530D02*X184757D01*
X178257Y45530D02*X184757D01*
X178257Y50530D02*X184757D01*
X178257Y55530D02*X184757D01*
G54D26*X222048Y48726D02*Y48126D01*
X214248Y48726D02*Y48126D01*
X218148Y40526D02*Y39926D01*
G54D37*X141540Y35386D02*Y25386D01*
Y15386D02*Y5386D01*
X126540Y20386D02*X136540D01*
X126540Y15386D02*X136540D01*
X126540Y25386D02*X136540D01*
G54D36*X157956Y67776D02*X161656D01*
X157956Y69745D02*X161656D01*
X157956Y71713D02*X161656D01*
X134467Y62004D02*Y58304D01*
X136436Y62004D02*Y58304D01*
X138404Y62004D02*Y58304D01*
X140373Y62004D02*Y58304D01*
X142341Y62004D02*Y58304D01*
X144310Y62004D02*Y58304D01*
X146278Y62004D02*Y58304D01*
X148247Y62004D02*Y58304D01*
X150215Y62004D02*Y58304D01*
X152184Y62004D02*Y58304D01*
X122656Y62004D02*Y58304D01*
X124625Y62004D02*Y58304D01*
X126593Y62004D02*Y58304D01*
X128562Y62004D02*Y58304D01*
X130530Y62004D02*Y58304D01*
X132499Y62004D02*Y58304D01*
X157956Y81556D02*X161656D01*
X157956Y83524D02*X161656D01*
X157956Y73682D02*X161656D01*
X157956Y75650D02*X161656D01*
X157956Y77619D02*X161656D01*
X157956Y79587D02*X161656D01*
X157956Y85493D02*X161656D01*
X157956Y87461D02*X161656D01*
X157956Y89430D02*X161656D01*
X157956Y91398D02*X161656D01*
X157956Y93367D02*X161656D01*
X157956Y95335D02*X161656D01*
X157956Y97304D02*X161656D01*
X152184Y106804D02*Y103104D01*
X150215Y106804D02*Y103104D01*
X148247Y106804D02*Y103104D01*
X146278Y106804D02*Y103104D01*
X144310Y106804D02*Y103104D01*
G54D19*X153505Y112711D02*Y110911D01*
G54D36*X142341Y106804D02*Y103104D01*
X140373Y106804D02*Y103104D01*
X138404Y106804D02*Y103104D01*
X136436Y106804D02*Y103104D01*
X134467Y106804D02*Y103104D01*
X132499Y106804D02*Y103104D01*
X130530Y106804D02*Y103104D01*
X128562Y106804D02*Y103104D01*
X126593Y106804D02*Y103104D01*
X124625Y106804D02*Y103104D01*
X122656Y106804D02*Y103104D01*
G54D19*X53824Y7836D02*X55624D01*
X53824Y12636D02*X55624D01*
X44057Y12317D02*Y10517D01*
X48857Y12317D02*Y10517D01*
X44057Y18616D02*Y16816D01*
X48857Y18616D02*Y16816D01*
X67360Y13104D02*Y11304D01*
X62560Y13104D02*Y11304D01*
X77840Y13422D02*X79640D01*
X77840Y8622D02*X79640D01*
X73154Y54276D02*Y52676D01*
Y46076D02*Y44476D01*
X65354Y54276D02*Y52676D01*
Y46076D02*Y44476D01*
X69254Y46076D02*Y44476D01*
G54D38*X57010Y33784D02*X59210D01*
X57010Y31184D02*X59210D01*
X57010Y28684D02*X59210D01*
X57010Y26084D02*X59210D01*
G54D33*X73710Y25984D02*X75910D01*
G54D38*X73710Y28584D02*X75910D01*
X73710Y31084D02*X75910D01*
X73710Y33684D02*X75910D01*
G54D19*X52324Y46963D02*Y45163D01*
X57124Y46963D02*Y45163D01*
G54D35*X56744Y57999D02*Y54599D01*
X50344Y57999D02*Y54599D01*
G54D14*G54D15*G54D27*G54D28*G54D27*G54D29*G54D30*G54D14*G54D30*G54D14*G54D30*G54D14*G54D30*G54D14*G54D31*G54D14*G54D30*G54D31*G54D14*G54D30*G54D14*G54D31*G54D14*G54D29*G54D14*G54D30*G54D14*G54D30*G54D31*G54D14*G54D30*G54D31*G54D30*G54D29*G54D30*G54D14*G54D30*G54D14*G54D29*G54D14*G54D31*G54D14*G54D31*G54D14*G54D30*G54D14*G54D31*G54D14*M02*
