M48
INCH,TZ
T14C0.020
T15C0.025
T27C0.038
T30C0.035
T54C0.021
T55C0.126
%
T14
X013976Y009803
X000905Y004370
X001929Y006417
X001574Y006023
X004842Y003503
X003188Y004212
X007992Y011968
X008267Y009925
X008189Y011338
X008425Y010472
X010952Y009566
X012086Y009173
X010952Y008976
X011338Y010236
X008543Y012047
X013346Y011929
X010433Y011259
X009173Y011417
X012204Y013031
X010826Y014511
X008425Y014448
X007795Y013622
X007440Y014724
X006968Y010275
X003858Y011968
X009094Y013622
X006929Y006732
X008181Y006885
X006929Y007283
X007716Y000590
X006889Y002519
X006889Y005393
X006929Y004881
X006732Y003976
X008149Y003779
X008149Y009055
X006929Y009330
X007165Y008818
X003188Y003661
X004842Y002362
X003413Y008381
X010236Y009173
X010236Y007952
X010157Y010118
X012047Y007401
X012519Y005027
X008622Y008267
X009055Y009881
X009173Y009291
X009173Y007165
X009055Y007874
X006456Y006259
X008267Y007795
X007677Y006141
X004173Y011496
X007102Y011496
X007086Y010905
X004015Y012480
X006141Y011574
X006653Y007874
X001535Y010118
X001299Y011574
X001889Y008464
X001968Y010590
X002834Y010393
X012007Y004763
X011692Y002874
X014842Y001102
X012204Y001456
X013700Y004724
X017677Y003976
X011141Y013149
X011535Y014803
X012086Y014527
X011535Y012086
X011102Y012519
X010118Y012834
X009527Y013149
X009094Y014763
X020433Y009527
X020747Y010984
X020826Y011614
X020472Y010433
X020905Y010039
X017913Y012992
X020157Y012047
X018031Y011496
X018189Y010000
X017401Y011023
X021929Y009212
X012362Y008149
X010944Y006063
X012047Y008622
X014921Y009645
X013094Y009602
X012661Y009901
X013858Y005476
X012874Y005433
X015196Y004685
X013110Y001102
X013425Y006574
X014448Y006614
X013937Y006574
X014921Y007795
X014645Y008228
X014842Y008740
X018307Y009409
X018110Y005866
X017126Y007913
X017204Y006929
X016378Y012244
X016417Y013976
X015984Y012755
X016378Y011338
X015354Y011141
X015393Y010433
X015433Y008228
X016574Y008346
X015905Y006063
X016535Y008858
X016692Y005944
X015429Y007000
T54
X002322Y005153
X002322Y004653
X002322Y004153
X002322Y003653
X002322Y003153
X002322Y002653
X002322Y002153
X002322Y001653
T15
X012677Y011889
X012677Y013889
T30
X001614Y007204
X002834Y006574
X006771Y013267
X004842Y014842
X004370Y014291
X007716Y002007
X004055Y004409
X004960Y004606
X004094Y008976
X008661Y005905
X004881Y010000
X008582Y001220
X011023Y001811
X017126Y001811
X018622Y002598
X016220Y002480
X015665Y003614
X021338Y004173
X021653Y003307
X013070Y013149
X013464Y014527
X017401Y013622
X016889Y012637
X016968Y005078
X015433Y015196
X016023Y010314
T27
X022362Y008149
X022362Y007149
X021362Y008149
X021362Y007149
X020362Y008149
X020362Y007149
X019362Y008149
X019362Y007149
X018362Y008149
X018362Y007149
X010393Y001259
X009393Y001259
X010393Y002259
X009393Y002259
X010393Y003259
X009393Y003259
X010393Y004259
X010393Y005259
X009393Y004259
X009393Y005259
X020393Y001259
X019393Y001259
X020393Y002259
X019393Y002259
X020393Y003259
X019393Y003259
X020393Y004259
X019393Y004259
X020393Y005259
X019393Y005259
X019330Y006220
X020315Y006220
X002244Y014960
X002244Y011960
X003149Y011968
X003149Y014968
X008149Y013110
X005149Y013110
T55
X000984Y000984
X000984Y014763
X022637Y000984
X022637Y014763
M30
