G04 start of page 3 for group 1 idx 2
G04 Title: stribog.main_board, component *
G04 Creator: pcb 20070208 *
G04 CreationDate: Sun Apr  6 09:45:45 2008 UTC *
G04 For: dti *
G04 Format: Gerber/RS-274X *
G04 PCB-Dimensions: 236220 157480 *
G04 PCB-Coordinate-Origin: lower left *
%MOIN*%
%FSLAX24Y24*%
%LNFRONT*%
%ADD11C,0.0400*%
%ADD12C,0.0250*%
%ADD13C,0.0100*%
%ADD14C,0.0200*%
%ADD15C,0.0250*%
%ADD16C,0.0098*%
%ADD17C,0.0600*%
%ADD18R,0.0400X0.0400*%
%ADD19C,0.1575*%
%ADD20R,0.0240X0.0240*%
%ADD21R,0.0200X0.0200*%
%ADD26R,0.0340X0.0340*%
%ADD27C,0.0380*%
%ADD28C,0.0207*%
%ADD29C,0.1260*%
%ADD30C,0.0350*%
%ADD31C,0.0350*%
%ADD32C,0.0336*%
%ADD33C,0.0120*%
%ADD34C,0.0105*%
%ADD35R,0.0500X0.0500*%
%ADD36R,0.0360X0.0360*%
%ADD37R,0.0098X0.0098*%
%ADD38R,0.0250X0.0250*%
%ADD39R,0.0120X0.0120*%
G54D14*G36*
X11631Y3166D02*X13385Y4921D01*
X13438Y4868D01*
X13418Y4827D01*
X13405Y4776D01*
X13400Y4724D01*
X13405Y4672D01*
X13418Y4621D01*
X13441Y4574D01*
X13471Y4531D01*
X13508Y4494D01*
X13550Y4464D01*
X13582Y4449D01*
Y4409D01*
X13188Y4015D01*
Y3110D01*
X12992Y2913D01*
X12086D01*
X12024Y2851D01*
X12015Y2855D01*
X11998Y2860D01*
X11991Y2860D01*
X11992Y2874D01*
X11988Y2926D01*
X11974Y2976D01*
X11952Y3024D01*
X11922Y3066D01*
X11885Y3103D01*
X11842Y3133D01*
X11795Y3155D01*
X11745Y3169D01*
X11692Y3174D01*
X11640Y3169D01*
X11631Y3166D01*
G37*
G54D11*X5236Y12204D02*X5118D01*
X5551Y12519D02*X5236Y12204D01*
X7126Y12952D02*X6732D01*
X6378Y13070D02*X6614Y13307D01*
X7047Y12952D02*X7126D01*
Y13228D01*
X6378Y13070D02*X6102D01*
X5551Y12519D01*
X6574Y15314D02*X11968D01*
X10236Y15000D02*X9606D01*
X10393Y15157D02*X10236Y15000D01*
X9606D02*X9330Y15275D01*
X8700D01*
X8425Y15314D02*X8503Y15236D01*
G54D13*X6850Y10196D02*X7007Y10354D01*
G54D11*X6929Y13425D02*X7126Y13228D01*
X6614Y13307D02*Y14330D01*
X11338Y10393D02*X10472Y11259D01*
X11338Y10236D02*Y10393D01*
X6535Y14606D02*X6929Y14212D01*
X6850Y14417D02*Y15157D01*
X6736Y14302D02*X6850Y14417D01*
X6378Y13070D02*Y15275D01*
X4842Y14842D02*X4960Y14724D01*
X5866D01*
X6811Y14881D02*X7165Y15236D01*
X8425Y14448D02*Y15314D01*
X8503Y15236D02*Y14527D01*
X7165Y15236D02*X8070D01*
X8425Y14724D02*Y14899D01*
X8127Y15196D01*
X6929Y14212D02*Y13504D01*
X6259Y14724D02*X5590D01*
X6535Y15157D02*Y14606D01*
X6653Y15275D02*X6535Y15157D01*
X6378Y15275D02*X6653D01*
X3543Y9291D02*X4055D01*
X3503Y9330D02*X3543Y9291D01*
X4056Y8937D02*X3503D01*
Y9330D01*
X3622Y9488D02*X4370D01*
G54D13*X11192Y8748D02*X10965Y8976D01*
G54D11*X10950D02*X10949Y9566D01*
X8425Y10472D02*X7519D01*
G54D12*X6968Y10275D02*X7086Y10393D01*
X7519D01*
G54D11*X10236Y9173D02*Y9960D01*
X4055Y9291D02*X4448Y9685D01*
X4066Y8927D02*X4056Y8937D01*
X4094Y8976D02*Y9094D01*
X5000Y10000D01*
X4370Y9488D02*X4606Y9724D01*
Y9842D01*
X4448Y9685D02*X4763D01*
X5000Y10000D02*X4881Y10118D01*
X3858D01*
X4606Y9842D02*X3858D01*
Y10118D02*X3582Y9842D01*
Y9448D01*
X3622Y9488D01*
X8661Y5905D02*X8346Y6220D01*
X7802Y8307D02*X8574D01*
X6929Y8188D02*X6614Y7874D01*
X8574Y8307D02*X7204D01*
X7047Y8188D02*X6929D01*
G54D12*X7086Y8307D02*X7322D01*
G54D11*X7764Y8344D02*X7802Y8307D01*
X8346Y6220D02*X6456D01*
X4330Y2913D02*Y4488D01*
X4055Y4291D02*Y3031D01*
X4685Y2401D01*
X4842D01*
X4527Y4448D02*X4566Y4409D01*
Y2677D01*
X4842Y2362D02*Y4567D01*
G54D32*X7519Y2480D02*Y2086D01*
G54D11*X4960Y4606D02*X4921Y4566D01*
X3779D01*
X4055Y4291D01*
X10236Y7952D02*Y8149D01*
Y7874D01*
X1614Y7204D02*X1771Y7362D01*
X2322D01*
X2244Y6929D02*X1574D01*
Y7362D01*
X1614Y7204D02*X1653Y7165D01*
X2440D01*
X2322Y7362D02*X2637Y7677D01*
X2637D01*
Y6968D01*
X2992Y6614D01*
Y6181D01*
X2244Y6929D01*
G54D12*X16456Y14015D02*Y14448D01*
X16417Y13976D02*X16456Y14015D01*
G54D14*X15988Y13190D02*X15984Y13186D01*
Y12677D01*
G54D13*X17401Y11023D02*Y10984D01*
G54D11*Y11023D02*Y10354D01*
G54D12*X17755Y10000D02*X18189D01*
X17401Y10354D02*X17755Y10000D01*
G54D11*X12283Y7362D02*X12086D01*
X12047Y7086D02*Y7755D01*
X12244Y7086D02*X12047D01*
Y7755D02*X12165Y7637D01*
G54D13*X12086Y7362D02*Y7322D01*
G54D11*X12440Y7283D02*X13031Y7874D01*
X12637Y7637D02*X12913Y7913D01*
X12637Y7716D02*Y7480D01*
X12165Y7637D02*X12559D01*
X12637Y7598D02*X12834Y7795D01*
Y8385D02*X12952Y8267D01*
X12935Y8049D01*
X12913Y7913D02*Y8425D01*
X12834Y7795D02*X14212D01*
X13779Y8267D02*X13228D01*
X13189Y8228D01*
Y8031D01*
X13818D01*
X14173Y7812D02*X14212Y7795D01*
X14195Y7812D02*X14094Y7913D01*
X14076Y7930D02*X14094Y8346D01*
X13897Y8149D01*
X13779Y8267D01*
X12637Y7480D02*X12244Y7086D01*
X12559Y7637D02*X12283Y7362D01*
G54D13*X13849Y5581D02*X13818Y5551D01*
G54D16*X13840Y5830D02*Y5582D01*
G54D13*X13700Y4724D02*Y4763D01*
G54D11*X13740Y4763D02*Y5433D01*
Y4763D02*X12992Y4015D01*
X13700Y4724D02*X13464D01*
G54D16*X12462Y5829D02*Y5028D01*
G54D11*X10393Y2259D02*X10417Y2283D01*
X10984D01*
X11417Y2716D01*
X10984Y1803D02*Y2322D01*
G54D12*Y1968D02*Y1811D01*
G54D11*X11417Y2716D02*X11889D01*
X11692Y2874D02*X12322Y3503D01*
X11760Y1106D02*X11023Y1843D01*
X16063Y2480D02*X16102Y2440D01*
X17126D01*
X17007Y1417D02*X16968Y1456D01*
Y2283D01*
X16063Y2480D02*X16023Y2440D01*
X16063Y2480D02*X14685D01*
X14606D02*Y3503D01*
X14960D01*
X15196Y3740D01*
Y4094D01*
G54D13*X15558Y8543D02*X15393Y8385D01*
G54D11*X17283Y5551D02*X16889Y5944D01*
X16692D02*X16653Y5984D01*
X15944D01*
X16968Y5669D02*X16732Y5905D01*
X16889Y5944D02*X16653D01*
X16732Y5905D02*X16889Y5748D01*
Y4921D01*
X16968Y4960D02*Y5669D01*
G54D16*X15811Y8549D02*X15558D01*
G54D12*X15748Y10039D02*X15551D01*
G54D11*X15826Y10118D02*X15787D01*
G54D14*X15551Y10039D02*X16247D01*
X15433Y9921D02*X15551Y10039D01*
G54D16*X15307Y11099D02*X15031Y10823D01*
G54D13*X14842Y9724D02*Y9645D01*
G54D11*X15118D01*
Y9015D01*
G54D14*X15275Y9760D02*X15433Y9918D01*
G54D11*X15202Y9639D02*Y9094D01*
G54D14*X15275Y9685D02*Y9760D01*
G54D11*X15944Y10118D02*Y10472D01*
G54D14*X16247Y10039D02*Y10826D01*
G54D11*X16141Y10669D02*Y10196D01*
G54D14*X16247Y10826D02*X16011Y10590D01*
G54D16*X15021Y10815D02*Y10622D01*
G54D11*X16023Y10314D02*X15826Y10118D01*
G54D13*X14842Y8937D02*Y8858D01*
G54D11*Y8740D02*X14409D01*
X14212Y8543D01*
X14291Y8858D02*X13818D01*
X14842Y9645D02*Y8740D01*
Y9133D02*Y9212D01*
G54D12*X15118Y9015D02*Y8937D01*
X14921Y8740D01*
G54D11*X14409Y8700D02*X14842Y9133D01*
G54D12*X14921Y8740D02*Y8740D01*
G54D11*X14803Y9370D02*X14291Y8858D01*
X14212Y8543D02*X12874D01*
X12834Y8503D01*
Y8385D01*
Y8622D02*Y8464D01*
X13818Y8858D02*X13582Y8622D01*
G54D16*X13249Y10042D02*Y10396D01*
G54D13*X13051Y9610D02*X13208Y9767D01*
G54D16*X13216D02*Y10082D01*
G54D11*X13582Y8622D02*X12834D01*
G54D16*X11321Y8746D02*X11203Y8746D01*
G54D15*X12637Y15039D02*X11732Y14133D01*
G54D11*X12587Y15003D02*X11796Y14212D01*
X11338D01*
G54D15*X11732Y14133D02*X11496D01*
G54D13*X12590Y15000D02*X12992D01*
G54D11*X12559Y14724D02*X13468Y14716D01*
X13346Y14133D02*X12952Y14527D01*
X12677Y15039D02*X12716Y15000D01*
G54D13*X12587Y15003D02*X12590Y15000D01*
G54D11*X12322Y15196D02*Y14960D01*
X12086Y14527D02*Y15196D01*
X12952Y14527D02*X12086D01*
X12598Y15039D02*X12677D01*
X12952Y13267D02*X13346Y13661D01*
Y14133D01*
X12795Y13031D02*Y13267D01*
X12952D01*
X13350Y14598D02*Y13220D01*
X12992Y15000D02*X13031Y14960D01*
X13428Y14519D02*X13700Y14763D01*
X14488Y15000D02*X12992D01*
X13468Y14716D02*X13385Y14606D01*
X14803Y15314D02*X14488Y15000D01*
X13665Y14755D02*X14685Y14763D01*
X14803Y14527D02*Y15314D01*
X13428Y14519D02*X14803Y14527D01*
X11889Y15314D02*X14685D01*
X20944Y2283D02*X20905Y2322D01*
X21063Y1850D02*X20511Y1259D01*
X21574Y3307D02*X21063Y2795D01*
X21435Y3308D02*X21436Y3307D01*
X20787Y2755D02*X21378Y3346D01*
X21692Y3267D02*Y3110D01*
X21653Y3307D02*X21692Y3267D01*
X21063Y2795D02*Y1850D01*
X20630Y1141D02*X20590Y1023D01*
X20630D02*X20551Y984D01*
X20866Y2519D02*X21771Y3425D01*
X21692Y3110D02*X20905Y2322D01*
X19330Y1259D02*X20511D01*
X18582Y2598D02*X20944D01*
X18503Y1968D02*X20944D01*
X18622Y1496D02*X20630D01*
X18582Y1653D02*X20708D01*
X18503Y1259D02*Y4448D01*
X18464Y4566D02*Y4173D01*
X18307Y3622D02*Y3385D01*
Y3031D02*Y2755D01*
Y1259D02*X18503D01*
X18543Y1574D02*X18622Y1496D01*
X18543Y1692D02*X18582Y1653D01*
X20905Y2322D02*X18385D01*
X21259Y3346D02*X21653D01*
X22992Y3543D02*X22755Y3307D01*
X21436D02*X22755D01*
X22992Y6181D02*Y3543D01*
X22362Y8149D02*X22992Y7519D01*
X22234Y4842D02*X22992D01*
Y7519D02*Y6141D01*
X22204Y4812D02*X22234Y4842D01*
X19330Y1259D02*X19251Y1299D01*
X19291D02*X15472D01*
X17677Y1338D02*X17637Y1299D01*
X17126D01*
X17007D02*X17086Y1377D01*
X18307Y2755D02*X18267Y2716D01*
X18307Y2480D02*X17126D01*
X17204Y2165D02*X18307D01*
Y1850D02*X17086D01*
Y1692D02*X17204Y1574D01*
X18267D01*
X20590Y984D02*X14803D01*
Y669D02*X20551D01*
X20787Y905D01*
Y1574D01*
X17086Y1377D02*Y2322D01*
X16771Y2598D02*Y3543D01*
X17165Y2204D02*X17204Y2165D01*
X17086Y2322D02*X16850Y2559D01*
X15354D01*
G54D12*X16181D02*X16614D01*
X16181Y2519D02*X15905D01*
G54D11*X16850D02*X16771Y2598D01*
X14763Y3149D02*Y2519D01*
X15236Y3385D02*X14960Y3110D01*
Y3031D01*
X15354Y3622D02*X18307D01*
Y3385D02*X15236D01*
X14960Y3031D02*X18307D01*
X18267Y2716D02*X14960D01*
X14763Y1299D02*X15590D01*
X16503Y1496D02*X14763D01*
X16507Y1492D02*X16503Y1496D01*
X14803Y944D02*Y669D01*
X17086Y1535D02*X17047Y1496D01*
X16299D01*
X15551Y3858D02*X18346D01*
X18464Y4173D02*X15748D01*
X18267Y4448D02*X18307Y4409D01*
Y4133D01*
X17480Y4724D02*X17126Y5078D01*
X17362Y4488D02*X17440Y4566D01*
X18464D01*
X16968Y4960D02*X16653Y4645D01*
X16732Y4724D01*
X17480D01*
X16063Y4448D02*X18267D01*
X17126Y5078D02*X16968D01*
X16771Y3543D02*X16732Y3582D01*
X17283Y4763D02*Y5944D01*
X16653D01*
X16023Y3582D02*Y4409D01*
X15787Y4527D02*X15275Y4015D01*
Y3661D01*
X14763Y3149D01*
X16023Y4409D02*X16063Y4448D01*
X15775Y4553D02*X15787Y4541D01*
Y4527D01*
X15775Y4553D02*X15789Y4566D01*
X16456D01*
X16574Y4448D01*
X16811D01*
X16732Y3582D02*X16023D01*
X16063Y3779D02*X16259Y3976D01*
X16417D01*
X15748Y4173D02*X15551Y3976D01*
Y3858D01*
G54D16*X15809Y7761D02*X15633D01*
Y7759D02*X15472Y7598D01*
G54D13*X14724Y7440D02*X14921Y7637D01*
X14830Y6744D02*Y7204D01*
X14645Y8228D02*X14881D01*
X14842Y6732D02*X14830Y6744D01*
X15055Y7137D02*Y6818D01*
G54D16*X15299Y7368D02*X15279D01*
X15145Y7234D01*
X15811Y7368D02*X15296D01*
G54D13*X14830Y7204D02*X15090Y7464D01*
X15149Y7232D02*X15055Y7137D01*
G54D16*X15598Y7171D02*X15826D01*
X15429Y7000D02*X15598Y7169D01*
X15224Y7598D02*X15066Y7440D01*
G54D13*X14921Y7637D02*Y7795D01*
X14881Y8228D02*X15472Y8818D01*
G54D16*Y7598D02*X15224D01*
X15472D02*X15236D01*
G54D13*X14448Y9645D02*Y9566D01*
X13659Y9883D02*X13976Y9566D01*
G54D16*X14430Y10305D02*Y9603D01*
X13643Y10309D02*Y9883D01*
X13446Y10670D02*Y9437D01*
G54D13*X13464Y9438D02*Y9566D01*
X13311Y8980D02*X13397Y9066D01*
X12787Y8980D02*X13311D01*
X12844Y9202D02*X13228D01*
X13622Y9291D02*X13346Y9015D01*
G54D16*X12775Y8976D02*X12913D01*
G54D13*X14448Y9566D02*X14173Y9291D01*
X13622D01*
X13228Y9202D02*X13464Y9438D01*
G54D16*X15612Y9746D02*X16046D01*
X15551Y9685D02*X15612Y9746D01*
X15551Y8897D02*Y9685D01*
X15472Y8818D02*X15551Y8897D01*
G54D13*X15669Y9763D02*X16417D01*
G54D16*X16046Y9746D02*X16063Y9763D01*
G54D13*X13110Y7440D02*X14724D01*
X14055Y7086D02*X14212Y6929D01*
X13283Y6968D02*X13062Y6748D01*
X14330Y6811D02*X14173Y6968D01*
X13189Y7204D02*X13937D01*
X14094Y7047D01*
X13700Y6968D02*X13283D01*
G54D16*X13053Y6748D02*Y6023D01*
X14233Y5829D02*Y5263D01*
X14624Y6332D02*X14315Y6641D01*
G54D13*X14252Y4645D02*X13622Y4015D01*
G54D16*X14842Y10094D02*X14937Y10000D01*
X15003D01*
X14824Y10319D02*Y10108D01*
G54D13*X15157Y10000D02*X15236Y10078D01*
X15000Y10000D02*X15157D01*
G54D16*X14628Y10771D02*Y10577D01*
G54D11*X15393Y10433D02*Y10629D01*
G54D13*X15236Y10078D02*Y10433D01*
X18873Y7637D02*X18110D01*
X17519Y7165D02*X18346D01*
X17244Y7440D02*X17519Y7165D01*
X16771Y9527D02*X17362Y8937D01*
G54D16*X16771Y9527D02*X16767Y9531D01*
X17267Y8657D02*X16602Y9322D01*
G54D13*X17362Y8937D02*X18618D01*
X18752Y8803D01*
G54D11*X17559Y9409D02*X18346D01*
G54D13*X18700Y8858D02*X18858Y8700D01*
X18858D01*
X18110Y7637D02*X17401Y8346D01*
G54D16*X18070Y6692D02*X17834Y6929D01*
G54D13*X18362Y8149D02*X17850Y8661D01*
X17322D01*
G54D16*X17834Y6929D02*X17204D01*
X16768Y9533D02*X15993D01*
X16179Y8745D02*X16377D01*
X16606Y9336D02*X16082D01*
G54D13*X18621Y10511D02*X18149D01*
X18779Y10354D02*X18621Y10511D01*
X18661Y11023D02*X18188D01*
X18503Y12519D02*X18228D01*
X18779Y9881D02*Y10354D01*
G54D16*X17271Y8661D02*X17370D01*
G54D14*X18228Y9488D02*X18110D01*
X18307Y9409D02*X18228Y9488D01*
G54D13*X18779Y9409D02*Y10026D01*
G54D11*X17559Y9409D02*X16889Y10078D01*
G54D13*X16496Y9842D02*Y11338D01*
G54D11*X16889Y10078D02*Y12598D01*
G54D13*X18818Y8740D02*X19370Y8188D01*
Y8149D01*
X19881Y8307D02*X18779Y9409D01*
X20362Y8220D02*X19055Y9527D01*
X20866Y8346D02*X20117Y9094D01*
X19842D01*
X19330Y9606D01*
X21362Y8149D02*X21338Y8173D01*
X21811Y9291D02*X21889Y9212D01*
X21929D01*
X21889Y8582D02*Y7677D01*
X21574Y8897D02*X21889Y8582D01*
X21574Y12047D02*Y8897D01*
X16377Y8739D02*X16496Y8858D01*
X16417Y6732D02*X16220D01*
X16417Y9763D02*X16496Y9842D01*
X16141Y6496D02*X16299Y6338D01*
G54D16*X16182Y8352D02*X17401D01*
X16180Y7565D02*X16732D01*
G54D13*X16732Y7560D02*X16850Y7440D01*
X17244D01*
G54D16*X17559Y6338D02*X16299D01*
G54D14*X20196Y12007D02*X20275D01*
X20157Y12047D02*X20196Y12007D01*
G54D13*X21338Y11929D02*X20787Y12480D01*
X19291Y13307D02*X20669D01*
X20629Y12992D02*X21574Y12047D01*
X20787Y12480D02*X20236D01*
X20540Y12992D02*X20629D01*
X20523Y13009D02*X20540Y12992D01*
X20669Y13307D02*X21811Y12165D01*
X21535Y14685D02*X21496Y13622D01*
X20748Y13897D02*X20866Y15000D01*
X21259D01*
X20826Y14488D02*X21063D01*
X20748Y13897D02*X21220D01*
X22204Y13622D02*X22323Y13779D01*
X21496Y13622D02*X22204D01*
G54D14*X20748Y11535D02*X20393D01*
X20826Y11614D02*X20748Y11535D01*
X20708Y11023D02*X20433D01*
X20747Y10984D02*X20708Y11023D01*
G54D13*X21338Y8173D02*Y11929D01*
G54D14*X20866Y10000D02*X20275D01*
X20905Y10039D02*X20866Y10000D01*
X20472Y10393D02*Y10511D01*
G54D13*X19055Y9527D02*Y10629D01*
X19330Y9606D02*Y11456D01*
X21811Y12165D02*Y9291D01*
X19055Y10629D02*X18661Y11023D01*
X18700Y14448D02*Y15472D01*
X18110D02*X18700Y14448D01*
X18110Y15472D02*Y14448D01*
X18543Y13661D02*X19055Y14606D01*
X19330Y11456D02*X18779Y12007D01*
X18110D01*
G54D11*X17401Y13622D02*X17244Y13464D01*
G54D13*X19527Y13661D02*X18819Y14133D01*
X19055Y14606D02*X19527Y13661D01*
X19842Y14684D02*X20157Y14173D01*
X20511Y14684D01*
X20590Y13622D01*
X19724Y13700D02*X19842Y14684D01*
X19291Y13307D02*X18503Y12519D01*
X13346Y11653D02*Y11929D01*
X13188Y12637D02*X12598D01*
X13779Y12047D02*X13188Y12637D01*
G54D16*X14027Y11349D02*X13858Y11181D01*
G54D13*X14015Y12928D02*Y13582D01*
X13779Y11551D02*Y12047D01*
G54D16*X14027Y12437D02*Y11349D01*
X13840Y11168D02*Y10646D01*
X13858Y11183D02*X13843Y11168D01*
X12856Y11181D02*Y10566D01*
X13053Y10679D02*Y10825D01*
G54D13*X15551Y14448D02*X15905Y14803D01*
G54D16*X15248Y13586D02*X15484Y13822D01*
G54D11*X15905Y13661D02*Y14212D01*
G54D13*X15551Y13897D02*X15315Y13661D01*
X15551Y13897D02*Y14448D01*
G54D11*X15472Y15236D02*X16023D01*
G54D13*X15905Y14803D02*X16732D01*
X16850Y14685D01*
Y14448D01*
G54D11*X15433Y15196D02*X15472Y15236D01*
G54D12*X15826Y13543D02*X15669D01*
X15629Y13503D01*
G54D11*X17244Y13464D02*X16378D01*
G54D15*X15826Y13543D02*X16338D01*
G54D13*X14724Y10944D02*X14724D01*
X14735Y11932D02*X14763Y11961D01*
Y13582D01*
X15000Y11220D02*X14724Y10944D01*
G54D16*X14913Y11129D02*X14626Y10842D01*
X14973Y11189D02*X15012Y11228D01*
X14628Y10842D02*Y10776D01*
X12520Y10956D02*Y11021D01*
X12658Y10818D02*X12520Y10956D01*
X13031Y11338D02*X12874Y11181D01*
X13054Y10825D02*X13133Y10905D01*
X12659Y10679D02*Y10824D01*
X15012Y11228D02*Y11503D01*
X15248Y11739D01*
G54D13*X13133Y10905D02*X13779Y11551D01*
X13031Y11338D02*X13346Y11653D01*
G54D16*X14527Y11417D02*X14236Y11125D01*
X14527Y11424D02*Y11417D01*
X14234Y11125D02*Y10653D01*
G54D13*X14027Y12917D02*X14015Y12928D01*
G54D16*X14555Y11452D02*X14527Y11424D01*
G54D11*X15905Y11771D02*Y11535D01*
G54D14*X16378Y13464D02*Y13110D01*
G54D12*X15629Y13503D02*Y13070D01*
G54D11*X16378Y12244D02*X15905Y11771D01*
G54D16*X15248Y11739D02*Y13586D01*
G54D11*X15866Y11126D02*Y11377D01*
G54D12*X15791Y11091D02*Y10988D01*
X15830D02*X15393Y10551D01*
G54D13*X16220Y6732D02*X16063D01*
G54D16*X16176Y6974D02*X17121D01*
G54D13*X17125Y6966D02*X17204Y6889D01*
G54D16*X16417Y6732D02*X16771D01*
X16929Y6574D01*
X17795D01*
G54D13*X20362Y7149D02*X19881Y7629D01*
X20362Y8149D02*Y8338D01*
X19881Y7637D02*Y8307D01*
X20866Y6771D02*Y8346D01*
G54D11*X22362Y7149D02*X21417Y6204D01*
Y4842D01*
X21814Y3992D02*X21555Y4173D01*
X21338Y4251D01*
G54D13*X19362Y7149D02*X18873Y7637D01*
G54D16*X18818Y6692D02*X19330Y6181D01*
G54D13*X21362Y7149D02*X21889Y7677D01*
G54D16*X20866Y6771D02*X20315Y6220D01*
Y6220D01*
X18858Y5984D02*X19094Y5748D01*
X19763D01*
X20275Y6259D01*
X18818Y6692D02*X18070D01*
X17795Y6574D02*X17913Y6456D01*
X18661D01*
G54D13*X18779Y5433D02*X18385Y5039D01*
G54D16*X18779Y5433D02*Y5708D01*
X18858Y6259D02*Y5984D01*
G54D12*X18110Y5866D02*Y5590D01*
X18110Y5866D02*X18110Y5866D01*
G54D16*X18661Y6456D02*X18858Y6259D01*
X18779Y5708D02*X18503Y5984D01*
Y6181D01*
X18464Y6220D01*
X17677D01*
X17559Y6338D01*
G54D11*X12913Y1102D02*X14055D01*
G54D13*X13622Y4015D02*Y2519D01*
X11861Y2161D02*X11975Y2047D01*
X14173Y4070D02*Y3307D01*
X11975Y2047D02*X13189D01*
X14247Y4145D02*X14173Y4070D01*
X12204Y1496D02*X12952D01*
G54D11*X12401Y590D02*X12913Y1102D01*
G54D13*X15472Y5905D02*X15826Y5551D01*
X15775Y5553D02*X15748Y5580D01*
G54D16*X15229Y5829D02*X15433Y5626D01*
G54D13*Y5275D01*
X15630Y5078D02*X16102D01*
X15708Y6496D02*X15629Y6574D01*
X16141Y6496D02*X15708D01*
X15570Y6633D02*X15653Y6551D01*
G54D16*X15055Y6814D02*X15236Y6633D01*
X14842Y6732D02*X15157Y6417D01*
X14628Y6207D02*Y6312D01*
X15236Y6633D02*X15330D01*
G54D13*X15472Y6299D02*Y5905D01*
X15354Y6417D02*X15472Y6299D01*
X15275Y6417D02*X15354D01*
G54D16*X15157D02*X15263D01*
X15283Y6633D02*X15570D01*
G54D13*X12244Y4330D02*X12362D01*
G54D16*X12265Y5295D02*Y6043D01*
G54D13*X12055Y6295D02*Y6307D01*
X12204Y6456D01*
G54D16*X11346Y4728D02*X10905Y4287D01*
Y4106D01*
G54D13*X10669Y2755D02*X12244Y4330D01*
X10905Y3771D02*Y4291D01*
X10393Y4259D02*X10559D01*
G54D16*X9393Y5259D02*X9660D01*
X10603Y6202D01*
X9898Y5908D02*X10015D01*
X10388Y6281D01*
G54D13*X10393Y3259D02*X10905Y3771D01*
X9393Y1259D02*X9881Y1748D01*
G54D11*X11063Y590D02*X12401D01*
X10393Y1259D02*X11063Y590D01*
G54D13*X9881Y1748D02*Y2440D01*
X10196Y2755D01*
X10669D01*
X15433Y5275D02*X15630Y5078D01*
X14823Y5499D02*X14679Y5354D01*
G54D16*X14824Y5829D02*Y5499D01*
X15021Y5830D02*Y4853D01*
G54D13*X16327Y1972D02*X16323Y1968D01*
X15511D01*
X15029Y4852D02*X15196Y4685D01*
X14252Y4133D02*X14685Y4566D01*
Y5354D01*
X12460Y8307D02*X12342Y8189D01*
G54D16*X12460Y8980D02*X12267Y9173D01*
G54D13*X12362Y8189D02*Y8188D01*
X12460Y8956D02*Y8287D01*
G54D16*X11732Y10039D02*Y10019D01*
G54D13*X12126Y10826D02*X11535Y11417D01*
X11732Y10039D02*Y10118D01*
Y10078D02*Y10511D01*
X12264Y10691D02*X12110Y10845D01*
G54D16*X12047Y10511D02*Y10000D01*
X12267Y9173D02*X12086D01*
X12084Y9356D02*X11911Y9533D01*
X11596D01*
X12086Y9173D02*Y9354D01*
X11732Y10019D02*X12775Y8976D01*
X12047Y10000D02*X12854Y9192D01*
G54D13*X12661Y9901D02*X12464Y10098D01*
G54D16*X12462Y10097D02*Y10373D01*
G54D13*X12126Y6692D02*X12362D01*
X13189Y7204D02*X12441Y6456D01*
X12362Y6692D02*X13110Y7440D01*
X11974Y8549D02*X12047Y8622D01*
G54D16*X11699Y8549D02*X11974D01*
X11329Y7564D02*X10837D01*
X11063Y6732D02*Y6905D01*
X11329Y6974D02*X11231D01*
X11015Y7171D02*X10826Y6982D01*
G54D13*X10118Y8818D02*X10972Y7968D01*
G54D16*X11132Y8157D02*X10748Y8543D01*
G54D13*X11063Y6496D02*Y6732D01*
G54D16*X9976Y6732D02*X10015D01*
X10191Y6907D01*
X10388Y7124D02*X10486Y7222D01*
X10191Y6907D02*Y7320D01*
X10603Y7045D02*X10662Y7104D01*
X11335Y8155D02*X11137D01*
X10972Y7958D02*X11448D01*
X10925Y7367D02*X10629Y7072D01*
X11330Y7761D02*X10644D01*
G54D13*Y7767D02*X10196Y7322D01*
G54D16*X10838Y7562D02*X10433Y7161D01*
X10388Y6281D02*Y7124D01*
X10603Y6202D02*Y7045D01*
G54D13*X12047Y10511D02*X10708Y11850D01*
Y11929D02*Y13149D01*
X11732Y10511D02*X10708Y11535D01*
Y11850D02*Y11968D01*
X10472Y11771D02*Y13070D01*
X10078Y11102D02*X10984Y10196D01*
Y10078D01*
X12204Y13031D02*X12598Y12637D01*
G54D16*X12519Y10984D02*Y11889D01*
G54D12*X9082Y12635D02*X9080Y12637D01*
X8582Y10944D02*X9015Y10511D01*
X9080Y12637D02*X8385D01*
X8228Y12480D01*
X8909Y8579D02*X9102Y8385D01*
X8582Y6771D02*X9094Y6259D01*
X8189Y6771D02*X8582D01*
X9094Y6259D02*X9370D01*
X9102Y8385D02*X9189D01*
G54D16*X12669Y5637D02*X12874Y5433D01*
X12659Y5829D02*Y5637D01*
G54D13*X11850Y5551D02*Y6417D01*
G54D16*X12055Y6295D02*Y5436D01*
G54D13*X11850Y6417D02*X12126Y6692D01*
X12441Y6456D02*X12204D01*
G54D16*X12007Y5039D02*X12263Y5295D01*
G54D13*X12362Y4330D02*X12992Y4960D01*
G54D16*X12055Y5436D02*X11315Y4696D01*
X11346Y4728D02*Y4728D01*
G54D13*X11574Y5669D02*X10669Y4763D01*
X10559Y4259D02*X11850Y5551D01*
X12007Y5039D02*Y4803D01*
X11338Y5905D02*Y6220D01*
X11378Y6496D02*X11574Y6299D01*
Y5669D01*
G54D16*X13447Y6198D02*Y6460D01*
X12992Y4960D02*X13252Y5220D01*
X13250D02*Y5972D01*
G54D13*X14252Y4645D02*Y5433D01*
X13937Y6732D02*Y6574D01*
X13700Y6968D02*X13937Y6732D01*
X14330Y6614D02*Y6811D01*
X9943Y6732D02*X9527D01*
X10000D02*X9645D01*
X10393Y5259D02*X10724Y5590D01*
X10669Y4763D02*X8779D01*
X9921Y5905D02*X9330D01*
X8661Y5236D01*
X10826Y6181D02*X10944Y6063D01*
X10724Y5590D02*X11023D01*
X11338Y5905D01*
X10826Y6864D02*Y6177D01*
X11338Y6220D02*X11063Y6496D01*
X11378Y6731D02*Y6496D01*
G54D16*X11008Y7368D02*X11335D01*
X11011Y7367D02*X10925D01*
X10826Y6984D02*Y6807D01*
X11063Y6905D02*X11129Y6972D01*
X11127Y7171D02*X11427D01*
X11129Y6974D02*X11243D01*
X11133Y7171D02*X11015D01*
G54D12*X5944Y11377D02*X4212D01*
X6181Y9645D02*X6535Y9999D01*
X6141Y11574D02*X5944Y11377D01*
X5960Y10944D02*X6496D01*
X6141Y12032D02*Y11574D01*
X5047Y10590D02*X5433D01*
G54D14*X5624Y9973D02*X4842Y9190D01*
G54D12*X6098Y12075D02*X6141Y12032D01*
G54D14*X3413Y8381D02*X3342D01*
X4133Y7913D02*X3937D01*
X5354Y8661D02*Y8661D01*
X4842Y9190D02*Y8622D01*
X3661Y10590D02*X5315D01*
X4842Y8622D02*X4133Y7913D01*
X3858Y11968D02*X4252D01*
X2834Y11338D02*X2244Y11929D01*
X4015Y12480D02*X3700Y12795D01*
X1653D01*
X1732Y11220D02*Y12283D01*
G54D12*X4370Y13228D02*X1614D01*
X4488Y13110D02*X4370Y13228D01*
X8149Y9055D02*X8409Y8795D01*
G54D14*X6036Y7965D02*X6889Y8818D01*
X7165D01*
X5949Y7965D02*X6036D01*
G54D12*X8188Y12440D02*X6889D01*
X7725Y11970D02*X7727Y11968D01*
X7952D01*
X6649Y10566D02*X7043Y10960D01*
X6496Y10944D02*X7007Y11456D01*
X8149Y9881D02*X7677D01*
X6850Y9370D02*X7204D01*
X8582Y12007D02*X8622Y11968D01*
X7007Y11456D02*X7519D01*
G54D13*X8582Y12007D02*X8622D01*
G54D12*X8189Y11259D02*X8503Y10944D01*
X8189Y9921D02*X8149Y9881D01*
G54D11*X4763Y11661D02*Y11456D01*
X4791Y11689D02*X4763Y11661D01*
G54D12*X4212Y11377D02*X4173Y11417D01*
Y11496D01*
G54D14*X4252Y11968D02*X4448Y12165D01*
X1968Y10590D02*X2007Y10551D01*
X2834Y10393D02*Y11338D01*
X2755Y9685D02*X3661Y10590D01*
X2755Y9173D02*Y9685D01*
X2007Y10551D02*Y9448D01*
X3149Y11968D02*X2637Y12480D01*
X1929D01*
X393Y5236D02*X629Y5000D01*
X3757Y5618D02*X1110D01*
X708Y5597D02*X991Y5314D01*
X629Y5000D02*X1378D01*
X4234D02*X2834D01*
X2322Y5153D02*X2484Y5314D01*
X4066Y5927D02*X3757Y5618D01*
X3622Y2834D02*Y3976D01*
X3937Y2047D02*X3149Y2834D01*
Y3661D01*
X3425Y4173D02*X3188D01*
X1102Y5629D02*X1023Y5708D01*
X1889Y3228D02*X905Y4212D01*
G54D13*X511Y3858D02*X669Y3543D01*
X511Y1968D02*Y3858D01*
X354Y3543D01*
G54D14*X905Y4212D02*Y4330D01*
X1574Y5319D02*X2248Y4645D01*
X2322D01*
X1378Y5000D02*X2204Y4173D01*
X2322D01*
G54D11*X7512Y590D02*X7322D01*
X7784Y862D02*X7512Y590D01*
X6102Y984D02*X6496Y590D01*
X7440D01*
X8503Y1181D02*X8267Y1417D01*
X6256Y1310D02*X6259Y1314D01*
Y1732D01*
X6378Y1850D01*
X8740Y1417D02*Y1102D01*
X8503D01*
X7874Y1417D02*X8740D01*
G54D12*X6535Y4409D02*Y4527D01*
G54D13*X6850Y4173D02*X6732Y4055D01*
G54D12*X6299Y4173D02*X6535Y4409D01*
G54D11*X5712Y4696D02*X6527Y5433D01*
X6889Y5393D02*X6614D01*
G54D12*X6378Y3503D02*X6299Y3582D01*
G54D13*X7126Y4173D02*X6850D01*
X7315Y4362D02*X7126Y4173D01*
X7315Y4447D02*Y4387D01*
Y4447D02*Y4362D01*
G54D11*X8228Y3110D02*X7952D01*
G54D33*X7440D01*
G54D11*X8503Y2834D02*X8228Y3110D01*
G54D13*X7007Y2874D02*X7519D01*
G54D11*X8543Y1377D02*Y2795D01*
G54D13*X8779Y4763D02*X8504Y4488D01*
X8070D01*
X8661Y5236D02*X7952D01*
X7322Y4606D01*
X7322D01*
G54D12*X7992Y3779D02*X8149D01*
X7677Y3464D02*X7992Y3779D01*
G54D13*X7591Y3368D02*X7677Y3454D01*
Y3464D01*
G54D12*X6889Y2519D02*Y1141D01*
G54D11*X6378Y1850D02*Y3503D01*
G54D12*X6299Y3582D02*Y4173D01*
G54D13*X6968Y3503D02*Y2913D01*
X7007Y2874D01*
X8138Y4484D02*X7949D01*
X6968Y3503D01*
G54D14*X4566Y6141D02*X4921Y6496D01*
X4566Y5866D02*Y6141D01*
Y5940D02*Y6141D01*
Y6927D02*Y7322D01*
X4066Y6427D02*X4566Y6927D01*
X6023Y6496D02*X6259Y6732D01*
X6929D01*
X4921Y6496D02*Y6850D01*
X6023Y6968D02*X6338Y7283D01*
X6929D01*
X5034Y5799D02*X4234Y5000D01*
X3622Y3976D02*X3425Y4173D01*
X2755Y4921D02*Y1968D01*
X2834Y5000D02*X2755Y4921D01*
X4445Y2011D02*X3622Y2834D01*
X4445Y1822D02*Y2011D01*
X3937Y1574D02*Y2047D01*
X2755Y1968D02*X2362Y1574D01*
X1889Y1405D02*Y3228D01*
X2626Y669D02*X1889Y1405D01*
G54D13*X1850Y354D02*X2125Y511D01*
X1850Y354D02*X2125Y196D01*
G54D11*X5000Y1338D02*Y1771D01*
X5393Y1338D02*X5000D01*
X5393Y2322D02*Y1338D01*
X5196Y1850D02*Y1338D01*
X5393Y2283D02*X5669Y2559D01*
Y3267D01*
G54D14*X5268Y669D02*X2626D01*
G54D13*X3346Y1535D02*X3149Y1889D01*
X3110Y1102D02*X3661Y1889D01*
G54D14*X4405Y1231D02*X4280D01*
X3937Y1574D01*
G54D13*X1850Y354D02*X3818D01*
G54D14*X5382Y783D02*X5268Y669D01*
G54D13*X8896Y14409D02*X8581Y14094D01*
G54D12*X8928Y14055D02*X9566D01*
G54D13*X8581Y14094D02*X7874D01*
G54D12*X4409Y14251D02*X5748D01*
X4370Y14291D02*X4409Y14251D01*
G54D13*X7874Y14094D02*X7755Y14212D01*
G54D12*X5511Y15236D02*X5708D01*
X5354Y15275D02*X5708D01*
X5354Y15393D02*X5511Y15236D01*
X3149Y14968D02*X3574Y15393D01*
X5354D01*
X5629Y13700D02*X3503D01*
X2244Y14960D01*
G54D13*X10236Y13307D02*Y14409D01*
X10000Y12952D02*Y14330D01*
Y14291D02*Y14251D01*
X10236Y14409D02*X10000Y14645D01*
X10708Y14370D02*Y13897D01*
X10984Y13622D02*X11378D01*
X10708Y13897D02*X10984Y13622D01*
X9881Y14409D02*X10000Y14291D01*
X10000Y14645D02*X9015D01*
X9881Y14409D02*X8896D01*
X10472Y13385D02*Y14685D01*
Y13385D02*X10708Y13149D01*
X10472Y13070D02*X10236Y13307D01*
X10468Y14677D02*X10700Y14909D01*
X11543D01*
G54D12*X8464Y13591D02*X8928Y14055D01*
X8464Y13582D02*Y13346D01*
G54D13*X10748Y11496D02*X10472Y11771D01*
X10590Y10236D02*Y8700D01*
G54D16*X10791Y8114D02*X10936Y7968D01*
X11035D01*
X11329Y9730D02*X10984Y10075D01*
G54D13*X11535Y11417D02*Y12086D01*
G54D12*X6181Y8700D02*X6850Y9370D01*
X8692Y8795D02*X8908Y8579D01*
G54D13*X10590Y8700D02*X10748Y8543D01*
Y8543D01*
G54D12*X8409Y8795D02*X8692D01*
X8908Y8579D02*X8909D01*
G54D16*X10118Y8818D02*X9724D01*
G54D12*X8189Y7795D02*X7795D01*
G54D14*X4133Y7440D02*X5354Y8661D01*
X4566Y7322D02*X5236Y7992D01*
X4080Y7440D02*X4133D01*
X4066Y7427D02*X4080Y7440D01*
G54D12*X7047Y10944D02*X7204D01*
X6535Y9999D02*Y10433D01*
X6531Y10448D02*X6689Y10606D01*
G54D13*X10078Y12289D02*Y11102D01*
G54D12*X8622Y11968D02*X9173D01*
X8503Y10944D02*X8582D01*
G54D13*X9133Y9960D02*X9133D01*
X9055Y10039D02*X9133Y9960D01*
G54D12*X9015Y10511D02*X9724D01*
G54D13*X9881Y10944D02*X10590Y10236D01*
X9775Y10970D02*X9800Y10944D01*
X9881D01*
G54D12*X6889Y12480D02*X6574Y12165D01*
G54D13*X9732Y12635D02*X10078Y12289D01*
X10118Y12874D02*Y12834D01*
X10000Y12992D02*X10118Y12874D01*
Y12834D02*X10000Y12952D01*
X9763Y12637D02*X9527D01*
X9488Y13149D02*X9409D01*
G54D12*X8464Y13346D02*X8149Y13031D01*
G54D14*X4448Y12165D02*Y13110D01*
G54D12*X5149Y13110D02*X5149Y13110D01*
X4488D01*
G54D14*X5674Y5799D02*X6023Y6149D01*
Y6496D01*
X5595Y6981D02*X5608Y6968D01*
X6023D01*
X2440Y8110D02*X2244Y7913D01*
X1968D01*
X2440Y8351D02*Y8858D01*
X2047Y8976D02*X1653D01*
X2440Y8858D02*X2755Y9173D01*
X2362Y9291D02*Y9921D01*
Y9291D02*X2047Y8976D01*
X2362Y9921D02*X2834Y10393D01*
X1732Y12283D02*X1929Y12480D01*
X1023Y9291D02*Y11299D01*
X1653Y12795D02*X708Y11850D01*
X1535Y11023D02*Y10118D01*
X1023Y11299D02*X1299Y11574D01*
X1732Y11220D02*X1535Y11023D01*
X708Y11850D02*Y5597D01*
X1023Y5708D02*Y9330D01*
X984Y5314D02*X866Y5433D01*
X866D01*
X984Y5314D02*X988Y5319D01*
X1574D01*
X393Y12007D02*X1614Y13228D01*
X393Y5236D02*Y12007D01*
X3342Y8381D02*X3070Y8110D01*
Y7244D01*
X3385Y6929D02*X3582D01*
X3070Y7244D02*X3385Y6929D01*
X2440Y8346D02*Y8110D01*
X2484Y5314D02*X4015D01*
X4566Y5866D01*
G54D13*X18425Y14606D02*G75*G03X17913Y14094I0J-511D01*G01*
G75*G03X18425Y13582I511J0D01*G01*
X19409Y15472D02*G75*G03X18897Y14960I0J-511D01*G01*
G75*G03X19409Y14448I511J0D01*G01*
X19409D02*G75*G03X19921Y14960I0J511D01*G01*
X19409Y15472D02*G75*G02X19921Y14960I0J-511D01*G01*
X826Y2675D02*X1326Y2175D01*
X826D02*X1326Y2675D01*
G54D34*X22341Y9488D02*X22210Y9619D01*
Y9881D02*Y9619D01*
Y9881D02*X22341Y10012D01*
X23127D01*
X23258Y9881D02*X23127Y10012D01*
X23258Y9881D02*Y9619D01*
X23127Y9488D02*X23258Y9619D01*
X22734Y10012D02*Y9619D01*
X23258Y10720D02*Y10458D01*
X22210Y10589D02*X23258D01*
X22472Y10327D02*X22210Y10589D01*
Y11034D02*X22341D01*
X22996Y11689D01*
X23258D01*
X22996Y11034D02*X23258D01*
X22996D02*X22341Y11689D01*
X22210D02*X22341D01*
X22210Y12266D02*Y12004D01*
Y12135D02*X23258D01*
Y12266D02*Y12004D01*
Y12581D02*X22603Y13236D01*
X22210D02*X22603D01*
X22210D02*Y12581D01*
G54D17*X13976Y9803D03*
X12677Y11889D03*
Y13889D03*
X22362Y8149D03*
Y7149D03*
X21362Y8149D03*
Y7149D03*
X20362Y8149D03*
Y7149D03*
X19362Y8149D03*
Y7149D03*
X18362Y8149D03*
Y7149D03*
G54D11*X2322Y5153D03*
Y4653D03*
Y4153D03*
Y3653D03*
Y3153D03*
Y2653D03*
Y2153D03*
G54D18*Y1653D03*
G54D17*X10393Y1259D03*
X9393D03*
X10393Y2259D03*
X9393D03*
X10393Y3259D03*
X9393D03*
X10393Y4259D03*
Y5259D03*
X9393Y4259D03*
Y5259D03*
X20393Y1259D03*
X19393D03*
X20393Y2259D03*
X19393D03*
X20393Y3259D03*
X19393D03*
X20393Y4259D03*
X19393D03*
X20393Y5259D03*
X19393D03*
X19330Y6220D03*
X20315D03*
X2244Y14960D03*
Y11960D03*
X3149Y11968D03*
Y14968D03*
X8149Y13110D03*
X5149D03*
G54D19*X984Y984D03*
G54D17*X1614Y7204D03*
G54D11*X905Y4370D03*
X1929Y6417D03*
X1574Y6023D03*
X4842Y3503D03*
X3188Y4212D03*
G54D17*X2834Y6574D03*
G54D11*X7992Y11968D03*
X8267Y9925D03*
X8189Y11338D03*
X8425Y10472D03*
X10952Y9566D03*
X12086Y9173D03*
X10952Y8976D03*
X11338Y10236D03*
X8543Y12047D03*
X13346Y11929D03*
X10433Y11259D03*
X9173Y11417D03*
X12204Y13031D03*
X10826Y14511D03*
X8425Y14448D03*
X7795Y13622D03*
X7440Y14724D03*
G54D17*X6771Y13267D03*
G54D11*X6968Y10275D03*
G54D17*X4842Y14842D03*
X4370Y14291D03*
G54D11*X3858Y11968D03*
X9094Y13622D03*
X6929Y6732D03*
X8181Y6885D03*
X6929Y7283D03*
G54D17*X7716Y2007D03*
G54D11*X7716Y590D03*
X6889Y2519D03*
Y5393D03*
X6929Y4881D03*
X6732Y3976D03*
X8149Y3779D03*
Y9055D03*
X6929Y9330D03*
X7165Y8818D03*
X3188Y3661D03*
G54D17*X4055Y4409D03*
X4960Y4606D03*
G54D11*X4842Y2362D03*
X3413Y8381D03*
G54D17*X4094Y8976D03*
G54D11*X10236Y9173D03*
Y7952D03*
X10157Y10118D03*
X12047Y7401D03*
X12519Y5027D03*
X8622Y8267D03*
X9055Y9881D03*
X9173Y9291D03*
Y7165D03*
G54D17*X8661Y5905D03*
G54D11*X9055Y7874D03*
X6456Y6259D03*
X8267Y7795D03*
X7677Y6141D03*
X4173Y11496D03*
X7102Y11496D03*
X7086Y10905D03*
X4015Y12480D03*
X6141Y11574D03*
X6653Y7874D03*
G54D19*X984Y14763D03*
G54D11*X1535Y10118D03*
X1299Y11574D03*
X1889Y8464D03*
X1968Y10590D03*
X2834Y10393D03*
G54D17*X4881Y10000D03*
G54D11*X12007Y4763D03*
X11692Y2874D03*
G54D17*X8582Y1220D03*
X11023Y1811D03*
G54D11*X14842Y1102D03*
X12204Y1456D03*
X13700Y4724D03*
X17677Y3976D03*
G54D17*X17126Y1811D03*
X18622Y2598D03*
X16220Y2480D03*
X15665Y3614D03*
G54D19*X22637Y984D03*
G54D17*X21338Y4173D03*
X21653Y3307D03*
X13070Y13149D03*
G54D11*X11141D03*
G54D17*X13464Y14527D03*
G54D11*X11535Y14803D03*
X12086Y14527D03*
X11535Y12086D03*
X11102Y12519D03*
X10118Y12834D03*
X9527Y13149D03*
X9094Y14763D03*
X20433Y9527D03*
X20747Y10984D03*
X20826Y11614D03*
X20472Y10433D03*
X20905Y10039D03*
G54D19*X22637Y14763D03*
G54D11*X17913Y12992D03*
G54D17*X17401Y13622D03*
X16889Y12637D03*
G54D11*X20157Y12047D03*
X18031Y11496D03*
X18189Y10000D03*
X17401Y11023D03*
X21929Y9212D03*
X12362Y8149D03*
X10944Y6063D03*
X12047Y8622D03*
X14921Y9645D03*
X13094Y9602D03*
X12661Y9901D03*
X13858Y5476D03*
X12874Y5433D03*
X15196Y4685D03*
X13110Y1102D03*
X13425Y6574D03*
X14448Y6614D03*
X13937Y6574D03*
X14921Y7795D03*
X14645Y8228D03*
X14842Y8740D03*
X18307Y9409D03*
X18110Y5866D03*
X17126Y7913D03*
G54D17*X16968Y5078D03*
G54D11*X17204Y6929D03*
X16378Y12244D03*
X16417Y13976D03*
X15984Y12755D03*
X16378Y11338D03*
X15354Y11141D03*
G54D17*X15433Y15196D03*
G54D11*X15393Y10433D03*
X15433Y8228D03*
X16574Y8346D03*
X15905Y6063D03*
X16535Y8858D03*
X16692Y5944D03*
G54D17*X16023Y10314D03*
G54D11*X15429Y7000D03*
G54D21*X9082Y14135D02*X9732D01*
X9082Y13635D02*X9732D01*
X9082Y13135D02*X9732D01*
X9082Y12635D02*X9732D01*
X9125Y11970D02*X9775D01*
X11132Y12635D02*X11782D01*
X11132Y14135D02*X11782D01*
G54D35*X14850Y14548D03*
X13950D03*
G54D21*X11132Y13135D02*X11782D01*
X11132Y13635D02*X11782D01*
G54D35*X14850Y13648D03*
X13950D03*
G54D20*X13847Y12437D02*X14027D01*
X13847Y12917D02*X14027D01*
X14555Y11452D02*X14735D01*
X14555Y11932D02*X14735D01*
G54D21*X19873Y9509D02*X20523D01*
X19873Y10009D02*X20523D01*
X19873Y12509D02*X20523D01*
X19873Y13009D02*X20523D01*
X19873Y10509D02*X20523D01*
X19873Y11009D02*X20523D01*
X19873Y11509D02*X20523D01*
X19873Y12009D02*X20523D01*
X17823Y13009D02*X18473D01*
X17823Y12509D02*X18473D01*
X17823Y12009D02*X18473D01*
X17823Y11509D02*X18473D01*
X17823Y11009D02*X18473D01*
X17823Y10509D02*X18473D01*
G54D20*X15830Y11271D02*Y11091D01*
X15598Y12370D02*Y12210D01*
X16378Y12370D02*Y12210D01*
G54D21*X17823Y10009D02*X18473D01*
X17823Y9509D02*X18473D01*
G54D20*X16378Y13190D02*Y13030D01*
X15988Y13190D02*Y13030D01*
X15598Y13190D02*Y13030D01*
X16063Y15309D02*Y15149D01*
Y14489D02*Y14329D01*
X16843Y15309D02*Y15149D01*
X16453Y14489D02*Y14329D01*
X16843Y14489D02*Y14329D01*
G54D21*X7114Y9844D02*X7764D01*
G54D36*X5624Y9973D02*Y9633D01*
X6264Y9973D02*Y9633D01*
X6028Y10918D02*Y10578D01*
G54D21*X7075Y10970D02*X7725D01*
X7075Y10470D02*X7725D01*
X9125D02*X9775D01*
X9125Y10970D02*X9775D01*
X9125Y11470D02*X9775D01*
X7075Y11970D02*X7725D01*
X7075Y11470D02*X7725D01*
G54D36*X5388Y10918D02*Y10578D01*
G54D20*X4791Y11689D02*X4971D01*
X4791Y12169D02*X4971D01*
X6098Y12255D02*Y12075D01*
G54D21*X7353Y13698D02*X8003D01*
X7353Y14198D02*X8003D01*
X7353Y14698D02*X8003D01*
X7353Y15198D02*X8003D01*
X5303D02*X5953D01*
X5303Y14698D02*X5953D01*
X5303Y14198D02*X5953D01*
X5303Y13698D02*X5953D01*
G54D20*X6578Y12255D02*Y12075D01*
G54D21*X7114Y7718D02*X7764D01*
G54D36*X5349Y8949D02*Y8609D01*
X5989Y8949D02*Y8609D01*
X5309Y7965D02*Y7625D01*
X5949Y7965D02*Y7625D01*
G54D21*X7114Y7218D02*X7764D01*
X7114Y6718D02*X7764D01*
X7114Y6218D02*X7764D01*
G54D36*X5595Y6981D02*Y6641D01*
G54D21*X9164Y6218D02*X9814D01*
X9164Y6718D02*X9814D01*
X9164Y7218D02*X9814D01*
X7114Y9344D02*X7764D01*
X7114Y8844D02*X7764D01*
X7114Y8344D02*X7764D01*
X9164Y7718D02*X9814D01*
X9164Y8344D02*X9814D01*
X9164Y8844D02*X9814D01*
X9164Y9344D02*X9814D01*
X9164Y9844D02*X9814D01*
G54D16*X11315Y9730D02*X11685D01*
G54D37*X11315Y9533D02*X11685D01*
X11315Y9336D02*X11685D01*
X11315Y9139D02*X11685D01*
X11315Y8943D02*X11685D01*
X11315Y8746D02*X11685D01*
X11315Y8549D02*X11685D01*
X11315Y8352D02*X11685D01*
X11315Y8155D02*X11685D01*
X11315Y7958D02*X11685D01*
X11315Y7761D02*X11685D01*
X11315Y7565D02*X11685D01*
X11315Y7368D02*X11685D01*
X11315Y7171D02*X11685D01*
X11315Y6974D02*X11685D01*
X11315Y6777D02*X11685D01*
G54D21*X3416Y5927D02*X4066D01*
X3416Y6427D02*X4066D01*
X3416Y6927D02*X4066D01*
X3416Y7427D02*X4066D01*
X3416Y7927D02*X4066D01*
X3416Y8427D02*X4066D01*
X3416Y8927D02*X4066D01*
G54D36*X4955Y6981D02*Y6641D01*
G54D21*X3416Y9427D02*X4066D01*
X1366D02*X2016D01*
X1366Y8927D02*X2016D01*
X1366Y8427D02*X2016D01*
X1366Y7927D02*X2016D01*
X1366Y7427D02*X2016D01*
X1366Y6927D02*X2016D01*
X1366Y6427D02*X2016D01*
X1366Y5927D02*X2016D01*
G54D20*X11681Y2161D02*X11861D01*
X11681Y2641D02*X11861D01*
X11721Y586D02*X11901D01*
X11721Y1066D02*X11901D01*
X16327Y1452D02*X16507D01*
X16327Y1932D02*X16507D01*
G54D38*X14654Y2538D02*X15654D01*
X14654Y2038D02*X15654D01*
G54D15*X14654Y1538D02*X15654D01*
G54D21*X15775Y4553D02*X16425D01*
X15775Y4053D02*X16425D01*
G54D20*X17114Y7476D02*X17294D01*
X17114Y7956D02*X17294D01*
G54D21*X15775Y5553D02*X16425D01*
X15775Y5053D02*X16425D01*
X17825Y4053D02*X18475D01*
X17825Y4553D02*X18475D01*
X17825Y5053D02*X18475D01*
X17825Y5553D02*X18475D01*
G54D26*X22204Y4872D02*Y4812D01*
X21424Y4872D02*Y4812D01*
X21814Y4052D02*Y3992D01*
G54D38*X14154Y3538D02*Y2538D01*
Y1538D02*Y538D01*
X12654Y2038D02*X13654D01*
X12654Y1538D02*X13654D01*
X12654Y2538D02*X13654D01*
G54D37*X15795Y6777D02*X16165D01*
X15795Y6974D02*X16165D01*
X15795Y7171D02*X16165D01*
X13446Y6200D02*Y5830D01*
X13643Y6200D02*Y5830D01*
X13840Y6200D02*Y5830D01*
X14037Y6200D02*Y5830D01*
X14234Y6200D02*Y5830D01*
X14431Y6200D02*Y5830D01*
X14627Y6200D02*Y5830D01*
X14824Y6200D02*Y5830D01*
X15021Y6200D02*Y5830D01*
X15218Y6200D02*Y5830D01*
X12265Y6200D02*Y5830D01*
X12462Y6200D02*Y5830D01*
X12659Y6200D02*Y5830D01*
X12856Y6200D02*Y5830D01*
X13053Y6200D02*Y5830D01*
X13249Y6200D02*Y5830D01*
X15795Y8155D02*X16165D01*
X15795Y8352D02*X16165D01*
X15795Y7368D02*X16165D01*
X15795Y7565D02*X16165D01*
X15795Y7761D02*X16165D01*
X15795Y7958D02*X16165D01*
X15795Y8549D02*X16165D01*
X15795Y8746D02*X16165D01*
X15795Y8943D02*X16165D01*
X15795Y9139D02*X16165D01*
X15795Y9336D02*X16165D01*
X15795Y9533D02*X16165D01*
X15795Y9730D02*X16165D01*
X15218Y10680D02*Y10310D01*
X15021Y10680D02*Y10310D01*
X14824Y10680D02*Y10310D01*
X14627Y10680D02*Y10310D01*
X14431Y10680D02*Y10310D01*
G54D20*X15350Y11271D02*Y11091D01*
G54D37*X14234Y10680D02*Y10310D01*
X14037Y10680D02*Y10310D01*
X13840Y10680D02*Y10310D01*
X13643Y10680D02*Y10310D01*
X13446Y10680D02*Y10310D01*
X13249Y10680D02*Y10310D01*
X13053Y10680D02*Y10310D01*
X12856Y10680D02*Y10310D01*
X12659Y10680D02*Y10310D01*
X12462Y10680D02*Y10310D01*
X12265Y10680D02*Y10310D01*
G54D20*X5382Y783D02*X5562D01*
X5382Y1263D02*X5562D01*
X4405Y1231D02*Y1051D01*
X4885Y1231D02*Y1051D01*
X4405Y1861D02*Y1681D01*
X4885Y1861D02*Y1681D01*
X6736Y1310D02*Y1130D01*
X6256Y1310D02*Y1130D01*
X7784Y1342D02*X7964D01*
X7784Y862D02*X7964D01*
X7315Y5427D02*Y5267D01*
Y4607D02*Y4447D01*
X6535Y5427D02*Y5267D01*
Y4607D02*Y4447D01*
X6925Y4607D02*Y4447D01*
G54D39*X5701Y3378D02*X5921D01*
X5701Y3118D02*X5921D01*
X5701Y2868D02*X5921D01*
X5701Y2608D02*X5921D01*
G54D33*X7371Y2598D02*X7591D01*
G54D39*X7371Y2858D02*X7591D01*
X7371Y3108D02*X7591D01*
X7371Y3368D02*X7591D01*
G54D20*X5232Y4696D02*Y4516D01*
X5712Y4696D02*Y4516D01*
G54D36*X5674Y5799D02*Y5459D01*
X5034Y5799D02*Y5459D01*
G54D14*G54D15*G54D27*G54D28*G54D27*G54D29*G54D30*G54D14*G54D30*G54D14*G54D30*G54D14*G54D30*G54D14*G54D31*G54D14*G54D30*G54D31*G54D14*G54D30*G54D14*G54D31*G54D14*G54D29*G54D14*G54D30*G54D14*G54D30*G54D31*G54D14*G54D30*G54D31*G54D30*G54D29*G54D30*G54D14*G54D30*G54D14*G54D29*G54D14*G54D31*G54D14*G54D31*G54D14*G54D30*G54D14*G54D31*G54D14*M02*
