G04 start of page 9 for group -4014 idx -4014
G04 Title: stribog.main_board, bottompaste *
G04 Creator: pcb 20070208 *
G04 CreationDate: Sun Apr  6 09:45:45 2008 UTC *
G04 For: dti *
G04 Format: Gerber/RS-274X *
G04 PCB-Dimensions: 236220 157480 *
G04 PCB-Coordinate-Origin: lower left *
%MOIN*%
%FSLAX24Y24*%
%LNBACKPASTE*%
%ADD18R,0.0400X0.0400*%
%ADD20R,0.0240X0.0240*%
%ADD21R,0.0200X0.0200*%
%ADD22R,0.0879X0.0879*%
%ADD23R,0.0800X0.0800*%
%ADD24R,0.0640X0.0640*%
%ADD25R,0.0512X0.0512*%
%ADD26R,0.0340X0.0340*%
G54D20*X4949Y14248D02*X5129D01*
X4949Y14728D02*X5129D01*
G54D24*X13983Y8332D02*Y7572D01*
X13023Y8332D02*Y7572D01*
G54D20*X13232Y11153D02*Y10973D01*
X12752Y11153D02*Y10973D01*
G54D25*X6929Y1417D02*Y1181D01*
X5748Y1417D02*Y1181D01*
G54D20*X2823Y10941D02*X3003D01*
X2823Y11421D02*X3003D01*
X11578Y13554D02*Y13374D01*
X11098Y13554D02*Y13374D01*
X6925Y6822D02*Y6642D01*
X7405Y6822D02*Y6642D01*
X5399Y4220D02*X5559D01*
X5399Y5000D02*X5559D01*
X6219D02*X6379D01*
X6219Y4610D02*X6379D01*
X6219Y4220D02*X6379D01*
X7949Y12334D02*Y12154D01*
X8429Y12334D02*Y12154D01*
X7082Y11625D02*Y11445D01*
X7562Y11625D02*Y11445D01*
X8382Y7845D02*Y7665D01*
X8862Y7845D02*Y7665D01*
X7161Y8751D02*Y8571D01*
X7641Y8751D02*Y8571D01*
X6925Y7452D02*Y7272D01*
X7405Y7452D02*Y7272D01*
G54D21*X14479Y3505D02*X15129D01*
X14479Y3005D02*X15129D01*
X14479Y2505D02*X15129D01*
X14479Y2005D02*X15129D01*
X12429D02*X13079D01*
X12429Y2505D02*X13079D01*
X12429Y3005D02*X13079D01*
X12429Y3505D02*X13079D01*
G54D20*X21484Y10200D02*X21664D01*
X21484Y9720D02*X21664D01*
X13295Y13933D02*X13475D01*
X13295Y14413D02*X13475D01*
X6256Y14302D02*Y14122D01*
X6736Y14302D02*Y14122D01*
X11657Y9341D02*Y9161D01*
X11177Y9341D02*Y9161D01*
X7200Y6231D02*Y6051D01*
X7680Y6231D02*Y6051D01*
X8586Y9105D02*Y8925D01*
X8106Y9105D02*Y8925D01*
X11578Y12452D02*Y12272D01*
X11098Y12452D02*Y12272D01*
X9563Y14381D02*Y14201D01*
X10043Y14381D02*Y14201D01*
X13153Y9853D02*Y9673D01*
X12673Y9853D02*Y9673D01*
G54D23*X21435Y3308D02*X21635D01*
X21435Y5708D02*X21635D01*
G54D18*X11524Y7096D02*X11624D01*
X11524Y8396D02*X11624D01*
G54D20*X17265Y4464D02*Y4304D01*
X18045Y4464D02*Y4304D01*
Y3644D02*Y3484D01*
X17655Y3644D02*Y3484D01*
X17265Y3644D02*Y3484D01*
X17508Y12995D02*X17688D01*
X17508Y12515D02*X17688D01*
X18768Y10043D02*X18948D01*
X18768Y9563D02*X18948D01*
G54D21*X5739Y12523D02*X6389D01*
X5739Y12023D02*X6389D01*
X5739Y11523D02*X6389D01*
X5739Y11023D02*X6389D01*
X5739Y10523D02*X6389D01*
X5739Y10023D02*X6389D01*
X5739Y9523D02*X6389D01*
X3689D02*X4339D01*
X3689Y10023D02*X4339D01*
X3689Y10523D02*X4339D01*
X3689Y11023D02*X4339D01*
X3689Y11523D02*X4339D01*
X3689Y12023D02*X4339D01*
X3689Y12523D02*X4339D01*
G54D20*X20146Y12437D02*X20326D01*
X20146Y12917D02*X20326D01*
X11460Y14381D02*Y14201D01*
X10980Y14381D02*Y14201D01*
G54D18*X16072Y14931D02*Y14831D01*
X17372Y14931D02*Y14831D01*
X5343Y6958D02*X5443D01*
X5343Y5658D02*X5443D01*
X16249Y13257D02*X16349D01*
X16249Y11957D02*X16349D01*
G54D20*X15508Y7255D02*Y7075D01*
X15988Y7255D02*Y7075D01*
X8625Y6940D02*Y6760D01*
X8145Y6940D02*Y6760D01*
X8768Y12949D02*X8948D01*
X8768Y13429D02*X8948D01*
X6925Y9460D02*Y9280D01*
X7405Y9460D02*Y9280D01*
X5948Y3475D02*Y3295D01*
X5468Y3475D02*Y3295D01*
G54D26*X8189Y2549D02*Y2489D01*
X7409Y2549D02*Y2489D01*
X7799Y3369D02*Y3309D01*
G54D20*X17759Y5404D02*Y5224D01*
X17279Y5404D02*Y5224D01*
G54D18*X14360Y1231D02*Y1131D01*
X13060Y1231D02*Y1131D01*
G54D20*X20185Y10121D02*X20365D01*
X20185Y9641D02*X20365D01*
X9602Y12334D02*Y12154D01*
X10082Y12334D02*Y12154D01*
X17311Y10358D02*X17491D01*
X17311Y9878D02*X17491D01*
X11563Y1453D02*X11743D01*
X11563Y1933D02*X11743D01*
X7995Y14814D02*Y14634D01*
X7515Y14814D02*Y14634D01*
X7405Y10129D02*Y9949D01*
X6925Y10129D02*Y9949D01*
G54D18*X7509Y4104D02*X7609D01*
X7509Y5404D02*X7609D01*
G54D20*X7043Y10877D02*Y10697D01*
X7523Y10877D02*Y10697D01*
G54D18*X16545Y6191D02*Y6091D01*
X17845Y6191D02*Y6091D01*
G54D20*X17429Y7515D02*X17609D01*
X17429Y7995D02*X17609D01*
X9563Y13554D02*Y13374D01*
X10043Y13554D02*Y13374D01*
X14012Y9381D02*Y9201D01*
X14492Y9381D02*Y9201D01*
X15461Y8940D02*X15641D01*
X15461Y8460D02*X15641D01*
X8743Y11546D02*Y11366D01*
X8263Y11546D02*Y11366D01*
X5271Y8869D02*Y8689D01*
X5751Y8869D02*Y8689D01*
X16051Y3027D02*X16231D01*
X16051Y3507D02*X16231D01*
X21484Y11657D02*X21664D01*
X21484Y11177D02*X21664D01*
X8421Y10023D02*Y9843D01*
X8901Y10023D02*Y9843D01*
X14634Y6027D02*X14814D01*
X14634Y5547D02*X14814D01*
X7247Y8121D02*Y7941D01*
X6767Y8121D02*Y7941D01*
G54D22*X16025Y1556D02*Y1356D01*
G54D23*X18425Y1556D02*Y1356D01*
G54D20*X13650Y6106D02*X13830D01*
X13650Y5626D02*X13830D01*
M02*
