G04 start of page 11 for group -3984 idx -3984
G04 Title: stribog.main_board, fab *
G04 Creator: pcb 20070208 *
G04 CreationDate: Sun Apr  6 09:45:45 2008 UTC *
G04 For: dti *
G04 Format: Gerber/RS-274X *
G04 PCB-Dimensions: 236220 157480 *
G04 PCB-Coordinate-Origin: lower left *
%MOIN*%
%FSLAX24Y24*%
%LNFAB*%
%ADD13C,0.0100*%
%ADD56C,0.0060*%
%ADD63R,0.0080X0.0080*%
G54D63*X22637Y984D02*Y664D01*
Y984D02*X22915Y1144D01*
X22637Y984D02*X22360Y1144D01*
X22477Y984D02*G75*G03X22797Y984I160J0D01*G01*
G75*G03X22477Y984I-160J0D01*G01*
X984D02*Y664D01*
Y984D02*X1261Y1144D01*
X984Y984D02*X707Y1144D01*
X824Y984D02*G75*G03X1144Y984I160J0D01*G01*
G75*G03X824Y984I-160J0D01*G01*
X984Y14763D02*Y14443D01*
Y14763D02*X1261Y14923D01*
X984Y14763D02*X707Y14923D01*
X824Y14763D02*G75*G03X1144Y14763I160J0D01*G01*
G75*G03X824Y14763I-160J0D01*G01*
X22637D02*Y14443D01*
Y14763D02*X22915Y14923D01*
X22637Y14763D02*X22360Y14923D01*
X22477Y14763D02*G75*G03X22797Y14763I160J0D01*G01*
G75*G03X22477Y14763I-160J0D01*G01*
X1500Y16873D02*Y16553D01*
Y16873D02*X1777Y17033D01*
X1500Y16873D02*X1222Y17033D01*
X1340Y16873D02*G75*G03X1660Y16873I160J0D01*G01*
G75*G03X1340Y16873I-160J0D01*G01*
G54D56*X13500Y17098D02*Y17023D01*
X13650Y16873D01*
X13800Y17023D01*
Y17098D02*Y17023D01*
X13650Y16873D02*Y16498D01*
X13980Y16798D02*X14205D01*
X13980Y16498D02*X14280D01*
X13980Y17098D02*Y16498D01*
Y17098D02*X14280D01*
X14760D02*X14835Y17023D01*
X14535Y17098D02*X14760D01*
X14460Y17023D02*X14535Y17098D01*
X14460Y17023D02*Y16873D01*
X14535Y16798D01*
X14760D01*
X14835Y16723D01*
Y16573D01*
X14760Y16498D02*X14835Y16573D01*
X14535Y16498D02*X14760D01*
X14460Y16573D02*X14535Y16498D01*
X13500Y16172D02*X15015D01*
X9800Y16798D02*X10100Y17098D01*
X9800Y16798D02*X10175D01*
X10100Y17098D02*Y16498D01*
X9800Y16172D02*X10355D01*
X4500Y16573D02*X4575Y16498D01*
X4500Y17023D02*Y16573D01*
Y17023D02*X4575Y17098D01*
X4725D01*
X4800Y17023D01*
Y16573D01*
X4725Y16498D02*X4800Y16573D01*
X4575Y16498D02*X4725D01*
X4500Y16648D02*X4800Y16948D01*
X4980Y16498D02*X5055D01*
X5310D02*X5460D01*
X5385Y17098D02*Y16498D01*
X5235Y16948D02*X5385Y17098D01*
X5640Y17023D02*X5715Y17098D01*
X5940D01*
X6015Y17023D01*
Y16873D01*
X5640Y16498D02*X6015Y16873D01*
X5640Y16498D02*X6015D01*
X6420Y17098D02*X6495Y17023D01*
X6270Y17098D02*X6420D01*
X6195Y17023D02*X6270Y17098D01*
X6195Y17023D02*Y16573D01*
X6270Y16498D01*
X6420Y16798D02*X6495Y16723D01*
X6195Y16798D02*X6420D01*
X6270Y16498D02*X6420D01*
X6495Y16573D01*
Y16723D02*Y16573D01*
X4500Y16172D02*X6675D01*
X20155Y6380D02*X20475D01*
X20155D02*Y6060D01*
X20475D01*
Y6380D02*Y6060D01*
X19170Y6380D02*X19490D01*
X19170D02*Y6060D01*
X19490D01*
Y6380D02*Y6060D01*
X10233Y1419D02*X10553D01*
X10233D02*Y1099D01*
X10553D01*
Y1419D02*Y1099D01*
X9233Y1419D02*X9553D01*
X9233D02*Y1099D01*
X9553D01*
Y1419D02*Y1099D01*
X10233Y2419D02*X10553D01*
X10233D02*Y2099D01*
X10553D01*
Y2419D02*Y2099D01*
X9233Y2419D02*X9553D01*
X9233D02*Y2099D01*
X9553D01*
Y2419D02*Y2099D01*
X10233Y3419D02*X10553D01*
X10233D02*Y3099D01*
X10553D01*
Y3419D02*Y3099D01*
X9233Y3419D02*X9553D01*
X9233D02*Y3099D01*
X9553D01*
Y3419D02*Y3099D01*
X10233Y4419D02*X10553D01*
X10233D02*Y4099D01*
X10553D01*
Y4419D02*Y4099D01*
X9233Y4419D02*X9553D01*
X9233D02*Y4099D01*
X9553D01*
Y4419D02*Y4099D01*
X10233Y5419D02*X10553D01*
X10233D02*Y5099D01*
X10553D01*
Y5419D02*Y5099D01*
X9233Y5419D02*X9553D01*
X9233D02*Y5099D01*
X9553D01*
Y5419D02*Y5099D01*
X20233Y1419D02*X20553D01*
X20233D02*Y1099D01*
X20553D01*
Y1419D02*Y1099D01*
X19233Y1419D02*X19553D01*
X19233D02*Y1099D01*
X19553D01*
Y1419D02*Y1099D01*
X20233Y2419D02*X20553D01*
X20233D02*Y2099D01*
X20553D01*
Y2419D02*Y2099D01*
X19233Y2419D02*X19553D01*
X19233D02*Y2099D01*
X19553D01*
Y2419D02*Y2099D01*
X20233Y3419D02*X20553D01*
X20233D02*Y3099D01*
X20553D01*
Y3419D02*Y3099D01*
X19233Y3419D02*X19553D01*
X19233D02*Y3099D01*
X19553D01*
Y3419D02*Y3099D01*
X20233Y4419D02*X20553D01*
X20233D02*Y4099D01*
X20553D01*
Y4419D02*Y4099D01*
X19233Y4419D02*X19553D01*
X19233D02*Y4099D01*
X19553D01*
Y4419D02*Y4099D01*
X20233Y5419D02*X20553D01*
X20233D02*Y5099D01*
X20553D01*
Y5419D02*Y5099D01*
X19233Y5419D02*X19553D01*
X19233D02*Y5099D01*
X19553D01*
Y5419D02*Y5099D01*
X7989Y13270D02*X8309D01*
X7989D02*Y12950D01*
X8309D01*
Y13270D02*Y12950D01*
X4989Y13270D02*X5309D01*
X4989D02*Y12950D01*
X5309D01*
Y13270D02*Y12950D01*
X2084Y15120D02*X2404D01*
X2084D02*Y14800D01*
X2404D01*
Y15120D02*Y14800D01*
X2084Y12120D02*X2404D01*
X2084D02*Y11800D01*
X2404D01*
Y12120D02*Y11800D01*
X2989Y12128D02*X3309D01*
X2989D02*Y11808D01*
X3309D01*
Y12128D02*Y11808D01*
X2989Y15128D02*X3309D01*
X2989D02*Y14808D01*
X3309D01*
Y15128D02*Y14808D01*
X22202Y8309D02*X22522D01*
X22202D02*Y7989D01*
X22522D01*
Y8309D02*Y7989D01*
X22202Y7309D02*X22522D01*
X22202D02*Y6989D01*
X22522D01*
Y7309D02*Y6989D01*
X21202Y8309D02*X21522D01*
X21202D02*Y7989D01*
X21522D01*
Y8309D02*Y7989D01*
X21202Y7309D02*X21522D01*
X21202D02*Y6989D01*
X21522D01*
Y7309D02*Y6989D01*
X20202Y8309D02*X20522D01*
X20202D02*Y7989D01*
X20522D01*
Y8309D02*Y7989D01*
X20202Y7309D02*X20522D01*
X20202D02*Y6989D01*
X20522D01*
Y7309D02*Y6989D01*
X19202Y8309D02*X19522D01*
X19202D02*Y7989D01*
X19522D01*
Y8309D02*Y7989D01*
X19202Y7309D02*X19522D01*
X19202D02*Y6989D01*
X19522D01*
Y7309D02*Y6989D01*
X18202Y8309D02*X18522D01*
X18202D02*Y7989D01*
X18522D01*
Y8309D02*Y7989D01*
X18202Y7309D02*X18522D01*
X18202D02*Y6989D01*
X18522D01*
Y7309D02*Y6989D01*
X1340Y18533D02*X1660D01*
X1340D02*Y18213D01*
X1660D01*
Y18533D02*Y18213D01*
X13500Y18598D02*Y18523D01*
X13650Y18373D01*
X13800Y18523D01*
Y18598D02*Y18523D01*
X13650Y18373D02*Y17998D01*
X13980Y18298D02*X14205D01*
X13980Y17998D02*X14280D01*
X13980Y18598D02*Y17998D01*
Y18598D02*X14280D01*
X14760D02*X14835Y18523D01*
X14535Y18598D02*X14760D01*
X14460Y18523D02*X14535Y18598D01*
X14460Y18523D02*Y18373D01*
X14535Y18298D01*
X14760D01*
X14835Y18223D01*
Y18073D01*
X14760Y17998D02*X14835Y18073D01*
X14535Y17998D02*X14760D01*
X14460Y18073D02*X14535Y17998D01*
X13500Y17672D02*X15015D01*
X9800Y18523D02*X9875Y18598D01*
X10025D01*
X10100Y18523D01*
Y18073D01*
X10025Y17998D02*X10100Y18073D01*
X9875Y17998D02*X10025D01*
X9800Y18073D02*X9875Y17998D01*
Y18298D02*X10100D01*
X10280Y18073D02*X10355Y17998D01*
X10280Y18223D02*Y18073D01*
Y18223D02*X10355Y18298D01*
X10505D01*
X10580Y18223D01*
Y18073D01*
X10505Y17998D02*X10580Y18073D01*
X10355Y17998D02*X10505D01*
X10280Y18373D02*X10355Y18298D01*
X10280Y18523D02*Y18373D01*
Y18523D02*X10355Y18598D01*
X10505D01*
X10580Y18523D01*
Y18373D01*
X10505Y18298D02*X10580Y18373D01*
X9800Y17672D02*X10760D01*
X4500Y18073D02*X4575Y17998D01*
X4500Y18523D02*Y18073D01*
Y18523D02*X4575Y18598D01*
X4725D01*
X4800Y18523D01*
Y18073D01*
X4725Y17998D02*X4800Y18073D01*
X4575Y17998D02*X4725D01*
X4500Y18148D02*X4800Y18448D01*
X4980Y17998D02*X5055D01*
X5235Y18073D02*X5310Y17998D01*
X5235Y18523D02*Y18073D01*
Y18523D02*X5310Y18598D01*
X5460D01*
X5535Y18523D01*
Y18073D01*
X5460Y17998D02*X5535Y18073D01*
X5310Y17998D02*X5460D01*
X5235Y18148D02*X5535Y18448D01*
X5715Y18523D02*X5790Y18598D01*
X5940D01*
X6015Y18523D01*
Y18073D01*
X5940Y17998D02*X6015Y18073D01*
X5790Y17998D02*X5940D01*
X5715Y18073D02*X5790Y17998D01*
Y18298D02*X6015D01*
X6195Y18073D02*X6270Y17998D01*
X6195Y18223D02*Y18073D01*
Y18223D02*X6270Y18298D01*
X6420D01*
X6495Y18223D01*
Y18073D01*
X6420Y17998D02*X6495Y18073D01*
X6270Y17998D02*X6420D01*
X6195Y18373D02*X6270Y18298D01*
X6195Y18523D02*Y18373D01*
Y18523D02*X6270Y18598D01*
X6420D01*
X6495Y18523D01*
Y18373D01*
X6420Y18298D02*X6495Y18373D01*
X4500Y17672D02*X6675D01*
X10943Y1811D02*G75*G03X11103Y1811I80J0D01*G01*
G75*G03X10943Y1811I-80J0D01*G01*
X7636Y2007D02*G75*G03X7796Y2007I80J0D01*G01*
G75*G03X7636Y2007I-80J0D01*G01*
X17321Y13622D02*G75*G03X17481Y13622I80J0D01*G01*
G75*G03X17321Y13622I-80J0D01*G01*
X16809Y12637D02*G75*G03X16969Y12637I80J0D01*G01*
G75*G03X16809Y12637I-80J0D01*G01*
X15943Y10314D02*G75*G03X16103Y10314I80J0D01*G01*
G75*G03X15943Y10314I-80J0D01*G01*
X8581Y5905D02*G75*G03X8741Y5905I80J0D01*G01*
G75*G03X8581Y5905I-80J0D01*G01*
X16888Y5078D02*G75*G03X17048Y5078I80J0D01*G01*
G75*G03X16888Y5078I-80J0D01*G01*
X4880Y4606D02*G75*G03X5040Y4606I80J0D01*G01*
G75*G03X4880Y4606I-80J0D01*G01*
X16140Y2480D02*G75*G03X16300Y2480I80J0D01*G01*
G75*G03X16140Y2480I-80J0D01*G01*
X12990Y13149D02*G75*G03X13150Y13149I80J0D01*G01*
G75*G03X12990Y13149I-80J0D01*G01*
X4762Y14842D02*G75*G03X4922Y14842I80J0D01*G01*
G75*G03X4762Y14842I-80J0D01*G01*
X13384Y14527D02*G75*G03X13544Y14527I80J0D01*G01*
G75*G03X13384Y14527I-80J0D01*G01*
X8502Y1220D02*G75*G03X8662Y1220I80J0D01*G01*
G75*G03X8502Y1220I-80J0D01*G01*
X15353Y15196D02*G75*G03X15513Y15196I80J0D01*G01*
G75*G03X15353Y15196I-80J0D01*G01*
X4290Y14291D02*G75*G03X4450Y14291I80J0D01*G01*
G75*G03X4290Y14291I-80J0D01*G01*
X1534Y7204D02*G75*G03X1694Y7204I80J0D01*G01*
G75*G03X1534Y7204I-80J0D01*G01*
X21258Y4173D02*G75*G03X21418Y4173I80J0D01*G01*
G75*G03X21258Y4173I-80J0D01*G01*
X21573Y3307D02*G75*G03X21733Y3307I80J0D01*G01*
G75*G03X21573Y3307I-80J0D01*G01*
X6691Y13267D02*G75*G03X6851Y13267I80J0D01*G01*
G75*G03X6691Y13267I-80J0D01*G01*
X3975Y4409D02*G75*G03X4135Y4409I80J0D01*G01*
G75*G03X3975Y4409I-80J0D01*G01*
X17046Y1811D02*G75*G03X17206Y1811I80J0D01*G01*
G75*G03X17046Y1811I-80J0D01*G01*
X18542Y2598D02*G75*G03X18702Y2598I80J0D01*G01*
G75*G03X18542Y2598I-80J0D01*G01*
X4801Y10000D02*G75*G03X4961Y10000I80J0D01*G01*
G75*G03X4801Y10000I-80J0D01*G01*
X4014Y8976D02*G75*G03X4174Y8976I80J0D01*G01*
G75*G03X4014Y8976I-80J0D01*G01*
X2754Y6574D02*G75*G03X2914Y6574I80J0D01*G01*
G75*G03X2754Y6574I-80J0D01*G01*
X15585Y3614D02*G75*G03X15745Y3614I80J0D01*G01*
G75*G03X15585Y3614I-80J0D01*G01*
X1420Y19873D02*G75*G03X1580Y19873I80J0D01*G01*
G75*G03X1420Y19873I-80J0D01*G01*
X13500Y20098D02*Y20023D01*
X13650Y19873D01*
X13800Y20023D01*
Y20098D02*Y20023D01*
X13650Y19873D02*Y19498D01*
X13980Y19798D02*X14205D01*
X13980Y19498D02*X14280D01*
X13980Y20098D02*Y19498D01*
Y20098D02*X14280D01*
X14760D02*X14835Y20023D01*
X14535Y20098D02*X14760D01*
X14460Y20023D02*X14535Y20098D01*
X14460Y20023D02*Y19873D01*
X14535Y19798D01*
X14760D01*
X14835Y19723D01*
Y19573D01*
X14760Y19498D02*X14835Y19573D01*
X14535Y19498D02*X14760D01*
X14460Y19573D02*X14535Y19498D01*
X13500Y19172D02*X15015D01*
X9800Y20023D02*X9875Y20098D01*
X10100D01*
X10175Y20023D01*
Y19873D01*
X9800Y19498D02*X10175Y19873D01*
X9800Y19498D02*X10175D01*
X10580Y20098D02*X10655Y20023D01*
X10430Y20098D02*X10580D01*
X10355Y20023D02*X10430Y20098D01*
X10355Y20023D02*Y19573D01*
X10430Y19498D01*
X10580Y19798D02*X10655Y19723D01*
X10355Y19798D02*X10580D01*
X10430Y19498D02*X10580D01*
X10655Y19573D01*
Y19723D02*Y19573D01*
X9800Y19172D02*X10835D01*
X4500Y19573D02*X4575Y19498D01*
X4500Y20023D02*Y19573D01*
Y20023D02*X4575Y20098D01*
X4725D01*
X4800Y20023D01*
Y19573D01*
X4725Y19498D02*X4800Y19573D01*
X4575Y19498D02*X4725D01*
X4500Y19648D02*X4800Y19948D01*
X4980Y19498D02*X5055D01*
X5235Y19573D02*X5310Y19498D01*
X5235Y20023D02*Y19573D01*
Y20023D02*X5310Y20098D01*
X5460D01*
X5535Y20023D01*
Y19573D01*
X5460Y19498D02*X5535Y19573D01*
X5310Y19498D02*X5460D01*
X5235Y19648D02*X5535Y19948D01*
X5715Y20023D02*X5790Y20098D01*
X5940D01*
X6015Y20023D01*
Y19573D01*
X5940Y19498D02*X6015Y19573D01*
X5790Y19498D02*X5940D01*
X5715Y19573D02*X5790Y19498D01*
Y19798D02*X6015D01*
X6195Y20098D02*X6495D01*
X6195D02*Y19798D01*
X6270Y19873D01*
X6420D01*
X6495Y19798D01*
Y19573D01*
X6420Y19498D02*X6495Y19573D01*
X6270Y19498D02*X6420D01*
X6195Y19573D02*X6270Y19498D01*
X4500Y19172D02*X6675D01*
X12557Y12009D02*X12797Y11769D01*
X12557D02*X12797Y12009D01*
X12557Y14009D02*X12797Y13769D01*
X12557D02*X12797Y14009D01*
X1380Y21493D02*X1620Y21253D01*
X1380D02*X1620Y21493D01*
X13500Y21598D02*Y21523D01*
X13650Y21373D01*
X13800Y21523D01*
Y21598D02*Y21523D01*
X13650Y21373D02*Y20998D01*
X13980Y21298D02*X14205D01*
X13980Y20998D02*X14280D01*
X13980Y21598D02*Y20998D01*
Y21598D02*X14280D01*
X14760D02*X14835Y21523D01*
X14535Y21598D02*X14760D01*
X14460Y21523D02*X14535Y21598D01*
X14460Y21523D02*Y21373D01*
X14535Y21298D01*
X14760D01*
X14835Y21223D01*
Y21073D01*
X14760Y20998D02*X14835Y21073D01*
X14535Y20998D02*X14760D01*
X14460Y21073D02*X14535Y20998D01*
X13500Y20672D02*X15015D01*
X9800Y21523D02*X9875Y21598D01*
X10100D01*
X10175Y21523D01*
Y21373D01*
X9800Y20998D02*X10175Y21373D01*
X9800Y20998D02*X10175D01*
X9800Y20672D02*X10355D01*
X4500Y21073D02*X4575Y20998D01*
X4500Y21523D02*Y21073D01*
Y21523D02*X4575Y21598D01*
X4725D01*
X4800Y21523D01*
Y21073D01*
X4725Y20998D02*X4800Y21073D01*
X4575Y20998D02*X4725D01*
X4500Y21148D02*X4800Y21448D01*
X4980Y20998D02*X5055D01*
X5235Y21073D02*X5310Y20998D01*
X5235Y21523D02*Y21073D01*
Y21523D02*X5310Y21598D01*
X5460D01*
X5535Y21523D01*
Y21073D01*
X5460Y20998D02*X5535Y21073D01*
X5310Y20998D02*X5460D01*
X5235Y21148D02*X5535Y21448D01*
X5715Y21523D02*X5790Y21598D01*
X6015D01*
X6090Y21523D01*
Y21373D01*
X5715Y20998D02*X6090Y21373D01*
X5715Y20998D02*X6090D01*
X6270Y21598D02*X6570D01*
X6270D02*Y21298D01*
X6345Y21373D01*
X6495D01*
X6570Y21298D01*
Y21073D01*
X6495Y20998D02*X6570Y21073D01*
X6345Y20998D02*X6495D01*
X6270Y21073D02*X6345Y20998D01*
X4500Y20672D02*X6750D01*
X2322Y5313D02*Y4993D01*
X2162Y5153D02*X2482D01*
X2322Y4813D02*Y4493D01*
X2162Y4653D02*X2482D01*
X2322Y4313D02*Y3993D01*
X2162Y4153D02*X2482D01*
X2322Y3813D02*Y3493D01*
X2162Y3653D02*X2482D01*
X2322Y3313D02*Y2993D01*
X2162Y3153D02*X2482D01*
X2322Y2813D02*Y2493D01*
X2162Y2653D02*X2482D01*
X2322Y2313D02*Y1993D01*
X2162Y2153D02*X2482D01*
X2322Y1813D02*Y1493D01*
X2162Y1653D02*X2482D01*
X1500Y23033D02*Y22713D01*
X1340Y22873D02*X1660D01*
X13500Y23098D02*Y23023D01*
X13650Y22873D01*
X13800Y23023D01*
Y23098D02*Y23023D01*
X13650Y22873D02*Y22498D01*
X13980Y22798D02*X14205D01*
X13980Y22498D02*X14280D01*
X13980Y23098D02*Y22498D01*
Y23098D02*X14280D01*
X14760D02*X14835Y23023D01*
X14535Y23098D02*X14760D01*
X14460Y23023D02*X14535Y23098D01*
X14460Y23023D02*Y22873D01*
X14535Y22798D01*
X14760D01*
X14835Y22723D01*
Y22573D01*
X14760Y22498D02*X14835Y22573D01*
X14535Y22498D02*X14760D01*
X14460Y22573D02*X14535Y22498D01*
X13500Y22172D02*X15015D01*
X9800Y22573D02*X9875Y22498D01*
X9800Y22723D02*Y22573D01*
Y22723D02*X9875Y22798D01*
X10025D01*
X10100Y22723D01*
Y22573D01*
X10025Y22498D02*X10100Y22573D01*
X9875Y22498D02*X10025D01*
X9800Y22873D02*X9875Y22798D01*
X9800Y23023D02*Y22873D01*
Y23023D02*X9875Y23098D01*
X10025D01*
X10100Y23023D01*
Y22873D01*
X10025Y22798D02*X10100Y22873D01*
X9800Y22172D02*X10280D01*
X4500Y22573D02*X4575Y22498D01*
X4500Y23023D02*Y22573D01*
Y23023D02*X4575Y23098D01*
X4725D01*
X4800Y23023D01*
Y22573D01*
X4725Y22498D02*X4800Y22573D01*
X4575Y22498D02*X4725D01*
X4500Y22648D02*X4800Y22948D01*
X4980Y22498D02*X5055D01*
X5235Y22573D02*X5310Y22498D01*
X5235Y23023D02*Y22573D01*
Y23023D02*X5310Y23098D01*
X5460D01*
X5535Y23023D01*
Y22573D01*
X5460Y22498D02*X5535Y22573D01*
X5310Y22498D02*X5460D01*
X5235Y22648D02*X5535Y22948D01*
X5715Y23023D02*X5790Y23098D01*
X6015D01*
X6090Y23023D01*
Y22873D01*
X5715Y22498D02*X6090Y22873D01*
X5715Y22498D02*X6090D01*
X6345D02*X6495D01*
X6420Y23098D02*Y22498D01*
X6270Y22948D02*X6420Y23098D01*
X4500Y22172D02*X6675D01*
X13976Y9803D02*Y9643D01*
Y9803D02*X14114Y9883D01*
X13976Y9803D02*X13837Y9883D01*
X12007Y4763D02*Y4603D01*
Y4763D02*X12146Y4843D01*
X12007Y4763D02*X11869Y4843D01*
X20433Y9527D02*Y9367D01*
Y9527D02*X20571Y9607D01*
X20433Y9527D02*X20294Y9607D01*
X17913Y12992D02*Y12832D01*
Y12992D02*X18052Y13072D01*
X17913Y12992D02*X17774Y13072D01*
X20747Y10984D02*Y10824D01*
Y10984D02*X20886Y11064D01*
X20747Y10984D02*X20609Y11064D01*
X20826Y11614D02*Y11454D01*
Y11614D02*X20965Y11694D01*
X20826Y11614D02*X20688Y11694D01*
X20157Y12047D02*Y11887D01*
Y12047D02*X20296Y12127D01*
X20157Y12047D02*X20018Y12127D01*
X20905Y10039D02*Y9879D01*
Y10039D02*X21044Y10119D01*
X20905Y10039D02*X20766Y10119D01*
X18307Y9409D02*Y9249D01*
Y9409D02*X18445Y9489D01*
X18307Y9409D02*X18168Y9489D01*
X8425Y14448D02*Y14288D01*
Y14448D02*X8563Y14528D01*
X8425Y14448D02*X8286Y14528D01*
X16378Y12244D02*Y12084D01*
Y12244D02*X16516Y12324D01*
X16378Y12244D02*X16239Y12324D01*
X15354Y11141D02*Y10981D01*
Y11141D02*X15492Y11221D01*
X15354Y11141D02*X15215Y11221D01*
X11692Y2874D02*Y2714D01*
Y2874D02*X11831Y2954D01*
X11692Y2874D02*X11554Y2954D01*
X7992Y11968D02*Y11808D01*
Y11968D02*X8130Y12048D01*
X7992Y11968D02*X7853Y12048D01*
X11535Y12086D02*Y11926D01*
Y12086D02*X11674Y12166D01*
X11535Y12086D02*X11396Y12166D01*
X11141Y13149D02*Y12989D01*
Y13149D02*X11280Y13229D01*
X11141Y13149D02*X11003Y13229D01*
X7795Y13622D02*Y13462D01*
Y13622D02*X7933Y13702D01*
X7795Y13622D02*X7656Y13702D01*
X16574Y8346D02*Y8186D01*
Y8346D02*X16713Y8426D01*
X16574Y8346D02*X16436Y8426D01*
X7440Y14724D02*Y14564D01*
Y14724D02*X7579Y14804D01*
X7440Y14724D02*X7302Y14804D01*
X11102Y12519D02*Y12359D01*
Y12519D02*X11241Y12599D01*
X11102Y12519D02*X10963Y12599D01*
X10118Y12834D02*Y12674D01*
Y12834D02*X10256Y12914D01*
X10118Y12834D02*X9979Y12914D01*
X12362Y8149D02*Y7989D01*
Y8149D02*X12500Y8229D01*
X12362Y8149D02*X12223Y8229D01*
X9527Y13149D02*Y12989D01*
Y13149D02*X9666Y13229D01*
X9527Y13149D02*X9389Y13229D01*
X11535Y14803D02*Y14643D01*
Y14803D02*X11674Y14883D01*
X11535Y14803D02*X11396Y14883D01*
X15393Y10433D02*Y10273D01*
Y10433D02*X15532Y10513D01*
X15393Y10433D02*X15255Y10513D01*
X13858Y5476D02*Y5316D01*
Y5476D02*X13996Y5556D01*
X13858Y5476D02*X13719Y5556D01*
X18031Y11496D02*Y11336D01*
Y11496D02*X18170Y11576D01*
X18031Y11496D02*X17892Y11576D01*
X10944Y6063D02*Y5903D01*
Y6063D02*X11083Y6143D01*
X10944Y6063D02*X10806Y6143D01*
X12874Y5433D02*Y5273D01*
Y5433D02*X13012Y5513D01*
X12874Y5433D02*X12735Y5513D01*
X13425Y6574D02*Y6414D01*
Y6574D02*X13563Y6654D01*
X13425Y6574D02*X13286Y6654D01*
X8267Y9925D02*Y9765D01*
Y9925D02*X8406Y10005D01*
X8267Y9925D02*X8129Y10005D01*
X6456Y6259D02*Y6099D01*
Y6259D02*X6595Y6339D01*
X6456Y6259D02*X6318Y6339D01*
X14448Y6614D02*Y6454D01*
Y6614D02*X14587Y6694D01*
X14448Y6614D02*X14310Y6694D01*
X14921Y9645D02*Y9485D01*
Y9645D02*X15059Y9725D01*
X14921Y9645D02*X14782Y9725D01*
X18189Y10000D02*Y9840D01*
Y10000D02*X18327Y10080D01*
X18189Y10000D02*X18050Y10080D01*
X18110Y5866D02*Y5706D01*
Y5866D02*X18248Y5946D01*
X18110Y5866D02*X17971Y5946D01*
X13094Y9602D02*Y9442D01*
Y9602D02*X13233Y9682D01*
X13094Y9602D02*X12955Y9682D01*
X16417Y13976D02*Y13816D01*
Y13976D02*X16555Y14056D01*
X16417Y13976D02*X16278Y14056D01*
X20472Y10433D02*Y10273D01*
Y10433D02*X20610Y10513D01*
X20472Y10433D02*X20333Y10513D01*
X1535Y10118D02*Y9958D01*
Y10118D02*X1674Y10198D01*
X1535Y10118D02*X1396Y10198D01*
X15196Y4685D02*Y4525D01*
Y4685D02*X15335Y4765D01*
X15196Y4685D02*X15058Y4765D01*
X6929Y6732D02*Y6572D01*
Y6732D02*X7067Y6812D01*
X6929Y6732D02*X6790Y6812D01*
X15905Y6063D02*Y5903D01*
Y6063D02*X16044Y6143D01*
X15905Y6063D02*X15766Y6143D01*
X10952Y9566D02*Y9406D01*
Y9566D02*X11091Y9646D01*
X10952Y9566D02*X10814Y9646D01*
X8543Y12047D02*Y11887D01*
Y12047D02*X8682Y12127D01*
X8543Y12047D02*X8404Y12127D01*
X6968Y10275D02*Y10115D01*
Y10275D02*X7107Y10355D01*
X6968Y10275D02*X6829Y10355D01*
X14842Y1102D02*Y942D01*
Y1102D02*X14981Y1182D01*
X14842Y1102D02*X14703Y1182D01*
X12204Y1456D02*Y1296D01*
Y1456D02*X12343Y1536D01*
X12204Y1456D02*X12066Y1536D01*
X13937Y6574D02*Y6414D01*
Y6574D02*X14075Y6654D01*
X13937Y6574D02*X13798Y6654D01*
X12086Y9173D02*Y9013D01*
Y9173D02*X12225Y9253D01*
X12086Y9173D02*X11948Y9253D01*
X13700Y4724D02*Y4564D01*
Y4724D02*X13839Y4804D01*
X13700Y4724D02*X13562Y4804D01*
X12047Y8622D02*Y8462D01*
Y8622D02*X12185Y8702D01*
X12047Y8622D02*X11908Y8702D01*
X6889Y5393D02*Y5233D01*
Y5393D02*X7028Y5473D01*
X6889Y5393D02*X6751Y5473D01*
X12661Y9901D02*Y9741D01*
Y9901D02*X12800Y9981D01*
X12661Y9901D02*X12522Y9981D01*
X8181Y6885D02*Y6725D01*
Y6885D02*X8319Y6965D01*
X8181Y6885D02*X8042Y6965D01*
X17126Y7913D02*Y7753D01*
Y7913D02*X17264Y7993D01*
X17126Y7913D02*X16987Y7993D01*
X16535Y8858D02*Y8698D01*
Y8858D02*X16674Y8938D01*
X16535Y8858D02*X16396Y8938D01*
X13346Y11929D02*Y11769D01*
Y11929D02*X13485Y12009D01*
X13346Y11929D02*X13207Y12009D01*
X10433Y11259D02*Y11099D01*
Y11259D02*X10571Y11339D01*
X10433Y11259D02*X10294Y11339D01*
X14921Y7795D02*Y7635D01*
Y7795D02*X15059Y7875D01*
X14921Y7795D02*X14782Y7875D01*
X14645Y8228D02*Y8068D01*
Y8228D02*X14784Y8308D01*
X14645Y8228D02*X14507Y8308D01*
X15433Y8228D02*Y8068D01*
Y8228D02*X15571Y8308D01*
X15433Y8228D02*X15294Y8308D01*
X14842Y8740D02*Y8580D01*
Y8740D02*X14981Y8820D01*
X14842Y8740D02*X14703Y8820D01*
X15984Y12755D02*Y12595D01*
Y12755D02*X16122Y12835D01*
X15984Y12755D02*X15845Y12835D01*
X10236Y9173D02*Y9013D01*
Y9173D02*X10374Y9253D01*
X10236Y9173D02*X10097Y9253D01*
X16378Y11338D02*Y11178D01*
Y11338D02*X16516Y11418D01*
X16378Y11338D02*X16239Y11418D01*
X17401Y11023D02*Y10863D01*
Y11023D02*X17540Y11103D01*
X17401Y11023D02*X17263Y11103D01*
X13110Y1102D02*Y942D01*
Y1102D02*X13248Y1182D01*
X13110Y1102D02*X12971Y1182D01*
X12047Y7401D02*Y7241D01*
Y7401D02*X12185Y7481D01*
X12047Y7401D02*X11908Y7481D01*
X6929Y4881D02*Y4721D01*
Y4881D02*X7067Y4961D01*
X6929Y4881D02*X6790Y4961D01*
X9094Y14763D02*Y14603D01*
Y14763D02*X9233Y14843D01*
X9094Y14763D02*X8955Y14843D01*
X3188Y3661D02*Y3501D01*
Y3661D02*X3327Y3741D01*
X3188Y3661D02*X3050Y3741D01*
X12086Y14527D02*Y14367D01*
Y14527D02*X12225Y14607D01*
X12086Y14527D02*X11948Y14607D01*
X905Y4370D02*Y4210D01*
Y4370D02*X1044Y4450D01*
X905Y4370D02*X766Y4450D01*
X3858Y11968D02*Y11808D01*
Y11968D02*X3996Y12048D01*
X3858Y11968D02*X3719Y12048D01*
X21929Y9212D02*Y9052D01*
Y9212D02*X22067Y9292D01*
X21929Y9212D02*X21790Y9292D01*
X4173Y11496D02*Y11336D01*
Y11496D02*X4311Y11576D01*
X4173Y11496D02*X4034Y11576D01*
X1299Y11574D02*Y11414D01*
Y11574D02*X1437Y11654D01*
X1299Y11574D02*X1160Y11654D01*
X6732Y3976D02*Y3816D01*
Y3976D02*X6870Y4056D01*
X6732Y3976D02*X6593Y4056D01*
X8622Y8267D02*Y8107D01*
Y8267D02*X8760Y8347D01*
X8622Y8267D02*X8483Y8347D01*
X9055Y9881D02*Y9721D01*
Y9881D02*X9193Y9961D01*
X9055Y9881D02*X8916Y9961D01*
X8149Y9055D02*Y8895D01*
Y9055D02*X8288Y9135D01*
X8149Y9055D02*X8011Y9135D01*
X7102Y11496D02*Y11336D01*
Y11496D02*X7241Y11576D01*
X7102Y11496D02*X6963Y11576D01*
X7086Y10905D02*Y10745D01*
Y10905D02*X7225Y10985D01*
X7086Y10905D02*X6948Y10985D01*
X6929Y9330D02*Y9170D01*
Y9330D02*X7067Y9410D01*
X6929Y9330D02*X6790Y9410D01*
X7165Y8818D02*Y8658D01*
Y8818D02*X7304Y8898D01*
X7165Y8818D02*X7026Y8898D01*
X17677Y3976D02*Y3816D01*
Y3976D02*X17815Y4056D01*
X17677Y3976D02*X17538Y4056D01*
X9173Y9291D02*Y9131D01*
Y9291D02*X9311Y9371D01*
X9173Y9291D02*X9034Y9371D01*
X9173Y7165D02*Y7005D01*
Y7165D02*X9311Y7245D01*
X9173Y7165D02*X9034Y7245D01*
X6929Y7283D02*Y7123D01*
Y7283D02*X7067Y7363D01*
X6929Y7283D02*X6790Y7363D01*
X12519Y5027D02*Y4867D01*
Y5027D02*X12658Y5107D01*
X12519Y5027D02*X12381Y5107D01*
X9173Y11417D02*Y11257D01*
Y11417D02*X9311Y11497D01*
X9173Y11417D02*X9034Y11497D01*
X9055Y7874D02*Y7714D01*
Y7874D02*X9193Y7954D01*
X9055Y7874D02*X8916Y7954D01*
X7716Y590D02*Y430D01*
Y590D02*X7855Y670D01*
X7716Y590D02*X7577Y670D01*
X10952Y8976D02*Y8816D01*
Y8976D02*X11091Y9056D01*
X10952Y8976D02*X10814Y9056D01*
X9094Y13622D02*Y13462D01*
Y13622D02*X9233Y13702D01*
X9094Y13622D02*X8955Y13702D01*
X12204Y13031D02*Y12871D01*
Y13031D02*X12343Y13111D01*
X12204Y13031D02*X12066Y13111D01*
X15429Y7000D02*Y6840D01*
Y7000D02*X15567Y7080D01*
X15429Y7000D02*X15290Y7080D01*
X8189Y11338D02*Y11178D01*
Y11338D02*X8327Y11418D01*
X8189Y11338D02*X8050Y11418D01*
X8425Y10472D02*Y10312D01*
Y10472D02*X8563Y10552D01*
X8425Y10472D02*X8286Y10552D01*
X16692Y5944D02*Y5784D01*
Y5944D02*X16831Y6024D01*
X16692Y5944D02*X16554Y6024D01*
X6889Y2519D02*Y2359D01*
Y2519D02*X7028Y2599D01*
X6889Y2519D02*X6751Y2599D01*
X8149Y3779D02*Y3619D01*
Y3779D02*X8288Y3859D01*
X8149Y3779D02*X8011Y3859D01*
X4015Y12480D02*Y12320D01*
Y12480D02*X4154Y12560D01*
X4015Y12480D02*X3877Y12560D01*
X4842Y3503D02*Y3343D01*
Y3503D02*X4981Y3583D01*
X4842Y3503D02*X4703Y3583D01*
X3188Y4212D02*Y4052D01*
Y4212D02*X3327Y4292D01*
X3188Y4212D02*X3050Y4292D01*
X6141Y11574D02*Y11414D01*
Y11574D02*X6280Y11654D01*
X6141Y11574D02*X6003Y11654D01*
X8267Y7795D02*Y7635D01*
Y7795D02*X8406Y7875D01*
X8267Y7795D02*X8129Y7875D01*
X10236Y7952D02*Y7792D01*
Y7952D02*X10374Y8032D01*
X10236Y7952D02*X10097Y8032D01*
X10157Y10118D02*Y9958D01*
Y10118D02*X10296Y10198D01*
X10157Y10118D02*X10018Y10198D01*
X11338Y10236D02*Y10076D01*
Y10236D02*X11477Y10316D01*
X11338Y10236D02*X11200Y10316D01*
X17204Y6929D02*Y6769D01*
Y6929D02*X17343Y7009D01*
X17204Y6929D02*X17066Y7009D01*
X7677Y6141D02*Y5981D01*
Y6141D02*X7815Y6221D01*
X7677Y6141D02*X7538Y6221D01*
X6653Y7874D02*Y7714D01*
Y7874D02*X6792Y7954D01*
X6653Y7874D02*X6514Y7954D01*
X10826Y14511D02*Y14351D01*
Y14511D02*X10965Y14591D01*
X10826Y14511D02*X10688Y14591D01*
X1929Y6417D02*Y6257D01*
Y6417D02*X2067Y6497D01*
X1929Y6417D02*X1790Y6497D01*
X1574Y6023D02*Y5863D01*
Y6023D02*X1713Y6103D01*
X1574Y6023D02*X1436Y6103D01*
X1889Y8464D02*Y8304D01*
Y8464D02*X2028Y8544D01*
X1889Y8464D02*X1751Y8544D01*
X2834Y10393D02*Y10233D01*
Y10393D02*X2973Y10473D01*
X2834Y10393D02*X2696Y10473D01*
X1968Y10590D02*Y10430D01*
Y10590D02*X2107Y10670D01*
X1968Y10590D02*X1829Y10670D01*
X3413Y8381D02*Y8221D01*
Y8381D02*X3552Y8461D01*
X3413Y8381D02*X3274Y8461D01*
X4842Y2362D02*Y2202D01*
Y2362D02*X4981Y2442D01*
X4842Y2362D02*X4704Y2442D01*
X1500Y24373D02*Y24213D01*
Y24373D02*X1638Y24453D01*
X1500Y24373D02*X1361Y24453D01*
X13500Y24598D02*Y24523D01*
X13650Y24373D01*
X13800Y24523D01*
Y24598D02*Y24523D01*
X13650Y24373D02*Y23998D01*
X13980Y24298D02*X14205D01*
X13980Y23998D02*X14280D01*
X13980Y24598D02*Y23998D01*
Y24598D02*X14280D01*
X14760D02*X14835Y24523D01*
X14535Y24598D02*X14760D01*
X14460Y24523D02*X14535Y24598D01*
X14460Y24523D02*Y24373D01*
X14535Y24298D01*
X14760D01*
X14835Y24223D01*
Y24073D01*
X14760Y23998D02*X14835Y24073D01*
X14535Y23998D02*X14760D01*
X14460Y24073D02*X14535Y23998D01*
X13500Y23672D02*X15015D01*
X9875Y23998D02*X10025D01*
X9950Y24598D02*Y23998D01*
X9800Y24448D02*X9950Y24598D01*
X10205Y24523D02*X10280Y24598D01*
X10505D01*
X10580Y24523D01*
Y24373D01*
X10205Y23998D02*X10580Y24373D01*
X10205Y23998D02*X10580D01*
X10760Y24523D02*X10835Y24598D01*
X11060D01*
X11135Y24523D01*
Y24373D01*
X10760Y23998D02*X11135Y24373D01*
X10760Y23998D02*X11135D01*
X9800Y23672D02*X11315D01*
X4500Y24073D02*X4575Y23998D01*
X4500Y24523D02*Y24073D01*
Y24523D02*X4575Y24598D01*
X4725D01*
X4800Y24523D01*
Y24073D01*
X4725Y23998D02*X4800Y24073D01*
X4575Y23998D02*X4725D01*
X4500Y24148D02*X4800Y24448D01*
X4980Y23998D02*X5055D01*
X5235Y24073D02*X5310Y23998D01*
X5235Y24523D02*Y24073D01*
Y24523D02*X5310Y24598D01*
X5460D01*
X5535Y24523D01*
Y24073D01*
X5460Y23998D02*X5535Y24073D01*
X5310Y23998D02*X5460D01*
X5235Y24148D02*X5535Y24448D01*
X5715Y24523D02*X5790Y24598D01*
X6015D01*
X6090Y24523D01*
Y24373D01*
X5715Y23998D02*X6090Y24373D01*
X5715Y23998D02*X6090D01*
X6270Y24073D02*X6345Y23998D01*
X6270Y24523D02*Y24073D01*
Y24523D02*X6345Y24598D01*
X6495D01*
X6570Y24523D01*
Y24073D01*
X6495Y23998D02*X6570Y24073D01*
X6345Y23998D02*X6495D01*
X6270Y24148D02*X6570Y24448D01*
X4500Y23672D02*X6750D01*
X300Y26098D02*X375Y26023D01*
X75Y26098D02*X300D01*
X0Y26023D02*X75Y26098D01*
X0Y26023D02*Y25873D01*
X75Y25798D01*
X300D01*
X375Y25723D01*
Y25573D01*
X300Y25498D02*X375Y25573D01*
X75Y25498D02*X300D01*
X0Y25573D02*X75Y25498D01*
X555Y25798D02*Y25573D01*
X630Y25498D01*
X855Y25798D02*Y25348D01*
X780Y25273D02*X855Y25348D01*
X630Y25273D02*X780D01*
X555Y25348D02*X630Y25273D01*
Y25498D02*X780D01*
X855Y25573D01*
X1110Y25723D02*Y25498D01*
Y25723D02*X1185Y25798D01*
X1260D01*
X1335Y25723D01*
Y25498D01*
Y25723D02*X1410Y25798D01*
X1485D01*
X1560Y25723D01*
Y25498D01*
X1035Y25798D02*X1110Y25723D01*
X1740Y26098D02*Y25498D01*
Y25573D02*X1815Y25498D01*
X1965D01*
X2040Y25573D01*
Y25723D02*Y25573D01*
X1965Y25798D02*X2040Y25723D01*
X1815Y25798D02*X1965D01*
X1740Y25723D02*X1815Y25798D01*
X2220Y25723D02*Y25573D01*
Y25723D02*X2295Y25798D01*
X2445D01*
X2520Y25723D01*
Y25573D01*
X2445Y25498D02*X2520Y25573D01*
X2295Y25498D02*X2445D01*
X2220Y25573D02*X2295Y25498D01*
X2700Y26098D02*Y25573D01*
X2775Y25498D01*
X4175Y26098D02*Y25498D01*
X4400Y26098D02*X4475Y26023D01*
Y25573D01*
X4400Y25498D02*X4475Y25573D01*
X4100Y25498D02*X4400D01*
X4100Y26098D02*X4400D01*
X4655Y25948D02*Y25873D01*
Y25723D02*Y25498D01*
X5030Y25798D02*X5105Y25723D01*
X4880Y25798D02*X5030D01*
X4805Y25723D02*X4880Y25798D01*
X4805Y25723D02*Y25573D01*
X4880Y25498D01*
X5105Y25798D02*Y25573D01*
X5180Y25498D01*
X4880D02*X5030D01*
X5105Y25573D01*
X5435Y25723D02*Y25498D01*
Y25723D02*X5510Y25798D01*
X5585D01*
X5660Y25723D01*
Y25498D01*
Y25723D02*X5735Y25798D01*
X5810D01*
X5885Y25723D01*
Y25498D01*
X5360Y25798D02*X5435Y25723D01*
X6065Y25498D02*X6140D01*
X6590Y25573D02*X6665Y25498D01*
X6590Y26023D02*X6665Y26098D01*
X6590Y26023D02*Y25573D01*
X6845Y26098D02*X6995D01*
X6920D02*Y25498D01*
X6845D02*X6995D01*
X7251Y25723D02*Y25498D01*
Y25723D02*X7326Y25798D01*
X7401D01*
X7476Y25723D01*
Y25498D01*
X7176Y25798D02*X7251Y25723D01*
X7731Y25798D02*X7956D01*
X7656Y25723D02*X7731Y25798D01*
X7656Y25723D02*Y25573D01*
X7731Y25498D01*
X7956D01*
X8136Y26098D02*Y25498D01*
Y25723D02*X8211Y25798D01*
X8361D01*
X8436Y25723D01*
Y25498D01*
X8616Y26098D02*X8691Y26023D01*
Y25573D01*
X8616Y25498D02*X8691Y25573D01*
X9575Y25498D02*X9800D01*
X9500Y25573D02*X9575Y25498D01*
X9500Y26023D02*Y25573D01*
Y26023D02*X9575Y26098D01*
X9800D01*
X9980Y25723D02*Y25573D01*
Y25723D02*X10055Y25798D01*
X10205D01*
X10280Y25723D01*
Y25573D01*
X10205Y25498D02*X10280Y25573D01*
X10055Y25498D02*X10205D01*
X9980Y25573D02*X10055Y25498D01*
X10460Y25798D02*Y25573D01*
X10535Y25498D01*
X10685D01*
X10760Y25573D01*
Y25798D02*Y25573D01*
X11015Y25723D02*Y25498D01*
Y25723D02*X11090Y25798D01*
X11165D01*
X11240Y25723D01*
Y25498D01*
X10940Y25798D02*X11015Y25723D01*
X11495Y26098D02*Y25573D01*
X11570Y25498D01*
X11420Y25873D02*X11570D01*
X13075Y26098D02*Y25498D01*
X13000Y26098D02*X13300D01*
X13375Y26023D01*
Y25873D01*
X13300Y25798D02*X13375Y25873D01*
X13075Y25798D02*X13300D01*
X13555Y26098D02*Y25573D01*
X13630Y25498D01*
X14005Y25798D02*X14080Y25723D01*
X13855Y25798D02*X14005D01*
X13780Y25723D02*X13855Y25798D01*
X13780Y25723D02*Y25573D01*
X13855Y25498D01*
X14080Y25798D02*Y25573D01*
X14155Y25498D01*
X13855D02*X14005D01*
X14080Y25573D01*
X14410Y26098D02*Y25573D01*
X14485Y25498D01*
X14335Y25873D02*X14485D01*
X14710Y25498D02*X14935D01*
X14635Y25573D02*X14710Y25498D01*
X14635Y25723D02*Y25573D01*
Y25723D02*X14710Y25798D01*
X14860D01*
X14935Y25723D01*
X14635Y25648D02*X14935D01*
Y25723D02*Y25648D01*
X15415Y26098D02*Y25498D01*
X15340D02*X15415Y25573D01*
X15190Y25498D02*X15340D01*
X15115Y25573D02*X15190Y25498D01*
X15115Y25723D02*Y25573D01*
Y25723D02*X15190Y25798D01*
X15340D01*
X15415Y25723D01*
X15745Y25798D02*Y25723D01*
Y25573D02*Y25498D01*
X15595Y26023D02*Y25948D01*
Y26023D02*X15670Y26098D01*
X15820D01*
X15895Y26023D01*
Y25948D01*
X15745Y25798D02*X15895Y25948D01*
X0Y27598D02*X300D01*
X150D02*Y26998D01*
X480Y27598D02*Y26998D01*
Y27223D02*X555Y27298D01*
X705D01*
X780Y27223D01*
Y26998D01*
X1035D02*X1260D01*
X960Y27073D02*X1035Y26998D01*
X960Y27223D02*Y27073D01*
Y27223D02*X1035Y27298D01*
X1185D01*
X1260Y27223D01*
X960Y27148D02*X1260D01*
Y27223D02*Y27148D01*
X1515Y27223D02*Y26998D01*
Y27223D02*X1590Y27298D01*
X1740D01*
X1440D02*X1515Y27223D01*
X1995Y26998D02*X2220D01*
X1920Y27073D02*X1995Y26998D01*
X1920Y27223D02*Y27073D01*
Y27223D02*X1995Y27298D01*
X2145D01*
X2220Y27223D01*
X1920Y27148D02*X2220D01*
Y27223D02*Y27148D01*
X2895Y27298D02*X2970Y27223D01*
X2745Y27298D02*X2895D01*
X2670Y27223D02*X2745Y27298D01*
X2670Y27223D02*Y27073D01*
X2745Y26998D01*
X2970Y27298D02*Y27073D01*
X3045Y26998D01*
X2745D02*X2895D01*
X2970Y27073D01*
X3300Y27223D02*Y26998D01*
Y27223D02*X3375Y27298D01*
X3525D01*
X3225D02*X3300Y27223D01*
X3781Y26998D02*X4006D01*
X3706Y27073D02*X3781Y26998D01*
X3706Y27223D02*Y27073D01*
Y27223D02*X3781Y27298D01*
X3931D01*
X4006Y27223D01*
X3706Y27148D02*X4006D01*
Y27223D02*Y27148D01*
X4681Y27598D02*X4756Y27523D01*
X4531Y27598D02*X4681D01*
X4456Y27523D02*X4531Y27598D01*
X4456Y27523D02*Y27073D01*
X4531Y26998D01*
X4681Y27298D02*X4756Y27223D01*
X4456Y27298D02*X4681D01*
X4531Y26998D02*X4681D01*
X4756Y27073D01*
Y27223D02*Y27073D01*
X5506Y27598D02*Y26998D01*
X5431D02*X5506Y27073D01*
X5281Y26998D02*X5431D01*
X5206Y27073D02*X5281Y26998D01*
X5206Y27223D02*Y27073D01*
Y27223D02*X5281Y27298D01*
X5431D01*
X5506Y27223D01*
X5686Y27448D02*Y27373D01*
Y27223D02*Y26998D01*
X5911Y27523D02*Y26998D01*
Y27523D02*X5986Y27598D01*
X6061D01*
X5836Y27298D02*X5986D01*
X6286Y27523D02*Y26998D01*
Y27523D02*X6361Y27598D01*
X6436D01*
X6211Y27298D02*X6361D01*
X6661Y26998D02*X6886D01*
X6586Y27073D02*X6661Y26998D01*
X6586Y27223D02*Y27073D01*
Y27223D02*X6661Y27298D01*
X6811D01*
X6886Y27223D01*
X6586Y27148D02*X6886D01*
Y27223D02*Y27148D01*
X7142Y27223D02*Y26998D01*
Y27223D02*X7217Y27298D01*
X7367D01*
X7067D02*X7142Y27223D01*
X7622Y26998D02*X7847D01*
X7547Y27073D02*X7622Y26998D01*
X7547Y27223D02*Y27073D01*
Y27223D02*X7622Y27298D01*
X7772D01*
X7847Y27223D01*
X7547Y27148D02*X7847D01*
Y27223D02*Y27148D01*
X8102Y27223D02*Y26998D01*
Y27223D02*X8177Y27298D01*
X8252D01*
X8327Y27223D01*
Y26998D01*
X8027Y27298D02*X8102Y27223D01*
X8582Y27598D02*Y27073D01*
X8657Y26998D01*
X8507Y27373D02*X8657D01*
X9377Y27598D02*Y26998D01*
X9302D02*X9377Y27073D01*
X9152Y26998D02*X9302D01*
X9077Y27073D02*X9152Y26998D01*
X9077Y27223D02*Y27073D01*
Y27223D02*X9152Y27298D01*
X9302D01*
X9377Y27223D01*
X9632D02*Y26998D01*
Y27223D02*X9707Y27298D01*
X9857D01*
X9557D02*X9632Y27223D01*
X10038Y27448D02*Y27373D01*
Y27223D02*Y26998D01*
X10188Y27598D02*Y27073D01*
X10263Y26998D01*
X10413Y27598D02*Y27073D01*
X10488Y26998D01*
X10983D02*X11208D01*
X11283Y27073D01*
X11208Y27148D02*X11283Y27073D01*
X10983Y27148D02*X11208D01*
X10908Y27223D02*X10983Y27148D01*
X10908Y27223D02*X10983Y27298D01*
X11208D01*
X11283Y27223D01*
X10908Y27073D02*X10983Y26998D01*
X11463Y27448D02*Y27373D01*
Y27223D02*Y26998D01*
X11613Y27298D02*X11913D01*
X11613Y26998D02*X11913Y27298D01*
X11613Y26998D02*X11913D01*
X12168D02*X12393D01*
X12093Y27073D02*X12168Y26998D01*
X12093Y27223D02*Y27073D01*
Y27223D02*X12168Y27298D01*
X12318D01*
X12393Y27223D01*
X12093Y27148D02*X12393D01*
Y27223D02*Y27148D01*
X12649Y26998D02*X12874D01*
X12949Y27073D01*
X12874Y27148D02*X12949Y27073D01*
X12649Y27148D02*X12874D01*
X12574Y27223D02*X12649Y27148D01*
X12574Y27223D02*X12649Y27298D01*
X12874D01*
X12949Y27223D01*
X12574Y27073D02*X12649Y26998D01*
X13399Y27298D02*Y27073D01*
X13474Y26998D01*
X13624D01*
X13699Y27073D01*
Y27298D02*Y27073D01*
X13954Y26998D02*X14179D01*
X14254Y27073D01*
X14179Y27148D02*X14254Y27073D01*
X13954Y27148D02*X14179D01*
X13879Y27223D02*X13954Y27148D01*
X13879Y27223D02*X13954Y27298D01*
X14179D01*
X14254Y27223D01*
X13879Y27073D02*X13954Y26998D01*
X14509D02*X14734D01*
X14434Y27073D02*X14509Y26998D01*
X14434Y27223D02*Y27073D01*
Y27223D02*X14509Y27298D01*
X14659D01*
X14734Y27223D01*
X14434Y27148D02*X14734D01*
Y27223D02*Y27148D01*
X15214Y27598D02*Y26998D01*
X15139D02*X15214Y27073D01*
X14989Y26998D02*X15139D01*
X14914Y27073D02*X14989Y26998D01*
X14914Y27223D02*Y27073D01*
Y27223D02*X14989Y27298D01*
X15139D01*
X15214Y27223D01*
X15664Y27448D02*Y27373D01*
Y27223D02*Y26998D01*
X15889Y27223D02*Y26998D01*
Y27223D02*X15964Y27298D01*
X16039D01*
X16114Y27223D01*
Y26998D01*
X15814Y27298D02*X15889Y27223D01*
X16640Y27598D02*Y27073D01*
X16715Y26998D01*
X16565Y27373D02*X16715D01*
X16865Y27598D02*Y26998D01*
Y27223D02*X16940Y27298D01*
X17090D01*
X17165Y27223D01*
Y26998D01*
X17345Y27448D02*Y27373D01*
Y27223D02*Y26998D01*
X17570D02*X17795D01*
X17870Y27073D01*
X17795Y27148D02*X17870Y27073D01*
X17570Y27148D02*X17795D01*
X17495Y27223D02*X17570Y27148D01*
X17495Y27223D02*X17570Y27298D01*
X17795D01*
X17870Y27223D01*
X17495Y27073D02*X17570Y26998D01*
X18320Y27598D02*Y27073D01*
X18395Y26998D01*
X18770Y27298D02*X18845Y27223D01*
X18620Y27298D02*X18770D01*
X18545Y27223D02*X18620Y27298D01*
X18545Y27223D02*Y27073D01*
X18620Y26998D01*
X18845Y27298D02*Y27073D01*
X18920Y26998D01*
X18620D02*X18770D01*
X18845Y27073D01*
X19101Y27298D02*Y27073D01*
X19176Y26998D01*
X19401Y27298D02*Y26848D01*
X19326Y26773D02*X19401Y26848D01*
X19176Y26773D02*X19326D01*
X19101Y26848D02*X19176Y26773D01*
Y26998D02*X19326D01*
X19401Y27073D01*
X19581Y27223D02*Y27073D01*
Y27223D02*X19656Y27298D01*
X19806D01*
X19881Y27223D01*
Y27073D01*
X19806Y26998D02*X19881Y27073D01*
X19656Y26998D02*X19806D01*
X19581Y27073D02*X19656Y26998D01*
X20061Y27298D02*Y27073D01*
X20136Y26998D01*
X20286D01*
X20361Y27073D01*
Y27298D02*Y27073D01*
X20616Y27598D02*Y27073D01*
X20691Y26998D01*
X20541Y27373D02*X20691D01*
X20841Y26848D02*X20991Y26998D01*
X21441Y27523D02*X21516Y27598D01*
X21741D01*
X21816Y27523D01*
Y27373D01*
X21441Y26998D02*X21816Y27373D01*
X21441Y26998D02*X21816D01*
X21996Y27073D02*X22071Y26998D01*
X21996Y27523D02*Y27073D01*
Y27523D02*X22071Y27598D01*
X22221D01*
X22296Y27523D01*
Y27073D01*
X22221Y26998D02*X22296Y27073D01*
X22071Y26998D02*X22221D01*
X21996Y27148D02*X22296Y27448D01*
X22477Y27073D02*X22552Y26998D01*
X22477Y27523D02*Y27073D01*
Y27523D02*X22552Y27598D01*
X22702D01*
X22777Y27523D01*
Y27073D01*
X22702Y26998D02*X22777Y27073D01*
X22552Y26998D02*X22702D01*
X22477Y27148D02*X22777Y27448D01*
X23227Y27598D02*Y26998D01*
Y27223D02*X23302Y27298D01*
X23452D01*
X23527Y27223D01*
Y26998D01*
X23707Y27223D02*Y27073D01*
Y27223D02*X23782Y27298D01*
X23932D01*
X24007Y27223D01*
Y27073D01*
X23932Y26998D02*X24007Y27073D01*
X23782Y26998D02*X23932D01*
X23707Y27073D02*X23782Y26998D01*
X24187Y27598D02*Y27073D01*
X24262Y26998D01*
X24487D02*X24712D01*
X24412Y27073D02*X24487Y26998D01*
X24412Y27223D02*Y27073D01*
Y27223D02*X24487Y27298D01*
X24637D01*
X24712Y27223D01*
X24412Y27148D02*X24712D01*
Y27223D02*Y27148D01*
X24967Y26998D02*X25192D01*
X25267Y27073D01*
X25192Y27148D02*X25267Y27073D01*
X24967Y27148D02*X25192D01*
X24892Y27223D02*X24967Y27148D01*
X24892Y27223D02*X24967Y27298D01*
X25192D01*
X25267Y27223D01*
X24892Y27073D02*X24967Y26998D01*
X25792Y27598D02*Y27073D01*
X25867Y26998D01*
X25717Y27373D02*X25867D01*
X26018Y27223D02*Y27073D01*
Y27223D02*X26093Y27298D01*
X26243D01*
X26318Y27223D01*
Y27073D01*
X26243Y26998D02*X26318Y27073D01*
X26093Y26998D02*X26243D01*
X26018Y27073D02*X26093Y26998D01*
X26573Y27598D02*Y27073D01*
X26648Y26998D01*
X26498Y27373D02*X26648D01*
X27023Y27298D02*X27098Y27223D01*
X26873Y27298D02*X27023D01*
X26798Y27223D02*X26873Y27298D01*
X26798Y27223D02*Y27073D01*
X26873Y26998D01*
X27098Y27298D02*Y27073D01*
X27173Y26998D01*
X26873D02*X27023D01*
X27098Y27073D01*
X27353Y27598D02*Y27073D01*
X27428Y26998D01*
G54D13*X0Y15748D02*X23622D01*
X0D02*Y0D01*
X23622Y15748D02*Y0D01*
X0D02*X23622D01*
G54D56*X20000Y17098D02*Y16498D01*
Y17098D02*X20225Y16873D01*
X20450Y17098D01*
Y16498D01*
X20855Y16798D02*X20930Y16723D01*
X20705Y16798D02*X20855D01*
X20630Y16723D02*X20705Y16798D01*
X20630Y16723D02*Y16573D01*
X20705Y16498D01*
X20930Y16798D02*Y16573D01*
X21005Y16498D01*
X20705D02*X20855D01*
X20930Y16573D01*
X21185Y16798D02*X21485Y16498D01*
X21185D02*X21485Y16798D01*
X21665Y16948D02*Y16873D01*
Y16723D02*Y16498D01*
X21890Y16723D02*Y16498D01*
Y16723D02*X21965Y16798D01*
X22040D01*
X22115Y16723D01*
Y16498D01*
Y16723D02*X22190Y16798D01*
X22265D01*
X22340Y16723D01*
Y16498D01*
X21815Y16798D02*X21890Y16723D01*
X22520Y16798D02*Y16573D01*
X22595Y16498D01*
X22745D01*
X22820Y16573D01*
Y16798D02*Y16573D01*
X23075Y16723D02*Y16498D01*
Y16723D02*X23150Y16798D01*
X23225D01*
X23300Y16723D01*
Y16498D01*
Y16723D02*X23375Y16798D01*
X23450D01*
X23525Y16723D01*
Y16498D01*
X23000Y16798D02*X23075Y16723D01*
X24051Y17098D02*Y16498D01*
X24276Y17098D02*X24351Y17023D01*
Y16573D01*
X24276Y16498D02*X24351Y16573D01*
X23976Y16498D02*X24276D01*
X23976Y17098D02*X24276D01*
X24531Y16948D02*Y16873D01*
Y16723D02*Y16498D01*
X24756Y16723D02*Y16498D01*
Y16723D02*X24831Y16798D01*
X24906D01*
X24981Y16723D01*
Y16498D01*
Y16723D02*X25056Y16798D01*
X25131D01*
X25206Y16723D01*
Y16498D01*
X24681Y16798D02*X24756Y16723D01*
X25461Y16498D02*X25686D01*
X25386Y16573D02*X25461Y16498D01*
X25386Y16723D02*Y16573D01*
Y16723D02*X25461Y16798D01*
X25611D01*
X25686Y16723D01*
X25386Y16648D02*X25686D01*
Y16723D02*Y16648D01*
X25941Y16723D02*Y16498D01*
Y16723D02*X26016Y16798D01*
X26091D01*
X26166Y16723D01*
Y16498D01*
X25866Y16798D02*X25941Y16723D01*
X26421Y16498D02*X26646D01*
X26721Y16573D01*
X26646Y16648D02*X26721Y16573D01*
X26421Y16648D02*X26646D01*
X26346Y16723D02*X26421Y16648D01*
X26346Y16723D02*X26421Y16798D01*
X26646D01*
X26721Y16723D01*
X26346Y16573D02*X26421Y16498D01*
X26901Y16948D02*Y16873D01*
Y16723D02*Y16498D01*
X27052Y16723D02*Y16573D01*
Y16723D02*X27127Y16798D01*
X27277D01*
X27352Y16723D01*
Y16573D01*
X27277Y16498D02*X27352Y16573D01*
X27127Y16498D02*X27277D01*
X27052Y16573D02*X27127Y16498D01*
X27607Y16723D02*Y16498D01*
Y16723D02*X27682Y16798D01*
X27757D01*
X27832Y16723D01*
Y16498D01*
X27532Y16798D02*X27607Y16723D01*
X28087Y16498D02*X28312D01*
X28387Y16573D01*
X28312Y16648D02*X28387Y16573D01*
X28087Y16648D02*X28312D01*
X28012Y16723D02*X28087Y16648D01*
X28012Y16723D02*X28087Y16798D01*
X28312D01*
X28387Y16723D01*
X28012Y16573D02*X28087Y16498D01*
X28567Y16873D02*X28642D01*
X28567Y16723D02*X28642D01*
X29092Y17023D02*X29167Y17098D01*
X29392D01*
X29467Y17023D01*
Y16873D01*
X29092Y16498D02*X29467Y16873D01*
X29092Y16498D02*X29467D01*
X29647Y17023D02*X29722Y17098D01*
X29872D01*
X29947Y17023D01*
Y16573D01*
X29872Y16498D02*X29947Y16573D01*
X29722Y16498D02*X29872D01*
X29647Y16573D02*X29722Y16498D01*
Y16798D02*X29947D01*
X30353Y17098D02*X30428Y17023D01*
X30203Y17098D02*X30353D01*
X30128Y17023D02*X30203Y17098D01*
X30128Y17023D02*Y16573D01*
X30203Y16498D01*
X30353Y16798D02*X30428Y16723D01*
X30128Y16798D02*X30353D01*
X30203Y16498D02*X30353D01*
X30428Y16573D01*
Y16723D02*Y16573D01*
X30608Y17023D02*X30683Y17098D01*
X30908D01*
X30983Y17023D01*
Y16873D01*
X30608Y16498D02*X30983Y16873D01*
X30608Y16498D02*X30983D01*
X31508Y16723D02*Y16498D01*
Y16723D02*X31583Y16798D01*
X31658D01*
X31733Y16723D01*
Y16498D01*
Y16723D02*X31808Y16798D01*
X31883D01*
X31958Y16723D01*
Y16498D01*
X31433Y16798D02*X31508Y16723D01*
X32138Y16948D02*Y16873D01*
Y16723D02*Y16498D01*
X32288Y17098D02*Y16573D01*
X32363Y16498D01*
X32588D02*X32813D01*
X32888Y16573D01*
X32813Y16648D02*X32888Y16573D01*
X32588Y16648D02*X32813D01*
X32513Y16723D02*X32588Y16648D01*
X32513Y16723D02*X32588Y16798D01*
X32813D01*
X32888Y16723D01*
X32513Y16573D02*X32588Y16498D01*
X33338Y16798D02*Y16573D01*
X33413Y16498D01*
X33488D01*
X33563Y16573D01*
Y16798D02*Y16573D01*
X33638Y16498D01*
X33713D01*
X33788Y16573D01*
Y16798D02*Y16573D01*
X33969Y16948D02*Y16873D01*
Y16723D02*Y16498D01*
X34419Y17098D02*Y16498D01*
X34344D02*X34419Y16573D01*
X34194Y16498D02*X34344D01*
X34119Y16573D02*X34194Y16498D01*
X34119Y16723D02*Y16573D01*
Y16723D02*X34194Y16798D01*
X34344D01*
X34419Y16723D01*
X34674Y16498D02*X34899D01*
X34599Y16573D02*X34674Y16498D01*
X34599Y16723D02*Y16573D01*
Y16723D02*X34674Y16798D01*
X34824D01*
X34899Y16723D01*
X34599Y16648D02*X34899D01*
Y16723D02*Y16648D01*
X35079Y16348D02*X35229Y16498D01*
X35754D02*X35904D01*
X35829Y17098D02*Y16498D01*
X35679Y16948D02*X35829Y17098D01*
X36084D02*X36384D01*
X36084D02*Y16798D01*
X36159Y16873D01*
X36309D01*
X36384Y16798D01*
Y16573D01*
X36309Y16498D02*X36384Y16573D01*
X36159Y16498D02*X36309D01*
X36084Y16573D02*X36159Y16498D01*
X36564D02*X36939Y16873D01*
Y17098D02*Y16873D01*
X36564Y17098D02*X36939D01*
X37120Y16798D02*X37420Y17098D01*
X37120Y16798D02*X37495D01*
X37420Y17098D02*Y16498D01*
X38020Y16723D02*Y16498D01*
Y16723D02*X38095Y16798D01*
X38170D01*
X38245Y16723D01*
Y16498D01*
Y16723D02*X38320Y16798D01*
X38395D01*
X38470Y16723D01*
Y16498D01*
X37945Y16798D02*X38020Y16723D01*
X38650Y16948D02*Y16873D01*
Y16723D02*Y16498D01*
X38800Y17098D02*Y16573D01*
X38875Y16498D01*
X39100D02*X39325D01*
X39400Y16573D01*
X39325Y16648D02*X39400Y16573D01*
X39100Y16648D02*X39325D01*
X39025Y16723D02*X39100Y16648D01*
X39025Y16723D02*X39100Y16798D01*
X39325D01*
X39400Y16723D01*
X39025Y16573D02*X39100Y16498D01*
X39850Y17098D02*Y16498D01*
Y16723D02*X39925Y16798D01*
X40075D01*
X40150Y16723D01*
Y16498D01*
X40331Y16948D02*Y16873D01*
Y16723D02*Y16498D01*
X40706Y16798D02*X40781Y16723D01*
X40556Y16798D02*X40706D01*
X40481Y16723D02*X40556Y16798D01*
X40481Y16723D02*Y16573D01*
X40556Y16498D01*
X40706D01*
X40781Y16573D01*
X40481Y16348D02*X40556Y16273D01*
X40706D01*
X40781Y16348D01*
Y16798D02*Y16348D01*
X40961Y17098D02*Y16498D01*
Y16723D02*X41036Y16798D01*
X41186D01*
X41261Y16723D01*
Y16498D01*
X0Y-950D02*X300D01*
X375Y-875D01*
Y-725D02*Y-875D01*
X300Y-650D02*X375Y-725D01*
X75Y-650D02*X300D01*
X75Y-350D02*Y-950D01*
X0Y-350D02*X300D01*
X375Y-425D01*
Y-575D01*
X300Y-650D02*X375Y-575D01*
X555Y-725D02*Y-875D01*
Y-725D02*X630Y-650D01*
X780D01*
X855Y-725D01*
Y-875D01*
X780Y-950D02*X855Y-875D01*
X630Y-950D02*X780D01*
X555Y-875D02*X630Y-950D01*
X1260Y-650D02*X1335Y-725D01*
X1110Y-650D02*X1260D01*
X1035Y-725D02*X1110Y-650D01*
X1035Y-725D02*Y-875D01*
X1110Y-950D01*
X1335Y-650D02*Y-875D01*
X1410Y-950D01*
X1110D02*X1260D01*
X1335Y-875D01*
X1665Y-725D02*Y-950D01*
Y-725D02*X1740Y-650D01*
X1890D01*
X1590D02*X1665Y-725D01*
X2370Y-350D02*Y-950D01*
X2295D02*X2370Y-875D01*
X2145Y-950D02*X2295D01*
X2070Y-875D02*X2145Y-950D01*
X2070Y-725D02*Y-875D01*
Y-725D02*X2145Y-650D01*
X2295D01*
X2370Y-725D01*
X2820D02*Y-875D01*
Y-725D02*X2895Y-650D01*
X3045D01*
X3120Y-725D01*
Y-875D01*
X3045Y-950D02*X3120Y-875D01*
X2895Y-950D02*X3045D01*
X2820Y-875D02*X2895Y-950D01*
X3300Y-650D02*Y-875D01*
X3375Y-950D01*
X3525D01*
X3600Y-875D01*
Y-650D02*Y-875D01*
X3856Y-350D02*Y-875D01*
X3931Y-950D01*
X3781Y-575D02*X3931D01*
X4081Y-350D02*Y-875D01*
X4156Y-950D01*
X4306Y-500D02*Y-575D01*
Y-725D02*Y-950D01*
X4531Y-725D02*Y-950D01*
Y-725D02*X4606Y-650D01*
X4681D01*
X4756Y-725D01*
Y-950D01*
X4456Y-650D02*X4531Y-725D01*
X5011Y-950D02*X5236D01*
X4936Y-875D02*X5011Y-950D01*
X4936Y-725D02*Y-875D01*
Y-725D02*X5011Y-650D01*
X5161D01*
X5236Y-725D01*
X4936Y-800D02*X5236D01*
Y-725D02*Y-800D01*
X5686Y-500D02*Y-575D01*
Y-725D02*Y-950D01*
X5911D02*X6136D01*
X6211Y-875D01*
X6136Y-800D02*X6211Y-875D01*
X5911Y-800D02*X6136D01*
X5836Y-725D02*X5911Y-800D01*
X5836Y-725D02*X5911Y-650D01*
X6136D01*
X6211Y-725D01*
X5836Y-875D02*X5911Y-950D01*
X6737Y-350D02*Y-875D01*
X6812Y-950D01*
X6662Y-575D02*X6812D01*
X6962Y-350D02*Y-950D01*
Y-725D02*X7037Y-650D01*
X7187D01*
X7262Y-725D01*
Y-950D01*
X7517D02*X7742D01*
X7442Y-875D02*X7517Y-950D01*
X7442Y-725D02*Y-875D01*
Y-725D02*X7517Y-650D01*
X7667D01*
X7742Y-725D01*
X7442Y-800D02*X7742D01*
Y-725D02*Y-800D01*
X8267Y-650D02*X8492D01*
X8192Y-725D02*X8267Y-650D01*
X8192Y-725D02*Y-875D01*
X8267Y-950D01*
X8492D01*
X8747D02*X8972D01*
X8672Y-875D02*X8747Y-950D01*
X8672Y-725D02*Y-875D01*
Y-725D02*X8747Y-650D01*
X8897D01*
X8972Y-725D01*
X8672Y-800D02*X8972D01*
Y-725D02*Y-800D01*
X9227Y-725D02*Y-950D01*
Y-725D02*X9302Y-650D01*
X9377D01*
X9452Y-725D01*
Y-950D01*
X9152Y-650D02*X9227Y-725D01*
X9708Y-350D02*Y-875D01*
X9783Y-950D01*
X9633Y-575D02*X9783D01*
X10008Y-950D02*X10233D01*
X9933Y-875D02*X10008Y-950D01*
X9933Y-725D02*Y-875D01*
Y-725D02*X10008Y-650D01*
X10158D01*
X10233Y-725D01*
X9933Y-800D02*X10233D01*
Y-725D02*Y-800D01*
X10488Y-725D02*Y-950D01*
Y-725D02*X10563Y-650D01*
X10713D01*
X10413D02*X10488Y-725D01*
X10893Y-350D02*Y-875D01*
X10968Y-950D01*
X11118Y-500D02*Y-575D01*
Y-725D02*Y-950D01*
X11343Y-725D02*Y-950D01*
Y-725D02*X11418Y-650D01*
X11493D01*
X11568Y-725D01*
Y-950D01*
X11268Y-650D02*X11343Y-725D01*
X11823Y-950D02*X12048D01*
X11748Y-875D02*X11823Y-950D01*
X11748Y-725D02*Y-875D01*
Y-725D02*X11823Y-650D01*
X11973D01*
X12048Y-725D01*
X11748Y-800D02*X12048D01*
Y-725D02*Y-800D01*
X12499Y-725D02*Y-875D01*
Y-725D02*X12574Y-650D01*
X12724D01*
X12799Y-725D01*
Y-875D01*
X12724Y-950D02*X12799Y-875D01*
X12574Y-950D02*X12724D01*
X12499Y-875D02*X12574Y-950D01*
X13054Y-425D02*Y-950D01*
Y-425D02*X13129Y-350D01*
X13204D01*
X12979Y-650D02*X13129D01*
X13699Y-350D02*Y-875D01*
X13774Y-950D01*
X13624Y-575D02*X13774D01*
X13924Y-350D02*Y-950D01*
Y-725D02*X13999Y-650D01*
X14149D01*
X14224Y-725D01*
Y-950D01*
X14404Y-500D02*Y-575D01*
Y-725D02*Y-950D01*
X14629D02*X14854D01*
X14929Y-875D01*
X14854Y-800D02*X14929Y-875D01*
X14629Y-800D02*X14854D01*
X14554Y-725D02*X14629Y-800D01*
X14554Y-725D02*X14629Y-650D01*
X14854D01*
X14929Y-725D01*
X14554Y-875D02*X14629Y-950D01*
X15454D02*X15604D01*
X15529Y-350D02*Y-950D01*
X15379Y-500D02*X15529Y-350D01*
X15785Y-875D02*X15860Y-950D01*
X15785Y-425D02*Y-875D01*
Y-425D02*X15860Y-350D01*
X16010D01*
X16085Y-425D01*
Y-875D01*
X16010Y-950D02*X16085Y-875D01*
X15860Y-950D02*X16010D01*
X15785Y-800D02*X16085Y-500D01*
X16610Y-725D02*Y-950D01*
Y-725D02*X16685Y-650D01*
X16760D01*
X16835Y-725D01*
Y-950D01*
Y-725D02*X16910Y-650D01*
X16985D01*
X17060Y-725D01*
Y-950D01*
X16535Y-650D02*X16610Y-725D01*
X17240Y-500D02*Y-575D01*
Y-725D02*Y-950D01*
X17390Y-350D02*Y-875D01*
X17465Y-950D01*
X17960Y-725D02*Y-950D01*
Y-725D02*X18035Y-650D01*
X18185D01*
X17885D02*X17960Y-725D01*
X18440Y-950D02*X18665D01*
X18365Y-875D02*X18440Y-950D01*
X18365Y-725D02*Y-875D01*
Y-725D02*X18440Y-650D01*
X18590D01*
X18665Y-725D01*
X18365Y-800D02*X18665D01*
Y-725D02*Y-800D01*
X18921Y-650D02*X19146D01*
X18846Y-725D02*X18921Y-650D01*
X18846Y-725D02*Y-875D01*
X18921Y-950D01*
X19146D01*
X19401Y-350D02*Y-875D01*
X19476Y-950D01*
X19326Y-575D02*X19476D01*
X19851Y-650D02*X19926Y-725D01*
X19701Y-650D02*X19851D01*
X19626Y-725D02*X19701Y-650D01*
X19626Y-725D02*Y-875D01*
X19701Y-950D01*
X19926Y-650D02*Y-875D01*
X20001Y-950D01*
X19701D02*X19851D01*
X19926Y-875D01*
X20256Y-725D02*Y-950D01*
Y-725D02*X20331Y-650D01*
X20406D01*
X20481Y-725D01*
Y-950D01*
X20181Y-650D02*X20256Y-725D01*
X20886Y-650D02*X20961Y-725D01*
X20736Y-650D02*X20886D01*
X20661Y-725D02*X20736Y-650D01*
X20661Y-725D02*Y-875D01*
X20736Y-950D01*
X20886D01*
X20961Y-875D01*
X20661Y-1100D02*X20736Y-1175D01*
X20886D01*
X20961Y-1100D01*
Y-650D02*Y-1100D01*
X21141Y-350D02*Y-875D01*
X21216Y-950D01*
X21441D02*X21666D01*
X21366Y-875D02*X21441Y-950D01*
X21366Y-725D02*Y-875D01*
Y-725D02*X21441Y-650D01*
X21591D01*
X21666Y-725D01*
X21366Y-800D02*X21666D01*
Y-725D02*Y-800D01*
X22117Y-650D02*X22417D01*
X22867Y-875D02*X22942Y-950D01*
X22867Y-425D02*Y-875D01*
Y-425D02*X22942Y-350D01*
X23092D01*
X23167Y-425D01*
Y-875D01*
X23092Y-950D02*X23167Y-875D01*
X22942Y-950D02*X23092D01*
X22867Y-800D02*X23167Y-500D01*
X23347Y-1100D02*X23497Y-950D01*
X23677Y-875D02*X23752Y-950D01*
X23677Y-425D02*Y-875D01*
Y-425D02*X23752Y-350D01*
X23902D01*
X23977Y-425D01*
Y-875D01*
X23902Y-950D02*X23977Y-875D01*
X23752Y-950D02*X23902D01*
X23677Y-800D02*X23977Y-500D01*
X24502Y-350D02*Y-875D01*
X24577Y-950D01*
X24427Y-575D02*X24577D01*
X24727Y-725D02*Y-875D01*
Y-725D02*X24802Y-650D01*
X24952D01*
X25027Y-725D01*
Y-875D01*
X24952Y-950D02*X25027Y-875D01*
X24802Y-950D02*X24952D01*
X24727Y-875D02*X24802Y-950D01*
X25477Y-425D02*X25552Y-350D01*
X25777D01*
X25852Y-425D01*
Y-575D01*
X25477Y-950D02*X25852Y-575D01*
X25477Y-950D02*X25852D01*
X26033Y-425D02*X26108Y-350D01*
X26258D01*
X26333Y-425D01*
Y-875D01*
X26258Y-950D02*X26333Y-875D01*
X26108Y-950D02*X26258D01*
X26033Y-875D02*X26108Y-950D01*
Y-650D02*X26333D01*
X26738Y-350D02*X26813Y-425D01*
X26588Y-350D02*X26738D01*
X26513Y-425D02*X26588Y-350D01*
X26513Y-425D02*Y-875D01*
X26588Y-950D01*
X26738Y-650D02*X26813Y-725D01*
X26513Y-650D02*X26738D01*
X26588Y-950D02*X26738D01*
X26813Y-875D01*
Y-725D02*Y-875D01*
X26993Y-425D02*X27068Y-350D01*
X27293D01*
X27368Y-425D01*
Y-575D01*
X26993Y-950D02*X27368Y-575D01*
X26993Y-950D02*X27368D01*
X27548Y-1100D02*X27698Y-950D01*
X27953D02*X28103D01*
X28028Y-350D02*Y-950D01*
X27878Y-500D02*X28028Y-350D01*
X28283D02*X28583D01*
X28283D02*Y-650D01*
X28358Y-575D01*
X28508D01*
X28583Y-650D01*
Y-875D01*
X28508Y-950D02*X28583Y-875D01*
X28358Y-950D02*X28508D01*
X28283Y-875D02*X28358Y-950D01*
X28764D02*X29139Y-575D01*
Y-350D02*Y-575D01*
X28764Y-350D02*X29139D01*
X29319Y-650D02*X29619Y-350D01*
X29319Y-650D02*X29694D01*
X29619Y-350D02*Y-950D01*
X30219Y-725D02*Y-950D01*
Y-725D02*X30294Y-650D01*
X30369D01*
X30444Y-725D01*
Y-950D01*
Y-725D02*X30519Y-650D01*
X30594D01*
X30669Y-725D01*
Y-950D01*
X30144Y-650D02*X30219Y-725D01*
X30849Y-500D02*Y-575D01*
Y-725D02*Y-950D01*
X30999Y-350D02*Y-875D01*
X31074Y-950D01*
X31299D02*X31524D01*
X31599Y-875D01*
X31524Y-800D02*X31599Y-875D01*
X31299Y-800D02*X31524D01*
X31224Y-725D02*X31299Y-800D01*
X31224Y-725D02*X31299Y-650D01*
X31524D01*
X31599Y-725D01*
X31224Y-875D02*X31299Y-950D01*
X20075Y18598D02*Y17998D01*
X20300Y18598D02*X20375Y18523D01*
Y18073D01*
X20300Y17998D02*X20375Y18073D01*
X20000Y17998D02*X20300D01*
X20000Y18598D02*X20300D01*
X20780Y18298D02*X20855Y18223D01*
X20630Y18298D02*X20780D01*
X20555Y18223D02*X20630Y18298D01*
X20555Y18223D02*Y18073D01*
X20630Y17998D01*
X20855Y18298D02*Y18073D01*
X20930Y17998D01*
X20630D02*X20780D01*
X20855Y18073D01*
X21185Y18598D02*Y18073D01*
X21260Y17998D01*
X21110Y18373D02*X21260D01*
X21485Y17998D02*X21710D01*
X21410Y18073D02*X21485Y17998D01*
X21410Y18223D02*Y18073D01*
Y18223D02*X21485Y18298D01*
X21635D01*
X21710Y18223D01*
X21410Y18148D02*X21710D01*
Y18223D02*Y18148D01*
X21890Y18373D02*X21965D01*
X21890Y18223D02*X21965D01*
X22715Y18598D02*X22790Y18523D01*
X22490Y18598D02*X22715D01*
X22415Y18523D02*X22490Y18598D01*
X22415Y18523D02*Y18373D01*
X22490Y18298D01*
X22715D01*
X22790Y18223D01*
Y18073D01*
X22715Y17998D02*X22790Y18073D01*
X22490Y17998D02*X22715D01*
X22415Y18073D02*X22490Y17998D01*
X22970Y18298D02*Y18073D01*
X23045Y17998D01*
X23195D01*
X23270Y18073D01*
Y18298D02*Y18073D01*
X23526Y18223D02*Y17998D01*
Y18223D02*X23601Y18298D01*
X23676D01*
X23751Y18223D01*
Y17998D01*
X23451Y18298D02*X23526Y18223D01*
X24201Y18523D02*Y17998D01*
Y18523D02*X24276Y18598D01*
X24501D01*
X24576Y18523D01*
Y17998D01*
X24201Y18298D02*X24576D01*
X24831Y18223D02*Y17773D01*
X24756Y18298D02*X24831Y18223D01*
X24906Y18298D01*
X25056D01*
X25131Y18223D01*
Y18073D01*
X25056Y17998D02*X25131Y18073D01*
X24906Y17998D02*X25056D01*
X24831Y18073D02*X24906Y17998D01*
X25386Y18223D02*Y17998D01*
Y18223D02*X25461Y18298D01*
X25611D01*
X25311D02*X25386Y18223D01*
X26556Y18598D02*X26631Y18523D01*
X26406Y18598D02*X26556D01*
X26331Y18523D02*X26406Y18598D01*
X26331Y18523D02*Y18073D01*
X26406Y17998D01*
X26556Y18298D02*X26631Y18223D01*
X26331Y18298D02*X26556D01*
X26406Y17998D02*X26556D01*
X26631Y18073D01*
Y18223D02*Y18073D01*
X27081D02*X27156Y17998D01*
X27081Y18523D02*Y18073D01*
Y18523D02*X27156Y18598D01*
X27306D01*
X27381Y18523D01*
Y18073D01*
X27306Y17998D02*X27381Y18073D01*
X27156Y17998D02*X27306D01*
X27081Y18148D02*X27381Y18448D01*
X27561Y17998D02*X27861Y18298D01*
Y18523D02*Y18298D01*
X27786Y18598D02*X27861Y18523D01*
X27636Y18598D02*X27786D01*
X27561Y18523D02*X27636Y18598D01*
X27561Y18523D02*Y18373D01*
X27636Y18298D01*
X27861D01*
X28042Y18373D02*X28117D01*
X28042Y18223D02*X28117D01*
X28297Y18298D02*X28597Y18598D01*
X28297Y18298D02*X28672D01*
X28597Y18598D02*Y17998D01*
X28852Y18598D02*X29152D01*
X28852D02*Y18298D01*
X28927Y18373D01*
X29077D01*
X29152Y18298D01*
Y18073D01*
X29077Y17998D02*X29152Y18073D01*
X28927Y17998D02*X29077D01*
X28852Y18073D02*X28927Y17998D01*
X29332Y18373D02*X29407D01*
X29332Y18223D02*X29407D01*
X29587Y18298D02*X29887Y18598D01*
X29587Y18298D02*X29962D01*
X29887Y18598D02*Y17998D01*
X30142Y18598D02*X30442D01*
X30142D02*Y18298D01*
X30217Y18373D01*
X30367D01*
X30442Y18298D01*
Y18073D01*
X30367Y17998D02*X30442Y18073D01*
X30217Y17998D02*X30367D01*
X30142Y18073D02*X30217Y17998D01*
X30893Y18523D02*X30968Y18598D01*
X31193D01*
X31268Y18523D01*
Y18373D01*
X30893Y17998D02*X31268Y18373D01*
X30893Y17998D02*X31268D01*
X31448Y18073D02*X31523Y17998D01*
X31448Y18523D02*Y18073D01*
Y18523D02*X31523Y18598D01*
X31673D01*
X31748Y18523D01*
Y18073D01*
X31673Y17998D02*X31748Y18073D01*
X31523Y17998D02*X31673D01*
X31448Y18148D02*X31748Y18448D01*
X31928Y18073D02*X32003Y17998D01*
X31928Y18523D02*Y18073D01*
Y18523D02*X32003Y18598D01*
X32153D01*
X32228Y18523D01*
Y18073D01*
X32153Y17998D02*X32228Y18073D01*
X32003Y17998D02*X32153D01*
X31928Y18148D02*X32228Y18448D01*
X32408Y18073D02*X32483Y17998D01*
X32408Y18223D02*Y18073D01*
Y18223D02*X32483Y18298D01*
X32633D01*
X32708Y18223D01*
Y18073D01*
X32633Y17998D02*X32708Y18073D01*
X32483Y17998D02*X32633D01*
X32408Y18373D02*X32483Y18298D01*
X32408Y18523D02*Y18373D01*
Y18523D02*X32483Y18598D01*
X32633D01*
X32708Y18523D01*
Y18373D01*
X32633Y18298D02*X32708Y18373D01*
X33158Y18598D02*Y18073D01*
X33233Y17998D01*
X33383D01*
X33458Y18073D01*
Y18598D02*Y18073D01*
X33638Y18598D02*X33938D01*
X33788D02*Y17998D01*
X34193D02*X34418D01*
X34118Y18073D02*X34193Y17998D01*
X34118Y18523D02*Y18073D01*
Y18523D02*X34193Y18598D01*
X34418D01*
X20000Y20023D02*Y19498D01*
Y20023D02*X20075Y20098D01*
X20300D01*
X20375Y20023D01*
Y19498D01*
X20000Y19798D02*X20375D01*
X20555D02*Y19573D01*
X20630Y19498D01*
X20780D01*
X20855Y19573D01*
Y19798D02*Y19573D01*
X21110Y20098D02*Y19573D01*
X21185Y19498D01*
X21035Y19873D02*X21185D01*
X21335Y20098D02*Y19498D01*
Y19723D02*X21410Y19798D01*
X21560D01*
X21635Y19723D01*
Y19498D01*
X21815Y19723D02*Y19573D01*
Y19723D02*X21890Y19798D01*
X22040D01*
X22115Y19723D01*
Y19573D01*
X22040Y19498D02*X22115Y19573D01*
X21890Y19498D02*X22040D01*
X21815Y19573D02*X21890Y19498D01*
X22370Y19723D02*Y19498D01*
Y19723D02*X22445Y19798D01*
X22595D01*
X22295D02*X22370Y19723D01*
X22775Y19873D02*X22850D01*
X22775Y19723D02*X22850D01*
X23301Y19948D02*Y19873D01*
Y19723D02*Y19498D01*
X23526Y19723D02*Y19498D01*
Y19723D02*X23601Y19798D01*
X23676D01*
X23751Y19723D01*
Y19498D01*
X23451Y19798D02*X23526Y19723D01*
X24006Y19498D02*X24231D01*
X23931Y19573D02*X24006Y19498D01*
X23931Y19723D02*Y19573D01*
Y19723D02*X24006Y19798D01*
X24156D01*
X24231Y19723D01*
X23931Y19648D02*X24231D01*
Y19723D02*Y19648D01*
X24411Y19948D02*Y19873D01*
Y19723D02*Y19498D01*
X24636D02*X24861D01*
X24561Y19573D02*X24636Y19498D01*
X24561Y19723D02*Y19573D01*
Y19723D02*X24636Y19798D01*
X24786D01*
X24861Y19723D01*
X24561Y19648D02*X24861D01*
Y19723D02*Y19648D01*
X25041Y19798D02*Y19648D01*
X25191Y19498D01*
X25341Y19648D01*
Y19798D02*Y19648D01*
X20000Y21598D02*X20300D01*
X20150D02*Y20998D01*
X20480Y21448D02*Y21373D01*
Y21223D02*Y20998D01*
X20705Y21598D02*Y21073D01*
X20780Y20998D01*
X20630Y21373D02*X20780D01*
X20930Y21598D02*Y21073D01*
X21005Y20998D01*
X21230D02*X21455D01*
X21155Y21073D02*X21230Y20998D01*
X21155Y21223D02*Y21073D01*
Y21223D02*X21230Y21298D01*
X21380D01*
X21455Y21223D01*
X21155Y21148D02*X21455D01*
Y21223D02*Y21148D01*
X21635Y21373D02*X21710D01*
X21635Y21223D02*X21710D01*
X22235Y20998D02*X22460D01*
X22535Y21073D01*
X22460Y21148D02*X22535Y21073D01*
X22235Y21148D02*X22460D01*
X22160Y21223D02*X22235Y21148D01*
X22160Y21223D02*X22235Y21298D01*
X22460D01*
X22535Y21223D01*
X22160Y21073D02*X22235Y20998D01*
X22791Y21598D02*Y21073D01*
X22866Y20998D01*
X22716Y21373D02*X22866D01*
X23091Y21223D02*Y20998D01*
Y21223D02*X23166Y21298D01*
X23316D01*
X23016D02*X23091Y21223D01*
X23496Y21448D02*Y21373D01*
Y21223D02*Y20998D01*
X23646Y21598D02*Y20998D01*
Y21073D02*X23721Y20998D01*
X23871D01*
X23946Y21073D01*
Y21223D02*Y21073D01*
X23871Y21298D02*X23946Y21223D01*
X23721Y21298D02*X23871D01*
X23646Y21223D02*X23721Y21298D01*
X24126Y21223D02*Y21073D01*
Y21223D02*X24201Y21298D01*
X24351D01*
X24426Y21223D01*
Y21073D01*
X24351Y20998D02*X24426Y21073D01*
X24201Y20998D02*X24351D01*
X24126Y21073D02*X24201Y20998D01*
X24831Y21298D02*X24906Y21223D01*
X24681Y21298D02*X24831D01*
X24606Y21223D02*X24681Y21298D01*
X24606Y21223D02*Y21073D01*
X24681Y20998D01*
X24831D01*
X24906Y21073D01*
X24606Y20848D02*X24681Y20773D01*
X24831D01*
X24906Y20848D01*
Y21298D02*Y20848D01*
X25086Y20998D02*X25161D01*
X25417Y21223D02*Y20998D01*
Y21223D02*X25492Y21298D01*
X25567D01*
X25642Y21223D01*
Y20998D01*
Y21223D02*X25717Y21298D01*
X25792D01*
X25867Y21223D01*
Y20998D01*
X25342Y21298D02*X25417Y21223D01*
X26272Y21298D02*X26347Y21223D01*
X26122Y21298D02*X26272D01*
X26047Y21223D02*X26122Y21298D01*
X26047Y21223D02*Y21073D01*
X26122Y20998D01*
X26347Y21298D02*Y21073D01*
X26422Y20998D01*
X26122D02*X26272D01*
X26347Y21073D01*
X26602Y21448D02*Y21373D01*
Y21223D02*Y20998D01*
X26827Y21223D02*Y20998D01*
Y21223D02*X26902Y21298D01*
X26977D01*
X27052Y21223D01*
Y20998D01*
X26752Y21298D02*X26827Y21223D01*
X27232Y20998D02*X27532D01*
X27712Y21598D02*Y20998D01*
Y21073D02*X27787Y20998D01*
X27937D01*
X28012Y21073D01*
Y21223D02*Y21073D01*
X27937Y21298D02*X28012Y21223D01*
X27787Y21298D02*X27937D01*
X27712Y21223D02*X27787Y21298D01*
X28193Y21223D02*Y21073D01*
Y21223D02*X28268Y21298D01*
X28418D01*
X28493Y21223D01*
Y21073D01*
X28418Y20998D02*X28493Y21073D01*
X28268Y20998D02*X28418D01*
X28193Y21073D02*X28268Y20998D01*
X28898Y21298D02*X28973Y21223D01*
X28748Y21298D02*X28898D01*
X28673Y21223D02*X28748Y21298D01*
X28673Y21223D02*Y21073D01*
X28748Y20998D01*
X28973Y21298D02*Y21073D01*
X29048Y20998D01*
X28748D02*X28898D01*
X28973Y21073D01*
X29303Y21223D02*Y20998D01*
Y21223D02*X29378Y21298D01*
X29528D01*
X29228D02*X29303Y21223D01*
X30008Y21598D02*Y20998D01*
X29933D02*X30008Y21073D01*
X29783Y20998D02*X29933D01*
X29708Y21073D02*X29783Y20998D01*
X29708Y21223D02*Y21073D01*
Y21223D02*X29783Y21298D01*
X29933D01*
X30008Y21223D01*
X30458Y21298D02*X30758D01*
X31208Y21598D02*Y20998D01*
Y21598D02*X31508D01*
X31208Y21298D02*X31433D01*
X31913D02*X31988Y21223D01*
X31763Y21298D02*X31913D01*
X31688Y21223D02*X31763Y21298D01*
X31688Y21223D02*Y21073D01*
X31763Y20998D01*
X31988Y21298D02*Y21073D01*
X32063Y20998D01*
X31763D02*X31913D01*
X31988Y21073D01*
X32244Y21598D02*Y20998D01*
Y21073D02*X32319Y20998D01*
X32469D01*
X32544Y21073D01*
Y21223D02*Y21073D01*
X32469Y21298D02*X32544Y21223D01*
X32319Y21298D02*X32469D01*
X32244Y21223D02*X32319Y21298D01*
X32799Y21223D02*Y20998D01*
Y21223D02*X32874Y21298D01*
X33024D01*
X32724D02*X32799Y21223D01*
X33204Y21448D02*Y21373D01*
Y21223D02*Y20998D01*
X33429Y21298D02*X33654D01*
X33354Y21223D02*X33429Y21298D01*
X33354Y21223D02*Y21073D01*
X33429Y20998D01*
X33654D01*
X34059Y21298D02*X34134Y21223D01*
X33909Y21298D02*X34059D01*
X33834Y21223D02*X33909Y21298D01*
X33834Y21223D02*Y21073D01*
X33909Y20998D01*
X34134Y21298D02*Y21073D01*
X34209Y20998D01*
X33909D02*X34059D01*
X34134Y21073D01*
X34464Y21598D02*Y21073D01*
X34539Y20998D01*
X34389Y21373D02*X34539D01*
X34689Y21448D02*Y21373D01*
Y21223D02*Y20998D01*
X34840Y21223D02*Y21073D01*
Y21223D02*X34915Y21298D01*
X35065D01*
X35140Y21223D01*
Y21073D01*
X35065Y20998D02*X35140Y21073D01*
X34915Y20998D02*X35065D01*
X34840Y21073D02*X34915Y20998D01*
X35395Y21223D02*Y20998D01*
Y21223D02*X35470Y21298D01*
X35545D01*
X35620Y21223D01*
Y20998D01*
X35320Y21298D02*X35395Y21223D01*
X36145Y21598D02*Y20998D01*
X36370Y21598D02*X36445Y21523D01*
Y21073D01*
X36370Y20998D02*X36445Y21073D01*
X36070Y20998D02*X36370D01*
X36070Y21598D02*X36370D01*
X36700Y21223D02*Y20998D01*
Y21223D02*X36775Y21298D01*
X36925D01*
X36625D02*X36700Y21223D01*
X37330Y21298D02*X37405Y21223D01*
X37180Y21298D02*X37330D01*
X37105Y21223D02*X37180Y21298D01*
X37105Y21223D02*Y21073D01*
X37180Y20998D01*
X37405Y21298D02*Y21073D01*
X37480Y20998D01*
X37180D02*X37330D01*
X37405Y21073D01*
X37660Y21298D02*Y21073D01*
X37735Y20998D01*
X37810D01*
X37885Y21073D01*
Y21298D02*Y21073D01*
X37960Y20998D01*
X38035D01*
X38110Y21073D01*
Y21298D02*Y21073D01*
X38291Y21448D02*Y21373D01*
Y21223D02*Y20998D01*
X38516Y21223D02*Y20998D01*
Y21223D02*X38591Y21298D01*
X38666D01*
X38741Y21223D01*
Y20998D01*
X38441Y21298D02*X38516Y21223D01*
X39146Y21298D02*X39221Y21223D01*
X38996Y21298D02*X39146D01*
X38921Y21223D02*X38996Y21298D01*
X38921Y21223D02*Y21073D01*
X38996Y20998D01*
X39146D01*
X39221Y21073D01*
X38921Y20848D02*X38996Y20773D01*
X39146D01*
X39221Y20848D01*
Y21298D02*Y20848D01*
M02*
