G04 start of page 11 for group -3984 idx -3984 *
G04 Title: stribog.main_board, fab *
G04 Creator: pcb 1.99y *
G04 CreationDate: Sat Oct 10 15:19:27 2009 UTC *
G04 For: dti *
G04 Format: Gerber/RS-274X *
G04 PCB-Dimensions: 236220 157480 *
G04 PCB-Coordinate-Origin: lower left *
%MOIN*%
%FSLAX25Y25*%
%LNFAB*%
%ADD13C,0.0100*%
%ADD14C,0.0200*%
%ADD56C,0.0060*%
%ADD63R,0.0080X0.0080*%
G54D63*X226378Y9842D02*Y6642D01*
G54D14*G36*
X225831Y9989D02*X229297Y11989D01*
X229697Y11296D01*
X226231Y9296D01*
X225831Y9989D01*
G37*
G36*
X226524Y9296D02*X223058Y11296D01*
X223458Y11989D01*
X226924Y9989D01*
X226524Y9296D01*
G37*
G54D63*X224778Y9842D02*G75*G03X227978Y9842I1600J0D01*G01*
G75*G03X224778Y9842I-1600J0D01*G01*
X9843D02*Y6642D01*
G54D14*G36*
X9296Y9989D02*X12762Y11989D01*
X13162Y11296D01*
X9696Y9296D01*
X9296Y9989D01*
G37*
G36*
X9989Y9296D02*X6523Y11296D01*
X6923Y11989D01*
X10389Y9989D01*
X9989Y9296D01*
G37*
G54D63*X8243Y9842D02*G75*G03X11443Y9842I1600J0D01*G01*
G75*G03X8243Y9842I-1600J0D01*G01*
X9843Y147637D02*Y144437D01*
G54D14*G36*
X9296Y147784D02*X12762Y149784D01*
X13162Y149091D01*
X9696Y147091D01*
X9296Y147784D01*
G37*
G36*
X9989Y147091D02*X6523Y149091D01*
X6923Y149784D01*
X10389Y147784D01*
X9989Y147091D01*
G37*
G54D63*X8243Y147637D02*G75*G03X11443Y147637I1600J0D01*G01*
G75*G03X8243Y147637I-1600J0D01*G01*
X226378D02*Y144437D01*
G54D14*G36*
X225831Y147784D02*X229297Y149784D01*
X229697Y149091D01*
X226231Y147091D01*
X225831Y147784D01*
G37*
G36*
X226524Y147091D02*X223058Y149091D01*
X223458Y149784D01*
X226924Y147784D01*
X226524Y147091D01*
G37*
G54D63*X224778Y147637D02*G75*G03X227978Y147637I1600J0D01*G01*
G75*G03X224778Y147637I-1600J0D01*G01*
X15000Y168730D02*Y165530D01*
G54D14*G36*
X14453Y168876D02*X17919Y170876D01*
X18319Y170183D01*
X14853Y168183D01*
X14453Y168876D01*
G37*
G36*
X15146Y168183D02*X11680Y170183D01*
X12080Y170876D01*
X15546Y168876D01*
X15146Y168183D01*
G37*
G54D63*X13400Y168730D02*G75*G03X16600Y168730I1600J0D01*G01*
G75*G03X13400Y168730I-1600J0D01*G01*
G54D56*X135000Y170980D02*Y170230D01*
X136500Y168730D01*
X138000Y170230D01*
Y170980D02*Y170230D01*
X136500Y168730D02*Y164980D01*
X139801Y167980D02*X142051D01*
X139801Y164980D02*X142801D01*
X139801Y170980D02*Y164980D01*
Y170980D02*X142801D01*
X147603D02*X148353Y170230D01*
X145353Y170980D02*X147603D01*
X144603Y170230D02*X145353Y170980D01*
X144603Y170230D02*Y168730D01*
X145353Y167980D01*
X147603D01*
X148353Y167230D01*
Y165730D01*
X147603Y164980D02*X148353Y165730D01*
X145353Y164980D02*X147603D01*
X144603Y165730D02*X145353Y164980D01*
X135000Y161729D02*X150154D01*
X98000Y167980D02*X101000Y170980D01*
X98000Y167980D02*X101750D01*
X101000Y170980D02*Y164980D01*
X98000Y161729D02*X103551D01*
X45000Y165730D02*X45750Y164980D01*
X45000Y170230D02*Y165730D01*
Y170230D02*X45750Y170980D01*
X47250D01*
X48000Y170230D01*
Y165730D01*
X47250Y164980D02*X48000Y165730D01*
X45750Y164980D02*X47250D01*
X45000Y166480D02*X48000Y169480D01*
X49801Y164980D02*X50551D01*
X53103D02*X54603D01*
X53853Y170980D02*Y164980D01*
X52353Y169480D02*X53853Y170980D01*
X56404Y170230D02*X57154Y170980D01*
X59404D01*
X60154Y170230D01*
Y168730D01*
X56404Y164980D02*X60154Y168730D01*
X56404Y164980D02*X60154D01*
X64206Y170980D02*X64956Y170230D01*
X62706Y170980D02*X64206D01*
X61956Y170230D02*X62706Y170980D01*
X61956Y170230D02*Y165730D01*
X62706Y164980D01*
X64206Y167980D02*X64956Y167230D01*
X61956Y167980D02*X64206D01*
X62706Y164980D02*X64206D01*
X64956Y165730D01*
Y167230D02*Y165730D01*
X45000Y161729D02*X66757D01*
X201550Y63805D02*X204750D01*
X201550D02*Y60605D01*
X204750D01*
Y63805D02*Y60605D01*
X191707Y63805D02*X194907D01*
X191707D02*Y60605D01*
X194907D01*
Y63805D02*Y60605D01*
X102337Y14198D02*X105537D01*
X102337D02*Y10998D01*
X105537D01*
Y14198D02*Y10998D01*
X92337Y14198D02*X95537D01*
X92337D02*Y10998D01*
X95537D01*
Y14198D02*Y10998D01*
X102337Y24198D02*X105537D01*
X102337D02*Y20998D01*
X105537D01*
Y24198D02*Y20998D01*
X92337Y24198D02*X95537D01*
X92337D02*Y20998D01*
X95537D01*
Y24198D02*Y20998D01*
X102337Y34198D02*X105537D01*
X102337D02*Y30998D01*
X105537D01*
Y34198D02*Y30998D01*
X92337Y34198D02*X95537D01*
X92337D02*Y30998D01*
X95537D01*
Y34198D02*Y30998D01*
X102337Y44198D02*X105537D01*
X102337D02*Y40998D01*
X105537D01*
Y44198D02*Y40998D01*
X92337Y44198D02*X95537D01*
X92337D02*Y40998D01*
X95537D01*
Y44198D02*Y40998D01*
X102337Y54198D02*X105537D01*
X102337D02*Y50998D01*
X105537D01*
Y54198D02*Y50998D01*
X92337Y54198D02*X95537D01*
X92337D02*Y50998D01*
X95537D01*
Y54198D02*Y50998D01*
X202337Y14199D02*X205537D01*
X202337D02*Y10999D01*
X205537D01*
Y14199D02*Y10999D01*
X192337Y14199D02*X195537D01*
X192337D02*Y10999D01*
X195537D01*
Y14199D02*Y10999D01*
X202337Y24199D02*X205537D01*
X202337D02*Y20999D01*
X205537D01*
Y24199D02*Y20999D01*
X192337Y24199D02*X195537D01*
X192337D02*Y20999D01*
X195537D01*
Y24199D02*Y20999D01*
X202337Y34199D02*X205537D01*
X202337D02*Y30999D01*
X205537D01*
Y34199D02*Y30999D01*
X192337Y34199D02*X195537D01*
X192337D02*Y30999D01*
X195537D01*
Y34199D02*Y30999D01*
X202337Y44199D02*X205537D01*
X202337D02*Y40999D01*
X205537D01*
Y44199D02*Y40999D01*
X192337Y44199D02*X195537D01*
X192337D02*Y40999D01*
X195537D01*
Y44199D02*Y40999D01*
X202337Y54199D02*X205537D01*
X202337D02*Y50999D01*
X205537D01*
Y54199D02*Y50999D01*
X192337Y54199D02*X195537D01*
X192337D02*Y50999D01*
X195537D01*
Y54199D02*Y50999D01*
X79896Y132703D02*X83096D01*
X79896D02*Y129503D01*
X83096D01*
Y132703D02*Y129503D01*
X49896Y132703D02*X53096D01*
X49896D02*Y129503D01*
X53096D01*
Y132703D02*Y129503D01*
X20841Y151206D02*X24041D01*
X20841D02*Y148006D01*
X24041D01*
Y151206D02*Y148006D01*
X20841Y121206D02*X24041D01*
X20841D02*Y118006D01*
X24041D01*
Y121206D02*Y118006D01*
X29896Y121285D02*X33096D01*
X29896D02*Y118085D01*
X33096D01*
Y121285D02*Y118085D01*
X29896Y151285D02*X33096D01*
X29896D02*Y148085D01*
X33096D01*
Y151285D02*Y148085D01*
X222022Y83096D02*X225222D01*
X222022D02*Y79896D01*
X225222D01*
Y83096D02*Y79896D01*
X222022Y73096D02*X225222D01*
X222022D02*Y69896D01*
X225222D01*
Y73096D02*Y69896D01*
X212022Y83096D02*X215222D01*
X212022D02*Y79896D01*
X215222D01*
Y83096D02*Y79896D01*
X212022Y73096D02*X215222D01*
X212022D02*Y69896D01*
X215222D01*
Y73096D02*Y69896D01*
X202022Y83096D02*X205222D01*
X202022D02*Y79896D01*
X205222D01*
Y83096D02*Y79896D01*
X202022Y73096D02*X205222D01*
X202022D02*Y69896D01*
X205222D01*
Y73096D02*Y69896D01*
X192022Y83096D02*X195222D01*
X192022D02*Y79896D01*
X195222D01*
Y83096D02*Y79896D01*
X192022Y73096D02*X195222D01*
X192022D02*Y69896D01*
X195222D01*
Y73096D02*Y69896D01*
X182022Y83096D02*X185222D01*
X182022D02*Y79896D01*
X185222D01*
Y83096D02*Y79896D01*
X182022Y73096D02*X185222D01*
X182022D02*Y69896D01*
X185222D01*
Y73096D02*Y69896D01*
X13400Y185330D02*X16600D01*
X13400D02*Y182130D01*
X16600D01*
Y185330D02*Y182130D01*
X135000Y185980D02*Y185230D01*
X136500Y183730D01*
X138000Y185230D01*
Y185980D02*Y185230D01*
X136500Y183730D02*Y179980D01*
X139801Y182980D02*X142051D01*
X139801Y179980D02*X142801D01*
X139801Y185980D02*Y179980D01*
Y185980D02*X142801D01*
X147603D02*X148353Y185230D01*
X145353Y185980D02*X147603D01*
X144603Y185230D02*X145353Y185980D01*
X144603Y185230D02*Y183730D01*
X145353Y182980D01*
X147603D01*
X148353Y182230D01*
Y180730D01*
X147603Y179980D02*X148353Y180730D01*
X145353Y179980D02*X147603D01*
X144603Y180730D02*X145353Y179980D01*
X135000Y176729D02*X150154D01*
X98000Y185230D02*X98750Y185980D01*
X100250D01*
X101000Y185230D01*
Y180730D01*
X100250Y179980D02*X101000Y180730D01*
X98750Y179980D02*X100250D01*
X98000Y180730D02*X98750Y179980D01*
Y182980D02*X101000D01*
X102801Y180730D02*X103551Y179980D01*
X102801Y182230D02*Y180730D01*
Y182230D02*X103551Y182980D01*
X105051D01*
X105801Y182230D01*
Y180730D01*
X105051Y179980D02*X105801Y180730D01*
X103551Y179980D02*X105051D01*
X102801Y183730D02*X103551Y182980D01*
X102801Y185230D02*Y183730D01*
Y185230D02*X103551Y185980D01*
X105051D01*
X105801Y185230D01*
Y183730D01*
X105051Y182980D02*X105801Y183730D01*
X98000Y176729D02*X107603D01*
X45000Y180730D02*X45750Y179980D01*
X45000Y185230D02*Y180730D01*
Y185230D02*X45750Y185980D01*
X47250D01*
X48000Y185230D01*
Y180730D01*
X47250Y179980D02*X48000Y180730D01*
X45750Y179980D02*X47250D01*
X45000Y181480D02*X48000Y184480D01*
X49801Y179980D02*X50551D01*
X52353Y180730D02*X53103Y179980D01*
X52353Y185230D02*Y180730D01*
Y185230D02*X53103Y185980D01*
X54603D01*
X55353Y185230D01*
Y180730D01*
X54603Y179980D02*X55353Y180730D01*
X53103Y179980D02*X54603D01*
X52353Y181480D02*X55353Y184480D01*
X57154Y185230D02*X57904Y185980D01*
X59404D01*
X60154Y185230D01*
Y180730D01*
X59404Y179980D02*X60154Y180730D01*
X57904Y179980D02*X59404D01*
X57154Y180730D02*X57904Y179980D01*
Y182980D02*X60154D01*
X61956Y180730D02*X62706Y179980D01*
X61956Y182230D02*Y180730D01*
Y182230D02*X62706Y182980D01*
X64206D01*
X64956Y182230D01*
Y180730D01*
X64206Y179980D02*X64956Y180730D01*
X62706Y179980D02*X64206D01*
X61956Y183730D02*X62706Y182980D01*
X61956Y185230D02*Y183730D01*
Y185230D02*X62706Y185980D01*
X64206D01*
X64956Y185230D01*
Y183730D01*
X64206Y182980D02*X64956Y183730D01*
X45000Y176729D02*X66757D01*
X109437Y18110D02*G75*G03X111037Y18110I800J0D01*G01*
G75*G03X109437Y18110I-800J0D01*G01*
X76366Y20078D02*G75*G03X77966Y20078I800J0D01*G01*
G75*G03X76366Y20078I-800J0D01*G01*
X173216Y136220D02*G75*G03X174816Y136220I800J0D01*G01*
G75*G03X173216Y136220I-800J0D01*G01*
X168097Y126377D02*G75*G03X169697Y126377I800J0D01*G01*
G75*G03X168097Y126377I-800J0D01*G01*
X159436Y103149D02*G75*G03X161036Y103149I800J0D01*G01*
G75*G03X159436Y103149I-800J0D01*G01*
X85814Y59055D02*G75*G03X87414Y59055I800J0D01*G01*
G75*G03X85814Y59055I-800J0D01*G01*
X168885Y50787D02*G75*G03X170485Y50787I800J0D01*G01*
G75*G03X168885Y50787I-800J0D01*G01*
X48806Y46063D02*G75*G03X50406Y46063I800J0D01*G01*
G75*G03X48806Y46063I-800J0D01*G01*
X161405Y24803D02*G75*G03X163005Y24803I800J0D01*G01*
G75*G03X161405Y24803I-800J0D01*G01*
X129909Y131496D02*G75*G03X131509Y131496I800J0D01*G01*
G75*G03X129909Y131496I-800J0D01*G01*
X47625Y148426D02*G75*G03X49225Y148426I800J0D01*G01*
G75*G03X47625Y148426I-800J0D01*G01*
X133846Y145275D02*G75*G03X135446Y145275I800J0D01*G01*
G75*G03X133846Y145275I-800J0D01*G01*
X85026Y12205D02*G75*G03X86626Y12205I800J0D01*G01*
G75*G03X85026Y12205I-800J0D01*G01*
X153531Y151968D02*G75*G03X155131Y151968I800J0D01*G01*
G75*G03X153531Y151968I-800J0D01*G01*
X42902Y142913D02*G75*G03X44502Y142913I800J0D01*G01*
G75*G03X42902Y142913I-800J0D01*G01*
X15342Y72047D02*G75*G03X16942Y72047I800J0D01*G01*
G75*G03X15342Y72047I-800J0D01*G01*
X212586Y41732D02*G75*G03X214186Y41732I800J0D01*G01*
G75*G03X212586Y41732I-800J0D01*G01*
X215735Y33071D02*G75*G03X217335Y33071I800J0D01*G01*
G75*G03X215735Y33071I-800J0D01*G01*
X66917Y132676D02*G75*G03X68517Y132676I800J0D01*G01*
G75*G03X66917Y132676I-800J0D01*G01*
X39751Y44094D02*G75*G03X41351Y44094I800J0D01*G01*
G75*G03X39751Y44094I-800J0D01*G01*
X170460Y18110D02*G75*G03X172060Y18110I800J0D01*G01*
G75*G03X170460Y18110I-800J0D01*G01*
X185420Y25984D02*G75*G03X187020Y25984I800J0D01*G01*
G75*G03X185420Y25984I-800J0D01*G01*
X48019Y100000D02*G75*G03X49619Y100000I800J0D01*G01*
G75*G03X48019Y100000I-800J0D01*G01*
X40145Y89763D02*G75*G03X41745Y89763I800J0D01*G01*
G75*G03X40145Y89763I-800J0D01*G01*
X27546Y65748D02*G75*G03X29146Y65748I800J0D01*G01*
G75*G03X27546Y65748I-800J0D01*G01*
X155853Y36140D02*G75*G03X157453Y36140I800J0D01*G01*
G75*G03X155853Y36140I-800J0D01*G01*
X14200Y198730D02*G75*G03X15800Y198730I800J0D01*G01*
G75*G03X14200Y198730I-800J0D01*G01*
X135000Y200980D02*Y200230D01*
X136500Y198730D01*
X138000Y200230D01*
Y200980D02*Y200230D01*
X136500Y198730D02*Y194980D01*
X139801Y197980D02*X142051D01*
X139801Y194980D02*X142801D01*
X139801Y200980D02*Y194980D01*
Y200980D02*X142801D01*
X147603D02*X148353Y200230D01*
X145353Y200980D02*X147603D01*
X144603Y200230D02*X145353Y200980D01*
X144603Y200230D02*Y198730D01*
X145353Y197980D01*
X147603D01*
X148353Y197230D01*
Y195730D01*
X147603Y194980D02*X148353Y195730D01*
X145353Y194980D02*X147603D01*
X144603Y195730D02*X145353Y194980D01*
X135000Y191729D02*X150154D01*
X98000Y200230D02*X98750Y200980D01*
X101000D01*
X101750Y200230D01*
Y198730D01*
X98000Y194980D02*X101750Y198730D01*
X98000Y194980D02*X101750D01*
X105801Y200980D02*X106551Y200230D01*
X104301Y200980D02*X105801D01*
X103551Y200230D02*X104301Y200980D01*
X103551Y200230D02*Y195730D01*
X104301Y194980D01*
X105801Y197980D02*X106551Y197230D01*
X103551Y197980D02*X105801D01*
X104301Y194980D02*X105801D01*
X106551Y195730D01*
Y197230D02*Y195730D01*
X98000Y191729D02*X108353D01*
X45000Y195730D02*X45750Y194980D01*
X45000Y200230D02*Y195730D01*
Y200230D02*X45750Y200980D01*
X47250D01*
X48000Y200230D01*
Y195730D01*
X47250Y194980D02*X48000Y195730D01*
X45750Y194980D02*X47250D01*
X45000Y196480D02*X48000Y199480D01*
X49801Y194980D02*X50551D01*
X52353Y195730D02*X53103Y194980D01*
X52353Y200230D02*Y195730D01*
Y200230D02*X53103Y200980D01*
X54603D01*
X55353Y200230D01*
Y195730D01*
X54603Y194980D02*X55353Y195730D01*
X53103Y194980D02*X54603D01*
X52353Y196480D02*X55353Y199480D01*
X57154Y200230D02*X57904Y200980D01*
X59404D01*
X60154Y200230D01*
Y195730D01*
X59404Y194980D02*X60154Y195730D01*
X57904Y194980D02*X59404D01*
X57154Y195730D02*X57904Y194980D01*
Y197980D02*X60154D01*
X61956Y200980D02*X64956D01*
X61956D02*Y197980D01*
X62706Y198730D01*
X64206D01*
X64956Y197980D01*
Y195730D01*
X64206Y194980D02*X64956Y195730D01*
X62706Y194980D02*X64206D01*
X61956Y195730D02*X62706Y194980D01*
X45000Y191729D02*X66757D01*
X125572Y120098D02*X127972Y117698D01*
X125572D02*X127972Y120098D01*
X125572Y140098D02*X127972Y137698D01*
X125572D02*X127972Y140098D01*
X13800Y214930D02*X16200Y212530D01*
X13800D02*X16200Y214930D01*
X135000Y215980D02*Y215230D01*
X136500Y213730D01*
X138000Y215230D01*
Y215980D02*Y215230D01*
X136500Y213730D02*Y209980D01*
X139801Y212980D02*X142051D01*
X139801Y209980D02*X142801D01*
X139801Y215980D02*Y209980D01*
Y215980D02*X142801D01*
X147603D02*X148353Y215230D01*
X145353Y215980D02*X147603D01*
X144603Y215230D02*X145353Y215980D01*
X144603Y215230D02*Y213730D01*
X145353Y212980D01*
X147603D01*
X148353Y212230D01*
Y210730D01*
X147603Y209980D02*X148353Y210730D01*
X145353Y209980D02*X147603D01*
X144603Y210730D02*X145353Y209980D01*
X135000Y206729D02*X150154D01*
X98000Y215230D02*X98750Y215980D01*
X101000D01*
X101750Y215230D01*
Y213730D01*
X98000Y209980D02*X101750Y213730D01*
X98000Y209980D02*X101750D01*
X98000Y206729D02*X103551D01*
X45000Y210730D02*X45750Y209980D01*
X45000Y215230D02*Y210730D01*
Y215230D02*X45750Y215980D01*
X47250D01*
X48000Y215230D01*
Y210730D01*
X47250Y209980D02*X48000Y210730D01*
X45750Y209980D02*X47250D01*
X45000Y211480D02*X48000Y214480D01*
X49801Y209980D02*X50551D01*
X52353Y210730D02*X53103Y209980D01*
X52353Y215230D02*Y210730D01*
Y215230D02*X53103Y215980D01*
X54603D01*
X55353Y215230D01*
Y210730D01*
X54603Y209980D02*X55353Y210730D01*
X53103Y209980D02*X54603D01*
X52353Y211480D02*X55353Y214480D01*
X57154Y215230D02*X57904Y215980D01*
X60154D01*
X60904Y215230D01*
Y213730D01*
X57154Y209980D02*X60904Y213730D01*
X57154Y209980D02*X60904D01*
X62706Y215980D02*X65706D01*
X62706D02*Y212980D01*
X63456Y213730D01*
X64956D01*
X65706Y212980D01*
Y210730D01*
X64956Y209980D02*X65706Y210730D01*
X63456Y209980D02*X64956D01*
X62706Y210730D02*X63456Y209980D01*
X45000Y206729D02*X67507D01*
X23229Y53135D02*Y49935D01*
X21629Y51535D02*X24829D01*
X23229Y48135D02*Y44935D01*
X21629Y46535D02*X24829D01*
X23229Y43135D02*Y39935D01*
X21629Y41535D02*X24829D01*
X23229Y38135D02*Y34935D01*
X21629Y36535D02*X24829D01*
X23229Y33135D02*Y29935D01*
X21629Y31535D02*X24829D01*
X23229Y28135D02*Y24935D01*
X21629Y26535D02*X24829D01*
X23229Y23135D02*Y19935D01*
X21629Y21535D02*X24829D01*
X23229Y18135D02*Y14935D01*
X21629Y16535D02*X24829D01*
X15000Y230330D02*Y227130D01*
X13400Y228730D02*X16600D01*
X135000Y230980D02*Y230230D01*
X136500Y228730D01*
X138000Y230230D01*
Y230980D02*Y230230D01*
X136500Y228730D02*Y224980D01*
X139801Y227980D02*X142051D01*
X139801Y224980D02*X142801D01*
X139801Y230980D02*Y224980D01*
Y230980D02*X142801D01*
X147603D02*X148353Y230230D01*
X145353Y230980D02*X147603D01*
X144603Y230230D02*X145353Y230980D01*
X144603Y230230D02*Y228730D01*
X145353Y227980D01*
X147603D01*
X148353Y227230D01*
Y225730D01*
X147603Y224980D02*X148353Y225730D01*
X145353Y224980D02*X147603D01*
X144603Y225730D02*X145353Y224980D01*
X135000Y221729D02*X150154D01*
X98000Y225730D02*X98750Y224980D01*
X98000Y227230D02*Y225730D01*
Y227230D02*X98750Y227980D01*
X100250D01*
X101000Y227230D01*
Y225730D01*
X100250Y224980D02*X101000Y225730D01*
X98750Y224980D02*X100250D01*
X98000Y228730D02*X98750Y227980D01*
X98000Y230230D02*Y228730D01*
Y230230D02*X98750Y230980D01*
X100250D01*
X101000Y230230D01*
Y228730D01*
X100250Y227980D02*X101000Y228730D01*
X98000Y221729D02*X102801D01*
X45000Y225730D02*X45750Y224980D01*
X45000Y230230D02*Y225730D01*
Y230230D02*X45750Y230980D01*
X47250D01*
X48000Y230230D01*
Y225730D01*
X47250Y224980D02*X48000Y225730D01*
X45750Y224980D02*X47250D01*
X45000Y226480D02*X48000Y229480D01*
X49801Y224980D02*X50551D01*
X52353Y225730D02*X53103Y224980D01*
X52353Y230230D02*Y225730D01*
Y230230D02*X53103Y230980D01*
X54603D01*
X55353Y230230D01*
Y225730D01*
X54603Y224980D02*X55353Y225730D01*
X53103Y224980D02*X54603D01*
X52353Y226480D02*X55353Y229480D01*
X57154Y230230D02*X57904Y230980D01*
X60154D01*
X60904Y230230D01*
Y228730D01*
X57154Y224980D02*X60904Y228730D01*
X57154Y224980D02*X60904D01*
X63456D02*X64956D01*
X64206Y230980D02*Y224980D01*
X62706Y229480D02*X64206Y230980D01*
X45000Y221729D02*X66757D01*
X139763Y98031D02*Y96431D01*
Y98031D02*X141149Y98831D01*
X139763Y98031D02*X138377Y98831D01*
X120079Y47637D02*Y46037D01*
Y47637D02*X121465Y48437D01*
X120079Y47637D02*X118693Y48437D01*
X204330Y95275D02*Y93675D01*
Y95275D02*X205716Y96075D01*
X204330Y95275D02*X202944Y96075D01*
X179134Y129921D02*Y128321D01*
Y129921D02*X180520Y130721D01*
X179134Y129921D02*X177748Y130721D01*
X207479Y109842D02*Y108242D01*
Y109842D02*X208865Y110642D01*
X207479Y109842D02*X206093Y110642D01*
X208267Y116141D02*Y114541D01*
Y116141D02*X209653Y116941D01*
X208267Y116141D02*X206881Y116941D01*
X201574Y120472D02*Y118872D01*
Y120472D02*X202960Y121272D01*
X201574Y120472D02*X200188Y121272D01*
X209054Y100393D02*Y98793D01*
Y100393D02*X210440Y101193D01*
X209054Y100393D02*X207668Y101193D01*
X183070Y94094D02*Y92494D01*
Y94094D02*X184456Y94894D01*
X183070Y94094D02*X181684Y94894D01*
X84252Y144488D02*Y142888D01*
Y144488D02*X85638Y145288D01*
X84252Y144488D02*X82866Y145288D01*
X163780Y122441D02*Y120841D01*
Y122441D02*X165166Y123241D01*
X163780Y122441D02*X162394Y123241D01*
X153543Y111417D02*Y109817D01*
Y111417D02*X154929Y112217D01*
X153543Y111417D02*X152157Y112217D01*
X116929Y28740D02*Y27140D01*
Y28740D02*X118315Y29540D01*
X116929Y28740D02*X115543Y29540D01*
X79921Y119685D02*Y118085D01*
Y119685D02*X81307Y120485D01*
X79921Y119685D02*X78535Y120485D01*
X115355Y120866D02*Y119266D01*
Y120866D02*X116741Y121666D01*
X115355Y120866D02*X113969Y121666D01*
X111418Y131496D02*Y129896D01*
Y131496D02*X112804Y132296D01*
X111418Y131496D02*X110032Y132296D01*
X77953Y136220D02*Y134620D01*
Y136220D02*X79339Y137020D01*
X77953Y136220D02*X76567Y137020D01*
X165748Y83464D02*Y81864D01*
Y83464D02*X167134Y84264D01*
X165748Y83464D02*X164362Y84264D01*
X74409Y147243D02*Y145643D01*
Y147243D02*X75795Y148043D01*
X74409Y147243D02*X73023Y148043D01*
X111024Y125197D02*Y123597D01*
Y125197D02*X112410Y125997D01*
X111024Y125197D02*X109638Y125997D01*
X101181Y128346D02*Y126746D01*
Y128346D02*X102567Y129146D01*
X101181Y128346D02*X99795Y129146D01*
X123622Y81496D02*Y79896D01*
Y81496D02*X125008Y82296D01*
X123622Y81496D02*X122236Y82296D01*
X95276Y131496D02*Y129896D01*
Y131496D02*X96662Y132296D01*
X95276Y131496D02*X93890Y132296D01*
X115354Y148031D02*Y146431D01*
Y148031D02*X116740Y148831D01*
X115354Y148031D02*X113968Y148831D01*
X153937Y104330D02*Y102730D01*
Y104330D02*X155323Y105130D01*
X153937Y104330D02*X152551Y105130D01*
X138583Y54763D02*Y53163D01*
Y54763D02*X139969Y55563D01*
X138583Y54763D02*X137197Y55563D01*
X180315Y114960D02*Y113360D01*
Y114960D02*X181701Y115760D01*
X180315Y114960D02*X178929Y115760D01*
X109449Y60630D02*Y59030D01*
Y60630D02*X110835Y61430D01*
X109449Y60630D02*X108063Y61430D01*
X128740Y54330D02*Y52730D01*
Y54330D02*X130126Y55130D01*
X128740Y54330D02*X127354Y55130D01*
X134252Y65748D02*Y64148D01*
Y65748D02*X135638Y66548D01*
X134252Y65748D02*X132866Y66548D01*
X82677Y99251D02*Y97651D01*
Y99251D02*X84063Y100051D01*
X82677Y99251D02*X81291Y100051D01*
X64567Y62598D02*Y60998D01*
Y62598D02*X65953Y63398D01*
X64567Y62598D02*X63181Y63398D01*
X144488Y66141D02*Y64541D01*
Y66141D02*X145874Y66941D01*
X144488Y66141D02*X143102Y66941D01*
X149213Y96456D02*Y94856D01*
Y96456D02*X150599Y97256D01*
X149213Y96456D02*X147827Y97256D01*
X181890Y100000D02*Y98400D01*
Y100000D02*X183276Y100800D01*
X181890Y100000D02*X180504Y100800D01*
X181103Y58661D02*Y57061D01*
Y58661D02*X182489Y59461D01*
X181103Y58661D02*X179717Y59461D01*
X130944Y96024D02*Y94424D01*
Y96024D02*X132330Y96824D01*
X130944Y96024D02*X129558Y96824D01*
X164173Y139763D02*Y138163D01*
Y139763D02*X165559Y140563D01*
X164173Y139763D02*X162787Y140563D01*
X204723Y104330D02*Y102730D01*
Y104330D02*X206109Y105130D01*
X204723Y104330D02*X203337Y105130D01*
X15355Y101181D02*Y99581D01*
Y101181D02*X16741Y101981D01*
X15355Y101181D02*X13969Y101981D01*
X151968Y46850D02*Y45250D01*
Y46850D02*X153354Y47650D01*
X151968Y46850D02*X150582Y47650D01*
X69291Y67322D02*Y65722D01*
Y67322D02*X70677Y68122D01*
X69291Y67322D02*X67905Y68122D01*
X159055Y60630D02*Y59030D01*
Y60630D02*X160441Y61430D01*
X159055Y60630D02*X157669Y61430D01*
X109528Y95669D02*Y94069D01*
Y95669D02*X110914Y96469D01*
X109528Y95669D02*X108142Y96469D01*
X85434Y120472D02*Y118872D01*
Y120472D02*X86820Y121272D01*
X85434Y120472D02*X84048Y121272D01*
X69685Y102756D02*Y101156D01*
Y102756D02*X71071Y103556D01*
X69685Y102756D02*X68299Y103556D01*
X148425Y11023D02*Y9423D01*
Y11023D02*X149811Y11823D01*
X148425Y11023D02*X147039Y11823D01*
X122047Y14567D02*Y12967D01*
Y14567D02*X123433Y15367D01*
X122047Y14567D02*X120661Y15367D01*
X139370Y65747D02*Y64147D01*
Y65747D02*X140756Y66547D01*
X139370Y65747D02*X137984Y66547D01*
X120866Y91732D02*Y90132D01*
Y91732D02*X122252Y92532D01*
X120866Y91732D02*X119480Y92532D01*
X137008Y47244D02*Y45644D01*
Y47244D02*X138394Y48044D01*
X137008Y47244D02*X135622Y48044D01*
X120472Y86220D02*Y84620D01*
Y86220D02*X121858Y87020D01*
X120472Y86220D02*X119086Y87020D01*
X68898Y53937D02*Y52337D01*
Y53937D02*X70284Y54737D01*
X68898Y53937D02*X67512Y54737D01*
X126615Y99016D02*Y97416D01*
Y99016D02*X128001Y99816D01*
X126615Y99016D02*X125229Y99816D01*
X81811Y68857D02*Y67257D01*
Y68857D02*X83197Y69657D01*
X81811Y68857D02*X80425Y69657D01*
X171260Y79134D02*Y77534D01*
Y79134D02*X172646Y79934D01*
X171260Y79134D02*X169874Y79934D01*
X165354Y88582D02*Y86982D01*
Y88582D02*X166740Y89382D01*
X165354Y88582D02*X163968Y89382D01*
X133465Y119291D02*Y117691D01*
Y119291D02*X134851Y120091D01*
X133465Y119291D02*X132079Y120091D01*
X104331Y112598D02*Y110998D01*
Y112598D02*X105717Y113398D01*
X104331Y112598D02*X102945Y113398D01*
X149213Y77952D02*Y76352D01*
Y77952D02*X150599Y78752D01*
X149213Y77952D02*X147827Y78752D01*
X146457Y82283D02*Y80683D01*
Y82283D02*X147843Y83083D01*
X146457Y82283D02*X145071Y83083D01*
X154331Y82283D02*Y80683D01*
Y82283D02*X155717Y83083D01*
X154331Y82283D02*X152945Y83083D01*
X148425Y87401D02*Y85801D01*
Y87401D02*X149811Y88201D01*
X148425Y87401D02*X147039Y88201D01*
X159843Y127559D02*Y125959D01*
Y127559D02*X161229Y128359D01*
X159843Y127559D02*X158457Y128359D01*
X102362Y91732D02*Y90132D01*
Y91732D02*X103748Y92532D01*
X102362Y91732D02*X100976Y92532D01*
X163780Y113386D02*Y111786D01*
Y113386D02*X165166Y114186D01*
X163780Y113386D02*X162394Y114186D01*
X174016Y110236D02*Y108636D01*
Y110236D02*X175402Y111036D01*
X174016Y110236D02*X172630Y111036D01*
X131102Y11025D02*Y9425D01*
Y11025D02*X132488Y11825D01*
X131102Y11025D02*X129716Y11825D01*
X120472Y74015D02*Y72415D01*
Y74015D02*X121858Y74815D01*
X120472Y74015D02*X119086Y74815D01*
X69291Y48819D02*Y47219D01*
Y48819D02*X70677Y49619D01*
X69291Y48819D02*X67905Y49619D01*
X90945Y147637D02*Y146037D01*
Y147637D02*X92331Y148437D01*
X90945Y147637D02*X89559Y148437D01*
X31889Y36614D02*Y35014D01*
Y36614D02*X33275Y37414D01*
X31889Y36614D02*X30503Y37414D01*
X120866Y145275D02*Y143675D01*
Y145275D02*X122252Y146075D01*
X120866Y145275D02*X119480Y146075D01*
X9055Y43700D02*Y42100D01*
Y43700D02*X10441Y44500D01*
X9055Y43700D02*X7669Y44500D01*
X38583Y119685D02*Y118085D01*
Y119685D02*X39969Y120485D01*
X38583Y119685D02*X37197Y120485D01*
X219291Y92126D02*Y90526D01*
Y92126D02*X220677Y92926D01*
X219291Y92126D02*X217905Y92926D01*
X41732Y114960D02*Y113360D01*
Y114960D02*X43118Y115760D01*
X41732Y114960D02*X40346Y115760D01*
X12992Y115748D02*Y114148D01*
Y115748D02*X14378Y116548D01*
X12992Y115748D02*X11606Y116548D01*
X67323Y39763D02*Y38163D01*
Y39763D02*X68709Y40563D01*
X67323Y39763D02*X65937Y40563D01*
X86220Y82677D02*Y81077D01*
Y82677D02*X87606Y83477D01*
X86220Y82677D02*X84834Y83477D01*
X90551Y98818D02*Y97218D01*
Y98818D02*X91937Y99618D01*
X90551Y98818D02*X89165Y99618D01*
X81496Y90551D02*Y88951D01*
Y90551D02*X82882Y91351D01*
X81496Y90551D02*X80110Y91351D01*
X71024Y114961D02*Y113361D01*
Y114961D02*X72410Y115761D01*
X71024Y114961D02*X69638Y115761D01*
X70866Y109055D02*Y107455D01*
Y109055D02*X72252Y109855D01*
X70866Y109055D02*X69480Y109855D01*
X69291Y93307D02*Y91707D01*
Y93307D02*X70677Y94107D01*
X69291Y93307D02*X67905Y94107D01*
X71654Y88189D02*Y86589D01*
Y88189D02*X73040Y88989D01*
X71654Y88189D02*X70268Y88989D01*
X176772Y39763D02*Y38163D01*
Y39763D02*X178158Y40563D01*
X176772Y39763D02*X175386Y40563D01*
X91732Y92913D02*Y91313D01*
Y92913D02*X93118Y93713D01*
X91732Y92913D02*X90346Y93713D01*
X91732Y71653D02*Y70053D01*
Y71653D02*X93118Y72453D01*
X91732Y71653D02*X90346Y72453D01*
X69291Y72834D02*Y71234D01*
Y72834D02*X70677Y73634D01*
X69291Y72834D02*X67905Y73634D01*
X125196Y50277D02*Y48677D01*
Y50277D02*X126582Y51077D01*
X125196Y50277D02*X123810Y51077D01*
X91732Y114173D02*Y112573D01*
Y114173D02*X93118Y114973D01*
X91732Y114173D02*X90346Y114973D01*
X90551Y78740D02*Y77140D01*
Y78740D02*X91937Y79540D01*
X90551Y78740D02*X89165Y79540D01*
X77165Y5905D02*Y4305D01*
Y5905D02*X78551Y6705D01*
X77165Y5905D02*X75779Y6705D01*
X109528Y89763D02*Y88163D01*
Y89763D02*X110914Y90563D01*
X109528Y89763D02*X108142Y90563D01*
X90945Y136220D02*Y134620D01*
Y136220D02*X92331Y137020D01*
X90945Y136220D02*X89559Y137020D01*
X122047Y130315D02*Y128715D01*
Y130315D02*X123433Y131115D01*
X122047Y130315D02*X120661Y131115D01*
X154291Y70000D02*Y68400D01*
Y70000D02*X155677Y70800D01*
X154291Y70000D02*X152905Y70800D01*
X81890Y113386D02*Y111786D01*
Y113386D02*X83276Y114186D01*
X81890Y113386D02*X80504Y114186D01*
X84252Y104724D02*Y103124D01*
Y104724D02*X85638Y105524D01*
X84252Y104724D02*X82866Y105524D01*
X166929Y59449D02*Y57849D01*
Y59449D02*X168315Y60249D01*
X166929Y59449D02*X165543Y60249D01*
X68898Y25196D02*Y23596D01*
Y25196D02*X70284Y25996D01*
X68898Y25196D02*X67512Y25996D01*
X81496Y37795D02*Y36195D01*
Y37795D02*X82882Y38595D01*
X81496Y37795D02*X80110Y38595D01*
X40157Y124803D02*Y123203D01*
Y124803D02*X41543Y125603D01*
X40157Y124803D02*X38771Y125603D01*
X48425Y35039D02*Y33439D01*
Y35039D02*X49811Y35839D01*
X48425Y35039D02*X47039Y35839D01*
X31889Y42126D02*Y40526D01*
Y42126D02*X33275Y42926D01*
X31889Y42126D02*X30503Y42926D01*
X61417Y115748D02*Y114148D01*
Y115748D02*X62803Y116548D01*
X61417Y115748D02*X60031Y116548D01*
X82677Y77952D02*Y76352D01*
Y77952D02*X84063Y78752D01*
X82677Y77952D02*X81291Y78752D01*
X102362Y79527D02*Y77927D01*
Y79527D02*X103748Y80327D01*
X102362Y79527D02*X100976Y80327D01*
X101575Y101181D02*Y99581D01*
Y101181D02*X102961Y101981D01*
X101575Y101181D02*X100189Y101981D01*
X113386Y102362D02*Y100762D01*
Y102362D02*X114772Y103162D01*
X113386Y102362D02*X112000Y103162D01*
X172047Y69290D02*Y67690D01*
Y69290D02*X173433Y70090D01*
X172047Y69290D02*X170661Y70090D01*
X76772Y61417D02*Y59817D01*
Y61417D02*X78158Y62217D01*
X76772Y61417D02*X75386Y62217D01*
X66535Y78740D02*Y77140D01*
Y78740D02*X67921Y79540D01*
X66535Y78740D02*X65149Y79540D01*
X108268Y145118D02*Y143518D01*
Y145118D02*X109654Y145918D01*
X108268Y145118D02*X106882Y145918D01*
X19291Y64173D02*Y62573D01*
Y64173D02*X20677Y64973D01*
X19291Y64173D02*X17905Y64973D01*
X15748Y60236D02*Y58636D01*
Y60236D02*X17134Y61036D01*
X15748Y60236D02*X14362Y61036D01*
X18898Y84645D02*Y83045D01*
Y84645D02*X20284Y85445D01*
X18898Y84645D02*X17512Y85445D01*
X28346Y103937D02*Y102337D01*
Y103937D02*X29732Y104737D01*
X28346Y103937D02*X26960Y104737D01*
X19685Y105905D02*Y104305D01*
Y105905D02*X21071Y106705D01*
X19685Y105905D02*X18299Y106705D01*
X34134Y83819D02*Y82219D01*
Y83819D02*X35520Y84619D01*
X34134Y83819D02*X32748Y84619D01*
X48426Y23622D02*Y22022D01*
Y23622D02*X49812Y24422D01*
X48426Y23622D02*X47040Y24422D01*
X15000Y243730D02*Y242130D01*
Y243730D02*X16386Y244530D01*
X15000Y243730D02*X13614Y244530D01*
X135000Y245980D02*Y245230D01*
X136500Y243730D01*
X138000Y245230D01*
Y245980D02*Y245230D01*
X136500Y243730D02*Y239980D01*
X139801Y242980D02*X142051D01*
X139801Y239980D02*X142801D01*
X139801Y245980D02*Y239980D01*
Y245980D02*X142801D01*
X147603D02*X148353Y245230D01*
X145353Y245980D02*X147603D01*
X144603Y245230D02*X145353Y245980D01*
X144603Y245230D02*Y243730D01*
X145353Y242980D01*
X147603D01*
X148353Y242230D01*
Y240730D01*
X147603Y239980D02*X148353Y240730D01*
X145353Y239980D02*X147603D01*
X144603Y240730D02*X145353Y239980D01*
X135000Y236729D02*X150154D01*
X98750Y239980D02*X100250D01*
X99500Y245980D02*Y239980D01*
X98000Y244480D02*X99500Y245980D01*
X102051Y245230D02*X102801Y245980D01*
X105051D01*
X105801Y245230D01*
Y243730D01*
X102051Y239980D02*X105801Y243730D01*
X102051Y239980D02*X105801D01*
X107603Y245230D02*X108353Y245980D01*
X110603D01*
X111353Y245230D01*
Y243730D01*
X107603Y239980D02*X111353Y243730D01*
X107603Y239980D02*X111353D01*
X98000Y236729D02*X113154D01*
X45000Y240730D02*X45750Y239980D01*
X45000Y245230D02*Y240730D01*
Y245230D02*X45750Y245980D01*
X47250D01*
X48000Y245230D01*
Y240730D01*
X47250Y239980D02*X48000Y240730D01*
X45750Y239980D02*X47250D01*
X45000Y241480D02*X48000Y244480D01*
X49801Y239980D02*X50551D01*
X52353Y240730D02*X53103Y239980D01*
X52353Y245230D02*Y240730D01*
Y245230D02*X53103Y245980D01*
X54603D01*
X55353Y245230D01*
Y240730D01*
X54603Y239980D02*X55353Y240730D01*
X53103Y239980D02*X54603D01*
X52353Y241480D02*X55353Y244480D01*
X57154Y245230D02*X57904Y245980D01*
X60154D01*
X60904Y245230D01*
Y243730D01*
X57154Y239980D02*X60904Y243730D01*
X57154Y239980D02*X60904D01*
X62706Y240730D02*X63456Y239980D01*
X62706Y245230D02*Y240730D01*
Y245230D02*X63456Y245980D01*
X64956D01*
X65706Y245230D01*
Y240730D01*
X64956Y239980D02*X65706Y240730D01*
X63456Y239980D02*X64956D01*
X62706Y241480D02*X65706Y244480D01*
X45000Y236729D02*X67507D01*
X3000Y260980D02*X3750Y260230D01*
X750Y260980D02*X3000D01*
X0Y260230D02*X750Y260980D01*
X0Y260230D02*Y258730D01*
X750Y257980D01*
X3000D01*
X3750Y257230D01*
Y255730D01*
X3000Y254980D02*X3750Y255730D01*
X750Y254980D02*X3000D01*
X0Y255730D02*X750Y254980D01*
X5551Y257980D02*Y255730D01*
X6301Y254980D01*
X8551Y257980D02*Y253480D01*
X7801Y252730D02*X8551Y253480D01*
X6301Y252730D02*X7801D01*
X5551Y253480D02*X6301Y252730D01*
Y254980D02*X7801D01*
X8551Y255730D01*
X11103Y257230D02*Y254980D01*
Y257230D02*X11853Y257980D01*
X12603D01*
X13353Y257230D01*
Y254980D01*
Y257230D02*X14103Y257980D01*
X14853D01*
X15603Y257230D01*
Y254980D01*
X10353Y257980D02*X11103Y257230D01*
X17404Y260980D02*Y254980D01*
Y255730D02*X18154Y254980D01*
X19654D01*
X20404Y255730D01*
Y257230D02*Y255730D01*
X19654Y257980D02*X20404Y257230D01*
X18154Y257980D02*X19654D01*
X17404Y257230D02*X18154Y257980D01*
X22206Y257230D02*Y255730D01*
Y257230D02*X22956Y257980D01*
X24456D01*
X25206Y257230D01*
Y255730D01*
X24456Y254980D02*X25206Y255730D01*
X22956Y254980D02*X24456D01*
X22206Y255730D02*X22956Y254980D01*
X27007Y260980D02*Y255730D01*
X27757Y254980D01*
X41750Y260980D02*Y254980D01*
X44000Y260980D02*X44750Y260230D01*
Y255730D01*
X44000Y254980D02*X44750Y255730D01*
X41000Y254980D02*X44000D01*
X41000Y260980D02*X44000D01*
X46551Y259480D02*Y258730D01*
Y257230D02*Y254980D01*
X50303Y257980D02*X51053Y257230D01*
X48803Y257980D02*X50303D01*
X48053Y257230D02*X48803Y257980D01*
X48053Y257230D02*Y255730D01*
X48803Y254980D01*
X51053Y257980D02*Y255730D01*
X51803Y254980D01*
X48803D02*X50303D01*
X51053Y255730D01*
X54354Y257230D02*Y254980D01*
Y257230D02*X55104Y257980D01*
X55854D01*
X56604Y257230D01*
Y254980D01*
Y257230D02*X57354Y257980D01*
X58104D01*
X58854Y257230D01*
Y254980D01*
X53604Y257980D02*X54354Y257230D01*
X60656Y254980D02*X61406D01*
X65907Y255730D02*X66657Y254980D01*
X65907Y260230D02*X66657Y260980D01*
X65907Y260230D02*Y255730D01*
X68459Y260980D02*X69959D01*
X69209D02*Y254980D01*
X68459D02*X69959D01*
X72510Y257230D02*Y254980D01*
Y257230D02*X73260Y257980D01*
X74010D01*
X74760Y257230D01*
Y254980D01*
X71760Y257980D02*X72510Y257230D01*
X77312Y257980D02*X79562D01*
X76562Y257230D02*X77312Y257980D01*
X76562Y257230D02*Y255730D01*
X77312Y254980D01*
X79562D01*
X81363Y260980D02*Y254980D01*
Y257230D02*X82113Y257980D01*
X83613D01*
X84363Y257230D01*
Y254980D01*
X86165Y260980D02*X86915Y260230D01*
Y255730D01*
X86165Y254980D02*X86915Y255730D01*
X95750Y254980D02*X98000D01*
X95000Y255730D02*X95750Y254980D01*
X95000Y260230D02*Y255730D01*
Y260230D02*X95750Y260980D01*
X98000D01*
X99801Y257230D02*Y255730D01*
Y257230D02*X100551Y257980D01*
X102051D01*
X102801Y257230D01*
Y255730D01*
X102051Y254980D02*X102801Y255730D01*
X100551Y254980D02*X102051D01*
X99801Y255730D02*X100551Y254980D01*
X104603Y257980D02*Y255730D01*
X105353Y254980D01*
X106853D01*
X107603Y255730D01*
Y257980D02*Y255730D01*
X110154Y257230D02*Y254980D01*
Y257230D02*X110904Y257980D01*
X111654D01*
X112404Y257230D01*
Y254980D01*
X109404Y257980D02*X110154Y257230D01*
X114956Y260980D02*Y255730D01*
X115706Y254980D01*
X114206Y258730D02*X115706D01*
X130750Y260980D02*Y254980D01*
X130000Y260980D02*X133000D01*
X133750Y260230D01*
Y258730D01*
X133000Y257980D02*X133750Y258730D01*
X130750Y257980D02*X133000D01*
X135551Y260980D02*Y255730D01*
X136301Y254980D01*
X140053Y257980D02*X140803Y257230D01*
X138553Y257980D02*X140053D01*
X137803Y257230D02*X138553Y257980D01*
X137803Y257230D02*Y255730D01*
X138553Y254980D01*
X140803Y257980D02*Y255730D01*
X141553Y254980D01*
X138553D02*X140053D01*
X140803Y255730D01*
X144104Y260980D02*Y255730D01*
X144854Y254980D01*
X143354Y258730D02*X144854D01*
X147106Y254980D02*X149356D01*
X146356Y255730D02*X147106Y254980D01*
X146356Y257230D02*Y255730D01*
Y257230D02*X147106Y257980D01*
X148606D01*
X149356Y257230D01*
X146356Y256480D02*X149356D01*
Y257230D02*Y256480D01*
X154157Y260980D02*Y254980D01*
X153407D02*X154157Y255730D01*
X151907Y254980D02*X153407D01*
X151157Y255730D02*X151907Y254980D01*
X151157Y257230D02*Y255730D01*
Y257230D02*X151907Y257980D01*
X153407D01*
X154157Y257230D01*
X157459Y257980D02*Y257230D01*
Y255730D02*Y254980D01*
X155959Y260230D02*Y259480D01*
Y260230D02*X156709Y260980D01*
X158209D01*
X158959Y260230D01*
Y259480D01*
X157459Y257980D02*X158959Y259480D01*
X0Y275980D02*X3000D01*
X1500D02*Y269980D01*
X4801Y275980D02*Y269980D01*
Y272230D02*X5551Y272980D01*
X7051D01*
X7801Y272230D01*
Y269980D01*
X10353D02*X12603D01*
X9603Y270730D02*X10353Y269980D01*
X9603Y272230D02*Y270730D01*
Y272230D02*X10353Y272980D01*
X11853D01*
X12603Y272230D01*
X9603Y271480D02*X12603D01*
Y272230D02*Y271480D01*
X15154Y272230D02*Y269980D01*
Y272230D02*X15904Y272980D01*
X17404D01*
X14404D02*X15154Y272230D01*
X19956Y269980D02*X22206D01*
X19206Y270730D02*X19956Y269980D01*
X19206Y272230D02*Y270730D01*
Y272230D02*X19956Y272980D01*
X21456D01*
X22206Y272230D01*
X19206Y271480D02*X22206D01*
Y272230D02*Y271480D01*
X28957Y272980D02*X29707Y272230D01*
X27457Y272980D02*X28957D01*
X26707Y272230D02*X27457Y272980D01*
X26707Y272230D02*Y270730D01*
X27457Y269980D01*
X29707Y272980D02*Y270730D01*
X30457Y269980D01*
X27457D02*X28957D01*
X29707Y270730D01*
X33009Y272230D02*Y269980D01*
Y272230D02*X33759Y272980D01*
X35259D01*
X32259D02*X33009Y272230D01*
X37810Y269980D02*X40060D01*
X37060Y270730D02*X37810Y269980D01*
X37060Y272230D02*Y270730D01*
Y272230D02*X37810Y272980D01*
X39310D01*
X40060Y272230D01*
X37060Y271480D02*X40060D01*
Y272230D02*Y271480D01*
X46812Y275980D02*X47562Y275230D01*
X45312Y275980D02*X46812D01*
X44562Y275230D02*X45312Y275980D01*
X44562Y275230D02*Y270730D01*
X45312Y269980D01*
X46812Y272980D02*X47562Y272230D01*
X44562Y272980D02*X46812D01*
X45312Y269980D02*X46812D01*
X47562Y270730D01*
Y272230D02*Y270730D01*
X55063Y275980D02*Y269980D01*
X54313D02*X55063Y270730D01*
X52813Y269980D02*X54313D01*
X52063Y270730D02*X52813Y269980D01*
X52063Y272230D02*Y270730D01*
Y272230D02*X52813Y272980D01*
X54313D01*
X55063Y272230D01*
X56865Y274480D02*Y273730D01*
Y272230D02*Y269980D01*
X59116Y275230D02*Y269980D01*
Y275230D02*X59866Y275980D01*
X60616D01*
X58366Y272980D02*X59866D01*
X62868Y275230D02*Y269980D01*
Y275230D02*X63618Y275980D01*
X64368D01*
X62118Y272980D02*X63618D01*
X66619Y269980D02*X68869D01*
X65869Y270730D02*X66619Y269980D01*
X65869Y272230D02*Y270730D01*
Y272230D02*X66619Y272980D01*
X68119D01*
X68869Y272230D01*
X65869Y271480D02*X68869D01*
Y272230D02*Y271480D01*
X71421Y272230D02*Y269980D01*
Y272230D02*X72171Y272980D01*
X73671D01*
X70671D02*X71421Y272230D01*
X76222Y269980D02*X78472D01*
X75472Y270730D02*X76222Y269980D01*
X75472Y272230D02*Y270730D01*
Y272230D02*X76222Y272980D01*
X77722D01*
X78472Y272230D01*
X75472Y271480D02*X78472D01*
Y272230D02*Y271480D01*
X81024Y272230D02*Y269980D01*
Y272230D02*X81774Y272980D01*
X82524D01*
X83274Y272230D01*
Y269980D01*
X80274Y272980D02*X81024Y272230D01*
X85825Y275980D02*Y270730D01*
X86575Y269980D01*
X85075Y273730D02*X86575D01*
X93777Y275980D02*Y269980D01*
X93027D02*X93777Y270730D01*
X91527Y269980D02*X93027D01*
X90777Y270730D02*X91527Y269980D01*
X90777Y272230D02*Y270730D01*
Y272230D02*X91527Y272980D01*
X93027D01*
X93777Y272230D01*
X96328D02*Y269980D01*
Y272230D02*X97078Y272980D01*
X98578D01*
X95578D02*X96328Y272230D01*
X100380Y274480D02*Y273730D01*
Y272230D02*Y269980D01*
X101881Y275980D02*Y270730D01*
X102631Y269980D01*
X104133Y275980D02*Y270730D01*
X104883Y269980D01*
X109834D02*X112084D01*
X112834Y270730D01*
X112084Y271480D02*X112834Y270730D01*
X109834Y271480D02*X112084D01*
X109084Y272230D02*X109834Y271480D01*
X109084Y272230D02*X109834Y272980D01*
X112084D01*
X112834Y272230D01*
X109084Y270730D02*X109834Y269980D01*
X114636Y274480D02*Y273730D01*
Y272230D02*Y269980D01*
X116137Y272980D02*X119137D01*
X116137Y269980D02*X119137Y272980D01*
X116137Y269980D02*X119137D01*
X121689D02*X123939D01*
X120939Y270730D02*X121689Y269980D01*
X120939Y272230D02*Y270730D01*
Y272230D02*X121689Y272980D01*
X123189D01*
X123939Y272230D01*
X120939Y271480D02*X123939D01*
Y272230D02*Y271480D01*
X126490Y269980D02*X128740D01*
X129490Y270730D01*
X128740Y271480D02*X129490Y270730D01*
X126490Y271480D02*X128740D01*
X125740Y272230D02*X126490Y271480D01*
X125740Y272230D02*X126490Y272980D01*
X128740D01*
X129490Y272230D01*
X125740Y270730D02*X126490Y269980D01*
X133992Y272980D02*Y270730D01*
X134742Y269980D01*
X136242D01*
X136992Y270730D01*
Y272980D02*Y270730D01*
X139543Y269980D02*X141793D01*
X142543Y270730D01*
X141793Y271480D02*X142543Y270730D01*
X139543Y271480D02*X141793D01*
X138793Y272230D02*X139543Y271480D01*
X138793Y272230D02*X139543Y272980D01*
X141793D01*
X142543Y272230D01*
X138793Y270730D02*X139543Y269980D01*
X145095D02*X147345D01*
X144345Y270730D02*X145095Y269980D01*
X144345Y272230D02*Y270730D01*
Y272230D02*X145095Y272980D01*
X146595D01*
X147345Y272230D01*
X144345Y271480D02*X147345D01*
Y272230D02*Y271480D01*
X152146Y275980D02*Y269980D01*
X151396D02*X152146Y270730D01*
X149896Y269980D02*X151396D01*
X149146Y270730D02*X149896Y269980D01*
X149146Y272230D02*Y270730D01*
Y272230D02*X149896Y272980D01*
X151396D01*
X152146Y272230D01*
X156648Y274480D02*Y273730D01*
Y272230D02*Y269980D01*
X158899Y272230D02*Y269980D01*
Y272230D02*X159649Y272980D01*
X160399D01*
X161149Y272230D01*
Y269980D01*
X158149Y272980D02*X158899Y272230D01*
X166401Y275980D02*Y270730D01*
X167151Y269980D01*
X165651Y273730D02*X167151D01*
X168652Y275980D02*Y269980D01*
Y272230D02*X169402Y272980D01*
X170902D01*
X171652Y272230D01*
Y269980D01*
X173454Y274480D02*Y273730D01*
Y272230D02*Y269980D01*
X175705D02*X177955D01*
X178705Y270730D01*
X177955Y271480D02*X178705Y270730D01*
X175705Y271480D02*X177955D01*
X174955Y272230D02*X175705Y271480D01*
X174955Y272230D02*X175705Y272980D01*
X177955D01*
X178705Y272230D01*
X174955Y270730D02*X175705Y269980D01*
X183207Y275980D02*Y270730D01*
X183957Y269980D01*
X187708Y272980D02*X188458Y272230D01*
X186208Y272980D02*X187708D01*
X185458Y272230D02*X186208Y272980D01*
X185458Y272230D02*Y270730D01*
X186208Y269980D01*
X188458Y272980D02*Y270730D01*
X189208Y269980D01*
X186208D02*X187708D01*
X188458Y270730D01*
X191010Y272980D02*Y270730D01*
X191760Y269980D01*
X194010Y272980D02*Y268480D01*
X193260Y267730D02*X194010Y268480D01*
X191760Y267730D02*X193260D01*
X191010Y268480D02*X191760Y267730D01*
Y269980D02*X193260D01*
X194010Y270730D01*
X195811Y272230D02*Y270730D01*
Y272230D02*X196561Y272980D01*
X198061D01*
X198811Y272230D01*
Y270730D01*
X198061Y269980D02*X198811Y270730D01*
X196561Y269980D02*X198061D01*
X195811Y270730D02*X196561Y269980D01*
X200613Y272980D02*Y270730D01*
X201363Y269980D01*
X202863D01*
X203613Y270730D01*
Y272980D02*Y270730D01*
X206164Y275980D02*Y270730D01*
X206914Y269980D01*
X205414Y273730D02*X206914D01*
X208416Y268480D02*X209916Y269980D01*
X214417Y275230D02*X215167Y275980D01*
X217417D01*
X218167Y275230D01*
Y273730D01*
X214417Y269980D02*X218167Y273730D01*
X214417Y269980D02*X218167D01*
X219969Y270730D02*X220719Y269980D01*
X219969Y275230D02*Y270730D01*
Y275230D02*X220719Y275980D01*
X222219D01*
X222969Y275230D01*
Y270730D01*
X222219Y269980D02*X222969Y270730D01*
X220719Y269980D02*X222219D01*
X219969Y271480D02*X222969Y274480D01*
X224770Y270730D02*X225520Y269980D01*
X224770Y275230D02*Y270730D01*
Y275230D02*X225520Y275980D01*
X227020D01*
X227770Y275230D01*
Y270730D01*
X227020Y269980D02*X227770Y270730D01*
X225520Y269980D02*X227020D01*
X224770Y271480D02*X227770Y274480D01*
X232272Y275980D02*Y269980D01*
Y272230D02*X233022Y272980D01*
X234522D01*
X235272Y272230D01*
Y269980D01*
X237073Y272230D02*Y270730D01*
Y272230D02*X237823Y272980D01*
X239323D01*
X240073Y272230D01*
Y270730D01*
X239323Y269980D02*X240073Y270730D01*
X237823Y269980D02*X239323D01*
X237073Y270730D02*X237823Y269980D01*
X241875Y275980D02*Y270730D01*
X242625Y269980D01*
X244876D02*X247126D01*
X244126Y270730D02*X244876Y269980D01*
X244126Y272230D02*Y270730D01*
Y272230D02*X244876Y272980D01*
X246376D01*
X247126Y272230D01*
X244126Y271480D02*X247126D01*
Y272230D02*Y271480D01*
X249678Y269980D02*X251928D01*
X252678Y270730D01*
X251928Y271480D02*X252678Y270730D01*
X249678Y271480D02*X251928D01*
X248928Y272230D02*X249678Y271480D01*
X248928Y272230D02*X249678Y272980D01*
X251928D01*
X252678Y272230D01*
X248928Y270730D02*X249678Y269980D01*
X257929Y275980D02*Y270730D01*
X258679Y269980D01*
X257179Y273730D02*X258679D01*
X260181Y272230D02*Y270730D01*
Y272230D02*X260931Y272980D01*
X262431D01*
X263181Y272230D01*
Y270730D01*
X262431Y269980D02*X263181Y270730D01*
X260931Y269980D02*X262431D01*
X260181Y270730D02*X260931Y269980D01*
X265732Y275980D02*Y270730D01*
X266482Y269980D01*
X264982Y273730D02*X266482D01*
X270234Y272980D02*X270984Y272230D01*
X268734Y272980D02*X270234D01*
X267984Y272230D02*X268734Y272980D01*
X267984Y272230D02*Y270730D01*
X268734Y269980D01*
X270984Y272980D02*Y270730D01*
X271734Y269980D01*
X268734D02*X270234D01*
X270984Y270730D01*
X273535Y275980D02*Y270730D01*
X274285Y269980D01*
G54D13*X0Y157480D02*X236220D01*
X0D02*Y0D01*
X236220Y157480D02*Y0D01*
X0D02*X236220D01*
G54D56*X200000Y170980D02*Y164980D01*
Y170980D02*X202250Y168730D01*
X204500Y170980D01*
Y164980D01*
X208551Y167980D02*X209301Y167230D01*
X207051Y167980D02*X208551D01*
X206301Y167230D02*X207051Y167980D01*
X206301Y167230D02*Y165730D01*
X207051Y164980D01*
X209301Y167980D02*Y165730D01*
X210051Y164980D01*
X207051D02*X208551D01*
X209301Y165730D01*
X211853Y167980D02*X214853Y164980D01*
X211853D02*X214853Y167980D01*
X216654Y169480D02*Y168730D01*
Y167230D02*Y164980D01*
X218906Y167230D02*Y164980D01*
Y167230D02*X219656Y167980D01*
X220406D01*
X221156Y167230D01*
Y164980D01*
Y167230D02*X221906Y167980D01*
X222656D01*
X223406Y167230D01*
Y164980D01*
X218156Y167980D02*X218906Y167230D01*
X225207Y167980D02*Y165730D01*
X225957Y164980D01*
X227457D01*
X228207Y165730D01*
Y167980D02*Y165730D01*
X230759Y167230D02*Y164980D01*
Y167230D02*X231509Y167980D01*
X232259D01*
X233009Y167230D01*
Y164980D01*
Y167230D02*X233759Y167980D01*
X234509D01*
X235259Y167230D01*
Y164980D01*
X230009Y167980D02*X230759Y167230D01*
X240510Y170980D02*Y164980D01*
X242760Y170980D02*X243510Y170230D01*
Y165730D01*
X242760Y164980D02*X243510Y165730D01*
X239760Y164980D02*X242760D01*
X239760Y170980D02*X242760D01*
X245312Y169480D02*Y168730D01*
Y167230D02*Y164980D01*
X247563Y167230D02*Y164980D01*
Y167230D02*X248313Y167980D01*
X249063D01*
X249813Y167230D01*
Y164980D01*
Y167230D02*X250563Y167980D01*
X251313D01*
X252063Y167230D01*
Y164980D01*
X246813Y167980D02*X247563Y167230D01*
X254615Y164980D02*X256865D01*
X253865Y165730D02*X254615Y164980D01*
X253865Y167230D02*Y165730D01*
Y167230D02*X254615Y167980D01*
X256115D01*
X256865Y167230D01*
X253865Y166480D02*X256865D01*
Y167230D02*Y166480D01*
X259416Y167230D02*Y164980D01*
Y167230D02*X260166Y167980D01*
X260916D01*
X261666Y167230D01*
Y164980D01*
X258666Y167980D02*X259416Y167230D01*
X264218Y164980D02*X266468D01*
X267218Y165730D01*
X266468Y166480D02*X267218Y165730D01*
X264218Y166480D02*X266468D01*
X263468Y167230D02*X264218Y166480D01*
X263468Y167230D02*X264218Y167980D01*
X266468D01*
X267218Y167230D01*
X263468Y165730D02*X264218Y164980D01*
X269019Y169480D02*Y168730D01*
Y167230D02*Y164980D01*
X270521Y167230D02*Y165730D01*
Y167230D02*X271271Y167980D01*
X272771D01*
X273521Y167230D01*
Y165730D01*
X272771Y164980D02*X273521Y165730D01*
X271271Y164980D02*X272771D01*
X270521Y165730D02*X271271Y164980D01*
X276072Y167230D02*Y164980D01*
Y167230D02*X276822Y167980D01*
X277572D01*
X278322Y167230D01*
Y164980D01*
X275322Y167980D02*X276072Y167230D01*
X280874Y164980D02*X283124D01*
X283874Y165730D01*
X283124Y166480D02*X283874Y165730D01*
X280874Y166480D02*X283124D01*
X280124Y167230D02*X280874Y166480D01*
X280124Y167230D02*X280874Y167980D01*
X283124D01*
X283874Y167230D01*
X280124Y165730D02*X280874Y164980D01*
X285675Y168730D02*X286425D01*
X285675Y167230D02*X286425D01*
X290927Y170230D02*X291677Y170980D01*
X293927D01*
X294677Y170230D01*
Y168730D01*
X290927Y164980D02*X294677Y168730D01*
X290927Y164980D02*X294677D01*
X296478Y170230D02*X297228Y170980D01*
X298728D01*
X299478Y170230D01*
Y165730D01*
X298728Y164980D02*X299478Y165730D01*
X297228Y164980D02*X298728D01*
X296478Y165730D02*X297228Y164980D01*
Y167980D02*X299478D01*
X303530Y170980D02*X304280Y170230D01*
X302030Y170980D02*X303530D01*
X301280Y170230D02*X302030Y170980D01*
X301280Y170230D02*Y165730D01*
X302030Y164980D01*
X303530Y167980D02*X304280Y167230D01*
X301280Y167980D02*X303530D01*
X302030Y164980D02*X303530D01*
X304280Y165730D01*
Y167230D02*Y165730D01*
X306081Y170230D02*X306831Y170980D01*
X309081D01*
X309831Y170230D01*
Y168730D01*
X306081Y164980D02*X309831Y168730D01*
X306081Y164980D02*X309831D01*
X315083Y167230D02*Y164980D01*
Y167230D02*X315833Y167980D01*
X316583D01*
X317333Y167230D01*
Y164980D01*
Y167230D02*X318083Y167980D01*
X318833D01*
X319583Y167230D01*
Y164980D01*
X314333Y167980D02*X315083Y167230D01*
X321384Y169480D02*Y168730D01*
Y167230D02*Y164980D01*
X322886Y170980D02*Y165730D01*
X323636Y164980D01*
X325887D02*X328137D01*
X328887Y165730D01*
X328137Y166480D02*X328887Y165730D01*
X325887Y166480D02*X328137D01*
X325137Y167230D02*X325887Y166480D01*
X325137Y167230D02*X325887Y167980D01*
X328137D01*
X328887Y167230D01*
X325137Y165730D02*X325887Y164980D01*
X333389Y167980D02*Y165730D01*
X334139Y164980D01*
X334889D01*
X335639Y165730D01*
Y167980D02*Y165730D01*
X336389Y164980D01*
X337139D01*
X337889Y165730D01*
Y167980D02*Y165730D01*
X339690Y169480D02*Y168730D01*
Y167230D02*Y164980D01*
X344192Y170980D02*Y164980D01*
X343442D02*X344192Y165730D01*
X341942Y164980D02*X343442D01*
X341192Y165730D02*X341942Y164980D01*
X341192Y167230D02*Y165730D01*
Y167230D02*X341942Y167980D01*
X343442D01*
X344192Y167230D01*
X346743Y164980D02*X348993D01*
X345993Y165730D02*X346743Y164980D01*
X345993Y167230D02*Y165730D01*
Y167230D02*X346743Y167980D01*
X348243D01*
X348993Y167230D01*
X345993Y166480D02*X348993D01*
Y167230D02*Y166480D01*
X350795Y163480D02*X352295Y164980D01*
X357546D02*X359046D01*
X358296Y170980D02*Y164980D01*
X356796Y169480D02*X358296Y170980D01*
X360848D02*X363848D01*
X360848D02*Y167980D01*
X361598Y168730D01*
X363098D01*
X363848Y167980D01*
Y165730D01*
X363098Y164980D02*X363848Y165730D01*
X361598Y164980D02*X363098D01*
X360848Y165730D02*X361598Y164980D01*
X365649D02*X369399Y168730D01*
Y170980D02*Y168730D01*
X365649Y170980D02*X369399D01*
X371201Y167980D02*X374201Y170980D01*
X371201Y167980D02*X374951D01*
X374201Y170980D02*Y164980D01*
X380202Y167230D02*Y164980D01*
Y167230D02*X380952Y167980D01*
X381702D01*
X382452Y167230D01*
Y164980D01*
Y167230D02*X383202Y167980D01*
X383952D01*
X384702Y167230D01*
Y164980D01*
X379452Y167980D02*X380202Y167230D01*
X386504Y169480D02*Y168730D01*
Y167230D02*Y164980D01*
X388005Y170980D02*Y165730D01*
X388755Y164980D01*
X391007D02*X393257D01*
X394007Y165730D01*
X393257Y166480D02*X394007Y165730D01*
X391007Y166480D02*X393257D01*
X390257Y167230D02*X391007Y166480D01*
X390257Y167230D02*X391007Y167980D01*
X393257D01*
X394007Y167230D01*
X390257Y165730D02*X391007Y164980D01*
X398508Y170980D02*Y164980D01*
Y167230D02*X399258Y167980D01*
X400758D01*
X401508Y167230D01*
Y164980D01*
X403310Y169480D02*Y168730D01*
Y167230D02*Y164980D01*
X407061Y167980D02*X407811Y167230D01*
X405561Y167980D02*X407061D01*
X404811Y167230D02*X405561Y167980D01*
X404811Y167230D02*Y165730D01*
X405561Y164980D01*
X407061D01*
X407811Y165730D01*
X404811Y163480D02*X405561Y162730D01*
X407061D01*
X407811Y163480D01*
Y167980D02*Y163480D01*
X409613Y170980D02*Y164980D01*
Y167230D02*X410363Y167980D01*
X411863D01*
X412613Y167230D01*
Y164980D01*
X0Y-9500D02*X3000D01*
X3750Y-8750D01*
Y-7250D02*Y-8750D01*
X3000Y-6500D02*X3750Y-7250D01*
X750Y-6500D02*X3000D01*
X750Y-3500D02*Y-9500D01*
X0Y-3500D02*X3000D01*
X3750Y-4250D01*
Y-5750D01*
X3000Y-6500D02*X3750Y-5750D01*
X5551Y-7250D02*Y-8750D01*
Y-7250D02*X6301Y-6500D01*
X7801D01*
X8551Y-7250D01*
Y-8750D01*
X7801Y-9500D02*X8551Y-8750D01*
X6301Y-9500D02*X7801D01*
X5551Y-8750D02*X6301Y-9500D01*
X12603Y-6500D02*X13353Y-7250D01*
X11103Y-6500D02*X12603D01*
X10353Y-7250D02*X11103Y-6500D01*
X10353Y-7250D02*Y-8750D01*
X11103Y-9500D01*
X13353Y-6500D02*Y-8750D01*
X14103Y-9500D01*
X11103D02*X12603D01*
X13353Y-8750D01*
X16654Y-7250D02*Y-9500D01*
Y-7250D02*X17404Y-6500D01*
X18904D01*
X15904D02*X16654Y-7250D01*
X23706Y-3500D02*Y-9500D01*
X22956D02*X23706Y-8750D01*
X21456Y-9500D02*X22956D01*
X20706Y-8750D02*X21456Y-9500D01*
X20706Y-7250D02*Y-8750D01*
Y-7250D02*X21456Y-6500D01*
X22956D01*
X23706Y-7250D01*
X28207D02*Y-8750D01*
Y-7250D02*X28957Y-6500D01*
X30457D01*
X31207Y-7250D01*
Y-8750D01*
X30457Y-9500D02*X31207Y-8750D01*
X28957Y-9500D02*X30457D01*
X28207Y-8750D02*X28957Y-9500D01*
X33009Y-6500D02*Y-8750D01*
X33759Y-9500D01*
X35259D01*
X36009Y-8750D01*
Y-6500D02*Y-8750D01*
X38560Y-3500D02*Y-8750D01*
X39310Y-9500D01*
X37810Y-5750D02*X39310D01*
X40812Y-3500D02*Y-8750D01*
X41562Y-9500D01*
X43063Y-5000D02*Y-5750D01*
Y-7250D02*Y-9500D01*
X45315Y-7250D02*Y-9500D01*
Y-7250D02*X46065Y-6500D01*
X46815D01*
X47565Y-7250D01*
Y-9500D01*
X44565Y-6500D02*X45315Y-7250D01*
X50116Y-9500D02*X52366D01*
X49366Y-8750D02*X50116Y-9500D01*
X49366Y-7250D02*Y-8750D01*
Y-7250D02*X50116Y-6500D01*
X51616D01*
X52366Y-7250D01*
X49366Y-8000D02*X52366D01*
Y-7250D02*Y-8000D01*
X56868Y-5000D02*Y-5750D01*
Y-7250D02*Y-9500D01*
X59119D02*X61369D01*
X62119Y-8750D01*
X61369Y-8000D02*X62119Y-8750D01*
X59119Y-8000D02*X61369D01*
X58369Y-7250D02*X59119Y-8000D01*
X58369Y-7250D02*X59119Y-6500D01*
X61369D01*
X62119Y-7250D01*
X58369Y-8750D02*X59119Y-9500D01*
X67371Y-3500D02*Y-8750D01*
X68121Y-9500D01*
X66621Y-5750D02*X68121D01*
X69622Y-3500D02*Y-9500D01*
Y-7250D02*X70372Y-6500D01*
X71872D01*
X72622Y-7250D01*
Y-9500D01*
X75174D02*X77424D01*
X74424Y-8750D02*X75174Y-9500D01*
X74424Y-7250D02*Y-8750D01*
Y-7250D02*X75174Y-6500D01*
X76674D01*
X77424Y-7250D01*
X74424Y-8000D02*X77424D01*
Y-7250D02*Y-8000D01*
X82675Y-6500D02*X84925D01*
X81925Y-7250D02*X82675Y-6500D01*
X81925Y-7250D02*Y-8750D01*
X82675Y-9500D01*
X84925D01*
X87477D02*X89727D01*
X86727Y-8750D02*X87477Y-9500D01*
X86727Y-7250D02*Y-8750D01*
Y-7250D02*X87477Y-6500D01*
X88977D01*
X89727Y-7250D01*
X86727Y-8000D02*X89727D01*
Y-7250D02*Y-8000D01*
X92278Y-7250D02*Y-9500D01*
Y-7250D02*X93028Y-6500D01*
X93778D01*
X94528Y-7250D01*
Y-9500D01*
X91528Y-6500D02*X92278Y-7250D01*
X97080Y-3500D02*Y-8750D01*
X97830Y-9500D01*
X96330Y-5750D02*X97830D01*
X100081Y-9500D02*X102331D01*
X99331Y-8750D02*X100081Y-9500D01*
X99331Y-7250D02*Y-8750D01*
Y-7250D02*X100081Y-6500D01*
X101581D01*
X102331Y-7250D01*
X99331Y-8000D02*X102331D01*
Y-7250D02*Y-8000D01*
X104883Y-7250D02*Y-9500D01*
Y-7250D02*X105633Y-6500D01*
X107133D01*
X104133D02*X104883Y-7250D01*
X108934Y-3500D02*Y-8750D01*
X109684Y-9500D01*
X111186Y-5000D02*Y-5750D01*
Y-7250D02*Y-9500D01*
X113437Y-7250D02*Y-9500D01*
Y-7250D02*X114187Y-6500D01*
X114937D01*
X115687Y-7250D01*
Y-9500D01*
X112687Y-6500D02*X113437Y-7250D01*
X118239Y-9500D02*X120489D01*
X117489Y-8750D02*X118239Y-9500D01*
X117489Y-7250D02*Y-8750D01*
Y-7250D02*X118239Y-6500D01*
X119739D01*
X120489Y-7250D01*
X117489Y-8000D02*X120489D01*
Y-7250D02*Y-8000D01*
X124990Y-7250D02*Y-8750D01*
Y-7250D02*X125740Y-6500D01*
X127240D01*
X127990Y-7250D01*
Y-8750D01*
X127240Y-9500D02*X127990Y-8750D01*
X125740Y-9500D02*X127240D01*
X124990Y-8750D02*X125740Y-9500D01*
X130542Y-4250D02*Y-9500D01*
Y-4250D02*X131292Y-3500D01*
X132042D01*
X129792Y-6500D02*X131292D01*
X136993Y-3500D02*Y-8750D01*
X137743Y-9500D01*
X136243Y-5750D02*X137743D01*
X139245Y-3500D02*Y-9500D01*
Y-7250D02*X139995Y-6500D01*
X141495D01*
X142245Y-7250D01*
Y-9500D01*
X144046Y-5000D02*Y-5750D01*
Y-7250D02*Y-9500D01*
X146298D02*X148548D01*
X149298Y-8750D01*
X148548Y-8000D02*X149298Y-8750D01*
X146298Y-8000D02*X148548D01*
X145548Y-7250D02*X146298Y-8000D01*
X145548Y-7250D02*X146298Y-6500D01*
X148548D01*
X149298Y-7250D01*
X145548Y-8750D02*X146298Y-9500D01*
X154549D02*X156049D01*
X155299Y-3500D02*Y-9500D01*
X153799Y-5000D02*X155299Y-3500D01*
X157851Y-8750D02*X158601Y-9500D01*
X157851Y-4250D02*Y-8750D01*
Y-4250D02*X158601Y-3500D01*
X160101D01*
X160851Y-4250D01*
Y-8750D01*
X160101Y-9500D02*X160851Y-8750D01*
X158601Y-9500D02*X160101D01*
X157851Y-8000D02*X160851Y-5000D01*
X166102Y-7250D02*Y-9500D01*
Y-7250D02*X166852Y-6500D01*
X167602D01*
X168352Y-7250D01*
Y-9500D01*
Y-7250D02*X169102Y-6500D01*
X169852D01*
X170602Y-7250D01*
Y-9500D01*
X165352Y-6500D02*X166102Y-7250D01*
X172404Y-5000D02*Y-5750D01*
Y-7250D02*Y-9500D01*
X173905Y-3500D02*Y-8750D01*
X174655Y-9500D01*
X179607Y-7250D02*Y-9500D01*
Y-7250D02*X180357Y-6500D01*
X181857D01*
X178857D02*X179607Y-7250D01*
X184408Y-9500D02*X186658D01*
X183658Y-8750D02*X184408Y-9500D01*
X183658Y-7250D02*Y-8750D01*
Y-7250D02*X184408Y-6500D01*
X185908D01*
X186658Y-7250D01*
X183658Y-8000D02*X186658D01*
Y-7250D02*Y-8000D01*
X189210Y-6500D02*X191460D01*
X188460Y-7250D02*X189210Y-6500D01*
X188460Y-7250D02*Y-8750D01*
X189210Y-9500D01*
X191460D01*
X194011Y-3500D02*Y-8750D01*
X194761Y-9500D01*
X193261Y-5750D02*X194761D01*
X198513Y-6500D02*X199263Y-7250D01*
X197013Y-6500D02*X198513D01*
X196263Y-7250D02*X197013Y-6500D01*
X196263Y-7250D02*Y-8750D01*
X197013Y-9500D01*
X199263Y-6500D02*Y-8750D01*
X200013Y-9500D01*
X197013D02*X198513D01*
X199263Y-8750D01*
X202564Y-7250D02*Y-9500D01*
Y-7250D02*X203314Y-6500D01*
X204064D01*
X204814Y-7250D01*
Y-9500D01*
X201814Y-6500D02*X202564Y-7250D01*
X208866Y-6500D02*X209616Y-7250D01*
X207366Y-6500D02*X208866D01*
X206616Y-7250D02*X207366Y-6500D01*
X206616Y-7250D02*Y-8750D01*
X207366Y-9500D01*
X208866D01*
X209616Y-8750D01*
X206616Y-11000D02*X207366Y-11750D01*
X208866D01*
X209616Y-11000D01*
Y-6500D02*Y-11000D01*
X211417Y-3500D02*Y-8750D01*
X212167Y-9500D01*
X214419D02*X216669D01*
X213669Y-8750D02*X214419Y-9500D01*
X213669Y-7250D02*Y-8750D01*
Y-7250D02*X214419Y-6500D01*
X215919D01*
X216669Y-7250D01*
X213669Y-8000D02*X216669D01*
Y-7250D02*Y-8000D01*
X221170Y-6500D02*X224170D01*
X228672Y-8750D02*X229422Y-9500D01*
X228672Y-4250D02*Y-8750D01*
Y-4250D02*X229422Y-3500D01*
X230922D01*
X231672Y-4250D01*
Y-8750D01*
X230922Y-9500D02*X231672Y-8750D01*
X229422Y-9500D02*X230922D01*
X228672Y-8000D02*X231672Y-5000D01*
X233473Y-11000D02*X234973Y-9500D01*
X236775Y-8750D02*X237525Y-9500D01*
X236775Y-4250D02*Y-8750D01*
Y-4250D02*X237525Y-3500D01*
X239025D01*
X239775Y-4250D01*
Y-8750D01*
X239025Y-9500D02*X239775Y-8750D01*
X237525Y-9500D02*X239025D01*
X236775Y-8000D02*X239775Y-5000D01*
X245026Y-3500D02*Y-8750D01*
X245776Y-9500D01*
X244276Y-5750D02*X245776D01*
X247278Y-7250D02*Y-8750D01*
Y-7250D02*X248028Y-6500D01*
X249528D01*
X250278Y-7250D01*
Y-8750D01*
X249528Y-9500D02*X250278Y-8750D01*
X248028Y-9500D02*X249528D01*
X247278Y-8750D02*X248028Y-9500D01*
X254779Y-4250D02*X255529Y-3500D01*
X257779D01*
X258529Y-4250D01*
Y-5750D01*
X254779Y-9500D02*X258529Y-5750D01*
X254779Y-9500D02*X258529D01*
X260331Y-4250D02*X261081Y-3500D01*
X262581D01*
X263331Y-4250D01*
Y-8750D01*
X262581Y-9500D02*X263331Y-8750D01*
X261081Y-9500D02*X262581D01*
X260331Y-8750D02*X261081Y-9500D01*
Y-6500D02*X263331D01*
X267382Y-3500D02*X268132Y-4250D01*
X265882Y-3500D02*X267382D01*
X265132Y-4250D02*X265882Y-3500D01*
X265132Y-4250D02*Y-8750D01*
X265882Y-9500D01*
X267382Y-6500D02*X268132Y-7250D01*
X265132Y-6500D02*X267382D01*
X265882Y-9500D02*X267382D01*
X268132Y-8750D01*
Y-7250D02*Y-8750D01*
X269934Y-4250D02*X270684Y-3500D01*
X272934D01*
X273684Y-4250D01*
Y-5750D01*
X269934Y-9500D02*X273684Y-5750D01*
X269934Y-9500D02*X273684D01*
X275485Y-11000D02*X276985Y-9500D01*
X279537D02*X281037D01*
X280287Y-3500D02*Y-9500D01*
X278787Y-5000D02*X280287Y-3500D01*
X282838D02*X285838D01*
X282838D02*Y-6500D01*
X283588Y-5750D01*
X285088D01*
X285838Y-6500D01*
Y-8750D01*
X285088Y-9500D02*X285838Y-8750D01*
X283588Y-9500D02*X285088D01*
X282838Y-8750D02*X283588Y-9500D01*
X287640D02*X291390Y-5750D01*
Y-3500D02*Y-5750D01*
X287640Y-3500D02*X291390D01*
X293191Y-6500D02*X296191Y-3500D01*
X293191Y-6500D02*X296941D01*
X296191Y-3500D02*Y-9500D01*
X302193Y-7250D02*Y-9500D01*
Y-7250D02*X302943Y-6500D01*
X303693D01*
X304443Y-7250D01*
Y-9500D01*
Y-7250D02*X305193Y-6500D01*
X305943D01*
X306693Y-7250D01*
Y-9500D01*
X301443Y-6500D02*X302193Y-7250D01*
X308494Y-5000D02*Y-5750D01*
Y-7250D02*Y-9500D01*
X309996Y-3500D02*Y-8750D01*
X310746Y-9500D01*
X312997D02*X315247D01*
X315997Y-8750D01*
X315247Y-8000D02*X315997Y-8750D01*
X312997Y-8000D02*X315247D01*
X312247Y-7250D02*X312997Y-8000D01*
X312247Y-7250D02*X312997Y-6500D01*
X315247D01*
X315997Y-7250D01*
X312247Y-8750D02*X312997Y-9500D01*
X200750Y185980D02*Y179980D01*
X203000Y185980D02*X203750Y185230D01*
Y180730D01*
X203000Y179980D02*X203750Y180730D01*
X200000Y179980D02*X203000D01*
X200000Y185980D02*X203000D01*
X207801Y182980D02*X208551Y182230D01*
X206301Y182980D02*X207801D01*
X205551Y182230D02*X206301Y182980D01*
X205551Y182230D02*Y180730D01*
X206301Y179980D01*
X208551Y182980D02*Y180730D01*
X209301Y179980D01*
X206301D02*X207801D01*
X208551Y180730D01*
X211853Y185980D02*Y180730D01*
X212603Y179980D01*
X211103Y183730D02*X212603D01*
X214854Y179980D02*X217104D01*
X214104Y180730D02*X214854Y179980D01*
X214104Y182230D02*Y180730D01*
Y182230D02*X214854Y182980D01*
X216354D01*
X217104Y182230D01*
X214104Y181480D02*X217104D01*
Y182230D02*Y181480D01*
X218906Y183730D02*X219656D01*
X218906Y182230D02*X219656D01*
X227157Y185980D02*X227907Y185230D01*
X224907Y185980D02*X227157D01*
X224157Y185230D02*X224907Y185980D01*
X224157Y185230D02*Y183730D01*
X224907Y182980D01*
X227157D01*
X227907Y182230D01*
Y180730D01*
X227157Y179980D02*X227907Y180730D01*
X224907Y179980D02*X227157D01*
X224157Y180730D02*X224907Y179980D01*
X231959Y182980D02*X232709Y182230D01*
X230459Y182980D02*X231959D01*
X229709Y182230D02*X230459Y182980D01*
X229709Y182230D02*Y180730D01*
X230459Y179980D01*
X232709Y182980D02*Y180730D01*
X233459Y179980D01*
X230459D02*X231959D01*
X232709Y180730D01*
X236010Y185980D02*Y180730D01*
X236760Y179980D01*
X235260Y183730D02*X236760D01*
X240962Y185230D02*Y180730D01*
Y185230D02*X241712Y185980D01*
X243212D01*
X243962Y185230D01*
Y180730D01*
X243212Y179980D02*X243962Y180730D01*
X241712Y179980D02*X243212D01*
X240962Y180730D02*X241712Y179980D01*
X246513Y182980D02*X248763D01*
X245763Y182230D02*X246513Y182980D01*
X245763Y182230D02*Y180730D01*
X246513Y179980D01*
X248763D01*
X251315Y185980D02*Y180730D01*
X252065Y179980D01*
X250565Y183730D02*X252065D01*
X257016Y179980D02*X258516D01*
X257766Y185980D02*Y179980D01*
X256266Y184480D02*X257766Y185980D01*
X260318Y180730D02*X261068Y179980D01*
X260318Y185230D02*Y180730D01*
Y185230D02*X261068Y185980D01*
X262568D01*
X263318Y185230D01*
Y180730D01*
X262568Y179980D02*X263318Y180730D01*
X261068Y179980D02*X262568D01*
X260318Y181480D02*X263318Y184480D01*
X268569Y179980D02*X270069D01*
X269319Y185980D02*Y179980D01*
X267819Y184480D02*X269319Y185980D01*
X271871D02*X274871D01*
X271871D02*Y182980D01*
X272621Y183730D01*
X274121D01*
X274871Y182980D01*
Y180730D01*
X274121Y179980D02*X274871Y180730D01*
X272621Y179980D02*X274121D01*
X271871Y180730D02*X272621Y179980D01*
X276672Y183730D02*X277422D01*
X276672Y182230D02*X277422D01*
X279974Y179980D02*X281474D01*
X280724Y185980D02*Y179980D01*
X279224Y184480D02*X280724Y185980D01*
X283275Y179980D02*X286275Y182980D01*
Y185230D02*Y182980D01*
X285525Y185980D02*X286275Y185230D01*
X284025Y185980D02*X285525D01*
X283275Y185230D02*X284025Y185980D01*
X283275Y185230D02*Y183730D01*
X284025Y182980D01*
X286275D01*
X288077Y183730D02*X288827D01*
X288077Y182230D02*X288827D01*
X290628Y185230D02*X291378Y185980D01*
X293628D01*
X294378Y185230D01*
Y183730D01*
X290628Y179980D02*X294378Y183730D01*
X290628Y179980D02*X294378D01*
X296180D02*X299930Y183730D01*
Y185980D02*Y183730D01*
X296180Y185980D02*X299930D01*
X304431Y185230D02*X305181Y185980D01*
X307431D01*
X308181Y185230D01*
Y183730D01*
X304431Y179980D02*X308181Y183730D01*
X304431Y179980D02*X308181D01*
X309983Y180730D02*X310733Y179980D01*
X309983Y185230D02*Y180730D01*
Y185230D02*X310733Y185980D01*
X312233D01*
X312983Y185230D01*
Y180730D01*
X312233Y179980D02*X312983Y180730D01*
X310733Y179980D02*X312233D01*
X309983Y181480D02*X312983Y184480D01*
X314784Y180730D02*X315534Y179980D01*
X314784Y185230D02*Y180730D01*
Y185230D02*X315534Y185980D01*
X317034D01*
X317784Y185230D01*
Y180730D01*
X317034Y179980D02*X317784Y180730D01*
X315534Y179980D02*X317034D01*
X314784Y181480D02*X317784Y184480D01*
X319586Y179980D02*X322586Y182980D01*
Y185230D02*Y182980D01*
X321836Y185980D02*X322586Y185230D01*
X320336Y185980D02*X321836D01*
X319586Y185230D02*X320336Y185980D01*
X319586Y185230D02*Y183730D01*
X320336Y182980D01*
X322586D01*
X327087Y185980D02*Y180730D01*
X327837Y179980D01*
X329337D01*
X330087Y180730D01*
Y185980D02*Y180730D01*
X331889Y185980D02*X334889D01*
X333389D02*Y179980D01*
X337440D02*X339690D01*
X336690Y180730D02*X337440Y179980D01*
X336690Y185230D02*Y180730D01*
Y185230D02*X337440Y185980D01*
X339690D01*
X200000Y200230D02*Y194980D01*
Y200230D02*X200750Y200980D01*
X203000D01*
X203750Y200230D01*
Y194980D01*
X200000Y197980D02*X203750D01*
X205551D02*Y195730D01*
X206301Y194980D01*
X207801D01*
X208551Y195730D01*
Y197980D02*Y195730D01*
X211103Y200980D02*Y195730D01*
X211853Y194980D01*
X210353Y198730D02*X211853D01*
X213354Y200980D02*Y194980D01*
Y197230D02*X214104Y197980D01*
X215604D01*
X216354Y197230D01*
Y194980D01*
X218156Y197230D02*Y195730D01*
Y197230D02*X218906Y197980D01*
X220406D01*
X221156Y197230D01*
Y195730D01*
X220406Y194980D02*X221156Y195730D01*
X218906Y194980D02*X220406D01*
X218156Y195730D02*X218906Y194980D01*
X223707Y197230D02*Y194980D01*
Y197230D02*X224457Y197980D01*
X225957D01*
X222957D02*X223707Y197230D01*
X227759Y198730D02*X228509D01*
X227759Y197230D02*X228509D01*
X233010Y199480D02*Y198730D01*
Y197230D02*Y194980D01*
X235262Y197230D02*Y194980D01*
Y197230D02*X236012Y197980D01*
X236762D01*
X237512Y197230D01*
Y194980D01*
X234512Y197980D02*X235262Y197230D01*
X240063Y194980D02*X242313D01*
X239313Y195730D02*X240063Y194980D01*
X239313Y197230D02*Y195730D01*
Y197230D02*X240063Y197980D01*
X241563D01*
X242313Y197230D01*
X239313Y196480D02*X242313D01*
Y197230D02*Y196480D01*
X244115Y199480D02*Y198730D01*
Y197230D02*Y194980D01*
X246366D02*X248616D01*
X245616Y195730D02*X246366Y194980D01*
X245616Y197230D02*Y195730D01*
Y197230D02*X246366Y197980D01*
X247866D01*
X248616Y197230D01*
X245616Y196480D02*X248616D01*
Y197230D02*Y196480D01*
X250418Y197980D02*Y196480D01*
X251918Y194980D01*
X253418Y196480D01*
Y197980D02*Y196480D01*
X200000Y215980D02*X203000D01*
X201500D02*Y209980D01*
X204801Y214480D02*Y213730D01*
Y212230D02*Y209980D01*
X207053Y215980D02*Y210730D01*
X207803Y209980D01*
X206303Y213730D02*X207803D01*
X209304Y215980D02*Y210730D01*
X210054Y209980D01*
X212306D02*X214556D01*
X211556Y210730D02*X212306Y209980D01*
X211556Y212230D02*Y210730D01*
Y212230D02*X212306Y212980D01*
X213806D01*
X214556Y212230D01*
X211556Y211480D02*X214556D01*
Y212230D02*Y211480D01*
X216357Y213730D02*X217107D01*
X216357Y212230D02*X217107D01*
X222359Y209980D02*X224609D01*
X225359Y210730D01*
X224609Y211480D02*X225359Y210730D01*
X222359Y211480D02*X224609D01*
X221609Y212230D02*X222359Y211480D01*
X221609Y212230D02*X222359Y212980D01*
X224609D01*
X225359Y212230D01*
X221609Y210730D02*X222359Y209980D01*
X227910Y215980D02*Y210730D01*
X228660Y209980D01*
X227160Y213730D02*X228660D01*
X230912Y212230D02*Y209980D01*
Y212230D02*X231662Y212980D01*
X233162D01*
X230162D02*X230912Y212230D01*
X234963Y214480D02*Y213730D01*
Y212230D02*Y209980D01*
X236465Y215980D02*Y209980D01*
Y210730D02*X237215Y209980D01*
X238715D01*
X239465Y210730D01*
Y212230D02*Y210730D01*
X238715Y212980D02*X239465Y212230D01*
X237215Y212980D02*X238715D01*
X236465Y212230D02*X237215Y212980D01*
X241266Y212230D02*Y210730D01*
Y212230D02*X242016Y212980D01*
X243516D01*
X244266Y212230D01*
Y210730D01*
X243516Y209980D02*X244266Y210730D01*
X242016Y209980D02*X243516D01*
X241266Y210730D02*X242016Y209980D01*
X248318Y212980D02*X249068Y212230D01*
X246818Y212980D02*X248318D01*
X246068Y212230D02*X246818Y212980D01*
X246068Y212230D02*Y210730D01*
X246818Y209980D01*
X248318D01*
X249068Y210730D01*
X246068Y208480D02*X246818Y207730D01*
X248318D01*
X249068Y208480D01*
Y212980D02*Y208480D01*
X250869Y209980D02*X251619D01*
X254171Y212230D02*Y209980D01*
Y212230D02*X254921Y212980D01*
X255671D01*
X256421Y212230D01*
Y209980D01*
Y212230D02*X257171Y212980D01*
X257921D01*
X258671Y212230D01*
Y209980D01*
X253421Y212980D02*X254171Y212230D01*
X262722Y212980D02*X263472Y212230D01*
X261222Y212980D02*X262722D01*
X260472Y212230D02*X261222Y212980D01*
X260472Y212230D02*Y210730D01*
X261222Y209980D01*
X263472Y212980D02*Y210730D01*
X264222Y209980D01*
X261222D02*X262722D01*
X263472Y210730D01*
X266024Y214480D02*Y213730D01*
Y212230D02*Y209980D01*
X268275Y212230D02*Y209980D01*
Y212230D02*X269025Y212980D01*
X269775D01*
X270525Y212230D01*
Y209980D01*
X267525Y212980D02*X268275Y212230D01*
X272327Y209980D02*X275327D01*
X277128Y215980D02*Y209980D01*
Y210730D02*X277878Y209980D01*
X279378D01*
X280128Y210730D01*
Y212230D02*Y210730D01*
X279378Y212980D02*X280128Y212230D01*
X277878Y212980D02*X279378D01*
X277128Y212230D02*X277878Y212980D01*
X281930Y212230D02*Y210730D01*
Y212230D02*X282680Y212980D01*
X284180D01*
X284930Y212230D01*
Y210730D01*
X284180Y209980D02*X284930Y210730D01*
X282680Y209980D02*X284180D01*
X281930Y210730D02*X282680Y209980D01*
X288981Y212980D02*X289731Y212230D01*
X287481Y212980D02*X288981D01*
X286731Y212230D02*X287481Y212980D01*
X286731Y212230D02*Y210730D01*
X287481Y209980D01*
X289731Y212980D02*Y210730D01*
X290481Y209980D01*
X287481D02*X288981D01*
X289731Y210730D01*
X293033Y212230D02*Y209980D01*
Y212230D02*X293783Y212980D01*
X295283D01*
X292283D02*X293033Y212230D01*
X300084Y215980D02*Y209980D01*
X299334D02*X300084Y210730D01*
X297834Y209980D02*X299334D01*
X297084Y210730D02*X297834Y209980D01*
X297084Y212230D02*Y210730D01*
Y212230D02*X297834Y212980D01*
X299334D01*
X300084Y212230D01*
X304586Y212980D02*X307586D01*
X312087Y215980D02*Y209980D01*
Y215980D02*X315087D01*
X312087Y212980D02*X314337D01*
X319139D02*X319889Y212230D01*
X317639Y212980D02*X319139D01*
X316889Y212230D02*X317639Y212980D01*
X316889Y212230D02*Y210730D01*
X317639Y209980D01*
X319889Y212980D02*Y210730D01*
X320639Y209980D01*
X317639D02*X319139D01*
X319889Y210730D01*
X322440Y215980D02*Y209980D01*
Y210730D02*X323190Y209980D01*
X324690D01*
X325440Y210730D01*
Y212230D02*Y210730D01*
X324690Y212980D02*X325440Y212230D01*
X323190Y212980D02*X324690D01*
X322440Y212230D02*X323190Y212980D01*
X327992Y212230D02*Y209980D01*
Y212230D02*X328742Y212980D01*
X330242D01*
X327242D02*X327992Y212230D01*
X332043Y214480D02*Y213730D01*
Y212230D02*Y209980D01*
X334295Y212980D02*X336545D01*
X333545Y212230D02*X334295Y212980D01*
X333545Y212230D02*Y210730D01*
X334295Y209980D01*
X336545D01*
X340596Y212980D02*X341346Y212230D01*
X339096Y212980D02*X340596D01*
X338346Y212230D02*X339096Y212980D01*
X338346Y212230D02*Y210730D01*
X339096Y209980D01*
X341346Y212980D02*Y210730D01*
X342096Y209980D01*
X339096D02*X340596D01*
X341346Y210730D01*
X344648Y215980D02*Y210730D01*
X345398Y209980D01*
X343898Y213730D02*X345398D01*
X346899Y214480D02*Y213730D01*
Y212230D02*Y209980D01*
X348401Y212230D02*Y210730D01*
Y212230D02*X349151Y212980D01*
X350651D01*
X351401Y212230D01*
Y210730D01*
X350651Y209980D02*X351401Y210730D01*
X349151Y209980D02*X350651D01*
X348401Y210730D02*X349151Y209980D01*
X353952Y212230D02*Y209980D01*
Y212230D02*X354702Y212980D01*
X355452D01*
X356202Y212230D01*
Y209980D01*
X353202Y212980D02*X353952Y212230D01*
X361454Y215980D02*Y209980D01*
X363704Y215980D02*X364454Y215230D01*
Y210730D01*
X363704Y209980D02*X364454Y210730D01*
X360704Y209980D02*X363704D01*
X360704Y215980D02*X363704D01*
X367005Y212230D02*Y209980D01*
Y212230D02*X367755Y212980D01*
X369255D01*
X366255D02*X367005Y212230D01*
X373307Y212980D02*X374057Y212230D01*
X371807Y212980D02*X373307D01*
X371057Y212230D02*X371807Y212980D01*
X371057Y212230D02*Y210730D01*
X371807Y209980D01*
X374057Y212980D02*Y210730D01*
X374807Y209980D01*
X371807D02*X373307D01*
X374057Y210730D01*
X376608Y212980D02*Y210730D01*
X377358Y209980D01*
X378108D01*
X378858Y210730D01*
Y212980D02*Y210730D01*
X379608Y209980D01*
X380358D01*
X381108Y210730D01*
Y212980D02*Y210730D01*
X382910Y214480D02*Y213730D01*
Y212230D02*Y209980D01*
X385161Y212230D02*Y209980D01*
Y212230D02*X385911Y212980D01*
X386661D01*
X387411Y212230D01*
Y209980D01*
X384411Y212980D02*X385161Y212230D01*
X391463Y212980D02*X392213Y212230D01*
X389963Y212980D02*X391463D01*
X389213Y212230D02*X389963Y212980D01*
X389213Y212230D02*Y210730D01*
X389963Y209980D01*
X391463D01*
X392213Y210730D01*
X389213Y208480D02*X389963Y207730D01*
X391463D01*
X392213Y208480D01*
Y212980D02*Y208480D01*
M02*
