G04 start of page 9 for group -4014 idx -4014
G04 Title: stribog.bis, bottompaste *
G04 Creator: pcb 20080202 *
G04 CreationDate: Sun Nov 29 16:50:14 2009 UTC *
G04 For: dti *
G04 Format: Gerber/RS-274X *
G04 PCB-Dimensions: 314960 157480 *
G04 PCB-Coordinate-Origin: lower left *
%MOIN*%
%FSLAX24Y24*%
%LNBACKPASTE*%
%ADD11C,0.0200*%
%ADD21R,0.0240X0.0240*%
%ADD22R,0.0340X0.0340*%
%ADD23R,0.0200X0.0200*%
%ADD24R,0.0400X0.0400*%
%ADD25R,0.0512X0.0512*%
%ADD26R,0.0879X0.0879*%
%ADD27R,0.0640X0.0640*%
%ADD28R,0.0800X0.0800*%
G54D21*X21106Y4322D02*Y4142D01*
X21806Y4322D02*Y4142D01*
X20299Y1881D02*Y1701D01*
X20999Y1881D02*Y1701D01*
G54D11*G36*
X18253Y2356D02*Y1856D01*
X18753D01*
Y2356D01*
X18253D01*
G37*
G36*
Y1456D02*Y956D01*
X18753D01*
Y1456D01*
X18253D01*
G37*
G54D24*X26761Y4971D02*Y4871D01*
X28061Y4971D02*Y4871D01*
G54D21*X22016Y1747D02*X22196D01*
X22016Y1047D02*X22196D01*
X19740Y4853D02*Y4673D01*
X20220Y4853D02*Y4673D01*
X22488Y3361D02*X22668D01*
X22488Y2661D02*X22668D01*
G54D28*X29506Y3367D02*X29706D01*
X29506Y5767D02*X29706D01*
G54D21*X11480Y14597D02*Y14417D01*
X12180Y14597D02*Y14417D01*
X12161Y13810D02*Y13630D01*
X11461Y13810D02*Y13630D01*
X20319Y1231D02*Y1051D01*
X21019Y1231D02*Y1051D01*
X26662Y3232D02*X26842D01*
X26662Y2752D02*X26842D01*
X21465Y3243D02*X21645D01*
X21465Y2543D02*X21645D01*
X17055Y3685D02*X17235D01*
X17055Y4385D02*X17235D01*
X27448Y3833D02*Y3673D01*
X28228Y3833D02*Y3673D01*
Y3013D02*Y2853D01*
X27838Y3013D02*Y2853D01*
X27448Y3013D02*Y2853D01*
X17744Y4385D02*X17924D01*
X17744Y3685D02*X17924D01*
X12839Y13790D02*Y13610D01*
X13539Y13790D02*Y13610D01*
X21484Y5004D02*X21664D01*
X21484Y5704D02*X21664D01*
X19280Y2661D02*X19460D01*
X19280Y2181D02*X19460D01*
X17095Y5940D02*X17275D01*
X17095Y5240D02*X17275D01*
X19688Y3475D02*Y3295D01*
X19208Y3475D02*Y3295D01*
G54D27*X21857Y8332D02*Y7572D01*
X20897Y8332D02*Y7572D01*
G54D23*X13613Y12523D02*X14263D01*
X13613Y12023D02*X14263D01*
X13613Y11523D02*X14263D01*
X13613Y11023D02*X14263D01*
X13613Y10523D02*X14263D01*
X13613Y10023D02*X14263D01*
X13613Y9523D02*X14263D01*
X11563D02*X12213D01*
X11563Y10023D02*X12213D01*
X11563Y10523D02*X12213D01*
X11563Y11023D02*X12213D01*
X11563Y11523D02*X12213D01*
X11563Y12023D02*X12213D01*
X11563Y12523D02*X12213D01*
G54D21*X21106Y11153D02*Y10973D01*
X20626Y11153D02*Y10973D01*
X13079Y14287D02*X13259D01*
X13079Y14767D02*X13259D01*
G54D22*X24438Y3897D02*X24498D01*
X24438Y3117D02*X24498D01*
X23618Y3507D02*X23678D01*
G54D25*X14842Y1417D02*Y1181D01*
X13661Y1417D02*Y1181D01*
G54D21*X10697Y10941D02*X10877D01*
X10697Y11421D02*X10877D01*
X19472Y13554D02*Y13374D01*
X18992Y13554D02*Y13374D01*
X14799Y6822D02*Y6642D01*
X15279Y6822D02*Y6642D01*
X13273Y4220D02*X13433D01*
X13273Y5000D02*X13433D01*
X14093D02*X14253D01*
X14093Y4610D02*X14253D01*
X14093Y4220D02*X14253D01*
X15823Y12334D02*Y12154D01*
X16303Y12334D02*Y12154D01*
X14956Y11625D02*Y11445D01*
X15436Y11625D02*Y11445D01*
X16256Y7845D02*Y7665D01*
X16736Y7845D02*Y7665D01*
X15035Y8751D02*Y8571D01*
X15515Y8751D02*Y8571D01*
X14799Y7452D02*Y7272D01*
X15279Y7452D02*Y7272D01*
X29358Y10200D02*X29538D01*
X29358Y9720D02*X29538D01*
X21169Y13933D02*X21349D01*
X21169Y14413D02*X21349D01*
X14130Y14302D02*Y14122D01*
X14610Y14302D02*Y14122D01*
X15074Y6231D02*Y6051D01*
X15554Y6231D02*Y6051D01*
X16460Y9105D02*Y8925D01*
X15980Y9105D02*Y8925D01*
X19472Y12412D02*Y12232D01*
X18992Y12412D02*Y12232D01*
X17437Y14204D02*Y14024D01*
X17917Y14204D02*Y14024D01*
X21027Y9853D02*Y9673D01*
X20547Y9853D02*Y9673D01*
G54D24*X19398Y7096D02*X19498D01*
X19398Y8396D02*X19498D01*
G54D11*X25295Y3918D02*Y3704D01*
G54D23*X25669Y3918D02*Y3704D01*
X26043Y3918D02*Y3704D01*
Y2933D02*Y2718D01*
X25669Y2933D02*Y2718D01*
X25295Y2933D02*Y2718D01*
G54D21*X25382Y12995D02*X25562D01*
X25382Y12515D02*X25562D01*
X19299Y1098D02*X19479D01*
X19299Y1578D02*X19479D01*
G54D24*X13217Y6958D02*X13317D01*
X13217Y5658D02*X13317D01*
G54D21*X26642Y10043D02*X26822D01*
X26642Y9563D02*X26822D01*
X28020Y12437D02*X28200D01*
X28020Y12917D02*X28200D01*
X19334Y14381D02*Y14201D01*
X18854Y14381D02*Y14201D01*
G54D24*X23946Y14931D02*Y14831D01*
X25246Y14931D02*Y14831D01*
X24123Y13257D02*X24223D01*
X24123Y11957D02*X24223D01*
G54D21*X18566Y6153D02*Y5973D01*
X18086Y6153D02*Y5973D01*
X16499Y6940D02*Y6760D01*
X16019Y6940D02*Y6760D01*
X16642Y12949D02*X16822D01*
X16642Y13429D02*X16822D01*
X14819Y9460D02*Y9280D01*
X15299Y9460D02*Y9280D01*
G54D22*X10855Y13799D02*X10915D01*
X10855Y13019D02*X10915D01*
X10035Y13409D02*X10095D01*
G54D21*X12232Y5665D02*X12412D01*
X12232Y6145D02*X12412D01*
G54D22*X16063Y2549D02*Y2489D01*
X15283Y2549D02*Y2489D01*
X15673Y3369D02*Y3309D01*
G54D26*X23190Y1537D02*Y1337D01*
G54D28*X25590Y1537D02*Y1337D01*
G54D21*X28059Y10121D02*X28239D01*
X28059Y9641D02*X28239D01*
X17476Y12334D02*Y12154D01*
X17956Y12334D02*Y12154D01*
X25185Y10358D02*X25365D01*
X25185Y9878D02*X25365D01*
X15869Y14814D02*Y14634D01*
X15389Y14814D02*Y14634D01*
X15279Y10129D02*Y9949D01*
X14799Y10129D02*Y9949D01*
G54D24*X15205Y4104D02*X15305D01*
X15205Y5404D02*X15305D01*
G54D21*X14917Y10877D02*Y10697D01*
X15397Y10877D02*Y10697D01*
X18394Y3685D02*X18574D01*
X18394Y4385D02*X18574D01*
X24543Y8042D02*Y7862D01*
X25023Y8042D02*Y7862D01*
X17437Y13554D02*Y13374D01*
X17917Y13554D02*Y13374D01*
X21886Y9381D02*Y9201D01*
X22366Y9381D02*Y9201D01*
X23335Y8940D02*X23515D01*
X23335Y8460D02*X23515D01*
X16618Y11448D02*Y11268D01*
X16138Y11448D02*Y11268D01*
X13145Y8869D02*Y8689D01*
X13625Y8869D02*Y8689D01*
G54D24*X25816Y4892D02*Y4792D01*
X24516Y4892D02*Y4792D01*
G54D21*X29358Y11657D02*X29538D01*
X29358Y11177D02*X29538D01*
X16334Y10030D02*Y9850D01*
X16814Y10030D02*Y9850D01*
X15121Y8121D02*Y7941D01*
X14641Y8121D02*Y7941D01*
X22252Y4886D02*X22432D01*
X22252Y5586D02*X22432D01*
X21362Y6526D02*Y6346D01*
X20882Y6526D02*Y6346D01*
M02*
