G04 start of page 9 for group -4014 idx -4014
G04 Title: stribog.main_board.bis, bottompaste *
G04 Creator: pcb 20070208 *
G04 CreationDate: Sun Apr  6 09:45:44 2008 UTC *
G04 For: dti *
G04 Format: Gerber/RS-274X *
G04 PCB-Dimensions: 314961 157480 *
G04 PCB-Coordinate-Origin: lower left *
%MOIN*%
%FSLAX24Y24*%
%LNBACKPASTE*%
%ADD19R,0.0400X0.0400*%
%ADD21R,0.0240X0.0240*%
%ADD22R,0.0200X0.0200*%
%ADD23R,0.0512X0.0512*%
%ADD24R,0.0879X0.0879*%
%ADD25R,0.0800X0.0800*%
%ADD26R,0.0640X0.0640*%
%ADD27R,0.0340X0.0340*%
G54D26*X21857Y8332D02*Y7572D01*
X20897Y8332D02*Y7572D01*
G54D22*X13613Y12523D02*X14263D01*
X13613Y12023D02*X14263D01*
X13613Y11523D02*X14263D01*
X13613Y11023D02*X14263D01*
X13613Y10523D02*X14263D01*
X13613Y10023D02*X14263D01*
X13613Y9523D02*X14263D01*
X11563D02*X12213D01*
X11563Y10023D02*X12213D01*
X11563Y10523D02*X12213D01*
X11563Y11023D02*X12213D01*
X11563Y11523D02*X12213D01*
X11563Y12023D02*X12213D01*
X11563Y12523D02*X12213D01*
G54D21*X21106Y11153D02*Y10973D01*
X20626Y11153D02*Y10973D01*
X12823Y14287D02*X13003D01*
X12823Y14767D02*X13003D01*
G54D23*X14842Y1417D02*Y1181D01*
X13661Y1417D02*Y1181D01*
G54D21*X10697Y10941D02*X10877D01*
X10697Y11421D02*X10877D01*
X19452Y13554D02*Y13374D01*
X18972Y13554D02*Y13374D01*
X14799Y6822D02*Y6642D01*
X15279Y6822D02*Y6642D01*
X13273Y4220D02*X13433D01*
X13273Y5000D02*X13433D01*
X14093D02*X14253D01*
X14093Y4610D02*X14253D01*
X14093Y4220D02*X14253D01*
X15823Y12334D02*Y12154D01*
X16303Y12334D02*Y12154D01*
X14956Y11625D02*Y11445D01*
X15436Y11625D02*Y11445D01*
X16256Y7845D02*Y7665D01*
X16736Y7845D02*Y7665D01*
X15035Y8751D02*Y8571D01*
X15515Y8751D02*Y8571D01*
X14799Y7452D02*Y7272D01*
X15279Y7452D02*Y7272D01*
G54D22*X22353Y3505D02*X23003D01*
X22353Y3005D02*X23003D01*
X22353Y2505D02*X23003D01*
X22353Y2005D02*X23003D01*
X20303D02*X20953D01*
X20303Y2505D02*X20953D01*
X20303Y3005D02*X20953D01*
X20303Y3505D02*X20953D01*
G54D21*X29358Y10200D02*X29538D01*
X29358Y9720D02*X29538D01*
X21169Y13933D02*X21349D01*
X21169Y14413D02*X21349D01*
X14130Y14302D02*Y14122D01*
X14610Y14302D02*Y14122D01*
X19531Y9341D02*Y9161D01*
X19051Y9341D02*Y9161D01*
X15074Y6231D02*Y6051D01*
X15554Y6231D02*Y6051D01*
X16460Y9105D02*Y8925D01*
X15980Y9105D02*Y8925D01*
X19452Y12452D02*Y12272D01*
X18972Y12452D02*Y12272D01*
X17437Y14381D02*Y14201D01*
X17917Y14381D02*Y14201D01*
X21027Y9853D02*Y9673D01*
X20547Y9853D02*Y9673D01*
G54D25*X29309Y3308D02*X29509D01*
X29309Y5708D02*X29509D01*
G54D19*X19398Y7096D02*X19498D01*
X19398Y8396D02*X19498D01*
G54D21*X25633Y5404D02*Y5224D01*
X25153Y5404D02*Y5224D01*
G54D24*X23899Y1556D02*Y1356D01*
G54D25*X26299Y1556D02*Y1356D01*
G54D21*X25382Y12995D02*X25562D01*
X25382Y12515D02*X25562D01*
G54D19*X13217Y6958D02*X13317D01*
X13217Y5658D02*X13317D01*
G54D21*X26642Y10043D02*X26822D01*
X26642Y9563D02*X26822D01*
X28020Y12437D02*X28200D01*
X28020Y12917D02*X28200D01*
X19334Y14381D02*Y14201D01*
X18854Y14381D02*Y14201D01*
G54D19*X23946Y14931D02*Y14831D01*
X25246Y14931D02*Y14831D01*
X24123Y13257D02*X24223D01*
X24123Y11957D02*X24223D01*
G54D21*X23382Y7255D02*Y7075D01*
X23862Y7255D02*Y7075D01*
X16499Y6940D02*Y6760D01*
X16019Y6940D02*Y6760D01*
X16642Y12949D02*X16822D01*
X16642Y13429D02*X16822D01*
X14799Y9460D02*Y9280D01*
X15279Y9460D02*Y9280D01*
X13822Y3475D02*Y3295D01*
X13342Y3475D02*Y3295D01*
G54D27*X16063Y2549D02*Y2489D01*
X15283Y2549D02*Y2489D01*
X15673Y3369D02*Y3309D01*
G54D19*X22234Y1231D02*Y1131D01*
X20934Y1231D02*Y1131D01*
G54D21*X28059Y10121D02*X28239D01*
X28059Y9641D02*X28239D01*
X17476Y12334D02*Y12154D01*
X17956Y12334D02*Y12154D01*
X25185Y10358D02*X25365D01*
X25185Y9878D02*X25365D01*
X19437Y1453D02*X19617D01*
X19437Y1933D02*X19617D01*
X15869Y14814D02*Y14634D01*
X15389Y14814D02*Y14634D01*
X15279Y10129D02*Y9949D01*
X14799Y10129D02*Y9949D01*
G54D19*X15383Y4104D02*X15483D01*
X15383Y5404D02*X15483D01*
G54D21*X14917Y10877D02*Y10697D01*
X15397Y10877D02*Y10697D01*
G54D19*X24537Y6270D02*Y6170D01*
X25837Y6270D02*Y6170D01*
G54D21*X25303Y7515D02*X25483D01*
X25303Y7995D02*X25483D01*
X17437Y13554D02*Y13374D01*
X17917Y13554D02*Y13374D01*
X21886Y9381D02*Y9201D01*
X22366Y9381D02*Y9201D01*
X23335Y8940D02*X23515D01*
X23335Y8460D02*X23515D01*
X16617Y11546D02*Y11366D01*
X16137Y11546D02*Y11366D01*
X13145Y8869D02*Y8689D01*
X13625Y8869D02*Y8689D01*
X23925Y3027D02*X24105D01*
X23925Y3507D02*X24105D01*
X29358Y11657D02*X29538D01*
X29358Y11177D02*X29538D01*
X16295Y10023D02*Y9843D01*
X16775Y10023D02*Y9843D01*
X22508Y6027D02*X22688D01*
X22508Y5547D02*X22688D01*
X15121Y8121D02*Y7941D01*
X14641Y8121D02*Y7941D01*
X25164Y4482D02*Y4322D01*
X25944Y4482D02*Y4322D01*
Y3662D02*Y3502D01*
X25554Y3662D02*Y3502D01*
X25164Y3662D02*Y3502D01*
X21524Y6106D02*X21704D01*
X21524Y5626D02*X21704D01*
M02*
