G04 start of page 5 for group -4062 idx -4062
G04 Title: stribog.bis, soldermask *
G04 Creator: pcb 20080202 *
G04 CreationDate: Sun Nov 29 16:50:14 2009 UTC *
G04 For: dti *
G04 Format: Gerber/RS-274X *
G04 PCB-Dimensions: 314960 157480 *
G04 PCB-Coordinate-Origin: lower left *
%MOIN*%
%FSLAX24Y24*%
%LNBACKMASK*%
%ADD11C,0.0200*%
%ADD27R,0.0640X0.0640*%
%ADD42C,0.0840*%
%ADD43C,0.0640*%
%ADD44C,0.1772*%
%ADD46R,0.0440X0.0440*%
%ADD47R,0.0480X0.0480*%
%ADD52R,0.0580X0.0580*%
%ADD54R,0.0752X0.0752*%
%ADD55R,0.1179X0.1179*%
%ADD56R,0.0880X0.0880*%
%ADD57R,0.1100X0.1100*%
%ADD58C,0.0440*%
G54D42*X11023Y11968D03*
Y14968D03*
X10118Y14960D03*
Y11960D03*
X16102Y13110D03*
X13102D03*
X20551Y11889D03*
Y13889D03*
X30236Y8149D03*
Y7149D03*
X29236Y8149D03*
Y7149D03*
X28236Y8149D03*
Y7149D03*
X21850Y9803D03*
X27236Y8149D03*
Y7149D03*
X27244Y6220D03*
X28228D03*
X26236Y8149D03*
Y7149D03*
G54D43*X2519Y6177D03*
Y5677D03*
Y5177D03*
Y4677D03*
Y4177D03*
Y3677D03*
Y3177D03*
G54D11*G36*
X2199Y2997D02*Y2357D01*
X2839D01*
Y2997D01*
X2199D01*
G37*
G54D44*X6889Y14763D03*
X984Y14763D03*
X984Y984D03*
X30511Y14763D03*
Y984D03*
X8858Y984D03*
G54D47*X12232Y6145D02*X12412D01*
G54D52*X10855Y13799D02*X10915D01*
X10855Y13019D02*X10915D01*
X10035Y13409D02*X10095D01*
G54D46*X11563Y10523D02*X12213D01*
X11563Y11023D02*X12213D01*
X11563Y11523D02*X12213D01*
X11563Y12023D02*X12213D01*
X11563Y12523D02*X12213D01*
G54D47*X12161Y13810D02*Y13630D01*
X12180Y14597D02*Y14417D01*
X11461Y13810D02*Y13630D01*
X11480Y14597D02*Y14417D01*
G54D46*X13613Y10023D02*X14263D01*
X13613Y9523D02*X14263D01*
G54D47*X10697Y10941D02*X10877D01*
X10697Y11421D02*X10877D01*
G54D46*X11563Y9523D02*X12213D01*
X11563Y10023D02*X12213D01*
G54D47*X14956Y11625D02*Y11445D01*
X15436Y11625D02*Y11445D01*
X15823Y12334D02*Y12154D01*
G54D46*X13613Y11023D02*X14263D01*
X13613Y10523D02*X14263D01*
X13613Y12023D02*X14263D01*
X13613Y11523D02*X14263D01*
X13613Y12523D02*X14263D01*
G54D47*X12839Y13790D02*Y13610D01*
X13539Y13790D02*Y13610D01*
X16334Y10030D02*Y9850D01*
X14819Y9460D02*Y9280D01*
X15299Y9460D02*Y9280D01*
X16814Y10030D02*Y9850D01*
X16618Y11448D02*Y11268D01*
X16138Y11448D02*Y11268D01*
X17437Y14204D02*Y14024D01*
X17917Y14204D02*Y14024D01*
X15121Y8121D02*Y7941D01*
X14641Y8121D02*Y7941D01*
X14917Y10877D02*Y10697D01*
X15279Y10129D02*Y9949D01*
X14799Y10129D02*Y9949D01*
G54D27*X19398Y8396D02*X19498D01*
G54D47*X19334Y14381D02*Y14201D01*
X18854Y14381D02*Y14201D01*
X19472Y12412D02*Y12232D01*
X18992Y12412D02*Y12232D01*
X19472Y13554D02*Y13374D01*
X18992Y13554D02*Y13374D01*
X15397Y10877D02*Y10697D01*
X15869Y14814D02*Y14634D01*
X15389Y14814D02*Y14634D01*
X14130Y14302D02*Y14122D01*
X14610Y14302D02*Y14122D01*
X13079Y14287D02*X13259D01*
X13079Y14767D02*X13259D01*
G54D54*X13661Y1417D02*Y1181D01*
X14842Y1417D02*Y1181D01*
G54D27*X15205Y4104D02*X15305D01*
G54D47*X13273Y5000D02*X13433D01*
X14093D02*X14253D01*
X14093Y4610D02*X14253D01*
X14093Y4220D02*X14253D01*
X13273D02*X13433D01*
G54D52*X16063Y2549D02*Y2489D01*
X15283Y2549D02*Y2489D01*
X15673Y3369D02*Y3309D01*
G54D47*X16460Y9105D02*Y8925D01*
X15980Y9105D02*Y8925D01*
X16256Y7845D02*Y7665D01*
X16736Y7845D02*Y7665D01*
X17917Y13554D02*Y13374D01*
X17476Y12334D02*Y12154D01*
X17956Y12334D02*Y12154D01*
X17437Y13554D02*Y13374D01*
X16642Y12949D02*X16822D01*
X16642Y13429D02*X16822D01*
X16303Y12334D02*Y12154D01*
X14799Y7452D02*Y7272D01*
X15279Y7452D02*Y7272D01*
G54D27*X15205Y5404D02*X15305D01*
G54D47*X12232Y5665D02*X12412D01*
G54D27*X13217Y5658D02*X13317D01*
G54D47*X15074Y6231D02*Y6051D01*
X15554Y6231D02*Y6051D01*
X13145Y8869D02*Y8689D01*
G54D27*X13217Y6958D02*X13317D01*
G54D47*X15035Y8751D02*Y8571D01*
X14799Y6822D02*Y6642D01*
X15279Y6822D02*Y6642D01*
X15515Y8751D02*Y8571D01*
X13625Y8869D02*Y8689D01*
X17095Y5940D02*X17275D01*
X16499Y6940D02*Y6760D01*
X16019Y6940D02*Y6760D01*
X18394Y3685D02*X18574D01*
X18394Y4385D02*X18574D01*
X17744D02*X17924D01*
X17055D02*X17235D01*
X17744Y3685D02*X17924D01*
X17055D02*X17235D01*
G54D27*X19398Y7096D02*X19498D01*
G54D47*X18566Y6153D02*Y5973D01*
X18086Y6153D02*Y5973D01*
X17095Y5240D02*X17275D01*
X19688Y3475D02*Y3295D01*
X19208Y3475D02*Y3295D01*
X19740Y4853D02*Y4673D01*
X19299Y1098D02*X19479D01*
X19299Y1578D02*X19479D01*
X19280Y2181D02*X19460D01*
X19280Y2661D02*X19460D01*
G54D11*G36*
X18153Y2456D02*Y1756D01*
X18853D01*
Y2456D01*
X18153D01*
G37*
G36*
Y1556D02*Y856D01*
X18853D01*
Y1556D01*
X18153D01*
G37*
G54D47*X28059Y10121D02*X28239D01*
X28059Y9641D02*X28239D01*
X29358Y11657D02*X29538D01*
X29358Y11177D02*X29538D01*
X29358Y10200D02*X29538D01*
X29358Y9720D02*X29538D01*
X24543Y8042D02*Y7862D01*
X25023Y8042D02*Y7862D01*
X26642Y9563D02*X26822D01*
X28020Y12437D02*X28200D01*
X25382Y12515D02*X25562D01*
X28020Y12917D02*X28200D01*
X25382Y12995D02*X25562D01*
X26642Y10043D02*X26822D01*
X25185Y10358D02*X25365D01*
X25185Y9878D02*X25365D01*
X22252Y4886D02*X22432D01*
X22252Y5586D02*X22432D01*
X22488Y3361D02*X22668D01*
X21362Y6526D02*Y6346D01*
X20882Y6526D02*Y6346D01*
X21484Y5704D02*X21664D01*
G54D55*X23190Y1537D02*Y1337D01*
G54D47*X22016Y1747D02*X22196D01*
X22016Y1047D02*X22196D01*
X22488Y2661D02*X22668D01*
X21465Y3243D02*X21645D01*
X21019Y1231D02*Y1051D01*
X20999Y1881D02*Y1701D01*
X21484Y5004D02*X21664D01*
X20220Y4853D02*Y4673D01*
X21106Y4322D02*Y4142D01*
X21806Y4322D02*Y4142D01*
X21465Y2543D02*X21645D01*
X20319Y1231D02*Y1051D01*
X20299Y1881D02*Y1701D01*
X23335Y8940D02*X23515D01*
X23335Y8460D02*X23515D01*
X21886Y9381D02*Y9201D01*
X22366Y9381D02*Y9201D01*
G54D56*X21857Y8332D02*Y7572D01*
X20897Y8332D02*Y7572D01*
G54D47*X21027Y9853D02*Y9673D01*
X21106Y11153D02*Y10973D01*
X20547Y9853D02*Y9673D01*
X20626Y11153D02*Y10973D01*
G54D27*X24123Y13257D02*X24223D01*
X24123Y11957D02*X24223D01*
X23946Y14931D02*Y14831D01*
X25246Y14931D02*Y14831D01*
G54D47*X21169Y13933D02*X21349D01*
X21169Y14413D02*X21349D01*
G54D57*X25590Y1537D02*Y1337D01*
G54D27*X25816Y4892D02*Y4792D01*
G54D58*X25295Y3918D02*Y3704D01*
G54D46*X25669Y3918D02*Y3704D01*
X26043Y3918D02*Y3704D01*
Y2933D02*Y2718D01*
X25669Y2933D02*Y2718D01*
X25295Y2933D02*Y2718D01*
G54D27*X24516Y4892D02*Y4792D01*
G54D52*X24438Y3897D02*X24498D01*
X24438Y3117D02*X24498D01*
X23618Y3507D02*X23678D01*
G54D27*X26761Y4971D02*Y4871D01*
X28061Y4971D02*Y4871D01*
G54D57*X29506Y5767D02*X29706D01*
X29506Y3367D02*X29706D01*
G54D47*X27448Y3833D02*Y3673D01*
X28228Y3833D02*Y3673D01*
Y3013D02*Y2853D01*
X27838Y3013D02*Y2853D01*
X27448Y3013D02*Y2853D01*
X26662Y3232D02*X26842D01*
X26662Y2752D02*X26842D01*
M02*
