G04 start of page 10 for group -4015 idx -4015
G04 Title: stribog.bis, toppaste *
G04 Creator: pcb 20080202 *
G04 CreationDate: Sun Nov 29 16:50:14 2009 UTC *
G04 For: dti *
G04 Format: Gerber/RS-274X *
G04 PCB-Dimensions: 314960 157480 *
G04 PCB-Coordinate-Origin: lower left *
%MOIN*%
%FSLAX24Y24*%
%LNFRONTPASTE*%
%ADD11C,0.0200*%
%ADD15C,0.0098*%
%ADD18C,0.0120*%
%ADD21R,0.0240X0.0240*%
%ADD22R,0.0340X0.0340*%
%ADD23R,0.0200X0.0200*%
%ADD35R,0.0360X0.0360*%
%ADD36R,0.0098X0.0098*%
%ADD37R,0.0120X0.0120*%
%ADD38R,0.0138X0.0138*%
%ADD39C,0.0138*%
%ADD40R,0.0256X0.0256*%
%ADD41C,0.0256*%
G54D41*X28366Y4815D02*Y4231D01*
G54D40*X27972Y4815D02*Y4231D01*
X27578Y4815D02*Y4231D01*
X27185Y4815D02*Y4231D01*
X26791Y4815D02*Y4231D01*
X26397Y4815D02*Y4231D01*
X28366Y3010D02*Y2426D01*
X27972Y3010D02*Y2426D01*
X27578Y3010D02*Y2426D01*
X27185Y3010D02*Y2426D01*
X26791Y3010D02*Y2426D01*
X26397Y3010D02*Y2426D01*
X28602Y3424D02*X29186D01*
X28602Y3818D02*X29186D01*
X25577Y3424D02*X26161D01*
X25577Y3818D02*X26161D01*
G54D21*X23863Y2138D02*X24023D01*
X23863Y1358D02*X24023D01*
X24683D02*X24843D01*
X24683Y1748D02*X24843D01*
X24683Y2138D02*X24843D01*
X25165Y6137D02*X25345D01*
X25165Y5437D02*X25345D01*
X24398Y2799D02*X24578D01*
X24398Y3499D02*X24578D01*
G54D35*X12908Y5799D02*Y5459D01*
X13548Y5799D02*Y5459D01*
G54D15*X21081Y2308D02*Y1824D01*
G54D36*X21278Y2308D02*Y1824D01*
X21475Y2308D02*Y1824D01*
X21672Y2308D02*Y1824D01*
X21869Y2308D02*Y1824D01*
X22065Y2308D02*Y1824D01*
X21081Y4592D02*Y4108D01*
X21278Y4592D02*Y4108D01*
X21475Y4592D02*Y4108D01*
X21672Y4592D02*Y4108D01*
X21869Y4592D02*Y4108D01*
X22065Y4592D02*Y4108D01*
X20387Y2518D02*X20871D01*
X20387Y2715D02*X20871D01*
X20387Y2912D02*X20871D01*
X20387Y3109D02*X20871D01*
X20387Y3306D02*X20871D01*
X20387Y3502D02*X20871D01*
X20387Y3699D02*X20871D01*
X20387Y3896D02*X20871D01*
X22278Y2518D02*X22762D01*
X22278Y2715D02*X22762D01*
X22278Y2912D02*X22762D01*
X22278Y3109D02*X22762D01*
X22278Y3306D02*X22762D01*
X22278Y3502D02*X22762D01*
X22278Y3699D02*X22762D01*
X22278Y3896D02*X22762D01*
G54D39*X18740Y4671D02*Y4055D01*
G54D38*X18425Y4671D02*Y4055D01*
X18110Y4671D02*Y4055D01*
X17795Y4671D02*Y4055D01*
X17480Y4671D02*Y4055D01*
X17165Y4671D02*Y4055D01*
X16850Y4671D02*Y4055D01*
X18957Y3838D02*X19573D01*
X18957Y3523D02*X19573D01*
X18957Y3208D02*X19573D01*
X18957Y2893D02*X19573D01*
X18957Y2578D02*X19573D01*
X18957Y2263D02*X19573D01*
X18957Y1948D02*X19573D01*
X18740Y1731D02*Y1115D01*
X18425Y1731D02*Y1115D01*
X18110Y1731D02*Y1115D01*
X17795Y1731D02*Y1115D01*
X17480Y1731D02*Y1115D01*
X17165Y1731D02*Y1115D01*
X16850Y1731D02*Y1115D01*
X16017Y3838D02*X16633D01*
X16017Y3523D02*X16633D01*
X16017Y3208D02*X16633D01*
X16017Y2893D02*X16633D01*
X16017Y2578D02*X16633D01*
X16017Y2263D02*X16633D01*
X16017Y1948D02*X16633D01*
G54D21*X22429Y11728D02*X22609D01*
X22429Y12208D02*X22609D01*
X12279Y1861D02*Y1681D01*
X12759Y1861D02*Y1681D01*
X12279Y1231D02*Y1051D01*
X12759Y1231D02*Y1051D01*
X14452Y12255D02*Y12075D01*
X13972Y12255D02*Y12075D01*
G54D11*G36*
X21574Y14798D02*Y14298D01*
X22074D01*
Y14798D01*
X21574D01*
G37*
G36*
Y13898D02*Y13398D01*
X22074D01*
Y13898D01*
X21574D01*
G37*
G36*
X22474Y14798D02*Y14298D01*
X22974D01*
Y14798D01*
X22474D01*
G37*
G36*
Y13898D02*Y13398D01*
X22974D01*
Y13898D01*
X22474D01*
G37*
G54D21*X21721Y12437D02*X21901D01*
X21721Y12917D02*X21901D01*
G54D35*X13262Y10918D02*Y10578D01*
X13902Y10918D02*Y10578D01*
X13183Y7965D02*Y7625D01*
X13823Y7965D02*Y7625D01*
X13223Y8949D02*Y8609D01*
X13863Y8949D02*Y8609D01*
X12829Y6981D02*Y6641D01*
X13469Y6981D02*Y6641D01*
G54D23*X14949Y11970D02*X15599D01*
X14949Y11470D02*X15599D01*
X14949Y10970D02*X15599D01*
X14949Y10470D02*X15599D01*
X16999D02*X17649D01*
X16999Y10970D02*X17649D01*
X16999Y11470D02*X17649D01*
X16999Y11970D02*X17649D01*
G54D21*X15736Y1342D02*X15916D01*
X15736Y862D02*X15916D01*
G54D23*X18948Y12635D02*X19598D01*
X18948Y13135D02*X19598D01*
X18948Y13635D02*X19598D01*
X18948Y14135D02*X19598D01*
X16898D02*X17548D01*
X16898Y13635D02*X17548D01*
X16898Y13135D02*X17548D01*
X16898Y12635D02*X17548D01*
X15227Y13698D02*X15877D01*
X15227Y14198D02*X15877D01*
X15227Y14698D02*X15877D01*
X15227Y15198D02*X15877D01*
X13177D02*X13827D01*
X13177Y14698D02*X13827D01*
X13177Y14198D02*X13827D01*
X13177Y13698D02*X13827D01*
G54D21*X25586Y1507D02*Y1327D01*
X26066Y1507D02*Y1327D01*
X24717Y15309D02*Y15149D01*
X23937Y15309D02*Y15149D01*
Y14489D02*Y14329D01*
X24327Y14489D02*Y14329D01*
X24717Y14489D02*Y14329D01*
X14610Y1310D02*Y1130D01*
X14130Y1310D02*Y1130D01*
G54D22*X30206Y5058D02*X30266D01*
X30206Y5838D02*X30266D01*
X29386Y5448D02*X29446D01*
G54D21*X24358Y4818D02*X24538D01*
X24358Y4118D02*X24538D01*
X23472Y12370D02*Y12210D01*
X24252Y12370D02*Y12210D01*
Y13190D02*Y13030D01*
X23862Y13190D02*Y13030D01*
X23472Y13190D02*Y13030D01*
X23704Y11271D02*Y11091D01*
X23224Y11271D02*Y11091D01*
G54D35*X13498Y9973D02*Y9633D01*
X14138Y9973D02*Y9633D01*
G54D21*X12287Y11231D02*Y11051D01*
X11807Y11231D02*Y11051D01*
G54D23*X3613Y6950D02*X4263D01*
X3613Y7450D02*X4263D01*
X3613Y7950D02*X4263D01*
X3613Y8450D02*X4263D01*
X3613Y8950D02*X4263D01*
X3613Y9450D02*X4263D01*
X3613Y9950D02*X4263D01*
X3613Y10450D02*X4263D01*
X1563D02*X2213D01*
X1563Y9950D02*X2213D01*
X1563Y9450D02*X2213D01*
X1563Y8950D02*X2213D01*
X1563Y8450D02*X2213D01*
X1563Y7950D02*X2213D01*
X1563Y7450D02*X2213D01*
X1563Y6950D02*X2213D01*
G54D15*X19189Y9730D02*X19559D01*
G54D36*X19189Y9533D02*X19559D01*
X19189Y9336D02*X19559D01*
X19189Y9139D02*X19559D01*
X19189Y8943D02*X19559D01*
X19189Y8746D02*X19559D01*
X19189Y8549D02*X19559D01*
X19189Y8352D02*X19559D01*
X19189Y8155D02*X19559D01*
X19189Y7958D02*X19559D01*
X19189Y7761D02*X19559D01*
X19189Y7565D02*X19559D01*
X19189Y7368D02*X19559D01*
X19189Y7171D02*X19559D01*
X19189Y6974D02*X19559D01*
X19189Y6777D02*X19559D01*
X20139Y6200D02*Y5830D01*
X20336Y6200D02*Y5830D01*
X20533Y6200D02*Y5830D01*
X20730Y6200D02*Y5830D01*
X20927Y6200D02*Y5830D01*
X21123Y6200D02*Y5830D01*
X21320Y6200D02*Y5830D01*
X21517Y6200D02*Y5830D01*
X21714Y6200D02*Y5830D01*
X21911Y6200D02*Y5830D01*
X22108Y6200D02*Y5830D01*
X22305Y6200D02*Y5830D01*
X22501Y6200D02*Y5830D01*
X22698Y6200D02*Y5830D01*
X22895Y6200D02*Y5830D01*
X23092Y6200D02*Y5830D01*
X23669Y6777D02*X24039D01*
X23669Y6974D02*X24039D01*
X23669Y7171D02*X24039D01*
X23669Y7368D02*X24039D01*
X23669Y7565D02*X24039D01*
X23669Y7761D02*X24039D01*
X23669Y7958D02*X24039D01*
X23669Y8155D02*X24039D01*
X23669Y8352D02*X24039D01*
X23669Y8549D02*X24039D01*
X23669Y8746D02*X24039D01*
X23669Y8943D02*X24039D01*
X23669Y9139D02*X24039D01*
X23669Y9336D02*X24039D01*
X23669Y9533D02*X24039D01*
X23669Y9730D02*X24039D01*
X23092Y10680D02*Y10310D01*
X22895Y10680D02*Y10310D01*
X22698Y10680D02*Y10310D01*
X22501Y10680D02*Y10310D01*
X22305Y10680D02*Y10310D01*
X22108Y10680D02*Y10310D01*
X21911Y10680D02*Y10310D01*
X21714Y10680D02*Y10310D01*
X21517Y10680D02*Y10310D01*
X21320Y10680D02*Y10310D01*
X21123Y10680D02*Y10310D01*
X20927Y10680D02*Y10310D01*
X20730Y10680D02*Y10310D01*
X20533Y10680D02*Y10310D01*
X20336Y10680D02*Y10310D01*
X20139Y10680D02*Y10310D01*
G54D21*X24988Y7378D02*X25168D01*
X24988Y7858D02*X25168D01*
G54D18*X15284Y2716D02*X15504D01*
G54D37*X15284Y2976D02*X15504D01*
X15284Y3226D02*X15504D01*
X15284Y3486D02*X15504D01*
X13614Y3496D02*X13834D01*
X13614Y3236D02*X13834D01*
X13614Y2986D02*X13834D01*
X13614Y2726D02*X13834D01*
G54D21*X15189Y5427D02*Y5267D01*
X14409Y5427D02*Y5267D01*
Y4607D02*Y4447D01*
X14799Y4607D02*Y4447D01*
X15189Y4607D02*Y4447D01*
X13256Y783D02*X13436D01*
X13256Y1263D02*X13436D01*
G54D23*X14988Y9844D02*X15638D01*
X14988Y9344D02*X15638D01*
X14988Y8844D02*X15638D01*
X14988Y8344D02*X15638D01*
X17038D02*X17688D01*
X17038Y8844D02*X17688D01*
X17038Y9344D02*X17688D01*
X17038Y9844D02*X17688D01*
G54D21*X13106Y4696D02*Y4516D01*
X13586Y4696D02*Y4516D01*
G54D23*X27747Y9509D02*X28397D01*
X27747Y10009D02*X28397D01*
X27747Y10509D02*X28397D01*
X27747Y11009D02*X28397D01*
X27747Y11509D02*X28397D01*
X27747Y12009D02*X28397D01*
X27747Y12509D02*X28397D01*
X27747Y13009D02*X28397D01*
X25697D02*X26347D01*
X25697Y12509D02*X26347D01*
X25697Y12009D02*X26347D01*
X25697Y11509D02*X26347D01*
X25697Y11009D02*X26347D01*
X25697Y10509D02*X26347D01*
X25697Y10009D02*X26347D01*
X25697Y9509D02*X26347D01*
G54D21*X27613Y1625D02*Y1445D01*
X26913Y1625D02*Y1445D01*
G54D23*X14988Y7718D02*X15638D01*
X14988Y7218D02*X15638D01*
X14988Y6718D02*X15638D01*
X14988Y6218D02*X15638D01*
X17038D02*X17688D01*
X17038Y6718D02*X17688D01*
X17038Y7218D02*X17688D01*
X17038Y7718D02*X17688D01*
M02*
