G04 start of page 4 for group -4063 idx -4063
G04 Title: stribog.main_board.bis, componentmask *
G04 Creator: pcb 20070208 *
G04 CreationDate: Sun Apr  6 09:45:44 2008 UTC *
G04 For: dti *
G04 Format: Gerber/RS-274X *
G04 PCB-Dimensions: 314961 157480 *
G04 PCB-Coordinate-Origin: lower left *
%MOIN*%
%FSLAX24Y24*%
%LNFRONTMASK*%
%ADD18C,0.0600*%
%ADD26R,0.0640X0.0640*%
%ADD27R,0.0340X0.0340*%
%ADD38R,0.0500X0.0500*%
%ADD39R,0.0360X0.0360*%
%ADD40C,0.0840*%
%ADD41C,0.0640*%
%ADD42C,0.1772*%
%ADD43R,0.0480X0.0480*%
%ADD44C,0.0500*%
%ADD45R,0.0580X0.0580*%
%ADD46R,0.0440X0.0440*%
%ADD47R,0.0740X0.0740*%
%ADD48R,0.0600X0.0600*%
%ADD49C,0.0340*%
%ADD50C,0.0360*%
G54D40*X11023Y11968D03*
Y14968D03*
X10118Y14960D03*
Y11960D03*
X16023Y13110D03*
X13023D03*
X20551Y11889D03*
Y13889D03*
X30236Y8149D03*
Y7149D03*
X29236Y8149D03*
Y7149D03*
X28236Y8149D03*
Y7149D03*
X21850Y9803D03*
X27236Y8149D03*
Y7149D03*
X26236Y8149D03*
Y7149D03*
X28267Y1259D03*
X27267D03*
X28267Y2259D03*
X27267D03*
X28267Y3259D03*
X27267D03*
X28267Y4259D03*
X27267D03*
X28267Y5259D03*
X27267D03*
G54D18*X27244Y6220D03*
X28228D03*
G54D41*X2519Y6177D03*
Y5677D03*
Y5177D03*
Y4677D03*
Y4177D03*
Y3677D03*
Y3177D03*
G54D26*Y2677D03*
G54D40*X18267Y1259D03*
X17267D03*
X18267Y2259D03*
X17267D03*
X18267Y3259D03*
X17267D03*
X18267Y4259D03*
X17267D03*
X18267Y5259D03*
X17267D03*
G54D42*X8858Y14763D03*
X984Y14763D03*
X30511Y14763D03*
Y984D03*
X984D03*
X8858Y984D03*
G54D43*X19555Y2161D02*X19735D01*
X19555Y2641D02*X19735D01*
G54D44*X22528Y1538D02*X23528D01*
G54D43*X19595Y586D02*X19775D01*
X19595Y1066D02*X19775D01*
G54D38*X20528Y2038D02*X21528D01*
X20528Y1538D02*X21528D01*
X20528Y2538D02*X21528D01*
G54D43*X13256Y783D02*X13436D01*
X13256Y1263D02*X13436D01*
X14610Y1310D02*Y1130D01*
X14130Y1310D02*Y1130D01*
X15658Y1342D02*X15838D01*
X15658Y862D02*X15838D01*
G54D38*X22528Y2538D02*X23528D01*
X22528Y2038D02*X23528D01*
X22028Y1538D02*Y538D01*
Y3538D02*Y2538D01*
G54D43*X24201Y1452D02*X24381D01*
X24201Y1932D02*X24381D01*
G54D45*X29688Y4052D02*Y3992D01*
G54D39*X13614Y2726D02*X13834D01*
G54D43*X12279Y1231D02*Y1051D01*
X12759Y1231D02*Y1051D01*
X12279Y1861D02*Y1681D01*
X12759Y1861D02*Y1681D01*
G54D46*X27747Y9509D02*X28397D01*
X27747Y10009D02*X28397D01*
X27747Y10509D02*X28397D01*
X27747Y11009D02*X28397D01*
X27747Y11509D02*X28397D01*
X27747Y12009D02*X28397D01*
X27747Y12509D02*X28397D01*
X27747Y13009D02*X28397D01*
G54D45*X30078Y4872D02*Y4812D01*
X29298Y4872D02*Y4812D01*
G54D27*X21517Y6200D02*Y5830D01*
X21714Y6200D02*Y5830D01*
X21911Y6200D02*Y5830D01*
X22108Y6200D02*Y5830D01*
X20336Y6200D02*Y5830D01*
X20533Y6200D02*Y5830D01*
X20730Y6200D02*Y5830D01*
X20927Y6200D02*Y5830D01*
X21123Y6200D02*Y5830D01*
X21320Y6200D02*Y5830D01*
X22305Y6200D02*Y5830D01*
X22501Y6200D02*Y5830D01*
X22698Y6200D02*Y5830D01*
X22895Y6200D02*Y5830D01*
X23092Y6200D02*Y5830D01*
G54D46*X23649Y5553D02*X24299D01*
X23649Y5053D02*X24299D01*
X23649Y4553D02*X24299D01*
X23649Y4053D02*X24299D01*
X25699Y5053D02*X26349D01*
X25699Y5553D02*X26349D01*
G54D27*X23669Y8746D02*X24039D01*
X23669Y8943D02*X24039D01*
X23669Y9139D02*X24039D01*
X23669Y9336D02*X24039D01*
X23669Y7958D02*X24039D01*
X23669Y8155D02*X24039D01*
X23669Y8352D02*X24039D01*
X23669Y8549D02*X24039D01*
G54D46*X25699Y4053D02*X26349D01*
X25699Y4553D02*X26349D01*
G54D27*X20139Y6200D02*Y5830D01*
G54D46*X25697Y10509D02*X26347D01*
X25697Y10009D02*X26347D01*
X25697Y9509D02*X26347D01*
G54D43*X24717Y15309D02*Y15149D01*
Y14489D02*Y14329D01*
X24988Y7476D02*X25168D01*
X24988Y7956D02*X25168D01*
G54D27*X23669Y6777D02*X24039D01*
X23669Y6974D02*X24039D01*
X23669Y7171D02*X24039D01*
X23669Y7368D02*X24039D01*
X23669Y7565D02*X24039D01*
X23669Y7761D02*X24039D01*
X23669Y9533D02*X24039D01*
X23669Y9730D02*X24039D01*
X23092Y10680D02*Y10310D01*
X22895Y10680D02*Y10310D01*
X22698Y10680D02*Y10310D01*
G54D43*X23937Y15309D02*Y15149D01*
Y14489D02*Y14329D01*
X24327Y14489D02*Y14329D01*
G54D47*X22724Y14548D03*
Y13648D03*
G54D43*X23704Y11271D02*Y11091D01*
X23472Y12370D02*Y12210D01*
X23862Y13190D02*Y13030D01*
X23472Y13190D02*Y13030D01*
X23224Y11271D02*Y11091D01*
G54D46*X25697Y12009D02*X26347D01*
X25697Y11509D02*X26347D01*
X25697Y11009D02*X26347D01*
G54D43*X24252Y13190D02*Y13030D01*
G54D46*X25697Y13009D02*X26347D01*
X25697Y12509D02*X26347D01*
G54D43*X24252Y12370D02*Y12210D01*
G54D27*X22501Y10680D02*Y10310D01*
X22305Y10680D02*Y10310D01*
X22108Y10680D02*Y10310D01*
X21911Y10680D02*Y10310D01*
G54D43*X22429Y11728D02*X22609D01*
X22429Y12208D02*X22609D01*
G54D27*X21714Y10680D02*Y10310D01*
X21517Y10680D02*Y10310D01*
X21320Y10680D02*Y10310D01*
X21123Y10680D02*Y10310D01*
X20927Y10680D02*Y10310D01*
X20730Y10680D02*Y10310D01*
X20533Y10680D02*Y10310D01*
X20336Y10680D02*Y10310D01*
X20139Y10680D02*Y10310D01*
G54D46*X16956Y14135D02*X17606D01*
X16956Y13635D02*X17606D01*
X16956Y13135D02*X17606D01*
X16956Y12635D02*X17606D01*
G54D47*X21824Y14548D03*
Y13648D03*
G54D46*X19006Y12635D02*X19656D01*
X19006Y13135D02*X19656D01*
X19006Y13635D02*X19656D01*
X19006Y14135D02*X19656D01*
G54D43*X21721Y12437D02*X21901D01*
X21721Y12917D02*X21901D01*
G54D46*X15227Y13698D02*X15877D01*
X15227Y14198D02*X15877D01*
X15227Y14698D02*X15877D01*
X15227Y15198D02*X15877D01*
X13177D02*X13827D01*
X13177Y14698D02*X13827D01*
X13177Y14198D02*X13827D01*
X13177Y13698D02*X13827D01*
G54D43*X14452Y12255D02*Y12075D01*
X13972Y12255D02*Y12075D01*
G54D46*X14949Y11970D02*X15599D01*
X16999D02*X17649D01*
X14949Y11470D02*X15599D01*
X14949Y10970D02*X15599D01*
X14949Y10470D02*X15599D01*
X16999D02*X17649D01*
X16999Y10970D02*X17649D01*
X16999Y11470D02*X17649D01*
G54D48*X13262Y10918D02*Y10578D01*
X13902Y10918D02*Y10578D01*
X13498Y9973D02*Y9633D01*
X14138Y9973D02*Y9633D01*
X13548Y5799D02*Y5459D01*
X13469Y6981D02*Y6641D01*
X13863Y8949D02*Y8609D01*
X13823Y7965D02*Y7625D01*
G54D46*X17038Y6218D02*X17688D01*
X17038Y6718D02*X17688D01*
X17038Y7218D02*X17688D01*
X17038Y7718D02*X17688D01*
X17038Y8344D02*X17688D01*
X17038Y9344D02*X17688D01*
X17038Y9844D02*X17688D01*
X17038Y8844D02*X17688D01*
G54D49*X19189Y9730D02*X19559D01*
G54D27*X19189Y9533D02*X19559D01*
X19189Y9336D02*X19559D01*
X19189Y9139D02*X19559D01*
X19189Y8943D02*X19559D01*
X19189Y8746D02*X19559D01*
X19189Y8549D02*X19559D01*
X19189Y8352D02*X19559D01*
X19189Y8155D02*X19559D01*
X19189Y7958D02*X19559D01*
X19189Y7761D02*X19559D01*
X19189Y7565D02*X19559D01*
X19189Y7368D02*X19559D01*
X19189Y7171D02*X19559D01*
X19189Y6974D02*X19559D01*
X19189Y6777D02*X19559D01*
G54D46*X14988Y9844D02*X15638D01*
X14988Y9344D02*X15638D01*
X14988Y8844D02*X15638D01*
X14988Y7718D02*X15638D01*
X14988Y8344D02*X15638D01*
G54D48*X12829Y6981D02*Y6641D01*
X13223Y8949D02*Y8609D01*
X13183Y7965D02*Y7625D01*
G54D43*X12287Y11349D02*Y11169D01*
X11807Y11349D02*Y11169D01*
G54D46*X14988Y7218D02*X15638D01*
X14988Y6718D02*X15638D01*
X14988Y6218D02*X15638D01*
G54D48*X12908Y5799D02*Y5459D01*
G54D43*X15189Y5427D02*Y5267D01*
X14409Y5427D02*Y5267D01*
Y4607D02*Y4447D01*
X14799Y4607D02*Y4447D01*
X15189Y4607D02*Y4447D01*
X13106Y4696D02*Y4516D01*
X13586Y4696D02*Y4516D01*
G54D39*X13614Y3496D02*X13834D01*
X13614Y3236D02*X13834D01*
X13614Y2986D02*X13834D01*
G54D50*X15284Y2716D02*X15504D01*
G54D39*X15284Y2976D02*X15504D01*
X15284Y3226D02*X15504D01*
X15284Y3486D02*X15504D01*
G54D46*X3613Y6950D02*X4263D01*
X3613Y7450D02*X4263D01*
X3613Y7950D02*X4263D01*
X3613Y8450D02*X4263D01*
X3613Y8950D02*X4263D01*
X3613Y9450D02*X4263D01*
X3613Y9950D02*X4263D01*
X3613Y10450D02*X4263D01*
X1563D02*X2213D01*
X1563Y9950D02*X2213D01*
X1563Y9450D02*X2213D01*
X1563Y8950D02*X2213D01*
X1563Y8450D02*X2213D01*
X1563Y7950D02*X2213D01*
X1563Y7450D02*X2213D01*
X1563Y6950D02*X2213D01*
M02*
