G04 start of page 2 for group 0 idx 0
G04 Title: stribog.bis, solder *
G04 Creator: pcb 20080202 *
G04 CreationDate: Sun Nov 29 16:50:14 2009 UTC *
G04 For: dti *
G04 Format: Gerber/RS-274X *
G04 PCB-Dimensions: 314960 157480 *
G04 PCB-Coordinate-Origin: lower left *
%MOIN*%
%FSLAX24Y24*%
%LNBACK*%
%ADD11C,0.0200*%
%ADD12C,0.0400*%
%ADD13C,0.0100*%
%ADD14C,0.0250*%
%ADD15C,0.0098*%
%ADD16C,0.0479*%
%ADD17C,0.0250*%
%ADD18C,0.0120*%
%ADD19C,0.0600*%
%ADD20C,0.1575*%
%ADD21R,0.0240X0.0240*%
%ADD22R,0.0340X0.0340*%
%ADD23R,0.0200X0.0200*%
%ADD24R,0.0400X0.0400*%
%ADD25R,0.0512X0.0512*%
%ADD26R,0.0879X0.0879*%
%ADD27R,0.0640X0.0640*%
%ADD28R,0.0800X0.0800*%
%ADD29C,0.0380*%
%ADD30C,0.0207*%
%ADD31C,0.1260*%
%ADD32C,0.0350*%
%ADD33C,0.0350*%
G54D11*G36*
X15708Y1437D02*X15691Y1454D01*
X15690Y1455D01*
X15661Y1518D01*
X15621Y1576D01*
X15572Y1625D01*
X15515Y1665D01*
X15451Y1694D01*
X15450Y1695D01*
X15295Y1850D01*
Y2165D01*
X16397D01*
Y4901D01*
X16988D01*
Y4605D01*
X16935D01*
X16918Y4603D01*
X16901Y4599D01*
X16885Y4592D01*
X16871Y4582D01*
X16859Y4569D01*
X16849Y4555D01*
X16841Y4539D01*
X16837Y4522D01*
X16835Y4505D01*
Y4265D01*
X16837Y4248D01*
X16841Y4231D01*
X16849Y4215D01*
X16859Y4201D01*
X16871Y4188D01*
X16885Y4178D01*
X16901Y4171D01*
X16918Y4166D01*
X16935Y4165D01*
X16988D01*
Y3905D01*
X16935D01*
X16918Y3903D01*
X16901Y3899D01*
X16885Y3892D01*
X16871Y3882D01*
X16859Y3869D01*
X16849Y3855D01*
X16841Y3839D01*
X16837Y3822D01*
X16835Y3805D01*
Y3565D01*
X16837Y3548D01*
X16841Y3531D01*
X16849Y3515D01*
X16859Y3501D01*
X16871Y3488D01*
X16885Y3478D01*
X16901Y3471D01*
X16918Y3466D01*
X16935Y3465D01*
X16988D01*
Y3366D01*
X17166D01*
X17181Y3334D01*
X17211Y3291D01*
X17248Y3254D01*
X17290Y3224D01*
X17338Y3202D01*
X17388Y3188D01*
X17440Y3184D01*
X17493Y3188D01*
X17543Y3202D01*
X17590Y3224D01*
X17633Y3254D01*
X17670Y3291D01*
X17700Y3334D01*
X17715Y3366D01*
X18700D01*
X18818Y3484D01*
Y4409D01*
X18792D01*
Y4505D01*
X18791Y4522D01*
X18786Y4539D01*
X18779Y4554D01*
X18769Y4568D01*
X18757Y4580D01*
X18743Y4590D01*
X18728Y4597D01*
X18711Y4602D01*
X18694Y4603D01*
X18444D01*
Y5078D01*
X18761D01*
X18767Y5074D01*
X18814Y5052D01*
X18865Y5039D01*
X18917Y5034D01*
X18969Y5039D01*
X19019Y5052D01*
X19067Y5074D01*
X19110Y5104D01*
X19147Y5141D01*
X19177Y5184D01*
X19199Y5232D01*
X19212Y5282D01*
X19217Y5334D01*
X19216Y5339D01*
X19291Y5413D01*
X20196D01*
Y5113D01*
X20100D01*
X20076Y5111D01*
X20052Y5105D01*
X20030Y5095D01*
X20010Y5081D01*
X19993Y5063D01*
X19980Y5045D01*
X19967Y5063D01*
X19950Y5081D01*
X19930Y5095D01*
X19908Y5105D01*
X19884Y5111D01*
X19860Y5113D01*
X19620D01*
X19596Y5111D01*
X19572Y5105D01*
X19550Y5095D01*
X19530Y5081D01*
X19513Y5063D01*
X19499Y5043D01*
X19488Y5021D01*
X19482Y4998D01*
X19480Y4973D01*
Y4553D01*
X19482Y4529D01*
X19488Y4505D01*
X19499Y4483D01*
X19513Y4463D01*
X19530Y4446D01*
X19550Y4432D01*
X19572Y4422D01*
X19596Y4415D01*
X19620Y4413D01*
X19820D01*
X19818Y4389D01*
X19823Y4330D01*
X19838Y4273D01*
X19863Y4220D01*
X19897Y4171D01*
X19939Y4129D01*
X19987Y4095D01*
X20041Y4070D01*
X20098Y4055D01*
X20157Y4050D01*
X20196Y4053D01*
Y3720D01*
X19232D01*
Y3695D01*
X19088D01*
X19071Y3694D01*
X19054Y3689D01*
X19038Y3682D01*
X19024Y3672D01*
X19012Y3660D01*
X19002Y3645D01*
X18994Y3630D01*
X18990Y3613D01*
X18988Y3595D01*
Y3175D01*
X18990Y3158D01*
X18994Y3141D01*
X19002Y3125D01*
X19012Y3111D01*
X19024Y3099D01*
X19038Y3089D01*
X19054Y3081D01*
X19071Y3077D01*
X19088Y3075D01*
X19232D01*
Y2933D01*
X19180Y2881D01*
X19160D01*
X19142Y2879D01*
X19125Y2875D01*
X19110Y2867D01*
X19095Y2857D01*
X19083Y2845D01*
X19073Y2831D01*
X19067Y2819D01*
X19062Y2814D01*
X19057Y2811D01*
X19053Y2807D01*
X19047Y2802D01*
X18752Y2506D01*
X18253D01*
X18227Y2504D01*
X18202Y2497D01*
X18178Y2486D01*
X18157Y2471D01*
X18139Y2452D01*
X18124Y2431D01*
X18112Y2407D01*
X18106Y2382D01*
X18103Y2356D01*
Y1856D01*
X18106Y1830D01*
X18112Y1805D01*
X18124Y1781D01*
X18139Y1759D01*
X18157Y1741D01*
X18172Y1731D01*
X18155Y1726D01*
X18110Y1705D01*
X18069Y1676D01*
X18033Y1641D01*
X18004Y1600D01*
X17983Y1554D01*
X17970Y1506D01*
X17966Y1456D01*
Y956D01*
X17970Y906D01*
X17981Y866D01*
X15708D01*
Y1248D01*
X15708Y1249D01*
X15715Y1318D01*
X15708Y1388D01*
X15708Y1389D01*
Y1437D01*
G37*
G36*
X24108Y4685D02*X24048D01*
X24048Y4685D01*
X23996Y4689D01*
Y6220D01*
X24330D01*
X24332Y6219D01*
X24330Y6213D01*
X24326Y6161D01*
X24330Y6109D01*
X24344Y6058D01*
X24366Y6011D01*
X24396Y5968D01*
X24433Y5931D01*
X24476Y5901D01*
X24523Y5879D01*
X24573Y5866D01*
X24626Y5861D01*
X24678Y5866D01*
X24683Y5867D01*
X25039Y5511D01*
X25583D01*
X25570Y5465D01*
X25566Y5413D01*
X25570Y5361D01*
X25584Y5310D01*
X25606Y5263D01*
X25620Y5242D01*
X25616D01*
X25590Y5240D01*
X25565Y5233D01*
X25541Y5222D01*
X25520Y5207D01*
X25502Y5188D01*
X25487Y5167D01*
X25475Y5143D01*
X25469Y5118D01*
X25466Y5092D01*
Y4592D01*
X25469Y4566D01*
X25475Y4541D01*
X25487Y4517D01*
X25502Y4496D01*
X25520Y4477D01*
X25541Y4462D01*
X25565Y4451D01*
X25590Y4444D01*
X25616Y4442D01*
X26016D01*
X26042Y4444D01*
X26068Y4451D01*
X26091Y4462D01*
X26113Y4477D01*
X26131Y4496D01*
X26146Y4517D01*
X26157Y4541D01*
X26164Y4566D01*
X26166Y4592D01*
Y5092D01*
X26164Y5118D01*
X26157Y5143D01*
X26146Y5167D01*
X26131Y5188D01*
X26113Y5207D01*
X26095Y5220D01*
X26095Y5220D01*
X26125Y5263D01*
X26148Y5310D01*
X26161Y5361D01*
X26166Y5413D01*
X26161Y5465D01*
X26149Y5511D01*
X26830D01*
Y5321D01*
X26561D01*
X26535Y5318D01*
X26510Y5312D01*
X26486Y5301D01*
X26465Y5286D01*
X26446Y5267D01*
X26431Y5246D01*
X26420Y5222D01*
X26414Y5197D01*
X26411Y5171D01*
Y4671D01*
X26414Y4645D01*
X26420Y4619D01*
X26431Y4596D01*
X26446Y4574D01*
X26465Y4556D01*
X26486Y4541D01*
X26510Y4530D01*
X26535Y4523D01*
X26561Y4521D01*
X26830D01*
Y4448D01*
X26594Y4212D01*
X25532D01*
X25536Y4251D01*
X25531Y4304D01*
X25518Y4354D01*
X25496Y4401D01*
X25466Y4444D01*
X25429Y4481D01*
X25386Y4511D01*
X25338Y4533D01*
X25288Y4547D01*
X25236Y4551D01*
X25184Y4547D01*
X25133Y4533D01*
X25086Y4511D01*
X25043Y4481D01*
X25006Y4444D01*
X24976Y4401D01*
X24961Y4370D01*
X24950D01*
X24902Y4418D01*
X24918Y4478D01*
X24924Y4547D01*
Y4573D01*
X24925Y4592D01*
Y5092D01*
X24922Y5128D01*
X24913Y5163D01*
X24897Y5197D01*
X24876Y5226D01*
X24851Y5252D01*
X24821Y5273D01*
X24788Y5288D01*
X24753Y5298D01*
X24716Y5301D01*
X24316D01*
X24280Y5298D01*
X24245Y5288D01*
X24212Y5273D01*
X24182Y5252D01*
X24156Y5226D01*
X24136Y5197D01*
X24120Y5163D01*
X24111Y5128D01*
X24108Y5092D01*
Y4685D01*
G37*
G36*
X22436Y2126D02*X20513D01*
X20511Y2138D01*
X20498Y2189D01*
X20476Y2236D01*
X20446Y2279D01*
X20409Y2316D01*
X20366Y2346D01*
X20319Y2368D01*
X20268Y2382D01*
X20216Y2386D01*
X20196Y2384D01*
Y2677D01*
X20472Y2952D01*
X21220D01*
Y2637D01*
X21245D01*
Y2423D01*
X21246Y2406D01*
X21251Y2389D01*
X21258Y2373D01*
X21268Y2359D01*
X21280Y2347D01*
X21295Y2337D01*
X21311Y2329D01*
X21327Y2325D01*
X21345Y2323D01*
X21765D01*
X21782Y2325D01*
X21799Y2329D01*
X21815Y2337D01*
X21829Y2347D01*
X21841Y2359D01*
X21851Y2373D01*
X21859Y2389D01*
X21863Y2406D01*
X21865Y2423D01*
Y2637D01*
X21889D01*
Y3110D01*
X22381D01*
Y2881D01*
X22368D01*
X22351Y2880D01*
X22334Y2875D01*
X22318Y2868D01*
X22304Y2858D01*
X22292Y2846D01*
X22282Y2831D01*
X22274Y2816D01*
X22270Y2799D01*
X22268Y2781D01*
Y2541D01*
X22270Y2524D01*
X22274Y2507D01*
X22282Y2491D01*
X22292Y2477D01*
X22304Y2465D01*
X22318Y2455D01*
X22334Y2447D01*
X22351Y2443D01*
X22368Y2441D01*
X22788D01*
X22806Y2443D01*
X22823Y2447D01*
X22838Y2455D01*
X22853Y2465D01*
X22865Y2477D01*
X22875Y2491D01*
X22882Y2507D01*
X22887Y2524D01*
X22888Y2541D01*
Y2637D01*
X23366D01*
Y2326D01*
X22751D01*
X22690Y2321D01*
X22631Y2305D01*
X22576Y2279D01*
X22526Y2244D01*
X22483Y2201D01*
X22448Y2151D01*
X22436Y2126D01*
G37*
G36*
X25532Y2287D02*X25537Y2298D01*
X25551Y2349D01*
X25555Y2401D01*
X25551Y2453D01*
X25546Y2470D01*
X25569Y2468D01*
X25769D01*
X25795Y2471D01*
X25820Y2477D01*
X25825Y2480D01*
X25886D01*
X25891Y2477D01*
X25917Y2471D01*
X25943Y2468D01*
X26143D01*
X26169Y2471D01*
X26194Y2477D01*
X26218Y2489D01*
X26239Y2504D01*
X26258Y2522D01*
X26273Y2543D01*
X26284Y2567D01*
X26290Y2592D01*
X26293Y2618D01*
Y2736D01*
X26442D01*
Y2632D01*
X26443Y2614D01*
X26448Y2597D01*
X26455Y2582D01*
X26465Y2567D01*
X26477Y2555D01*
X26492Y2545D01*
X26507Y2538D01*
X26524Y2533D01*
X26542Y2532D01*
X26962D01*
X26979Y2533D01*
X26996Y2538D01*
X27012Y2545D01*
X27026Y2555D01*
X27038Y2567D01*
X27048Y2582D01*
X27056Y2597D01*
X27060Y2614D01*
X27062Y2632D01*
Y2736D01*
X27066D01*
X27263Y2539D01*
X28208D01*
X28661Y2086D01*
Y944D01*
X26340D01*
Y1937D01*
X26335Y1997D01*
X26319Y2056D01*
X26293Y2112D01*
X26258Y2162D01*
X26215Y2205D01*
X26165Y2240D01*
X26110Y2265D01*
X26051Y2281D01*
X25990Y2287D01*
X25532D01*
G37*
G36*
X21181Y1442D02*Y1502D01*
X21183Y1504D01*
X21196Y1517D01*
X21206Y1531D01*
X21213Y1547D01*
X21218Y1563D01*
X21219Y1581D01*
Y2001D01*
X21218Y2018D01*
X21213Y2035D01*
X21206Y2051D01*
X21196Y2065D01*
X21183Y2077D01*
X21181Y2079D01*
Y2381D01*
X21254D01*
X21258Y2373D01*
X21268Y2359D01*
X21280Y2347D01*
X21295Y2337D01*
X21311Y2329D01*
X21327Y2325D01*
X21345Y2323D01*
X21765D01*
X21782Y2325D01*
X21799Y2329D01*
X21815Y2337D01*
X21829Y2347D01*
X21841Y2359D01*
X21851Y2373D01*
X21855Y2381D01*
X22165D01*
Y2047D01*
X21771D01*
X21692Y1968D01*
Y1263D01*
X21239D01*
Y1351D01*
X21237Y1369D01*
X21233Y1385D01*
X21225Y1401D01*
X21215Y1416D01*
X21203Y1428D01*
X21189Y1438D01*
X21181Y1442D01*
G37*
G36*
X19665Y6535D02*X19803Y6673D01*
Y6789D01*
X19813Y6800D01*
X19828Y6821D01*
X19839Y6845D01*
X19846Y6870D01*
X19848Y6896D01*
Y7066D01*
X20531D01*
X20787Y6811D01*
Y6746D01*
X20762D01*
X20744Y6745D01*
X20727Y6740D01*
X20712Y6733D01*
X20697Y6723D01*
X20685Y6711D01*
X20675Y6696D01*
X20668Y6681D01*
X20663Y6664D01*
X20662Y6646D01*
Y6226D01*
X20663Y6209D01*
X20668Y6192D01*
X20675Y6176D01*
X20685Y6162D01*
X20697Y6150D01*
X20712Y6140D01*
X20727Y6132D01*
X20744Y6128D01*
X20762Y6126D01*
X20787D01*
Y5492D01*
X19665D01*
Y6535D01*
G37*
G36*
X2559Y9881D02*Y10118D01*
X2992Y10551D01*
X8464D01*
X10000Y9015D01*
X12519D01*
X12716Y8818D01*
Y8267D01*
X13267Y7716D01*
Y7308D01*
X13017D01*
X12991Y7306D01*
X12966Y7299D01*
X12942Y7288D01*
X12921Y7273D01*
X12902Y7255D01*
X12887Y7233D01*
X12876Y7210D01*
X12870Y7184D01*
X12867Y7158D01*
Y6758D01*
X12870Y6732D01*
X12876Y6707D01*
X12887Y6683D01*
X12902Y6662D01*
X12921Y6643D01*
X12942Y6628D01*
X12966Y6617D01*
X12991Y6611D01*
X13017Y6608D01*
X13267D01*
Y6043D01*
X12815D01*
Y5972D01*
X12661D01*
X12663Y5977D01*
X12670Y6001D01*
X12672Y6025D01*
Y6265D01*
X12670Y6289D01*
X12663Y6313D01*
X12653Y6335D01*
X12639Y6354D01*
X12622Y6372D01*
X12602Y6386D01*
X12580Y6396D01*
X12557Y6402D01*
X12532Y6404D01*
X12112D01*
X12088Y6402D01*
X12065Y6396D01*
X12043Y6386D01*
X12023Y6372D01*
X12006Y6354D01*
X11992Y6335D01*
X11982Y6313D01*
X11975Y6289D01*
X11973Y6265D01*
Y6025D01*
X11975Y6001D01*
X11982Y5977D01*
X11992Y5955D01*
X12006Y5935D01*
X12023Y5918D01*
X12042Y5905D01*
X12023Y5892D01*
X12006Y5874D01*
X11992Y5855D01*
X11982Y5833D01*
X11975Y5809D01*
X11973Y5785D01*
Y5545D01*
X11975Y5521D01*
X11982Y5497D01*
X11992Y5475D01*
X12006Y5455D01*
X12023Y5438D01*
X12043Y5424D01*
X12065Y5414D01*
X12088Y5408D01*
X12110Y5406D01*
X12115Y5402D01*
X12161Y5369D01*
X12212Y5345D01*
X12266Y5331D01*
X12322Y5326D01*
X12815D01*
Y3779D01*
X13267D01*
Y511D01*
X10984D01*
X10748Y748D01*
Y1653D01*
X10000Y2401D01*
X7440D01*
X5551Y511D01*
X3267D01*
X2598Y1181D01*
Y1968D01*
X3070Y2441D01*
Y3307D01*
X3976Y4212D01*
Y5511D01*
X3385Y6102D01*
Y7415D01*
X3407Y7461D01*
X3425Y7528D01*
X3431Y7598D01*
X3425Y7667D01*
X3407Y7735D01*
X3385Y7781D01*
Y8897D01*
X4133D01*
Y9803D01*
X2637D01*
X2559Y9881D01*
G37*
G36*
X13267Y7716D02*X13818Y7165D01*
Y6043D01*
X13267D01*
Y6608D01*
X13517D01*
X13543Y6611D01*
X13569Y6617D01*
X13592Y6628D01*
X13614Y6643D01*
X13632Y6662D01*
X13647Y6683D01*
X13658Y6707D01*
X13665Y6732D01*
X13667Y6758D01*
Y7158D01*
X13665Y7184D01*
X13658Y7210D01*
X13647Y7233D01*
X13632Y7255D01*
X13614Y7273D01*
X13592Y7288D01*
X13569Y7299D01*
X13543Y7306D01*
X13517Y7308D01*
X13267D01*
Y7716D01*
G37*
G36*
Y3779D02*X13838D01*
Y1773D01*
X13405D01*
X13388Y1771D01*
X13371Y1767D01*
X13355Y1759D01*
X13341Y1749D01*
X13328Y1737D01*
X13318Y1723D01*
X13311Y1707D01*
X13307Y1690D01*
X13305Y1673D01*
Y925D01*
X13307Y907D01*
X13311Y891D01*
X13318Y875D01*
X13328Y860D01*
X13341Y848D01*
X13355Y838D01*
X13371Y831D01*
X13388Y826D01*
X13405Y825D01*
X13838D01*
Y511D01*
X13267D01*
Y3779D01*
G37*
G36*
X21318Y6063D02*X21614D01*
X21826Y6275D01*
X21830Y6274D01*
X21882Y6279D01*
X21933Y6292D01*
X21980Y6315D01*
X22023Y6345D01*
X22060Y6382D01*
X22090Y6424D01*
X22112Y6472D01*
X22126Y6522D01*
X22130Y6574D01*
X22130Y6579D01*
X22618Y7066D01*
Y7893D01*
X22874Y8149D01*
Y8405D01*
X23115D01*
Y8340D01*
X23116Y8323D01*
X23121Y8306D01*
X23128Y8290D01*
X23138Y8276D01*
X23150Y8264D01*
X23165Y8254D01*
X23180Y8246D01*
X23197Y8242D01*
X23215Y8240D01*
X23635D01*
X23652Y8242D01*
X23669Y8246D01*
X23685Y8254D01*
X23699Y8264D01*
X23711Y8276D01*
X23721Y8290D01*
X23729Y8306D01*
X23733Y8323D01*
X23735Y8340D01*
Y8405D01*
X24074D01*
Y7775D01*
X24566Y7283D01*
Y6751D01*
X24252Y6437D01*
Y5511D01*
X22652D01*
Y5706D01*
X22651Y5723D01*
X22646Y5740D01*
X22639Y5756D01*
X22629Y5770D01*
X22616Y5782D01*
X22602Y5792D01*
X22586Y5800D01*
X22569Y5804D01*
X22552Y5806D01*
X22132D01*
X22115Y5804D01*
X22098Y5800D01*
X22082Y5792D01*
X22068Y5782D01*
X22055Y5770D01*
X22045Y5756D01*
X22038Y5740D01*
X22034Y5723D01*
X22032Y5706D01*
Y5511D01*
X22029D01*
X22027Y5528D01*
X22014Y5578D01*
X21992Y5626D01*
X21962Y5669D01*
X21925Y5706D01*
X21884Y5734D01*
Y5824D01*
X21883Y5841D01*
X21878Y5858D01*
X21871Y5874D01*
X21861Y5888D01*
X21849Y5900D01*
X21834Y5910D01*
X21819Y5918D01*
X21802Y5922D01*
X21784Y5924D01*
X21364D01*
X21347Y5922D01*
X21330Y5918D01*
X21314Y5910D01*
X21300Y5900D01*
X21288Y5888D01*
X21278Y5874D01*
X21270Y5858D01*
X21266Y5841D01*
X21264Y5824D01*
Y5584D01*
X21266Y5566D01*
X21270Y5550D01*
X21278Y5534D01*
X21288Y5520D01*
X21296Y5511D01*
X21122D01*
Y5866D01*
X21318Y6063D01*
G37*
G36*
X17381Y8818D02*Y9960D01*
X16909Y10433D01*
X16712D01*
Y10590D01*
X17539Y11417D01*
X20157D01*
Y9330D01*
X19645Y8818D01*
X17381D01*
G37*
G54D12*X3622Y2637D02*X3346D01*
X2559Y2047D02*X2637Y1968D01*
X2913Y2125D02*X3307Y2519D01*
X2559Y2125D02*X2834D01*
X3228Y2519D02*X3267Y2480D01*
X2559Y1771D02*Y2047D01*
X2756Y1574D02*X2559Y1771D01*
X1732Y8307D02*X2519D01*
X1732Y8503D02*X2559D01*
X4015D02*X1732D01*
X2756Y8346D02*X2716Y8385D01*
X2559Y8267D02*X2362Y8070D01*
X2559Y10078D02*Y9842D01*
X4055Y8188D02*Y8464D01*
X4173Y7913D02*X3149D01*
X2874Y8188D02*X4055D01*
Y8464D02*X4015Y8503D01*
X2677Y8188D02*X2716Y8149D01*
X2913Y8858D02*Y8858D01*
X2952Y8818D01*
X2362Y8070D02*X1968D01*
X1929Y8031D01*
X1732D02*Y8307D01*
X1889Y6456D02*X1535D01*
X1968Y6377D02*X1889Y6456D01*
X3149Y7913D02*X2874Y8188D01*
X3543Y7559D02*X3425Y7440D01*
X3267Y7558D02*Y7519D01*
X2519Y8307D02*X3267Y7558D01*
Y7519D02*X3543Y7795D01*
X3425Y6929D02*X2323Y8031D01*
X1732D01*
X2637Y8188D02*X2677D01*
X2441Y7992D02*X2637Y8188D01*
X1535Y6456D02*X1614Y6377D01*
Y4330D01*
X1968Y4409D02*Y6377D01*
X4015Y5433D02*X3543Y5905D01*
X2952Y8818D02*X3937D01*
X2559Y9842D02*X3267D01*
X2559Y8503D02*X2913Y8858D01*
X3267Y9842D02*X3385Y9960D01*
X4370D01*
X4252Y8110D02*Y9724D01*
X4173D01*
Y7913D01*
X3937Y8818D02*X4330Y9212D01*
X2913Y3700D02*X2244D01*
X1601Y4343D01*
X2952Y4173D02*X2244D01*
X1968Y4409D02*X2322Y4055D01*
X2952Y4094D02*Y4173D01*
X2322Y4055D02*X2913D01*
X3189Y4173D02*X4330D01*
X3622D02*Y2637D01*
X3346D02*Y4015D01*
X3070Y2401D02*Y3543D01*
X3346Y4015D02*X3189Y3858D01*
X3110D01*
X2913Y4055D02*X2952Y4094D01*
X3070Y3543D02*X2913Y3700D01*
X2244Y4173D02*X3622D01*
G54D13*X19251Y4409D02*X18503D01*
G54D12*X19724Y5964D02*Y5157D01*
X19606Y5275D02*Y4468D01*
X17066Y6003D02*X16614Y5551D01*
X15826Y4881D02*X15944Y5000D01*
X16653D01*
Y5551D01*
X16535Y5590D02*X15826Y4881D01*
X16535Y5905D02*Y5590D01*
X14803Y4881D02*X14566Y4645D01*
X16417Y4803D02*Y5314D01*
G54D13*X18503Y4409D02*Y4763D01*
G54D12*X14724Y4783D02*X16496D01*
X14704Y4862D02*X16555D01*
X18129Y6574D02*X17421Y5866D01*
X17933D02*X17047D01*
X17834Y6732D02*X18149Y6771D01*
X17834Y6732D02*X17165Y6063D01*
X17602Y6854D02*X16811Y6062D01*
X17244Y6614D02*X17519Y6889D01*
X16456Y5984D02*X17086Y6614D01*
G54D13*X11791Y6122D02*X12303D01*
G54D12*X13464Y6259D02*X14330D01*
G54D13*X12322Y6574D02*Y6122D01*
G54D12*X13700Y6181D02*X13385D01*
X13937Y6417D02*X13700Y6181D01*
Y6889D02*X13385D01*
X13346Y6929D01*
X14330Y6259D02*X14252Y6338D01*
X14055Y6456D02*X13937D01*
X14094Y6574D02*X14015Y6653D01*
X14252Y6653D02*X14055Y6456D01*
X13870Y6717D02*X12848D01*
X14263Y11023D02*X14252Y11012D01*
X15118Y13503D02*Y13818D01*
G54D13*X12716Y14842D02*X12795Y14763D01*
G54D12*X14881Y13661D02*X15157Y13937D01*
Y14133D02*Y13543D01*
X14803Y13464D02*X14763Y13503D01*
G54D13*X12795Y14763D02*X13189D01*
G54D12*X15157Y13543D02*X15000Y13385D01*
X14527Y13228D02*X14566Y13188D01*
X18917Y11535D02*X18543Y11909D01*
X18053Y11417D01*
X18543Y11358D02*Y11909D01*
X14252Y11012D02*Y10629D01*
X14291D01*
X14763Y10157D01*
X19818Y11535D02*X18858D01*
X18051Y11377D02*X17635D01*
X16292Y10472D02*X17007D01*
X17637Y11302D02*X17240Y10905D01*
X17637Y11377D02*Y11302D01*
X16567Y10472D02*X16289D01*
X15118Y13818D02*X15433Y14133D01*
X15905D02*X15905D01*
X15157Y13937D02*Y14133D01*
X16141D02*X15078D01*
X16220Y13818D02*X15905Y14133D01*
X16496Y14251D02*X16968D01*
X16811Y13936D02*Y13740D01*
X16771Y13976D02*X16811Y13936D01*
X16968Y14251D02*Y13464D01*
X16299Y14448D02*X16496Y14251D01*
X16299Y14448D02*Y14291D01*
X16259Y13976D02*X16771D01*
X16811Y13740D02*X16338D01*
X16299Y14291D02*X16141Y14133D01*
X14252Y2874D02*X14606Y3228D01*
X14252Y2834D02*Y2874D01*
X14212Y2952D02*X14291Y3031D01*
X14094Y2834D02*X13503D01*
X14291Y2322D02*Y2244D01*
X14527Y2007D01*
X15283Y2489D02*Y2290D01*
X15039Y2047D01*
X15314Y2283D02*Y2519D01*
X14291Y2067D02*Y2283D01*
G54D14*X14704Y3287D02*X14105D01*
X14330Y3228D02*X14409Y3307D01*
G54D12*X13996Y3090D02*Y3641D01*
G54D14*X14370Y3267D02*Y3228D01*
G54D12*X14212Y3031D02*Y2322D01*
X14094Y2598D02*Y2834D01*
X14173Y2244D02*X14133Y2283D01*
X12755Y3267D02*Y826D01*
X13031D01*
Y3267D01*
X13307Y3228D01*
Y3267D02*Y1574D01*
Y1181D02*Y590D01*
X13267Y3307D02*X13070Y3503D01*
X13267Y3740D02*Y3267D01*
X12795Y5137D02*Y3499D01*
X12677Y4212D02*Y5118D01*
Y3740D02*Y4055D01*
X12637Y4173D02*X12677Y4212D01*
G54D14*X14527Y4606D02*X14217D01*
G54D12*X14803Y4881D02*Y4527D01*
X14744Y3503D02*X14153D01*
X14763Y4429D02*Y3740D01*
X12834D02*X15039D01*
X15295Y2007D02*X14094D01*
X14015Y590D02*X14094Y669D01*
X13267Y590D02*X14015D01*
X13897Y1063D02*Y1377D01*
X13622Y1338D02*Y787D01*
X14094Y669D02*Y1811D01*
X13622Y787D02*X13897Y1063D01*
X13385Y2283D02*Y2598D01*
X13740Y1653D02*X13307Y1220D01*
Y1574D02*X13582Y1850D01*
X14094Y1811D02*X13622Y1338D01*
X13425Y1968D02*X14173D01*
Y2244D01*
X14133Y2283D02*X13385D01*
Y2598D02*X14094D01*
X15472Y4251D02*X14724Y3503D01*
X15551Y4468D02*X15019D01*
X14783Y4212D02*X15374D01*
X16850Y8503D02*X16653Y8307D01*
X17007Y8622D02*X16771Y8385D01*
X17716Y9370D02*Y8897D01*
X17440Y9645D02*X17716Y9370D01*
X17559Y9055D02*Y9527D01*
X17480Y8149D02*X17244Y8464D01*
X17165Y8661D02*X17559Y9055D01*
X17440Y10196D02*Y9645D01*
X17322Y8503D02*X16968D01*
X17834Y8425D02*X17007D01*
X16771Y8385D02*X17362D01*
X17086Y8661D02*X17165D01*
X17244Y8464D02*X17165D01*
G54D13*X14507Y10413D02*X14530Y10391D01*
G54D12*X14803Y10275D02*X14763Y10196D01*
G54D15*X14527Y9370D02*Y10275D01*
G54D12*X14015Y6653D02*Y9015D01*
X13700Y6496D02*X13976Y6771D01*
X13893Y6740D02*X13870Y6717D01*
X14252Y7677D02*Y6338D01*
X14015Y9015D02*X13700D01*
Y6889D01*
X13346Y6929D02*Y8228D01*
X13031D02*Y6771D01*
X13189Y6338D02*X13464D01*
X13346Y8228D02*X13031D01*
X12657D02*X13622D01*
X14252Y9015D02*X14527Y8740D01*
Y7952D01*
X14252Y7677D01*
X14173Y7834D02*Y8740D01*
G54D15*X14527Y9370D02*X14291Y9133D01*
X14291D01*
G54D12*X18346Y6614D02*X18307D01*
X18149Y6771D02*X18464Y7086D01*
X18818Y8031D02*Y8976D01*
X19388Y7086D02*X18385D01*
X19055D02*X19291Y7322D01*
X19488Y7126D02*X19212Y6850D01*
G54D16*X18582D01*
G54D12*X19488Y6929D02*Y7126D01*
X18582Y6850D02*X18346Y6614D01*
X18307Y7165D02*X18582Y7440D01*
X18976Y7874D02*X18818Y8031D01*
X18740Y7677D02*X18779Y7637D01*
X19370D01*
X19094Y7362D01*
X18897D01*
X17086Y6614D02*X17244D01*
X17480Y7677D02*Y8149D01*
X17602Y7555D02*Y6893D01*
Y7555D02*X17480Y7677D01*
X17795Y8700D02*X17754Y8741D01*
X17795Y9192D02*X17834Y6732D01*
X17755Y8819D02*X17362Y8425D01*
X18031Y6889D02*Y9704D01*
X18307Y9547D02*Y7086D01*
X18582Y7362D02*Y9507D01*
G54D13*X28503Y2737D02*Y2736D01*
G54D11*X26358Y2618D02*X27027D01*
G54D12*X26653Y4881D02*X25157D01*
G54D11*X26771Y4488D02*Y5393D01*
G54D12*X26614Y4626D02*X25610D01*
G54D11*X25669Y2283D02*Y4389D01*
X27834Y2933D02*Y2303D01*
X21082Y1063D02*X22834D01*
X21358Y1181D02*X21673D01*
X21299Y2401D02*X22847D01*
X22913Y2322D02*Y1673D01*
X21299Y2539D02*X22847D01*
X22047Y2224D02*X22933D01*
G54D12*X19763Y5413D02*X20118Y5767D01*
X20196Y5452D02*X20413Y5669D01*
X20787Y6653D02*Y6063D01*
X20984Y5944D02*X21338Y5590D01*
X20413Y5629D02*X21299D01*
X20629Y5984D02*X20944D01*
X20984Y9606D02*Y9173D01*
X22362Y10196D02*X22283Y10275D01*
X22716Y8740D02*X22952Y8503D01*
X22716Y8740D02*X22834D01*
X22795Y9921D02*Y9606D01*
X21063Y10157D02*Y9212D01*
X23228Y8228D02*X22716Y8740D01*
X22834D02*X23070Y8503D01*
X21259Y5511D02*X23897D01*
X21259Y5551D02*Y5511D01*
X22508Y5547D02*X22512Y5551D01*
G54D13*X20039Y2598D02*X20374D01*
X19192Y3011D02*Y3779D01*
X21732Y5511D02*Y5590D01*
G54D12*X22508Y5547D02*X22504Y5551D01*
X22598Y5748D02*X21410D01*
X22688Y5547D02*X22645Y5590D01*
X21338D02*X21732D01*
X22512Y5551D02*X23976D01*
X23518Y8464D02*X23937D01*
X24055Y9527D02*X24094Y9566D01*
X24409D01*
X24724Y9409D02*X23818D01*
X23779Y9448D01*
X23937Y8464D02*X23779Y8307D01*
X23169Y8267D02*X23681D01*
X22952Y8503D02*X23464D01*
X23307Y8228D02*X23228D01*
X26063Y10000D02*X25826D01*
X25826D02*Y10236D01*
X26822Y10043D02*X26825Y10039D01*
X27086D01*
X27283Y9842D01*
Y9488D01*
X27598D01*
X19448Y6889D02*Y6889D01*
X19448Y7086D02*X19940Y6594D01*
X19921Y7303D02*X19448Y6830D01*
X19398Y7096D02*X19388Y7086D01*
X19291Y7322D02*X19645D01*
X20059Y7618D02*Y6850D01*
X19862Y7795D02*X19192D01*
X20055Y7633D02*X19925Y7763D01*
X19645Y7185D02*Y7736D01*
X28937Y12992D02*X27834D01*
X27559D02*X28543D01*
X28740Y12795D01*
X27874Y11496D02*X28110D01*
X28070Y11456D01*
Y10905D01*
X28740Y12795D02*Y12283D01*
X28897Y12126D01*
X23740Y10984D02*X23976Y10748D01*
X24370D01*
X24488Y10866D01*
X24842D01*
X24409Y10748D02*X24409D01*
X24842Y10866D02*X25000Y11023D01*
X24724Y10669D02*Y9409D01*
X24409Y9566D02*Y10551D01*
X23779Y9448D02*Y10905D01*
X24055Y10590D02*Y9527D01*
X25275Y11614D02*X24409Y10748D01*
X27007Y10228D02*Y12755D01*
X26732Y11811D02*X26692Y11771D01*
X26732Y12283D02*X26692Y12322D01*
Y12677D01*
X25669Y12007D02*X27007D01*
X26456Y11732D02*X26220Y11968D01*
X26102Y12322D02*X25787Y12007D01*
Y12007D01*
X26259Y12283D02*X26732D01*
X27283Y12992D02*X26417D01*
Y12834D01*
X26102Y12519D01*
Y12322D01*
X26220Y12244D02*X26259Y12283D01*
X26692Y12677D02*X26574Y12559D01*
X26456D01*
X25000Y11023D02*X25275D01*
X26822Y10043D02*X27007Y10228D01*
G54D13*X26063Y10000D02*X25984D01*
G54D12*X26063D02*X26181Y10118D01*
X26811D01*
X26692Y10275D02*X26614Y10354D01*
X26338D01*
X26456Y10472D01*
X25275Y11023D02*Y11614D01*
X25669Y12007D01*
X26692Y11771D02*Y10275D01*
X26456Y10472D02*Y11732D01*
X26496Y11338D02*Y11338D01*
X25826Y10236D02*X26181Y10590D01*
Y11023D01*
X26496Y11338D01*
X27007Y12755D02*X27244Y12992D01*
X28110D01*
X27834D02*X27519Y12677D01*
Y12677D01*
X27283D02*X27559D01*
Y12322D01*
X27440Y12204D01*
X27283Y9488D02*Y12677D01*
X27440Y12204D02*Y9488D01*
X27598D02*Y10393D01*
X27755Y10551D01*
Y11614D01*
X27440Y11889D02*X27755Y11574D01*
X28070Y10905D02*X27677Y10511D01*
X27755Y11614D02*X27874Y11496D01*
X27440Y11968D02*Y11889D01*
X30354Y11574D02*X30039Y11889D01*
X30354Y9448D02*Y11574D01*
Y9566D02*Y8070D01*
X30078Y11850D02*X28937Y12992D01*
Y12677D02*Y12283D01*
X28937Y12677D02*X28937D01*
X29370Y12244D02*X28937Y12677D01*
X28897Y12126D02*X29803D01*
X30078Y11850D02*Y10118D01*
Y10196D02*Y9842D01*
X30354Y9566D01*
X21023Y13346D02*X20944Y13267D01*
G54D14*X20472Y13307D02*Y13346D01*
G54D12*X20944Y13267D02*X20551D01*
X22637Y12814D02*X22696D01*
G54D14*X20472Y13346D02*X20271Y13425D01*
G54D12*X20669Y12598D02*X20748Y12519D01*
X20590Y13228D02*Y12834D01*
X20669Y12519D02*Y13188D01*
X21811Y14094D02*X21850Y14055D01*
X21023Y12519D02*Y13346D01*
X20748Y12519D02*X21023D01*
G54D14*X19960Y13779D02*X19881Y13858D01*
X19960Y13639D02*Y13779D01*
X19942Y13622D02*X19960Y13639D01*
X20271Y13425D02*X19942Y13622D01*
G54D12*X20590Y12834D02*X20314Y12559D01*
X23622Y13818D02*X22362D01*
X23582Y14566D02*X23937Y14921D01*
X23031Y14566D02*X23582D01*
X23543Y14528D02*Y14133D01*
X22716Y14881D02*X23031Y14566D01*
X21653Y14645D02*X22755D01*
X21850Y14133D02*X23543D01*
X24252Y13070D02*Y14960D01*
X22716D02*Y14881D01*
X23946Y14931D02*X23897Y14882D01*
Y13779D01*
X24173Y13307D02*Y14921D01*
X23937Y12755D02*Y13503D01*
X23858Y12677D02*X23700Y12834D01*
Y13779D01*
X22322Y13503D02*X23582D01*
X24251Y13070D02*X24252D01*
X24223Y13257D02*X24173Y13307D01*
X20551Y13267D02*X20590Y13228D01*
X19881Y13858D02*X19863Y13876D01*
X19921Y13543D02*X20039D01*
X19863Y13876D02*Y14409D01*
X19921Y13858D02*Y13543D01*
X19960Y14881D02*Y14960D01*
X20275Y14527D02*X19881Y14133D01*
X19960Y14921D02*Y14566D01*
X20000Y14606D01*
X19842Y13897D02*X19881Y13858D01*
X20748Y14645D02*X21041Y14351D01*
X19960Y14960D02*X22716D01*
X21377Y14921D02*X19960D01*
X20000Y14606D02*X21181D01*
X21041Y14351D02*X21417D01*
X21456Y14527D02*X21850Y14133D01*
X21338Y14527D02*X21456Y14645D01*
X21871Y14351D02*X21063D01*
X21377Y14566D02*Y14921D01*
X21338Y14527D02*X21377Y14566D01*
G54D14*X20866Y15000D02*X20905Y15039D01*
G54D11*X23858Y12677D02*X24252Y13070D01*
Y13228D01*
G54D12*X23189Y13149D02*X22322D01*
X23661Y12480D02*X24251Y13070D01*
X23937Y12755D02*X23267Y12086D01*
X22165Y14015D02*X22401Y13779D01*
X22165Y11771D02*Y14015D01*
X21338Y14527D02*X21456D01*
X21850Y11811D02*X21417Y11377D01*
X22401Y13779D02*Y11968D01*
X21889Y14370D02*X21871Y14351D01*
X22696Y12814D02*X23070Y13188D01*
X23031Y13110D02*X23149Y13228D01*
X23031Y11456D02*Y13110D01*
X22637Y11574D02*Y12814D01*
X23267Y11574D02*Y12086D01*
X23228Y13188D02*X23189Y13149D01*
X23149Y13228D02*X23425D01*
X23700Y13818D02*Y14015D01*
X23385Y14330D02*X21771D01*
X23503Y12559D02*Y13031D01*
X23346Y12401D02*X23503Y12559D01*
X23346Y13149D02*Y12401D01*
X23425Y13228D02*X23346Y13149D01*
X21811Y11496D02*X22086Y11771D01*
G54D13*X22047Y11496D02*X22086D01*
G54D12*X22047Y11456D02*X23149D01*
X22086Y11771D02*X22559D01*
X23307Y11614D02*X23622Y11299D01*
X23503Y11456D02*X23740Y11220D01*
Y10984D01*
X22165Y11338D02*X22086Y11259D01*
X22519Y11181D02*X22126D01*
Y11338D01*
X22795Y11220D02*X23543D01*
X22244Y11023D02*X22047D01*
X22283Y10984D02*X22244Y11023D01*
X21732Y10866D02*X21417Y10551D01*
X21023Y10433D02*X20118D01*
X20157Y10748D02*X20433Y10472D01*
X21417Y11338D02*X21181Y11102D01*
X21574Y11496D02*X21456Y11377D01*
X21181D02*Y11023D01*
X21456Y11377D02*X21181D01*
Y11102D02*Y10826D01*
X20157Y11220D02*Y10748D01*
X19881Y11692D02*Y11496D01*
X19940Y11259D02*Y12440D01*
X19921D02*X20000Y12519D01*
X20669D01*
X21850Y14055D02*Y11811D01*
X22716Y11574D02*Y12874D01*
X22519Y11456D02*X22637Y11574D01*
X19881Y11496D02*X20157Y11220D01*
X22086Y11259D02*X21496D01*
X23543Y10984D02*X22913D01*
X22795Y11496D02*X22716Y11417D01*
X22717Y11457D02*Y9724D01*
X22519Y9842D02*Y11181D01*
X23543Y11220D02*Y10984D01*
X22283Y10275D02*Y10984D01*
X21811Y10748D02*X21889Y10826D01*
Y11063D01*
X22067Y10944D02*X22086D01*
X21792Y10669D02*X22067Y10944D01*
X22047Y11023D02*Y10433D01*
X21141Y10039D02*X21535Y10433D01*
X21732Y11141D02*X21023Y10433D01*
X21181Y10826D02*X20866Y10511D01*
X21792Y10451D02*Y10669D01*
X21319Y10310D02*X21275Y10354D01*
X20866D02*X21063Y10157D01*
X21275Y10354D02*X20866D01*
X21811Y10433D02*X21792Y10451D01*
X22047Y10433D02*X21535D01*
G54D11*G36*
X12598Y9409D02*Y11456D01*
X13149D01*
Y9192D01*
X12815D01*
X12598Y9409D01*
G37*
G54D14*X27126Y9015D02*X26732Y9409D01*
X27126Y9015D02*X28622D01*
X26732Y9409D02*X26181D01*
G54D13*X26063Y8661D02*X27066D01*
X25531Y8602D02*X25433Y8700D01*
G54D14*X28622Y9015D02*X29291Y9685D01*
G54D15*X27047Y8661D02*X29173D01*
G54D13*X25433Y8700D02*Y9921D01*
G54D11*X29358Y11657D02*X29315Y11614D01*
X28700D01*
X28020Y12437D02*X28031Y12425D01*
Y12047D01*
X28059Y10121D02*X28331Y10393D01*
G54D13*X28346D01*
G54D11*X29358Y11177D02*X29165Y10984D01*
X28621D01*
G54D13*X29538Y10200D02*X29534Y10196D01*
G54D11*X28936D01*
G54D12*X29330Y13622D02*X25275D01*
G54D13*X25787Y12992D02*X25590D01*
G54D12*X30866Y12086D02*X29330Y13622D01*
X30866Y8464D02*Y12086D01*
G54D13*X29803Y9212D02*Y9212D01*
G54D11*X28936Y10196D02*X28779Y10039D01*
G54D12*X29015Y787D02*X28818Y590D01*
X29015Y787D02*Y1929D01*
X30511Y2795D02*X30275Y2559D01*
X29960D01*
X29015Y1929D02*X29645Y2559D01*
X30039D01*
G54D13*X28228Y3013D02*X28503Y2737D01*
G54D11*Y2736D02*X29153Y2086D01*
G54D12*X30354Y5472D02*X30866Y5984D01*
Y8503D01*
G54D13*X29763Y9173D02*X29803Y9212D01*
G54D15*X29645Y9133D02*X29803D01*
X29173Y8661D02*X29645Y9133D01*
G54D12*X30433Y4724D02*X30118Y5039D01*
Y5236D01*
X30433Y5433D02*Y4724D01*
X30393Y5472D02*X30433Y5433D01*
X29488Y5472D02*X30000Y4960D01*
X29527Y5275D02*X29685Y5118D01*
X30511Y3031D02*Y2795D01*
Y3031D02*Y4685D01*
G54D13*X26358Y5964D02*X25807Y5413D01*
X26358Y7145D02*Y5964D01*
X25767Y5846D02*X25610Y5688D01*
X27244Y7165D02*Y7126D01*
X27736Y5708D02*Y6653D01*
X27244Y7145D01*
X27440Y5413D02*X27736Y5708D01*
X25275Y4153D02*Y3779D01*
G54D17*X26417Y3228D02*X26063Y2874D01*
X26594Y3228D02*X26417D01*
G54D13*X25255Y2401D02*Y2677D01*
G54D12*X25610Y590D02*Y1122D01*
G54D13*X28228Y3013D02*Y3346D01*
X27460D01*
Y2972D01*
G54D17*X28051Y4860D02*Y3799D01*
Y4232D02*X27165D01*
X26712Y3779D01*
X26732Y3759D02*Y3326D01*
G54D14*X14094Y14685D02*X14606Y15196D01*
G54D17*X14094Y14685D02*Y14173D01*
X14130Y14122D02*X13961Y14291D01*
X14130Y14302D02*X14118Y14291D01*
G54D13*X13539Y13790D02*Y13567D01*
X14291Y12814D01*
X14881D01*
G54D11*X13346Y12047D02*X13937D01*
X13613Y12523D02*X13577Y12559D01*
G54D13*X15708Y12637D02*X15551Y12795D01*
X15314Y14724D02*X15157D01*
X15551Y12795D02*Y13503D01*
X15669Y13622D01*
G54D14*X14606Y15196D02*X17440D01*
G54D13*X15157Y14724D02*X14645Y14212D01*
X16968Y14763D02*X16850Y14881D01*
X15826D01*
G54D14*X17440Y15196D02*Y14291D01*
G54D13*X17437Y14381D02*X17440Y14377D01*
G54D14*Y15196D02*X17637Y15393D01*
X16614Y9133D02*X16338Y9488D01*
G54D12*X17047Y9291D02*X17007Y9330D01*
X16496D01*
G54D14*X15669Y10157D02*X15866Y10354D01*
Y10708D02*X16063Y10905D01*
X15866Y10354D02*Y10708D01*
X15669Y9606D02*Y10157D01*
X15472Y10590D02*Y10826D01*
X15275Y10393D02*X15472Y10590D01*
G54D13*X17952Y12992D02*Y13543D01*
X18779Y14153D02*X17967D01*
X18937Y13425D02*X17952D01*
G54D14*X17440Y14377D02*Y13149D01*
G54D13*X19330Y14724D02*Y14291D01*
X19409Y14803D02*X19330Y14724D01*
X19035Y13129D02*X18996Y13169D01*
Y13405D01*
G54D12*X16023Y11377D02*X15511D01*
G54D14*X16515Y10905D02*X16929Y11319D01*
G54D13*X15669Y13621D02*Y13622D01*
X16496Y12637D02*X15708D01*
G54D12*X16063Y11338D02*X16023Y11377D01*
G54D15*X15866Y11889D02*X15826Y11929D01*
G54D13*X16496Y12637D02*X16633D01*
X16948Y12322D01*
Y11968D01*
X17956Y12334D02*X17952Y12330D01*
Y12007D01*
G54D14*X17476Y12334D02*X17401Y12408D01*
G54D13*X17952Y12007D02*X17716Y11771D01*
X17362D01*
G54D14*X17440Y13149D02*X17244Y12952D01*
G54D13*X17204Y12992D02*X17362Y13149D01*
X16642Y12949D02*X16685Y12992D01*
X17204D01*
X17269Y13149D02*X17401D01*
G54D14*Y12408D02*Y13149D01*
X17244Y12952D02*X16692D01*
G54D13*X14882Y12814D02*X15216Y12480D01*
G54D15*X15826Y11929D02*Y12185D01*
G54D13*X16417Y11889D02*X16318Y11988D01*
Y12204D01*
X16948Y11968D02*X17145Y11771D01*
X17362D01*
G54D14*X21299Y6299D02*Y6771D01*
X21692Y7525D02*Y7165D01*
X21857Y7690D02*X21692Y7525D01*
Y7165D02*X21299Y6771D01*
G54D13*X21811D02*Y6574D01*
G54D12*X19724Y8464D02*X19488D01*
G54D14*X21857Y8450D02*X22265Y8858D01*
G54D13*X22086Y7047D02*X21811Y6771D01*
X22440Y7165D02*X22322Y7047D01*
X22086D01*
G54D14*X15689Y7576D02*Y8087D01*
X16417Y7318D02*X15944D01*
X16535Y7165D02*X17086Y7165D01*
X16063Y10905D02*X16515D01*
X16614Y8976D02*Y9212D01*
X16134Y8523D02*X16614Y8996D01*
X23503Y8937D02*X23858D01*
X23267Y9173D02*X23503Y8937D01*
X23267Y9173D02*Y10433D01*
X22283Y8936D02*X22519Y9173D01*
X20511Y9842D02*Y8661D01*
X20629Y11811D02*Y10984D01*
G54D12*X21850Y9803D02*X21850Y9803D01*
G54D13*X24370Y8858D02*Y8937D01*
X24448Y8307D02*X24527Y8228D01*
Y7992D01*
G54D14*X16338Y9488D02*X15787D01*
G54D12*X15472Y11338D02*Y11061D01*
X15511Y11377D02*X15472Y11338D01*
G54D14*X15946Y7319D02*X15689Y7576D01*
G54D12*X15511Y9015D02*X15984D01*
G54D14*X15511Y8676D02*Y9015D01*
X15275Y10417D02*Y9389D01*
X15590Y9074D02*X15275Y9389D01*
X15279Y6539D02*X15196Y6456D01*
Y6373D02*X15039Y6216D01*
X14842Y5826D02*X15039Y6023D01*
Y6181D01*
X15196Y6456D02*Y6373D01*
G54D12*X13228Y5669D02*X13346Y5551D01*
G54D11*X13149Y8740D02*Y9842D01*
G54D14*X15984Y5905D02*Y6141D01*
G54D13*X17874Y5059D02*Y4409D01*
G54D12*X15559Y5393D02*X15944Y5779D01*
X14527Y5393D02*X15559D01*
G54D14*X14173Y5708D02*X14291Y5826D01*
X15275Y6535D02*Y7362D01*
G54D12*X14940Y1220D02*X15334D01*
G54D15*X15689Y3523D02*Y3326D01*
G54D14*X15256Y2952D02*X14960D01*
G54D12*X14881Y1280D02*X14942Y1220D01*
G54D14*X14763Y2755D02*Y2519D01*
X14960Y2952D02*X14763Y2755D01*
G54D12*X13346Y5551D02*Y5078D01*
X13052Y5669D02*X13228D01*
G54D13*X13759Y4212D02*X14133D01*
G54D12*X14527Y5393D02*X14212Y5078D01*
G54D14*X14291Y5826D02*X14842D01*
G54D13*X14094Y5000D02*X13759D01*
Y4212D01*
G54D14*X15673Y3369D02*X15256Y2952D01*
X13092Y5708D02*X14173D01*
X16535Y6692D02*Y7126D01*
X16531Y7161D02*X16413Y7318D01*
X15787Y9488D02*X15669Y9606D01*
X15236Y7416D02*Y8149D01*
X15511Y8425D01*
X15279Y7373D02*X15236Y7416D01*
X15689Y8087D02*X16122Y8523D01*
X15515Y8672D02*X15511Y8676D01*
X16015Y6885D02*X15941Y6771D01*
X15901Y6771D02*X15354Y6771D01*
G54D13*X24252Y11338D02*X25433Y12519D01*
G54D14*X24763Y12598D02*X24763Y12598D01*
Y12618D01*
X24724Y14488D02*Y12677D01*
X24803Y15393D02*X25236Y14960D01*
Y15000D02*X24724Y14488D01*
X24763Y12637D02*X24724Y12677D01*
G54D13*X25748Y11338D02*X25905Y11496D01*
X25748Y10866D02*Y11338D01*
Y10866D02*X25236Y10354D01*
X25531Y6968D02*X25374Y6810D01*
G54D14*X24921Y7815D02*Y6535D01*
X25078Y8307D02*Y7952D01*
G54D13*X25531Y8602D02*Y6968D01*
G54D14*X25098Y7992D02*X24921Y7815D01*
G54D13*X25767Y8366D02*Y5846D01*
Y8366D02*X26063Y8661D01*
G54D14*X24448Y8937D02*X25078Y8307D01*
X23582Y8937D02*X24448D01*
X24921Y6535D02*X25413Y6043D01*
G54D15*X19350Y6318D02*Y5708D01*
G54D14*X22283Y8858D02*Y8936D01*
G54D12*X21850Y9803D02*Y9409D01*
X19960Y8464D02*X20905D01*
G54D14*X22519Y9173D02*X23267D01*
G54D13*X22440Y8149D02*Y7165D01*
X18046Y12322D02*X18937D01*
X20078Y13031D02*X19842D01*
X19488Y13385D01*
G54D14*X20551Y11889D02*X20629Y11811D01*
G54D13*X21220Y11929D02*X21456Y12165D01*
Y13464D01*
G54D14*X17637Y15393D02*X24803D01*
G54D13*X20559Y13897D02*X21220D01*
X21456Y13661D01*
Y13425D01*
X20551Y13889D02*X20559Y13897D01*
G54D11*X23641Y3582D02*X23326Y3897D01*
X22283Y3759D02*X21869D01*
X23622Y3208D02*X23444Y3031D01*
G54D15*X21633Y3484D02*Y3228D01*
G54D18*X24527Y4566D02*X24862Y4232D01*
G54D13*X23996Y4389D02*X24468Y3917D01*
G54D18*X24862Y4232D02*Y3956D01*
X25000Y3818D01*
Y3110D01*
X24744Y2854D01*
G54D15*X22283Y4704D02*X22401Y4822D01*
X21771Y4377D02*Y4803D01*
X18627Y1082D02*X19330D01*
X20984Y1515D02*Y1633D01*
X20669Y1515D02*X20984D01*
X20275Y4389D02*X20275Y4783D01*
X21351Y3129D02*X19763D01*
G54D11*X20551Y4055D02*Y4212D01*
G54D15*X20944Y4507D02*X21082Y4370D01*
G54D11*X20767Y5098D02*X20866D01*
G54D12*X28818Y590D02*X15590D01*
G54D11*X23326Y3897D02*X22421D01*
X22283Y3759D01*
G54D15*X20669Y1417D02*Y1515D01*
G54D13*X22106Y1791D02*X22106Y1515D01*
G54D15*X20334Y1247D02*Y1417D01*
X20669D01*
X17244Y3700D02*X18543D01*
G54D13*X20216Y2086D02*Y1811D01*
G54D15*X19448Y2696D02*X19153D01*
X17165Y5275D02*Y4350D01*
G54D14*X15984Y6141D02*X16535Y6692D01*
G54D15*X22677Y3366D02*X23110D01*
G54D11*X21870Y3759D02*X21614Y3504D01*
G54D15*X18582Y6043D02*X18799Y5826D01*
X19350Y5708D02*X18956Y5314D01*
G54D11*X21633Y3503D02*X21437Y3700D01*
X20905D01*
G54D15*X19724Y3129D02*Y3405D01*
G54D11*X20905Y3700D02*X20551Y4055D01*
G54D15*X19429Y1629D02*Y2165D01*
X19503Y1535D02*X19881D01*
X19153Y2696D02*X18602Y2145D01*
X16161Y4212D02*Y2539D01*
G54D11*X24527Y4547D02*Y4803D01*
X23622Y3504D02*Y3208D01*
G54D13*X17440Y3484D02*X17224Y3700D01*
G54D15*X21465Y3243D02*X21351Y3129D01*
G54D13*X25610Y5688D02*X25078D01*
X24606Y6161D01*
X20511Y4055D02*Y4842D01*
X20610Y4940D01*
G54D11*X20767Y5098D01*
X2952Y6614D02*X2126Y7440D01*
X1299Y7519D02*X1771Y7047D01*
X2126Y3188D02*X2559D01*
X2952Y5629D02*Y6614D01*
X2126Y3188D02*X629Y4685D01*
X1456Y11614D02*X2165D01*
X1732Y11141D02*Y11141D01*
X1653Y10433D02*X2598Y11377D01*
X2086Y10433D02*X2204Y10551D01*
X1299Y10708D02*X1732Y11141D01*
X2204Y10551D02*X2677Y11023D01*
X8622D01*
G54D14*X5866Y11377D02*X2637D01*
G54D11*X1259Y12047D02*X2440D01*
X3110Y11377D01*
X2519Y4685D02*X3346D01*
Y5236D02*X2952Y5629D01*
X629Y11417D02*X1259Y12047D01*
X984Y11141D02*X1456Y11614D01*
X944Y11102D02*X1181Y11338D01*
X629Y4685D02*Y11417D01*
X1102Y5393D02*X944Y5551D01*
Y11102D01*
X2213Y8950D02*X1954D01*
X2220Y9035D02*X2582Y9397D01*
X3551D01*
X1299Y10708D02*Y7519D01*
X2086Y9488D02*Y10433D01*
X1653Y9251D02*Y10433D01*
X1954Y8950D02*X1653Y9251D01*
X12598Y11119D02*Y10590D01*
X13149Y10433D02*Y11496D01*
X12519Y10511D02*X11968D01*
X12598Y10590D02*X12519Y10511D01*
G54D14*X13129Y5649D02*X12322D01*
G54D11*X10551Y10000D02*X11850D01*
X11563Y9523D02*X10515D01*
X13149Y11496D02*X13937D01*
G54D13*X12047D02*X12151D01*
G54D11*X10877Y11421D02*X10960Y11417D01*
X10881D02*X12047D01*
X14247Y10039D02*X13307D01*
X13149Y9842D02*X13307Y10000D01*
X13149Y9763D02*Y10551D01*
X14263Y10023D02*X14247Y10039D01*
X9488Y11062D02*X10551Y10000D01*
X10515Y9523D02*X9488Y10551D01*
X9094D02*X9488D01*
X8622Y11023D02*X9094Y10551D01*
X8543Y12283D02*X9173Y11653D01*
X9606D01*
G54D14*X10275Y10984D01*
G54D11*X8543Y12972D02*Y12283D01*
X11122Y12578D02*X9114D01*
X10869Y12972D02*X8543D01*
X10095Y13409D02*X10092Y13405D01*
X8385D01*
X6358Y11377D02*X5708D01*
G54D14*X10275Y10984D02*X11614D01*
G54D11*X8385Y13405D02*X6358Y11377D01*
G54D17*X14118Y14291D02*X13110D01*
G54D11*X13070Y14311D02*X12212D01*
X13079Y14287D02*X13063Y14271D01*
X11105Y13208D02*X10869Y12972D01*
X12165Y13622D02*Y14534D01*
X11456Y13818D02*X11003D01*
X11456Y14393D02*Y13818D01*
G54D15*X11476Y14153D02*Y14468D01*
G54D11*X11480Y14417D02*X11456Y14393D01*
G54D13*X12598Y13897D02*X12696Y13799D01*
X12834D01*
G54D11*X12185Y13464D02*Y13622D01*
X13577Y12559D02*X12775D01*
X11929Y13208D02*X12185Y13464D01*
X12775Y12559D02*X12460Y12874D01*
X11951D01*
X11105Y13208D02*X11929D01*
X11437Y12893D02*X11122Y12578D01*
X11948Y12893D02*X11437D01*
X13346Y12047D02*X12736D01*
X12598Y11102D02*Y11456D01*
G54D13*X12047Y11496D02*X12204D01*
G54D11*X12126D02*X12300D01*
G54D19*X11023Y11968D03*
Y14968D03*
X10118Y14960D03*
Y11960D03*
X16102Y13110D03*
X13102D03*
X20551Y11889D03*
Y13889D03*
X30236Y8149D03*
Y7149D03*
X29236Y8149D03*
Y7149D03*
X28236Y8149D03*
Y7149D03*
X21850Y9803D03*
X27236Y8149D03*
Y7149D03*
X27244Y6220D03*
X28228D03*
X26236Y8149D03*
Y7149D03*
G54D12*X2519Y6177D03*
Y5677D03*
Y5177D03*
Y4677D03*
Y4177D03*
Y3677D03*
Y3177D03*
G54D11*G36*
X2319Y2877D02*Y2477D01*
X2719D01*
Y2877D01*
X2319D01*
G37*
G54D20*X6889Y14763D03*
G54D12*X9488Y11062D03*
X2165Y11614D03*
X9114Y12381D03*
G54D19*X12716Y14842D03*
X14645Y13267D03*
G54D12*X2086Y9488D03*
X3610Y9405D03*
X1732Y11141D03*
G54D20*X984Y14763D03*
G54D19*X4291Y9999D03*
X8070Y9960D03*
X6299Y10000D03*
G54D12*X1102Y5393D03*
G54D20*X984Y984D03*
G54D12*X2126Y7440D03*
X14527Y7874D03*
G54D19*X3031Y7598D03*
X10826Y7047D03*
X6102Y7126D03*
X8503Y7047D03*
G54D12*X3385Y5236D03*
Y4685D03*
X14763Y5393D03*
G54D19*X4252Y5433D03*
G54D12*X14330Y6259D03*
G54D19*X11102Y5275D03*
G54D12*X1771Y7007D03*
G54D19*X1811Y8228D03*
X8897Y5314D03*
X11692Y3425D03*
X10236Y4094D03*
G54D12*X12716Y2362D03*
X12716Y3503D03*
G54D19*X12834Y4606D03*
X6456Y5314D03*
X5590Y3976D03*
X7874Y4055D03*
X3582Y2716D03*
G54D12*X28779Y10039D03*
X28031Y12047D03*
G54D20*X30511Y14763D03*
G54D12*X28700Y11614D03*
X28621Y10984D03*
X28346Y10433D03*
X29803Y9133D03*
X28307Y9527D03*
X28090Y3720D03*
G54D19*X29507Y5118D03*
X29763Y3326D03*
G54D12*X23444Y3031D03*
X22106Y1515D03*
X25255Y1437D03*
X24665Y2874D03*
X22893Y2126D03*
X23405Y1102D03*
X27539Y5413D03*
X25866D03*
G54D20*X30511Y984D03*
G54D12*X28425Y1181D03*
X26456Y1456D03*
X23129Y3464D03*
X22263Y4626D03*
X23996Y4389D03*
X25728Y3346D03*
X25236Y4251D03*
X20885Y5098D03*
X21752Y4940D03*
X20866Y4586D03*
X21732Y5476D03*
X25098Y7992D03*
X22519Y8228D03*
X23307D03*
X20216Y2086D03*
X20157Y1141D03*
X25393Y6043D03*
X23779Y6063D03*
X25216Y5236D03*
X24094Y5728D03*
X21358Y1377D03*
X20196Y5433D03*
X26181Y9409D03*
X25905Y11496D03*
X26063Y10000D03*
X25275Y11023D03*
X24409Y8858D03*
X22716Y8740D03*
X24252Y12244D03*
G54D19*X23307Y15196D03*
X25275Y13622D03*
X24763Y12637D03*
G54D12*X24311Y14783D03*
X23858Y12755D03*
X25787Y12992D03*
X23267Y10433D03*
X22795Y9645D03*
X23228Y11141D03*
G54D19*X23897Y10314D03*
G54D12*X19744Y3110D03*
G54D19*X15315Y1318D03*
G54D20*X8858Y984D03*
G54D12*X14763Y2519D03*
X15590Y590D03*
X18503Y2185D03*
X15610Y3602D03*
X19803Y1535D03*
X17440Y3484D03*
X25255Y2401D03*
X20039Y2598D03*
X12598Y13897D03*
X15314Y14724D03*
X11476Y14153D03*
X16968Y14763D03*
X16318Y14488D03*
X11889Y12480D03*
G54D19*X12834Y12027D03*
G54D12*X11692Y11988D03*
X20019Y13031D03*
X24252Y11338D03*
X17047Y11417D03*
X15157Y12421D03*
X14015Y11574D03*
X14976Y11496D03*
X14960Y10905D03*
X21318Y6594D03*
X25393Y6791D03*
X21830Y6574D03*
X24626Y6161D03*
X24448Y8307D03*
X16929Y7874D03*
X17047Y7165D03*
Y9291D03*
X16929Y9881D03*
X14803Y6732D03*
X16055Y6885D03*
X14803Y7283D03*
X16141Y7795D03*
X15039Y8759D03*
X16023Y9055D03*
X14862Y9251D03*
X19960Y9114D03*
X16496Y8267D03*
X17952Y5078D03*
X16082Y4232D03*
X17165Y5314D03*
X18917Y5334D03*
X18799Y5826D03*
X19350Y6318D03*
X20157Y4389D03*
X18464Y5059D03*
X15866Y11889D03*
X15669Y13622D03*
X16417Y11889D03*
X16968Y13582D03*
X19409Y14803D03*
G54D19*X12007Y14744D03*
G54D12*X16141Y9925D03*
X12480Y11456D03*
X16063Y11338D03*
X14842Y10275D03*
X16299Y10472D03*
X19330Y10314D03*
X18031Y10118D03*
X18543Y11358D03*
X19429Y12047D03*
X19035Y13129D03*
Y12578D03*
X17401Y13149D03*
X17992Y13051D03*
X18858Y14566D03*
X19960Y14527D03*
X19940Y8484D03*
X20535Y9901D03*
X20968Y9602D03*
X19921Y7401D03*
X21220Y11929D03*
G54D19*X20944Y13149D03*
X21338Y14527D03*
G54D12*X18818Y9271D03*
Y8858D03*
X18110Y9173D03*
Y7952D03*
X15551Y6141D03*
X14803Y4881D03*
G54D19*X16535Y5905D03*
X15275Y2086D03*
X17185Y2263D03*
X18169Y2854D03*
G54D21*X12232Y6145D02*X12412D01*
G54D22*X10855Y13799D02*X10915D01*
X10855Y13019D02*X10915D01*
X10035Y13409D02*X10095D01*
G54D23*X11563Y10523D02*X12213D01*
X11563Y11023D02*X12213D01*
X11563Y11523D02*X12213D01*
X11563Y12023D02*X12213D01*
X11563Y12523D02*X12213D01*
G54D21*X12161Y13810D02*Y13630D01*
X12180Y14597D02*Y14417D01*
X11461Y13810D02*Y13630D01*
X11480Y14597D02*Y14417D01*
G54D23*X13613Y10023D02*X14263D01*
X13613Y9523D02*X14263D01*
G54D21*X10697Y10941D02*X10877D01*
X10697Y11421D02*X10877D01*
G54D23*X11563Y9523D02*X12213D01*
X11563Y10023D02*X12213D01*
G54D21*X14956Y11625D02*Y11445D01*
X15436Y11625D02*Y11445D01*
X15823Y12334D02*Y12154D01*
G54D23*X13613Y11023D02*X14263D01*
X13613Y10523D02*X14263D01*
X13613Y12023D02*X14263D01*
X13613Y11523D02*X14263D01*
X13613Y12523D02*X14263D01*
G54D21*X12839Y13790D02*Y13610D01*
X13539Y13790D02*Y13610D01*
X16334Y10030D02*Y9850D01*
X14819Y9460D02*Y9280D01*
X15299Y9460D02*Y9280D01*
X16814Y10030D02*Y9850D01*
X16618Y11448D02*Y11268D01*
X16138Y11448D02*Y11268D01*
X17437Y14204D02*Y14024D01*
X17917Y14204D02*Y14024D01*
X15121Y8121D02*Y7941D01*
X14641Y8121D02*Y7941D01*
X14917Y10877D02*Y10697D01*
X15279Y10129D02*Y9949D01*
X14799Y10129D02*Y9949D01*
G54D24*X19398Y8396D02*X19498D01*
G54D21*X19334Y14381D02*Y14201D01*
X18854Y14381D02*Y14201D01*
X19472Y12412D02*Y12232D01*
X18992Y12412D02*Y12232D01*
X19472Y13554D02*Y13374D01*
X18992Y13554D02*Y13374D01*
X15397Y10877D02*Y10697D01*
X15869Y14814D02*Y14634D01*
X15389Y14814D02*Y14634D01*
X14130Y14302D02*Y14122D01*
X14610Y14302D02*Y14122D01*
X13079Y14287D02*X13259D01*
X13079Y14767D02*X13259D01*
G54D25*X13661Y1417D02*Y1181D01*
X14842Y1417D02*Y1181D01*
G54D24*X15205Y4104D02*X15305D01*
G54D21*X13273Y5000D02*X13433D01*
X14093D02*X14253D01*
X14093Y4610D02*X14253D01*
X14093Y4220D02*X14253D01*
X13273D02*X13433D01*
G54D22*X16063Y2549D02*Y2489D01*
X15283Y2549D02*Y2489D01*
X15673Y3369D02*Y3309D01*
G54D21*X16460Y9105D02*Y8925D01*
X15980Y9105D02*Y8925D01*
X16256Y7845D02*Y7665D01*
X16736Y7845D02*Y7665D01*
X17917Y13554D02*Y13374D01*
X17476Y12334D02*Y12154D01*
X17956Y12334D02*Y12154D01*
X17437Y13554D02*Y13374D01*
X16642Y12949D02*X16822D01*
X16642Y13429D02*X16822D01*
X16303Y12334D02*Y12154D01*
X14799Y7452D02*Y7272D01*
X15279Y7452D02*Y7272D01*
G54D24*X15205Y5404D02*X15305D01*
G54D21*X12232Y5665D02*X12412D01*
G54D24*X13217Y5658D02*X13317D01*
G54D21*X15074Y6231D02*Y6051D01*
X15554Y6231D02*Y6051D01*
X13145Y8869D02*Y8689D01*
G54D24*X13217Y6958D02*X13317D01*
G54D21*X15035Y8751D02*Y8571D01*
X14799Y6822D02*Y6642D01*
X15279Y6822D02*Y6642D01*
X15515Y8751D02*Y8571D01*
X13625Y8869D02*Y8689D01*
X17095Y5940D02*X17275D01*
X16499Y6940D02*Y6760D01*
X16019Y6940D02*Y6760D01*
X18394Y3685D02*X18574D01*
X18394Y4385D02*X18574D01*
X17744D02*X17924D01*
X17055D02*X17235D01*
X17744Y3685D02*X17924D01*
X17055D02*X17235D01*
G54D24*X19398Y7096D02*X19498D01*
G54D21*X18566Y6153D02*Y5973D01*
X18086Y6153D02*Y5973D01*
X17095Y5240D02*X17275D01*
X19688Y3475D02*Y3295D01*
X19208Y3475D02*Y3295D01*
X19740Y4853D02*Y4673D01*
X19299Y1098D02*X19479D01*
X19299Y1578D02*X19479D01*
X19280Y2181D02*X19460D01*
X19280Y2661D02*X19460D01*
G54D11*G36*
X18253Y2356D02*Y1856D01*
X18753D01*
Y2356D01*
X18253D01*
G37*
G36*
Y1456D02*Y956D01*
X18753D01*
Y1456D01*
X18253D01*
G37*
G54D21*X28059Y10121D02*X28239D01*
X28059Y9641D02*X28239D01*
X29358Y11657D02*X29538D01*
X29358Y11177D02*X29538D01*
X29358Y10200D02*X29538D01*
X29358Y9720D02*X29538D01*
X24543Y8042D02*Y7862D01*
X25023Y8042D02*Y7862D01*
X26642Y9563D02*X26822D01*
X28020Y12437D02*X28200D01*
X25382Y12515D02*X25562D01*
X28020Y12917D02*X28200D01*
X25382Y12995D02*X25562D01*
X26642Y10043D02*X26822D01*
X25185Y10358D02*X25365D01*
X25185Y9878D02*X25365D01*
X22252Y4886D02*X22432D01*
X22252Y5586D02*X22432D01*
X22488Y3361D02*X22668D01*
X21362Y6526D02*Y6346D01*
X20882Y6526D02*Y6346D01*
X21484Y5704D02*X21664D01*
G54D26*X23190Y1537D02*Y1337D01*
G54D21*X22016Y1747D02*X22196D01*
X22016Y1047D02*X22196D01*
X22488Y2661D02*X22668D01*
X21465Y3243D02*X21645D01*
X21019Y1231D02*Y1051D01*
X20999Y1881D02*Y1701D01*
X21484Y5004D02*X21664D01*
X20220Y4853D02*Y4673D01*
X21106Y4322D02*Y4142D01*
X21806Y4322D02*Y4142D01*
X21465Y2543D02*X21645D01*
X20319Y1231D02*Y1051D01*
X20299Y1881D02*Y1701D01*
X23335Y8940D02*X23515D01*
X23335Y8460D02*X23515D01*
X21886Y9381D02*Y9201D01*
X22366Y9381D02*Y9201D01*
G54D27*X21857Y8332D02*Y7572D01*
X20897Y8332D02*Y7572D01*
G54D21*X21027Y9853D02*Y9673D01*
X21106Y11153D02*Y10973D01*
X20547Y9853D02*Y9673D01*
X20626Y11153D02*Y10973D01*
G54D24*X24123Y13257D02*X24223D01*
X24123Y11957D02*X24223D01*
X23946Y14931D02*Y14831D01*
X25246Y14931D02*Y14831D01*
G54D21*X21169Y13933D02*X21349D01*
X21169Y14413D02*X21349D01*
G54D28*X25590Y1537D02*Y1337D01*
G54D24*X25816Y4892D02*Y4792D01*
G54D11*X25295Y3918D02*Y3704D01*
G54D23*X25669Y3918D02*Y3704D01*
X26043Y3918D02*Y3704D01*
Y2933D02*Y2718D01*
X25669Y2933D02*Y2718D01*
X25295Y2933D02*Y2718D01*
G54D24*X24516Y4892D02*Y4792D01*
G54D22*X24438Y3897D02*X24498D01*
X24438Y3117D02*X24498D01*
X23618Y3507D02*X23678D01*
G54D24*X26761Y4971D02*Y4871D01*
X28061Y4971D02*Y4871D01*
G54D28*X29506Y5767D02*X29706D01*
X29506Y3367D02*X29706D01*
G54D21*X27448Y3833D02*Y3673D01*
X28228Y3833D02*Y3673D01*
Y3013D02*Y2853D01*
X27838Y3013D02*Y2853D01*
X27448Y3013D02*Y2853D01*
X26662Y3232D02*X26842D01*
X26662Y2752D02*X26842D01*
G54D29*G54D17*G54D29*G54D11*G54D29*G54D30*G54D31*G54D11*G54D32*G54D11*G54D31*G54D32*G54D11*G54D31*G54D11*G54D32*G54D11*G54D32*G54D11*G54D32*G54D11*G54D32*G54D11*G54D33*G54D32*G54D11*G54D31*G54D11*G54D32*G54D11*G54D31*G54D11*G54D32*G54D33*G54D11*G54D33*G54D11*G54D32*G54D31*G54D11*G54D33*G54D11*G54D32*G54D11*G54D32*G54D11*G54D33*G54D32*M02*
