G04 start of page 8 for group -4078 idx -4078
G04 Title: stribog.bis, bottomsilk *
G04 Creator: pcb 20080202 *
G04 CreationDate: Sun Nov 29 16:50:14 2009 UTC *
G04 For: dti *
G04 Format: Gerber/RS-274X *
G04 PCB-Dimensions: 314960 157480 *
G04 PCB-Coordinate-Origin: lower left *
%MOIN*%
%FSLAX24Y24*%
%LNBACKSILK*%
%ADD13C,0.0100*%
%ADD61C,0.0060*%
%ADD63C,0.0059*%
%ADD64C,0.0080*%
G54D13*X20377Y8852D02*X22377D01*
X20377D02*Y7052D01*
X22377D01*
Y8852D02*Y7052D01*
G54D61*X21706Y9021D02*Y9391D01*
X22226Y9561D02*X22546D01*
Y9021D01*
X21706D01*
X23155Y9120D02*Y8280D01*
X23695D01*
Y9120D02*Y8280D01*
X23155Y9120D02*X23695D01*
X20702Y6706D02*X21542D01*
X20702D02*Y6166D01*
X21542D01*
Y6706D02*Y6166D01*
X20446Y11333D02*X21286D01*
X20446D02*Y10793D01*
X21286D01*
Y11333D02*Y10793D01*
G54D13*X22350Y9803D02*G75*G03X21600Y9370I-500J0D01*G01*
G54D61*X24363Y8222D02*Y7682D01*
Y8222D02*X25203D01*
Y7682D01*
X24363D02*X25203D01*
X18812Y13734D02*X19652D01*
X18812D02*Y13194D01*
X19652D01*
Y13734D02*Y13194D01*
X18674Y14561D02*X19514D01*
X18674D02*Y14021D01*
X19514D01*
Y14561D02*Y14021D01*
X17002Y13609D02*Y12769D01*
X16462Y13609D02*X17002D01*
X16462D02*Y12769D01*
X17002D01*
X18097Y13194D02*X17257D01*
X18097Y13734D02*Y13194D01*
X17257Y13734D02*X18097D01*
X17257Y13194D02*Y13734D01*
X21529Y14593D02*Y13753D01*
X20989Y14593D02*X21529D01*
X20989D02*Y13753D01*
X21529D01*
G54D13*X23596Y15281D02*Y14481D01*
X25596D01*
X23596Y15281D02*X25596D01*
Y14481D01*
X25246Y15581D02*Y15381D01*
X25146Y15481D02*X25346D01*
G54D61*X18812Y12592D02*X19652D01*
X18812D02*Y12052D01*
X19652D01*
Y12592D02*Y12052D01*
X18097Y13844D02*X17257D01*
X18097Y14384D02*Y13844D01*
X17257Y14384D02*X18097D01*
X17257Y13844D02*Y14384D01*
X25202Y13175D02*Y12335D01*
X25742D01*
Y13175D02*Y12335D01*
X25202Y13175D02*X25742D01*
G54D13*X24573Y13607D02*X23773D01*
Y11607D01*
X24573D02*Y13607D01*
Y11607D02*X23773D01*
X24673Y11957D02*X24873D01*
X24773Y11857D02*Y12057D01*
G54D61*X21265Y3443D02*Y2343D01*
X21845Y3443D02*Y2343D01*
X21265D02*X21845D01*
X21265Y3443D02*X21845D01*
X20119Y851D02*X21219D01*
X20119Y1431D02*X21219D01*
Y851D01*
X20119Y1431D02*Y851D01*
X22288Y3561D02*Y2461D01*
X22868Y3561D02*Y2461D01*
X22288D02*X22868D01*
X22288Y3561D02*X22868D01*
X20099Y1501D02*X21199D01*
X20099Y2081D02*X21199D01*
Y1501D01*
X20099Y2081D02*Y1501D01*
X20906Y3942D02*X22006D01*
X20906Y4522D02*X22006D01*
Y3942D01*
X20906Y4522D02*Y3942D01*
X19028Y3655D02*X19868D01*
X19028Y3115D02*Y3655D01*
Y3115D02*X19868D01*
Y3655D01*
X19659Y1758D02*Y918D01*
X19119Y1758D02*X19659D01*
X19119D02*Y918D01*
X19659D01*
X19100Y2841D02*Y2001D01*
X19640D01*
Y2841D02*Y2001D01*
X19100Y2841D02*X19640D01*
X17544Y4585D02*Y3485D01*
X18124Y4585D02*Y3485D01*
X17544D02*X18124D01*
X17544Y4585D02*X18124D01*
G54D13*X18093Y806D02*X18913D01*
X18093Y2516D02*Y806D01*
Y2516D02*X18913D01*
Y806D01*
X15033Y3619D02*X16313D01*
X15033D02*Y2229D01*
X16313D01*
Y3619D02*Y2229D01*
X14855Y3754D02*X15655D01*
Y5754D02*Y3754D01*
X14855Y5754D02*Y3754D01*
Y5754D02*X15655D01*
X14555Y5404D02*X14755D01*
X14655Y5504D02*Y5304D01*
G54D61*X17435Y4585D02*Y3485D01*
X16855Y4585D02*Y3485D01*
Y4585D02*X17435D01*
X16855Y3485D02*X17435D01*
X19560Y4493D02*X20400D01*
Y5033D02*Y4493D01*
X19560Y5033D02*X20400D01*
X19560D02*Y4493D01*
X21816Y1947D02*Y847D01*
X22396Y1947D02*Y847D01*
X21816D02*X22396D01*
X21816Y1947D02*X22396D01*
X29178Y10380D02*Y9540D01*
X29718D01*
Y10380D02*Y9540D01*
X29178Y10380D02*X29718D01*
X20367Y10033D02*X21207D01*
X20367D02*Y9493D01*
X21207D01*
Y10033D02*Y9493D01*
X26462Y10223D02*Y9383D01*
X27002D01*
Y10223D02*Y9383D01*
X26462Y10223D02*X27002D01*
X27879Y10301D02*Y9461D01*
X28419D01*
Y10301D02*Y9461D01*
X27879Y10301D02*X28419D01*
X28380Y13097D02*Y12257D01*
X27840Y13097D02*X28380D01*
X27840D02*Y12257D01*
X28380D01*
X29178Y11837D02*Y10997D01*
X29718D01*
Y11837D02*Y10997D01*
X29178Y11837D02*X29718D01*
G54D13*X29006Y2767D02*X30206D01*
Y6367D02*Y2767D01*
X29006Y6367D02*Y2767D01*
Y6367D02*X30206D01*
X28606Y5767D02*X28806D01*
X28706Y5867D02*Y5667D01*
G54D61*X25005Y10538D02*Y9698D01*
X25545D01*
Y10538D02*Y9698D01*
X25005Y10538D02*X25545D01*
X21864Y5904D02*Y4804D01*
X21284Y5904D02*Y4804D01*
Y5904D02*X21864D01*
X21284Y4804D02*X21864D01*
G54D13*X27961Y5521D02*X28161D01*
X28061Y5621D02*Y5421D01*
X28411Y5321D02*Y4521D01*
X26411Y5321D02*X28411D01*
X26411Y4521D02*X28411D01*
X26411Y5321D02*Y4521D01*
X25099Y4118D02*Y2518D01*
X26239D01*
Y4118D02*Y2518D01*
X25099Y4118D02*X26239D01*
X25079Y4218D02*G75*G03X25079Y4218I0J-80D01*G01*
X26166Y5242D02*Y4442D01*
X24166Y5242D02*X26166D01*
X24166Y4442D02*X26166D01*
X24166Y5242D02*Y4442D01*
X24516Y5342D02*Y5542D01*
X24416Y5442D02*X24616D01*
G54D61*X18774Y4585D02*Y3485D01*
X18194Y4585D02*Y3485D01*
Y4585D02*X18774D01*
X18194Y3485D02*X18774D01*
X16798Y11628D02*Y11088D01*
X15958D02*X16798D01*
X15958Y11628D02*Y11088D01*
Y11628D02*X16798D01*
X16994Y9670D02*X16154D01*
X16994Y10210D02*Y9670D01*
X16154Y10210D02*X16994D01*
X16154Y9670D02*Y10210D01*
X15301Y8301D02*Y7761D01*
X14461D02*X15301D01*
X14461Y8301D02*Y7761D01*
Y8301D02*X15301D01*
G54D13*X19048Y6746D02*X19848D01*
Y8746D02*Y6746D01*
X19048Y8746D02*Y6746D01*
Y8746D02*X19848D01*
X18748Y8396D02*X18948D01*
X18848Y8496D02*Y8296D01*
G54D61*X17906Y6333D02*X18746D01*
X17906D02*Y5793D01*
X18746D01*
Y6333D02*Y5793D01*
X22632Y5786D02*Y4686D01*
X22052Y5786D02*Y4686D01*
Y5786D02*X22632D01*
X22052Y4686D02*X22632D01*
X16895Y6140D02*Y5040D01*
X17475Y6140D02*Y5040D01*
X16895D02*X17475D01*
X16895Y6140D02*X17475D01*
G54D13*X27248Y4043D02*Y2653D01*
Y4043D02*X28428D01*
Y2653D01*
X27248D02*X28428D01*
G54D61*X26482Y3412D02*Y2572D01*
X27022D01*
Y3412D02*Y2572D01*
X26482Y3412D02*X27022D01*
G54D13*X23368Y4147D02*X24758D01*
Y2867D01*
X23368D02*X24758D01*
X23368Y4147D02*Y2867D01*
X22590Y2037D02*Y837D01*
X26190D01*
X22590Y2037D02*X26190D01*
Y837D01*
X25590Y437D02*Y637D01*
X25490Y537D02*X25690D01*
X14463Y12773D02*Y9273D01*
X11363Y12773D02*X14463D01*
X11363D02*Y9273D01*
X13163D02*X14463D01*
X11363D02*X12663D01*
X13163D02*G75*G03X12663Y9273I-250J0D01*G01*
G54D61*X11057Y11601D02*Y10761D01*
X10517D02*X11057D01*
X10517Y11601D02*Y10761D01*
Y11601D02*X11057D01*
X16640Y9285D02*Y8745D01*
X15800D02*X16640D01*
X15800Y9285D02*Y8745D01*
Y9285D02*X16640D01*
X15479Y9100D02*X14639D01*
X15479Y9640D02*Y9100D01*
X14639Y9640D02*X15479D01*
X14639Y9100D02*Y9640D01*
X15459Y10309D02*Y9769D01*
X14619D02*X15459D01*
X14619Y10309D02*Y9769D01*
Y10309D02*X15459D01*
X15577Y10517D02*X14737D01*
X15577Y11057D02*Y10517D01*
X14737Y11057D02*X15577D01*
X14737Y10517D02*Y11057D01*
X15695Y8391D02*X14855D01*
X15695Y8931D02*Y8391D01*
X14855Y8931D02*X15695D01*
X14855Y8391D02*Y8931D01*
X16679Y7120D02*Y6580D01*
X15839D02*X16679D01*
X15839Y7120D02*Y6580D01*
Y7120D02*X16679D01*
X16483Y11974D02*X15643D01*
X16483Y12514D02*Y11974D01*
X15643Y12514D02*X16483D01*
X15643Y11974D02*Y12514D01*
X15616Y11265D02*X14776D01*
X15616Y11805D02*Y11265D01*
X14776Y11805D02*X15616D01*
X14776Y11265D02*Y11805D01*
X18136Y11974D02*X17296D01*
X18136Y12514D02*Y11974D01*
X17296Y12514D02*X18136D01*
X17296Y11974D02*Y12514D01*
X16916Y7485D02*X16076D01*
X16916Y8025D02*Y7485D01*
X16076Y8025D02*X16916D01*
X16076Y7485D02*Y8025D01*
X15459Y7092D02*X14619D01*
X15459Y7632D02*Y7092D01*
X14619Y7632D02*X15459D01*
X14619Y7092D02*Y7632D01*
X15459Y6462D02*X14619D01*
X15459Y7002D02*Y6462D01*
X14619Y7002D02*X15459D01*
X14619Y6462D02*Y7002D01*
X12052Y5485D02*X12592D01*
X12052Y6325D02*Y5485D01*
Y6325D02*X12592D01*
Y5485D01*
G54D64*X14015Y1673D02*X14488D01*
X14015Y925D02*X14488D01*
G54D13*X13867Y5758D02*Y5558D01*
X13767Y5658D02*X13967D01*
X12867Y5308D02*X13667D01*
Y7308D02*Y5308D01*
X12867Y7308D02*Y5308D01*
Y7308D02*X13667D01*
G54D61*X12965Y8509D02*X13805D01*
X12965Y9049D02*Y8509D01*
Y9049D02*X13805D01*
Y8509D01*
G54D13*X13063Y4020D02*X14453D01*
X13063Y5200D02*Y4020D01*
Y5200D02*X14453D01*
Y4020D01*
G54D61*X14894Y6411D02*Y5871D01*
Y6411D02*X15734D01*
Y5871D01*
X14894D02*X15734D01*
X14790Y13942D02*X13950D01*
X14790Y14482D02*Y13942D01*
X13950Y14482D02*X14790D01*
X13950Y13942D02*Y14482D01*
X15209Y14994D02*X16049D01*
X15209D02*Y14454D01*
X16049D01*
Y14994D02*Y14454D01*
G54D13*X9785Y14049D02*X11175D01*
Y12769D01*
X9785D02*X11175D01*
X9785Y14049D02*Y12769D01*
G54D61*X13439Y14947D02*Y14107D01*
X12899Y14947D02*X13439D01*
X12899D02*Y14107D01*
X13439D01*
X12639Y13410D02*X13739D01*
X12639Y13990D02*X13739D01*
Y13410D01*
X12639Y13990D02*Y13410D01*
X11261Y14010D02*X12361D01*
X11261Y13430D02*X12361D01*
X11261Y14010D02*Y13430D01*
X12361Y14010D02*Y13430D01*
X11280Y14217D02*X12380D01*
X11280Y14797D02*X12380D01*
Y14217D01*
X11280Y14797D02*Y14217D01*
G54D63*X23129Y7137D02*Y7537D01*
X22929Y7137D02*X23129D01*
X22659D02*X22759D01*
X22709D02*Y7537D01*
X22809Y7437D02*X22709Y7537D01*
X25075Y7577D02*X25275D01*
X25075D02*X25025Y7527D01*
Y7427D02*Y7527D01*
X25075Y7377D02*X25025Y7427D01*
X25075Y7377D02*X25225D01*
Y7177D02*Y7577D01*
Y7377D02*X25025Y7177D01*
X24905Y7527D02*X24855Y7577D01*
X24755D02*X24855D01*
X24755D02*X24705Y7527D01*
Y7227D02*Y7527D01*
X24755Y7177D02*X24705Y7227D01*
X24755Y7177D02*X24855D01*
X24905Y7227D02*X24855Y7177D01*
X24705Y7377D02*X24855D01*
X24385Y7577D02*X24585D01*
Y7377D02*Y7577D01*
Y7377D02*X24535Y7427D01*
X24435D02*X24535D01*
X24435D02*X24385Y7377D01*
Y7227D02*Y7377D01*
X24435Y7177D02*X24385Y7227D01*
X24435Y7177D02*X24535D01*
X24585Y7227D02*X24535Y7177D01*
X22912Y8897D02*Y9017D01*
X22882Y9047D01*
X22822D02*X22882D01*
X22792Y9017D02*X22822Y9047D01*
X22792Y8927D02*Y9017D01*
X22672Y8927D02*X22912D01*
X22792D02*X22672Y9047D01*
X22792Y9119D02*X22912Y9239D01*
X22792Y9119D02*Y9269D01*
X22672Y9239D02*X22912D01*
X22702Y9341D02*X22672Y9371D01*
X22702Y9341D02*X22882D01*
X22912Y9371D01*
Y9431D01*
X22882Y9461D01*
X22702D02*X22882D01*
X22672Y9431D02*X22702Y9461D01*
X22672Y9371D02*Y9431D01*
X22732Y9341D02*X22852Y9461D01*
X23874Y9224D02*X24024D01*
X24074Y9274D02*X24024Y9224D01*
X24074Y9274D02*Y9574D01*
X24024Y9624D01*
X23874D02*X24024D01*
X23754Y9574D02*X23704Y9624D01*
X23604D02*X23704D01*
X23604D02*X23554Y9574D01*
Y9274D02*Y9574D01*
X23604Y9224D02*X23554Y9274D01*
X23604Y9224D02*X23704D01*
X23754Y9274D02*X23704Y9224D01*
X23554Y9424D02*X23704D01*
X23434Y9274D02*X23384Y9224D01*
X23434Y9274D02*Y9374D01*
X23384Y9424D01*
X23284D02*X23384D01*
X23284D02*X23234Y9374D01*
Y9274D02*Y9374D01*
X23284Y9224D02*X23234Y9274D01*
X23284Y9224D02*X23384D01*
X23434Y9474D02*X23384Y9424D01*
X23434Y9474D02*Y9574D01*
X23384Y9624D01*
X23284D02*X23384D01*
X23284D02*X23234Y9574D01*
Y9474D02*Y9574D01*
X23284Y9424D02*X23234Y9474D01*
X30683Y9670D02*X30833D01*
X30883Y9720D02*X30833Y9670D01*
X30883Y9720D02*Y10020D01*
X30833Y10070D01*
X30683D02*X30833D01*
X30563Y10020D02*X30513Y10070D01*
X30363D02*X30513D01*
X30363D02*X30313Y10020D01*
Y9920D02*Y10020D01*
X30563Y9670D02*X30313Y9920D01*
Y9670D02*X30563D01*
X30193Y10020D02*X30143Y10070D01*
X29993D02*X30143D01*
X29993D02*X29943Y10020D01*
Y9920D02*Y10020D01*
X30193Y9670D02*X29943Y9920D01*
Y9670D02*X30193D01*
X27004Y10366D02*X27154D01*
X27204Y10416D02*X27154Y10366D01*
X27204Y10416D02*Y10716D01*
X27154Y10766D01*
X27004D02*X27154D01*
X26884Y10716D02*X26834Y10766D01*
X26684D02*X26834D01*
X26684D02*X26634Y10716D01*
Y10616D02*Y10716D01*
X26884Y10366D02*X26634Y10616D01*
Y10366D02*X26884D01*
X26314Y10766D02*X26514D01*
Y10566D02*Y10766D01*
Y10566D02*X26464Y10616D01*
X26364D02*X26464D01*
X26364D02*X26314Y10566D01*
Y10416D02*Y10566D01*
X26364Y10366D02*X26314Y10416D01*
X26364Y10366D02*X26464D01*
X26514Y10416D02*X26464Y10366D01*
X28382Y8929D02*X28532D01*
X28582Y8979D02*X28532Y8929D01*
X28582Y8979D02*Y9279D01*
X28532Y9329D01*
X28382D02*X28532D01*
X28262Y9279D02*X28212Y9329D01*
X28062D02*X28212D01*
X28062D02*X28012Y9279D01*
Y9179D02*Y9279D01*
X28262Y8929D02*X28012Y9179D01*
Y8929D02*X28262D01*
X27742D02*X27842D01*
X27792D02*Y9329D01*
X27892Y9229D02*X27792Y9329D01*
X25508Y9585D02*X25708D01*
X25508D02*X25458Y9535D01*
Y9435D02*Y9535D01*
X25508Y9385D02*X25458Y9435D01*
X25508Y9385D02*X25658D01*
Y9185D02*Y9585D01*
Y9385D02*X25458Y9185D01*
X25338Y9535D02*X25288Y9585D01*
X25138D02*X25288D01*
X25138D02*X25088Y9535D01*
Y9435D02*Y9535D01*
X25338Y9185D02*X25088Y9435D01*
Y9185D02*X25338D01*
X24818Y9585D02*X24768Y9535D01*
X24818Y9585D02*X24918D01*
X24968Y9535D02*X24918Y9585D01*
X24968Y9235D02*Y9535D01*
Y9235D02*X24918Y9185D01*
X24818Y9385D02*X24768Y9335D01*
X24818Y9385D02*X24968D01*
X24818Y9185D02*X24918D01*
X24818D02*X24768Y9235D01*
Y9335D01*
X30642Y11202D02*X30792D01*
X30842Y11252D02*X30792Y11202D01*
X30842Y11252D02*Y11552D01*
X30792Y11602D01*
X30642D02*X30792D01*
X30521Y11552D02*X30471Y11602D01*
X30321D02*X30471D01*
X30321D02*X30271Y11552D01*
Y11452D02*Y11552D01*
X30521Y11202D02*X30271Y11452D01*
Y11202D02*X30521D01*
X30151Y11402D02*X29951Y11602D01*
X29901Y11402D02*X30151D01*
X29951Y11202D02*Y11602D01*
X22083Y13752D02*X22233D01*
X22283Y13802D02*X22233Y13752D01*
X22283Y13802D02*Y14102D01*
X22233Y14152D01*
X22083D02*X22233D01*
X21813Y13752D02*X21913D01*
X21863D02*Y14152D01*
X21963Y14052D02*X21863Y14152D01*
X26433Y14657D02*X26583D01*
X26633Y14707D02*X26583Y14657D01*
X26633Y14707D02*Y15007D01*
X26583Y15057D01*
X26433D02*X26583D01*
X26313Y15007D02*X26263Y15057D01*
X26163D02*X26263D01*
X26163D02*X26113Y15007D01*
Y14707D02*Y15007D01*
X26163Y14657D02*X26113Y14707D01*
X26163Y14657D02*X26263D01*
X26313Y14707D02*X26263Y14657D01*
X26113Y14857D02*X26263D01*
X25993D02*X25793Y15057D01*
X25743Y14857D02*X25993D01*
X25793Y14657D02*Y15057D01*
X19524Y11927D02*X19724D01*
X19524D02*X19474Y11877D01*
Y11777D02*Y11877D01*
X19524Y11727D02*X19474Y11777D01*
X19524Y11727D02*X19674D01*
Y11527D02*Y11927D01*
Y11727D02*X19474Y11527D01*
X19204D02*X19304D01*
X19254D02*Y11927D01*
X19354Y11827D02*X19254Y11927D01*
X19084Y11527D02*X18884Y11727D01*
Y11877D01*
X18934Y11927D02*X18884Y11877D01*
X18934Y11927D02*X19034D01*
X19084Y11877D02*X19034Y11927D01*
X19084Y11777D02*Y11877D01*
Y11777D02*X19034Y11727D01*
X18884D02*X19034D01*
X20042Y10842D02*X20192D01*
X20242Y10892D02*X20192Y10842D01*
X20242Y10892D02*Y11192D01*
X20192Y11242D01*
X20042D02*X20192D01*
X19922Y11192D02*X19872Y11242D01*
X19722D02*X19872D01*
X19722D02*X19672Y11192D01*
Y11092D02*Y11192D01*
X19922Y10842D02*X19672Y11092D01*
Y10842D02*X19922D01*
X19643Y13128D02*X19763D01*
X19643D02*X19613Y13098D01*
Y13038D02*Y13098D01*
X19643Y13008D02*X19613Y13038D01*
X19643Y13008D02*X19733D01*
Y12888D02*Y13128D01*
Y13008D02*X19613Y12888D01*
X19451D02*X19511D01*
X19481D02*Y13128D01*
X19541Y13068D02*X19481Y13128D01*
X19379Y12918D02*X19349Y12888D01*
X19379Y12918D02*Y12978D01*
X19349Y13008D01*
X19289D02*X19349D01*
X19289D02*X19259Y12978D01*
Y12918D02*Y12978D01*
X19289Y12888D02*X19259Y12918D01*
X19289Y12888D02*X19349D01*
X19379Y13038D02*X19349Y13008D01*
X19379Y13038D02*Y13098D01*
X19349Y13128D01*
X19289D02*X19349D01*
X19289D02*X19259Y13098D01*
Y13038D02*Y13098D01*
X19289Y13008D02*X19259Y13038D01*
X26611Y12537D02*X26811D01*
X26611D02*X26561Y12487D01*
Y12387D02*Y12487D01*
X26611Y12337D02*X26561Y12387D01*
X26611Y12337D02*X26761D01*
Y12137D02*Y12537D01*
Y12337D02*X26561Y12137D01*
X26441Y12487D02*X26391Y12537D01*
X26241D02*X26391D01*
X26241D02*X26191Y12487D01*
Y12387D02*Y12487D01*
X26441Y12137D02*X26191Y12387D01*
Y12137D02*X26441D01*
X25870Y12537D02*X26070D01*
Y12337D02*Y12537D01*
Y12337D02*X26020Y12387D01*
X25920D02*X26020D01*
X25920D02*X25870Y12337D01*
Y12187D02*Y12337D01*
X25920Y12137D02*X25870Y12187D01*
X25920Y12137D02*X26020D01*
X26070Y12187D02*X26020Y12137D01*
X29156Y12487D02*X29306D01*
X29356Y12537D02*X29306Y12487D01*
X29356Y12537D02*Y12837D01*
X29306Y12887D01*
X29156D02*X29306D01*
X29036Y12837D02*X28986Y12887D01*
X28836D02*X28986D01*
X28836D02*X28786Y12837D01*
Y12737D02*Y12837D01*
X29036Y12487D02*X28786Y12737D01*
Y12487D02*X29036D01*
X28666Y12837D02*X28616Y12887D01*
X28516D02*X28616D01*
X28516D02*X28466Y12837D01*
Y12537D02*Y12837D01*
X28516Y12487D02*X28466Y12537D01*
X28516Y12487D02*X28616D01*
X28666Y12537D02*X28616Y12487D01*
X28466Y12687D02*X28616D01*
X23422Y11862D02*X23572D01*
X23622Y11912D02*X23572Y11862D01*
X23622Y11912D02*Y12212D01*
X23572Y12262D01*
X23422D02*X23572D01*
X23302Y12212D02*X23252Y12262D01*
X23152D02*X23252D01*
X23152D02*X23102Y12212D01*
Y11912D02*Y12212D01*
X23152Y11862D02*X23102Y11912D01*
X23152Y11862D02*X23252D01*
X23302Y11912D02*X23252Y11862D01*
X23102Y12062D02*X23252D01*
X22981Y12212D02*X22931Y12262D01*
X22831D02*X22931D01*
X22831D02*X22781Y12212D01*
Y11912D02*Y12212D01*
X22831Y11862D02*X22781Y11912D01*
X22831Y11862D02*X22931D01*
X22981Y11912D02*X22931Y11862D01*
X22781Y12062D02*X22931D01*
X22599Y10969D02*X22799D01*
X22699Y10569D02*Y10969D01*
X22429Y10569D02*Y10969D01*
X22279D02*X22479D01*
X22279D02*X22229Y10919D01*
Y10819D02*Y10919D01*
X22279Y10769D02*X22229Y10819D01*
X22279Y10769D02*X22429D01*
X21959Y10569D02*X22059D01*
X22009D02*Y10969D01*
X22109Y10869D02*X22009Y10969D01*
X23582Y4392D02*Y4692D01*
X23532Y4742D01*
X23432D02*X23532D01*
X23432D02*X23382Y4692D01*
Y4392D02*Y4692D01*
X23432Y4342D02*X23382Y4392D01*
X23432Y4342D02*X23532D01*
X23582Y4392D02*X23532Y4342D01*
X23482Y4442D02*X23382Y4342D01*
X23262Y4692D02*X23212Y4742D01*
X23112D02*X23212D01*
X23112D02*X23062Y4692D01*
Y4392D02*Y4692D01*
X23112Y4342D02*X23062Y4392D01*
X23112Y4342D02*X23212D01*
X23262Y4392D02*X23212Y4342D01*
X23062Y4542D02*X23212D01*
X25469Y5405D02*X25619D01*
X25669Y5455D02*X25619Y5405D01*
X25669Y5455D02*Y5755D01*
X25619Y5805D01*
X25469D02*X25619D01*
X25349Y5755D02*X25299Y5805D01*
X25149D02*X25299D01*
X25149D02*X25099Y5755D01*
Y5655D02*Y5755D01*
X25349Y5405D02*X25099Y5655D01*
Y5405D02*X25349D01*
X24979D02*X24729Y5655D01*
Y5805D01*
X24979D01*
X22439Y5881D02*X22529D01*
X22559Y5911D02*X22529Y5881D01*
X22559Y5911D02*Y6091D01*
X22529Y6121D01*
X22439D02*X22529D01*
X22277D02*X22247Y6091D01*
X22277Y6121D02*X22337D01*
X22367Y6091D02*X22337Y6121D01*
X22367Y5911D02*Y6091D01*
Y5911D02*X22337Y5881D01*
X22277Y6001D02*X22247Y5971D01*
X22277Y6001D02*X22367D01*
X22277Y5881D02*X22337D01*
X22277D02*X22247Y5911D01*
Y5971D01*
X22085Y5881D02*X22145D01*
X22115D02*Y6121D01*
X22175Y6061D02*X22115Y6121D01*
X21061Y5448D02*X21151D01*
X21181Y5478D02*X21151Y5448D01*
X21181Y5478D02*Y5658D01*
X21151Y5688D01*
X21061D02*X21151D01*
X20899D02*X20869Y5658D01*
X20899Y5688D02*X20959D01*
X20989Y5658D02*X20959Y5688D01*
X20989Y5478D02*Y5658D01*
Y5478D02*X20959Y5448D01*
X20899Y5568D02*X20869Y5538D01*
X20899Y5568D02*X20989D01*
X20899Y5448D02*X20959D01*
X20899D02*X20869Y5478D01*
Y5538D01*
X20797Y5568D02*X20677Y5688D01*
X20647Y5568D02*X20797D01*
X20677Y5448D02*Y5688D01*
X19719Y2096D02*Y2186D01*
X19749Y2066D02*X19719Y2096D01*
X19749Y2066D02*X19929D01*
X19959Y2096D01*
Y2186D01*
X19839Y2258D02*X19959Y2378D01*
X19839Y2258D02*Y2408D01*
X19719Y2378D02*X19959D01*
X21061Y2770D02*X21151D01*
X21181Y2800D02*X21151Y2770D01*
X21181Y2800D02*Y2980D01*
X21151Y3010D01*
X21061D02*X21151D01*
X20869D02*X20989D01*
Y2890D02*Y3010D01*
Y2890D02*X20959Y2920D01*
X20899D02*X20959D01*
X20899D02*X20869Y2890D01*
Y2800D02*Y2890D01*
X20899Y2770D02*X20869Y2800D01*
X20899Y2770D02*X20959D01*
X20989Y2800D02*X20959Y2770D01*
X20797Y2800D02*X20767Y2770D01*
X20797Y2800D02*Y2860D01*
X20767Y2890D01*
X20707D02*X20767D01*
X20707D02*X20677Y2860D01*
Y2800D02*Y2860D01*
X20707Y2770D02*X20677Y2800D01*
X20707Y2770D02*X20767D01*
X20797Y2920D02*X20767Y2890D01*
X20797Y2920D02*Y2980D01*
X20767Y3010D01*
X20707D02*X20767D01*
X20707D02*X20677Y2980D01*
Y2920D02*Y2980D01*
X20707Y2890D02*X20677Y2920D01*
X29918Y2216D02*X30068D01*
X30118Y2266D02*X30068Y2216D01*
X30118Y2266D02*Y2566D01*
X30068Y2616D01*
X29918D02*X30068D01*
X29798Y2566D02*X29748Y2616D01*
X29598D02*X29748D01*
X29598D02*X29548Y2566D01*
Y2466D02*Y2566D01*
X29798Y2216D02*X29548Y2466D01*
Y2216D02*X29798D01*
X29428Y2266D02*X29378Y2216D01*
X29428Y2266D02*Y2366D01*
X29378Y2416D01*
X29278D02*X29378D01*
X29278D02*X29228Y2366D01*
Y2266D02*Y2366D01*
X29278Y2216D02*X29228Y2266D01*
X29278Y2216D02*X29378D01*
X29428Y2466D02*X29378Y2416D01*
X29428Y2466D02*Y2566D01*
X29378Y2616D01*
X29278D02*X29378D01*
X29278D02*X29228Y2566D01*
Y2466D02*Y2566D01*
X29278Y2416D02*X29228Y2466D01*
X26830Y4057D02*Y4407D01*
Y4057D02*X26780Y4007D01*
X26680D02*X26780D01*
X26680D02*X26630Y4057D01*
Y4407D01*
X26510Y4007D02*X26310Y4207D01*
Y4357D01*
X26360Y4407D02*X26310Y4357D01*
X26360Y4407D02*X26460D01*
X26510Y4357D02*X26460Y4407D01*
X26510Y4257D02*Y4357D01*
Y4257D02*X26460Y4207D01*
X26310D02*X26460D01*
X27122Y5444D02*X27272D01*
X27322Y5494D02*X27272Y5444D01*
X27322Y5494D02*Y5794D01*
X27272Y5844D01*
X27122D02*X27272D01*
X26802D02*X27002D01*
Y5644D02*Y5844D01*
Y5644D02*X26952Y5694D01*
X26852D02*X26952D01*
X26852D02*X26802Y5644D01*
Y5494D02*Y5644D01*
X26852Y5444D02*X26802Y5494D01*
X26852Y5444D02*X26952D01*
X27002Y5494D02*X26952Y5444D01*
X26532Y5844D02*X26482Y5794D01*
X26532Y5844D02*X26632D01*
X26682Y5794D02*X26632Y5844D01*
X26682Y5494D02*Y5794D01*
Y5494D02*X26632Y5444D01*
X26532Y5644D02*X26482Y5594D01*
X26532Y5644D02*X26682D01*
X26532Y5444D02*X26632D01*
X26532D02*X26482Y5494D01*
Y5594D01*
X26985Y779D02*X27135D01*
X27185Y829D02*X27135Y779D01*
X27185Y829D02*Y1129D01*
X27135Y1179D01*
X26985D02*X27135D01*
X26864Y1129D02*X26814Y1179D01*
X26664D02*X26814D01*
X26664D02*X26614Y1129D01*
Y1029D02*Y1129D01*
X26864Y779D02*X26614Y1029D01*
Y779D02*X26864D01*
X26494D02*X26294Y979D01*
Y1129D01*
X26344Y1179D02*X26294Y1129D01*
X26344Y1179D02*X26444D01*
X26494Y1129D02*X26444Y1179D01*
X26494Y1029D02*Y1129D01*
Y1029D02*X26444Y979D01*
X26294D02*X26444D01*
X28425Y2148D02*Y2498D01*
Y2148D02*X28375Y2098D01*
X28275D02*X28375D01*
X28275D02*X28225Y2148D01*
Y2498D01*
X27955Y2098D02*X28055D01*
X28005D02*Y2498D01*
X28105Y2398D02*X28005Y2498D01*
X27835Y2148D02*X27785Y2098D01*
X27835Y2148D02*Y2248D01*
X27785Y2298D01*
X27685D02*X27785D01*
X27685D02*X27635Y2248D01*
Y2148D02*Y2248D01*
X27685Y2098D02*X27635Y2148D01*
X27685Y2098D02*X27785D01*
X27835Y2348D02*X27785Y2298D01*
X27835Y2348D02*Y2448D01*
X27785Y2498D01*
X27685D02*X27785D01*
X27685D02*X27635Y2448D01*
Y2348D02*Y2448D01*
X27685Y2298D02*X27635Y2348D01*
X27005Y2239D02*X27095D01*
X27125Y2269D02*X27095Y2239D01*
X27125Y2269D02*Y2449D01*
X27095Y2479D01*
X27005D02*X27095D01*
X26933Y2449D02*X26903Y2479D01*
X26813D02*X26903D01*
X26813D02*X26783Y2449D01*
Y2389D02*Y2449D01*
X26933Y2239D02*X26783Y2389D01*
Y2239D02*X26933D01*
X26621Y2479D02*X26591Y2449D01*
X26621Y2479D02*X26681D01*
X26711Y2449D02*X26681Y2479D01*
X26711Y2269D02*Y2449D01*
Y2269D02*X26681Y2239D01*
X26621Y2359D02*X26591Y2329D01*
X26621Y2359D02*X26711D01*
X26621Y2239D02*X26681D01*
X26621D02*X26591Y2269D01*
Y2329D01*
X20706Y507D02*X20796D01*
X20826Y537D02*X20796Y507D01*
X20826Y537D02*Y717D01*
X20796Y747D01*
X20706D02*X20796D01*
X20544D02*X20514Y717D01*
X20544Y747D02*X20604D01*
X20634Y717D02*X20604Y747D01*
X20634Y537D02*Y717D01*
Y537D02*X20604Y507D01*
X20544Y627D02*X20514Y597D01*
X20544Y627D02*X20634D01*
X20544Y507D02*X20604D01*
X20544D02*X20514Y537D01*
Y597D01*
X20442Y717D02*X20412Y747D01*
X20352D02*X20412D01*
X20352D02*X20322Y717D01*
Y537D02*Y717D01*
X20352Y507D02*X20322Y537D01*
X20352Y507D02*X20412D01*
X20442Y537D02*X20412Y507D01*
X20322Y627D02*X20412D01*
X22281Y408D02*X22371D01*
X22401Y438D02*X22371Y408D01*
X22401Y438D02*Y618D01*
X22371Y648D01*
X22281D02*X22371D01*
X22119D02*X22089Y618D01*
X22119Y648D02*X22179D01*
X22209Y618D02*X22179Y648D01*
X22209Y438D02*Y618D01*
Y438D02*X22179Y408D01*
X22119Y528D02*X22089Y498D01*
X22119Y528D02*X22209D01*
X22119Y408D02*X22179D01*
X22119D02*X22089Y438D01*
Y498D01*
X22017Y618D02*X21987Y648D01*
X21897D02*X21987D01*
X21897D02*X21867Y618D01*
Y558D02*Y618D01*
X22017Y408D02*X21867Y558D01*
Y408D02*X22017D01*
X16671Y5192D02*X16761D01*
X16791Y5222D02*X16761Y5192D01*
X16791Y5222D02*Y5402D01*
X16761Y5432D01*
X16671D02*X16761D01*
X16599Y5312D02*X16479Y5432D01*
X16449Y5312D02*X16599D01*
X16479Y5192D02*Y5432D01*
X16377Y5192D02*X16257Y5312D01*
Y5402D01*
X16287Y5432D02*X16257Y5402D01*
X16287Y5432D02*X16347D01*
X16377Y5402D02*X16347Y5432D01*
X16377Y5342D02*Y5402D01*
Y5342D02*X16347Y5312D01*
X16257D02*X16347D01*
X19742Y5133D02*X19832D01*
X19862Y5163D02*X19832Y5133D01*
X19862Y5163D02*Y5343D01*
X19832Y5373D01*
X19742D02*X19832D01*
X19670Y5253D02*X19550Y5373D01*
X19520Y5253D02*X19670D01*
X19550Y5133D02*Y5373D01*
X19448Y5343D02*X19418Y5373D01*
X19358D02*X19418D01*
X19358D02*X19328Y5343D01*
Y5163D02*Y5343D01*
X19358Y5133D02*X19328Y5163D01*
X19358Y5133D02*X19418D01*
X19448Y5163D02*X19418Y5133D01*
X19328Y5253D02*X19418D01*
X17970Y3105D02*X18060D01*
X18090Y3135D02*X18060Y3105D01*
X18090Y3135D02*Y3315D01*
X18060Y3345D01*
X17970D02*X18060D01*
X17898Y3225D02*X17778Y3345D01*
X17748Y3225D02*X17898D01*
X17778Y3105D02*Y3345D01*
X17676Y3135D02*X17646Y3105D01*
X17676Y3135D02*Y3195D01*
X17646Y3225D01*
X17586D02*X17646D01*
X17586D02*X17556Y3195D01*
Y3135D02*Y3195D01*
X17586Y3105D02*X17556Y3135D01*
X17586Y3105D02*X17646D01*
X17676Y3255D02*X17646Y3225D01*
X17676Y3255D02*Y3315D01*
X17646Y3345D01*
X17586D02*X17646D01*
X17586D02*X17556Y3315D01*
Y3255D02*Y3315D01*
X17586Y3225D02*X17556Y3255D01*
X17202Y3365D02*X17322D01*
X17202D02*X17172Y3335D01*
Y3275D02*Y3335D01*
X17202Y3245D02*X17172Y3275D01*
X17202Y3245D02*X17292D01*
Y3125D02*Y3365D01*
Y3245D02*X17172Y3125D01*
X17100Y3335D02*X17070Y3365D01*
X16980D02*X17070D01*
X16980D02*X16950Y3335D01*
Y3275D02*Y3335D01*
X17100Y3125D02*X16950Y3275D01*
Y3125D02*X17100D01*
X17772Y1822D02*X17922D01*
X17972Y1872D02*X17922Y1822D01*
X17972Y1872D02*Y2172D01*
X17922Y2222D01*
X17772D02*X17922D01*
X17652Y2172D02*X17602Y2222D01*
X17502D02*X17602D01*
X17502D02*X17452Y2172D01*
Y1872D02*Y2172D01*
X17502Y1822D02*X17452Y1872D01*
X17502Y1822D02*X17602D01*
X17652Y1872D02*X17602Y1822D01*
X17452Y2022D02*X17602D01*
X22675Y3656D02*X22765D01*
X22795Y3686D02*X22765Y3656D01*
X22795Y3686D02*Y3866D01*
X22765Y3896D01*
X22675D02*X22765D01*
X22513D02*X22483Y3866D01*
X22513Y3896D02*X22573D01*
X22603Y3866D02*X22573Y3896D01*
X22603Y3686D02*Y3866D01*
Y3686D02*X22573Y3656D01*
X22513Y3776D02*X22483Y3746D01*
X22513Y3776D02*X22603D01*
X22513Y3656D02*X22573D01*
X22513D02*X22483Y3686D01*
Y3746D01*
X22411Y3686D02*X22381Y3656D01*
X22411Y3686D02*Y3866D01*
X22381Y3896D01*
X22321D02*X22381D01*
X22321D02*X22291Y3866D01*
Y3686D02*Y3866D01*
X22321Y3656D02*X22291Y3686D01*
X22321Y3656D02*X22381D01*
X22411Y3716D02*X22291Y3836D01*
X20943Y2420D02*X21063D01*
X20943D02*X20913Y2390D01*
Y2330D02*Y2390D01*
X20943Y2300D02*X20913Y2330D01*
X20943Y2300D02*X21033D01*
Y2180D02*Y2420D01*
Y2300D02*X20913Y2180D01*
X20751D02*X20811D01*
X20781D02*Y2420D01*
X20841Y2360D02*X20781Y2420D01*
X20678Y2390D02*X20648Y2420D01*
X20588D02*X20648D01*
X20588D02*X20558Y2390D01*
Y2210D02*Y2390D01*
X20588Y2180D02*X20558Y2210D01*
X20588Y2180D02*X20648D01*
X20678Y2210D02*X20648Y2180D01*
X20558Y2300D02*X20648D01*
X20903Y3857D02*X21023D01*
X20903D02*X20873Y3827D01*
Y3767D02*Y3827D01*
X20903Y3737D02*X20873Y3767D01*
X20903Y3737D02*X20993D01*
Y3617D02*Y3857D01*
Y3737D02*X20873Y3617D01*
X20711D02*X20771D01*
X20741D02*Y3857D01*
X20801Y3797D02*X20741Y3857D01*
X20639Y3737D02*X20519Y3857D01*
X20489Y3737D02*X20639D01*
X20519Y3617D02*Y3857D01*
X19643Y3794D02*X19733D01*
X19763Y3824D02*X19733Y3794D01*
X19763Y3824D02*Y4004D01*
X19733Y4034D01*
X19643D02*X19733D01*
X19451D02*X19571D01*
Y3914D02*Y4034D01*
Y3914D02*X19541Y3944D01*
X19481D02*X19541D01*
X19481D02*X19451Y3914D01*
Y3824D02*Y3914D01*
X19481Y3794D02*X19451Y3824D01*
X19481Y3794D02*X19541D01*
X19571Y3824D02*X19541Y3794D01*
X19013Y4680D02*X19103D01*
X19133Y4710D02*X19103Y4680D01*
X19133Y4710D02*Y4890D01*
X19103Y4920D01*
X19013D02*X19103D01*
X18821D02*X18941D01*
Y4800D02*Y4920D01*
Y4800D02*X18911Y4830D01*
X18851D02*X18911D01*
X18851D02*X18821Y4800D01*
Y4710D02*Y4800D01*
X18851Y4680D02*X18821Y4710D01*
X18851Y4680D02*X18911D01*
X18941Y4710D02*X18911Y4680D01*
X18749D02*X18599Y4830D01*
Y4920D01*
X18749D01*
X17459Y7973D02*X17659D01*
X17459D02*X17409Y7923D01*
Y7823D02*Y7923D01*
X17459Y7773D02*X17409Y7823D01*
X17459Y7773D02*X17609D01*
Y7573D02*Y7973D01*
Y7773D02*X17409Y7573D01*
X17139Y7973D02*X17089Y7923D01*
X17139Y7973D02*X17239D01*
X17289Y7923D02*X17239Y7973D01*
X17289Y7623D02*Y7923D01*
Y7623D02*X17239Y7573D01*
X17139Y7773D02*X17089Y7723D01*
X17139Y7773D02*X17289D01*
X17139Y7573D02*X17239D01*
X17139D02*X17089Y7623D01*
Y7723D01*
X17183Y6629D02*X17273D01*
X17303Y6659D02*X17273Y6629D01*
X17303Y6659D02*Y6839D01*
X17273Y6869D01*
X17183D02*X17273D01*
X17111Y6839D02*X17081Y6869D01*
X16991D02*X17081D01*
X16991D02*X16961Y6839D01*
Y6779D02*Y6839D01*
X17111Y6629D02*X16961Y6779D01*
Y6629D02*X17111D01*
X16889Y6659D02*X16859Y6629D01*
X16889Y6659D02*Y6839D01*
X16859Y6869D01*
X16799D02*X16859D01*
X16799D02*X16769Y6839D01*
Y6659D02*Y6839D01*
X16799Y6629D02*X16769Y6659D01*
X16799Y6629D02*X16859D01*
X16889Y6689D02*X16769Y6809D01*
X16535Y1715D02*Y2015D01*
X16485Y2065D01*
X16385D02*X16485D01*
X16385D02*X16335Y2015D01*
Y1715D02*Y2015D01*
X16385Y1665D02*X16335Y1715D01*
X16385Y1665D02*X16485D01*
X16535Y1715D02*X16485Y1665D01*
X16435Y1765D02*X16335Y1665D01*
X16065D02*X16165D01*
X16115D02*Y2065D01*
X16215Y1965D02*X16115Y2065D01*
X16159Y4621D02*X16249D01*
X16279Y4651D02*X16249Y4621D01*
X16279Y4651D02*Y4831D01*
X16249Y4861D01*
X16159D02*X16249D01*
X16087Y4741D02*X15967Y4861D01*
X15937Y4741D02*X16087D01*
X15967Y4621D02*Y4861D01*
X15775Y4621D02*X15835D01*
X15805D02*Y4861D01*
X15865Y4801D02*X15805Y4861D01*
X18697Y7098D02*X18847D01*
X18897Y7148D02*X18847Y7098D01*
X18897Y7148D02*Y7448D01*
X18847Y7498D01*
X18697D02*X18847D01*
X18577Y7448D02*X18527Y7498D01*
X18427D02*X18527D01*
X18427D02*X18377Y7448D01*
Y7148D02*Y7448D01*
X18427Y7098D02*X18377Y7148D01*
X18427Y7098D02*X18527D01*
X18577Y7148D02*X18527Y7098D01*
X18377Y7298D02*X18527D01*
X18257Y7098D02*X18007Y7348D01*
Y7498D01*
X18257D01*
X14131Y7727D02*X14281D01*
X14331Y7777D02*X14281Y7727D01*
X14331Y7777D02*Y8077D01*
X14281Y8127D01*
X14131D02*X14281D01*
X13811D02*X14011D01*
Y7927D02*Y8127D01*
Y7927D02*X13961Y7977D01*
X13861D02*X13961D01*
X13861D02*X13811Y7927D01*
Y7777D02*Y7927D01*
X13861Y7727D02*X13811Y7777D01*
X13861Y7727D02*X13961D01*
X14011Y7777D02*X13961Y7727D01*
X13540D02*X13640D01*
X13590D02*Y8127D01*
X13690Y8027D02*X13590Y8127D01*
X19386Y825D02*X19586D01*
X19386D02*X19336Y775D01*
Y675D02*Y775D01*
X19386Y625D02*X19336Y675D01*
X19386Y625D02*X19536D01*
Y425D02*Y825D01*
Y625D02*X19336Y425D01*
X19066D02*X19166D01*
X19116D02*Y825D01*
X19216Y725D02*X19116Y825D01*
X18423Y6451D02*X18513D01*
X18543Y6481D02*X18513Y6451D01*
X18543Y6481D02*Y6661D01*
X18513Y6691D01*
X18423D02*X18513D01*
X18351Y6571D02*X18231Y6691D01*
X18201Y6571D02*X18351D01*
X18231Y6451D02*Y6691D01*
X18129Y6571D02*X18009Y6691D01*
X17979Y6571D02*X18129D01*
X18009Y6451D02*Y6691D01*
X20470Y6353D02*X20560D01*
X20590Y6383D02*X20560Y6353D01*
X20590Y6383D02*Y6563D01*
X20560Y6593D01*
X20470D02*X20560D01*
X20398Y6563D02*X20368Y6593D01*
X20308D02*X20368D01*
X20308D02*X20278Y6563D01*
Y6383D02*Y6563D01*
X20308Y6353D02*X20278Y6383D01*
X20308Y6353D02*X20368D01*
X20398Y6383D02*X20368Y6353D01*
X20278Y6473D02*X20368D01*
X20206Y6353D02*X20086Y6473D01*
Y6563D01*
X20116Y6593D02*X20086Y6563D01*
X20116Y6593D02*X20176D01*
X20206Y6563D02*X20176Y6593D01*
X20206Y6503D02*Y6563D01*
Y6503D02*X20176Y6473D01*
X20086D02*X20176D01*
X10705Y10248D02*X10855D01*
X10905Y10298D02*X10855Y10248D01*
X10905Y10298D02*Y10598D01*
X10855Y10648D01*
X10705D02*X10855D01*
X10385D02*X10585D01*
Y10448D02*Y10648D01*
Y10448D02*X10535Y10498D01*
X10435D02*X10535D01*
X10435D02*X10385Y10448D01*
Y10298D02*Y10448D01*
X10435Y10248D02*X10385Y10298D01*
X10435Y10248D02*X10535D01*
X10585Y10298D02*X10535Y10248D01*
X10265Y10448D02*X10065Y10648D01*
X10015Y10448D02*X10265D01*
X10065Y10248D02*Y10648D01*
X11082Y9215D02*Y9565D01*
Y9215D02*X11032Y9165D01*
X10932D02*X11032D01*
X10932D02*X10882Y9215D01*
Y9565D01*
X10612Y9165D02*X10712D01*
X10662D02*Y9565D01*
X10762Y9465D02*X10662Y9565D01*
X10492Y9165D02*X10242Y9415D01*
Y9565D01*
X10492D01*
X12653Y8621D02*X12803D01*
X12853Y8671D02*X12803Y8621D01*
X12853Y8671D02*Y8971D01*
X12803Y9021D01*
X12653D02*X12803D01*
X12333D02*X12533D01*
Y8821D02*Y9021D01*
Y8821D02*X12483Y8871D01*
X12383D02*X12483D01*
X12383D02*X12333Y8821D01*
Y8671D02*Y8821D01*
X12383Y8621D02*X12333Y8671D01*
X12383Y8621D02*X12483D01*
X12533Y8671D02*X12483Y8621D01*
X12013Y9021D02*X12213D01*
Y8821D02*Y9021D01*
Y8821D02*X12163Y8871D01*
X12063D02*X12163D01*
X12063D02*X12013Y8821D01*
Y8671D02*Y8821D01*
X12063Y8621D02*X12013Y8671D01*
X12063Y8621D02*X12163D01*
X12213Y8671D02*X12163Y8621D01*
X14643Y8818D02*X14763D01*
X14643D02*X14613Y8788D01*
Y8728D02*Y8788D01*
X14643Y8698D02*X14613Y8728D01*
X14643Y8698D02*X14733D01*
Y8578D02*Y8818D01*
Y8698D02*X14613Y8578D01*
X14541D02*X14391Y8728D01*
Y8818D01*
X14541D01*
X17104Y8696D02*X17194D01*
X17224Y8726D02*X17194Y8696D01*
X17224Y8726D02*Y8906D01*
X17194Y8936D01*
X17104D02*X17194D01*
X16942Y8696D02*X17002D01*
X16972D02*Y8936D01*
X17032Y8876D02*X16972Y8936D01*
X16870Y8696D02*X16750Y8816D01*
Y8906D01*
X16780Y8936D02*X16750Y8906D01*
X16780Y8936D02*X16840D01*
X16870Y8906D02*X16840Y8936D01*
X16870Y8846D02*Y8906D01*
Y8846D02*X16840Y8816D01*
X16750D02*X16840D01*
X20036Y9500D02*X20186D01*
X20236Y9550D02*X20186Y9500D01*
X20236Y9550D02*Y9850D01*
X20186Y9900D01*
X20036D02*X20186D01*
X19916Y9850D02*X19866Y9900D01*
X19766D02*X19866D01*
X19766D02*X19716Y9850D01*
Y9550D02*Y9850D01*
X19766Y9500D02*X19716Y9550D01*
X19766Y9500D02*X19866D01*
X19916Y9550D02*X19866Y9500D01*
X19716Y9700D02*X19866D01*
X19445Y9900D02*X19395Y9850D01*
X19445Y9900D02*X19545D01*
X19595Y9850D02*X19545Y9900D01*
X19595Y9550D02*Y9850D01*
Y9550D02*X19545Y9500D01*
X19445Y9700D02*X19395Y9650D01*
X19445Y9700D02*X19595D01*
X19445Y9500D02*X19545D01*
X19445D02*X19395Y9550D01*
Y9650D01*
X15785Y9684D02*X15905D01*
X15785D02*X15755Y9654D01*
Y9594D02*Y9654D01*
X15785Y9564D02*X15755Y9594D01*
X15785Y9564D02*X15875D01*
Y9444D02*Y9684D01*
Y9564D02*X15755Y9444D01*
X15683Y9474D02*X15653Y9444D01*
X15683Y9474D02*Y9534D01*
X15653Y9564D01*
X15593D02*X15653D01*
X15593D02*X15563Y9534D01*
Y9474D02*Y9534D01*
X15593Y9444D02*X15563Y9474D01*
X15593Y9444D02*X15653D01*
X15683Y9594D02*X15653Y9564D01*
X15683Y9594D02*Y9654D01*
X15653Y9684D01*
X15593D02*X15653D01*
X15593D02*X15563Y9654D01*
Y9594D02*Y9654D01*
X15593Y9564D02*X15563Y9594D01*
X17555Y10077D02*X17755D01*
X17555D02*X17505Y10027D01*
Y9927D02*Y10027D01*
X17555Y9877D02*X17505Y9927D01*
X17555Y9877D02*X17705D01*
Y9677D02*Y10077D01*
Y9877D02*X17505Y9677D01*
X17385D02*X17185Y9877D01*
Y10027D01*
X17235Y10077D02*X17185Y10027D01*
X17235Y10077D02*X17335D01*
X17385Y10027D02*X17335Y10077D01*
X17385Y9927D02*Y10027D01*
Y9927D02*X17335Y9877D01*
X17185D02*X17335D01*
X15585Y9892D02*Y9982D01*
X15615Y9862D02*X15585Y9892D01*
X15615Y9862D02*X15795D01*
X15825Y9892D01*
Y9982D01*
Y10054D02*Y10174D01*
X15705Y10054D02*X15825D01*
X15705D02*X15735Y10084D01*
Y10144D01*
X15705Y10174D01*
X15615D02*X15705D01*
X15585Y10144D02*X15615Y10174D01*
X15585Y10084D02*Y10144D01*
X15615Y10054D02*X15585Y10084D01*
X15615Y10246D02*X15585Y10276D01*
X15615Y10246D02*X15795D01*
X15825Y10276D01*
Y10336D01*
X15795Y10366D01*
X15615D02*X15795D01*
X15585Y10336D02*X15615Y10366D01*
X15585Y10276D02*Y10336D01*
X15645Y10246D02*X15765Y10366D01*
X16002Y10884D02*X16122D01*
X16002D02*X15972Y10854D01*
Y10794D02*Y10854D01*
X16002Y10764D02*X15972Y10794D01*
X16002Y10764D02*X16092D01*
Y10644D02*Y10884D01*
Y10764D02*X15972Y10644D01*
X15810D02*X15870D01*
X15840D02*Y10884D01*
X15900Y10824D02*X15840Y10884D01*
X15647Y10644D02*X15707D01*
X15677D02*Y10884D01*
X15737Y10824D02*X15677Y10884D01*
X17242Y10881D02*X17332D01*
X17362Y10911D02*X17332Y10881D01*
X17362Y10911D02*Y11091D01*
X17332Y11121D01*
X17242D02*X17332D01*
X17080Y10881D02*X17140D01*
X17110D02*Y11121D01*
X17170Y11061D02*X17110Y11121D01*
X17008Y10911D02*X16978Y10881D01*
X17008Y10911D02*Y10971D01*
X16978Y11001D01*
X16918D02*X16978D01*
X16918D02*X16888Y10971D01*
Y10911D02*Y10971D01*
X16918Y10881D02*X16888Y10911D01*
X16918Y10881D02*X16978D01*
X17008Y11031D02*X16978Y11001D01*
X17008Y11031D02*Y11091D01*
X16978Y11121D01*
X16918D02*X16978D01*
X16918D02*X16888Y11091D01*
Y11031D02*Y11091D01*
X16918Y11001D02*X16888Y11031D01*
X13461Y15051D02*X13611D01*
X13661Y15101D02*X13611Y15051D01*
X13661Y15101D02*Y15401D01*
X13611Y15451D01*
X13461D02*X13611D01*
X13341Y15401D02*X13291Y15451D01*
X13191D02*X13291D01*
X13191D02*X13141Y15401D01*
Y15101D02*Y15401D01*
X13191Y15051D02*X13141Y15101D01*
X13191Y15051D02*X13291D01*
X13341Y15101D02*X13291Y15051D01*
X13141Y15251D02*X13291D01*
X13021Y15401D02*X12971Y15451D01*
X12821D02*X12971D01*
X12821D02*X12771Y15401D01*
Y15301D02*Y15401D01*
X13021Y15051D02*X12771Y15301D01*
Y15051D02*X13021D01*
X14563Y14978D02*X14763D01*
X14563D02*X14513Y14928D01*
Y14828D02*Y14928D01*
X14563Y14778D02*X14513Y14828D01*
X14563Y14778D02*X14713D01*
Y14578D02*Y14978D01*
Y14778D02*X14513Y14578D01*
X14393Y14928D02*X14343Y14978D01*
X14193D02*X14343D01*
X14193D02*X14143Y14928D01*
Y14828D02*Y14928D01*
X14393Y14578D02*X14143Y14828D01*
Y14578D02*X14393D01*
X13873D02*X13973D01*
X13923D02*Y14978D01*
X14023Y14878D02*X13923Y14978D01*
X17929Y14899D02*X18129D01*
X17929D02*X17879Y14849D01*
Y14749D02*Y14849D01*
X17929Y14699D02*X17879Y14749D01*
X17929Y14699D02*X18079D01*
Y14499D02*Y14899D01*
Y14699D02*X17879Y14499D01*
X17759Y14849D02*X17709Y14899D01*
X17559D02*X17709D01*
X17559D02*X17509Y14849D01*
Y14749D02*Y14849D01*
X17759Y14499D02*X17509Y14749D01*
Y14499D02*X17759D01*
X17389Y14699D02*X17189Y14899D01*
X17139Y14699D02*X17389D01*
X17189Y14499D02*Y14899D01*
X19051Y15175D02*X19251D01*
X19051D02*X19001Y15125D01*
Y15025D02*Y15125D01*
X19051Y14975D02*X19001Y15025D01*
X19051Y14975D02*X19201D01*
Y14775D02*Y15175D01*
Y14975D02*X19001Y14775D01*
X18881Y15125D02*X18831Y15175D01*
X18681D02*X18831D01*
X18681D02*X18631Y15125D01*
Y15025D02*Y15125D01*
X18881Y14775D02*X18631Y15025D01*
Y14775D02*X18881D01*
X18511Y14825D02*X18461Y14775D01*
X18511Y14825D02*Y15125D01*
X18461Y15175D01*
X18361D02*X18461D01*
X18361D02*X18311Y15125D01*
Y14825D02*Y15125D01*
X18361Y14775D02*X18311Y14825D01*
X18361Y14775D02*X18461D01*
X18511Y14875D02*X18311Y15075D01*
X15706Y12873D02*X15826D01*
X15706D02*X15676Y12843D01*
Y12783D02*Y12843D01*
X15706Y12753D02*X15676Y12783D01*
X15706Y12753D02*X15796D01*
Y12633D02*Y12873D01*
Y12753D02*X15676Y12633D01*
X15514D02*X15574D01*
X15544D02*Y12873D01*
X15604Y12813D02*X15544Y12873D01*
X15442Y12843D02*X15412Y12873D01*
X15322D02*X15412D01*
X15322D02*X15292Y12843D01*
Y12783D02*Y12843D01*
X15442Y12633D02*X15292Y12783D01*
Y12633D02*X15442D01*
X14170Y13325D02*X14370D01*
X14170D02*X14120Y13275D01*
Y13175D02*Y13275D01*
X14170Y13125D02*X14120Y13175D01*
X14170Y13125D02*X14320D01*
Y12925D02*Y13325D01*
Y13125D02*X14120Y12925D01*
X13999Y13125D02*X13799Y13325D01*
X13749Y13125D02*X13999D01*
X13799Y12925D02*Y13325D01*
X13429D02*X13629D01*
Y13125D02*Y13325D01*
Y13125D02*X13579Y13175D01*
X13479D02*X13579D01*
X13479D02*X13429Y13125D01*
Y12975D02*Y13125D01*
X13479Y12925D02*X13429Y12975D01*
X13479Y12925D02*X13579D01*
X13629Y12975D02*X13579Y12925D01*
X16512Y13673D02*X16662D01*
X16712Y13723D02*X16662Y13673D01*
X16712Y13723D02*Y14023D01*
X16662Y14073D01*
X16512D02*X16662D01*
X16392Y14023D02*X16342Y14073D01*
X16242D02*X16342D01*
X16242D02*X16192Y14023D01*
Y13723D02*Y14023D01*
X16242Y13673D02*X16192Y13723D01*
X16242Y13673D02*X16342D01*
X16392Y13723D02*X16342Y13673D01*
X16192Y13873D02*X16342D01*
X15922Y13673D02*X16022D01*
X15972D02*Y14073D01*
X16072Y13973D02*X15972Y14073D01*
X18166Y11868D02*X18366D01*
X18166D02*X18116Y11818D01*
Y11718D02*Y11818D01*
X18166Y11668D02*X18116Y11718D01*
X18166Y11668D02*X18316D01*
Y11468D02*Y11868D01*
Y11668D02*X18116Y11468D01*
X17996Y11818D02*X17946Y11868D01*
X17796D02*X17946D01*
X17796D02*X17746Y11818D01*
Y11718D02*Y11818D01*
X17996Y11468D02*X17746Y11718D01*
Y11468D02*X17996D01*
X17625Y11818D02*X17575Y11868D01*
X17425D02*X17575D01*
X17425D02*X17375Y11818D01*
Y11718D02*Y11818D01*
X17625Y11468D02*X17375Y11718D01*
Y11468D02*X17625D01*
X18443Y13129D02*Y13249D01*
X18413Y13279D01*
X18353D02*X18413D01*
X18323Y13249D02*X18353Y13279D01*
X18323Y13159D02*Y13249D01*
X18203Y13159D02*X18443D01*
X18323D02*X18203Y13279D01*
X18413Y13351D02*X18443Y13381D01*
Y13471D01*
X18413Y13501D01*
X18353D02*X18413D01*
X18203Y13351D02*X18353Y13501D01*
X18203Y13351D02*Y13501D01*
X18413Y13573D02*X18443Y13603D01*
Y13663D01*
X18413Y13693D01*
X18233D02*X18413D01*
X18203Y13663D02*X18233Y13693D01*
X18203Y13603D02*Y13663D01*
X18233Y13573D02*X18203Y13603D01*
X18323D02*Y13693D01*
X15843Y15510D02*X16043D01*
X15843D02*X15793Y15460D01*
Y15360D02*Y15460D01*
X15843Y15310D02*X15793Y15360D01*
X15843Y15310D02*X15993D01*
Y15110D02*Y15510D01*
Y15310D02*X15793Y15110D01*
X15523D02*X15623D01*
X15573D02*Y15510D01*
X15673Y15410D02*X15573Y15510D01*
X15403Y15110D02*X15153Y15360D01*
Y15510D01*
X15403D01*
X12083Y15090D02*X12233D01*
X12283Y15140D02*X12233Y15090D01*
X12283Y15140D02*Y15440D01*
X12233Y15490D01*
X12083D02*X12233D01*
X11813D02*X11763Y15440D01*
X11813Y15490D02*X11913D01*
X11963Y15440D02*X11913Y15490D01*
X11963Y15140D02*Y15440D01*
Y15140D02*X11913Y15090D01*
X11813Y15290D02*X11763Y15240D01*
X11813Y15290D02*X11963D01*
X11813Y15090D02*X11913D01*
X11813D02*X11763Y15140D01*
Y15240D01*
X11443Y15490D02*X11643D01*
Y15290D02*Y15490D01*
Y15290D02*X11593Y15340D01*
X11493D02*X11593D01*
X11493D02*X11443Y15290D01*
Y15140D02*Y15290D01*
X11493Y15090D02*X11443Y15140D01*
X11493Y15090D02*X11593D01*
X11643Y15140D02*X11593Y15090D01*
X13973Y1960D02*X14123D01*
X14173Y2010D02*X14123Y1960D01*
X14173Y2010D02*Y2310D01*
X14123Y2360D01*
X13973D02*X14123D01*
X13853Y2310D02*X13803Y2360D01*
X13703D02*X13803D01*
X13703D02*X13653Y2310D01*
Y2010D02*Y2310D01*
X13703Y1960D02*X13653Y2010D01*
X13703Y1960D02*X13803D01*
X13853Y2010D02*X13803Y1960D01*
X13653Y2160D02*X13803D01*
X13333Y2360D02*X13533D01*
Y2160D02*Y2360D01*
Y2160D02*X13483Y2210D01*
X13383D02*X13483D01*
X13383D02*X13333Y2160D01*
Y2010D02*Y2160D01*
X13383Y1960D02*X13333Y2010D01*
X13383Y1960D02*X13483D01*
X13533Y2010D02*X13483Y1960D01*
X14407Y6888D02*X14527D01*
X14407D02*X14377Y6858D01*
Y6798D02*Y6858D01*
X14407Y6768D02*X14377Y6798D01*
X14407Y6768D02*X14497D01*
Y6648D02*Y6888D01*
Y6768D02*X14377Y6648D01*
X14305Y6768D02*X14185Y6888D01*
X14155Y6768D02*X14305D01*
X14185Y6648D02*Y6888D01*
X14407Y7499D02*X14527D01*
X14407D02*X14377Y7469D01*
Y7409D02*Y7469D01*
X14407Y7379D02*X14377Y7409D01*
X14407Y7379D02*X14497D01*
Y7259D02*Y7499D01*
Y7379D02*X14377Y7259D01*
X14185Y7499D02*X14305D01*
Y7379D02*Y7499D01*
Y7379D02*X14275Y7409D01*
X14215D02*X14275D01*
X14215D02*X14185Y7379D01*
Y7289D02*Y7379D01*
X14215Y7259D02*X14185Y7289D01*
X14215Y7259D02*X14275D01*
X14305Y7289D02*X14275Y7259D01*
X12496Y7196D02*X12646D01*
X12696Y7246D02*X12646Y7196D01*
X12696Y7246D02*Y7546D01*
X12646Y7596D01*
X12496D02*X12646D01*
X12376Y7396D02*X12176Y7596D01*
X12126Y7396D02*X12376D01*
X12176Y7196D02*Y7596D01*
X11856D02*X11806Y7546D01*
X11856Y7596D02*X11956D01*
X12006Y7546D02*X11956Y7596D01*
X12006Y7246D02*Y7546D01*
Y7246D02*X11956Y7196D01*
X11856Y7396D02*X11806Y7346D01*
X11856Y7396D02*X12006D01*
X11856Y7196D02*X11956D01*
X11856D02*X11806Y7246D01*
Y7346D01*
X16218Y5979D02*X16308D01*
X16338Y6009D02*X16308Y5979D01*
X16338Y6009D02*Y6189D01*
X16308Y6219D01*
X16218D02*X16308D01*
X16026D02*X16146D01*
Y6099D02*Y6219D01*
Y6099D02*X16116Y6129D01*
X16056D02*X16116D01*
X16056D02*X16026Y6099D01*
Y6009D02*Y6099D01*
X16056Y5979D02*X16026Y6009D01*
X16056Y5979D02*X16116D01*
X16146Y6009D02*X16116Y5979D01*
X15954Y6189D02*X15924Y6219D01*
X15834D02*X15924D01*
X15834D02*X15804Y6189D01*
Y6129D02*Y6189D01*
X15954Y5979D02*X15804Y6129D01*
Y5979D02*X15954D01*
X14094Y3447D02*Y3797D01*
Y3447D02*X14044Y3397D01*
X13944D02*X14044D01*
X13944D02*X13894Y3447D01*
Y3797D01*
X13624Y3397D02*X13724D01*
X13674D02*Y3797D01*
X13774Y3697D02*X13674Y3797D01*
X13354D02*X13304Y3747D01*
X13354Y3797D02*X13454D01*
X13504Y3747D02*X13454Y3797D01*
X13504Y3447D02*Y3747D01*
Y3447D02*X13454Y3397D01*
X13354Y3597D02*X13304Y3547D01*
X13354Y3597D02*X13504D01*
X13354Y3397D02*X13454D01*
X13354D02*X13304Y3447D01*
Y3547D01*
X11729Y6199D02*X11929D01*
X11729D02*X11679Y6149D01*
Y6049D02*Y6149D01*
X11729Y5999D02*X11679Y6049D01*
X11729Y5999D02*X11879D01*
Y5799D02*Y6199D01*
Y5999D02*X11679Y5799D01*
X11559Y6149D02*X11509Y6199D01*
X11409D02*X11509D01*
X11409D02*X11359Y6149D01*
Y5849D02*Y6149D01*
X11409Y5799D02*X11359Y5849D01*
X11409Y5799D02*X11509D01*
X11559Y5849D02*X11509Y5799D01*
X11359Y5999D02*X11509D01*
X11239Y5799D02*X10989Y6049D01*
Y6199D01*
X11239D01*
X15214Y12125D02*X15334D01*
X15214D02*X15184Y12095D01*
Y12035D02*Y12095D01*
X15214Y12005D02*X15184Y12035D01*
X15214Y12005D02*X15304D01*
Y11885D02*Y12125D01*
Y12005D02*X15184Y11885D01*
X15022D02*X15082D01*
X15052D02*Y12125D01*
X15112Y12065D02*X15052Y12125D01*
X14950Y11915D02*X14920Y11885D01*
X14950Y11915D02*Y12095D01*
X14920Y12125D01*
X14860D02*X14920D01*
X14860D02*X14830Y12095D01*
Y11915D02*Y12095D01*
X14860Y11885D02*X14830Y11915D01*
X14860Y11885D02*X14920D01*
X14950Y11945D02*X14830Y12065D01*
X9606Y13053D02*Y13353D01*
X9556Y13403D01*
X9456D02*X9556D01*
X9456D02*X9406Y13353D01*
Y13053D02*Y13353D01*
X9456Y13003D02*X9406Y13053D01*
X9456Y13003D02*X9556D01*
X9606Y13053D02*X9556Y13003D01*
X9506Y13103D02*X9406Y13003D01*
X9286Y13203D02*X9086Y13403D01*
X9036Y13203D02*X9286D01*
X9086Y13003D02*Y13403D01*
X12122Y13285D02*X12322D01*
X12122D02*X12072Y13235D01*
Y13135D02*Y13235D01*
X12122Y13085D02*X12072Y13135D01*
X12122Y13085D02*X12272D01*
Y12885D02*Y13285D01*
Y13085D02*X12072Y12885D01*
X11952Y13085D02*X11752Y13285D01*
X11702Y13085D02*X11952D01*
X11752Y12885D02*Y13285D01*
X11582Y13085D02*X11382Y13285D01*
X11332Y13085D02*X11582D01*
X11382Y12885D02*Y13285D01*
M02*
