M48
INCH,TZ
T11C0.020
T17C0.025
T29C0.038
T32C0.035
T59C0.021
T60C0.126
%
T11
X021850Y009803
X009488Y011062
X002165Y011614
X009114Y012381
X002086Y009488
X003610Y009405
X001732Y011141
X001102Y005393
X002126Y007440
X014527Y007874
X003385Y005236
X003385Y004685
X014763Y005393
X014330Y006259
X001771Y007007
X012716Y002362
X012716Y003503
X028779Y010039
X028031Y012047
X028700Y011614
X028621Y010984
X028346Y010433
X029803Y009133
X028307Y009527
X028090Y003720
X023444Y003031
X022106Y001515
X025255Y001437
X024665Y002874
X022893Y002126
X023405Y001102
X027539Y005413
X025866Y005413
X028425Y001181
X026456Y001456
X023129Y003464
X022263Y004626
X023996Y004389
X025728Y003346
X025236Y004251
X020885Y005098
X021752Y004940
X020866Y004586
X021732Y005476
X025098Y007992
X022519Y008228
X023307Y008228
X020216Y002086
X020157Y001141
X025393Y006043
X023779Y006063
X025216Y005236
X024094Y005728
X021358Y001377
X020196Y005433
X026181Y009409
X025905Y011496
X026063Y010000
X025275Y011023
X024409Y008858
X022716Y008740
X024252Y012244
X024311Y014783
X023858Y012755
X025787Y012992
X023267Y010433
X022795Y009645
X023228Y011141
X019744Y003110
X014763Y002519
X015590Y000590
X018503Y002185
X015610Y003602
X019803Y001535
X017440Y003484
X025255Y002401
X020039Y002598
X012598Y013897
X015314Y014724
X011476Y014153
X016968Y014763
X016318Y014488
X011889Y012480
X011692Y011988
X020019Y013031
X024252Y011338
X017047Y011417
X015157Y012421
X014015Y011574
X014976Y011496
X014960Y010905
X021318Y006594
X025393Y006791
X021830Y006574
X024626Y006161
X024448Y008307
X016929Y007874
X017047Y007165
X017047Y009291
X016929Y009881
X014803Y006732
X016055Y006885
X014803Y007283
X016141Y007795
X015039Y008759
X016023Y009055
X014862Y009251
X019960Y009114
X016496Y008267
X017952Y005078
X016082Y004232
X017165Y005314
X018917Y005334
X018799Y005826
X019350Y006318
X020157Y004389
X018464Y005059
X015866Y011889
X015669Y013622
X016417Y011889
X016968Y013582
X019409Y014803
X016141Y009925
X012480Y011456
X016063Y011338
X014842Y010275
X016299Y010472
X019330Y010314
X018031Y010118
X018543Y011358
X019429Y012047
X019035Y013129
X019035Y012578
X017401Y013149
X017992Y013051
X018858Y014566
X019960Y014527
X019940Y008484
X020535Y009901
X020968Y009602
X019921Y007401
X021220Y011929
X018818Y009271
X018818Y008858
X018110Y009173
X018110Y007952
X015551Y006141
X014803Y004881
T59
X002519Y006177
X002519Y005677
X002519Y005177
X002519Y004677
X002519Y004177
X002519Y003677
X002519Y003177
X002519Y002677
T17
X020551Y011889
X020551Y013889
T32
X012716Y014842
X014645Y013267
X004291Y009999
X008070Y009960
X006299Y010000
X003031Y007598
X010826Y007047
X006102Y007126
X008503Y007047
X004252Y005433
X011102Y005275
X001811Y008228
X008897Y005314
X011692Y003425
X010236Y004094
X012834Y004606
X006456Y005314
X005590Y003976
X007874Y004055
X003582Y002716
X029507Y005118
X029763Y003326
X023307Y015196
X025275Y013622
X024763Y012637
X023897Y010314
X015315Y001318
X012834Y012027
X012007Y014744
X020944Y013149
X021338Y014527
X016535Y005905
X015275Y002086
X017185Y002263
X018169Y002854
T29
X011023Y011968
X011023Y014968
X010118Y014960
X010118Y011960
X016102Y013110
X013102Y013110
X030236Y008149
X030236Y007149
X029236Y008149
X029236Y007149
X028236Y008149
X028236Y007149
X027236Y008149
X027236Y007149
X027244Y006220
X028228Y006220
X026236Y008149
X026236Y007149
T60
X006889Y014763
X000984Y014763
X000984Y000984
X030511Y014763
X030511Y000984
X008858Y000984
M30
