G04 start of page 7 for group -4079 idx -4079
G04 Title: stribog.bis, topsilk *
G04 Creator: pcb 20080202 *
G04 CreationDate: Sun Nov 29 16:50:14 2009 UTC *
G04 For: dti *
G04 Format: Gerber/RS-274X *
G04 PCB-Dimensions: 314960 157480 *
G04 PCB-Coordinate-Origin: lower left *
%MOIN*%
%FSLAX24Y24*%
%LNFRONTSILK*%
%ADD13C,0.0100*%
%ADD61C,0.0060*%
%ADD62C,0.0150*%
%ADD63C,0.0059*%
G54D13*X19929Y10220D02*X23579D01*
Y6290D01*
X19649D01*
Y9940D01*
X19929Y10220D01*
X19899Y9870D02*G75*G03X19899Y9870I100J0D01*G01*
G54D61*X23044Y10911D02*X23884D01*
X23044Y11451D02*Y10911D01*
Y11451D02*X23884D01*
Y10911D01*
G54D13*X16698Y12435D02*X17998D01*
X18498D02*X19798D01*
X16698Y14335D02*Y12435D01*
Y14335D02*X19798D01*
Y12435D01*
X18498D02*G75*G03X17998Y12435I-250J0D01*G01*
X20051Y13889D02*Y11889D01*
X21051Y13889D02*Y11889D01*
X20051D02*G75*G03X21051Y11889I500J0D01*G01*
Y13889D02*G75*G03X20051Y13889I-500J0D01*G01*
G54D61*X21685Y14218D02*X21962D01*
X21824D02*X21962Y13978D01*
X21824Y14218D02*X21685Y13978D01*
X21824Y14228D02*Y13968D01*
X21685Y13978D02*X21962D01*
G54D13*X21414Y13248D02*X22234D01*
Y14958D02*Y13248D01*
X21414Y14958D02*X22234D01*
X21414Y13248D02*Y14958D01*
G54D61*X22585Y14218D02*X22862D01*
X22724D02*X22862Y13978D01*
X22724Y14218D02*X22585Y13978D01*
X22724Y14228D02*Y13968D01*
X22585Y13978D02*X22862D01*
G54D13*X22314Y13248D02*X23134D01*
Y14958D02*Y13248D01*
X22314Y14958D02*X23134D01*
X22314Y13248D02*Y14958D01*
G54D61*X21541Y12257D02*X22081D01*
Y13097D02*Y12257D01*
X21541Y13097D02*X22081D01*
X21541D02*Y12257D01*
G54D13*X23737Y14129D02*X24917D01*
X23737Y15519D02*Y14129D01*
Y15519D02*X24917D01*
Y14129D01*
G54D61*X14632Y11895D02*X13792D01*
X14632Y12435D02*Y11895D01*
X13792Y12435D02*X14632D01*
X13792Y11895D02*Y12435D01*
G54D13*X24452Y13390D02*X23272D01*
X24452Y12000D02*Y13390D01*
X23272Y12000D02*X24452D01*
X23272Y13390D02*Y12000D01*
G54D61*X22249Y11548D02*X22789D01*
Y12388D02*Y11548D01*
X22249Y12388D02*X22789D01*
X22249D02*Y11548D01*
G54D13*X20787Y2334D02*Y2224D01*
X20897D01*
X22362Y4192D02*Y4082D01*
X22252Y4192D02*X22362D01*
X20787D02*Y4082D01*
Y4192D02*X20897D01*
X22252Y2224D02*X22362D01*
Y2334D02*Y2224D01*
X20787Y1844D02*G75*G03X20787Y1844I0J80D01*G01*
X14684Y2536D02*X15684D01*
X13434D02*X14444D01*
X13434Y3676D02*Y2536D01*
Y3676D02*X15684D01*
Y2536D01*
X14684D02*G75*G03X14444Y2536I-120J0D01*G01*
X19173Y4271D02*Y4038D01*
X18940Y4271D02*X19173D01*
X16417Y1748D02*Y1515D01*
X16650D01*
X16417Y4271D02*X16650D01*
X16417D02*Y4038D01*
X19173Y1748D02*Y1515D01*
X18940D02*X19173D01*
Y4651D02*G75*G03X19173Y4651I0J-80D01*G01*
X29136Y6088D02*Y4808D01*
Y6088D02*X30526D01*
Y4808D01*
X29136D02*X30526D01*
X27728Y6220D02*G75*G03X27728Y6220I500J0D01*G01*
G54D62*X30206Y8949D02*X30286D01*
X30206D02*Y8789D01*
X30286D01*
Y8949D02*Y8789D01*
X30686Y8599D02*Y6699D01*
X25786D02*X30686D01*
X25786Y8599D02*Y6699D01*
Y8599D02*X30686D01*
G54D13*X25497Y9309D02*X26797D01*
X27297D02*X28597D01*
X25497Y13209D02*Y9309D01*
Y13209D02*X28597D01*
Y9309D01*
X27297D02*G75*G03X26797Y9309I-250J0D01*G01*
X26744Y6220D02*G75*G03X26744Y6220I500J0D01*G01*
G54D61*X25545Y6337D02*Y5237D01*
X24965Y6337D02*Y5237D01*
X25545D01*
X24965Y6337D02*X25545D01*
G54D13*X28858Y4487D02*Y4224D01*
X28644Y4487D02*X28858D01*
X25905D02*X26120D01*
X25905D02*Y4224D01*
Y2755D02*X26120D01*
X25905Y3018D02*Y2755D01*
X28644D02*X28858D01*
Y3018D02*Y2755D01*
Y4795D02*G75*G03X28858Y4795I0J-80D01*G01*
G54D61*X25406Y1687D02*X26246D01*
Y1147D01*
X25406D02*X26246D01*
X25406Y1687D02*Y1147D01*
X24738Y5018D02*Y3918D01*
X24158Y5018D02*Y3918D01*
X24738D01*
X24158Y5018D02*X24738D01*
X24808Y7198D02*X25348D01*
Y8038D02*Y7198D01*
X24808Y8038D02*X25348D01*
X24808D02*Y7198D01*
G54D13*X17888Y10044D02*X16588D01*
X14788D02*X16088D01*
X17888Y8144D02*Y10044D01*
X14788Y8144D02*X17888D01*
X14788Y10044D02*Y8144D01*
X16088Y10044D02*G75*G03X16588Y10044I250J0D01*G01*
X17888Y7918D02*X16588D01*
X14788D02*X16088D01*
X17888Y6018D02*Y7918D01*
X14788Y6018D02*X17888D01*
X14788Y7918D02*Y6018D01*
X16088Y7918D02*G75*G03X16588Y7918I250J0D01*G01*
G54D61*X26713Y1245D02*X27813D01*
X26713Y1825D02*X27813D01*
X26713D02*Y1245D01*
X27813Y1825D02*Y1245D01*
X24198Y3699D02*Y2599D01*
X24778Y3699D02*Y2599D01*
X24198Y3699D02*X24778D01*
X24198Y2599D02*X24778D01*
G54D13*X23653Y2338D02*X25043D01*
X23653D02*Y1158D01*
X25043D01*
Y2338D02*Y1158D01*
X12982Y11198D02*Y10298D01*
X14182D01*
Y11198D01*
X12982D01*
X13218Y10253D02*Y9353D01*
X14418D01*
Y10253D01*
X13218D01*
G54D61*X11627Y10871D02*X12467D01*
Y11411D02*Y10871D01*
X11627Y11411D02*X12467D01*
X11627D02*Y10871D01*
G54D13*X3019Y6677D02*Y2177D01*
X2019Y6677D02*Y2177D01*
X3019D01*
X2019Y6677D02*X3019D01*
X1363Y6750D02*X2663D01*
X3163D02*X4463D01*
X1363Y10650D02*Y6750D01*
Y10650D02*X4463D01*
Y6750D01*
X3163D02*G75*G03X2663Y6750I-250J0D01*G01*
X12943Y9229D02*Y8329D01*
X14143D01*
Y9229D01*
X12943D01*
X17849Y12170D02*X16549D01*
X14749D02*X16049D01*
X17849Y10270D02*Y12170D01*
X14749Y10270D02*X17849D01*
X14749Y12170D02*Y10270D01*
X16049Y12170D02*G75*G03X16549Y12170I250J0D01*G01*
X12903Y8245D02*Y7345D01*
X14103D01*
Y8245D01*
X12903D01*
X12549Y7261D02*Y6361D01*
X13749D01*
Y7261D01*
X12549D01*
G54D61*X16096Y1522D02*Y682D01*
X15556D02*X16096D01*
X15556Y1522D02*Y682D01*
Y1522D02*X16096D01*
X13950Y950D02*X14790D01*
X13950Y1490D02*Y950D01*
Y1490D02*X14790D01*
Y950D01*
X13076Y1443D02*Y603D01*
Y1443D02*X13616D01*
Y603D01*
X13076D02*X13616D01*
G54D13*X14209Y4247D02*X15389D01*
X14209Y5637D02*Y4247D01*
Y5637D02*X15389D01*
Y4247D01*
G54D61*X12926Y4876D02*Y4336D01*
X13766D01*
Y4876D02*Y4336D01*
X12926Y4876D02*X13766D01*
G54D13*X12628Y6079D02*Y5179D01*
X13828D01*
Y6079D01*
X12628D01*
G54D61*X12099Y1411D02*X12939D01*
Y871D01*
X12099D02*X12939D01*
X12099Y1411D02*Y871D01*
Y2041D02*X12939D01*
Y1501D01*
X12099D02*X12939D01*
X12099Y2041D02*Y1501D01*
G54D13*X12977Y13498D02*X14277D01*
X14777D02*X16077D01*
X12977Y15398D02*Y13498D01*
Y15398D02*X16077D01*
Y13498D01*
X14777D02*G75*G03X14277Y13498I-250J0D01*G01*
X13602Y13110D02*X14002D01*
Y13510D02*X15202D01*
X14002D02*Y12710D01*
X15202D01*
Y13510D02*Y12710D01*
Y13110D02*X15602D01*
X10118Y12860D02*Y12460D01*
X9718Y14060D02*Y12860D01*
X10518D01*
Y14060D02*Y12860D01*
X9718Y14060D02*X10518D01*
X10118Y14460D02*Y14060D01*
X11023Y14468D02*Y14068D01*
X11423D02*Y12868D01*
X10623Y14068D02*X11423D01*
X10623D02*Y12868D01*
X11423D01*
X11023D02*Y12468D01*
G54D63*X24724Y8581D02*X24924D01*
X24974Y8531D01*
Y8431D01*
X24924Y8381D02*X24974Y8431D01*
X24774Y8381D02*X24924D01*
X24774Y8581D02*Y8181D01*
Y8381D02*X24974Y8181D01*
X25094Y8531D02*X25144Y8581D01*
X25244D01*
X25294Y8531D01*
Y8231D01*
X25244Y8181D02*X25294Y8231D01*
X25144Y8181D02*X25244D01*
X25094Y8231D02*X25144Y8181D01*
Y8381D02*X25294D01*
X25564Y8581D02*X25614Y8531D01*
X25464Y8581D02*X25564D01*
X25414Y8531D02*X25464Y8581D01*
X25414Y8531D02*Y8231D01*
X25464Y8181D01*
X25564Y8381D02*X25614Y8331D01*
X25414Y8381D02*X25564D01*
X25464Y8181D02*X25564D01*
X25614Y8231D01*
Y8331D02*Y8231D01*
X30019Y9663D02*X30199D01*
Y9243D01*
X30139Y9183D02*X30199Y9243D01*
X30079Y9183D02*X30139D01*
X30019Y9243D02*X30079Y9183D01*
X30403D02*X30523D01*
X30463Y9663D02*Y9183D01*
X30343Y9543D02*X30463Y9663D01*
X20925Y15510D02*Y15110D01*
X21175Y15510D02*Y15110D01*
X20925Y15310D02*X21175D01*
X21295Y15510D02*Y15110D01*
X21495D01*
X21615Y15460D02*X21665Y15510D01*
X21815D01*
X21865Y15460D01*
Y15360D01*
X21615Y15110D02*X21865Y15360D01*
X21615Y15110D02*X21865D01*
X22224Y15510D02*Y15110D01*
X22474Y15510D02*Y15110D01*
X22224Y15310D02*X22474D01*
X22594Y15510D02*Y15110D01*
X22794D01*
X22964D02*X23064D01*
X23014Y15510D02*Y15110D01*
X22914Y15410D02*X23014Y15510D01*
X16220Y15490D02*Y15140D01*
X16270Y15090D01*
X16370D01*
X16420Y15140D01*
Y15490D02*Y15140D01*
X16590Y15090D02*X16690D01*
X16640Y15490D02*Y15090D01*
X16540Y15390D02*X16640Y15490D01*
X16810Y15140D02*X16860Y15090D01*
X16810Y15440D02*Y15140D01*
Y15440D02*X16860Y15490D01*
X16960D01*
X17010Y15440D01*
Y15140D01*
X16960Y15090D02*X17010Y15140D01*
X16860Y15090D02*X16960D01*
X16810Y15190D02*X17010Y15390D01*
X25078Y15530D02*Y15180D01*
X25128Y15130D01*
X25228D01*
X25278Y15180D01*
Y15530D02*Y15180D01*
X25448Y15130D02*X25548D01*
X25498Y15530D02*Y15130D01*
X25398Y15430D02*X25498Y15530D01*
X25668Y15480D02*X25718Y15530D01*
X25818D01*
X25868Y15480D01*
Y15180D01*
X25818Y15130D02*X25868Y15180D01*
X25718Y15130D02*X25818D01*
X25668Y15180D02*X25718Y15130D01*
Y15330D02*X25868D01*
X19153Y11770D02*X19403D01*
Y11720D01*
X19153Y11470D02*X19403Y11720D01*
X19153Y11470D02*Y11370D01*
X19403D01*
X19523Y11720D02*Y11420D01*
Y11720D02*X19573Y11770D01*
X19673D01*
X19723Y11720D01*
Y11420D01*
X19673Y11370D02*X19723Y11420D01*
X19573Y11370D02*X19673D01*
X19523Y11420D02*X19573Y11370D01*
X19623Y11470D02*X19723Y11370D01*
X19893D02*X19993D01*
X19943Y11770D02*Y11370D01*
X19843Y11670D02*X19943Y11770D01*
X22204Y13010D02*X22324D01*
X22354Y12980D01*
Y12920D01*
X22324Y12890D02*X22354Y12920D01*
X22234Y12890D02*X22324D01*
X22234Y13010D02*Y12770D01*
Y12890D02*X22354Y12770D01*
X22426Y12980D02*X22456Y13010D01*
X22516D01*
X22546Y12980D01*
Y12800D01*
X22516Y12770D02*X22546Y12800D01*
X22456Y12770D02*X22516D01*
X22426Y12800D02*X22456Y12770D01*
Y12890D02*X22546D01*
X22618Y12770D02*X22738Y12890D01*
Y12980D02*Y12890D01*
X22708Y13010D02*X22738Y12980D01*
X22648Y13010D02*X22708D01*
X22618Y12980D02*X22648Y13010D01*
X22618Y12980D02*Y12920D01*
X22648Y12890D01*
X22738D01*
X21752Y11416D02*X21872D01*
X21902Y11386D01*
Y11326D01*
X21872Y11296D02*X21902Y11326D01*
X21782Y11296D02*X21872D01*
X21782Y11416D02*Y11176D01*
Y11296D02*X21902Y11176D01*
X21974Y11386D02*X22004Y11416D01*
X22064D01*
X22094Y11386D01*
Y11206D01*
X22064Y11176D02*X22094Y11206D01*
X22004Y11176D02*X22064D01*
X21974Y11206D02*X22004Y11176D01*
Y11296D02*X22094D01*
X22166Y11206D02*X22196Y11176D01*
X22166Y11266D02*Y11206D01*
Y11266D02*X22196Y11296D01*
X22256D01*
X22286Y11266D01*
Y11206D01*
X22256Y11176D02*X22286Y11206D01*
X22196Y11176D02*X22256D01*
X22166Y11326D02*X22196Y11296D01*
X22166Y11386D02*Y11326D01*
Y11386D02*X22196Y11416D01*
X22256D01*
X22286Y11386D01*
Y11326D01*
X22256Y11296D02*X22286Y11326D01*
X23917Y11907D02*Y11557D01*
X23967Y11507D01*
X24067D01*
X24117Y11557D01*
Y11907D02*Y11557D01*
X24287Y11507D02*X24387D01*
X24337Y11907D02*Y11507D01*
X24237Y11807D02*X24337Y11907D01*
X24507Y11707D02*X24707Y11907D01*
X24507Y11707D02*X24757D01*
X24707Y11907D02*Y11507D01*
X24065Y10602D02*X24215D01*
X24015Y10652D02*X24065Y10602D01*
X24015Y10952D02*Y10652D01*
Y10952D02*X24065Y11002D01*
X24215D01*
X24335Y10802D02*X24535Y11002D01*
X24335Y10802D02*X24585D01*
X24535Y11002D02*Y10602D01*
X24706Y10652D02*X24756Y10602D01*
X24706Y10952D02*Y10652D01*
Y10952D02*X24756Y11002D01*
X24856D01*
X24906Y10952D01*
Y10652D01*
X24856Y10602D02*X24906Y10652D01*
X24756Y10602D02*X24856D01*
X24706Y10702D02*X24906Y10902D01*
X27834Y13876D02*Y13526D01*
X27884Y13476D01*
X27984D01*
X28034Y13526D01*
Y13876D02*Y13526D01*
X28154D02*X28204Y13476D01*
X28154Y13626D02*Y13526D01*
Y13626D02*X28204Y13676D01*
X28304D01*
X28354Y13626D01*
Y13526D01*
X28304Y13476D02*X28354Y13526D01*
X28204Y13476D02*X28304D01*
X28154Y13726D02*X28204Y13676D01*
X28154Y13826D02*Y13726D01*
Y13826D02*X28204Y13876D01*
X28304D01*
X28354Y13826D01*
Y13726D01*
X28304Y13676D02*X28354Y13726D01*
X23484Y4999D02*X23604D01*
X23634Y4969D01*
Y4909D01*
X23604Y4879D02*X23634Y4909D01*
X23514Y4879D02*X23604D01*
X23514Y4999D02*Y4759D01*
Y4879D02*X23634Y4759D01*
X23706Y4879D02*X23826Y4999D01*
X23706Y4879D02*X23856D01*
X23826Y4999D02*Y4759D01*
X23928Y4969D02*X23958Y4999D01*
X24018D01*
X24048Y4969D01*
Y4789D01*
X24018Y4759D02*X24048Y4789D01*
X23958Y4759D02*X24018D01*
X23928Y4789D02*X23958Y4759D01*
Y4879D02*X24048D01*
X22559Y4742D02*Y4392D01*
X22609Y4342D01*
X22709D01*
X22759Y4392D01*
Y4742D02*Y4392D01*
X22879Y4692D02*X22929Y4742D01*
X23079D01*
X23129Y4692D01*
Y4592D01*
X22879Y4342D02*X23129Y4592D01*
X22879Y4342D02*X23129D01*
X23249Y4392D02*X23299Y4342D01*
X23249Y4692D02*Y4392D01*
Y4692D02*X23299Y4742D01*
X23399D01*
X23449Y4692D01*
Y4392D01*
X23399Y4342D02*X23449Y4392D01*
X23299Y4342D02*X23399D01*
X23249Y4442D02*X23449Y4642D01*
X30148Y4565D02*Y4165D01*
X30298Y4565D02*X30348Y4515D01*
Y4215D01*
X30298Y4165D02*X30348Y4215D01*
X30098Y4165D02*X30298D01*
X30098Y4565D02*X30298D01*
X30518Y4165D02*X30618D01*
X30568Y4565D02*Y4165D01*
X30468Y4465D02*X30568Y4565D01*
X28681Y2577D02*Y2227D01*
X28731Y2177D01*
X28831D01*
X28881Y2227D01*
Y2577D02*Y2227D01*
X29001Y2377D02*X29201Y2577D01*
X29001Y2377D02*X29251D01*
X29201Y2577D02*Y2177D01*
X26417Y5648D02*X26617D01*
X26667Y5598D01*
Y5498D01*
X26617Y5448D02*X26667Y5498D01*
X26467Y5448D02*X26617D01*
X26467Y5648D02*Y5248D01*
Y5448D02*X26667Y5248D01*
X26787Y5648D02*Y5598D01*
X27037Y5348D01*
Y5248D01*
X26787Y5348D02*Y5248D01*
Y5348D02*X27037Y5598D01*
Y5648D02*Y5598D01*
X28051Y5608D02*X28251D01*
X28151D02*Y5208D01*
X28371Y5608D02*Y5558D01*
X28621Y5308D01*
Y5208D01*
X28371Y5308D02*Y5208D01*
Y5308D02*X28621Y5558D01*
Y5608D02*Y5558D01*
X25581Y523D02*X25731D01*
X25531Y573D02*X25581Y523D01*
X25531Y873D02*Y573D01*
Y873D02*X25581Y923D01*
X25731D01*
X25851Y873D02*X25901Y923D01*
X26001D01*
X26051Y873D01*
Y573D01*
X26001Y523D02*X26051Y573D01*
X25901Y523D02*X26001D01*
X25851Y573D02*X25901Y523D01*
Y723D02*X26051D01*
X26171Y573D02*X26221Y523D01*
X26171Y873D02*Y573D01*
Y873D02*X26221Y923D01*
X26321D01*
X26371Y873D01*
Y573D01*
X26321Y523D02*X26371Y573D01*
X26221Y523D02*X26321D01*
X26171Y623D02*X26371Y823D01*
X27136Y759D02*X27286D01*
X27086Y809D02*X27136Y759D01*
X27086Y1109D02*Y809D01*
Y1109D02*X27136Y1159D01*
X27286D01*
X27406Y959D02*X27606Y1159D01*
X27406Y959D02*X27656D01*
X27606Y1159D02*Y759D01*
X27776Y1159D02*X27976D01*
X27776D02*Y959D01*
X27826Y1009D01*
X27926D01*
X27976Y959D01*
Y809D01*
X27926Y759D02*X27976Y809D01*
X27826Y759D02*X27926D01*
X27776Y809D02*X27826Y759D01*
X23838Y1022D02*Y672D01*
X23888Y622D01*
X23988D01*
X24038Y672D01*
Y1022D02*Y672D01*
X24208Y622D02*X24308D01*
X24258Y1022D02*Y622D01*
X24158Y922D02*X24258Y1022D01*
X24428Y972D02*X24478Y1022D01*
X24628D01*
X24678Y972D01*
Y872D01*
X24428Y622D02*X24678Y872D01*
X24428Y622D02*X24678D01*
X18937Y5155D02*Y4805D01*
X18987Y4755D01*
X19087D01*
X19137Y4805D01*
Y5155D02*Y4805D01*
X19307Y4755D02*X19407D01*
X19357Y5155D02*Y4755D01*
X19257Y5055D02*X19357Y5155D01*
X19527Y4755D02*X19727Y4955D01*
Y5105D02*Y4955D01*
X19677Y5155D02*X19727Y5105D01*
X19577Y5155D02*X19677D01*
X19527Y5105D02*X19577Y5155D01*
X19527Y5105D02*Y5005D01*
X19577Y4955D01*
X19727D01*
X25679Y5979D02*X25769D01*
X25649Y6009D02*X25679Y5979D01*
X25649Y6189D02*Y6009D01*
Y6189D02*X25679Y6219D01*
X25769D01*
X25841Y6099D02*X25961Y6219D01*
X25841Y6099D02*X25991D01*
X25961Y6219D02*Y5979D01*
X26063D02*X26213Y6129D01*
Y6219D02*Y6129D01*
X26063Y6219D02*X26213D01*
X23405Y3591D02*X23545D01*
X23580Y3556D01*
Y3486D01*
X23545Y3451D02*X23580Y3486D01*
X23440Y3451D02*X23545D01*
X23440Y3591D02*Y3311D01*
Y3451D02*X23580Y3311D01*
X23664Y3451D02*X23804Y3591D01*
X23664Y3451D02*X23839D01*
X23804Y3591D02*Y3311D01*
X23923Y3556D02*X23958Y3591D01*
X24063D01*
X24098Y3556D01*
Y3486D01*
X23923Y3311D02*X24098Y3486D01*
X23923Y3311D02*X24098D01*
X16220Y844D02*X16420D01*
X16470Y794D01*
Y694D01*
X16420Y644D02*X16470Y694D01*
X16270Y644D02*X16420D01*
X16270Y844D02*Y444D01*
Y644D02*X16470Y444D01*
X16590Y794D02*X16640Y844D01*
X16740D01*
X16790Y794D01*
Y494D01*
X16740Y444D02*X16790Y494D01*
X16640Y444D02*X16740D01*
X16590Y494D02*X16640Y444D01*
Y644D02*X16790D01*
X16910Y494D02*X16960Y444D01*
X16910Y794D02*Y494D01*
Y794D02*X16960Y844D01*
X17060D01*
X17110Y794D01*
Y494D01*
X17060Y444D02*X17110Y494D01*
X16960Y444D02*X17060D01*
X16910Y544D02*X17110Y744D01*
X15511Y4978D02*Y4628D01*
X15561Y4578D01*
X15661D01*
X15711Y4628D01*
Y4978D02*Y4628D01*
X15881Y4578D02*X15981D01*
X15931Y4978D02*Y4578D01*
X15831Y4878D02*X15931Y4978D01*
X16102D02*X16302D01*
X16102D02*Y4778D01*
X16152Y4828D01*
X16252D01*
X16302Y4778D01*
Y4628D01*
X16252Y4578D02*X16302Y4628D01*
X16152Y4578D02*X16252D01*
X16102Y4628D02*X16152Y4578D01*
X14252Y844D02*X14452D01*
X14502Y794D01*
Y694D01*
X14452Y644D02*X14502Y694D01*
X14302Y644D02*X14452D01*
X14302Y844D02*Y444D01*
Y644D02*X14502Y444D01*
X14622Y794D02*X14672Y844D01*
X14772D01*
X14822Y794D01*
Y494D01*
X14772Y444D02*X14822Y494D01*
X14672Y444D02*X14772D01*
X14622Y494D02*X14672Y444D01*
Y644D02*X14822D01*
X14992Y444D02*X15092D01*
X15042Y844D02*Y444D01*
X14942Y744D02*X15042Y844D01*
X13199Y90D02*X13349D01*
X13149Y140D02*X13199Y90D01*
X13149Y440D02*Y140D01*
Y440D02*X13199Y490D01*
X13349D01*
X13469Y90D02*X13719Y340D01*
Y490D02*Y340D01*
X13469Y490D02*X13719D01*
X17992Y6671D02*Y6321D01*
X18042Y6271D01*
X18142D01*
X18192Y6321D01*
Y6671D02*Y6321D01*
X18312Y6671D02*X18512D01*
X18312D02*Y6471D01*
X18362Y6521D01*
X18462D01*
X18512Y6471D01*
Y6321D01*
X18462Y6271D02*X18512Y6321D01*
X18362Y6271D02*X18462D01*
X18312Y6321D02*X18362Y6271D01*
X12411Y10251D02*X12501D01*
X12381Y10281D02*X12411Y10251D01*
X12381Y10461D02*Y10281D01*
Y10461D02*X12411Y10491D01*
X12501D01*
X12603Y10251D02*X12663D01*
X12633Y10491D02*Y10251D01*
X12573Y10431D02*X12633Y10491D01*
X12826D02*X12856Y10461D01*
X12766Y10491D02*X12826D01*
X12736Y10461D02*X12766Y10491D01*
X12736Y10461D02*Y10281D01*
X12766Y10251D01*
X12826Y10371D02*X12856Y10341D01*
X12736Y10371D02*X12826D01*
X12766Y10251D02*X12826D01*
X12856Y10281D01*
Y10341D02*Y10281D01*
X3622Y11356D02*Y11006D01*
X3672Y10956D01*
X3772D01*
X3822Y11006D01*
Y11356D02*Y11006D01*
X3942Y11306D02*X3992Y11356D01*
X4142D01*
X4192Y11306D01*
Y11206D01*
X3942Y10956D02*X4192Y11206D01*
X3942Y10956D02*X4192D01*
X11900Y8436D02*X12050D01*
X11850Y8486D02*X11900Y8436D01*
X11850Y8786D02*Y8486D01*
Y8786D02*X11900Y8836D01*
X12050D01*
X12220Y8436D02*X12320D01*
X12270Y8836D02*Y8436D01*
X12170Y8736D02*X12270Y8836D01*
X12440Y8636D02*X12640Y8836D01*
X12440Y8636D02*X12690D01*
X12640Y8836D02*Y8436D01*
X12608Y9601D02*X12698D01*
X12578Y9631D02*X12608Y9601D01*
X12578Y9811D02*Y9631D01*
Y9811D02*X12608Y9841D01*
X12698D01*
X12800Y9601D02*X12860D01*
X12830Y9841D02*Y9601D01*
X12770Y9781D02*X12830Y9841D01*
X12932D02*X13052D01*
X12932D02*Y9721D01*
X12962Y9751D01*
X13022D01*
X13052Y9721D01*
Y9631D01*
X13022Y9601D02*X13052Y9631D01*
X12962Y9601D02*X13022D01*
X12932Y9631D02*X12962Y9601D01*
X17992Y8797D02*Y8447D01*
X18042Y8397D01*
X18142D01*
X18192Y8447D01*
Y8797D02*Y8447D01*
X18462Y8797D02*X18512Y8747D01*
X18362Y8797D02*X18462D01*
X18312Y8747D02*X18362Y8797D01*
X18312Y8747D02*Y8447D01*
X18362Y8397D01*
X18462Y8597D02*X18512Y8547D01*
X18312Y8597D02*X18462D01*
X18362Y8397D02*X18462D01*
X18512Y8447D01*
Y8547D02*Y8447D01*
X17992Y10884D02*Y10534D01*
X18042Y10484D01*
X18142D01*
X18192Y10534D01*
Y10884D02*Y10534D01*
X18312Y10484D02*X18562Y10734D01*
Y10884D02*Y10734D01*
X18312Y10884D02*X18562D01*
X19370Y10923D02*Y10573D01*
X19420Y10523D01*
X19520D01*
X19570Y10573D01*
Y10923D02*Y10573D01*
X19740Y10523D02*X19840D01*
X19790Y10923D02*Y10523D01*
X19690Y10823D02*X19790Y10923D01*
X17539Y14978D02*Y14628D01*
X17589Y14578D01*
X17689D01*
X17739Y14628D01*
Y14978D02*Y14628D01*
X17909Y14578D02*X18009D01*
X17959Y14978D02*Y14578D01*
X17859Y14878D02*X17959Y14978D01*
X18179Y14578D02*X18279D01*
X18229Y14978D02*Y14578D01*
X18129Y14878D02*X18229Y14978D01*
X15473Y12501D02*Y12381D01*
Y12501D02*X15503Y12531D01*
X15563D01*
X15593Y12501D02*X15563Y12531D01*
X15593Y12501D02*Y12411D01*
X15473D02*X15713D01*
X15593D02*X15713Y12531D01*
X15503Y12603D02*X15473Y12633D01*
Y12723D02*Y12633D01*
Y12723D02*X15503Y12753D01*
X15563D01*
X15713Y12603D02*X15563Y12753D01*
X15713D02*Y12603D01*
Y12825D02*X15593Y12945D01*
X15503D02*X15593D01*
X15473Y12915D02*X15503Y12945D01*
X15473Y12915D02*Y12855D01*
X15503Y12825D02*X15473Y12855D01*
X15503Y12825D02*X15563D01*
X15593Y12855D01*
Y12945D02*Y12855D01*
X3287Y2222D02*Y1802D01*
X3347Y1742D01*
X3467D01*
X3527Y1802D01*
Y2222D02*Y1802D01*
X3671Y2162D02*X3731Y2222D01*
X3851D01*
X3911Y2162D01*
Y1802D01*
X3851Y1742D02*X3911Y1802D01*
X3731Y1742D02*X3851D01*
X3671Y1802D02*X3731Y1742D01*
Y1982D02*X3911D01*
X11939Y7531D02*X12089D01*
X11889Y7581D02*X11939Y7531D01*
X11889Y7881D02*Y7581D01*
Y7881D02*X11939Y7931D01*
X12089D01*
X12259Y7531D02*X12359D01*
X12309Y7931D02*Y7531D01*
X12209Y7831D02*X12309Y7931D01*
X12479Y7881D02*X12529Y7931D01*
X12629D01*
X12679Y7881D01*
Y7581D01*
X12629Y7531D02*X12679Y7581D01*
X12529Y7531D02*X12629D01*
X12479Y7581D02*X12529Y7531D01*
Y7731D02*X12679D01*
X11546Y6586D02*X11696D01*
X11496Y6636D02*X11546Y6586D01*
X11496Y6936D02*Y6636D01*
Y6936D02*X11546Y6986D01*
X11696D01*
X11866Y6586D02*X11966D01*
X11916Y6986D02*Y6586D01*
X11816Y6886D02*X11916Y6986D01*
X12086Y6936D02*X12136Y6986D01*
X12286D01*
X12336Y6936D01*
Y6836D01*
X12086Y6586D02*X12336Y6836D01*
X12086Y6586D02*X12336D01*
X12510Y4011D02*X12600D01*
X12480Y4041D02*X12510Y4011D01*
X12480Y4221D02*Y4041D01*
Y4221D02*X12510Y4251D01*
X12600D01*
X12702Y4011D02*X12762D01*
X12732Y4251D02*Y4011D01*
X12672Y4191D02*X12732Y4251D01*
X12834Y4011D02*X12984Y4161D01*
Y4251D02*Y4161D01*
X12834Y4251D02*X12984D01*
X11664Y5563D02*X11814D01*
X11614Y5613D02*X11664Y5563D01*
X11614Y5913D02*Y5613D01*
Y5913D02*X11664Y5963D01*
X11814D01*
X11984Y5563D02*X12084D01*
X12034Y5963D02*Y5563D01*
X11934Y5863D02*X12034Y5963D01*
X12254Y5563D02*X12354D01*
X12304Y5963D02*Y5563D01*
X12204Y5863D02*X12304Y5963D01*
X13779Y2369D02*Y2069D01*
Y2369D02*X13829Y2419D01*
X13929D01*
X13979Y2369D01*
Y2069D01*
X13929Y2019D02*X13979Y2069D01*
X13829Y2019D02*X13929D01*
X13779Y2069D02*X13829Y2019D01*
X13879Y2119D02*X13979Y2019D01*
X14099Y2369D02*X14149Y2419D01*
X14299D01*
X14349Y2369D01*
Y2269D01*
X14099Y2019D02*X14349Y2269D01*
X14099Y2019D02*X14349D01*
X11979Y2177D02*X12129D01*
X11929Y2227D02*X11979Y2177D01*
X11929Y2527D02*Y2227D01*
Y2527D02*X11979Y2577D01*
X12129D01*
X12399D02*X12449Y2527D01*
X12299Y2577D02*X12399D01*
X12249Y2527D02*X12299Y2577D01*
X12249Y2527D02*Y2227D01*
X12299Y2177D01*
X12399Y2377D02*X12449Y2327D01*
X12249Y2377D02*X12399D01*
X12299Y2177D02*X12399D01*
X12449Y2227D01*
Y2327D02*Y2227D01*
X11506Y917D02*X11656D01*
X11456Y967D02*X11506Y917D01*
X11456Y1267D02*Y967D01*
Y1267D02*X11506Y1317D01*
X11656D01*
X11776Y967D02*X11826Y917D01*
X11776Y1067D02*Y967D01*
Y1067D02*X11826Y1117D01*
X11926D01*
X11976Y1067D01*
Y967D01*
X11926Y917D02*X11976Y967D01*
X11826Y917D02*X11926D01*
X11776Y1167D02*X11826Y1117D01*
X11776Y1267D02*Y1167D01*
Y1267D02*X11826Y1317D01*
X11926D01*
X11976Y1267D01*
Y1167D01*
X11926Y1117D02*X11976Y1167D01*
X10601Y10917D02*X10751D01*
X10551Y10967D02*X10601Y10917D01*
X10551Y11267D02*Y10967D01*
Y11267D02*X10601Y11317D01*
X10751D01*
X10871D02*X11071D01*
X10871D02*Y11117D01*
X10921Y11167D01*
X11021D01*
X11071Y11117D01*
Y10967D01*
X11021Y10917D02*X11071Y10967D01*
X10921Y10917D02*X11021D01*
X10871Y10967D02*X10921Y10917D01*
X11191Y11267D02*X11241Y11317D01*
X11341D01*
X11391Y11267D01*
Y10967D01*
X11341Y10917D02*X11391Y10967D01*
X11241Y10917D02*X11341D01*
X11191Y10967D02*X11241Y10917D01*
Y11117D02*X11391D01*
X13129Y12066D02*X13249D01*
X13279Y12036D01*
Y11976D01*
X13249Y11946D02*X13279Y11976D01*
X13159Y11946D02*X13249D01*
X13159Y12066D02*Y11826D01*
Y11946D02*X13279Y11826D01*
X13351Y11946D02*X13471Y12066D01*
X13351Y11946D02*X13501D01*
X13471Y12066D02*Y11826D01*
X13604D02*X13664D01*
X13634Y12066D02*Y11826D01*
X13574Y12006D02*X13634Y12066D01*
X8622Y13817D02*X8822D01*
X8872Y13767D01*
Y13667D01*
X8822Y13617D02*X8872Y13667D01*
X8672Y13617D02*X8822D01*
X8672Y13817D02*Y13417D01*
Y13617D02*X8872Y13417D01*
X8992Y13767D02*X9042Y13817D01*
X9192D01*
X9242Y13767D01*
Y13667D01*
X8992Y13417D02*X9242Y13667D01*
X8992Y13417D02*X9242D01*
X9362Y13467D02*X9412Y13417D01*
X9362Y13567D02*Y13467D01*
Y13567D02*X9412Y13617D01*
X9512D01*
X9562Y13567D01*
Y13467D01*
X9512Y13417D02*X9562Y13467D01*
X9412Y13417D02*X9512D01*
X9362Y13667D02*X9412Y13617D01*
X9362Y13767D02*Y13667D01*
Y13767D02*X9412Y13817D01*
X9512D01*
X9562Y13767D01*
Y13667D01*
X9512Y13617D02*X9562Y13667D01*
X11555Y13659D02*X11755D01*
X11805Y13609D01*
Y13509D01*
X11755Y13459D02*X11805Y13509D01*
X11605Y13459D02*X11755D01*
X11605Y13659D02*Y13259D01*
Y13459D02*X11805Y13259D01*
X11925Y13609D02*X11975Y13659D01*
X12125D01*
X12175Y13609D01*
Y13509D01*
X11925Y13259D02*X12175Y13509D01*
X11925Y13259D02*X12175D01*
X12295D02*X12545Y13509D01*
Y13659D02*Y13509D01*
X12295Y13659D02*X12545D01*
M02*
