G04 start of page 11 for group -3984 idx -3984
G04 Title: stribog.main_board.bis, fab *
G04 Creator: pcb 20070208 *
G04 CreationDate: Sun Apr  6 09:45:44 2008 UTC *
G04 For: dti *
G04 Format: Gerber/RS-274X *
G04 PCB-Dimensions: 314961 157480 *
G04 PCB-Coordinate-Origin: lower left *
%MOIN*%
%FSLAX24Y24*%
%LNFAB*%
%ADD13C,0.0100*%
%ADD57C,0.0060*%
%ADD64R,0.0080X0.0080*%
G54D64*X8858Y14763D02*Y14443D01*
Y14763D02*X9135Y14923D01*
X8858Y14763D02*X8581Y14923D01*
X8698Y14763D02*G75*G03X9018Y14763I160J0D01*G01*
G75*G03X8698Y14763I-160J0D01*G01*
X30511D02*Y14443D01*
Y14763D02*X30789Y14923D01*
X30511Y14763D02*X30234Y14923D01*
X30351Y14763D02*G75*G03X30671Y14763I160J0D01*G01*
G75*G03X30351Y14763I-160J0D01*G01*
X30511Y984D02*Y664D01*
Y984D02*X30789Y1144D01*
X30511Y984D02*X30234Y1144D01*
X30351Y984D02*G75*G03X30671Y984I160J0D01*G01*
G75*G03X30351Y984I-160J0D01*G01*
X984D02*Y664D01*
Y984D02*X1261Y1144D01*
X984Y984D02*X707Y1144D01*
X824Y984D02*G75*G03X1144Y984I160J0D01*G01*
G75*G03X824Y984I-160J0D01*G01*
X8858Y984D02*Y664D01*
Y984D02*X9135Y1144D01*
X8858Y984D02*X8581Y1144D01*
X8698Y984D02*G75*G03X9018Y984I160J0D01*G01*
G75*G03X8698Y984I-160J0D01*G01*
X984Y14763D02*Y14443D01*
Y14763D02*X1261Y14923D01*
X984Y14763D02*X707Y14923D01*
X824Y14763D02*G75*G03X1144Y14763I160J0D01*G01*
G75*G03X824Y14763I-160J0D01*G01*
X1500Y16873D02*Y16553D01*
Y16873D02*X1777Y17033D01*
X1500Y16873D02*X1222Y17033D01*
X1340Y16873D02*G75*G03X1660Y16873I160J0D01*G01*
G75*G03X1340Y16873I-160J0D01*G01*
G54D57*X13500Y17098D02*Y17023D01*
X13650Y16873D01*
X13800Y17023D01*
Y17098D02*Y17023D01*
X13650Y16873D02*Y16498D01*
X13980Y16798D02*X14205D01*
X13980Y16498D02*X14280D01*
X13980Y17098D02*Y16498D01*
Y17098D02*X14280D01*
X14760D02*X14835Y17023D01*
X14535Y17098D02*X14760D01*
X14460Y17023D02*X14535Y17098D01*
X14460Y17023D02*Y16873D01*
X14535Y16798D01*
X14760D01*
X14835Y16723D01*
Y16573D01*
X14760Y16498D02*X14835Y16573D01*
X14535Y16498D02*X14760D01*
X14460Y16573D02*X14535Y16498D01*
X13500Y16172D02*X15015D01*
X10025Y17098D02*X10100Y17023D01*
X9875Y17098D02*X10025D01*
X9800Y17023D02*X9875Y17098D01*
X9800Y17023D02*Y16573D01*
X9875Y16498D01*
X10025Y16798D02*X10100Y16723D01*
X9800Y16798D02*X10025D01*
X9875Y16498D02*X10025D01*
X10100Y16573D01*
Y16723D02*Y16573D01*
X9800Y16172D02*X10280D01*
X4500Y16573D02*X4575Y16498D01*
X4500Y17023D02*Y16573D01*
Y17023D02*X4575Y17098D01*
X4725D01*
X4800Y17023D01*
Y16573D01*
X4725Y16498D02*X4800Y16573D01*
X4575Y16498D02*X4725D01*
X4500Y16648D02*X4800Y16948D01*
X4980Y16498D02*X5055D01*
X5310D02*X5460D01*
X5385Y17098D02*Y16498D01*
X5235Y16948D02*X5385Y17098D01*
X5640Y17023D02*X5715Y17098D01*
X5940D01*
X6015Y17023D01*
Y16873D01*
X5640Y16498D02*X6015Y16873D01*
X5640Y16498D02*X6015D01*
X6420Y17098D02*X6495Y17023D01*
X6270Y17098D02*X6420D01*
X6195Y17023D02*X6270Y17098D01*
X6195Y17023D02*Y16573D01*
X6270Y16498D01*
X6420Y16798D02*X6495Y16723D01*
X6195Y16798D02*X6420D01*
X6270Y16498D02*X6420D01*
X6495Y16573D01*
Y16723D02*Y16573D01*
X4500Y16172D02*X6675D01*
X28068Y6380D02*X28388D01*
X28068D02*Y6060D01*
X28388D01*
Y6380D02*Y6060D01*
X27084Y6380D02*X27404D01*
X27084D02*Y6060D01*
X27404D01*
Y6380D02*Y6060D01*
X18107Y1419D02*X18427D01*
X18107D02*Y1099D01*
X18427D01*
Y1419D02*Y1099D01*
X17107Y1419D02*X17427D01*
X17107D02*Y1099D01*
X17427D01*
Y1419D02*Y1099D01*
X18107Y2419D02*X18427D01*
X18107D02*Y2099D01*
X18427D01*
Y2419D02*Y2099D01*
X17107Y2419D02*X17427D01*
X17107D02*Y2099D01*
X17427D01*
Y2419D02*Y2099D01*
X18107Y3419D02*X18427D01*
X18107D02*Y3099D01*
X18427D01*
Y3419D02*Y3099D01*
X17107Y3419D02*X17427D01*
X17107D02*Y3099D01*
X17427D01*
Y3419D02*Y3099D01*
X18107Y4419D02*X18427D01*
X18107D02*Y4099D01*
X18427D01*
Y4419D02*Y4099D01*
X17107Y4419D02*X17427D01*
X17107D02*Y4099D01*
X17427D01*
Y4419D02*Y4099D01*
X18107Y5419D02*X18427D01*
X18107D02*Y5099D01*
X18427D01*
Y5419D02*Y5099D01*
X17107Y5419D02*X17427D01*
X17107D02*Y5099D01*
X17427D01*
Y5419D02*Y5099D01*
X28107Y1419D02*X28427D01*
X28107D02*Y1099D01*
X28427D01*
Y1419D02*Y1099D01*
X27107Y1419D02*X27427D01*
X27107D02*Y1099D01*
X27427D01*
Y1419D02*Y1099D01*
X28107Y2419D02*X28427D01*
X28107D02*Y2099D01*
X28427D01*
Y2419D02*Y2099D01*
X27107Y2419D02*X27427D01*
X27107D02*Y2099D01*
X27427D01*
Y2419D02*Y2099D01*
X28107Y3419D02*X28427D01*
X28107D02*Y3099D01*
X28427D01*
Y3419D02*Y3099D01*
X27107Y3419D02*X27427D01*
X27107D02*Y3099D01*
X27427D01*
Y3419D02*Y3099D01*
X28107Y4419D02*X28427D01*
X28107D02*Y4099D01*
X28427D01*
Y4419D02*Y4099D01*
X27107Y4419D02*X27427D01*
X27107D02*Y4099D01*
X27427D01*
Y4419D02*Y4099D01*
X28107Y5419D02*X28427D01*
X28107D02*Y5099D01*
X28427D01*
Y5419D02*Y5099D01*
X27107Y5419D02*X27427D01*
X27107D02*Y5099D01*
X27427D01*
Y5419D02*Y5099D01*
X15863Y13270D02*X16183D01*
X15863D02*Y12950D01*
X16183D01*
Y13270D02*Y12950D01*
X12863Y13270D02*X13183D01*
X12863D02*Y12950D01*
X13183D01*
Y13270D02*Y12950D01*
X9958Y15120D02*X10278D01*
X9958D02*Y14800D01*
X10278D01*
Y15120D02*Y14800D01*
X9958Y12120D02*X10278D01*
X9958D02*Y11800D01*
X10278D01*
Y12120D02*Y11800D01*
X10863Y12128D02*X11183D01*
X10863D02*Y11808D01*
X11183D01*
Y12128D02*Y11808D01*
X10863Y15128D02*X11183D01*
X10863D02*Y14808D01*
X11183D01*
Y15128D02*Y14808D01*
X30076Y8309D02*X30396D01*
X30076D02*Y7989D01*
X30396D01*
Y8309D02*Y7989D01*
X30076Y7309D02*X30396D01*
X30076D02*Y6989D01*
X30396D01*
Y7309D02*Y6989D01*
X29076Y8309D02*X29396D01*
X29076D02*Y7989D01*
X29396D01*
Y8309D02*Y7989D01*
X29076Y7309D02*X29396D01*
X29076D02*Y6989D01*
X29396D01*
Y7309D02*Y6989D01*
X28076Y8309D02*X28396D01*
X28076D02*Y7989D01*
X28396D01*
Y8309D02*Y7989D01*
X28076Y7309D02*X28396D01*
X28076D02*Y6989D01*
X28396D01*
Y7309D02*Y6989D01*
X27076Y8309D02*X27396D01*
X27076D02*Y7989D01*
X27396D01*
Y8309D02*Y7989D01*
X27076Y7309D02*X27396D01*
X27076D02*Y6989D01*
X27396D01*
Y7309D02*Y6989D01*
X26076Y8309D02*X26396D01*
X26076D02*Y7989D01*
X26396D01*
Y8309D02*Y7989D01*
X26076Y7309D02*X26396D01*
X26076D02*Y6989D01*
X26396D01*
Y7309D02*Y6989D01*
X1340Y18533D02*X1660D01*
X1340D02*Y18213D01*
X1660D01*
Y18533D02*Y18213D01*
X13500Y18598D02*Y18523D01*
X13650Y18373D01*
X13800Y18523D01*
Y18598D02*Y18523D01*
X13650Y18373D02*Y17998D01*
X13980Y18298D02*X14205D01*
X13980Y17998D02*X14280D01*
X13980Y18598D02*Y17998D01*
Y18598D02*X14280D01*
X14760D02*X14835Y18523D01*
X14535Y18598D02*X14760D01*
X14460Y18523D02*X14535Y18598D01*
X14460Y18523D02*Y18373D01*
X14535Y18298D01*
X14760D01*
X14835Y18223D01*
Y18073D01*
X14760Y17998D02*X14835Y18073D01*
X14535Y17998D02*X14760D01*
X14460Y18073D02*X14535Y17998D01*
X13500Y17672D02*X15015D01*
X9800Y18523D02*X9875Y18598D01*
X10025D01*
X10100Y18523D01*
Y18073D01*
X10025Y17998D02*X10100Y18073D01*
X9875Y17998D02*X10025D01*
X9800Y18073D02*X9875Y17998D01*
Y18298D02*X10100D01*
X10280Y18073D02*X10355Y17998D01*
X10280Y18223D02*Y18073D01*
Y18223D02*X10355Y18298D01*
X10505D01*
X10580Y18223D01*
Y18073D01*
X10505Y17998D02*X10580Y18073D01*
X10355Y17998D02*X10505D01*
X10280Y18373D02*X10355Y18298D01*
X10280Y18523D02*Y18373D01*
Y18523D02*X10355Y18598D01*
X10505D01*
X10580Y18523D01*
Y18373D01*
X10505Y18298D02*X10580Y18373D01*
X9800Y17672D02*X10760D01*
X4500Y18073D02*X4575Y17998D01*
X4500Y18523D02*Y18073D01*
Y18523D02*X4575Y18598D01*
X4725D01*
X4800Y18523D01*
Y18073D01*
X4725Y17998D02*X4800Y18073D01*
X4575Y17998D02*X4725D01*
X4500Y18148D02*X4800Y18448D01*
X4980Y17998D02*X5055D01*
X5235Y18073D02*X5310Y17998D01*
X5235Y18523D02*Y18073D01*
Y18523D02*X5310Y18598D01*
X5460D01*
X5535Y18523D01*
Y18073D01*
X5460Y17998D02*X5535Y18073D01*
X5310Y17998D02*X5460D01*
X5235Y18148D02*X5535Y18448D01*
X5715Y18523D02*X5790Y18598D01*
X5940D01*
X6015Y18523D01*
Y18073D01*
X5940Y17998D02*X6015Y18073D01*
X5790Y17998D02*X5940D01*
X5715Y18073D02*X5790Y17998D01*
Y18298D02*X6015D01*
X6195Y18073D02*X6270Y17998D01*
X6195Y18223D02*Y18073D01*
Y18223D02*X6270Y18298D01*
X6420D01*
X6495Y18223D01*
Y18073D01*
X6420Y17998D02*X6495Y18073D01*
X6270Y17998D02*X6420D01*
X6195Y18373D02*X6270Y18298D01*
X6195Y18523D02*Y18373D01*
Y18523D02*X6270Y18598D01*
X6420D01*
X6495Y18523D01*
Y18373D01*
X6420Y18298D02*X6495Y18373D01*
X4500Y17672D02*X6675D01*
X18817Y1811D02*G75*G03X18977Y1811I80J0D01*G01*
G75*G03X18817Y1811I-80J0D01*G01*
X15510Y2007D02*G75*G03X15670Y2007I80J0D01*G01*
G75*G03X15510Y2007I-80J0D01*G01*
X25195Y13622D02*G75*G03X25355Y13622I80J0D01*G01*
G75*G03X25195Y13622I-80J0D01*G01*
X24683Y12637D02*G75*G03X24843Y12637I80J0D01*G01*
G75*G03X24683Y12637I-80J0D01*G01*
X23817Y10314D02*G75*G03X23977Y10314I80J0D01*G01*
G75*G03X23817Y10314I-80J0D01*G01*
X22557Y1299D02*G75*G03X22717Y1299I80J0D01*G01*
G75*G03X22557Y1299I-80J0D01*G01*
X16455Y5905D02*G75*G03X16615Y5905I80J0D01*G01*
G75*G03X16455Y5905I-80J0D01*G01*
X24762Y5078D02*G75*G03X24922Y5078I80J0D01*G01*
G75*G03X24762Y5078I-80J0D01*G01*
X12754Y4606D02*G75*G03X12914Y4606I80J0D01*G01*
G75*G03X12754Y4606I-80J0D01*G01*
X24014Y2480D02*G75*G03X24174Y2480I80J0D01*G01*
G75*G03X24014Y2480I-80J0D01*G01*
X24880Y1850D02*G75*G03X25040Y1850I80J0D01*G01*
G75*G03X24880Y1850I-80J0D01*G01*
X12636Y14842D02*G75*G03X12796Y14842I80J0D01*G01*
G75*G03X12636Y14842I-80J0D01*G01*
X21258Y14527D02*G75*G03X21418Y14527I80J0D01*G01*
G75*G03X21258Y14527I-80J0D01*G01*
X16376Y1220D02*G75*G03X16536Y1220I80J0D01*G01*
G75*G03X16376Y1220I-80J0D01*G01*
X23227Y15196D02*G75*G03X23387Y15196I80J0D01*G01*
G75*G03X23227Y15196I-80J0D01*G01*
X12164Y14291D02*G75*G03X12324Y14291I80J0D01*G01*
G75*G03X12164Y14291I-80J0D01*G01*
X29447Y4212D02*G75*G03X29607Y4212I80J0D01*G01*
G75*G03X29447Y4212I-80J0D01*G01*
Y3307D02*G75*G03X29607Y3307I80J0D01*G01*
G75*G03X29447Y3307I-80J0D01*G01*
X5510Y3976D02*G75*G03X5670Y3976I80J0D01*G01*
G75*G03X5510Y3976I-80J0D01*G01*
X24014Y1220D02*G75*G03X24174Y1220I80J0D01*G01*
G75*G03X24014Y1220I-80J0D01*G01*
X14565Y13267D02*G75*G03X14725Y13267I80J0D01*G01*
G75*G03X14565Y13267I-80J0D01*G01*
X3502Y2716D02*G75*G03X3662Y2716I80J0D01*G01*
G75*G03X3502Y2716I-80J0D01*G01*
X20864Y13149D02*G75*G03X21024Y13149I80J0D01*G01*
G75*G03X20864Y13149I-80J0D01*G01*
X23380Y3968D02*G75*G03X23540Y3968I80J0D01*G01*
G75*G03X23380Y3968I-80J0D01*G01*
X4172Y5433D02*G75*G03X4332Y5433I80J0D01*G01*
G75*G03X4172Y5433I-80J0D01*G01*
X1731Y8228D02*G75*G03X1891Y8228I80J0D01*G01*
G75*G03X1731Y8228I-80J0D01*G01*
X2951Y7598D02*G75*G03X3111Y7598I80J0D01*G01*
G75*G03X2951Y7598I-80J0D01*G01*
X4211Y9999D02*G75*G03X4371Y9999I80J0D01*G01*
G75*G03X4211Y9999I-80J0D01*G01*
X24211Y4488D02*G75*G03X24371Y4488I80J0D01*G01*
G75*G03X24211Y4488I-80J0D01*G01*
X7990Y9960D02*G75*G03X8150Y9960I80J0D01*G01*
G75*G03X7990Y9960I-80J0D01*G01*
X8817Y5314D02*G75*G03X8977Y5314I80J0D01*G01*
G75*G03X8817Y5314I-80J0D01*G01*
X11022Y5275D02*G75*G03X11182Y5275I80J0D01*G01*
G75*G03X11022Y5275I-80J0D01*G01*
X6022Y7126D02*G75*G03X6182Y7126I80J0D01*G01*
G75*G03X6022Y7126I-80J0D01*G01*
X8423Y7047D02*G75*G03X8583Y7047I80J0D01*G01*
G75*G03X8423Y7047I-80J0D01*G01*
X10746D02*G75*G03X10906Y7047I80J0D01*G01*
G75*G03X10746Y7047I-80J0D01*G01*
X6219Y10000D02*G75*G03X6379Y10000I80J0D01*G01*
G75*G03X6219Y10000I-80J0D01*G01*
X6376Y5314D02*G75*G03X6536Y5314I80J0D01*G01*
G75*G03X6376Y5314I-80J0D01*G01*
X7794Y4055D02*G75*G03X7954Y4055I80J0D01*G01*
G75*G03X7794Y4055I-80J0D01*G01*
X10156Y4094D02*G75*G03X10316Y4094I80J0D01*G01*
G75*G03X10156Y4094I-80J0D01*G01*
X11612Y3425D02*G75*G03X11772Y3425I80J0D01*G01*
G75*G03X11612Y3425I-80J0D01*G01*
X1420Y19873D02*G75*G03X1580Y19873I80J0D01*G01*
G75*G03X1420Y19873I-80J0D01*G01*
X13500Y20098D02*Y20023D01*
X13650Y19873D01*
X13800Y20023D01*
Y20098D02*Y20023D01*
X13650Y19873D02*Y19498D01*
X13980Y19798D02*X14205D01*
X13980Y19498D02*X14280D01*
X13980Y20098D02*Y19498D01*
Y20098D02*X14280D01*
X14760D02*X14835Y20023D01*
X14535Y20098D02*X14760D01*
X14460Y20023D02*X14535Y20098D01*
X14460Y20023D02*Y19873D01*
X14535Y19798D01*
X14760D01*
X14835Y19723D01*
Y19573D01*
X14760Y19498D02*X14835Y19573D01*
X14535Y19498D02*X14760D01*
X14460Y19573D02*X14535Y19498D01*
X13500Y19172D02*X15015D01*
X9800Y19798D02*X10100Y20098D01*
X9800Y19798D02*X10175D01*
X10100Y20098D02*Y19498D01*
X10355Y19573D02*X10430Y19498D01*
X10355Y20023D02*Y19573D01*
Y20023D02*X10430Y20098D01*
X10580D01*
X10655Y20023D01*
Y19573D01*
X10580Y19498D02*X10655Y19573D01*
X10430Y19498D02*X10580D01*
X10355Y19648D02*X10655Y19948D01*
X9800Y19172D02*X10835D01*
X4500Y19573D02*X4575Y19498D01*
X4500Y20023D02*Y19573D01*
Y20023D02*X4575Y20098D01*
X4725D01*
X4800Y20023D01*
Y19573D01*
X4725Y19498D02*X4800Y19573D01*
X4575Y19498D02*X4725D01*
X4500Y19648D02*X4800Y19948D01*
X4980Y19498D02*X5055D01*
X5235Y19573D02*X5310Y19498D01*
X5235Y20023D02*Y19573D01*
Y20023D02*X5310Y20098D01*
X5460D01*
X5535Y20023D01*
Y19573D01*
X5460Y19498D02*X5535Y19573D01*
X5310Y19498D02*X5460D01*
X5235Y19648D02*X5535Y19948D01*
X5715Y20023D02*X5790Y20098D01*
X5940D01*
X6015Y20023D01*
Y19573D01*
X5940Y19498D02*X6015Y19573D01*
X5790Y19498D02*X5940D01*
X5715Y19573D02*X5790Y19498D01*
Y19798D02*X6015D01*
X6195Y20098D02*X6495D01*
X6195D02*Y19798D01*
X6270Y19873D01*
X6420D01*
X6495Y19798D01*
Y19573D01*
X6420Y19498D02*X6495Y19573D01*
X6270Y19498D02*X6420D01*
X6195Y19573D02*X6270Y19498D01*
X4500Y19172D02*X6675D01*
X20431Y12009D02*X20671Y11769D01*
X20431D02*X20671Y12009D01*
X20431Y14009D02*X20671Y13769D01*
X20431D02*X20671Y14009D01*
X1380Y21493D02*X1620Y21253D01*
X1380D02*X1620Y21493D01*
X13500Y21598D02*Y21523D01*
X13650Y21373D01*
X13800Y21523D01*
Y21598D02*Y21523D01*
X13650Y21373D02*Y20998D01*
X13980Y21298D02*X14205D01*
X13980Y20998D02*X14280D01*
X13980Y21598D02*Y20998D01*
Y21598D02*X14280D01*
X14760D02*X14835Y21523D01*
X14535Y21598D02*X14760D01*
X14460Y21523D02*X14535Y21598D01*
X14460Y21523D02*Y21373D01*
X14535Y21298D01*
X14760D01*
X14835Y21223D01*
Y21073D01*
X14760Y20998D02*X14835Y21073D01*
X14535Y20998D02*X14760D01*
X14460Y21073D02*X14535Y20998D01*
X13500Y20672D02*X15015D01*
X9800Y21523D02*X9875Y21598D01*
X10100D01*
X10175Y21523D01*
Y21373D01*
X9800Y20998D02*X10175Y21373D01*
X9800Y20998D02*X10175D01*
X9800Y20672D02*X10355D01*
X4500Y21073D02*X4575Y20998D01*
X4500Y21523D02*Y21073D01*
Y21523D02*X4575Y21598D01*
X4725D01*
X4800Y21523D01*
Y21073D01*
X4725Y20998D02*X4800Y21073D01*
X4575Y20998D02*X4725D01*
X4500Y21148D02*X4800Y21448D01*
X4980Y20998D02*X5055D01*
X5235Y21073D02*X5310Y20998D01*
X5235Y21523D02*Y21073D01*
Y21523D02*X5310Y21598D01*
X5460D01*
X5535Y21523D01*
Y21073D01*
X5460Y20998D02*X5535Y21073D01*
X5310Y20998D02*X5460D01*
X5235Y21148D02*X5535Y21448D01*
X5715Y21523D02*X5790Y21598D01*
X6015D01*
X6090Y21523D01*
Y21373D01*
X5715Y20998D02*X6090Y21373D01*
X5715Y20998D02*X6090D01*
X6270Y21598D02*X6570D01*
X6270D02*Y21298D01*
X6345Y21373D01*
X6495D01*
X6570Y21298D01*
Y21073D01*
X6495Y20998D02*X6570Y21073D01*
X6345Y20998D02*X6495D01*
X6270Y21073D02*X6345Y20998D01*
X4500Y20672D02*X6750D01*
X2519Y6337D02*Y6017D01*
X2359Y6177D02*X2679D01*
X2519Y5837D02*Y5517D01*
X2359Y5677D02*X2679D01*
X2519Y5337D02*Y5017D01*
X2359Y5177D02*X2679D01*
X2519Y4837D02*Y4517D01*
X2359Y4677D02*X2679D01*
X2519Y4337D02*Y4017D01*
X2359Y4177D02*X2679D01*
X2519Y3837D02*Y3517D01*
X2359Y3677D02*X2679D01*
X2519Y3337D02*Y3017D01*
X2359Y3177D02*X2679D01*
X2519Y2837D02*Y2517D01*
X2359Y2677D02*X2679D01*
X1500Y23033D02*Y22713D01*
X1340Y22873D02*X1660D01*
X13500Y23098D02*Y23023D01*
X13650Y22873D01*
X13800Y23023D01*
Y23098D02*Y23023D01*
X13650Y22873D02*Y22498D01*
X13980Y22798D02*X14205D01*
X13980Y22498D02*X14280D01*
X13980Y23098D02*Y22498D01*
Y23098D02*X14280D01*
X14760D02*X14835Y23023D01*
X14535Y23098D02*X14760D01*
X14460Y23023D02*X14535Y23098D01*
X14460Y23023D02*Y22873D01*
X14535Y22798D01*
X14760D01*
X14835Y22723D01*
Y22573D01*
X14760Y22498D02*X14835Y22573D01*
X14535Y22498D02*X14760D01*
X14460Y22573D02*X14535Y22498D01*
X13500Y22172D02*X15015D01*
X9800Y22573D02*X9875Y22498D01*
X9800Y22723D02*Y22573D01*
Y22723D02*X9875Y22798D01*
X10025D01*
X10100Y22723D01*
Y22573D01*
X10025Y22498D02*X10100Y22573D01*
X9875Y22498D02*X10025D01*
X9800Y22873D02*X9875Y22798D01*
X9800Y23023D02*Y22873D01*
Y23023D02*X9875Y23098D01*
X10025D01*
X10100Y23023D01*
Y22873D01*
X10025Y22798D02*X10100Y22873D01*
X9800Y22172D02*X10280D01*
X4500Y22573D02*X4575Y22498D01*
X4500Y23023D02*Y22573D01*
Y23023D02*X4575Y23098D01*
X4725D01*
X4800Y23023D01*
Y22573D01*
X4725Y22498D02*X4800Y22573D01*
X4575Y22498D02*X4725D01*
X4500Y22648D02*X4800Y22948D01*
X4980Y22498D02*X5055D01*
X5235Y22573D02*X5310Y22498D01*
X5235Y23023D02*Y22573D01*
Y23023D02*X5310Y23098D01*
X5460D01*
X5535Y23023D01*
Y22573D01*
X5460Y22498D02*X5535Y22573D01*
X5310Y22498D02*X5460D01*
X5235Y22648D02*X5535Y22948D01*
X5715Y23023D02*X5790Y23098D01*
X6015D01*
X6090Y23023D01*
Y22873D01*
X5715Y22498D02*X6090Y22873D01*
X5715Y22498D02*X6090D01*
X6345D02*X6495D01*
X6420Y23098D02*Y22498D01*
X6270Y22948D02*X6420Y23098D01*
X4500Y22172D02*X6675D01*
X21850Y9803D02*Y9643D01*
Y9803D02*X21988Y9883D01*
X21850Y9803D02*X21711Y9883D01*
X28779Y10039D02*Y9879D01*
Y10039D02*X28918Y10119D01*
X28779Y10039D02*X28640Y10119D01*
X26181Y9409D02*Y9249D01*
Y9409D02*X26319Y9489D01*
X26181Y9409D02*X26042Y9489D01*
X28031Y12047D02*Y11887D01*
Y12047D02*X28170Y12127D01*
X28031Y12047D02*X27892Y12127D01*
X16299Y14448D02*Y14288D01*
Y14448D02*X16437Y14528D01*
X16299Y14448D02*X16160Y14528D01*
X24252Y12244D02*Y12084D01*
Y12244D02*X24390Y12324D01*
X24252Y12244D02*X24113Y12324D01*
X23228Y11141D02*Y10981D01*
Y11141D02*X23366Y11221D01*
X23228Y11141D02*X23089Y11221D01*
X19566Y2874D02*Y2714D01*
Y2874D02*X19705Y2954D01*
X19566Y2874D02*X19428Y2954D01*
X15866Y11968D02*Y11808D01*
Y11968D02*X16004Y12048D01*
X15866Y11968D02*X15727Y12048D01*
X19409Y12086D02*Y11926D01*
Y12086D02*X19548Y12166D01*
X19409Y12086D02*X19270Y12166D01*
X19015Y13149D02*Y12989D01*
Y13149D02*X19154Y13229D01*
X19015Y13149D02*X18877Y13229D01*
X15669Y13622D02*Y13462D01*
Y13622D02*X15807Y13702D01*
X15669Y13622D02*X15530Y13702D01*
X3385Y5236D02*Y5076D01*
Y5236D02*X3524Y5316D01*
X3385Y5236D02*X3247Y5316D01*
X15314Y14724D02*Y14564D01*
Y14724D02*X15453Y14804D01*
X15314Y14724D02*X15176Y14804D01*
X18976Y12519D02*Y12359D01*
Y12519D02*X19115Y12599D01*
X18976Y12519D02*X18837Y12599D01*
X17992Y12834D02*Y12674D01*
Y12834D02*X18130Y12914D01*
X17992Y12834D02*X17853Y12914D01*
X20236Y8149D02*Y7989D01*
Y8149D02*X20374Y8229D01*
X20236Y8149D02*X20097Y8229D01*
X17401Y13149D02*Y12989D01*
Y13149D02*X17540Y13229D01*
X17401Y13149D02*X17263Y13229D01*
X19409Y14803D02*Y14643D01*
Y14803D02*X19548Y14883D01*
X19409Y14803D02*X19270Y14883D01*
X23267Y10433D02*Y10273D01*
Y10433D02*X23406Y10513D01*
X23267Y10433D02*X23129Y10513D01*
X21732Y5476D02*Y5316D01*
Y5476D02*X21870Y5556D01*
X21732Y5476D02*X21593Y5556D01*
X25905Y11496D02*Y11336D01*
Y11496D02*X26044Y11576D01*
X25905Y11496D02*X25766Y11576D01*
X18818Y6063D02*Y5903D01*
Y6063D02*X18957Y6143D01*
X18818Y6063D02*X18680Y6143D01*
X20748Y5433D02*Y5273D01*
Y5433D02*X20886Y5513D01*
X20748Y5433D02*X20609Y5513D01*
X21299Y6574D02*Y6414D01*
Y6574D02*X21437Y6654D01*
X21299Y6574D02*X21160Y6654D01*
X16141Y9925D02*Y9765D01*
Y9925D02*X16280Y10005D01*
X16141Y9925D02*X16003Y10005D01*
X28700Y11614D02*Y11454D01*
Y11614D02*X28839Y11694D01*
X28700Y11614D02*X28562Y11694D01*
X14330Y6259D02*Y6099D01*
Y6259D02*X14469Y6339D01*
X14330Y6259D02*X14192Y6339D01*
X22322Y6614D02*Y6454D01*
Y6614D02*X22461Y6694D01*
X22322Y6614D02*X22184Y6694D01*
X22795Y9645D02*Y9485D01*
Y9645D02*X22933Y9725D01*
X22795Y9645D02*X22656Y9725D01*
X26063Y10000D02*Y9840D01*
Y10000D02*X26201Y10080D01*
X26063Y10000D02*X25924Y10080D01*
X28621Y10984D02*Y10824D01*
Y10984D02*X28760Y11064D01*
X28621Y10984D02*X28483Y11064D01*
X20968Y9602D02*Y9442D01*
Y9602D02*X21107Y9682D01*
X20968Y9602D02*X20829Y9682D01*
X24291Y13976D02*Y13816D01*
Y13976D02*X24429Y14056D01*
X24291Y13976D02*X24152Y14056D01*
X28346Y10433D02*Y10273D01*
Y10433D02*X28484Y10513D01*
X28346Y10433D02*X28207Y10513D01*
X23070Y4685D02*Y4525D01*
Y4685D02*X23209Y4765D01*
X23070Y4685D02*X22932Y4765D01*
X14803Y6732D02*Y6572D01*
Y6732D02*X14941Y6812D01*
X14803Y6732D02*X14664Y6812D01*
X23779Y6063D02*Y5903D01*
Y6063D02*X23918Y6143D01*
X23779Y6063D02*X23640Y6143D01*
X18826Y9566D02*Y9406D01*
Y9566D02*X18965Y9646D01*
X18826Y9566D02*X18688Y9646D01*
X16417Y12047D02*Y11887D01*
Y12047D02*X16556Y12127D01*
X16417Y12047D02*X16278Y12127D01*
X14842Y10275D02*Y10115D01*
Y10275D02*X14981Y10355D01*
X14842Y10275D02*X14703Y10355D01*
X20078Y1456D02*Y1296D01*
Y1456D02*X20217Y1536D01*
X20078Y1456D02*X19940Y1536D01*
X21811Y6574D02*Y6414D01*
Y6574D02*X21949Y6654D01*
X21811Y6574D02*X21672Y6654D01*
X19960Y9173D02*Y9013D01*
Y9173D02*X20099Y9253D01*
X19960Y9173D02*X19822Y9253D01*
X21574Y4724D02*Y4564D01*
Y4724D02*X21713Y4804D01*
X21574Y4724D02*X21436Y4804D01*
X19921Y8622D02*Y8462D01*
Y8622D02*X20059Y8702D01*
X19921Y8622D02*X19782Y8702D01*
X14763Y5393D02*Y5233D01*
Y5393D02*X14902Y5473D01*
X14763Y5393D02*X14625Y5473D01*
X20535Y9901D02*Y9741D01*
Y9901D02*X20674Y9981D01*
X20535Y9901D02*X20396Y9981D01*
X16055Y6885D02*Y6725D01*
Y6885D02*X16193Y6965D01*
X16055Y6885D02*X15916Y6965D01*
X25000Y7913D02*Y7753D01*
Y7913D02*X25138Y7993D01*
X25000Y7913D02*X24861Y7993D01*
X24409Y8858D02*Y8698D01*
Y8858D02*X24548Y8938D01*
X24409Y8858D02*X24270Y8938D01*
X21220Y11929D02*Y11769D01*
Y11929D02*X21359Y12009D01*
X21220Y11929D02*X21081Y12009D01*
X18307Y11259D02*Y11099D01*
Y11259D02*X18445Y11339D01*
X18307Y11259D02*X18168Y11339D01*
X22795Y7795D02*Y7635D01*
Y7795D02*X22933Y7875D01*
X22795Y7795D02*X22656Y7875D01*
X22519Y8228D02*Y8068D01*
Y8228D02*X22658Y8308D01*
X22519Y8228D02*X22381Y8308D01*
X23307Y8228D02*Y8068D01*
Y8228D02*X23445Y8308D01*
X23307Y8228D02*X23168Y8308D01*
X22716Y8740D02*Y8580D01*
Y8740D02*X22855Y8820D01*
X22716Y8740D02*X22577Y8820D01*
X23858Y12755D02*Y12595D01*
Y12755D02*X23996Y12835D01*
X23858Y12755D02*X23719Y12835D01*
X18110Y9173D02*Y9013D01*
Y9173D02*X18248Y9253D01*
X18110Y9173D02*X17971Y9253D01*
X24252Y11338D02*Y11178D01*
Y11338D02*X24390Y11418D01*
X24252Y11338D02*X24113Y11418D01*
X25275Y11023D02*Y10863D01*
Y11023D02*X25414Y11103D01*
X25275Y11023D02*X25137Y11103D01*
X20984Y1102D02*Y942D01*
Y1102D02*X21122Y1182D01*
X20984Y1102D02*X20845Y1182D01*
X19921Y7401D02*Y7241D01*
Y7401D02*X20059Y7481D01*
X19921Y7401D02*X19782Y7481D01*
X14803Y4881D02*Y4721D01*
Y4881D02*X14941Y4961D01*
X14803Y4881D02*X14664Y4961D01*
X16968Y14763D02*Y14603D01*
Y14763D02*X17107Y14843D01*
X16968Y14763D02*X16829Y14843D01*
X25787Y12992D02*Y12832D01*
Y12992D02*X25926Y13072D01*
X25787Y12992D02*X25648Y13072D01*
X19960Y14527D02*Y14367D01*
Y14527D02*X20099Y14607D01*
X19960Y14527D02*X19822Y14607D01*
X28307Y9527D02*Y9367D01*
Y9527D02*X28445Y9607D01*
X28307Y9527D02*X28168Y9607D01*
X11732Y11968D02*Y11808D01*
Y11968D02*X11870Y12048D01*
X11732Y11968D02*X11593Y12048D01*
X8110Y12637D02*Y12477D01*
Y12637D02*X8248Y12717D01*
X8110Y12637D02*X7971Y12717D01*
X24448Y8307D02*Y8147D01*
Y8307D02*X24587Y8387D01*
X24448Y8307D02*X24310Y8387D01*
X14606Y3976D02*Y3816D01*
Y3976D02*X14744Y4056D01*
X14606Y3976D02*X14467Y4056D01*
X16496Y8267D02*Y8107D01*
Y8267D02*X16634Y8347D01*
X16496Y8267D02*X16357Y8347D01*
X16929Y9881D02*Y9721D01*
Y9881D02*X17067Y9961D01*
X16929Y9881D02*X16790Y9961D01*
X16023Y9055D02*Y8895D01*
Y9055D02*X16162Y9135D01*
X16023Y9055D02*X15885Y9135D01*
X14976Y11496D02*Y11336D01*
Y11496D02*X15115Y11576D01*
X14976Y11496D02*X14837Y11576D01*
X14960Y10905D02*Y10745D01*
Y10905D02*X15099Y10985D01*
X14960Y10905D02*X14822Y10985D01*
X14803Y9330D02*Y9170D01*
Y9330D02*X14941Y9410D01*
X14803Y9330D02*X14664Y9410D01*
X15039Y8818D02*Y8658D01*
Y8818D02*X15178Y8898D01*
X15039Y8818D02*X14900Y8898D01*
X25551Y3976D02*Y3816D01*
Y3976D02*X25689Y4056D01*
X25551Y3976D02*X25412Y4056D01*
X17047Y9291D02*Y9131D01*
Y9291D02*X17185Y9371D01*
X17047Y9291D02*X16908Y9371D01*
X17047Y7165D02*Y7005D01*
Y7165D02*X17185Y7245D01*
X17047Y7165D02*X16908Y7245D01*
X14803Y7283D02*Y7123D01*
Y7283D02*X14941Y7363D01*
X14803Y7283D02*X14664Y7363D01*
X20393Y5027D02*Y4867D01*
Y5027D02*X20532Y5107D01*
X20393Y5027D02*X20255Y5107D01*
X17047Y11417D02*Y11257D01*
Y11417D02*X17185Y11497D01*
X17047Y11417D02*X16908Y11497D01*
X16929Y7874D02*Y7714D01*
Y7874D02*X17067Y7954D01*
X16929Y7874D02*X16790Y7954D01*
X15590Y590D02*Y430D01*
Y590D02*X15729Y670D01*
X15590Y590D02*X15451Y670D01*
X18826Y8976D02*Y8816D01*
Y8976D02*X18965Y9056D01*
X18826Y8976D02*X18688Y9056D01*
X1771Y7007D02*Y6847D01*
Y7007D02*X1910Y7087D01*
X1771Y7007D02*X1633Y7087D01*
X20078Y13031D02*Y12871D01*
Y13031D02*X20217Y13111D01*
X20078Y13031D02*X19940Y13111D01*
X23303Y7000D02*Y6840D01*
Y7000D02*X23441Y7080D01*
X23303Y7000D02*X23164Y7080D01*
X16063Y11338D02*Y11178D01*
Y11338D02*X16201Y11418D01*
X16063Y11338D02*X15924Y11418D01*
X16299Y10472D02*Y10312D01*
Y10472D02*X16437Y10552D01*
X16299Y10472D02*X16160Y10552D01*
X26102Y5472D02*Y5312D01*
Y5472D02*X26241Y5552D01*
X26102Y5472D02*X25963Y5552D01*
X24566Y5944D02*Y5784D01*
Y5944D02*X24705Y6024D01*
X24566Y5944D02*X24428Y6024D01*
X14763Y2519D02*Y2359D01*
Y2519D02*X14902Y2599D01*
X14763Y2519D02*X14625Y2599D01*
X16023Y3779D02*Y3619D01*
Y3779D02*X16162Y3859D01*
X16023Y3779D02*X15885Y3859D01*
X11889Y12480D02*Y12320D01*
Y12480D02*X12028Y12560D01*
X11889Y12480D02*X11751Y12560D01*
X12716Y3503D02*Y3343D01*
Y3503D02*X12855Y3583D01*
X12716Y3503D02*X12577Y3583D01*
X14015Y11574D02*Y11414D01*
Y11574D02*X14154Y11654D01*
X14015Y11574D02*X13877Y11654D01*
X16141Y7795D02*Y7635D01*
Y7795D02*X16280Y7875D01*
X16141Y7795D02*X16003Y7875D01*
X18110Y7952D02*Y7792D01*
Y7952D02*X18248Y8032D01*
X18110Y7952D02*X17971Y8032D01*
X18031Y10118D02*Y9958D01*
Y10118D02*X18170Y10198D01*
X18031Y10118D02*X17892Y10198D01*
X19212Y10236D02*Y10076D01*
Y10236D02*X19351Y10316D01*
X19212Y10236D02*X19074Y10316D01*
X25078Y6929D02*Y6769D01*
Y6929D02*X25217Y7009D01*
X25078Y6929D02*X24940Y7009D01*
X15551Y6141D02*Y5981D01*
Y6141D02*X15689Y6221D01*
X15551Y6141D02*X15412Y6221D01*
X14527Y7874D02*Y7714D01*
Y7874D02*X14666Y7954D01*
X14527Y7874D02*X14388Y7954D01*
X18700Y14511D02*Y14351D01*
Y14511D02*X18839Y14591D01*
X18700Y14511D02*X18562Y14591D01*
X19881Y4763D02*Y4603D01*
Y4763D02*X20020Y4843D01*
X19881Y4763D02*X19743Y4843D01*
X12716Y2362D02*Y2202D01*
Y2362D02*X12855Y2442D01*
X12716Y2362D02*X12578Y2442D01*
X3385Y4685D02*Y4525D01*
Y4685D02*X3524Y4765D01*
X3385Y4685D02*X3247Y4765D01*
X1732Y11141D02*Y10981D01*
Y11141D02*X1871Y11221D01*
X1732Y11141D02*X1593Y11221D01*
X3610Y9405D02*Y9245D01*
Y9405D02*X3748Y9485D01*
X3610Y9405D02*X3471Y9485D01*
X2126Y7440D02*Y7280D01*
Y7440D02*X2264Y7520D01*
X2126Y7440D02*X1987Y7520D01*
X12480Y11456D02*Y11296D01*
Y11456D02*X12618Y11536D01*
X12480Y11456D02*X12341Y11536D01*
X2086Y9488D02*Y9328D01*
Y9488D02*X2225Y9568D01*
X2086Y9488D02*X1948Y9568D01*
X1102Y5393D02*Y5233D01*
Y5393D02*X1241Y5473D01*
X1102Y5393D02*X963Y5473D01*
X2165Y11614D02*Y11454D01*
Y11614D02*X2304Y11694D01*
X2165Y11614D02*X2026Y11694D01*
X9488Y11062D02*Y10902D01*
Y11062D02*X9626Y11142D01*
X9488Y11062D02*X9349Y11142D01*
X29803Y9133D02*Y8973D01*
Y9133D02*X29941Y9213D01*
X29803Y9133D02*X29664Y9213D01*
X16968Y13582D02*Y13422D01*
Y13582D02*X17107Y13662D01*
X16968Y13582D02*X16829Y13662D01*
X1500Y24373D02*Y24213D01*
Y24373D02*X1638Y24453D01*
X1500Y24373D02*X1361Y24453D01*
X13500Y24598D02*Y24523D01*
X13650Y24373D01*
X13800Y24523D01*
Y24598D02*Y24523D01*
X13650Y24373D02*Y23998D01*
X13980Y24298D02*X14205D01*
X13980Y23998D02*X14280D01*
X13980Y24598D02*Y23998D01*
Y24598D02*X14280D01*
X14760D02*X14835Y24523D01*
X14535Y24598D02*X14760D01*
X14460Y24523D02*X14535Y24598D01*
X14460Y24523D02*Y24373D01*
X14535Y24298D01*
X14760D01*
X14835Y24223D01*
Y24073D01*
X14760Y23998D02*X14835Y24073D01*
X14535Y23998D02*X14760D01*
X14460Y24073D02*X14535Y23998D01*
X13500Y23672D02*X15015D01*
X9875Y23998D02*X10025D01*
X9950Y24598D02*Y23998D01*
X9800Y24448D02*X9950Y24598D01*
X10205Y24523D02*X10280Y24598D01*
X10505D01*
X10580Y24523D01*
Y24373D01*
X10205Y23998D02*X10580Y24373D01*
X10205Y23998D02*X10580D01*
X10835D02*X10985D01*
X10910Y24598D02*Y23998D01*
X10760Y24448D02*X10910Y24598D01*
X9800Y23672D02*X11165D01*
X4500Y24073D02*X4575Y23998D01*
X4500Y24523D02*Y24073D01*
Y24523D02*X4575Y24598D01*
X4725D01*
X4800Y24523D01*
Y24073D01*
X4725Y23998D02*X4800Y24073D01*
X4575Y23998D02*X4725D01*
X4500Y24148D02*X4800Y24448D01*
X4980Y23998D02*X5055D01*
X5235Y24073D02*X5310Y23998D01*
X5235Y24523D02*Y24073D01*
Y24523D02*X5310Y24598D01*
X5460D01*
X5535Y24523D01*
Y24073D01*
X5460Y23998D02*X5535Y24073D01*
X5310Y23998D02*X5460D01*
X5235Y24148D02*X5535Y24448D01*
X5715Y24523D02*X5790Y24598D01*
X6015D01*
X6090Y24523D01*
Y24373D01*
X5715Y23998D02*X6090Y24373D01*
X5715Y23998D02*X6090D01*
X6270Y24073D02*X6345Y23998D01*
X6270Y24523D02*Y24073D01*
Y24523D02*X6345Y24598D01*
X6495D01*
X6570Y24523D01*
Y24073D01*
X6495Y23998D02*X6570Y24073D01*
X6345Y23998D02*X6495D01*
X6270Y24148D02*X6570Y24448D01*
X4500Y23672D02*X6750D01*
X300Y26098D02*X375Y26023D01*
X75Y26098D02*X300D01*
X0Y26023D02*X75Y26098D01*
X0Y26023D02*Y25873D01*
X75Y25798D01*
X300D01*
X375Y25723D01*
Y25573D01*
X300Y25498D02*X375Y25573D01*
X75Y25498D02*X300D01*
X0Y25573D02*X75Y25498D01*
X555Y25798D02*Y25573D01*
X630Y25498D01*
X855Y25798D02*Y25348D01*
X780Y25273D02*X855Y25348D01*
X630Y25273D02*X780D01*
X555Y25348D02*X630Y25273D01*
Y25498D02*X780D01*
X855Y25573D01*
X1110Y25723D02*Y25498D01*
Y25723D02*X1185Y25798D01*
X1260D01*
X1335Y25723D01*
Y25498D01*
Y25723D02*X1410Y25798D01*
X1485D01*
X1560Y25723D01*
Y25498D01*
X1035Y25798D02*X1110Y25723D01*
X1740Y26098D02*Y25498D01*
Y25573D02*X1815Y25498D01*
X1965D01*
X2040Y25573D01*
Y25723D02*Y25573D01*
X1965Y25798D02*X2040Y25723D01*
X1815Y25798D02*X1965D01*
X1740Y25723D02*X1815Y25798D01*
X2220Y25723D02*Y25573D01*
Y25723D02*X2295Y25798D01*
X2445D01*
X2520Y25723D01*
Y25573D01*
X2445Y25498D02*X2520Y25573D01*
X2295Y25498D02*X2445D01*
X2220Y25573D02*X2295Y25498D01*
X2700Y26098D02*Y25573D01*
X2775Y25498D01*
X4175Y26098D02*Y25498D01*
X4400Y26098D02*X4475Y26023D01*
Y25573D01*
X4400Y25498D02*X4475Y25573D01*
X4100Y25498D02*X4400D01*
X4100Y26098D02*X4400D01*
X4655Y25948D02*Y25873D01*
Y25723D02*Y25498D01*
X5030Y25798D02*X5105Y25723D01*
X4880Y25798D02*X5030D01*
X4805Y25723D02*X4880Y25798D01*
X4805Y25723D02*Y25573D01*
X4880Y25498D01*
X5105Y25798D02*Y25573D01*
X5180Y25498D01*
X4880D02*X5030D01*
X5105Y25573D01*
X5435Y25723D02*Y25498D01*
Y25723D02*X5510Y25798D01*
X5585D01*
X5660Y25723D01*
Y25498D01*
Y25723D02*X5735Y25798D01*
X5810D01*
X5885Y25723D01*
Y25498D01*
X5360Y25798D02*X5435Y25723D01*
X6065Y25498D02*X6140D01*
X6590Y25573D02*X6665Y25498D01*
X6590Y26023D02*X6665Y26098D01*
X6590Y26023D02*Y25573D01*
X6845Y26098D02*X6995D01*
X6920D02*Y25498D01*
X6845D02*X6995D01*
X7251Y25723D02*Y25498D01*
Y25723D02*X7326Y25798D01*
X7401D01*
X7476Y25723D01*
Y25498D01*
X7176Y25798D02*X7251Y25723D01*
X7731Y25798D02*X7956D01*
X7656Y25723D02*X7731Y25798D01*
X7656Y25723D02*Y25573D01*
X7731Y25498D01*
X7956D01*
X8136Y26098D02*Y25498D01*
Y25723D02*X8211Y25798D01*
X8361D01*
X8436Y25723D01*
Y25498D01*
X8616Y26098D02*X8691Y26023D01*
Y25573D01*
X8616Y25498D02*X8691Y25573D01*
X9575Y25498D02*X9800D01*
X9500Y25573D02*X9575Y25498D01*
X9500Y26023D02*Y25573D01*
Y26023D02*X9575Y26098D01*
X9800D01*
X9980Y25723D02*Y25573D01*
Y25723D02*X10055Y25798D01*
X10205D01*
X10280Y25723D01*
Y25573D01*
X10205Y25498D02*X10280Y25573D01*
X10055Y25498D02*X10205D01*
X9980Y25573D02*X10055Y25498D01*
X10460Y25798D02*Y25573D01*
X10535Y25498D01*
X10685D01*
X10760Y25573D01*
Y25798D02*Y25573D01*
X11015Y25723D02*Y25498D01*
Y25723D02*X11090Y25798D01*
X11165D01*
X11240Y25723D01*
Y25498D01*
X10940Y25798D02*X11015Y25723D01*
X11495Y26098D02*Y25573D01*
X11570Y25498D01*
X11420Y25873D02*X11570D01*
X13075Y26098D02*Y25498D01*
X13000Y26098D02*X13300D01*
X13375Y26023D01*
Y25873D01*
X13300Y25798D02*X13375Y25873D01*
X13075Y25798D02*X13300D01*
X13555Y26098D02*Y25573D01*
X13630Y25498D01*
X14005Y25798D02*X14080Y25723D01*
X13855Y25798D02*X14005D01*
X13780Y25723D02*X13855Y25798D01*
X13780Y25723D02*Y25573D01*
X13855Y25498D01*
X14080Y25798D02*Y25573D01*
X14155Y25498D01*
X13855D02*X14005D01*
X14080Y25573D01*
X14410Y26098D02*Y25573D01*
X14485Y25498D01*
X14335Y25873D02*X14485D01*
X14710Y25498D02*X14935D01*
X14635Y25573D02*X14710Y25498D01*
X14635Y25723D02*Y25573D01*
Y25723D02*X14710Y25798D01*
X14860D01*
X14935Y25723D01*
X14635Y25648D02*X14935D01*
Y25723D02*Y25648D01*
X15415Y26098D02*Y25498D01*
X15340D02*X15415Y25573D01*
X15190Y25498D02*X15340D01*
X15115Y25573D02*X15190Y25498D01*
X15115Y25723D02*Y25573D01*
Y25723D02*X15190Y25798D01*
X15340D01*
X15415Y25723D01*
X15745Y25798D02*Y25723D01*
Y25573D02*Y25498D01*
X15595Y26023D02*Y25948D01*
Y26023D02*X15670Y26098D01*
X15820D01*
X15895Y26023D01*
Y25948D01*
X15745Y25798D02*X15895Y25948D01*
X0Y27598D02*X300D01*
X150D02*Y26998D01*
X480Y27598D02*Y26998D01*
Y27223D02*X555Y27298D01*
X705D01*
X780Y27223D01*
Y26998D01*
X1035D02*X1260D01*
X960Y27073D02*X1035Y26998D01*
X960Y27223D02*Y27073D01*
Y27223D02*X1035Y27298D01*
X1185D01*
X1260Y27223D01*
X960Y27148D02*X1260D01*
Y27223D02*Y27148D01*
X1515Y27223D02*Y26998D01*
Y27223D02*X1590Y27298D01*
X1740D01*
X1440D02*X1515Y27223D01*
X1995Y26998D02*X2220D01*
X1920Y27073D02*X1995Y26998D01*
X1920Y27223D02*Y27073D01*
Y27223D02*X1995Y27298D01*
X2145D01*
X2220Y27223D01*
X1920Y27148D02*X2220D01*
Y27223D02*Y27148D01*
X2895Y27298D02*X2970Y27223D01*
X2745Y27298D02*X2895D01*
X2670Y27223D02*X2745Y27298D01*
X2670Y27223D02*Y27073D01*
X2745Y26998D01*
X2970Y27298D02*Y27073D01*
X3045Y26998D01*
X2745D02*X2895D01*
X2970Y27073D01*
X3300Y27223D02*Y26998D01*
Y27223D02*X3375Y27298D01*
X3525D01*
X3225D02*X3300Y27223D01*
X3781Y26998D02*X4006D01*
X3706Y27073D02*X3781Y26998D01*
X3706Y27223D02*Y27073D01*
Y27223D02*X3781Y27298D01*
X3931D01*
X4006Y27223D01*
X3706Y27148D02*X4006D01*
Y27223D02*Y27148D01*
X4681Y27598D02*X4756Y27523D01*
X4531Y27598D02*X4681D01*
X4456Y27523D02*X4531Y27598D01*
X4456Y27523D02*Y27073D01*
X4531Y26998D01*
X4681Y27298D02*X4756Y27223D01*
X4456Y27298D02*X4681D01*
X4531Y26998D02*X4681D01*
X4756Y27073D01*
Y27223D02*Y27073D01*
X5506Y27598D02*Y26998D01*
X5431D02*X5506Y27073D01*
X5281Y26998D02*X5431D01*
X5206Y27073D02*X5281Y26998D01*
X5206Y27223D02*Y27073D01*
Y27223D02*X5281Y27298D01*
X5431D01*
X5506Y27223D01*
X5686Y27448D02*Y27373D01*
Y27223D02*Y26998D01*
X5911Y27523D02*Y26998D01*
Y27523D02*X5986Y27598D01*
X6061D01*
X5836Y27298D02*X5986D01*
X6286Y27523D02*Y26998D01*
Y27523D02*X6361Y27598D01*
X6436D01*
X6211Y27298D02*X6361D01*
X6661Y26998D02*X6886D01*
X6586Y27073D02*X6661Y26998D01*
X6586Y27223D02*Y27073D01*
Y27223D02*X6661Y27298D01*
X6811D01*
X6886Y27223D01*
X6586Y27148D02*X6886D01*
Y27223D02*Y27148D01*
X7142Y27223D02*Y26998D01*
Y27223D02*X7217Y27298D01*
X7367D01*
X7067D02*X7142Y27223D01*
X7622Y26998D02*X7847D01*
X7547Y27073D02*X7622Y26998D01*
X7547Y27223D02*Y27073D01*
Y27223D02*X7622Y27298D01*
X7772D01*
X7847Y27223D01*
X7547Y27148D02*X7847D01*
Y27223D02*Y27148D01*
X8102Y27223D02*Y26998D01*
Y27223D02*X8177Y27298D01*
X8252D01*
X8327Y27223D01*
Y26998D01*
X8027Y27298D02*X8102Y27223D01*
X8582Y27598D02*Y27073D01*
X8657Y26998D01*
X8507Y27373D02*X8657D01*
X9377Y27598D02*Y26998D01*
X9302D02*X9377Y27073D01*
X9152Y26998D02*X9302D01*
X9077Y27073D02*X9152Y26998D01*
X9077Y27223D02*Y27073D01*
Y27223D02*X9152Y27298D01*
X9302D01*
X9377Y27223D01*
X9632D02*Y26998D01*
Y27223D02*X9707Y27298D01*
X9857D01*
X9557D02*X9632Y27223D01*
X10038Y27448D02*Y27373D01*
Y27223D02*Y26998D01*
X10188Y27598D02*Y27073D01*
X10263Y26998D01*
X10413Y27598D02*Y27073D01*
X10488Y26998D01*
X10983D02*X11208D01*
X11283Y27073D01*
X11208Y27148D02*X11283Y27073D01*
X10983Y27148D02*X11208D01*
X10908Y27223D02*X10983Y27148D01*
X10908Y27223D02*X10983Y27298D01*
X11208D01*
X11283Y27223D01*
X10908Y27073D02*X10983Y26998D01*
X11463Y27448D02*Y27373D01*
Y27223D02*Y26998D01*
X11613Y27298D02*X11913D01*
X11613Y26998D02*X11913Y27298D01*
X11613Y26998D02*X11913D01*
X12168D02*X12393D01*
X12093Y27073D02*X12168Y26998D01*
X12093Y27223D02*Y27073D01*
Y27223D02*X12168Y27298D01*
X12318D01*
X12393Y27223D01*
X12093Y27148D02*X12393D01*
Y27223D02*Y27148D01*
X12649Y26998D02*X12874D01*
X12949Y27073D01*
X12874Y27148D02*X12949Y27073D01*
X12649Y27148D02*X12874D01*
X12574Y27223D02*X12649Y27148D01*
X12574Y27223D02*X12649Y27298D01*
X12874D01*
X12949Y27223D01*
X12574Y27073D02*X12649Y26998D01*
X13399Y27298D02*Y27073D01*
X13474Y26998D01*
X13624D01*
X13699Y27073D01*
Y27298D02*Y27073D01*
X13954Y26998D02*X14179D01*
X14254Y27073D01*
X14179Y27148D02*X14254Y27073D01*
X13954Y27148D02*X14179D01*
X13879Y27223D02*X13954Y27148D01*
X13879Y27223D02*X13954Y27298D01*
X14179D01*
X14254Y27223D01*
X13879Y27073D02*X13954Y26998D01*
X14509D02*X14734D01*
X14434Y27073D02*X14509Y26998D01*
X14434Y27223D02*Y27073D01*
Y27223D02*X14509Y27298D01*
X14659D01*
X14734Y27223D01*
X14434Y27148D02*X14734D01*
Y27223D02*Y27148D01*
X15214Y27598D02*Y26998D01*
X15139D02*X15214Y27073D01*
X14989Y26998D02*X15139D01*
X14914Y27073D02*X14989Y26998D01*
X14914Y27223D02*Y27073D01*
Y27223D02*X14989Y27298D01*
X15139D01*
X15214Y27223D01*
X15664Y27448D02*Y27373D01*
Y27223D02*Y26998D01*
X15889Y27223D02*Y26998D01*
Y27223D02*X15964Y27298D01*
X16039D01*
X16114Y27223D01*
Y26998D01*
X15814Y27298D02*X15889Y27223D01*
X16640Y27598D02*Y27073D01*
X16715Y26998D01*
X16565Y27373D02*X16715D01*
X16865Y27598D02*Y26998D01*
Y27223D02*X16940Y27298D01*
X17090D01*
X17165Y27223D01*
Y26998D01*
X17345Y27448D02*Y27373D01*
Y27223D02*Y26998D01*
X17570D02*X17795D01*
X17870Y27073D01*
X17795Y27148D02*X17870Y27073D01*
X17570Y27148D02*X17795D01*
X17495Y27223D02*X17570Y27148D01*
X17495Y27223D02*X17570Y27298D01*
X17795D01*
X17870Y27223D01*
X17495Y27073D02*X17570Y26998D01*
X18320Y27598D02*Y27073D01*
X18395Y26998D01*
X18770Y27298D02*X18845Y27223D01*
X18620Y27298D02*X18770D01*
X18545Y27223D02*X18620Y27298D01*
X18545Y27223D02*Y27073D01*
X18620Y26998D01*
X18845Y27298D02*Y27073D01*
X18920Y26998D01*
X18620D02*X18770D01*
X18845Y27073D01*
X19101Y27298D02*Y27073D01*
X19176Y26998D01*
X19401Y27298D02*Y26848D01*
X19326Y26773D02*X19401Y26848D01*
X19176Y26773D02*X19326D01*
X19101Y26848D02*X19176Y26773D01*
Y26998D02*X19326D01*
X19401Y27073D01*
X19581Y27223D02*Y27073D01*
Y27223D02*X19656Y27298D01*
X19806D01*
X19881Y27223D01*
Y27073D01*
X19806Y26998D02*X19881Y27073D01*
X19656Y26998D02*X19806D01*
X19581Y27073D02*X19656Y26998D01*
X20061Y27298D02*Y27073D01*
X20136Y26998D01*
X20286D01*
X20361Y27073D01*
Y27298D02*Y27073D01*
X20616Y27598D02*Y27073D01*
X20691Y26998D01*
X20541Y27373D02*X20691D01*
X20841Y26848D02*X20991Y26998D01*
X21441Y27523D02*X21516Y27598D01*
X21741D01*
X21816Y27523D01*
Y27373D01*
X21441Y26998D02*X21816Y27373D01*
X21441Y26998D02*X21816D01*
X22071D02*X22221D01*
X22146Y27598D02*Y26998D01*
X21996Y27448D02*X22146Y27598D01*
X22402D02*X22702D01*
X22402D02*Y27298D01*
X22477Y27373D01*
X22627D01*
X22702Y27298D01*
Y27073D01*
X22627Y26998D02*X22702Y27073D01*
X22477Y26998D02*X22627D01*
X22402Y27073D02*X22477Y26998D01*
X23152Y27598D02*Y26998D01*
Y27223D02*X23227Y27298D01*
X23377D01*
X23452Y27223D01*
Y26998D01*
X23632Y27223D02*Y27073D01*
Y27223D02*X23707Y27298D01*
X23857D01*
X23932Y27223D01*
Y27073D01*
X23857Y26998D02*X23932Y27073D01*
X23707Y26998D02*X23857D01*
X23632Y27073D02*X23707Y26998D01*
X24112Y27598D02*Y27073D01*
X24187Y26998D01*
X24412D02*X24637D01*
X24337Y27073D02*X24412Y26998D01*
X24337Y27223D02*Y27073D01*
Y27223D02*X24412Y27298D01*
X24562D01*
X24637Y27223D01*
X24337Y27148D02*X24637D01*
Y27223D02*Y27148D01*
X24892Y26998D02*X25117D01*
X25192Y27073D01*
X25117Y27148D02*X25192Y27073D01*
X24892Y27148D02*X25117D01*
X24817Y27223D02*X24892Y27148D01*
X24817Y27223D02*X24892Y27298D01*
X25117D01*
X25192Y27223D01*
X24817Y27073D02*X24892Y26998D01*
X25717Y27598D02*Y27073D01*
X25792Y26998D01*
X25642Y27373D02*X25792D01*
X25943Y27223D02*Y27073D01*
Y27223D02*X26018Y27298D01*
X26168D01*
X26243Y27223D01*
Y27073D01*
X26168Y26998D02*X26243Y27073D01*
X26018Y26998D02*X26168D01*
X25943Y27073D02*X26018Y26998D01*
X26498Y27598D02*Y27073D01*
X26573Y26998D01*
X26423Y27373D02*X26573D01*
X26948Y27298D02*X27023Y27223D01*
X26798Y27298D02*X26948D01*
X26723Y27223D02*X26798Y27298D01*
X26723Y27223D02*Y27073D01*
X26798Y26998D01*
X27023Y27298D02*Y27073D01*
X27098Y26998D01*
X26798D02*X26948D01*
X27023Y27073D01*
X27278Y27598D02*Y27073D01*
X27353Y26998D01*
G54D13*X0Y15748D02*X31496D01*
X0D02*Y0D01*
X31496Y15748D02*Y0D01*
X0D02*X31496D01*
G54D57*X20000Y17098D02*Y16498D01*
Y17098D02*X20225Y16873D01*
X20450Y17098D01*
Y16498D01*
X20855Y16798D02*X20930Y16723D01*
X20705Y16798D02*X20855D01*
X20630Y16723D02*X20705Y16798D01*
X20630Y16723D02*Y16573D01*
X20705Y16498D01*
X20930Y16798D02*Y16573D01*
X21005Y16498D01*
X20705D02*X20855D01*
X20930Y16573D01*
X21185Y16798D02*X21485Y16498D01*
X21185D02*X21485Y16798D01*
X21665Y16948D02*Y16873D01*
Y16723D02*Y16498D01*
X21890Y16723D02*Y16498D01*
Y16723D02*X21965Y16798D01*
X22040D01*
X22115Y16723D01*
Y16498D01*
Y16723D02*X22190Y16798D01*
X22265D01*
X22340Y16723D01*
Y16498D01*
X21815Y16798D02*X21890Y16723D01*
X22520Y16798D02*Y16573D01*
X22595Y16498D01*
X22745D01*
X22820Y16573D01*
Y16798D02*Y16573D01*
X23075Y16723D02*Y16498D01*
Y16723D02*X23150Y16798D01*
X23225D01*
X23300Y16723D01*
Y16498D01*
Y16723D02*X23375Y16798D01*
X23450D01*
X23525Y16723D01*
Y16498D01*
X23000Y16798D02*X23075Y16723D01*
X24051Y17098D02*Y16498D01*
X24276Y17098D02*X24351Y17023D01*
Y16573D01*
X24276Y16498D02*X24351Y16573D01*
X23976Y16498D02*X24276D01*
X23976Y17098D02*X24276D01*
X24531Y16948D02*Y16873D01*
Y16723D02*Y16498D01*
X24756Y16723D02*Y16498D01*
Y16723D02*X24831Y16798D01*
X24906D01*
X24981Y16723D01*
Y16498D01*
Y16723D02*X25056Y16798D01*
X25131D01*
X25206Y16723D01*
Y16498D01*
X24681Y16798D02*X24756Y16723D01*
X25461Y16498D02*X25686D01*
X25386Y16573D02*X25461Y16498D01*
X25386Y16723D02*Y16573D01*
Y16723D02*X25461Y16798D01*
X25611D01*
X25686Y16723D01*
X25386Y16648D02*X25686D01*
Y16723D02*Y16648D01*
X25941Y16723D02*Y16498D01*
Y16723D02*X26016Y16798D01*
X26091D01*
X26166Y16723D01*
Y16498D01*
X25866Y16798D02*X25941Y16723D01*
X26421Y16498D02*X26646D01*
X26721Y16573D01*
X26646Y16648D02*X26721Y16573D01*
X26421Y16648D02*X26646D01*
X26346Y16723D02*X26421Y16648D01*
X26346Y16723D02*X26421Y16798D01*
X26646D01*
X26721Y16723D01*
X26346Y16573D02*X26421Y16498D01*
X26901Y16948D02*Y16873D01*
Y16723D02*Y16498D01*
X27052Y16723D02*Y16573D01*
Y16723D02*X27127Y16798D01*
X27277D01*
X27352Y16723D01*
Y16573D01*
X27277Y16498D02*X27352Y16573D01*
X27127Y16498D02*X27277D01*
X27052Y16573D02*X27127Y16498D01*
X27607Y16723D02*Y16498D01*
Y16723D02*X27682Y16798D01*
X27757D01*
X27832Y16723D01*
Y16498D01*
X27532Y16798D02*X27607Y16723D01*
X28087Y16498D02*X28312D01*
X28387Y16573D01*
X28312Y16648D02*X28387Y16573D01*
X28087Y16648D02*X28312D01*
X28012Y16723D02*X28087Y16648D01*
X28012Y16723D02*X28087Y16798D01*
X28312D01*
X28387Y16723D01*
X28012Y16573D02*X28087Y16498D01*
X28567Y16873D02*X28642D01*
X28567Y16723D02*X28642D01*
X29092Y17023D02*X29167Y17098D01*
X29317D01*
X29392Y17023D01*
Y16573D01*
X29317Y16498D02*X29392Y16573D01*
X29167Y16498D02*X29317D01*
X29092Y16573D02*X29167Y16498D01*
Y16798D02*X29392D01*
X29647Y16498D02*X29797D01*
X29722Y17098D02*Y16498D01*
X29572Y16948D02*X29722Y17098D01*
X29978Y16798D02*X30278Y17098D01*
X29978Y16798D02*X30353D01*
X30278Y17098D02*Y16498D01*
X30533D02*X30833Y16798D01*
Y17023D02*Y16798D01*
X30758Y17098D02*X30833Y17023D01*
X30608Y17098D02*X30758D01*
X30533Y17023D02*X30608Y17098D01*
X30533Y17023D02*Y16873D01*
X30608Y16798D01*
X30833D01*
X31358Y16723D02*Y16498D01*
Y16723D02*X31433Y16798D01*
X31508D01*
X31583Y16723D01*
Y16498D01*
Y16723D02*X31658Y16798D01*
X31733D01*
X31808Y16723D01*
Y16498D01*
X31283Y16798D02*X31358Y16723D01*
X31988Y16948D02*Y16873D01*
Y16723D02*Y16498D01*
X32138Y17098D02*Y16573D01*
X32213Y16498D01*
X32438D02*X32663D01*
X32738Y16573D01*
X32663Y16648D02*X32738Y16573D01*
X32438Y16648D02*X32663D01*
X32363Y16723D02*X32438Y16648D01*
X32363Y16723D02*X32438Y16798D01*
X32663D01*
X32738Y16723D01*
X32363Y16573D02*X32438Y16498D01*
X33188Y16798D02*Y16573D01*
X33263Y16498D01*
X33338D01*
X33413Y16573D01*
Y16798D02*Y16573D01*
X33488Y16498D01*
X33563D01*
X33638Y16573D01*
Y16798D02*Y16573D01*
X33819Y16948D02*Y16873D01*
Y16723D02*Y16498D01*
X34269Y17098D02*Y16498D01*
X34194D02*X34269Y16573D01*
X34044Y16498D02*X34194D01*
X33969Y16573D02*X34044Y16498D01*
X33969Y16723D02*Y16573D01*
Y16723D02*X34044Y16798D01*
X34194D01*
X34269Y16723D01*
X34524Y16498D02*X34749D01*
X34449Y16573D02*X34524Y16498D01*
X34449Y16723D02*Y16573D01*
Y16723D02*X34524Y16798D01*
X34674D01*
X34749Y16723D01*
X34449Y16648D02*X34749D01*
Y16723D02*Y16648D01*
X34929Y16348D02*X35079Y16498D01*
X35604D02*X35754D01*
X35679Y17098D02*Y16498D01*
X35529Y16948D02*X35679Y17098D01*
X35934D02*X36234D01*
X35934D02*Y16798D01*
X36009Y16873D01*
X36159D01*
X36234Y16798D01*
Y16573D01*
X36159Y16498D02*X36234Y16573D01*
X36009Y16498D02*X36159D01*
X35934Y16573D02*X36009Y16498D01*
X36414D02*X36789Y16873D01*
Y17098D02*Y16873D01*
X36414Y17098D02*X36789D01*
X36970Y16798D02*X37270Y17098D01*
X36970Y16798D02*X37345D01*
X37270Y17098D02*Y16498D01*
X37870Y16723D02*Y16498D01*
Y16723D02*X37945Y16798D01*
X38020D01*
X38095Y16723D01*
Y16498D01*
Y16723D02*X38170Y16798D01*
X38245D01*
X38320Y16723D01*
Y16498D01*
X37795Y16798D02*X37870Y16723D01*
X38500Y16948D02*Y16873D01*
Y16723D02*Y16498D01*
X38650Y17098D02*Y16573D01*
X38725Y16498D01*
X38950D02*X39175D01*
X39250Y16573D01*
X39175Y16648D02*X39250Y16573D01*
X38950Y16648D02*X39175D01*
X38875Y16723D02*X38950Y16648D01*
X38875Y16723D02*X38950Y16798D01*
X39175D01*
X39250Y16723D01*
X38875Y16573D02*X38950Y16498D01*
X39700Y17098D02*Y16498D01*
Y16723D02*X39775Y16798D01*
X39925D01*
X40000Y16723D01*
Y16498D01*
X40181Y16948D02*Y16873D01*
Y16723D02*Y16498D01*
X40556Y16798D02*X40631Y16723D01*
X40406Y16798D02*X40556D01*
X40331Y16723D02*X40406Y16798D01*
X40331Y16723D02*Y16573D01*
X40406Y16498D01*
X40556D01*
X40631Y16573D01*
X40331Y16348D02*X40406Y16273D01*
X40556D01*
X40631Y16348D01*
Y16798D02*Y16348D01*
X40811Y17098D02*Y16498D01*
Y16723D02*X40886Y16798D01*
X41036D01*
X41111Y16723D01*
Y16498D01*
X0Y-950D02*X300D01*
X375Y-875D01*
Y-725D02*Y-875D01*
X300Y-650D02*X375Y-725D01*
X75Y-650D02*X300D01*
X75Y-350D02*Y-950D01*
X0Y-350D02*X300D01*
X375Y-425D01*
Y-575D01*
X300Y-650D02*X375Y-575D01*
X555Y-725D02*Y-875D01*
Y-725D02*X630Y-650D01*
X780D01*
X855Y-725D01*
Y-875D01*
X780Y-950D02*X855Y-875D01*
X630Y-950D02*X780D01*
X555Y-875D02*X630Y-950D01*
X1260Y-650D02*X1335Y-725D01*
X1110Y-650D02*X1260D01*
X1035Y-725D02*X1110Y-650D01*
X1035Y-725D02*Y-875D01*
X1110Y-950D01*
X1335Y-650D02*Y-875D01*
X1410Y-950D01*
X1110D02*X1260D01*
X1335Y-875D01*
X1665Y-725D02*Y-950D01*
Y-725D02*X1740Y-650D01*
X1890D01*
X1590D02*X1665Y-725D01*
X2370Y-350D02*Y-950D01*
X2295D02*X2370Y-875D01*
X2145Y-950D02*X2295D01*
X2070Y-875D02*X2145Y-950D01*
X2070Y-725D02*Y-875D01*
Y-725D02*X2145Y-650D01*
X2295D01*
X2370Y-725D01*
X2820D02*Y-875D01*
Y-725D02*X2895Y-650D01*
X3045D01*
X3120Y-725D01*
Y-875D01*
X3045Y-950D02*X3120Y-875D01*
X2895Y-950D02*X3045D01*
X2820Y-875D02*X2895Y-950D01*
X3300Y-650D02*Y-875D01*
X3375Y-950D01*
X3525D01*
X3600Y-875D01*
Y-650D02*Y-875D01*
X3856Y-350D02*Y-875D01*
X3931Y-950D01*
X3781Y-575D02*X3931D01*
X4081Y-350D02*Y-875D01*
X4156Y-950D01*
X4306Y-500D02*Y-575D01*
Y-725D02*Y-950D01*
X4531Y-725D02*Y-950D01*
Y-725D02*X4606Y-650D01*
X4681D01*
X4756Y-725D01*
Y-950D01*
X4456Y-650D02*X4531Y-725D01*
X5011Y-950D02*X5236D01*
X4936Y-875D02*X5011Y-950D01*
X4936Y-725D02*Y-875D01*
Y-725D02*X5011Y-650D01*
X5161D01*
X5236Y-725D01*
X4936Y-800D02*X5236D01*
Y-725D02*Y-800D01*
X5686Y-500D02*Y-575D01*
Y-725D02*Y-950D01*
X5911D02*X6136D01*
X6211Y-875D01*
X6136Y-800D02*X6211Y-875D01*
X5911Y-800D02*X6136D01*
X5836Y-725D02*X5911Y-800D01*
X5836Y-725D02*X5911Y-650D01*
X6136D01*
X6211Y-725D01*
X5836Y-875D02*X5911Y-950D01*
X6737Y-350D02*Y-875D01*
X6812Y-950D01*
X6662Y-575D02*X6812D01*
X6962Y-350D02*Y-950D01*
Y-725D02*X7037Y-650D01*
X7187D01*
X7262Y-725D01*
Y-950D01*
X7517D02*X7742D01*
X7442Y-875D02*X7517Y-950D01*
X7442Y-725D02*Y-875D01*
Y-725D02*X7517Y-650D01*
X7667D01*
X7742Y-725D01*
X7442Y-800D02*X7742D01*
Y-725D02*Y-800D01*
X8267Y-650D02*X8492D01*
X8192Y-725D02*X8267Y-650D01*
X8192Y-725D02*Y-875D01*
X8267Y-950D01*
X8492D01*
X8747D02*X8972D01*
X8672Y-875D02*X8747Y-950D01*
X8672Y-725D02*Y-875D01*
Y-725D02*X8747Y-650D01*
X8897D01*
X8972Y-725D01*
X8672Y-800D02*X8972D01*
Y-725D02*Y-800D01*
X9227Y-725D02*Y-950D01*
Y-725D02*X9302Y-650D01*
X9377D01*
X9452Y-725D01*
Y-950D01*
X9152Y-650D02*X9227Y-725D01*
X9708Y-350D02*Y-875D01*
X9783Y-950D01*
X9633Y-575D02*X9783D01*
X10008Y-950D02*X10233D01*
X9933Y-875D02*X10008Y-950D01*
X9933Y-725D02*Y-875D01*
Y-725D02*X10008Y-650D01*
X10158D01*
X10233Y-725D01*
X9933Y-800D02*X10233D01*
Y-725D02*Y-800D01*
X10488Y-725D02*Y-950D01*
Y-725D02*X10563Y-650D01*
X10713D01*
X10413D02*X10488Y-725D01*
X10893Y-350D02*Y-875D01*
X10968Y-950D01*
X11118Y-500D02*Y-575D01*
Y-725D02*Y-950D01*
X11343Y-725D02*Y-950D01*
Y-725D02*X11418Y-650D01*
X11493D01*
X11568Y-725D01*
Y-950D01*
X11268Y-650D02*X11343Y-725D01*
X11823Y-950D02*X12048D01*
X11748Y-875D02*X11823Y-950D01*
X11748Y-725D02*Y-875D01*
Y-725D02*X11823Y-650D01*
X11973D01*
X12048Y-725D01*
X11748Y-800D02*X12048D01*
Y-725D02*Y-800D01*
X12499Y-725D02*Y-875D01*
Y-725D02*X12574Y-650D01*
X12724D01*
X12799Y-725D01*
Y-875D01*
X12724Y-950D02*X12799Y-875D01*
X12574Y-950D02*X12724D01*
X12499Y-875D02*X12574Y-950D01*
X13054Y-425D02*Y-950D01*
Y-425D02*X13129Y-350D01*
X13204D01*
X12979Y-650D02*X13129D01*
X13699Y-350D02*Y-875D01*
X13774Y-950D01*
X13624Y-575D02*X13774D01*
X13924Y-350D02*Y-950D01*
Y-725D02*X13999Y-650D01*
X14149D01*
X14224Y-725D01*
Y-950D01*
X14404Y-500D02*Y-575D01*
Y-725D02*Y-950D01*
X14629D02*X14854D01*
X14929Y-875D01*
X14854Y-800D02*X14929Y-875D01*
X14629Y-800D02*X14854D01*
X14554Y-725D02*X14629Y-800D01*
X14554Y-725D02*X14629Y-650D01*
X14854D01*
X14929Y-725D01*
X14554Y-875D02*X14629Y-950D01*
X15454D02*X15604D01*
X15529Y-350D02*Y-950D01*
X15379Y-500D02*X15529Y-350D01*
X15785Y-875D02*X15860Y-950D01*
X15785Y-425D02*Y-875D01*
Y-425D02*X15860Y-350D01*
X16010D01*
X16085Y-425D01*
Y-875D01*
X16010Y-950D02*X16085Y-875D01*
X15860Y-950D02*X16010D01*
X15785Y-800D02*X16085Y-500D01*
X16610Y-725D02*Y-950D01*
Y-725D02*X16685Y-650D01*
X16760D01*
X16835Y-725D01*
Y-950D01*
Y-725D02*X16910Y-650D01*
X16985D01*
X17060Y-725D01*
Y-950D01*
X16535Y-650D02*X16610Y-725D01*
X17240Y-500D02*Y-575D01*
Y-725D02*Y-950D01*
X17390Y-350D02*Y-875D01*
X17465Y-950D01*
X17960Y-725D02*Y-950D01*
Y-725D02*X18035Y-650D01*
X18185D01*
X17885D02*X17960Y-725D01*
X18440Y-950D02*X18665D01*
X18365Y-875D02*X18440Y-950D01*
X18365Y-725D02*Y-875D01*
Y-725D02*X18440Y-650D01*
X18590D01*
X18665Y-725D01*
X18365Y-800D02*X18665D01*
Y-725D02*Y-800D01*
X18921Y-650D02*X19146D01*
X18846Y-725D02*X18921Y-650D01*
X18846Y-725D02*Y-875D01*
X18921Y-950D01*
X19146D01*
X19401Y-350D02*Y-875D01*
X19476Y-950D01*
X19326Y-575D02*X19476D01*
X19851Y-650D02*X19926Y-725D01*
X19701Y-650D02*X19851D01*
X19626Y-725D02*X19701Y-650D01*
X19626Y-725D02*Y-875D01*
X19701Y-950D01*
X19926Y-650D02*Y-875D01*
X20001Y-950D01*
X19701D02*X19851D01*
X19926Y-875D01*
X20256Y-725D02*Y-950D01*
Y-725D02*X20331Y-650D01*
X20406D01*
X20481Y-725D01*
Y-950D01*
X20181Y-650D02*X20256Y-725D01*
X20886Y-650D02*X20961Y-725D01*
X20736Y-650D02*X20886D01*
X20661Y-725D02*X20736Y-650D01*
X20661Y-725D02*Y-875D01*
X20736Y-950D01*
X20886D01*
X20961Y-875D01*
X20661Y-1100D02*X20736Y-1175D01*
X20886D01*
X20961Y-1100D01*
Y-650D02*Y-1100D01*
X21141Y-350D02*Y-875D01*
X21216Y-950D01*
X21441D02*X21666D01*
X21366Y-875D02*X21441Y-950D01*
X21366Y-725D02*Y-875D01*
Y-725D02*X21441Y-650D01*
X21591D01*
X21666Y-725D01*
X21366Y-800D02*X21666D01*
Y-725D02*Y-800D01*
X22117Y-650D02*X22417D01*
X22867Y-875D02*X22942Y-950D01*
X22867Y-425D02*Y-875D01*
Y-425D02*X22942Y-350D01*
X23092D01*
X23167Y-425D01*
Y-875D01*
X23092Y-950D02*X23167Y-875D01*
X22942Y-950D02*X23092D01*
X22867Y-800D02*X23167Y-500D01*
X23347Y-1100D02*X23497Y-950D01*
X23677Y-875D02*X23752Y-950D01*
X23677Y-425D02*Y-875D01*
Y-425D02*X23752Y-350D01*
X23902D01*
X23977Y-425D01*
Y-875D01*
X23902Y-950D02*X23977Y-875D01*
X23752Y-950D02*X23902D01*
X23677Y-800D02*X23977Y-500D01*
X24502Y-350D02*Y-875D01*
X24577Y-950D01*
X24427Y-575D02*X24577D01*
X24727Y-725D02*Y-875D01*
Y-725D02*X24802Y-650D01*
X24952D01*
X25027Y-725D01*
Y-875D01*
X24952Y-950D02*X25027Y-875D01*
X24802Y-950D02*X24952D01*
X24727Y-875D02*X24802Y-950D01*
X25477Y-425D02*X25552Y-350D01*
X25702D01*
X25777Y-425D01*
Y-875D01*
X25702Y-950D02*X25777Y-875D01*
X25552Y-950D02*X25702D01*
X25477Y-875D02*X25552Y-950D01*
Y-650D02*X25777D01*
X26033Y-950D02*X26183D01*
X26108Y-350D02*Y-950D01*
X25958Y-500D02*X26108Y-350D01*
X26363Y-650D02*X26663Y-350D01*
X26363Y-650D02*X26738D01*
X26663Y-350D02*Y-950D01*
X26918D02*X27218Y-650D01*
Y-425D02*Y-650D01*
X27143Y-350D02*X27218Y-425D01*
X26993Y-350D02*X27143D01*
X26918Y-425D02*X26993Y-350D01*
X26918Y-425D02*Y-575D01*
X26993Y-650D01*
X27218D01*
X27398Y-1100D02*X27548Y-950D01*
X27803D02*X27953D01*
X27878Y-350D02*Y-950D01*
X27728Y-500D02*X27878Y-350D01*
X28133D02*X28433D01*
X28133D02*Y-650D01*
X28208Y-575D01*
X28358D01*
X28433Y-650D01*
Y-875D01*
X28358Y-950D02*X28433Y-875D01*
X28208Y-950D02*X28358D01*
X28133Y-875D02*X28208Y-950D01*
X28614D02*X28989Y-575D01*
Y-350D02*Y-575D01*
X28614Y-350D02*X28989D01*
X29169Y-650D02*X29469Y-350D01*
X29169Y-650D02*X29544D01*
X29469Y-350D02*Y-950D01*
X30069Y-725D02*Y-950D01*
Y-725D02*X30144Y-650D01*
X30219D01*
X30294Y-725D01*
Y-950D01*
Y-725D02*X30369Y-650D01*
X30444D01*
X30519Y-725D01*
Y-950D01*
X29994Y-650D02*X30069Y-725D01*
X30699Y-500D02*Y-575D01*
Y-725D02*Y-950D01*
X30849Y-350D02*Y-875D01*
X30924Y-950D01*
X31149D02*X31374D01*
X31449Y-875D01*
X31374Y-800D02*X31449Y-875D01*
X31149Y-800D02*X31374D01*
X31074Y-725D02*X31149Y-800D01*
X31074Y-725D02*X31149Y-650D01*
X31374D01*
X31449Y-725D01*
X31074Y-875D02*X31149Y-950D01*
X20075Y18598D02*Y17998D01*
X20300Y18598D02*X20375Y18523D01*
Y18073D01*
X20300Y17998D02*X20375Y18073D01*
X20000Y17998D02*X20300D01*
X20000Y18598D02*X20300D01*
X20780Y18298D02*X20855Y18223D01*
X20630Y18298D02*X20780D01*
X20555Y18223D02*X20630Y18298D01*
X20555Y18223D02*Y18073D01*
X20630Y17998D01*
X20855Y18298D02*Y18073D01*
X20930Y17998D01*
X20630D02*X20780D01*
X20855Y18073D01*
X21185Y18598D02*Y18073D01*
X21260Y17998D01*
X21110Y18373D02*X21260D01*
X21485Y17998D02*X21710D01*
X21410Y18073D02*X21485Y17998D01*
X21410Y18223D02*Y18073D01*
Y18223D02*X21485Y18298D01*
X21635D01*
X21710Y18223D01*
X21410Y18148D02*X21710D01*
Y18223D02*Y18148D01*
X21890Y18373D02*X21965D01*
X21890Y18223D02*X21965D01*
X22715Y18598D02*X22790Y18523D01*
X22490Y18598D02*X22715D01*
X22415Y18523D02*X22490Y18598D01*
X22415Y18523D02*Y18373D01*
X22490Y18298D01*
X22715D01*
X22790Y18223D01*
Y18073D01*
X22715Y17998D02*X22790Y18073D01*
X22490Y17998D02*X22715D01*
X22415Y18073D02*X22490Y17998D01*
X22970Y18298D02*Y18073D01*
X23045Y17998D01*
X23195D01*
X23270Y18073D01*
Y18298D02*Y18073D01*
X23526Y18223D02*Y17998D01*
Y18223D02*X23601Y18298D01*
X23676D01*
X23751Y18223D01*
Y17998D01*
X23451Y18298D02*X23526Y18223D01*
X24201Y18523D02*Y17998D01*
Y18523D02*X24276Y18598D01*
X24501D01*
X24576Y18523D01*
Y17998D01*
X24201Y18298D02*X24576D01*
X24831Y18223D02*Y17773D01*
X24756Y18298D02*X24831Y18223D01*
X24906Y18298D01*
X25056D01*
X25131Y18223D01*
Y18073D01*
X25056Y17998D02*X25131Y18073D01*
X24906Y17998D02*X25056D01*
X24831Y18073D02*X24906Y17998D01*
X25386Y18223D02*Y17998D01*
Y18223D02*X25461Y18298D01*
X25611D01*
X25311D02*X25386Y18223D01*
X26556Y18598D02*X26631Y18523D01*
X26406Y18598D02*X26556D01*
X26331Y18523D02*X26406Y18598D01*
X26331Y18523D02*Y18073D01*
X26406Y17998D01*
X26556Y18298D02*X26631Y18223D01*
X26331Y18298D02*X26556D01*
X26406Y17998D02*X26556D01*
X26631Y18073D01*
Y18223D02*Y18073D01*
X27081D02*X27156Y17998D01*
X27081Y18523D02*Y18073D01*
Y18523D02*X27156Y18598D01*
X27306D01*
X27381Y18523D01*
Y18073D01*
X27306Y17998D02*X27381Y18073D01*
X27156Y17998D02*X27306D01*
X27081Y18148D02*X27381Y18448D01*
X27561Y17998D02*X27861Y18298D01*
Y18523D02*Y18298D01*
X27786Y18598D02*X27861Y18523D01*
X27636Y18598D02*X27786D01*
X27561Y18523D02*X27636Y18598D01*
X27561Y18523D02*Y18373D01*
X27636Y18298D01*
X27861D01*
X28042Y18373D02*X28117D01*
X28042Y18223D02*X28117D01*
X28297Y18298D02*X28597Y18598D01*
X28297Y18298D02*X28672D01*
X28597Y18598D02*Y17998D01*
X28852Y18598D02*X29152D01*
X28852D02*Y18298D01*
X28927Y18373D01*
X29077D01*
X29152Y18298D01*
Y18073D01*
X29077Y17998D02*X29152Y18073D01*
X28927Y17998D02*X29077D01*
X28852Y18073D02*X28927Y17998D01*
X29332Y18373D02*X29407D01*
X29332Y18223D02*X29407D01*
X29587Y18298D02*X29887Y18598D01*
X29587Y18298D02*X29962D01*
X29887Y18598D02*Y17998D01*
X30142Y18298D02*X30442Y18598D01*
X30142Y18298D02*X30517D01*
X30442Y18598D02*Y17998D01*
X30968Y18523D02*X31043Y18598D01*
X31268D01*
X31343Y18523D01*
Y18373D01*
X30968Y17998D02*X31343Y18373D01*
X30968Y17998D02*X31343D01*
X31523Y18073D02*X31598Y17998D01*
X31523Y18523D02*Y18073D01*
Y18523D02*X31598Y18598D01*
X31748D01*
X31823Y18523D01*
Y18073D01*
X31748Y17998D02*X31823Y18073D01*
X31598Y17998D02*X31748D01*
X31523Y18148D02*X31823Y18448D01*
X32003Y18073D02*X32078Y17998D01*
X32003Y18523D02*Y18073D01*
Y18523D02*X32078Y18598D01*
X32228D01*
X32303Y18523D01*
Y18073D01*
X32228Y17998D02*X32303Y18073D01*
X32078Y17998D02*X32228D01*
X32003Y18148D02*X32303Y18448D01*
X32483Y18073D02*X32558Y17998D01*
X32483Y18223D02*Y18073D01*
Y18223D02*X32558Y18298D01*
X32708D01*
X32783Y18223D01*
Y18073D01*
X32708Y17998D02*X32783Y18073D01*
X32558Y17998D02*X32708D01*
X32483Y18373D02*X32558Y18298D01*
X32483Y18523D02*Y18373D01*
Y18523D02*X32558Y18598D01*
X32708D01*
X32783Y18523D01*
Y18373D01*
X32708Y18298D02*X32783Y18373D01*
X33233Y18598D02*Y18073D01*
X33308Y17998D01*
X33458D01*
X33533Y18073D01*
Y18598D02*Y18073D01*
X33713Y18598D02*X34013D01*
X33863D02*Y17998D01*
X34268D02*X34493D01*
X34193Y18073D02*X34268Y17998D01*
X34193Y18523D02*Y18073D01*
Y18523D02*X34268Y18598D01*
X34493D01*
X20000Y20023D02*Y19498D01*
Y20023D02*X20075Y20098D01*
X20300D01*
X20375Y20023D01*
Y19498D01*
X20000Y19798D02*X20375D01*
X20555D02*Y19573D01*
X20630Y19498D01*
X20780D01*
X20855Y19573D01*
Y19798D02*Y19573D01*
X21110Y20098D02*Y19573D01*
X21185Y19498D01*
X21035Y19873D02*X21185D01*
X21335Y20098D02*Y19498D01*
Y19723D02*X21410Y19798D01*
X21560D01*
X21635Y19723D01*
Y19498D01*
X21815Y19723D02*Y19573D01*
Y19723D02*X21890Y19798D01*
X22040D01*
X22115Y19723D01*
Y19573D01*
X22040Y19498D02*X22115Y19573D01*
X21890Y19498D02*X22040D01*
X21815Y19573D02*X21890Y19498D01*
X22370Y19723D02*Y19498D01*
Y19723D02*X22445Y19798D01*
X22595D01*
X22295D02*X22370Y19723D01*
X22775Y19873D02*X22850D01*
X22775Y19723D02*X22850D01*
X23301Y19948D02*Y19873D01*
Y19723D02*Y19498D01*
X23526Y19723D02*Y19498D01*
Y19723D02*X23601Y19798D01*
X23676D01*
X23751Y19723D01*
Y19498D01*
X23451Y19798D02*X23526Y19723D01*
X24006Y19498D02*X24231D01*
X23931Y19573D02*X24006Y19498D01*
X23931Y19723D02*Y19573D01*
Y19723D02*X24006Y19798D01*
X24156D01*
X24231Y19723D01*
X23931Y19648D02*X24231D01*
Y19723D02*Y19648D01*
X24411Y19948D02*Y19873D01*
Y19723D02*Y19498D01*
X24636D02*X24861D01*
X24561Y19573D02*X24636Y19498D01*
X24561Y19723D02*Y19573D01*
Y19723D02*X24636Y19798D01*
X24786D01*
X24861Y19723D01*
X24561Y19648D02*X24861D01*
Y19723D02*Y19648D01*
X25041Y19798D02*Y19648D01*
X25191Y19498D01*
X25341Y19648D01*
Y19798D02*Y19648D01*
X20000Y21598D02*X20300D01*
X20150D02*Y20998D01*
X20480Y21448D02*Y21373D01*
Y21223D02*Y20998D01*
X20705Y21598D02*Y21073D01*
X20780Y20998D01*
X20630Y21373D02*X20780D01*
X20930Y21598D02*Y21073D01*
X21005Y20998D01*
X21230D02*X21455D01*
X21155Y21073D02*X21230Y20998D01*
X21155Y21223D02*Y21073D01*
Y21223D02*X21230Y21298D01*
X21380D01*
X21455Y21223D01*
X21155Y21148D02*X21455D01*
Y21223D02*Y21148D01*
X21635Y21373D02*X21710D01*
X21635Y21223D02*X21710D01*
X22235Y20998D02*X22460D01*
X22535Y21073D01*
X22460Y21148D02*X22535Y21073D01*
X22235Y21148D02*X22460D01*
X22160Y21223D02*X22235Y21148D01*
X22160Y21223D02*X22235Y21298D01*
X22460D01*
X22535Y21223D01*
X22160Y21073D02*X22235Y20998D01*
X22791Y21598D02*Y21073D01*
X22866Y20998D01*
X22716Y21373D02*X22866D01*
X23091Y21223D02*Y20998D01*
Y21223D02*X23166Y21298D01*
X23316D01*
X23016D02*X23091Y21223D01*
X23496Y21448D02*Y21373D01*
Y21223D02*Y20998D01*
X23646Y21598D02*Y20998D01*
Y21073D02*X23721Y20998D01*
X23871D01*
X23946Y21073D01*
Y21223D02*Y21073D01*
X23871Y21298D02*X23946Y21223D01*
X23721Y21298D02*X23871D01*
X23646Y21223D02*X23721Y21298D01*
X24126Y21223D02*Y21073D01*
Y21223D02*X24201Y21298D01*
X24351D01*
X24426Y21223D01*
Y21073D01*
X24351Y20998D02*X24426Y21073D01*
X24201Y20998D02*X24351D01*
X24126Y21073D02*X24201Y20998D01*
X24831Y21298D02*X24906Y21223D01*
X24681Y21298D02*X24831D01*
X24606Y21223D02*X24681Y21298D01*
X24606Y21223D02*Y21073D01*
X24681Y20998D01*
X24831D01*
X24906Y21073D01*
X24606Y20848D02*X24681Y20773D01*
X24831D01*
X24906Y20848D01*
Y21298D02*Y20848D01*
X25086Y20998D02*X25161D01*
X25417Y21223D02*Y20998D01*
Y21223D02*X25492Y21298D01*
X25567D01*
X25642Y21223D01*
Y20998D01*
Y21223D02*X25717Y21298D01*
X25792D01*
X25867Y21223D01*
Y20998D01*
X25342Y21298D02*X25417Y21223D01*
X26272Y21298D02*X26347Y21223D01*
X26122Y21298D02*X26272D01*
X26047Y21223D02*X26122Y21298D01*
X26047Y21223D02*Y21073D01*
X26122Y20998D01*
X26347Y21298D02*Y21073D01*
X26422Y20998D01*
X26122D02*X26272D01*
X26347Y21073D01*
X26602Y21448D02*Y21373D01*
Y21223D02*Y20998D01*
X26827Y21223D02*Y20998D01*
Y21223D02*X26902Y21298D01*
X26977D01*
X27052Y21223D01*
Y20998D01*
X26752Y21298D02*X26827Y21223D01*
X27232Y20998D02*X27532D01*
X27712Y21598D02*Y20998D01*
Y21073D02*X27787Y20998D01*
X27937D01*
X28012Y21073D01*
Y21223D02*Y21073D01*
X27937Y21298D02*X28012Y21223D01*
X27787Y21298D02*X27937D01*
X27712Y21223D02*X27787Y21298D01*
X28193Y21223D02*Y21073D01*
Y21223D02*X28268Y21298D01*
X28418D01*
X28493Y21223D01*
Y21073D01*
X28418Y20998D02*X28493Y21073D01*
X28268Y20998D02*X28418D01*
X28193Y21073D02*X28268Y20998D01*
X28898Y21298D02*X28973Y21223D01*
X28748Y21298D02*X28898D01*
X28673Y21223D02*X28748Y21298D01*
X28673Y21223D02*Y21073D01*
X28748Y20998D01*
X28973Y21298D02*Y21073D01*
X29048Y20998D01*
X28748D02*X28898D01*
X28973Y21073D01*
X29303Y21223D02*Y20998D01*
Y21223D02*X29378Y21298D01*
X29528D01*
X29228D02*X29303Y21223D01*
X30008Y21598D02*Y20998D01*
X29933D02*X30008Y21073D01*
X29783Y20998D02*X29933D01*
X29708Y21073D02*X29783Y20998D01*
X29708Y21223D02*Y21073D01*
Y21223D02*X29783Y21298D01*
X29933D01*
X30008Y21223D01*
X30188Y20998D02*X30263D01*
X30443Y21598D02*Y20998D01*
Y21073D02*X30518Y20998D01*
X30668D01*
X30743Y21073D01*
Y21223D02*Y21073D01*
X30668Y21298D02*X30743Y21223D01*
X30518Y21298D02*X30668D01*
X30443Y21223D02*X30518Y21298D01*
X30923Y21448D02*Y21373D01*
Y21223D02*Y20998D01*
X31149D02*X31374D01*
X31449Y21073D01*
X31374Y21148D02*X31449Y21073D01*
X31149Y21148D02*X31374D01*
X31074Y21223D02*X31149Y21148D01*
X31074Y21223D02*X31149Y21298D01*
X31374D01*
X31449Y21223D01*
X31074Y21073D02*X31149Y20998D01*
X31899Y21298D02*X32199D01*
X32649Y21598D02*Y20998D01*
Y21598D02*X32949D01*
X32649Y21298D02*X32874D01*
X33354D02*X33429Y21223D01*
X33204Y21298D02*X33354D01*
X33129Y21223D02*X33204Y21298D01*
X33129Y21223D02*Y21073D01*
X33204Y20998D01*
X33429Y21298D02*Y21073D01*
X33504Y20998D01*
X33204D02*X33354D01*
X33429Y21073D01*
X33684Y21598D02*Y20998D01*
Y21073D02*X33759Y20998D01*
X33909D01*
X33984Y21073D01*
Y21223D02*Y21073D01*
X33909Y21298D02*X33984Y21223D01*
X33759Y21298D02*X33909D01*
X33684Y21223D02*X33759Y21298D01*
X34239Y21223D02*Y20998D01*
Y21223D02*X34314Y21298D01*
X34464D01*
X34164D02*X34239Y21223D01*
X34644Y21448D02*Y21373D01*
Y21223D02*Y20998D01*
X34870Y21298D02*X35095D01*
X34795Y21223D02*X34870Y21298D01*
X34795Y21223D02*Y21073D01*
X34870Y20998D01*
X35095D01*
X35500Y21298D02*X35575Y21223D01*
X35350Y21298D02*X35500D01*
X35275Y21223D02*X35350Y21298D01*
X35275Y21223D02*Y21073D01*
X35350Y20998D01*
X35575Y21298D02*Y21073D01*
X35650Y20998D01*
X35350D02*X35500D01*
X35575Y21073D01*
X35905Y21598D02*Y21073D01*
X35980Y20998D01*
X35830Y21373D02*X35980D01*
X36130Y21448D02*Y21373D01*
Y21223D02*Y20998D01*
X36280Y21223D02*Y21073D01*
Y21223D02*X36355Y21298D01*
X36505D01*
X36580Y21223D01*
Y21073D01*
X36505Y20998D02*X36580Y21073D01*
X36355Y20998D02*X36505D01*
X36280Y21073D02*X36355Y20998D01*
X36835Y21223D02*Y20998D01*
Y21223D02*X36910Y21298D01*
X36985D01*
X37060Y21223D01*
Y20998D01*
X36760Y21298D02*X36835Y21223D01*
X37586Y21598D02*Y20998D01*
X37811Y21598D02*X37886Y21523D01*
Y21073D01*
X37811Y20998D02*X37886Y21073D01*
X37511Y20998D02*X37811D01*
X37511Y21598D02*X37811D01*
X38141Y21223D02*Y20998D01*
Y21223D02*X38216Y21298D01*
X38366D01*
X38066D02*X38141Y21223D01*
X38771Y21298D02*X38846Y21223D01*
X38621Y21298D02*X38771D01*
X38546Y21223D02*X38621Y21298D01*
X38546Y21223D02*Y21073D01*
X38621Y20998D01*
X38846Y21298D02*Y21073D01*
X38921Y20998D01*
X38621D02*X38771D01*
X38846Y21073D01*
X39101Y21298D02*Y21073D01*
X39176Y20998D01*
X39251D01*
X39326Y21073D01*
Y21298D02*Y21073D01*
X39401Y20998D01*
X39476D01*
X39551Y21073D01*
Y21298D02*Y21073D01*
X39731Y21448D02*Y21373D01*
Y21223D02*Y20998D01*
X39956Y21223D02*Y20998D01*
Y21223D02*X40031Y21298D01*
X40106D01*
X40181Y21223D01*
Y20998D01*
X39881Y21298D02*X39956Y21223D01*
X40586Y21298D02*X40661Y21223D01*
X40436Y21298D02*X40586D01*
X40361Y21223D02*X40436Y21298D01*
X40361Y21223D02*Y21073D01*
X40436Y20998D01*
X40586D01*
X40661Y21073D01*
X40361Y20848D02*X40436Y20773D01*
X40586D01*
X40661Y20848D01*
Y21298D02*Y20848D01*
M02*
