G04 start of page 3 for group 1 idx 2
G04 Title: stribog.main_board.bis, component *
G04 Creator: pcb 20070208 *
G04 CreationDate: Sun Apr  6 09:45:44 2008 UTC *
G04 For: dti *
G04 Format: Gerber/RS-274X *
G04 PCB-Dimensions: 314961 157480 *
G04 PCB-Coordinate-Origin: lower left *
%MOIN*%
%FSLAX24Y24*%
%LNFRONT*%
%ADD11C,0.0200*%
%ADD12C,0.0400*%
%ADD13C,0.0100*%
%ADD14C,0.0250*%
%ADD16C,0.0098*%
%ADD17C,0.0250*%
%ADD18C,0.0600*%
%ADD19R,0.0400X0.0400*%
%ADD20C,0.1575*%
%ADD21R,0.0240X0.0240*%
%ADD22R,0.0200X0.0200*%
%ADD27R,0.0340X0.0340*%
%ADD28C,0.0380*%
%ADD29C,0.0207*%
%ADD30C,0.1260*%
%ADD31C,0.0350*%
%ADD32C,0.0350*%
%ADD33C,0.0120*%
%ADD34C,0.0105*%
%ADD35R,0.0250X0.0250*%
%ADD36R,0.0120X0.0120*%
%ADD37R,0.0098X0.0098*%
%ADD38R,0.0500X0.0500*%
%ADD39R,0.0360X0.0360*%
G54D11*G36*
X4803Y10826D02*Y11181D01*
X5590D01*
X5984Y10787D01*
X9173D01*
X9291Y10669D01*
X9566D01*
X10393Y11496D01*
X11591D01*
X11588Y11487D01*
X11587Y11469D01*
X11588Y11032D01*
X11593Y11015D01*
X11600Y10999D01*
X11610Y10985D01*
X11623Y10973D01*
X11637Y10963D01*
X11653Y10955D01*
X11669Y10951D01*
X11687Y10949D01*
X11883Y10950D01*
X12480Y10354D01*
X11692Y9566D01*
X6063D01*
X4803Y10826D01*
Y11181D01*
X4803D01*
Y10826D01*
G37*
G36*
X4842Y6574D02*Y7559D01*
X12480D01*
Y7047D01*
X12007Y6574D01*
X4842D01*
G37*
G36*
X19865Y2860D02*X19866Y2874D01*
X19862Y2926D01*
X19848Y2976D01*
X19826Y3024D01*
X19796Y3066D01*
X19759Y3103D01*
X19716Y3133D01*
X19669Y3155D01*
X19619Y3169D01*
X19566Y3174D01*
X19514Y3169D01*
X19464Y3155D01*
X19447Y3148D01*
X21378Y5078D01*
X21457Y4999D01*
X21424Y4984D01*
X21382Y4954D01*
X21345Y4917D01*
X21315Y4874D01*
X21292Y4827D01*
X21279Y4776D01*
X21274Y4724D01*
X21279Y4672D01*
X21292Y4621D01*
X21315Y4574D01*
X21345Y4531D01*
X21382Y4494D01*
X21424Y4464D01*
X21472Y4442D01*
X21522Y4429D01*
X21574Y4424D01*
X21591Y4425D01*
X21102Y3937D01*
Y2812D01*
X20377Y2811D01*
X20351Y2804D01*
X20331Y2795D01*
X20236D01*
X19960Y2519D01*
X19955D01*
X19955Y2521D01*
X19954Y2779D01*
X19949Y2795D01*
X19942Y2811D01*
X19932Y2825D01*
X19919Y2838D01*
X19905Y2848D01*
X19889Y2855D01*
X19872Y2860D01*
X19865Y2860D01*
G37*
G36*
X3779Y5551D02*Y5748D01*
X12165D01*
X12629Y5283D01*
Y5262D01*
X12634Y5245D01*
X12641Y5229D01*
X12651Y5215D01*
X12664Y5203D01*
X12678Y5193D01*
X12694Y5185D01*
X12711Y5181D01*
X12728Y5179D01*
X12733D01*
X12913Y5000D01*
Y4884D01*
X12909Y4880D01*
X12899Y4866D01*
X12892Y4850D01*
X12887Y4833D01*
X12886Y4816D01*
X12887Y4378D01*
X12892Y4362D01*
X12899Y4346D01*
X12909Y4332D01*
X12913Y4328D01*
Y2322D01*
X12283D01*
X11063Y3543D01*
X4409D01*
X4094Y3858D01*
Y5236D01*
X3779Y5551D01*
G37*
G54D12*X20157Y7362D02*X19960D01*
X19921Y7086D02*Y7755D01*
X20118Y7086D02*X19921D01*
X19566Y2874D02*X19606Y2913D01*
Y3070D01*
X20511Y7480D02*X20118Y7086D01*
X19921Y7755D02*X20039Y7637D01*
X20314Y7283D02*X20905Y7874D01*
X20433Y7637D02*X20157Y7362D01*
X20511Y7598D02*X20708Y7795D01*
G54D13*X21723Y5581D02*X21692Y5551D01*
X21574Y4724D02*Y4763D01*
G54D12*X21614Y4763D02*Y5433D01*
X21496Y4803D02*X21417D01*
G54D16*X20336Y5829D02*Y5028D01*
G54D12*X21102Y8267D02*X21063Y8228D01*
Y8031D01*
X20787Y7913D02*Y8425D01*
X21456Y8622D02*X20708D01*
Y8464D01*
X21614Y4763D02*X21259Y4409D01*
G54D16*X21117Y9767D02*Y10082D01*
X21123Y10043D02*Y10397D01*
G54D12*X14409Y15157D02*Y14606D01*
X14527Y15275D02*X14409Y15157D01*
X14724Y14417D02*Y15157D01*
X14685Y14881D02*X15039Y15236D01*
X14252Y15275D02*X14527D01*
X12716Y14842D02*X12834Y14724D01*
X13740D01*
X14133D02*X13464D01*
X14409Y14606D02*X14803Y14212D01*
X14610Y14302D02*X14724Y14417D01*
X14803Y14212D02*Y13504D01*
Y13425D02*X15000Y13228D01*
X14488Y13307D02*Y14330D01*
X14252Y13070D02*Y15275D01*
X16535Y5905D02*X16220Y6220D01*
X14330D01*
X16299Y10472D02*X15393D01*
G54D14*X14842Y10275D02*X14960Y10393D01*
X15393D01*
G54D13*X14724Y10196D02*X14881Y10354D01*
X19066Y8748D02*X18839Y8976D01*
G54D12*X18827D02*X18826Y9566D01*
X18110Y9173D02*Y9960D01*
Y7952D02*Y8149D01*
X19212Y10393D02*X18346Y11259D01*
X19212Y10236D02*Y10393D01*
X18110Y8149D02*Y7874D01*
G54D16*X19197Y8746D02*X19079Y8746D01*
G54D14*X14960Y8307D02*X15196D01*
X16496Y8267D02*X14960D01*
G54D11*Y8307D02*X14527Y7874D01*
G54D12*X18267Y15157D02*X18110Y15000D01*
X20196Y15196D02*Y14960D01*
X19960Y14527D02*Y15196D01*
X20826Y14527D02*X19960D01*
X20472Y15039D02*X20551D01*
X21342Y14716D02*X21259Y14606D01*
X20826Y13267D02*X21220Y13661D01*
Y14133D02*X20826Y14527D01*
X21220Y13661D02*Y14133D01*
X21224Y14598D02*Y13220D01*
X20669Y13031D02*Y13267D01*
X20826D01*
X20461Y15003D02*X19670Y14212D01*
X15000Y12952D02*X14606D01*
X14252Y13070D02*X14488Y13307D01*
X14921Y12952D02*X15000D01*
X14252Y13070D02*X13976D01*
X13425Y12519D01*
X15000Y12952D02*Y13228D01*
X18110Y15000D02*X17480D01*
X17204Y15275D01*
X16574D01*
X16338Y14978D02*X16041Y15275D01*
X16338Y15236D02*Y14527D01*
X15039Y15236D02*X15944D01*
X16299Y14724D02*Y14899D01*
G54D11*X12643Y12195D02*X13079D01*
G54D12*X13110Y12204D02*X12992D01*
X13425Y12519D02*X13110Y12204D01*
G54D11*X12107Y11659D02*X12643Y12195D01*
X12036Y11659D02*X12107D01*
X12026Y11649D02*X12036Y11659D01*
G54D14*X11807Y11349D02*X11717Y11259D01*
G54D11*X11807Y11349D02*Y11430D01*
X12025Y11648D01*
G54D14*X11717Y11259D02*X11378D01*
G54D12*X12834Y4606D02*X12795Y4566D01*
X12559Y2401D02*X12716D01*
Y2362D02*Y4567D01*
X5196Y5472D02*X3976D01*
X5236Y5433D02*X5196Y5472D01*
X4291Y4370D02*X4252Y4409D01*
Y5551D01*
X3740Y10314D02*X4252D01*
X4263Y9950D02*X4253Y9960D01*
X3700D01*
X4291Y9999D02*Y10118D01*
X3700Y10354D02*X3740Y10314D01*
X3700Y9960D02*Y10354D01*
X2834Y7992D02*X3189Y7637D01*
Y7204D01*
X2441Y7952D01*
X1850Y8188D02*X2637D01*
X1771Y7952D02*Y8385D01*
X2441Y7952D02*X1771D01*
X1811Y8228D02*X1850Y8188D01*
X1811Y8228D02*X1968Y8385D01*
X2519D01*
X28818Y2283D02*X28779Y2322D01*
X28937Y1850D02*X28385Y1259D01*
X28504Y1141D02*X28464Y1023D01*
X28504D02*X28425Y984D01*
X29133Y3346D02*X29527D01*
X29310Y3307D02*X30629D01*
X29448D02*X28937Y2795D01*
X29566Y3267D02*Y3110D01*
X29527Y3307D02*X29566Y3267D01*
X28740Y2519D02*X29645Y3425D01*
X29566Y3110D02*X28779Y2322D01*
X28937Y2795D02*Y1850D01*
X29309Y3308D02*X29310Y3307D01*
X28661Y2755D02*X29252Y3346D01*
X30866Y6181D02*Y3543D01*
X30236Y8149D02*X30866Y7519D01*
X30108Y4842D02*X30866D01*
Y3543D02*X30629Y3307D01*
X30866Y7519D02*Y6141D01*
X30078Y4812D02*X30108Y4842D01*
G54D11*X23862Y13190D02*X23858Y13186D01*
Y12677D01*
G54D14*X24330Y14015D02*Y14448D01*
X24291Y13976D02*X24330Y14015D01*
G54D13*X23464Y13425D02*Y13110D01*
G54D12*X19670Y14212D02*X19212D01*
G54D17*X19606Y14133D02*X19370D01*
G54D12*X22677Y15314D02*X22362Y15000D01*
X21302Y14519D02*X21574Y14763D01*
X21539Y14755D02*X22559Y14763D01*
X22677Y14527D02*Y15314D01*
X21302Y14519D02*X22677Y14527D01*
X20866Y15000D02*X20905Y14960D01*
X20551Y15039D02*X20590Y15000D01*
G54D17*X20511Y15039D02*X19606Y14133D01*
G54D13*X20461Y15003D02*X20464Y15000D01*
X20866D01*
G54D12*X22362D02*X20866D01*
X14448Y15314D02*X19842D01*
X16299D02*X16377Y15236D01*
X19763Y15314D02*X22559D01*
X20433Y14724D02*X21342Y14716D01*
X16299Y14448D02*Y15314D01*
G54D13*X25275Y11023D02*Y10984D01*
G54D16*X22895Y10853D02*Y10660D01*
G54D12*X25275Y11023D02*Y10354D01*
G54D14*X25629Y10000D02*X26063D01*
X25196Y10354D02*X25551Y10000D01*
G54D16*X23181Y11138D02*X22905Y10862D01*
G54D12*X24015Y10669D02*Y10196D01*
G54D11*X24121Y10826D02*X23885Y10590D01*
X24121Y10039D02*Y10826D01*
G54D12*X23818Y10118D02*Y10472D01*
G54D14*X23425Y10039D02*X23385Y10000D01*
G54D12*X23897Y10314D02*X23700Y10118D01*
G54D13*X20952Y9608D02*X21110Y9765D01*
G54D12*X20748Y8543D02*X20708Y8503D01*
Y8385D01*
X20826Y8267D01*
X20809Y8049D01*
X21950Y7930D02*X21968Y8346D01*
X22086Y8543D02*X20748D01*
X21968Y8346D02*X21771Y8149D01*
X21653Y8267D01*
X21102D01*
X22165Y8858D02*X21692D01*
X21456Y8622D01*
G54D14*X23622Y10039D02*X23425D01*
G54D12*X23700Y10118D02*X23661D01*
G54D11*X23425Y10039D02*X24121D01*
X23307Y9921D02*X23425Y10039D01*
G54D12*X22714Y9657D02*X22716Y8740D01*
X22714Y9145D02*X22716Y9212D01*
Y8740D02*X22283D01*
X22086Y8543D01*
X22283Y8700D02*X22714Y9145D01*
X22677Y9370D02*X22165Y8858D01*
X22714Y9657D02*X22992Y9645D01*
G54D13*X23432Y8543D02*X23267Y8385D01*
X22716Y8937D02*Y8858D01*
G54D14*X22990Y9027D02*X22992Y8937D01*
X22990Y8948D02*X22795Y8740D01*
Y8740D01*
G54D16*X23685Y8549D02*X23432D01*
G54D13*X22716Y9724D02*Y9645D01*
G54D12*X22950Y9538D02*X23080Y9654D01*
G54D11*X23147Y9772D02*X23307Y9918D01*
X23147Y9696D02*X23149Y9760D01*
G54D12*X23089Y9658D02*Y9113D01*
X27204Y1259D02*X27125Y1299D01*
X27204Y1259D02*X28385D01*
X26456Y2598D02*X28818D01*
X26181Y2480D02*X25000D01*
X25039Y2204D02*X25078Y2165D01*
X26181D01*
X28779Y2322D02*X26259D01*
X26377Y1968D02*X28818D01*
X26417Y1574D02*X26496Y1496D01*
X28504D01*
X26456Y1653D02*X28582D01*
X26417Y1692D02*X26456Y1653D01*
X24960Y1377D02*Y2322D01*
X27165Y1299D02*X23346D01*
X25551Y1338D02*X25511Y1299D01*
X25000D01*
X24881D02*X24960Y1377D01*
X26181Y1259D02*X26377D01*
X22637Y1299D02*X23464D01*
X22677Y944D02*Y669D01*
X24381Y1492D02*X24377Y1496D01*
X22637D01*
X28464Y984D02*X22677D01*
Y669D02*X28425D01*
X28661Y905D01*
Y1574D01*
X24921Y1496D02*X24173D01*
X25000Y5078D02*X24842D01*
Y4881D02*X24527Y4566D01*
X25354Y4645D02*X25000Y4999D01*
X25236Y4488D02*X25314Y4566D01*
X25196Y4724D02*X24803D01*
X25314Y4566D02*X26338D01*
X24566Y5944D02*X24527Y5984D01*
X24842Y5669D02*X24606Y5905D01*
X24763Y5748D01*
X24527Y5984D02*X23818D01*
X25078Y5551D02*X24684Y5944D01*
X24763Y5748D02*Y4921D01*
X24842Y4960D02*Y5669D01*
X25157Y4763D02*Y5551D01*
X25236Y4763D02*Y5472D01*
X26377Y1259D02*Y4448D01*
X26338Y4566D02*Y4173D01*
X26181Y3622D02*Y3385D01*
Y3031D02*Y2755D01*
X26141Y2716D01*
X26181Y1850D02*X24960D01*
Y1692D02*X25078Y1574D01*
X26141D01*
X24960Y1535D02*X24921Y1496D01*
X24881Y1417D02*X24842Y1456D01*
Y2283D01*
X26141Y4448D02*X26181Y4409D01*
Y4133D01*
X18267Y2259D02*X18291Y2283D01*
G54D14*X15590Y2007D02*X15433Y2165D01*
Y2671D01*
G54D12*X18291Y2283D02*X18858D01*
Y1803D02*Y2322D01*
G54D14*Y1968D02*Y1811D01*
G54D12*Y2283D02*X19291Y2716D01*
X19763D01*
X19634Y1106D02*X18897Y1843D01*
X19606Y2913D02*X19921D01*
X19527D02*X19409D01*
X19566Y2874D02*X19527Y2913D01*
X20708Y7795D02*X22086D01*
X21063Y8031D02*X21692D01*
G54D13*X19960Y7362D02*Y7322D01*
G54D12*X20511Y7637D02*X20787Y7913D01*
X20511Y7716D02*Y7480D01*
X20039Y7637D02*X20433D01*
X22047Y7812D02*X22086Y7795D01*
X22069Y7812D02*X21968Y7913D01*
G54D16*X21714Y5828D02*Y5581D01*
G54D12*X21574Y4724D02*X21496Y4803D01*
X24960Y2322D02*X24724Y2559D01*
Y2519D02*X24645Y2598D01*
X22637Y3149D02*Y2519D01*
X22834Y3110D02*Y3031D01*
X23976Y2440D02*X25000D01*
X24724Y2559D02*X23228D01*
G54D14*X24055D02*X24488D01*
X24055Y2519D02*X23779D01*
G54D12*X23937Y2480D02*X23976Y2440D01*
X23937Y2480D02*X23897Y2440D01*
X23937Y2480D02*X22559D01*
X24645Y2598D02*Y3543D01*
X24606Y3582D01*
X23425Y3858D02*X26220D01*
X26338Y4173D02*X23622D01*
X23228Y3622D02*X26181D01*
Y3385D02*X23110D01*
X23937Y4448D02*X26141D01*
X22834Y3031D02*X26181D01*
X26141Y2716D02*X22834D01*
X24606Y3582D02*X23897D01*
Y4409D01*
X23937Y3779D02*X24133Y3976D01*
X24291D01*
X23649Y4553D02*X23661Y4541D01*
Y4527D01*
X23649Y4553D02*X23663Y4566D01*
X23897Y4409D02*X23937Y4448D01*
X23663Y4566D02*X24330D01*
X24448Y4448D01*
X24685D01*
X23661Y4527D02*X23149Y4015D01*
Y3661D01*
X23622Y4173D02*X23425Y3976D01*
Y3858D01*
X23110Y3385D02*X22834Y3110D01*
X22480Y2480D02*Y3503D01*
X22834D01*
X23149Y3661D02*X22637Y3149D01*
X22834Y3503D02*X23070Y3740D01*
Y4094D01*
G54D13*X28236Y7149D02*X27755Y7629D01*
X28236Y8149D02*Y8338D01*
X27755Y7637D02*Y8307D01*
X28740Y6771D02*Y8346D01*
X29763Y9212D02*X29803D01*
X24724Y7440D02*X25118D01*
X25393Y7165D01*
X27236Y7149D02*X26747Y7637D01*
X26236Y8149D02*X25724Y8661D01*
X25196D01*
X26574Y8858D02*X26732Y8700D01*
X26732D01*
X29236Y8149D02*X29212Y8173D01*
X29685Y9291D02*X29763Y9212D01*
X29448Y8897D02*X29763Y8582D01*
G54D12*X30236Y7149D02*X29291Y6204D01*
Y4842D01*
G54D13*X29763Y8582D02*Y7677D01*
X29236Y7149D02*X29763Y7677D01*
G54D16*X28740Y6771D02*X28189Y6220D01*
Y6220D01*
X28228D02*X27755Y5748D01*
X27244Y6220D02*X26810Y6653D01*
X27755Y5748D02*X26968D01*
X26299Y6417D01*
X26810Y6653D02*X25354D01*
X26299Y6417D02*X25039D01*
G54D13*X24999Y6966D02*X25078Y6889D01*
G54D16*Y6929D02*X25032Y6975D01*
X25078Y6929D02*X25078D01*
X25354Y6653D02*X25078Y6929D01*
X25039Y6417D02*X24724Y6732D01*
X26653Y5196D02*Y5708D01*
X26181Y6181D01*
X24960D01*
G54D11*X28622Y11535D02*X28267D01*
X28700Y11614D02*X28622Y11535D01*
X28582Y11023D02*X28307D01*
X28621Y10984D02*X28582Y11023D01*
G54D13*X29212Y8173D02*Y11929D01*
G54D11*X28740Y10000D02*X28149D01*
X28779Y10039D02*X28740Y10000D01*
X28346Y10393D02*Y10511D01*
G54D13*X27204Y9606D02*Y11456D01*
X29685Y12165D02*Y9291D01*
X29448Y12047D02*Y8897D01*
G54D11*X28070Y12007D02*X28149D01*
X28031Y12047D02*X28070Y12007D01*
G54D13*X29212Y11929D02*X28661Y12480D01*
X27165Y13307D02*X28543D01*
X28503Y12992D02*X29448Y12047D01*
X28661Y12480D02*X28110D01*
X28414Y12992D02*X28503D01*
X28397Y13009D02*X28414Y12992D01*
X28543Y13307D02*X29685Y12165D01*
X27598Y13700D02*X27716Y14684D01*
X29409Y14685D02*X29370Y13622D01*
X28622Y13897D02*X28740Y15000D01*
X29133D01*
X28700Y14488D02*X28937D01*
X28622Y13897D02*X29094D01*
X30078Y13622D02*X30197Y13779D01*
X29370Y13622D02*X30078D01*
X27204Y11456D02*X26653Y12007D01*
X25984D01*
X26574Y14448D02*Y15472D01*
X25984D02*X26574Y14448D01*
X25984Y15472D02*Y14448D01*
X27401Y13661D02*X26693Y14133D01*
X26417Y13661D02*X26929Y14606D01*
X27401Y13661D01*
X27716Y14684D02*X28031Y14173D01*
X28385Y14684D01*
X28464Y13622D01*
X27165Y13307D02*X26377Y12519D01*
X26102D01*
X26747Y7637D02*X25984D01*
X26692Y8740D02*X27244Y8188D01*
Y8149D01*
X25984Y7637D02*X25275Y8346D01*
G54D11*X26102Y9488D02*X25984D01*
X26181Y9409D02*X26102Y9488D01*
G54D13*X25236Y8937D02*X26492D01*
G54D12*X25433Y9409D02*X26220D01*
G54D13*X27755Y8307D02*X26653Y9409D01*
X28236Y8220D02*X26929Y9527D01*
X28740Y8346D02*X27991Y9094D01*
X27716D01*
X27204Y9606D01*
X26492Y8937D02*X26626Y8803D01*
X26653Y9409D02*Y10026D01*
Y9881D02*Y10354D01*
X26929Y9527D02*Y10629D01*
X26495Y10511D02*X26023D01*
X26929Y10629D02*X26535Y11023D01*
X26062D01*
X26653Y10354D02*X26495Y10511D01*
X25393Y7165D02*X26220D01*
X24251Y8739D02*X24370Y8858D01*
G54D16*X24057Y8352D02*X25276D01*
X24053Y8746D02*X24251D01*
X25145Y8661D02*X25244D01*
G54D13*X24645Y9527D02*X25236Y8937D01*
G54D16*X24481Y9336D02*X23957D01*
X25141Y8657D02*X24476Y9322D01*
X23436Y8909D02*X23188Y8660D01*
G54D13*X22704Y7204D02*X22964Y7464D01*
G54D16*X22811Y10002D02*X22877D01*
G54D13*X22874Y10003D02*X23012D01*
G54D16*X22716Y10096D02*X22811Y10002D01*
X22698Y10319D02*Y10108D01*
G54D12*X23267Y10433D02*Y10629D01*
G54D16*X23463Y9685D02*X23436Y9658D01*
Y8909D01*
G54D13*X24291Y9763D02*X24370Y9842D01*
G54D12*X25433Y9409D02*X24763Y10078D01*
G54D16*X24645Y9527D02*X24641Y9531D01*
G54D13*X23425Y14448D02*X23779Y14803D01*
G54D12*X23346Y15236D02*X23897D01*
X23307Y15196D02*X23346Y15236D01*
G54D13*X23779Y14803D02*X24606D01*
X24724Y14685D01*
Y14448D01*
X23189Y11731D02*Y12110D01*
G54D12*X24252Y12204D02*X23779Y11732D01*
G54D13*X22598Y10944D02*X22598D01*
X22874Y11220D02*X22598Y10944D01*
X22887Y11234D02*Y11429D01*
G54D16*X22787Y11129D02*X22500Y10842D01*
G54D13*X22874Y11221D02*X22887Y11234D01*
X24370Y9842D02*Y11338D01*
G54D16*X24642Y9533D02*X23866D01*
G54D12*X24763Y10078D02*Y12598D01*
X23740Y11126D02*Y11377D01*
G54D14*X23665Y11091D02*Y10988D01*
G54D13*X22887Y11429D02*X23189Y11731D01*
G54D14*X23704Y10987D02*X23267Y10551D01*
G54D12*X23779Y11732D02*Y11535D01*
G54D13*X22609Y12208D02*X22637Y12236D01*
G54D14*X23704Y11091D02*Y10987D01*
G54D13*X22637Y12236D02*Y13661D01*
X23189D02*Y12007D01*
G54D12*X25275Y13622D02*X25118Y13464D01*
X24252D01*
G54D13*X23464Y13425D02*Y13110D01*
G54D11*Y13425D02*X23622Y13582D01*
X24252Y13464D02*Y13110D01*
G54D12*X23779Y13661D02*Y14212D01*
G54D17*X23700Y13543D02*X24212D01*
G54D13*X23425Y13897D02*X23189Y13661D01*
X23425Y13897D02*Y14448D01*
G54D16*X22502Y10771D02*Y10577D01*
G54D13*X23122Y10107D02*Y10397D01*
X23012Y10001D02*X23119Y10108D01*
X23464Y9685D02*X23543Y9763D01*
X24291D01*
X23346Y5905D02*X23700Y5551D01*
X26496Y5039D02*X26299D01*
X23649Y5553D02*X23622Y5580D01*
X23504Y5078D02*X23976D01*
G54D16*X23103Y5829D02*X23307Y5626D01*
G54D13*Y5275D01*
X23504Y5078D01*
G54D16*X24960Y6181D02*X24645Y6496D01*
G54D13*X24015D02*X23582D01*
G54D16*X23157Y6633D02*X23444D01*
G54D13*X23527Y6551D01*
X26653Y5196D02*X26496Y5039D01*
X23582Y6496D02*X23503Y6574D01*
G54D16*X23304Y6998D02*X23476Y7170D01*
X23685Y7368D02*X23170D01*
X22929Y6814D02*X23110Y6633D01*
X23474Y7171D02*X23693D01*
X23110Y6633D02*X23204D01*
G54D13*X23346Y6299D02*Y5905D01*
X23228Y6417D02*X23346Y6299D01*
X23149Y6417D02*X23228D01*
G54D16*X23031D02*X23137D01*
X22716Y6732D02*X23031Y6417D01*
X22501Y6222D02*Y6327D01*
G54D13*X22696Y5499D02*X22552Y5354D01*
G54D16*X22699Y5829D02*Y5499D01*
G54D13*X22716Y6732D02*X22704Y6744D01*
X24291Y6732D02*X24094D01*
G54D16*X24724D02*X24252D01*
X24645Y6496D02*X23858D01*
G54D13*X24094Y6732D02*X23937D01*
G54D16*X24054Y7564D02*X24606D01*
G54D13*X24606Y7560D02*X24724Y7440D01*
G54D16*X25032Y6974D02*X24009D01*
G54D13*X22598Y7440D02*X22795Y7637D01*
X22704Y6744D02*Y7204D01*
X22795Y7637D02*Y7795D01*
X22519Y8228D02*X22755D01*
X23346Y8818D01*
G54D16*X23684Y7761D02*X23508D01*
X23507Y7759D02*X23346Y7598D01*
X23098D02*X22940Y7440D01*
X23153Y7370D02*X23019Y7236D01*
X23346Y7598D02*X23110D01*
X23173Y7370D02*X23153D01*
X23346Y7598D02*X23098D01*
G54D13*X23023Y7232D02*X22929Y7137D01*
Y6818D01*
G54D11*X1653Y5826D02*X2283Y5196D01*
X2086Y4251D02*X1102Y5236D01*
G54D13*X708Y2992D02*Y4881D01*
G54D11*X3477Y5236D02*X3812Y4901D01*
Y3840D01*
X3346Y3858D02*Y4685D01*
X2283Y5196D02*X2519D01*
X2952Y5944D02*Y2992D01*
Y5944D02*X2992Y5984D01*
X2322Y5669D02*X2519D01*
X3385Y5236D02*X3477D01*
X1023Y5826D02*X1653D01*
X2641Y6299D02*X12440D01*
X2992Y5984D02*X12598D01*
X1850Y6141D02*X2322Y5669D01*
X4344Y3307D02*X4788D01*
X3811Y3840D02*X4344Y3307D01*
X4212Y2992D02*X10275D01*
X4330Y3307D02*X10669D01*
X3346Y3858D02*X4212Y2992D01*
X6378Y2637D02*X10196D01*
X2322Y2086D02*X2401D01*
G54D13*X2834Y629D02*X3110Y472D01*
X2834Y629D02*X3110Y787D01*
X2834Y629D02*X4803D01*
G54D11*X2952Y2992D02*X2559Y2598D01*
X2086Y2322D02*X2322Y2086D01*
X2362D02*X5826D01*
X6378Y2637D01*
X10196D02*X10984Y1850D01*
Y1063D01*
X11378Y669D01*
X2086Y2429D02*Y4251D01*
X2086Y2440D02*Y2322D01*
G54D13*X5433Y787D02*X5236Y1141D01*
X5196Y354D02*X5748Y1141D01*
G54D11*X511Y6338D02*X1023Y5826D01*
X2519Y6177D02*X2641Y6299D01*
G54D13*X708Y4881D02*X866Y4566D01*
X708Y4881D02*X551Y4566D01*
G54D11*X1102Y5236D02*Y5354D01*
X1299Y6141D02*X1850D01*
X9133Y13267D02*X9881D01*
X11574Y12795D02*X9527D01*
G54D14*X12244Y13228D02*X9488D01*
G54D11*X8700Y12795D02*X9645D01*
X11023Y11968D02*X10511Y12480D01*
X9803D01*
X9606Y12283D02*X9803Y12480D01*
X10118Y11692D02*Y11929D01*
X9488Y11063D02*X10118Y11692D01*
X12391Y12394D02*Y13093D01*
X11732Y11968D02*X11965D01*
X12391Y12394D01*
X9606Y12283D02*X9409Y12086D01*
X2559Y10039D02*Y10393D01*
Y10314D02*Y10944D01*
X2204Y11574D02*Y10472D01*
X1574Y13385D02*X5039D01*
X5748Y12834D02*X5984Y13070D01*
X2165Y11614D02*X2204Y11574D01*
X2559Y10944D02*X3031Y11417D01*
X6023Y9291D02*X4685Y10629D01*
X2952Y10196D02*Y10354D01*
X3425Y10826D01*
X4488D01*
X5039Y10275D01*
X3228Y8189D02*Y9212D01*
X2362Y8937D02*X2007D01*
X3610Y9405D02*X3539D01*
X3425Y9409D02*X3661D01*
X3228Y9212D02*X3425Y9409D01*
X4409Y7480D02*X4015D01*
X3611Y7952D02*X3464D01*
X3228Y8189D01*
X4645Y8425D02*X3897D01*
X4409Y7480D02*X4724Y7795D01*
X11811Y9291D02*X6023D01*
X4566Y8976D02*X12401D01*
X12677Y8149D02*X4921D01*
X4645Y8425D01*
X4724Y7795D02*X13149D01*
X4263Y8950D02*X4277Y8937D01*
X4527D01*
X4566Y8976D01*
X511Y12322D02*X1574Y13385D01*
X1732Y12047D02*Y11141D01*
X1220Y12086D02*X1574Y12440D01*
X866Y12204D02*X1496Y12834D01*
X1417Y6535D02*X2283D01*
X2362Y6614D01*
X3543D02*X3858Y6929D01*
X3613Y7950D02*X3611Y7952D01*
X2213Y9950D02*X2223Y9960D01*
X2362Y8937D02*X2952Y9527D01*
Y10236D01*
X2480Y9960D02*X2559Y10039D01*
X2223Y9960D02*X2480D01*
X2362Y6614D02*X3543D01*
X511Y6338D02*Y12322D01*
X1378Y6535D02*X1456D01*
X1220Y12086D02*Y6692D01*
X1378Y6535D01*
X866Y12204D02*Y6574D01*
X1299Y6141D01*
X8897Y13503D02*X9133Y13267D01*
X5157Y13503D02*X8897D01*
X5039Y13385D02*X5157Y13503D01*
X5984Y13070D02*X8425D01*
X9409Y12086D02*X1732D01*
X3031Y11417D02*X5748D01*
X6102Y11063D02*X9488D01*
X5748Y11417D02*X6102Y11063D01*
X1574Y12440D02*X7913D01*
X1496Y12834D02*X5748D01*
X7913Y12440D02*X8110Y12637D01*
Y12637D01*
X8425Y13070D02*X8700Y12795D01*
G54D16*X21901Y11349D02*X21732Y11181D01*
X21714Y11167D02*Y10645D01*
X22401Y11417D02*X22110Y11125D01*
X22500Y10842D02*Y10776D01*
X22108Y11124D02*Y10652D01*
G54D13*X22401Y11417D02*Y11732D01*
X21889Y12928D02*Y13582D01*
X18858Y13622D02*X19252D01*
X20078Y13031D02*X20472Y12637D01*
X17637D02*X17401D01*
X21062D02*X20472D01*
X21901Y12917D02*X21889Y12928D01*
X19921Y10511D02*X18582Y11850D01*
Y11968D01*
X19606Y10511D02*X18582Y11535D01*
X19409Y11417D02*Y12086D01*
X17649Y10970D02*X17674Y10944D01*
X17755D01*
G54D16*X20927Y10679D02*Y10825D01*
G54D13*X20944Y10866D02*Y10826D01*
X21653Y11574D02*X20944Y10866D01*
G54D16*X20905Y11338D02*X20748Y11181D01*
X20730Y11181D02*Y10567D01*
X20533Y10678D02*Y10823D01*
G54D13*X20138Y10691D02*X19984Y10845D01*
G54D16*X20533Y10801D02*X20393Y10940D01*
X20393Y10984D02*Y11889D01*
G54D13*X20000Y10826D02*X19409Y11417D01*
G54D16*X20393Y10940D02*Y11076D01*
G54D13*X21653Y11551D02*Y12047D01*
X20905Y11338D02*X21220Y11653D01*
Y11929D01*
X21653Y12047D02*X21062Y12637D01*
G54D16*X21901Y12437D02*Y11349D01*
G54D13*X18858Y10196D02*X18857Y10079D01*
X19921Y10157D02*Y10511D01*
Y10000D02*Y10275D01*
X19606Y10039D02*Y10118D01*
Y10078D02*Y10511D01*
G54D16*Y10026D02*Y10075D01*
X20336Y10098D02*Y10374D01*
G54D11*X14803Y8818D02*X15078D01*
G54D14*X14055Y8700D02*X14724Y9370D01*
X14055Y9645D02*X14409Y9999D01*
Y10590D01*
G54D11*X13949Y7965D02*X14803Y8818D01*
X13823Y7965D02*X13910D01*
X16929Y8344D02*Y8403D01*
X17038Y8344D02*X16929D01*
G54D14*X16023Y9881D02*X15551D01*
X16063Y9921D02*X16023Y9881D01*
G54D11*X16929Y8403D02*X16275Y9058D01*
X16023Y9055D02*X16292D01*
G54D14*X14724Y9370D02*X15078D01*
G54D13*X18110Y14645D02*X17795D01*
X17874D02*X16889D01*
X17338Y14409D02*X17795D01*
X17337Y14408D02*X17338Y14409D01*
X18110D02*Y14645D01*
X17716Y14409D02*X17874D01*
G54D11*X16318Y13591D02*X16782Y14055D01*
G54D14*X16338Y13582D02*Y13346D01*
X16802Y14055D02*X17440D01*
X16338Y13346D02*X16023Y13031D01*
G54D13*X16378Y14094D02*X16417D01*
X16455D02*X15748D01*
X16446D02*X16659Y14307D01*
Y14370D01*
X17362Y13149D02*X17283D01*
X15748Y14094D02*X15629Y14212D01*
X16697Y14408D02*X17337D01*
X16659Y14370D02*X16697Y14408D01*
X18582Y11929D02*Y13149D01*
X18110Y13307D02*Y14409D01*
X17874Y12834D02*Y14409D01*
X18582Y14370D02*Y13897D01*
X18346Y13385D02*Y14685D01*
Y11771D02*Y13070D01*
X18582Y13897D02*X18858Y13622D01*
X18346Y13385D02*X18582Y13149D01*
X18346Y13070D02*X18110Y13307D01*
X18574Y14909D02*X19417D01*
X18342Y14677D02*X18574Y14909D01*
G54D14*X16062Y12440D02*X14763D01*
X14685Y11496D02*X15000D01*
X14763Y12480D02*X14448Y12165D01*
X14015Y12032D02*Y11574D01*
X13972Y12075D02*X14015Y12032D01*
G54D13*X18622Y11496D02*X18346Y11771D01*
X17952Y12289D02*Y11102D01*
G54D14*X16377Y10944D02*X16456D01*
X16889Y10511D02*X17598D01*
G54D13*X17007Y9960D02*X17007D01*
X16929Y10039D02*X17007Y9960D01*
G54D11*X16417Y10944D02*X16850Y10511D01*
G54D14*X16063Y11259D02*X16377Y10944D01*
X16456Y12007D02*X16496Y11968D01*
X16378Y12637D02*X17283D01*
G54D13*X17606Y12635D02*X17952Y12289D01*
G54D14*X16496Y11968D02*X17047D01*
G54D13*X16456Y12007D02*X16496D01*
G54D14*X16063Y12440D02*X16181D01*
X16378Y12637D01*
X15599Y11970D02*X15601Y11968D01*
X15826D01*
X12559Y11377D02*X12401Y11220D01*
X13818Y11377D02*X12559D01*
X14015Y11574D02*X13818Y11377D01*
G54D11*X13110Y9685D02*X13503D01*
G54D14*X12283Y14251D02*X13622D01*
X13228Y15393D02*X13385Y15236D01*
X13582D01*
X13228Y15275D02*X13582D01*
X11448Y15393D02*X13228D01*
X12244Y14291D02*X12283Y14251D01*
X12362Y13110D02*X12244Y13228D01*
X13023Y13110D02*X13023Y13110D01*
X12362D01*
X13503Y13700D02*X11377D01*
G54D11*X11889Y12480D02*X11574Y12795D01*
G54D14*X11023Y14968D02*X11448Y15393D01*
X11377Y13700D02*X10118Y14960D01*
G54D11*X12401Y8976D02*X13110Y9685D01*
X13228Y10708D02*X11850Y9330D01*
X13228Y10708D02*X11811Y9291D01*
X13223Y8609D02*X13210Y8622D01*
X13149D01*
X12677Y8149D01*
G54D13*X20236Y6692D02*X20984Y7440D01*
X18464Y10236D02*Y8700D01*
G54D16*X19204Y7565D02*X18712D01*
G54D13*X18518Y7767D02*X18070Y7322D01*
G54D16*X18712Y7562D02*X18307Y7161D01*
X19195Y7761D02*X18509D01*
G54D13*X17992Y8818D02*X18846Y7968D01*
G54D16*X18845Y7958D02*X19322D01*
X19006Y8157D02*X18622Y8543D01*
X18665Y8114D02*X18810Y7968D01*
G54D13*X17817Y6732D02*X17401D01*
X18070Y7322D02*Y6929D01*
X17874Y6732D01*
X17519D01*
G54D16*X18840Y7086D02*X18925Y7170D01*
X18736Y6983D02*X18840Y7087D01*
X18528Y7073D02*X18822Y7367D01*
G54D13*X17952Y11102D02*X18858Y10196D01*
X17755Y10944D02*X18464Y10236D01*
G54D14*X13902Y10918D02*X13915Y10905D01*
X14094D01*
X14685Y11496D01*
X14409Y10590D02*X14763Y10944D01*
X15000D01*
G54D16*X20543Y5637D02*X20748Y5433D01*
X20866Y4960D02*X21126Y5220D01*
X19929Y5436D02*X19189Y4696D01*
G54D13*X19881Y5039D02*Y4803D01*
G54D16*X19929Y6295D02*Y5436D01*
X19881Y5039D02*X20137Y5295D01*
X20139D02*Y6043D01*
G54D13*X19929Y6295D02*Y6307D01*
X20078Y6456D01*
G54D16*X20533Y5828D02*Y5635D01*
X21123Y5219D02*Y5971D01*
G54D12*X15386Y590D02*X15196D01*
X15658Y862D02*X15386Y590D01*
G54D14*X14763Y2519D02*Y1141D01*
G54D12*X16377Y1181D02*X16141Y1417D01*
G54D14*X16456Y1220D02*Y2952D01*
X16456Y1220D02*X16456Y1220D01*
G54D12*X16614Y1417D02*Y1102D01*
X15748Y1417D02*X16614D01*
G54D13*X14921Y3976D02*X15196Y4251D01*
X14960Y3031D02*X15000Y2992D01*
X14960Y3031D02*Y3700D01*
X15236Y3976D01*
G54D33*X15748Y3228D02*X15393D01*
G54D13*X15196Y4251D02*Y4488D01*
X16653Y4763D02*X16378Y4488D01*
X16023D01*
X16535Y5236D02*X15826D01*
X15196Y4606D01*
X15196D01*
G54D12*X16614Y1102D02*X16377D01*
X20787D02*X21929D01*
G54D13*X19849Y2047D02*X21063D01*
X20078Y1496D02*X20826D01*
G54D12*X18937Y590D02*X20275D01*
X20787Y1102D01*
X18267Y1259D02*X18937Y590D01*
G54D13*X24201Y1972D02*X24197Y1968D01*
X23385D01*
X17267Y1259D02*X17755Y1748D01*
Y2440D01*
X18070Y2755D01*
X18543D01*
X20118Y4330D01*
X20236D01*
X18267Y4259D02*X18433D01*
X18779Y3771D02*Y4291D01*
X18267Y3259D02*X18779Y3771D01*
X19724Y6417D02*X20000Y6692D01*
X19735Y2161D02*X19849Y2047D01*
X19448Y5669D02*X18543Y4763D01*
X18433Y4259D02*X19724Y5551D01*
X20236Y4330D02*X20866Y4960D01*
G54D16*X18503Y6259D02*X18529Y6285D01*
X18818Y6063D02*X18736Y6145D01*
G54D13*X22126Y4645D02*X21417Y3936D01*
X22047Y4070D02*Y3307D01*
X21417Y3936D02*Y2559D01*
X22047Y4055D02*X22559Y4567D01*
G54D16*X22499Y6333D02*X22189Y6641D01*
G54D13*X22559Y4567D02*Y5354D01*
X22903Y4852D02*X23070Y4685D01*
G54D16*X22895Y5829D02*Y4852D01*
G54D13*X20000Y6692D02*X20236D01*
X21063Y7204D02*X20315Y6456D01*
X21929Y7086D02*X22086Y6929D01*
X20315Y6456D02*X20078D01*
X22204Y6614D02*Y6811D01*
G54D16*X20926Y6747D02*Y6022D01*
G54D13*X22126Y4645D02*Y5433D01*
X21811Y6732D02*Y6574D01*
G54D16*X22108Y5828D02*Y5262D01*
X21320Y6199D02*Y6461D01*
G54D13*X19448Y6299D02*Y5669D01*
G54D11*X16929Y6220D02*X17283D01*
G54D13*X17795Y5905D02*X17204D01*
G54D16*X17951Y5669D02*Y5709D01*
G54D13*X18543Y4763D02*X16653D01*
X17204Y5905D02*X16535Y5236D01*
G54D11*X16732Y6417D02*X16929Y6220D01*
X16055Y6885D02*X16145D01*
X16614Y6417D01*
G54D16*X17267Y5259D02*X17447Y5439D01*
X17721D01*
X17951Y5669D01*
X18736Y6145D02*Y6983D01*
G54D14*X14409Y4409D02*Y4527D01*
X14173Y4173D02*X14409Y4409D01*
X14252Y3503D02*X14173Y3582D01*
Y4173D01*
G54D13*X16012Y4484D02*X15504Y3976D01*
X15236D02*X15511D01*
G54D14*X15826Y3582D02*X15433D01*
X16456Y2952D02*X16220Y3188D01*
G54D13*X15787D02*X15748Y3228D01*
G54D14*X16220Y3188D02*X15787D01*
G54D13*X15000Y2992D02*X15393D01*
G54D14*X16023Y3779D02*X15826Y3582D01*
G54D13*X14606Y3976D02*X14921D01*
G54D12*X14130Y1310D02*X14133Y1314D01*
X13976Y984D02*X14370Y590D01*
G54D11*X13256Y783D02*X13142Y669D01*
G54D12*X14370Y590D02*X15314D01*
G54D11*X10669Y3307D02*X12244Y1732D01*
X10275Y2992D02*X12204Y1063D01*
X11378Y669D02*X13149D01*
G54D12*X13582Y2637D02*Y3385D01*
X13267Y2322D02*X13582Y2637D01*
X14133Y1732D02*X14252Y1850D01*
Y3503D01*
X13267Y2322D02*Y1338D01*
X12874D02*Y1771D01*
X14133Y1314D02*Y1732D01*
X13267Y1338D02*X12874D01*
X13070Y1850D02*Y1338D01*
G54D13*X18937Y6496D02*Y6732D01*
X18464Y8700D02*X18622Y8543D01*
Y8543D01*
G54D16*X19203Y9730D02*X18857Y10076D01*
G54D11*X17038Y8344D02*X17038Y8344D01*
G54D16*X18307Y6417D02*Y7162D01*
X18529Y6285D02*Y7017D01*
G54D14*X16063Y7795D02*X15669D01*
G54D13*X19724Y5551D02*Y6417D01*
G54D16*X19220Y4728D02*X18779Y4287D01*
X19220Y4728D02*Y4728D01*
X18779Y4287D02*Y4106D01*
G54D11*X16614Y6417D02*X16732D01*
G54D13*X18307D02*X17795Y5905D01*
X18503Y6259D02*X17952Y5708D01*
X18267Y5259D02*X18598Y5590D01*
X18897D01*
X19212Y5905D01*
G54D16*X18937Y6732D02*Y6905D01*
G54D13*X19212Y5905D02*Y6220D01*
X18937Y6496D01*
X19252Y6731D02*Y6496D01*
X19448Y6299D01*
G54D12*X13586Y4656D02*X14401Y5393D01*
X14763Y5393D02*X14488D01*
G54D11*X13548Y5799D02*X13897Y6149D01*
Y6496D02*X14133Y6732D01*
X14803D01*
X13897Y6149D02*Y6496D01*
Y6968D02*X14212Y7283D01*
X14803D01*
X13469Y6981D02*X13482Y6968D01*
X13897D01*
X12440Y6299D02*X12834Y6692D01*
X12913Y5669D02*X12913D01*
X12834Y5708D02*X12874D01*
X12598Y5984D02*X12913Y5669D01*
G54D16*X18925Y7170D02*X19038D01*
X19211Y8155D02*X19013D01*
X18893Y7367D02*X19220D01*
X19013Y6974D02*X19271D01*
X18822Y7367D02*X18974D01*
G54D13*X20984Y7440D02*X22598D01*
X22204Y6811D02*X22047Y6968D01*
X21811Y7204D02*X21968Y7047D01*
X21574Y6968D02*X21811Y6732D01*
X21157Y6968D02*X20937Y6748D01*
X21063Y7204D02*X21811D01*
X21574Y6968D02*X21157D01*
G54D16*X18936Y6900D02*X19006Y6970D01*
X18992Y7171D02*X19292D01*
X18529Y7009D02*Y7074D01*
G54D13*X22047Y9291D02*X21496D01*
X20718Y9202D02*X21102D01*
G54D16*X17992Y8818D02*X17598D01*
G54D13*X20661Y8980D02*X21185D01*
G54D16*X20334D02*X20141Y9173D01*
X20659Y8981D02*X20651D01*
X20659Y8980D02*X20659Y8981D01*
G54D13*X20354Y8976D02*Y8307D01*
X20535Y9901D02*X20338Y10098D01*
X20236Y8189D02*Y8188D01*
X20354Y8307D02*X20236Y8189D01*
G54D16*X20141Y9173D02*X19960D01*
Y9354D02*X19787Y9531D01*
Y9533D02*X19472D01*
X20651Y8981D02*X19606Y10026D01*
X19960Y9173D02*Y9354D01*
G54D13*X19921Y10000D02*X20718Y9202D01*
X19848Y8549D02*X19921Y8622D01*
G54D16*X19573Y8549D02*X19848D01*
G54D13*X22322Y9645D02*Y9566D01*
X21533Y9883D02*X21850Y9566D01*
X22322D02*X22047Y9291D01*
G54D16*X22304Y10303D02*Y9601D01*
X21517Y10309D02*Y9883D01*
G54D13*X21185Y8980D02*X21271Y9066D01*
X21496Y9291D02*X21220Y9015D01*
X21102Y9202D02*X21338Y9438D01*
G54D16*X21338Y9438D02*X21375Y9476D01*
X21320Y9745D02*Y10297D01*
X21375Y9690D02*X21320Y9745D01*
X21375Y9476D02*Y9697D01*
G54D13*X26299Y14606D02*G75*G03X25787Y14094I0J-511D01*G01*
G75*G03X26299Y13582I511J0D01*G01*
X27283Y15472D02*G75*G03X26771Y14960I0J-511D01*G01*
G75*G03X27283Y14448I511J0D01*G01*
X27283D02*G75*G03X27795Y14960I0J511D01*G01*
X27283Y15472D02*G75*G02X27795Y14960I0J-511D01*G01*
G54D34*X30353Y9291D02*X30222Y9422D01*
Y9684D02*Y9422D01*
Y9684D02*X30353Y9815D01*
X31139D01*
X31270Y9684D02*X31139Y9815D01*
X31270Y9684D02*Y9422D01*
X31139Y9291D02*X31270Y9422D01*
X30746Y9815D02*Y9422D01*
X31270Y10522D02*Y10260D01*
X30222Y10391D02*X31270D01*
X30484Y10129D02*X30222Y10391D01*
Y10837D02*X30353D01*
X31008Y11492D01*
X31270D01*
X31008Y10837D02*X31270D01*
X31008D02*X30353Y11492D01*
X30222D02*X30353D01*
X30222Y12069D02*Y11807D01*
Y11938D02*X31270D01*
Y12069D02*Y11807D01*
Y12383D02*X30615Y13038D01*
X30222D02*X30615D01*
X30222D02*Y12383D01*
X3779Y14044D02*X4303D01*
X4434Y14175D01*
Y14437D02*Y14175D01*
X4303Y14568D02*X4434Y14437D01*
X3910Y14568D02*X4303D01*
X3910Y15092D02*Y14044D01*
X3779Y15092D02*X4303D01*
X4434Y14961D01*
Y14699D01*
X4303Y14568D02*X4434Y14699D01*
X4749Y15092D02*X5011D01*
X4880D02*Y14044D01*
X4749D02*X5011D01*
X5849Y15092D02*X5980Y14961D01*
X5456Y15092D02*X5849D01*
X5325Y14961D02*X5456Y15092D01*
X5325Y14961D02*Y14699D01*
X5456Y14568D01*
X5849D01*
X5980Y14437D01*
Y14175D01*
X5849Y14044D02*X5980Y14175D01*
X5456Y14044D02*X5849D01*
X5325Y14175D02*X5456Y14044D01*
G54D13*X1023Y3698D02*X1523Y3198D01*
X1023D02*X1523Y3698D01*
G54D18*X11023Y11968D03*
Y14968D03*
X10118Y14960D03*
Y11960D03*
X16023Y13110D03*
X13023D03*
X20551Y11889D03*
Y13889D03*
X30236Y8149D03*
Y7149D03*
X29236Y8149D03*
Y7149D03*
X28236Y8149D03*
Y7149D03*
X21850Y9803D03*
X27236Y8149D03*
Y7149D03*
X26236Y8149D03*
Y7149D03*
X28267Y1259D03*
X27267D03*
X28267Y2259D03*
X27267D03*
X28267Y3259D03*
X27267D03*
X28267Y4259D03*
X27267D03*
X28267Y5259D03*
X27267D03*
X27244Y6220D03*
X28228D03*
G54D12*X2519Y6177D03*
Y5677D03*
Y5177D03*
Y4677D03*
Y4177D03*
Y3677D03*
Y3177D03*
G54D19*Y2677D03*
G54D18*X18267Y1259D03*
X17267D03*
X18267Y2259D03*
X17267D03*
X18267Y3259D03*
X17267D03*
X18267Y4259D03*
X17267D03*
X18267Y5259D03*
X17267D03*
G54D20*X8858Y14763D03*
G54D12*X16299Y14448D03*
G54D18*X12716Y14842D03*
G54D12*X15314Y14724D03*
G54D18*X12244Y14291D03*
X14645Y13267D03*
G54D12*X16968Y14763D03*
Y13582D03*
X11732Y11968D03*
X8110Y12637D03*
X11889Y12480D03*
G54D20*X984Y14763D03*
G54D12*X15866Y11968D03*
X15669Y13622D03*
X17401Y13149D03*
X16417Y12047D03*
X19409Y12086D03*
X19015Y13149D03*
X18976Y12519D03*
X17992Y12834D03*
X19960Y14527D03*
X20078Y13031D03*
G54D18*X20944Y13149D03*
G54D12*X18700Y14511D03*
X21732Y5476D03*
X21299Y6574D03*
X22322Y6614D03*
X21811Y6574D03*
X22519Y8228D03*
X19921Y8622D03*
Y7401D03*
X20968Y9602D03*
X20236Y8149D03*
X18826Y9566D03*
X19960Y9173D03*
X18826Y8976D03*
X19212Y10236D03*
X16496Y8267D03*
X16023Y9055D03*
X17047Y9291D03*
X16141Y9925D03*
X16929Y9881D03*
X17047Y11417D03*
X16141Y7795D03*
X15551Y6141D03*
X18110Y7952D03*
X18031Y10118D03*
X14842Y10275D03*
X14976Y11496D03*
X14960Y10905D03*
X16063Y11338D03*
X18307Y11259D03*
X18110Y9173D03*
X14803Y9330D03*
X15039Y8818D03*
X16299Y10472D03*
X14015Y11574D03*
X12480Y11456D03*
X14527Y7874D03*
G54D18*X10826Y7047D03*
G54D12*X9488Y11062D03*
G54D18*X8070Y9960D03*
X8503Y7047D03*
X1811Y8228D03*
X3031Y7598D03*
G54D12*X2126Y7440D03*
X1732Y11141D03*
G54D18*X4291Y9999D03*
G54D12*X3610Y9405D03*
X2086Y9488D03*
X2165Y11614D03*
G54D18*X6102Y7126D03*
X6299Y10000D03*
G54D12*X23228Y11141D03*
G54D18*X23307Y15196D03*
X21338Y14527D03*
G54D12*X19409Y14803D03*
X22795Y9645D03*
X20535Y9901D03*
X21220Y11929D03*
X28779Y10039D03*
X28031Y12047D03*
X28700Y11614D03*
X28621Y10984D03*
X28346Y10433D03*
G54D20*X30511Y14763D03*
G54D12*X24252Y12244D03*
X25905Y11496D03*
X24291Y13976D03*
G54D18*X25275Y13622D03*
X24763Y12637D03*
G54D12*X25787Y12992D03*
X23858Y12755D03*
X24252Y11338D03*
X25275Y11023D03*
X23267Y10433D03*
X23307Y8228D03*
G54D18*X23897Y10314D03*
G54D12*X23303Y7000D03*
X26181Y9409D03*
X26063Y10000D03*
X25000Y7913D03*
X24448Y8307D03*
X24409Y8858D03*
X28307Y9527D03*
G54D18*X29527Y4212D03*
G54D12*X25551Y3976D03*
G54D18*X29527Y3307D03*
G54D20*X30511Y984D03*
G54D12*X29803Y9133D03*
X26102Y5472D03*
X22795Y7795D03*
X22716Y8740D03*
X20984Y1102D03*
G54D18*X22637Y1299D03*
G54D12*X19881Y4763D03*
X23070Y4685D03*
X23779Y6063D03*
G54D18*X23460Y3968D03*
X24291Y4488D03*
G54D12*X24566Y5944D03*
G54D18*X24842Y5078D03*
G54D12*X25078Y6929D03*
G54D18*X24094Y1220D03*
Y2480D03*
X24960Y1850D03*
G54D12*X19566Y2874D03*
G54D18*X16456Y1220D03*
X18897Y1811D03*
G54D12*X20078Y1456D03*
G54D18*X15590Y2007D03*
G54D12*X15590Y590D03*
X20748Y5433D03*
X20393Y5027D03*
X21574Y4724D03*
X14763Y5393D03*
G54D18*X12834Y4606D03*
G54D12*X12716Y3503D03*
X12716Y2362D03*
X14803Y4881D03*
X14606Y3976D03*
X14763Y2519D03*
X16023Y3779D03*
G54D18*X11102Y5275D03*
X10236Y4094D03*
X11692Y3425D03*
G54D12*X18818Y6063D03*
X14330Y6259D03*
X14803Y6732D03*
X16055Y6885D03*
X17047Y7165D03*
X16929Y7874D03*
X14803Y7283D03*
G54D18*X16535Y5905D03*
G54D12*X3385Y5236D03*
G54D18*X5590Y3976D03*
G54D12*X1771Y7007D03*
G54D18*X4252Y5433D03*
G54D12*X3385Y4685D03*
G54D18*X3582Y2716D03*
G54D20*X984Y984D03*
X8858Y984D03*
G54D12*X1102Y5393D03*
G54D18*X8897Y5314D03*
X7874Y4055D03*
X6456Y5314D03*
G54D21*X19555Y2161D02*X19735D01*
X19555Y2641D02*X19735D01*
G54D17*X22528Y1538D02*X23528D01*
G54D21*X19595Y586D02*X19775D01*
X19595Y1066D02*X19775D01*
G54D35*X20528Y2038D02*X21528D01*
X20528Y1538D02*X21528D01*
X20528Y2538D02*X21528D01*
G54D21*X13256Y783D02*X13436D01*
X13256Y1263D02*X13436D01*
X14610Y1310D02*Y1130D01*
X14130Y1310D02*Y1130D01*
X15658Y1342D02*X15838D01*
X15658Y862D02*X15838D01*
G54D35*X22528Y2538D02*X23528D01*
X22528Y2038D02*X23528D01*
X22028Y1538D02*Y538D01*
Y3538D02*Y2538D01*
G54D21*X24201Y1452D02*X24381D01*
X24201Y1932D02*X24381D01*
G54D27*X29688Y4052D02*Y3992D01*
G54D36*X13614Y2726D02*X13834D01*
G54D21*X12279Y1231D02*Y1051D01*
X12759Y1231D02*Y1051D01*
X12279Y1861D02*Y1681D01*
X12759Y1861D02*Y1681D01*
G54D22*X27747Y9509D02*X28397D01*
X27747Y10009D02*X28397D01*
X27747Y10509D02*X28397D01*
X27747Y11009D02*X28397D01*
X27747Y11509D02*X28397D01*
X27747Y12009D02*X28397D01*
X27747Y12509D02*X28397D01*
X27747Y13009D02*X28397D01*
G54D27*X30078Y4872D02*Y4812D01*
X29298Y4872D02*Y4812D01*
G54D37*X21517Y6200D02*Y5830D01*
X21714Y6200D02*Y5830D01*
X21911Y6200D02*Y5830D01*
X22108Y6200D02*Y5830D01*
X20336Y6200D02*Y5830D01*
X20533Y6200D02*Y5830D01*
X20730Y6200D02*Y5830D01*
X20927Y6200D02*Y5830D01*
X21123Y6200D02*Y5830D01*
X21320Y6200D02*Y5830D01*
X22305Y6200D02*Y5830D01*
X22501Y6200D02*Y5830D01*
X22698Y6200D02*Y5830D01*
X22895Y6200D02*Y5830D01*
X23092Y6200D02*Y5830D01*
G54D22*X23649Y5553D02*X24299D01*
X23649Y5053D02*X24299D01*
X23649Y4553D02*X24299D01*
X23649Y4053D02*X24299D01*
X25699Y5053D02*X26349D01*
X25699Y5553D02*X26349D01*
G54D37*X23669Y8746D02*X24039D01*
X23669Y8943D02*X24039D01*
X23669Y9139D02*X24039D01*
X23669Y9336D02*X24039D01*
X23669Y7958D02*X24039D01*
X23669Y8155D02*X24039D01*
X23669Y8352D02*X24039D01*
X23669Y8549D02*X24039D01*
G54D22*X25699Y4053D02*X26349D01*
X25699Y4553D02*X26349D01*
G54D37*X20139Y6200D02*Y5830D01*
G54D22*X25697Y10509D02*X26347D01*
X25697Y10009D02*X26347D01*
X25697Y9509D02*X26347D01*
G54D21*X24717Y15309D02*Y15149D01*
Y14489D02*Y14329D01*
X24988Y7476D02*X25168D01*
X24988Y7956D02*X25168D01*
G54D37*X23669Y6777D02*X24039D01*
X23669Y6974D02*X24039D01*
X23669Y7171D02*X24039D01*
X23669Y7368D02*X24039D01*
X23669Y7565D02*X24039D01*
X23669Y7761D02*X24039D01*
X23669Y9533D02*X24039D01*
X23669Y9730D02*X24039D01*
X23092Y10680D02*Y10310D01*
X22895Y10680D02*Y10310D01*
X22698Y10680D02*Y10310D01*
G54D21*X23937Y15309D02*Y15149D01*
Y14489D02*Y14329D01*
X24327Y14489D02*Y14329D01*
G54D38*X22724Y14548D03*
Y13648D03*
G54D21*X23704Y11271D02*Y11091D01*
X23472Y12370D02*Y12210D01*
X23862Y13190D02*Y13030D01*
X23472Y13190D02*Y13030D01*
X23224Y11271D02*Y11091D01*
G54D22*X25697Y12009D02*X26347D01*
X25697Y11509D02*X26347D01*
X25697Y11009D02*X26347D01*
G54D21*X24252Y13190D02*Y13030D01*
G54D22*X25697Y13009D02*X26347D01*
X25697Y12509D02*X26347D01*
G54D21*X24252Y12370D02*Y12210D01*
G54D37*X22501Y10680D02*Y10310D01*
X22305Y10680D02*Y10310D01*
X22108Y10680D02*Y10310D01*
X21911Y10680D02*Y10310D01*
G54D21*X22429Y11728D02*X22609D01*
X22429Y12208D02*X22609D01*
G54D37*X21714Y10680D02*Y10310D01*
X21517Y10680D02*Y10310D01*
X21320Y10680D02*Y10310D01*
X21123Y10680D02*Y10310D01*
X20927Y10680D02*Y10310D01*
X20730Y10680D02*Y10310D01*
X20533Y10680D02*Y10310D01*
X20336Y10680D02*Y10310D01*
X20139Y10680D02*Y10310D01*
G54D22*X16956Y14135D02*X17606D01*
X16956Y13635D02*X17606D01*
X16956Y13135D02*X17606D01*
X16956Y12635D02*X17606D01*
G54D38*X21824Y14548D03*
Y13648D03*
G54D22*X19006Y12635D02*X19656D01*
X19006Y13135D02*X19656D01*
X19006Y13635D02*X19656D01*
X19006Y14135D02*X19656D01*
G54D21*X21721Y12437D02*X21901D01*
X21721Y12917D02*X21901D01*
G54D22*X15227Y13698D02*X15877D01*
X15227Y14198D02*X15877D01*
X15227Y14698D02*X15877D01*
X15227Y15198D02*X15877D01*
X13177D02*X13827D01*
X13177Y14698D02*X13827D01*
X13177Y14198D02*X13827D01*
X13177Y13698D02*X13827D01*
G54D21*X14452Y12255D02*Y12075D01*
X13972Y12255D02*Y12075D01*
G54D22*X14949Y11970D02*X15599D01*
X16999D02*X17649D01*
X14949Y11470D02*X15599D01*
X14949Y10970D02*X15599D01*
X14949Y10470D02*X15599D01*
X16999D02*X17649D01*
X16999Y10970D02*X17649D01*
X16999Y11470D02*X17649D01*
G54D39*X13262Y10918D02*Y10578D01*
X13902Y10918D02*Y10578D01*
X13498Y9973D02*Y9633D01*
X14138Y9973D02*Y9633D01*
X13548Y5799D02*Y5459D01*
X13469Y6981D02*Y6641D01*
X13863Y8949D02*Y8609D01*
X13823Y7965D02*Y7625D01*
G54D22*X17038Y6218D02*X17688D01*
X17038Y6718D02*X17688D01*
X17038Y7218D02*X17688D01*
X17038Y7718D02*X17688D01*
X17038Y8344D02*X17688D01*
X17038Y9344D02*X17688D01*
X17038Y9844D02*X17688D01*
X17038Y8844D02*X17688D01*
G54D16*X19189Y9730D02*X19559D01*
G54D37*X19189Y9533D02*X19559D01*
X19189Y9336D02*X19559D01*
X19189Y9139D02*X19559D01*
X19189Y8943D02*X19559D01*
X19189Y8746D02*X19559D01*
X19189Y8549D02*X19559D01*
X19189Y8352D02*X19559D01*
X19189Y8155D02*X19559D01*
X19189Y7958D02*X19559D01*
X19189Y7761D02*X19559D01*
X19189Y7565D02*X19559D01*
X19189Y7368D02*X19559D01*
X19189Y7171D02*X19559D01*
X19189Y6974D02*X19559D01*
X19189Y6777D02*X19559D01*
G54D22*X14988Y9844D02*X15638D01*
X14988Y9344D02*X15638D01*
X14988Y8844D02*X15638D01*
X14988Y7718D02*X15638D01*
X14988Y8344D02*X15638D01*
G54D39*X12829Y6981D02*Y6641D01*
X13223Y8949D02*Y8609D01*
X13183Y7965D02*Y7625D01*
G54D21*X12287Y11349D02*Y11169D01*
X11807Y11349D02*Y11169D01*
G54D22*X14988Y7218D02*X15638D01*
X14988Y6718D02*X15638D01*
X14988Y6218D02*X15638D01*
G54D39*X12908Y5799D02*Y5459D01*
G54D21*X15189Y5427D02*Y5267D01*
X14409Y5427D02*Y5267D01*
Y4607D02*Y4447D01*
X14799Y4607D02*Y4447D01*
X15189Y4607D02*Y4447D01*
X13106Y4696D02*Y4516D01*
X13586Y4696D02*Y4516D01*
G54D36*X13614Y3496D02*X13834D01*
X13614Y3236D02*X13834D01*
X13614Y2986D02*X13834D01*
G54D33*X15284Y2716D02*X15504D01*
G54D36*X15284Y2976D02*X15504D01*
X15284Y3226D02*X15504D01*
X15284Y3486D02*X15504D01*
G54D22*X3613Y6950D02*X4263D01*
X3613Y7450D02*X4263D01*
X3613Y7950D02*X4263D01*
X3613Y8450D02*X4263D01*
X3613Y8950D02*X4263D01*
X3613Y9450D02*X4263D01*
X3613Y9950D02*X4263D01*
X3613Y10450D02*X4263D01*
X1563D02*X2213D01*
X1563Y9950D02*X2213D01*
X1563Y9450D02*X2213D01*
X1563Y8950D02*X2213D01*
X1563Y8450D02*X2213D01*
X1563Y7950D02*X2213D01*
X1563Y7450D02*X2213D01*
X1563Y6950D02*X2213D01*
G54D28*G54D17*G54D28*G54D11*G54D28*G54D29*G54D28*G54D30*G54D11*G54D31*G54D11*G54D31*G54D11*G54D30*G54D11*G54D31*G54D11*G54D31*G54D11*G54D31*G54D11*G54D31*G54D11*G54D31*G54D11*G54D31*G54D11*G54D30*G54D11*G54D32*G54D11*G54D32*G54D11*G54D31*G54D11*G54D31*G54D30*G54D11*G54D32*G54D11*G54D31*G54D11*G54D32*G54D11*G54D31*G54D32*G54D11*G54D31*G54D32*G54D11*G54D32*G54D11*G54D32*G54D11*G54D31*G54D11*G54D32*G54D11*G54D31*G54D11*G54D31*G54D11*G54D31*G54D30*G54D11*G54D31*M02*
