G04 start of page 10 for group -4015 idx -4015
G04 Title: stribog.main_board.bis, toppaste *
G04 Creator: pcb 20070208 *
G04 CreationDate: Sun Apr  6 09:45:44 2008 UTC *
G04 For: dti *
G04 Format: Gerber/RS-274X *
G04 PCB-Dimensions: 314961 157480 *
G04 PCB-Coordinate-Origin: lower left *
%MOIN*%
%FSLAX24Y24*%
%LNFRONTPASTE*%
%ADD16C,0.0098*%
%ADD17C,0.0250*%
%ADD21R,0.0240X0.0240*%
%ADD22R,0.0200X0.0200*%
%ADD27R,0.0340X0.0340*%
%ADD33C,0.0120*%
%ADD35R,0.0250X0.0250*%
%ADD36R,0.0120X0.0120*%
%ADD37R,0.0098X0.0098*%
%ADD38R,0.0500X0.0500*%
%ADD39R,0.0360X0.0360*%
G54D21*X22429Y11728D02*X22609D01*
X22429Y12208D02*X22609D01*
X12279Y1861D02*Y1681D01*
X12759Y1861D02*Y1681D01*
X12279Y1231D02*Y1051D01*
X12759Y1231D02*Y1051D01*
X14452Y12255D02*Y12075D01*
X13972Y12255D02*Y12075D01*
G54D27*X30078Y4872D02*Y4812D01*
X29298Y4872D02*Y4812D01*
X29688Y4052D02*Y3992D01*
G54D38*X21824Y14548D03*
Y13648D03*
X22724Y14548D03*
Y13648D03*
G54D21*X21721Y12437D02*X21901D01*
X21721Y12917D02*X21901D01*
G54D39*X13262Y10918D02*Y10578D01*
X13902Y10918D02*Y10578D01*
X13183Y7965D02*Y7625D01*
X13823Y7965D02*Y7625D01*
X13223Y8949D02*Y8609D01*
X13863Y8949D02*Y8609D01*
X12829Y6981D02*Y6641D01*
X13469Y6981D02*Y6641D01*
X12908Y5799D02*Y5459D01*
X13548Y5799D02*Y5459D01*
G54D22*X14949Y11970D02*X15599D01*
X14949Y11470D02*X15599D01*
X14949Y10970D02*X15599D01*
X14949Y10470D02*X15599D01*
X16999D02*X17649D01*
X16999Y10970D02*X17649D01*
X16999Y11470D02*X17649D01*
X16999Y11970D02*X17649D01*
G54D21*X15658Y1342D02*X15838D01*
X15658Y862D02*X15838D01*
G54D22*X19006Y12635D02*X19656D01*
X19006Y13135D02*X19656D01*
X19006Y13635D02*X19656D01*
X19006Y14135D02*X19656D01*
X16956D02*X17606D01*
X16956Y13635D02*X17606D01*
X16956Y13135D02*X17606D01*
X16956Y12635D02*X17606D01*
X15227Y13698D02*X15877D01*
X15227Y14198D02*X15877D01*
X15227Y14698D02*X15877D01*
X15227Y15198D02*X15877D01*
X13177D02*X13827D01*
X13177Y14698D02*X13827D01*
X13177Y14198D02*X13827D01*
X13177Y13698D02*X13827D01*
G54D21*X24717Y15309D02*Y15149D01*
X23937Y15309D02*Y15149D01*
Y14489D02*Y14329D01*
X24327Y14489D02*Y14329D01*
X24717Y14489D02*Y14329D01*
X14610Y1310D02*Y1130D01*
X14130Y1310D02*Y1130D01*
X23472Y12370D02*Y12210D01*
X24252Y12370D02*Y12210D01*
Y13190D02*Y13030D01*
X23862Y13190D02*Y13030D01*
X23472Y13190D02*Y13030D01*
X23704Y11271D02*Y11091D01*
X23224Y11271D02*Y11091D01*
G54D39*X13498Y9973D02*Y9633D01*
X14138Y9973D02*Y9633D01*
G54D22*X23649Y5553D02*X24299D01*
X23649Y5053D02*X24299D01*
X23649Y4553D02*X24299D01*
X23649Y4053D02*X24299D01*
X25699D02*X26349D01*
X25699Y4553D02*X26349D01*
X25699Y5053D02*X26349D01*
X25699Y5553D02*X26349D01*
G54D21*X19595Y586D02*X19775D01*
X19595Y1066D02*X19775D01*
X12287Y11349D02*Y11169D01*
X11807Y11349D02*Y11169D01*
G54D22*X3613Y6950D02*X4263D01*
X3613Y7450D02*X4263D01*
X3613Y7950D02*X4263D01*
X3613Y8450D02*X4263D01*
X3613Y8950D02*X4263D01*
X3613Y9450D02*X4263D01*
X3613Y9950D02*X4263D01*
X3613Y10450D02*X4263D01*
X1563D02*X2213D01*
X1563Y9950D02*X2213D01*
X1563Y9450D02*X2213D01*
X1563Y8950D02*X2213D01*
X1563Y8450D02*X2213D01*
X1563Y7950D02*X2213D01*
X1563Y7450D02*X2213D01*
X1563Y6950D02*X2213D01*
G54D16*X19189Y9730D02*X19559D01*
G54D37*X19189Y9533D02*X19559D01*
X19189Y9336D02*X19559D01*
X19189Y9139D02*X19559D01*
X19189Y8943D02*X19559D01*
X19189Y8746D02*X19559D01*
X19189Y8549D02*X19559D01*
X19189Y8352D02*X19559D01*
X19189Y8155D02*X19559D01*
X19189Y7958D02*X19559D01*
X19189Y7761D02*X19559D01*
X19189Y7565D02*X19559D01*
X19189Y7368D02*X19559D01*
X19189Y7171D02*X19559D01*
X19189Y6974D02*X19559D01*
X19189Y6777D02*X19559D01*
X20139Y6200D02*Y5830D01*
X20336Y6200D02*Y5830D01*
X20533Y6200D02*Y5830D01*
X20730Y6200D02*Y5830D01*
X20927Y6200D02*Y5830D01*
X21123Y6200D02*Y5830D01*
X21320Y6200D02*Y5830D01*
X21517Y6200D02*Y5830D01*
X21714Y6200D02*Y5830D01*
X21911Y6200D02*Y5830D01*
X22108Y6200D02*Y5830D01*
X22305Y6200D02*Y5830D01*
X22501Y6200D02*Y5830D01*
X22698Y6200D02*Y5830D01*
X22895Y6200D02*Y5830D01*
X23092Y6200D02*Y5830D01*
X23669Y6777D02*X24039D01*
X23669Y6974D02*X24039D01*
X23669Y7171D02*X24039D01*
X23669Y7368D02*X24039D01*
X23669Y7565D02*X24039D01*
X23669Y7761D02*X24039D01*
X23669Y7958D02*X24039D01*
X23669Y8155D02*X24039D01*
X23669Y8352D02*X24039D01*
X23669Y8549D02*X24039D01*
X23669Y8746D02*X24039D01*
X23669Y8943D02*X24039D01*
X23669Y9139D02*X24039D01*
X23669Y9336D02*X24039D01*
X23669Y9533D02*X24039D01*
X23669Y9730D02*X24039D01*
X23092Y10680D02*Y10310D01*
X22895Y10680D02*Y10310D01*
X22698Y10680D02*Y10310D01*
X22501Y10680D02*Y10310D01*
X22305Y10680D02*Y10310D01*
X22108Y10680D02*Y10310D01*
X21911Y10680D02*Y10310D01*
X21714Y10680D02*Y10310D01*
X21517Y10680D02*Y10310D01*
X21320Y10680D02*Y10310D01*
X21123Y10680D02*Y10310D01*
X20927Y10680D02*Y10310D01*
X20730Y10680D02*Y10310D01*
X20533Y10680D02*Y10310D01*
X20336Y10680D02*Y10310D01*
X20139Y10680D02*Y10310D01*
G54D21*X24201Y1452D02*X24381D01*
X24201Y1932D02*X24381D01*
X24988Y7476D02*X25168D01*
X24988Y7956D02*X25168D01*
G54D33*X15284Y2716D02*X15504D01*
G54D36*X15284Y2976D02*X15504D01*
X15284Y3226D02*X15504D01*
X15284Y3486D02*X15504D01*
X13614Y3496D02*X13834D01*
X13614Y3236D02*X13834D01*
X13614Y2986D02*X13834D01*
X13614Y2726D02*X13834D01*
G54D21*X15189Y5427D02*Y5267D01*
X14409Y5427D02*Y5267D01*
Y4607D02*Y4447D01*
X14799Y4607D02*Y4447D01*
X15189Y4607D02*Y4447D01*
X13256Y783D02*X13436D01*
X13256Y1263D02*X13436D01*
G54D22*X14988Y9844D02*X15638D01*
X14988Y9344D02*X15638D01*
X14988Y8844D02*X15638D01*
X14988Y8344D02*X15638D01*
X17038D02*X17688D01*
X17038Y8844D02*X17688D01*
X17038Y9344D02*X17688D01*
X17038Y9844D02*X17688D01*
G54D21*X13106Y4696D02*Y4516D01*
X13586Y4696D02*Y4516D01*
G54D22*X27747Y9509D02*X28397D01*
X27747Y10009D02*X28397D01*
X27747Y10509D02*X28397D01*
X27747Y11009D02*X28397D01*
X27747Y11509D02*X28397D01*
X27747Y12009D02*X28397D01*
X27747Y12509D02*X28397D01*
X27747Y13009D02*X28397D01*
X25697D02*X26347D01*
X25697Y12509D02*X26347D01*
X25697Y12009D02*X26347D01*
X25697Y11509D02*X26347D01*
X25697Y11009D02*X26347D01*
X25697Y10509D02*X26347D01*
X25697Y10009D02*X26347D01*
X25697Y9509D02*X26347D01*
G54D35*X22028Y1538D02*Y538D01*
X20528Y2538D02*X21528D01*
X20528Y2038D02*X21528D01*
X20528Y1538D02*X21528D01*
X22028Y3538D02*Y2538D01*
X22528D02*X23528D01*
X22528Y2038D02*X23528D01*
G54D17*X22528Y1538D02*X23528D01*
G54D21*X19555Y2161D02*X19735D01*
X19555Y2641D02*X19735D01*
G54D22*X14988Y7718D02*X15638D01*
X14988Y7218D02*X15638D01*
X14988Y6718D02*X15638D01*
X14988Y6218D02*X15638D01*
X17038D02*X17688D01*
X17038Y6718D02*X17688D01*
X17038Y7218D02*X17688D01*
X17038Y7718D02*X17688D01*
M02*
