G04 start of page 8 for group -4078 idx -4078
G04 Title: stribog.main_board.bis, bottomsilk *
G04 Creator: pcb 20070208 *
G04 CreationDate: Sun Apr  6 09:45:44 2008 UTC *
G04 For: dti *
G04 Format: Gerber/RS-274X *
G04 PCB-Dimensions: 314961 157480 *
G04 PCB-Coordinate-Origin: lower left *
%MOIN*%
%FSLAX24Y24*%
%LNBACKSILK*%
%ADD13C,0.0100*%
%ADD57C,0.0060*%
%ADD58C,0.0179*%
%ADD60C,0.0040*%
%ADD63C,0.0080*%
G54D57*X16483Y11974D02*X15643D01*
X16483Y12514D02*Y11974D01*
X15643Y12514D02*X16483D01*
X15643Y11974D02*Y12514D01*
X15616Y11265D02*X14776D01*
X15616Y11805D02*Y11265D01*
X14776Y11805D02*X15616D01*
X14776Y11265D02*Y11805D01*
X16797Y11726D02*Y11186D01*
X15957D02*X16797D01*
X15957Y11726D02*Y11186D01*
Y11726D02*X16797D01*
X14790Y13942D02*X13950D01*
X14790Y14482D02*Y13942D01*
X13950Y14482D02*X14790D01*
X13950Y13942D02*Y14482D01*
X18097Y13194D02*X17257D01*
X18097Y13734D02*Y13194D01*
X17257Y13734D02*X18097D01*
X17257Y13194D02*Y13734D01*
X15577Y10517D02*X14737D01*
X15577Y11057D02*Y10517D01*
X14737Y11057D02*X15577D01*
X14737Y10517D02*Y11057D01*
X18792Y13734D02*X19632D01*
X18792D02*Y13194D01*
X19632D01*
Y13734D02*Y13194D01*
X21529Y14593D02*Y13753D01*
X20989Y14593D02*X21529D01*
X20989D02*Y13753D01*
X21529D01*
X20446Y11333D02*X21286D01*
X20446D02*Y10793D01*
X21286D01*
Y11333D02*Y10793D01*
X25202Y13175D02*Y12335D01*
X25742D01*
Y13175D02*Y12335D01*
X25202Y13175D02*X25742D01*
X28380Y13097D02*Y12257D01*
X27840Y13097D02*X28380D01*
X27840D02*Y12257D01*
X28380D01*
G54D13*X23596Y15281D02*Y14481D01*
X25596D01*
X23596Y15281D02*X25596D01*
Y14481D01*
X25246Y15581D02*Y15381D01*
X25146Y15481D02*X25346D01*
X24573Y13607D02*X23773D01*
Y11607D01*
X24573D02*Y13607D01*
Y11607D02*X23773D01*
X24673Y11957D02*X24873D01*
X24773Y11857D02*Y12057D01*
G54D57*X29178Y11837D02*Y10997D01*
X29718D01*
Y11837D02*Y10997D01*
X29178Y11837D02*X29718D01*
X18792Y12632D02*X19632D01*
X18792D02*Y12092D01*
X19632D01*
Y12632D02*Y12092D01*
X18097Y14021D02*X17257D01*
X18097Y14561D02*Y14021D01*
X17257Y14561D02*X18097D01*
X17257Y14021D02*Y14561D01*
X18674D02*X19514D01*
X18674D02*Y14021D01*
X19514D01*
Y14561D02*Y14021D01*
X18136Y11974D02*X17296D01*
X18136Y12514D02*Y11974D01*
X17296Y12514D02*X18136D01*
X17296Y11974D02*Y12514D01*
X15459Y9100D02*X14619D01*
X15459Y9640D02*Y9100D01*
X14619Y9640D02*X15459D01*
X14619Y9100D02*Y9640D01*
X17002Y13609D02*Y12769D01*
X16462Y13609D02*X17002D01*
X16462D02*Y12769D01*
X17002D01*
X15209Y14994D02*X16049D01*
X15209D02*Y14454D01*
X16049D01*
Y14994D02*Y14454D01*
X15459Y10309D02*Y9769D01*
X14619D02*X15459D01*
X14619Y10309D02*Y9769D01*
Y10309D02*X15459D01*
X16955Y9663D02*X16115D01*
X16955Y10203D02*Y9663D01*
X16115Y10203D02*X16955D01*
X16115Y9663D02*Y10203D01*
X16916Y7485D02*X16076D01*
X16916Y8025D02*Y7485D01*
X16076Y8025D02*X16916D01*
X16076Y7485D02*Y8025D01*
X15459Y7092D02*X14619D01*
X15459Y7632D02*Y7092D01*
X14619Y7632D02*X15459D01*
X14619Y7092D02*Y7632D01*
X14894Y6411D02*Y5871D01*
Y6411D02*X15734D01*
Y5871D01*
X14894D02*X15734D01*
G54D13*X13867Y5758D02*Y5558D01*
X13767Y5658D02*X13967D01*
X12867Y5308D02*X13667D01*
Y7308D02*Y5308D01*
X12867Y7308D02*Y5308D01*
Y7308D02*X13667D01*
G54D57*X15695Y8391D02*X14855D01*
X15695Y8931D02*Y8391D01*
X14855Y8931D02*X15695D01*
X14855Y8391D02*Y8931D01*
X18871Y9521D02*X19711D01*
X18871D02*Y8981D01*
X19711D01*
Y9521D02*Y8981D01*
X16640Y9285D02*Y8745D01*
X15800D02*X16640D01*
X15800Y9285D02*Y8745D01*
Y9285D02*X16640D01*
X12965Y8509D02*X13805D01*
X12965Y9049D02*Y8509D01*
Y9049D02*X13805D01*
Y8509D01*
X22328Y6207D02*Y5367D01*
X22868D01*
Y6207D02*Y5367D01*
X22328Y6207D02*X22868D01*
X21344Y6286D02*Y5446D01*
X21884D01*
Y6286D02*Y5446D01*
X21344Y6286D02*X21884D01*
G54D13*X20377Y8852D02*X22377D01*
X20377D02*Y7052D01*
X22377D01*
Y8852D02*Y7052D01*
G54D57*X15301Y8301D02*Y7761D01*
X14461D02*X15301D01*
X14461Y8301D02*Y7761D01*
Y8301D02*X15301D01*
X13183Y14947D02*Y14107D01*
X12643Y14947D02*X13183D01*
X12643D02*Y14107D01*
X13183D01*
X11057Y11601D02*Y10761D01*
X10517D02*X11057D01*
X10517Y11601D02*Y10761D01*
Y11601D02*X11057D01*
G54D58*X14463Y12723D02*Y9323D01*
X11363Y12723D02*X14463D01*
X11363D02*Y9323D01*
X13163D02*X14463D01*
X11363D02*X12663D01*
X13163D02*G75*G03X12663Y9323I-250J0D01*G01*
G54D57*X15459Y6462D02*X14619D01*
X15459Y7002D02*Y6462D01*
X14619Y7002D02*X15459D01*
X14619Y6462D02*Y7002D01*
G54D13*X13063Y4020D02*X14453D01*
X13063Y5200D02*Y4020D01*
Y5200D02*X14453D01*
Y4020D01*
G54D57*X16679Y7120D02*Y6580D01*
X15839D02*X16679D01*
X15839Y7120D02*Y6580D01*
Y7120D02*X16679D01*
G54D63*X14015Y1673D02*X14488D01*
X14015Y925D02*X14488D01*
G54D57*X14002Y3655D02*Y3115D01*
X13162D02*X14002D01*
X13162Y3655D02*Y3115D01*
Y3655D02*X14002D01*
G54D13*X15033Y3619D02*X16313D01*
X15033D02*Y2229D01*
X16313D01*
Y3619D02*Y2229D01*
X15033Y3754D02*X15833D01*
Y5754D02*Y3754D01*
X15033Y5754D02*Y3754D01*
Y5754D02*X15833D01*
X14733Y5404D02*X14933D01*
X14833Y5504D02*Y5304D01*
X28809Y2708D02*X30009D01*
Y6308D02*Y2708D01*
X28809Y6308D02*Y2708D01*
Y6308D02*X30009D01*
X28409Y5708D02*X28609D01*
X28509Y5808D02*Y5608D01*
G54D57*X29178Y10380D02*Y9540D01*
X29718D01*
Y10380D02*Y9540D01*
X29178Y10380D02*X29718D01*
X26462Y10223D02*Y9383D01*
X27002D01*
Y10223D02*Y9383D01*
X26462Y10223D02*X27002D01*
X27879Y10301D02*Y9461D01*
X28419D01*
Y10301D02*Y9461D01*
X27879Y10301D02*X28419D01*
X25005Y10538D02*Y9698D01*
X25545D01*
Y10538D02*Y9698D01*
X25005Y10538D02*X25545D01*
X25123Y7335D02*X25663D01*
X25123D02*Y8175D01*
X25663D01*
Y7335D02*Y8175D01*
G54D13*X24964Y3302D02*Y4692D01*
X26144D01*
Y3302D01*
X24964D01*
X20103Y3705D02*X21403D01*
X21903D02*X23203D01*
X20103D02*Y1805D01*
X23203D01*
Y3705D02*Y1805D01*
X21403Y3705D02*G75*G03X21903Y3705I250J0D01*G01*
X22584Y1581D02*Y781D01*
X20584Y1581D02*X22584D01*
X20584Y781D02*X22584D01*
X20584Y1581D02*Y781D01*
X20934Y681D02*Y481D01*
X20834Y581D02*X21034D01*
G54D57*X19797Y1273D02*Y2113D01*
X19257D02*X19797D01*
X19257Y1273D02*Y2113D01*
Y1273D02*X19797D01*
X20367Y10033D02*X21207D01*
X20367D02*Y9493D01*
X21207D01*
Y10033D02*Y9493D01*
G54D13*X19048Y6746D02*X19848D01*
Y8746D02*Y6746D01*
X19048Y8746D02*Y6746D01*
Y8746D02*X19848D01*
X18748Y8396D02*X18948D01*
X18848Y8496D02*Y8296D01*
X21850Y9303D02*G75*G03X21850Y9303I0J500D01*G01*
G54D57*X21706Y9021D02*Y9561D01*
X22546D01*
Y9021D01*
X21706D01*
X23155Y9120D02*Y8280D01*
X23695D01*
Y9120D02*Y8280D01*
X23155Y9120D02*X23695D01*
X24973Y5584D02*X25813D01*
X24973D02*Y5044D01*
X25813D01*
Y5584D02*Y5044D01*
X24042Y6895D02*X23202D01*
X24042Y7435D02*Y6895D01*
X23202Y7435D02*X24042D01*
X23202Y6895D02*Y7435D01*
G54D13*X25737Y6820D02*X25937D01*
X25837Y6920D02*Y6720D01*
X26187Y6620D02*Y5820D01*
X24187Y6620D02*X26187D01*
X24187Y5820D02*X26187D01*
X24187Y6620D02*Y5820D01*
X23299Y2056D02*Y856D01*
X26899D01*
X23299Y2056D02*X26899D01*
Y856D01*
X26299Y2456D02*Y2256D01*
X26199Y2356D02*X26399D01*
G54D57*X24285Y3687D02*Y2847D01*
X23745Y3687D02*X24285D01*
X23745D02*Y2847D01*
X24285D01*
G54D60*X15631Y13043D02*X15831D01*
X15631D02*X15581Y12993D01*
Y12893D02*Y12993D01*
X15631Y12843D02*X15581Y12893D01*
X15631Y12843D02*X15781D01*
Y12643D02*Y13043D01*
Y12843D02*X15581Y12643D01*
X15311D02*X15411D01*
X15361D02*Y13043D01*
X15461Y12943D02*X15361Y13043D01*
X15191Y12993D02*X15141Y13043D01*
X14991D02*X15141D01*
X14991D02*X14941Y12993D01*
Y12893D02*Y12993D01*
X15191Y12643D02*X14941Y12893D01*
Y12643D02*X15191D01*
X15344Y12332D02*X15544D01*
X15344D02*X15294Y12282D01*
Y12182D02*Y12282D01*
X15344Y12132D02*X15294Y12182D01*
X15344Y12132D02*X15494D01*
Y11932D02*Y12332D01*
Y12132D02*X15294Y11932D01*
X15024D02*X15124D01*
X15074D02*Y12332D01*
X15174Y12232D02*X15074Y12332D01*
X14904Y11982D02*X14854Y11932D01*
X14904Y11982D02*Y12282D01*
X14854Y12332D01*
X14754D02*X14854D01*
X14754D02*X14704Y12282D01*
Y11982D02*Y12282D01*
X14754Y11932D02*X14704Y11982D01*
X14754Y11932D02*X14854D01*
X14904Y12032D02*X14704Y12232D01*
X14515Y15022D02*X14715D01*
X14515D02*X14465Y14972D01*
Y14872D02*Y14972D01*
X14515Y14822D02*X14465Y14872D01*
X14515Y14822D02*X14665D01*
Y14622D02*Y15022D01*
Y14822D02*X14465Y14622D01*
X14345Y14972D02*X14295Y15022D01*
X14145D02*X14295D01*
X14145D02*X14095Y14972D01*
Y14872D02*Y14972D01*
X14345Y14622D02*X14095Y14872D01*
Y14622D02*X14345D01*
X13825D02*X13925D01*
X13875D02*Y15022D01*
X13975Y14922D02*X13875Y15022D01*
X17917Y15139D02*X18117D01*
X17917D02*X17867Y15089D01*
Y14989D02*Y15089D01*
X17917Y14939D02*X17867Y14989D01*
X17917Y14939D02*X18067D01*
Y14739D02*Y15139D01*
Y14939D02*X17867Y14739D01*
X17747Y15089D02*X17697Y15139D01*
X17547D02*X17697D01*
X17547D02*X17497Y15089D01*
Y14989D02*Y15089D01*
X17747Y14739D02*X17497Y14989D01*
Y14739D02*X17747D01*
X17377Y14939D02*X17177Y15139D01*
X17127Y14939D02*X17377D01*
X17177Y14739D02*Y15139D01*
X18931Y15269D02*X19131D01*
X18931D02*X18881Y15219D01*
Y15119D02*Y15219D01*
X18931Y15069D02*X18881Y15119D01*
X18931Y15069D02*X19081D01*
Y14869D02*Y15269D01*
Y15069D02*X18881Y14869D01*
X18761Y15219D02*X18711Y15269D01*
X18561D02*X18711D01*
X18561D02*X18511Y15219D01*
Y15119D02*Y15219D01*
X18761Y14869D02*X18511Y15119D01*
Y14869D02*X18761D01*
X18391Y14919D02*X18341Y14869D01*
X18391Y14919D02*Y15219D01*
X18341Y15269D01*
X18241D02*X18341D01*
X18241D02*X18191Y15219D01*
Y14919D02*Y15219D01*
X18241Y14869D02*X18191Y14919D01*
X18241Y14869D02*X18341D01*
X18391Y14969D02*X18191Y15169D01*
X15834Y15659D02*X16034D01*
X15834D02*X15784Y15609D01*
Y15509D02*Y15609D01*
X15834Y15459D02*X15784Y15509D01*
X15834Y15459D02*X15984D01*
Y15259D02*Y15659D01*
Y15459D02*X15784Y15259D01*
X15514D02*X15614D01*
X15564D02*Y15659D01*
X15664Y15559D02*X15564Y15659D01*
X15394Y15259D02*X15144Y15509D01*
Y15659D01*
X15394D01*
X16511Y13719D02*X16661D01*
X16711Y13769D02*X16661Y13719D01*
X16711Y13769D02*Y14069D01*
X16661Y14119D01*
X16511D02*X16661D01*
X16391Y14069D02*X16341Y14119D01*
X16241D02*X16341D01*
X16241D02*X16191Y14069D01*
Y13769D02*Y14069D01*
X16241Y13719D02*X16191Y13769D01*
X16241Y13719D02*X16341D01*
X16391Y13769D02*X16341Y13719D01*
X16191Y13919D02*X16341D01*
X15921Y13719D02*X16021D01*
X15971D02*Y14119D01*
X16071Y14019D02*X15971Y14119D01*
X18034Y13122D02*X18234D01*
X18034D02*X17984Y13072D01*
Y12972D02*Y13072D01*
X18034Y12922D02*X17984Y12972D01*
X18034Y12922D02*X18184D01*
Y12722D02*Y13122D01*
Y12922D02*X17984Y12722D01*
X17864Y13072D02*X17814Y13122D01*
X17664D02*X17814D01*
X17664D02*X17614Y13072D01*
Y12972D02*Y13072D01*
X17864Y12722D02*X17614Y12972D01*
Y12722D02*X17864D01*
X17494Y13072D02*X17444Y13122D01*
X17344D02*X17444D01*
X17344D02*X17294Y13072D01*
Y12772D02*Y13072D01*
X17344Y12722D02*X17294Y12772D01*
X17344Y12722D02*X17444D01*
X17494Y12772D02*X17444Y12722D01*
X17294Y12922D02*X17444D01*
X20612Y14344D02*X20762D01*
X20812Y14394D02*X20762Y14344D01*
X20812Y14394D02*Y14694D01*
X20762Y14744D01*
X20612D02*X20762D01*
X20342Y14344D02*X20442D01*
X20392D02*Y14744D01*
X20492Y14644D02*X20392Y14744D01*
X26608Y14651D02*X26758D01*
X26808Y14701D02*X26758Y14651D01*
X26808Y14701D02*Y15001D01*
X26758Y15051D01*
X26608D02*X26758D01*
X26488Y15001D02*X26438Y15051D01*
X26338D02*X26438D01*
X26338D02*X26288Y15001D01*
Y14701D02*Y15001D01*
X26338Y14651D02*X26288Y14701D01*
X26338Y14651D02*X26438D01*
X26488Y14701D02*X26438Y14651D01*
X26288Y14851D02*X26438D01*
X26168D02*X25968Y15051D01*
X25918Y14851D02*X26168D01*
X25968Y14651D02*Y15051D01*
X23390Y12631D02*X23540D01*
X23590Y12681D02*X23540Y12631D01*
X23590Y12681D02*Y12981D01*
X23540Y13031D01*
X23390D02*X23540D01*
X23269Y12981D02*X23219Y13031D01*
X23119D02*X23219D01*
X23119D02*X23069Y12981D01*
Y12681D02*Y12981D01*
X23119Y12631D02*X23069Y12681D01*
X23119Y12631D02*X23219D01*
X23269Y12681D02*X23219Y12631D01*
X23069Y12831D02*X23219D01*
X22949Y12981D02*X22899Y13031D01*
X22799D02*X22899D01*
X22799D02*X22749Y12981D01*
Y12681D02*Y12981D01*
X22799Y12631D02*X22749Y12681D01*
X22799Y12631D02*X22899D01*
X22949Y12681D02*X22899Y12631D01*
X22749Y12831D02*X22899D01*
X30683Y9670D02*X30833D01*
X30883Y9720D02*X30833Y9670D01*
X30883Y9720D02*Y10020D01*
X30833Y10070D01*
X30683D02*X30833D01*
X30563Y10020D02*X30513Y10070D01*
X30363D02*X30513D01*
X30363D02*X30313Y10020D01*
Y9920D02*Y10020D01*
X30563Y9670D02*X30313Y9920D01*
Y9670D02*X30563D01*
X30193Y10020D02*X30143Y10070D01*
X29993D02*X30143D01*
X29993D02*X29943Y10020D01*
Y9920D02*Y10020D01*
X30193Y9670D02*X29943Y9920D01*
Y9670D02*X30193D01*
X26540Y12412D02*X26740D01*
X26540D02*X26490Y12362D01*
Y12262D02*Y12362D01*
X26540Y12212D02*X26490Y12262D01*
X26540Y12212D02*X26690D01*
Y12012D02*Y12412D01*
Y12212D02*X26490Y12012D01*
X26370Y12362D02*X26320Y12412D01*
X26170D02*X26320D01*
X26170D02*X26120Y12362D01*
Y12262D02*Y12362D01*
X26370Y12012D02*X26120Y12262D01*
Y12012D02*X26370D01*
X25800Y12412D02*X26000D01*
Y12212D02*Y12412D01*
Y12212D02*X25950Y12262D01*
X25850D02*X25950D01*
X25850D02*X25800Y12212D01*
Y12062D02*Y12212D01*
X25850Y12012D02*X25800Y12062D01*
X25850Y12012D02*X25950D01*
X26000Y12062D02*X25950Y12012D01*
X29156Y12487D02*X29306D01*
X29356Y12537D02*X29306Y12487D01*
X29356Y12537D02*Y12837D01*
X29306Y12887D01*
X29156D02*X29306D01*
X29036Y12837D02*X28986Y12887D01*
X28836D02*X28986D01*
X28836D02*X28786Y12837D01*
Y12737D02*Y12837D01*
X29036Y12487D02*X28786Y12737D01*
Y12487D02*X29036D01*
X28666Y12837D02*X28616Y12887D01*
X28516D02*X28616D01*
X28516D02*X28466Y12837D01*
Y12537D02*Y12837D01*
X28516Y12487D02*X28466Y12537D01*
X28516Y12487D02*X28616D01*
X28666Y12537D02*X28616Y12487D01*
X28466Y12687D02*X28616D01*
X30642Y11202D02*X30792D01*
X30842Y11252D02*X30792Y11202D01*
X30842Y11252D02*Y11552D01*
X30792Y11602D01*
X30642D02*X30792D01*
X30521Y11552D02*X30471Y11602D01*
X30321D02*X30471D01*
X30321D02*X30271Y11552D01*
Y11452D02*Y11552D01*
X30521Y11202D02*X30271Y11452D01*
Y11202D02*X30521D01*
X30151Y11402D02*X29951Y11602D01*
X29901Y11402D02*X30151D01*
X29951Y11202D02*Y11602D01*
X26855Y10507D02*X27005D01*
X27055Y10557D02*X27005Y10507D01*
X27055Y10557D02*Y10857D01*
X27005Y10907D01*
X26855D02*X27005D01*
X26735Y10857D02*X26685Y10907D01*
X26535D02*X26685D01*
X26535D02*X26485Y10857D01*
Y10757D02*Y10857D01*
X26735Y10507D02*X26485Y10757D01*
Y10507D02*X26735D01*
X26165Y10907D02*X26365D01*
Y10707D02*Y10907D01*
Y10707D02*X26315Y10757D01*
X26215D02*X26315D01*
X26215D02*X26165Y10707D01*
Y10557D02*Y10707D01*
X26215Y10507D02*X26165Y10557D01*
X26215Y10507D02*X26315D01*
X26365Y10557D02*X26315Y10507D01*
X25640Y9590D02*X25840D01*
X25640D02*X25590Y9540D01*
Y9440D02*Y9540D01*
X25640Y9390D02*X25590Y9440D01*
X25640Y9390D02*X25790D01*
Y9190D02*Y9590D01*
Y9390D02*X25590Y9190D01*
X25470Y9540D02*X25420Y9590D01*
X25270D02*X25420D01*
X25270D02*X25220Y9540D01*
Y9440D02*Y9540D01*
X25470Y9190D02*X25220Y9440D01*
Y9190D02*X25470D01*
X24950Y9590D02*X24900Y9540D01*
X24950Y9590D02*X25050D01*
X25100Y9540D02*X25050Y9590D01*
X25100Y9240D02*Y9540D01*
Y9240D02*X25050Y9190D01*
X24950Y9390D02*X24900Y9340D01*
X24950Y9390D02*X25100D01*
X24950Y9190D02*X25050D01*
X24950D02*X24900Y9240D01*
Y9340D01*
X14403Y6841D02*X14603D01*
X14403D02*X14353Y6791D01*
Y6691D02*Y6791D01*
X14403Y6641D02*X14353Y6691D01*
X14403Y6641D02*X14553D01*
Y6441D02*Y6841D01*
Y6641D02*X14353Y6441D01*
X14233Y6641D02*X14033Y6841D01*
X13983Y6641D02*X14233D01*
X14033Y6441D02*Y6841D01*
X14616Y8767D02*X14816D01*
X14616D02*X14566Y8717D01*
Y8617D02*Y8717D01*
X14616Y8567D02*X14566Y8617D01*
X14616Y8567D02*X14766D01*
Y8367D02*Y8767D01*
Y8567D02*X14566Y8367D01*
X14446D02*X14196Y8617D01*
Y8767D01*
X14446D01*
X14409Y7505D02*X14609D01*
X14409D02*X14359Y7455D01*
Y7355D02*Y7455D01*
X14409Y7305D02*X14359Y7355D01*
X14409Y7305D02*X14559D01*
Y7105D02*Y7505D01*
Y7305D02*X14359Y7105D01*
X14039Y7505D02*X14239D01*
Y7305D02*Y7505D01*
Y7305D02*X14189Y7355D01*
X14089D02*X14189D01*
X14089D02*X14039Y7305D01*
Y7155D02*Y7305D01*
X14089Y7105D02*X14039Y7155D01*
X14089Y7105D02*X14189D01*
X14239Y7155D02*X14189Y7105D01*
X17459Y7973D02*X17659D01*
X17459D02*X17409Y7923D01*
Y7823D02*Y7923D01*
X17459Y7773D02*X17409Y7823D01*
X17459Y7773D02*X17609D01*
Y7573D02*Y7973D01*
Y7773D02*X17409Y7573D01*
X17139Y7973D02*X17089Y7923D01*
X17139Y7973D02*X17239D01*
X17289Y7923D02*X17239Y7973D01*
X17289Y7623D02*Y7923D01*
Y7623D02*X17239Y7573D01*
X17139Y7773D02*X17089Y7723D01*
X17139Y7773D02*X17289D01*
X17139Y7573D02*X17239D01*
X17139D02*X17089Y7623D01*
Y7723D01*
X17422Y8445D02*X17572D01*
X17622Y8495D02*X17572Y8445D01*
X17622Y8495D02*Y8795D01*
X17572Y8845D01*
X17422D02*X17572D01*
X17152Y8445D02*X17252D01*
X17202D02*Y8845D01*
X17302Y8745D02*X17202Y8845D01*
X17032Y8445D02*X16832Y8645D01*
Y8795D01*
X16882Y8845D02*X16832Y8795D01*
X16882Y8845D02*X16982D01*
X17032Y8795D02*X16982Y8845D01*
X17032Y8695D02*Y8795D01*
Y8695D02*X16982Y8645D01*
X16832D02*X16982D01*
X15874Y9766D02*X16074D01*
X15874D02*X15824Y9716D01*
Y9616D02*Y9716D01*
X15874Y9566D02*X15824Y9616D01*
X15874Y9566D02*X16024D01*
Y9366D02*Y9766D01*
Y9566D02*X15824Y9366D01*
X15704Y9416D02*X15654Y9366D01*
X15704Y9416D02*Y9516D01*
X15654Y9566D01*
X15554D02*X15654D01*
X15554D02*X15504Y9516D01*
Y9416D02*Y9516D01*
X15554Y9366D02*X15504Y9416D01*
X15554Y9366D02*X15654D01*
X15704Y9616D02*X15654Y9566D01*
X15704Y9616D02*Y9716D01*
X15654Y9766D01*
X15554D02*X15654D01*
X15554D02*X15504Y9716D01*
Y9616D02*Y9716D01*
X15554Y9566D02*X15504Y9616D01*
X16037Y10140D02*X16187D01*
X16237Y10190D02*X16187Y10140D01*
X16237Y10190D02*Y10490D01*
X16187Y10540D01*
X16037D02*X16187D01*
X15717D02*X15917D01*
Y10340D02*Y10540D01*
Y10340D02*X15867Y10390D01*
X15767D02*X15867D01*
X15767D02*X15717Y10340D01*
Y10190D02*Y10340D01*
X15767Y10140D02*X15717Y10190D01*
X15767Y10140D02*X15867D01*
X15917Y10190D02*X15867Y10140D01*
X15597Y10190D02*X15547Y10140D01*
X15597Y10190D02*Y10490D01*
X15547Y10540D01*
X15447D02*X15547D01*
X15447D02*X15397Y10490D01*
Y10190D02*Y10490D01*
X15447Y10140D02*X15397Y10190D01*
X15447Y10140D02*X15547D01*
X15597Y10240D02*X15397Y10440D01*
X16654Y4962D02*X16804D01*
X16854Y5012D02*X16804Y4962D01*
X16854Y5012D02*Y5312D01*
X16804Y5362D01*
X16654D02*X16804D01*
X16534Y5162D02*X16334Y5362D01*
X16284Y5162D02*X16534D01*
X16334Y4962D02*Y5362D01*
X16014Y4962D02*X16114D01*
X16064D02*Y5362D01*
X16164Y5262D02*X16064Y5362D01*
X16261Y11010D02*X16461D01*
X16261D02*X16211Y10960D01*
Y10860D02*Y10960D01*
X16261Y10810D02*X16211Y10860D01*
X16261Y10810D02*X16411D01*
Y10610D02*Y11010D01*
Y10810D02*X16211Y10610D01*
X15941D02*X16041D01*
X15991D02*Y11010D01*
X16091Y10910D02*X15991Y11010D01*
X15671Y10610D02*X15771D01*
X15721D02*Y11010D01*
X15821Y10910D02*X15721Y11010D01*
X17451Y10710D02*X17601D01*
X17651Y10760D02*X17601Y10710D01*
X17651Y10760D02*Y11060D01*
X17601Y11110D01*
X17451D02*X17601D01*
X17181Y10710D02*X17281D01*
X17231D02*Y11110D01*
X17331Y11010D02*X17231Y11110D01*
X17061Y10760D02*X17011Y10710D01*
X17061Y10760D02*Y10860D01*
X17011Y10910D01*
X16911D02*X17011D01*
X16911D02*X16861Y10860D01*
Y10760D02*Y10860D01*
X16911Y10710D02*X16861Y10760D01*
X16911Y10710D02*X17011D01*
X17061Y10960D02*X17011Y10910D01*
X17061Y10960D02*Y11060D01*
X17011Y11110D01*
X16911D02*X17011D01*
X16911D02*X16861Y11060D01*
Y10960D02*Y11060D01*
X16911Y10910D02*X16861Y10960D01*
X17487Y10380D02*X17687D01*
X17487D02*X17437Y10330D01*
Y10230D02*Y10330D01*
X17487Y10180D02*X17437Y10230D01*
X17487Y10180D02*X17637D01*
Y9980D02*Y10380D01*
Y10180D02*X17437Y9980D01*
X17317D02*X17117Y10180D01*
Y10330D01*
X17167Y10380D02*X17117Y10330D01*
X17167Y10380D02*X17267D01*
X17317Y10330D02*X17267Y10380D01*
X17317Y10230D02*Y10330D01*
Y10230D02*X17267Y10180D01*
X17117D02*X17267D01*
X16574Y5984D02*X16724D01*
X16774Y6034D02*X16724Y5984D01*
X16774Y6034D02*Y6334D01*
X16724Y6384D01*
X16574D02*X16724D01*
X16254D02*X16454D01*
Y6184D02*Y6384D01*
Y6184D02*X16404Y6234D01*
X16304D02*X16404D01*
X16304D02*X16254Y6184D01*
Y6034D02*Y6184D01*
X16304Y5984D02*X16254Y6034D01*
X16304Y5984D02*X16404D01*
X16454Y6034D02*X16404Y5984D01*
X16133Y6334D02*X16083Y6384D01*
X15933D02*X16083D01*
X15933D02*X15883Y6334D01*
Y6234D02*Y6334D01*
X16133Y5984D02*X15883Y6234D01*
Y5984D02*X16133D01*
X18566Y7032D02*X18716D01*
X18766Y7082D02*X18716Y7032D01*
X18766Y7082D02*Y7382D01*
X18716Y7432D01*
X18566D02*X18716D01*
X18446Y7382D02*X18396Y7432D01*
X18296D02*X18396D01*
X18296D02*X18246Y7382D01*
Y7082D02*Y7382D01*
X18296Y7032D02*X18246Y7082D01*
X18296Y7032D02*X18396D01*
X18446Y7082D02*X18396Y7032D01*
X18246Y7232D02*X18396D01*
X18126Y7032D02*X17876Y7282D01*
Y7432D01*
X18126D01*
X17444Y6413D02*X17594D01*
X17644Y6463D02*X17594Y6413D01*
X17644Y6463D02*Y6763D01*
X17594Y6813D01*
X17444D02*X17594D01*
X17324Y6763D02*X17274Y6813D01*
X17124D02*X17274D01*
X17124D02*X17074Y6763D01*
Y6663D02*Y6763D01*
X17324Y6413D02*X17074Y6663D01*
Y6413D02*X17324D01*
X16954Y6463D02*X16904Y6413D01*
X16954Y6463D02*Y6763D01*
X16904Y6813D01*
X16804D02*X16904D01*
X16804D02*X16754Y6763D01*
Y6463D02*Y6763D01*
X16804Y6413D02*X16754Y6463D01*
X16804Y6413D02*X16904D01*
X16954Y6513D02*X16754Y6713D01*
X22878Y3954D02*Y4304D01*
Y3954D02*X22828Y3904D01*
X22728D02*X22828D01*
X22728D02*X22678Y3954D01*
Y4304D01*
X22408Y3904D02*X22508D01*
X22458D02*Y4304D01*
X22558Y4204D02*X22458Y4304D01*
X22288Y4254D02*X22238Y4304D01*
X22088D02*X22238D01*
X22088D02*X22038Y4254D01*
Y4154D02*Y4254D01*
X22288Y3904D02*X22038Y4154D01*
Y3904D02*X22288D01*
X26537Y4833D02*X26687D01*
X26737Y4883D02*X26687Y4833D01*
X26737Y4883D02*Y5183D01*
X26687Y5233D01*
X26537D02*X26687D01*
X26417Y5183D02*X26367Y5233D01*
X26217D02*X26367D01*
X26217D02*X26167Y5183D01*
Y5083D02*Y5183D01*
X26417Y4833D02*X26167Y5083D01*
Y4833D02*X26417D01*
X25897Y5233D02*X25847Y5183D01*
X25897Y5233D02*X25997D01*
X26047Y5183D02*X25997Y5233D01*
X26047Y4883D02*Y5183D01*
Y4883D02*X25997Y4833D01*
X25897Y5033D02*X25847Y4983D01*
X25897Y5033D02*X26047D01*
X25897Y4833D02*X25997D01*
X25897D02*X25847Y4883D01*
Y4983D01*
X23754Y5268D02*X23904D01*
X23954Y5318D02*X23904Y5268D01*
X23954Y5318D02*Y5618D01*
X23904Y5668D01*
X23754D02*X23904D01*
X23634Y5468D02*X23434Y5668D01*
X23384Y5468D02*X23634D01*
X23434Y5268D02*Y5668D01*
X23264Y5618D02*X23214Y5668D01*
X23064D02*X23214D01*
X23064D02*X23014Y5618D01*
Y5518D02*Y5618D01*
X23264Y5268D02*X23014Y5518D01*
Y5268D02*X23264D01*
X20968Y5740D02*X21118D01*
X21168Y5790D02*X21118Y5740D01*
X21168Y5790D02*Y6090D01*
X21118Y6140D01*
X20968D02*X21118D01*
X20848Y6090D02*X20798Y6140D01*
X20698D02*X20798D01*
X20698D02*X20648Y6090D01*
Y5790D02*Y6090D01*
X20698Y5740D02*X20648Y5790D01*
X20698Y5740D02*X20798D01*
X20848Y5790D02*X20798Y5740D01*
X20648Y5940D02*X20798D01*
X20528Y5740D02*X20328Y5940D01*
Y6090D01*
X20378Y6140D02*X20328Y6090D01*
X20378Y6140D02*X20478D01*
X20528Y6090D02*X20478Y6140D01*
X20528Y5990D02*Y6090D01*
Y5990D02*X20478Y5940D01*
X20328D02*X20478D01*
X26572Y179D02*X26722D01*
X26772Y229D02*X26722Y179D01*
X26772Y229D02*Y529D01*
X26722Y579D01*
X26572D02*X26722D01*
X26452Y529D02*X26402Y579D01*
X26252D02*X26402D01*
X26252D02*X26202Y529D01*
Y429D02*Y529D01*
X26452Y179D02*X26202Y429D01*
Y179D02*X26452D01*
X26082D02*X25882Y379D01*
Y529D01*
X25932Y579D02*X25882Y529D01*
X25932Y579D02*X26032D01*
X26082Y529D02*X26032Y579D01*
X26082Y429D02*Y529D01*
Y429D02*X26032Y379D01*
X25882D02*X26032D01*
X25058Y2530D02*X25208D01*
X25258Y2580D02*X25208Y2530D01*
X25258Y2580D02*Y2880D01*
X25208Y2930D01*
X25058D02*X25208D01*
X24938Y2880D02*X24888Y2930D01*
X24788D02*X24888D01*
X24788D02*X24738Y2880D01*
Y2580D02*Y2880D01*
X24788Y2530D02*X24738Y2580D01*
X24788Y2530D02*X24888D01*
X24938Y2580D02*X24888Y2530D01*
X24738Y2730D02*X24888D01*
X24618Y2580D02*X24568Y2530D01*
X24618Y2580D02*Y2880D01*
X24568Y2930D01*
X24468D02*X24568D01*
X24468D02*X24418Y2880D01*
Y2580D02*Y2880D01*
X24468Y2530D02*X24418Y2580D01*
X24468Y2530D02*X24568D01*
X24618Y2630D02*X24418Y2830D01*
X27083Y3586D02*Y3936D01*
Y3586D02*X27033Y3536D01*
X26933D02*X27033D01*
X26933D02*X26883Y3586D01*
Y3936D01*
X26613Y3536D02*X26713D01*
X26663D02*Y3936D01*
X26763Y3836D02*X26663Y3936D01*
X26493Y3586D02*X26443Y3536D01*
X26493Y3586D02*Y3686D01*
X26443Y3736D01*
X26343D02*X26443D01*
X26343D02*X26293Y3686D01*
Y3586D02*Y3686D01*
X26343Y3536D02*X26293Y3586D01*
X26343Y3536D02*X26443D01*
X26493Y3786D02*X26443Y3736D01*
X26493Y3786D02*Y3886D01*
X26443Y3936D01*
X26343D02*X26443D01*
X26343D02*X26293Y3886D01*
Y3786D02*Y3886D01*
X26343Y3736D02*X26293Y3786D01*
X22092Y262D02*X22242D01*
X22292Y312D02*X22242Y262D01*
X22292Y312D02*Y612D01*
X22242Y662D01*
X22092D02*X22242D01*
X21972Y612D02*X21922Y662D01*
X21772D02*X21922D01*
X21772D02*X21722Y612D01*
Y512D02*Y612D01*
X21972Y262D02*X21722Y512D01*
Y262D02*X21972D01*
X21601D02*X21351Y512D01*
Y662D01*
X21601D01*
X19171Y2287D02*X19321D01*
X19371Y2337D02*X19321Y2287D01*
X19371Y2337D02*Y2637D01*
X19321Y2687D01*
X19171D02*X19321D01*
X19051Y2637D02*X19001Y2687D01*
X18901D02*X19001D01*
X18901D02*X18851Y2637D01*
Y2337D02*Y2637D01*
X18901Y2287D02*X18851Y2337D01*
X18901Y2287D02*X19001D01*
X19051Y2337D02*X19001Y2287D01*
X18851Y2487D02*X19001D01*
X19595Y9625D02*X19745D01*
X19795Y9675D02*X19745Y9625D01*
X19795Y9675D02*Y9975D01*
X19745Y10025D01*
X19595D02*X19745D01*
X19475Y9825D02*X19275Y10025D01*
X19225Y9825D02*X19475D01*
X19275Y9625D02*Y10025D01*
X19105Y9975D02*X19055Y10025D01*
X18955D02*X19055D01*
X18955D02*X18905Y9975D01*
Y9675D02*Y9975D01*
X18955Y9625D02*X18905Y9675D01*
X18955Y9625D02*X19055D01*
X19105Y9675D02*X19055Y9625D01*
X18905Y9825D02*X19055D01*
X20942Y9009D02*X21092D01*
X21142Y9059D02*X21092Y9009D01*
X21142Y9059D02*Y9359D01*
X21092Y9409D01*
X20942D02*X21092D01*
X20822Y9359D02*X20772Y9409D01*
X20672D02*X20772D01*
X20672D02*X20622Y9359D01*
Y9059D02*Y9359D01*
X20672Y9009D02*X20622Y9059D01*
X20672Y9009D02*X20772D01*
X20822Y9059D02*X20772Y9009D01*
X20622Y9209D02*X20772D01*
X20352Y9409D02*X20302Y9359D01*
X20352Y9409D02*X20452D01*
X20502Y9359D02*X20452Y9409D01*
X20502Y9059D02*Y9359D01*
Y9059D02*X20452Y9009D01*
X20352Y9209D02*X20302Y9159D01*
X20352Y9209D02*X20502D01*
X20352Y9009D02*X20452D01*
X20352D02*X20302Y9059D01*
Y9159D01*
X22599Y10969D02*X22799D01*
X22699Y10569D02*Y10969D01*
X22429Y10569D02*Y10969D01*
X22279D02*X22479D01*
X22279D02*X22229Y10919D01*
Y10819D02*Y10919D01*
X22279Y10769D02*X22229Y10819D01*
X22279Y10769D02*X22429D01*
X21959Y10569D02*X22059D01*
X22009D02*Y10969D01*
X22109Y10869D02*X22009Y10969D01*
X23097Y10266D02*X23297D01*
X23097D02*X23047Y10216D01*
Y10116D02*Y10216D01*
X23097Y10066D02*X23047Y10116D01*
X23097Y10066D02*X23247D01*
Y9866D02*Y10266D01*
Y10066D02*X23047Y9866D01*
X22926Y10066D02*X22726Y10266D01*
X22676Y10066D02*X22926D01*
X22726Y9866D02*Y10266D01*
X22556Y9916D02*X22506Y9866D01*
X22556Y9916D02*Y10216D01*
X22506Y10266D01*
X22406D02*X22506D01*
X22406D02*X22356Y10216D01*
Y9916D02*Y10216D01*
X22406Y9866D02*X22356Y9916D01*
X22406Y9866D02*X22506D01*
X22556Y9966D02*X22356Y10166D01*
X19584Y13183D02*X19784D01*
X19584D02*X19534Y13133D01*
Y13033D02*Y13133D01*
X19584Y12983D02*X19534Y13033D01*
X19584Y12983D02*X19734D01*
Y12783D02*Y13183D01*
Y12983D02*X19534Y12783D01*
X19264D02*X19364D01*
X19314D02*Y13183D01*
X19414Y13083D02*X19314Y13183D01*
X19144Y12833D02*X19094Y12783D01*
X19144Y12833D02*Y12933D01*
X19094Y12983D01*
X18994D02*X19094D01*
X18994D02*X18944Y12933D01*
Y12833D02*Y12933D01*
X18994Y12783D02*X18944Y12833D01*
X18994Y12783D02*X19094D01*
X19144Y13033D02*X19094Y12983D01*
X19144Y13033D02*Y13133D01*
X19094Y13183D01*
X18994D02*X19094D01*
X18994D02*X18944Y13133D01*
Y13033D02*Y13133D01*
X18994Y12983D02*X18944Y13033D01*
X19459Y11971D02*X19659D01*
X19459D02*X19409Y11921D01*
Y11821D02*Y11921D01*
X19459Y11771D02*X19409Y11821D01*
X19459Y11771D02*X19609D01*
Y11571D02*Y11971D01*
Y11771D02*X19409Y11571D01*
X19139D02*X19239D01*
X19189D02*Y11971D01*
X19289Y11871D02*X19189Y11971D01*
X19019Y11571D02*X18819Y11771D01*
Y11921D01*
X18869Y11971D02*X18819Y11921D01*
X18869Y11971D02*X18969D01*
X19019Y11921D02*X18969Y11971D01*
X19019Y11821D02*Y11921D01*
Y11821D02*X18969Y11771D01*
X18819D02*X18969D01*
X18350Y11893D02*X18550D01*
X18350D02*X18300Y11843D01*
Y11743D02*Y11843D01*
X18350Y11693D02*X18300Y11743D01*
X18350Y11693D02*X18500D01*
Y11493D02*Y11893D01*
Y11693D02*X18300Y11493D01*
X18179Y11843D02*X18129Y11893D01*
X17979D02*X18129D01*
X17979D02*X17929Y11843D01*
Y11743D02*Y11843D01*
X18179Y11493D02*X17929Y11743D01*
Y11493D02*X18179D01*
X17809Y11843D02*X17759Y11893D01*
X17609D02*X17759D01*
X17609D02*X17559Y11843D01*
Y11743D02*Y11843D01*
X17809Y11493D02*X17559Y11743D01*
Y11493D02*X17809D01*
X23688Y6339D02*X23838D01*
X23888Y6389D02*X23838Y6339D01*
X23888Y6389D02*Y6689D01*
X23838Y6739D01*
X23688D02*X23838D01*
X23568Y6539D02*X23368Y6739D01*
X23318Y6539D02*X23568D01*
X23368Y6339D02*Y6739D01*
X23198Y6539D02*X22998Y6739D01*
X22948Y6539D02*X23198D01*
X22998Y6339D02*Y6739D01*
X20724Y6530D02*Y6930D01*
X20524Y6530D02*X20724D01*
X20254D02*X20354D01*
X20304D02*Y6930D01*
X20404Y6830D02*X20304Y6930D01*
X24163Y9250D02*X24313D01*
X24363Y9300D02*X24313Y9250D01*
X24363Y9300D02*Y9600D01*
X24313Y9650D01*
X24163D02*X24313D01*
X24043Y9600D02*X23993Y9650D01*
X23893D02*X23993D01*
X23893D02*X23843Y9600D01*
Y9300D02*Y9600D01*
X23893Y9250D02*X23843Y9300D01*
X23893Y9250D02*X23993D01*
X24043Y9300D02*X23993Y9250D01*
X23843Y9450D02*X23993D01*
X23723Y9300D02*X23673Y9250D01*
X23723Y9300D02*Y9400D01*
X23673Y9450D01*
X23573D02*X23673D01*
X23573D02*X23523Y9400D01*
Y9300D02*Y9400D01*
X23573Y9250D02*X23523Y9300D01*
X23573Y9250D02*X23673D01*
X23723Y9500D02*X23673Y9450D01*
X23723Y9500D02*Y9600D01*
X23673Y9650D01*
X23573D02*X23673D01*
X23573D02*X23523Y9600D01*
Y9500D02*Y9600D01*
X23573Y9450D02*X23523Y9500D01*
X20042Y10842D02*X20192D01*
X20242Y10892D02*X20192Y10842D01*
X20242Y10892D02*Y11192D01*
X20192Y11242D01*
X20042D02*X20192D01*
X19922Y11192D02*X19872Y11242D01*
X19722D02*X19872D01*
X19722D02*X19672Y11192D01*
Y11092D02*Y11192D01*
X19922Y10842D02*X19672Y11092D01*
Y10842D02*X19922D01*
X25606Y8728D02*X25806D01*
X25606D02*X25556Y8678D01*
Y8578D02*Y8678D01*
X25606Y8528D02*X25556Y8578D01*
X25606Y8528D02*X25756D01*
Y8328D02*Y8728D01*
Y8528D02*X25556Y8328D01*
X25436Y8678D02*X25386Y8728D01*
X25286D02*X25386D01*
X25286D02*X25236Y8678D01*
Y8378D02*Y8678D01*
X25286Y8328D02*X25236Y8378D01*
X25286Y8328D02*X25386D01*
X25436Y8378D02*X25386Y8328D01*
X25236Y8528D02*X25386D01*
X24916Y8728D02*X25116D01*
Y8528D02*Y8728D01*
Y8528D02*X25066Y8578D01*
X24966D02*X25066D01*
X24966D02*X24916Y8528D01*
Y8378D02*Y8528D01*
X24966Y8328D02*X24916Y8378D01*
X24966Y8328D02*X25066D01*
X25116Y8378D02*X25066Y8328D01*
X28346Y8735D02*X28496D01*
X28546Y8785D02*X28496Y8735D01*
X28546Y8785D02*Y9085D01*
X28496Y9135D01*
X28346D02*X28496D01*
X28226Y9085D02*X28176Y9135D01*
X28026D02*X28176D01*
X28026D02*X27976Y9085D01*
Y8985D02*Y9085D01*
X28226Y8735D02*X27976Y8985D01*
Y8735D02*X28226D01*
X27706D02*X27806D01*
X27756D02*Y9135D01*
X27856Y9035D02*X27756Y9135D01*
X28434Y6073D02*X28584D01*
X28634Y6123D02*X28584Y6073D01*
X28634Y6123D02*Y6423D01*
X28584Y6473D01*
X28434D02*X28584D01*
X28314Y6423D02*X28264Y6473D01*
X28114D02*X28264D01*
X28114D02*X28064Y6423D01*
Y6323D02*Y6423D01*
X28314Y6073D02*X28064Y6323D01*
Y6073D02*X28314D01*
X27944Y6123D02*X27894Y6073D01*
X27944Y6123D02*Y6223D01*
X27894Y6273D01*
X27794D02*X27894D01*
X27794D02*X27744Y6223D01*
Y6123D02*Y6223D01*
X27794Y6073D02*X27744Y6123D01*
X27794Y6073D02*X27894D01*
X27944Y6323D02*X27894Y6273D01*
X27944Y6323D02*Y6423D01*
X27894Y6473D01*
X27794D02*X27894D01*
X27794D02*X27744Y6423D01*
Y6323D02*Y6423D01*
X27794Y6273D02*X27744Y6323D01*
X27053Y5866D02*X27203D01*
X27253Y5916D02*X27203Y5866D01*
X27253Y5916D02*Y6216D01*
X27203Y6266D01*
X27053D02*X27203D01*
X26733D02*X26933D01*
Y6066D02*Y6266D01*
Y6066D02*X26883Y6116D01*
X26783D02*X26883D01*
X26783D02*X26733Y6066D01*
Y5916D02*Y6066D01*
X26783Y5866D02*X26733Y5916D01*
X26783Y5866D02*X26883D01*
X26933Y5916D02*X26883Y5866D01*
X26463Y6266D02*X26413Y6216D01*
X26463Y6266D02*X26563D01*
X26613Y6216D02*X26563Y6266D01*
X26613Y5916D02*Y6216D01*
Y5916D02*X26563Y5866D01*
X26463Y6066D02*X26413Y6016D01*
X26463Y6066D02*X26613D01*
X26463Y5866D02*X26563D01*
X26463D02*X26413Y5916D01*
Y6016D01*
X13010Y1161D02*X13160D01*
X13210Y1211D02*X13160Y1161D01*
X13210Y1211D02*Y1511D01*
X13160Y1561D01*
X13010D02*X13160D01*
X12890Y1511D02*X12840Y1561D01*
X12740D02*X12840D01*
X12740D02*X12690Y1511D01*
Y1211D02*Y1511D01*
X12740Y1161D02*X12690Y1211D01*
X12740Y1161D02*X12840D01*
X12890Y1211D02*X12840Y1161D01*
X12690Y1361D02*X12840D01*
X12370Y1561D02*X12570D01*
Y1361D02*Y1561D01*
Y1361D02*X12520Y1411D01*
X12420D02*X12520D01*
X12420D02*X12370Y1361D01*
Y1211D02*Y1361D01*
X12420Y1161D02*X12370Y1211D01*
X12420Y1161D02*X12520D01*
X12570Y1211D02*X12520Y1161D01*
X13696Y3065D02*X13896D01*
X13696D02*X13646Y3015D01*
Y2915D02*Y3015D01*
X13696Y2865D02*X13646Y2915D01*
X13696Y2865D02*X13846D01*
Y2665D02*Y3065D01*
Y2865D02*X13646Y2665D01*
X13526Y3015D02*X13476Y3065D01*
X13376D02*X13476D01*
X13376D02*X13326Y3015D01*
Y2715D02*Y3015D01*
X13376Y2665D02*X13326Y2715D01*
X13376Y2665D02*X13476D01*
X13526Y2715D02*X13476Y2665D01*
X13326Y2865D02*X13476D01*
X13206Y2665D02*X12956Y2915D01*
Y3065D01*
X13206D01*
X14748Y2827D02*Y3127D01*
X14698Y3177D01*
X14598D02*X14698D01*
X14598D02*X14548Y3127D01*
Y2827D02*Y3127D01*
X14598Y2777D02*X14548Y2827D01*
X14598Y2777D02*X14698D01*
X14748Y2827D02*X14698Y2777D01*
X14648Y2877D02*X14548Y2777D01*
X14278D02*X14378D01*
X14328D02*Y3177D01*
X14428Y3077D02*X14328Y3177D01*
X12938Y4016D02*Y4366D01*
Y4016D02*X12888Y3966D01*
X12788D02*X12888D01*
X12788D02*X12738Y4016D01*
Y4366D01*
X12468Y3966D02*X12568D01*
X12518D02*Y4366D01*
X12618Y4266D02*X12518Y4366D01*
X12198D02*X12148Y4316D01*
X12198Y4366D02*X12298D01*
X12348Y4316D02*X12298Y4366D01*
X12348Y4016D02*Y4316D01*
Y4016D02*X12298Y3966D01*
X12198Y4166D02*X12148Y4116D01*
X12198Y4166D02*X12348D01*
X12198Y3966D02*X12298D01*
X12198D02*X12148Y4016D01*
Y4116D01*
X12653Y8621D02*X12803D01*
X12853Y8671D02*X12803Y8621D01*
X12853Y8671D02*Y8971D01*
X12803Y9021D01*
X12653D02*X12803D01*
X12333D02*X12533D01*
Y8821D02*Y9021D01*
Y8821D02*X12483Y8871D01*
X12383D02*X12483D01*
X12383D02*X12333Y8821D01*
Y8671D02*Y8821D01*
X12383Y8621D02*X12333Y8671D01*
X12383Y8621D02*X12483D01*
X12533Y8671D02*X12483Y8621D01*
X12013Y9021D02*X12213D01*
Y8821D02*Y9021D01*
Y8821D02*X12163Y8871D01*
X12063D02*X12163D01*
X12063D02*X12013Y8821D01*
Y8671D02*Y8821D01*
X12063Y8621D02*X12013Y8671D01*
X12063Y8621D02*X12163D01*
X12213Y8671D02*X12163Y8621D01*
X12533Y6127D02*X12683D01*
X12733Y6177D02*X12683Y6127D01*
X12733Y6177D02*Y6477D01*
X12683Y6527D01*
X12533D02*X12683D01*
X12413Y6327D02*X12213Y6527D01*
X12163Y6327D02*X12413D01*
X12213Y6127D02*Y6527D01*
X11893D02*X11843Y6477D01*
X11893Y6527D02*X11993D01*
X12043Y6477D02*X11993Y6527D01*
X12043Y6177D02*Y6477D01*
Y6177D02*X11993Y6127D01*
X11893Y6327D02*X11843Y6277D01*
X11893Y6327D02*X12043D01*
X11893Y6127D02*X11993D01*
X11893D02*X11843Y6177D01*
Y6277D01*
X14131Y7727D02*X14281D01*
X14331Y7777D02*X14281Y7727D01*
X14331Y7777D02*Y8077D01*
X14281Y8127D01*
X14131D02*X14281D01*
X13811D02*X14011D01*
Y7927D02*Y8127D01*
Y7927D02*X13961Y7977D01*
X13861D02*X13961D01*
X13861D02*X13811Y7927D01*
Y7777D02*Y7927D01*
X13861Y7727D02*X13811Y7777D01*
X13861Y7727D02*X13961D01*
X14011Y7777D02*X13961Y7727D01*
X13540D02*X13640D01*
X13590D02*Y8127D01*
X13690Y8027D02*X13590Y8127D01*
X10136Y11118D02*X10286D01*
X10336Y11168D02*X10286Y11118D01*
X10336Y11168D02*Y11468D01*
X10286Y11518D01*
X10136D02*X10286D01*
X9815D02*X10015D01*
Y11318D02*Y11518D01*
Y11318D02*X9965Y11368D01*
X9865D02*X9965D01*
X9865D02*X9815Y11318D01*
Y11168D02*Y11318D01*
X9865Y11118D02*X9815Y11168D01*
X9865Y11118D02*X9965D01*
X10015Y11168D02*X9965Y11118D01*
X9695Y11318D02*X9495Y11518D01*
X9445Y11318D02*X9695D01*
X9495Y11118D02*Y11518D01*
X13211Y13615D02*X13361D01*
X13411Y13665D02*X13361Y13615D01*
X13411Y13665D02*Y13965D01*
X13361Y14015D01*
X13211D02*X13361D01*
X13090Y13965D02*X13040Y14015D01*
X12940D02*X13040D01*
X12940D02*X12890Y13965D01*
Y13665D02*Y13965D01*
X12940Y13615D02*X12890Y13665D01*
X12940Y13615D02*X13040D01*
X13090Y13665D02*X13040Y13615D01*
X12890Y13815D02*X13040D01*
X12770Y13965D02*X12720Y14015D01*
X12570D02*X12720D01*
X12570D02*X12520Y13965D01*
Y13865D02*Y13965D01*
X12770Y13615D02*X12520Y13865D01*
Y13615D02*X12770D01*
X12379Y13176D02*Y13526D01*
Y13176D02*X12329Y13126D01*
X12229D02*X12329D01*
X12229D02*X12179Y13176D01*
Y13526D01*
X11909Y13126D02*X12009D01*
X11959D02*Y13526D01*
X12059Y13426D02*X11959Y13526D01*
X11789Y13126D02*X11539Y13376D01*
Y13526D01*
X11789D01*
M02*
