M48
INCH,TZ
T11C0.020
T17C0.025
T28C0.038
T31C0.035
T55C0.021
T56C0.126
%
T11
X021850Y009803
X016299Y014448
X015314Y014724
X016968Y014763
X016968Y013582
X011732Y011968
X008110Y012637
X011889Y012480
X015866Y011968
X015669Y013622
X017401Y013149
X016417Y012047
X019409Y012086
X019015Y013149
X018976Y012519
X017992Y012834
X019960Y014527
X020078Y013031
X018700Y014511
X021732Y005476
X021299Y006574
X022322Y006614
X021811Y006574
X022519Y008228
X019921Y008622
X019921Y007401
X020968Y009602
X020236Y008149
X018826Y009566
X019960Y009173
X018826Y008976
X019212Y010236
X016496Y008267
X016023Y009055
X017047Y009291
X016141Y009925
X016929Y009881
X017047Y011417
X016141Y007795
X015551Y006141
X018110Y007952
X018031Y010118
X014842Y010275
X014976Y011496
X014960Y010905
X016063Y011338
X018307Y011259
X018110Y009173
X014803Y009330
X015039Y008818
X016299Y010472
X014015Y011574
X012480Y011456
X014527Y007874
X009488Y011062
X002126Y007440
X001732Y011141
X003610Y009405
X002086Y009488
X002165Y011614
X023228Y011141
X019409Y014803
X022795Y009645
X020535Y009901
X021220Y011929
X028779Y010039
X028031Y012047
X028700Y011614
X028621Y010984
X028346Y010433
X024252Y012244
X025905Y011496
X024291Y013976
X025787Y012992
X023858Y012755
X024252Y011338
X025275Y011023
X023267Y010433
X023307Y008228
X023303Y007000
X026181Y009409
X026063Y010000
X025000Y007913
X024448Y008307
X024409Y008858
X028307Y009527
X025551Y003976
X029803Y009133
X026102Y005472
X022795Y007795
X022716Y008740
X020984Y001102
X019881Y004763
X023070Y004685
X023779Y006063
X024566Y005944
X025078Y006929
X019566Y002874
X020078Y001456
X015590Y000590
X020748Y005433
X020393Y005027
X021574Y004724
X014763Y005393
X012716Y003503
X012716Y002362
X014803Y004881
X014606Y003976
X014763Y002519
X016023Y003779
X018818Y006063
X014330Y006259
X014803Y006732
X016055Y006885
X017047Y007165
X016929Y007874
X014803Y007283
X003385Y005236
X001771Y007007
X003385Y004685
X001102Y005393
T55
X002519Y006177
X002519Y005677
X002519Y005177
X002519Y004677
X002519Y004177
X002519Y003677
X002519Y003177
X002519Y002677
T17
X020551Y011889
X020551Y013889
T31
X012716Y014842
X012244Y014291
X014645Y013267
X020944Y013149
X010826Y007047
X008070Y009960
X008503Y007047
X001811Y008228
X003031Y007598
X004291Y009999
X006102Y007126
X006299Y010000
X023307Y015196
X021338Y014527
X025275Y013622
X024763Y012637
X023897Y010314
X029527Y004212
X029527Y003307
X022637Y001299
X023460Y003968
X024291Y004488
X024842Y005078
X024094Y001220
X024094Y002480
X024960Y001850
X016456Y001220
X018897Y001811
X015590Y002007
X012834Y004606
X011102Y005275
X010236Y004094
X011692Y003425
X016535Y005905
X005590Y003976
X004252Y005433
X003582Y002716
X008897Y005314
X007874Y004055
X006456Y005314
T28
X011023Y011968
X011023Y014968
X010118Y014960
X010118Y011960
X016023Y013110
X013023Y013110
X030236Y008149
X030236Y007149
X029236Y008149
X029236Y007149
X028236Y008149
X028236Y007149
X027236Y008149
X027236Y007149
X026236Y008149
X026236Y007149
X028267Y001259
X027267Y001259
X028267Y002259
X027267Y002259
X028267Y003259
X027267Y003259
X028267Y004259
X027267Y004259
X028267Y005259
X027267Y005259
X027244Y006220
X028228Y006220
X018267Y001259
X017267Y001259
X018267Y002259
X017267Y002259
X018267Y003259
X017267Y003259
X018267Y004259
X017267Y004259
X018267Y005259
X017267Y005259
T56
X008858Y014763
X000984Y014763
X030511Y014763
X030511Y000984
X000984Y000984
X008858Y000984
M30
